<?xml version="1.0" encoding="UTF-8"?>
<svg id="Layer_1" data-name="Layer 1" xmlns="http://www.w3.org/2000/svg" viewBox="0 0 131.74 145.3">
  <path d="M65.84,145.3c-1.22-.39-.59-1.75-.28-2.63.8-2.2,2.06-4.68,3.09-6.81,1.12-2.34,2.37-4.62,3.49-6.96-8.79,2.48-17.49,5.54-25.6,9.75-2.33,1.21-5.09,3.15-7.4,4.1-.67.27-.95.49-1.63.13-1.71-.9-5.16-4.01-6.67-5.43-.78-.74-2.71-2.41-1.27-3.37s4.56-2.12,6.27-2.83c13.58-5.65,27.98-8.42,42.07-12.48l2.41-4.11c-1.95-2.9-3.69-6.11-5.8-8.9-1.84-2.44-3.29-3.29-6.43-3.47-6.77-.39-14.08.74-20.66,2.25-2.48.57-5.02,1.43-7.5,1.9s-2.63.29-4.45-1.15c-1.36-1.08-2.9-2.45-4.15-3.65-.52-.5-2.23-2.08-2.3-2.71-.03-.32.19-.55.19-.79s-.22-.47-.19-.79c.08-.83,2.31-2.78,3-3.41,1.06-.97,4.11-3.81,5.27-4.23.96-.34,1.86-.07,2.83.13,5.5,1.13,10.59,2.78,16.26,3.54,3.61.48,11.77,1.29,14.97-.1,2.39-1.04,2.59-2.63,4.11-4.19s3.23-1.7,4.27-4.23c1.47-3.57.47-12.42-.13-16.4-.79-5.18-2.38-9.92-3.35-14.95-.15-.77-.34-1.55-.21-2.35.17-1.01,2.73-3.78,3.52-4.68.7-.78,3.27-3.75,4.11-3.9.45-.08.65.19.89.19.25,0,.39-.27.88-.17.87.17,3.31,2.98,4.03,3.78.8.89,1.71,1.92,2.45,2.85,1.37,1.74,1.39,2.14.95,4.35-.4,2.06-1.11,4.14-1.6,6.2-1.64,6.86-2.95,14.57-2.55,21.66.26,4.61,2.06,5.68,5.55,8.05,2.23,1.51,4.58,2.87,6.82,4.38l4.14-2.53c4.08-14.14,6.86-28.54,12.55-42.15.69-1.66,1.77-4.59,2.69-6.01.81-1.24,2.03-.27,2.8.5,1.65,1.65,3.78,4.23,5.19,6.11.76,1.02,1.32,1.37.81,2.69-.93,2.43-3.13,5.54-4.4,8-4.11,8-7.07,16.56-9.55,25.2,2.48-1.18,4.89-2.5,7.36-3.69,2.06-.99,4.49-2.23,6.61-2.99.85-.31,1.96-.83,2.42.27v.8c-.67,1.73-1.42,3.44-2.25,5.1-.55,1.1-2.17,4.47-2.95,5.15-.5.44-1.45.83-2.07,1.13-3.24,1.61-6.62,2.98-9.8,4.7-.6.32-2.66,1.38-2.92,1.88-.6,1.15,1.42,2.01,2.22,2.45,3.49,1.93,7.24,3.4,10.8,5.2.55.28,1.19.54,1.67.93.79.66,1.92,3.03,2.45,4.05,1.06,2.05,2.04,4.14,2.85,6.3v.8c-.47,1.01-1.51.56-2.32.27-1.91-.65-4.15-1.81-6.01-2.69-2.72-1.29-5.41-2.67-8.06-4.09,2.04,7.42,4.63,14.73,7.81,21.74l3.88,7.56c-9.15-5.18-19.07-8.88-29.2-11.7,1.86,3.84,3.9,7.61,5.62,11.53.37.84,1.5,3.19,1.44,3.97-.05.57-.29.68-.76.9h-.6c-2.96-1.15-5.91-2.5-8.67-4.08-1.19-.69-1.66-.89-2.35-2.15-.95-1.72-1.72-3.81-2.6-5.6-.7-1.43-3.47-7.52-4.45-8.15-1.06-.67-1.8,1.04-2.25,1.82-2.18,3.75-3.66,8.02-5.69,11.81-.95,1.77-2.09,2.11-3.79,3.01-2.36,1.26-4.79,2.44-7.3,3.35h-.6ZM73.04,98.2c4.79,2.08,8.87,5.5,11.95,9.7,1.41-1.91,3.06-3.59,4.75-5.25,1.46-1.44,2.92-2.9,4.6-4.1-4.18-3.13-7.57-7.16-9.7-11.95-.12-.09-1.08,1.98-1.18,2.17-2.45,4.37-4.29,6.04-8.65,8.45-.16.09-1.86.86-1.77.98ZM105.21,105.63l-3.88-2.38-.36.03-6.8,4.36-4.51,7.1,2.33,3.86.34.26,17.7,4.75-4.83-17.97Z"/>
  <path d="M.04,99c-.05-.38-.05-1.32,0-1.7.63-5.24,9.52-5.29,9,1.45-.4,5.26-8.38,5.19-9,.25Z"/>
  <path d="M84.64,0c5.24.39,5.98,7.7.89,8.94-6.49,1.57-7.61-8.6-1.39-8.94h.5Z"/>
  <path d="M58.83,72.4c-8.87-2.21-17.62-4.94-25.97-8.68-.82-.37-2.87-1.16-3.47-1.63-.99-.77.28-2.2.88-2.79,1.32-1.3,5.64-5.14,7.12-5.88,1.23-.61,2.33.51,3.43.98-.28-.79-1.29-2.11-1.2-2.94.05-.44,1.08-1.69,1.4-2.11,1.36-1.75,3.12-3.86,4.65-5.45.71-.75,2.13-2.02,2.97-.77.68,1.02,1.57,3.37,2.1,4.6,3.44,7.95,6.02,16.25,8.08,24.67Z"/>
  <path d="M16.81,107.93c.83-.1,2.72-.11,3.48.17.61.22.86.74.94,1.36.61,4.29.33,9.16.5,13.5.01.2-.1.4-.1.6-.07,2.23-.09,4.48-.3,6.7-.05.52-.12,1.68-.45,2.05-.6.65-3.83.63-4.65.36-1.18-.39-1.2-2.15-1.3-3.2-.52-5.79-.57-13.43.1-19.2.15-1.25.35-2.15,1.78-2.32Z"/>
  <path d="M16.51,63.52c.67-.11,3.04-.09,3.67.08.7.2.92.56,1.05,1.25.4,2.25.34,5.45.41,7.79.13,4.28.07,8.72-.3,13-.1,1.09-.08,2.45-1.46,2.64-.68.09-2.5.09-3.19,0-1.33-.15-1.5-1.13-1.64-2.26-.52-4.36-.43-9.2-.31-13.58.06-2.1-.1-5.79.49-7.71.17-.57.67-1.12,1.28-1.22Z"/>
  <path d="M58.61,28.23c4.21-.11,8.48-.07,12.67.27.66.05,1.62.08,2.23.27s1.09.57,1.19,1.21.1,3.15-.04,3.71c-.16.6-.7,1.01-1.31,1.09-1.48.21-3.44.25-4.97.33-5.16.28-10.56.25-15.7-.21-.65-.06-2.07-.09-2.44-.66-.41-.65-.4-3.26-.29-4.06.22-1.49,1.81-1.56,3.02-1.68,1.81-.18,3.81-.22,5.63-.27Z"/>
  <path d="M103.11,28.23l7.17-.03c.24,0,.46.1.69.11,1.98.06,4.14.01,6.1.3,1.1.16,1.96.45,2.13,1.67.11.77.11,2.9-.14,3.61s-.72.8-1.39.91c-2.51.4-5.72.34-8.29.41-4.31.11-9.1.07-13.39-.4-.8-.09-1.45-.49-1.55-1.35-.08-.69-.08-2.71.01-3.39.15-1.14,1.18-1.34,2.14-1.46,2.15-.27,4.37-.16,6.53-.37Z"/>
  <path d="M83.71,13.63c1.86-.22,3.64.23,4.7,1.84,1.81,2.76.32,6.81-3.13,7.13-6.7.62-6.87-8.34-1.57-8.97Z"/>
  <path d="M17.71,93.53c5.98-.58,6.52,8.54,1.16,9.16-6.39.74-7.04-8.59-1.16-9.16Z"/>
  <path d="M83.71,27.23c5.07-.69,7.55,5.55,3.42,8.22-3.7,2.38-8.47-1.21-6.84-5.44.49-1.27,2.06-2.59,3.42-2.78Z"/>
</svg>