<svg xmlns="http://www.w3.org/2000/svg" version="1.1" id="Layer_1" x="0px" y="0px" width="100%" viewBox="0 0 1222 1221" enable-background="new 0 0 1222 1221" xml:space="preserve">
<path fill="#000000" opacity="1.000000" stroke="none" d=" M386.555847,1.000000   C391.486969,6.484567 388.490601,11.981133 386.383301,16.971485   C381.144073,29.378717 375.430664,41.593727 369.633423,53.755211   C363.001038,67.668747 356.072388,81.441063 348.960083,95.910248   C361.208588,92.205513 373.260590,88.869476 385.108154,84.920219   C424.719025,71.716400 463.745117,57.053757 500.543823,37.057514   C513.253052,30.151369 525.954163,23.224924 538.525879,16.073692   C544.075378,12.916968 549.055298,13.432653 553.739014,17.333324   C564.666199,26.433790 575.632507,35.497890 586.275879,44.923485   C590.584595,48.739231 594.544983,53.144196 597.828064,57.862595   C600.646362,61.912960 599.268494,64.778763 594.774597,67.015747   C589.031128,69.874733 583.276611,72.711540 578.425049,75.113289   C579.291809,78.683197 580.793945,82.181885 580.897522,85.721481   C581.745667,114.716492 582.711365,143.717621 582.825745,172.720108   C582.875916,185.450851 580.929688,198.182571 580.094055,210.927231   C579.771301,215.849411 576.235352,218.204941 572.599426,218.578522   C566.088989,219.247406 559.353333,219.087631 552.862732,218.186722   C546.867004,217.354492 544.170898,213.526459 544.032959,207.408585   C543.296753,174.744278 542.566956,142.079041 542.086731,109.410431   C541.993896,103.097870 543.020630,96.768852 543.579712,89.843552   C537.429199,91.985580 531.440796,93.902428 525.575439,96.141594   C490.256195,109.625092 453.691071,118.805031 417.134705,128.128494   C386.806305,135.863541 356.847443,145.071686 326.443909,152.473099   C317.486542,154.653671 311.916321,158.433304 308.721130,166.625763   C308.088928,168.246796 307.209808,170.000244 305.934814,171.103470   C299.370880,176.783005 302.359131,182.029083 306.151093,187.601151   C316.854431,203.328964 327.267487,219.255188 338.044403,234.931747   C344.403564,244.182083 353.880829,248.817932 364.724060,249.857666   C375.076569,250.850342 385.573700,251.333679 395.949982,250.839203   C410.480377,250.146759 425.064941,249.040878 439.431519,246.840057   C458.892914,243.858780 478.221161,239.919800 497.506287,235.909515   C508.820892,233.556686 520.056519,230.649261 531.116821,227.295807   C542.915649,223.718445 553.116760,224.721191 562.387817,233.734711   C572.408813,243.477341 583.186523,252.437302 593.384277,262.004974   C596.985352,265.383484 598.149048,269.503784 598.601562,275.052612   C599.222107,282.660797 595.426453,286.316925 591.125488,290.255096   C579.624023,300.786346 567.829407,310.997070 556.183777,321.371643   C550.635437,326.314362 544.126953,326.305969 537.532593,324.772919   C511.048553,318.615967 484.673004,311.971558 458.108521,306.191345   C447.494690,303.881897 436.529205,302.820190 425.663879,302.119781   C408.359283,301.004211 391.008667,300.297302 373.669891,300.104767   C356.614258,299.915375 342.660522,306.382324 333.791107,321.669586   C329.827576,328.501190 323.216309,332.400208 317.225128,336.916626   C307.124512,344.530945 301.453949,354.300110 300.971344,367.032166   C300.822601,370.955994 299.908875,374.887604 300.098450,378.778931   C300.390533,384.773346 301.535339,390.722565 301.933960,396.716553   C302.252655,401.508118 301.996857,406.337799 301.999695,411.150543   C302.002930,416.641388 301.536011,422.183716 302.125580,427.611115   C303.034912,435.982300 304.406067,444.327087 306.050781,452.589661   C309.417206,469.501343 312.933441,486.387238 316.698578,503.214233   C319.541870,515.921265 323.060547,528.477295 325.896942,541.185669   C327.304810,547.493652 324.795807,553.141357 320.620575,557.771729   C309.138794,570.505127 297.460114,583.061096 285.856262,595.684387   C285.519745,596.050476 285.192596,596.449219 284.787445,596.724304   C280.860199,599.391235 267.620117,598.363464 264.405884,594.833435   C252.449234,581.701782 240.486038,568.570496 228.826233,555.177063   C224.035355,549.673889 224.864655,542.749878 226.380829,536.280640   C232.104950,511.856812 238.497147,487.582001 243.795013,463.068939   C246.464828,450.715759 247.596146,437.999390 248.903503,425.393372   C249.753510,417.197296 249.672104,408.904266 249.998581,400.654297   C250.338318,392.069916 250.926865,383.485413 250.936142,374.900452   C250.948608,363.378448 249.591705,351.951050 240.923584,343.347046   C235.346283,337.811035 229.133148,332.754974 222.612411,328.363647   C209.135101,319.287445 195.287354,310.758301 181.500488,302.150726   C180.456909,301.499176 178.384415,301.464813 177.307007,302.067505   C170.858231,305.674652 164.036942,308.923645 158.427109,313.597015   C155.483902,316.048920 154.212830,321.009857 153.109253,325.087463   C145.473755,353.299713 138.132797,381.591492 130.594772,409.830383   C124.135674,434.027374 118.052597,458.341980 110.847069,482.317200   C104.810555,502.402679 97.392288,522.072937 90.592628,541.929321   C90.494461,542.216003 90.484222,542.532837 90.381104,543.141663   C100.442673,542.429504 110.422379,541.468140 120.424133,541.089722   C129.742874,540.737183 139.087128,540.879150 148.416473,541.030212   C161.668976,541.244751 174.924973,541.504517 188.166000,542.064148   C195.509705,542.374573 202.833557,543.261597 210.152161,544.024963   C215.669785,544.600464 218.822067,548.035217 218.966827,553.713013   C219.115448,559.541687 219.073715,565.378296 218.975174,571.209106   C218.903427,575.454163 215.265060,579.532959 211.254593,579.978821   C207.513351,580.394653 203.762222,580.812927 200.004532,580.971313   C190.090393,581.389160 180.171555,581.708740 170.252380,581.989685   C157.002975,582.364929 143.737442,583.207214 130.504532,582.862305   C114.236763,582.438293 97.990204,581.071106 81.748978,579.908813   C79.535088,579.750366 77.405151,578.418762 75.436111,577.702881   C72.757904,583.476562 70.181961,589.538635 67.161095,595.370361   C65.002739,599.537109 57.599327,599.015137 52.866035,594.290894   C48.077724,589.511658 43.390110,584.597900 39.034817,579.426086   C31.905613,570.960266 25.332714,562.017151 18.036810,553.703857   C13.444060,548.470703 13.400075,543.675049 16.536179,537.848022   C28.346870,515.903320 40.560268,494.142609 51.423313,471.731598   C59.299931,455.481750 65.682304,438.463013 72.001480,421.515137   C78.547096,403.959930 84.267921,386.095184 90.233948,368.326996   C92.313103,362.134796 94.047539,355.826874 96.158493,348.847504   C94.462357,349.514130 93.206062,349.907074 92.039131,350.481567   C72.842300,359.931488 53.729378,369.556061 34.432095,378.795685   C26.945103,382.380493 19.041647,385.093506 11.338594,388.229889   C7.650612,389.731506 4.318536,389.731384 1.359759,386.093964   C1.000000,383.299988 1.000000,380.599976 1.354931,377.360107   C2.192323,375.990173 2.725088,375.185028 3.149772,374.326416   C10.969179,358.517151 18.814606,342.720551 26.563175,326.876587   C29.183432,321.518860 33.413940,318.176239 38.714783,315.688477   C59.043571,306.147644 79.332870,296.520569 99.553810,286.753662   C104.167252,284.525330 108.531738,281.740051 112.863892,278.980438   C119.700478,274.625549 119.764175,271.337799 113.130638,267.044067   C109.500366,264.694305 105.811470,262.365509 101.924438,260.493561   C80.963966,250.399414 59.865139,240.589722 38.987747,230.328491   C35.117561,228.426285 30.818302,225.591507 28.816605,222.012802   C21.072397,208.167435 14.204331,193.833191 6.947803,179.712982   C5.081834,176.082047 2.988746,172.567841 0.999998,169.000000   C1.000000,166.629440 1.000000,164.258896 1.359718,161.338867   C3.466352,155.795715 7.506356,156.106476 11.017666,157.617188   C26.762968,164.391495 42.456165,171.305115 57.979237,178.572052   C70.596268,184.478577 82.944893,190.958435 96.192459,197.573486   C79.170059,138.234009 58.327141,81.450188 28.027233,28.857010   C55.662697,41.568398 82.838425,55.371445 111.019852,66.664940   C139.294571,77.995819 168.572067,86.824417 198.577026,97.151306   C192.222702,84.559196 186.455276,73.603462 181.119492,62.441399   C173.784485,47.097118 166.641190,31.656931 159.707443,16.127596   C157.532761,11.257030 155.019897,5.935208 160.000000,1.000000   C162.370560,1.000000 164.741104,1.000000 167.667603,1.364880   C168.874741,1.829144 169.601242,1.774382 170.166229,2.050315   C187.163361,10.351303 204.327652,18.342484 220.997986,27.257002   C225.106308,29.453947 228.481094,34.225883 230.687592,38.577442   C243.377365,63.603802 255.546722,88.893509 268.076904,114.001907   C269.987030,117.829498 273.479004,119.964775 277.549286,114.805115   C280.416412,111.170631 282.895142,107.125160 284.941010,102.965042   C295.071228,82.365799 305.353119,61.827610 314.830780,40.927448   C318.786774,32.203682 324.877838,26.807383 333.213379,22.926165   C348.552979,15.783684 363.745941,8.326203 379.000000,0.999998   C381.370575,1.000000 383.741119,1.000000 386.555847,1.000000  M217.504868,220.998276   C218.713760,219.790970 220.170807,218.747330 221.092041,217.350342   C228.098572,206.725677 234.814621,195.904388 242.017227,185.416351   C245.357132,180.552994 245.215515,176.540619 241.635559,172.037308   C239.449463,169.287384 238.136002,165.840057 235.929932,163.110641   C233.480545,160.080200 233.172714,155.712036 227.596283,154.624786   C216.294891,152.421326 205.310150,148.622864 194.157898,145.619232   C172.547775,139.798965 150.912109,134.073624 128.590225,128.123199   C130.001816,133.830231 131.189560,138.973694 132.549362,144.071259   C138.672745,167.026382 144.869568,189.961929 150.987823,212.918396   C153.562698,222.579620 154.722534,232.823639 165.883926,237.550598   C173.191193,240.645294 179.583481,248.757050 188.089005,240.002182   C188.535172,239.542923 189.108078,239.194870 189.655304,238.847534   C198.758530,233.069946 207.867065,227.300735 217.504868,220.998276  M304.967438,252.458847   C299.645416,247.643021 294.068878,243.075211 289.069672,237.944824   C283.567383,232.298141 278.595856,226.134247 274.159607,221.070587   C256.445038,238.628479 238.836166,256.081604 220.984482,273.775421   C243.874146,290.847229 262.489075,313.330383 276.048340,340.617493   C288.789246,309.166656 311.255066,288.308624 342.075989,275.606110   C339.397308,274.220062 337.167572,273.267120 335.145660,271.986084   C325.224426,265.700134 315.358429,259.326965 304.967438,252.458847  z" />
<path fill="#000000" opacity="1.000000" stroke="none" d=" M1223.000000,384.583344   C1220.367188,389.217438 1216.918945,390.084717 1212.335205,388.087891   C1204.558228,384.700104 1196.499268,381.929474 1188.845459,378.295654   C1168.662109,368.713287 1148.632568,358.806732 1127.843262,348.689240   C1130.675781,358.171234 1132.997070,367.251862 1136.093872,376.059784   C1144.965942,401.292480 1153.083496,426.868805 1163.527100,451.447723   C1173.248047,474.326019 1185.536255,496.116821 1196.786865,518.339417   C1199.686768,524.067261 1202.583618,529.850586 1206.109131,535.194519   C1210.978027,542.574524 1210.650146,549.067261 1204.787476,555.696228   C1193.604980,568.340515 1182.665771,581.199890 1171.513916,593.871582   C1170.285522,595.267395 1168.421143,596.216125 1166.692505,597.037720   C1161.538330,599.487610 1158.132446,598.326172 1155.741211,593.297302   C1153.263428,588.086548 1150.948853,582.798096 1148.900269,578.286560   C1143.252319,579.197144 1137.684204,580.678284 1132.066650,580.898621   C1108.904785,581.807251 1085.726196,582.882751 1062.556885,582.814880   C1045.965088,582.766235 1029.351196,581.282654 1012.815674,579.716431   C1010.059998,579.455383 1005.788574,575.749451 1005.442749,573.198120   C1004.468750,566.013672 1004.850037,558.579102 1005.347046,551.287415   C1005.625000,547.209045 1008.942322,544.993286 1012.822998,544.108154   C1015.189148,543.568481 1017.619873,543.181396 1020.040222,543.035034   C1027.120239,542.606934 1034.206299,542.191406 1041.295898,542.027893   C1059.379639,541.610779 1077.468628,541.008728 1095.551880,541.110840   C1108.215332,541.182312 1120.873047,542.291870 1133.595093,542.940979   C1128.322876,527.719421 1122.516846,512.773438 1117.979492,497.451782   C1110.233032,471.293823 1103.231689,444.914124 1096.013062,418.601318   C1089.725708,395.683807 1083.561157,372.732513 1077.360107,349.791351   C1074.553101,339.406799 1071.890259,328.981537 1068.917725,318.645020   C1068.337769,316.628204 1067.038818,314.332703 1065.369629,313.202423   C1059.515381,309.238281 1053.433594,305.583923 1047.244995,302.161346   C1045.968262,301.455231 1043.461426,301.635437 1042.194702,302.451782   C1025.002563,313.531952 1007.791077,324.593475 990.878845,336.092651   C980.966125,342.832611 974.387634,352.183411 974.084717,364.600403   C973.723145,379.425323 973.354126,394.302002 974.182739,409.089325   C975.002014,423.711365 976.763794,438.338501 979.107666,452.802094   C981.841919,469.673859 985.463135,486.412231 989.070007,503.128510   C991.374512,513.808533 993.933228,524.472046 997.144531,534.906982   C1000.235413,544.950745 997.949829,553.084656 990.986816,560.561096   C980.546570,571.771179 970.410950,583.265076 959.972351,594.476746   C955.116089,599.692688 941.922119,599.794434 937.148987,594.591736   C925.028748,581.380798 912.994385,568.085022 901.206726,554.577942   C896.111572,548.739563 897.854736,541.731567 899.463684,535.052917   C904.924988,512.382874 910.836304,489.813019 915.815125,467.038544   C918.374939,455.329529 919.306152,443.265808 921.010437,431.367676   C921.608215,427.194397 922.586975,423.055786 922.878418,418.865662   C923.066772,416.156769 922.055298,413.383087 922.054932,410.638397   C922.054199,405.375153 922.432068,400.113007 922.577454,394.848297   C922.811157,386.390961 923.364380,377.917419 923.041992,369.479004   C922.841370,364.226349 921.822998,358.849091 920.202026,353.841553   C917.478882,345.429169 911.245544,339.317932 904.039307,334.793945   C896.964478,330.352478 891.979248,324.264709 887.338135,317.723450   C880.356140,307.883057 871.108826,301.740265 859.028931,301.101562   C844.473145,300.331970 829.803467,299.253540 815.313477,300.234497   C788.279541,302.064606 761.491272,306.148315 735.164490,312.920959   C719.124573,317.047241 702.929382,320.568268 686.878601,324.654419   C677.881470,326.944855 670.536865,324.669403 663.871521,318.447418   C652.794861,308.107574 641.389038,298.119904 630.335754,287.755707   C623.370361,281.224548 622.448975,270.492340 628.980835,263.794861   C637.478455,255.081833 646.829834,247.197067 655.884277,239.034058   C658.662109,236.529694 661.989380,234.577393 664.513489,231.859970   C671.418091,224.426590 679.718140,224.123871 688.741028,226.311600   C713.125732,232.223953 737.421448,238.561554 761.955200,243.776779   C774.963013,246.541901 788.353210,247.820175 801.641785,248.871246   C817.101440,250.093994 832.643066,250.886002 848.140747,250.767807   C855.930603,250.708420 863.951050,248.997955 871.412415,246.612076   C879.030090,244.176254 884.482483,238.052063 888.837891,231.440521   C899.817993,214.772308 910.585083,197.962708 921.279236,181.109283   C922.056213,179.884872 922.219971,177.484375 921.539856,176.255524   C918.195801,170.213669 914.318054,164.468628 910.929321,158.449600   C908.385864,153.931931 903.682617,154.200516 899.779053,153.115662   C875.492310,146.366028 851.140869,139.846573 826.779175,133.370132   C807.368164,128.209778 787.791382,123.634979 768.506714,118.046478   C745.262085,111.310440 722.227356,103.843674 699.148315,96.546211   C692.926941,94.579048 686.874023,92.079002 680.992859,89.915222   C681.331848,105.283295 681.790466,120.426064 681.964172,135.572098   C682.130249,150.056137 682.244995,164.549164 681.914917,179.027588   C681.690491,188.874924 680.877625,198.725189 679.915955,208.533752   C679.250183,215.323837 675.164185,218.724731 668.217773,218.971313   C663.889954,219.124954 659.551941,218.968643 655.218994,219.006866   C647.413269,219.075699 643.476440,215.182297 643.036682,207.087967   C642.543579,198.010971 642.204529,188.921127 642.025818,179.832413   C641.611145,158.748337 640.926025,137.657104 641.157227,116.577629   C641.289734,104.492302 642.940918,92.418755 644.067322,80.354729   C644.226929,78.645134 645.289185,77.019829 645.966797,75.269966   C640.794128,72.740700 634.920288,69.890198 629.066528,66.999092   C624.800537,64.892166 624.275696,62.566124 625.910889,58.073872   C628.819092,50.084293 636.124878,46.220325 641.792847,40.983643   C650.396057,33.035046 659.959656,26.136486 668.877808,18.514095   C674.304626,13.875785 679.427612,12.756774 686.062866,16.393995   C707.355896,28.066038 728.511353,40.092857 750.424744,50.498394   C769.782715,59.690506 789.881409,67.450356 810.027832,74.817802   C829.736084,82.024994 849.915466,87.944862 869.896606,94.403122   C871.502197,94.922035 873.174744,95.233749 875.298218,95.761581   C869.497375,84.477966 863.552551,73.819977 858.447327,62.773888   C850.583008,45.757965 843.237122,28.500679 835.813232,11.284555   C834.445435,8.112605 833.740784,4.649005 836.890686,1.376254   C839.370544,1.000000 841.741150,1.000000 844.671509,1.368315   C846.152954,1.997512 847.133728,2.133412 847.987305,2.537836   C863.215271,9.753152 878.526917,16.802925 893.593811,24.341627   C899.441467,27.267488 904.638428,30.837864 907.548401,37.718616   C913.791077,52.479549 920.929443,66.877129 928.090942,81.228897   C933.397766,91.863846 939.086670,102.326912 945.047241,112.610374   C949.176270,119.733841 953.147217,119.584000 956.813721,112.536667   C964.292175,98.162537 971.738831,83.768288 978.926758,69.247803   C984.046509,58.905293 988.849670,48.399921 993.559265,37.862274   C997.951294,28.035131 1007.415344,24.553377 1015.860718,20.152899   C1028.999878,13.306768 1042.596924,7.339658 1056.000000,0.999990   C1058.370605,1.000000 1060.741089,1.000000 1063.646729,1.356166   C1069.178101,5.015459 1066.745850,9.408386 1065.316040,13.077153   C1061.482422,22.914158 1057.403931,32.679176 1052.896606,42.224346   C1047.340576,53.990040 1041.236084,65.496132 1035.402100,77.131264   C1032.312500,83.293152 1029.294067,89.490685 1026.148682,95.864342   C1085.344604,78.971916 1142.294922,57.958244 1195.777588,27.977854   C1165.634033,81.512604 1144.795044,138.306854 1127.822998,197.563431   C1136.413208,193.282272 1144.091919,189.224274 1151.961548,185.578476   C1172.047852,176.272919 1192.232422,167.179993 1212.346436,157.934067   C1216.893433,155.843979 1220.367554,156.784760 1223.000000,161.000000   C1223.000000,162.388885 1223.000000,163.777786 1222.628174,165.703217   C1221.995483,167.508057 1221.983887,168.896927 1221.436768,170.026520   C1213.326660,186.772949 1205.259766,203.542633 1196.867554,220.147537   C1195.489014,222.875137 1193.010620,225.600922 1190.344604,227.023621   C1181.030518,231.993866 1171.347412,236.266190 1161.922241,241.036102   C1145.017456,249.591187 1128.063477,258.066071 1111.403809,267.080383   C1103.859863,271.162323 1103.871216,274.801392 1111.182861,278.912842   C1122.362549,285.199432 1133.810791,291.033508 1145.325684,296.692230   C1158.853516,303.340271 1172.655151,309.432709 1186.154053,316.136963   C1189.479004,317.788300 1193.227295,320.287506 1194.842651,323.402252   C1204.542236,342.105408 1213.676392,361.101807 1223.000000,380.000000   C1223.000000,381.388885 1223.000000,382.777802 1223.000000,384.583344  M1067.237427,135.966232   C1066.737793,135.977997 1066.212036,135.891357 1065.742188,136.015656   C1043.852417,141.805908 1021.945068,147.531967 1000.107117,153.511841   C996.901001,154.389786 993.107727,155.752380 991.189575,158.165375   C987.013794,163.418472 983.646240,169.372086 980.450623,175.309692   C979.532227,177.016235 979.503540,180.136398 980.474548,181.773621   C986.870850,192.558548 993.596558,203.150620 1000.349915,213.719284   C1001.858582,216.080292 1003.516357,218.683258 1005.767761,220.175934   C1017.566528,227.998627 1029.718262,235.294647 1041.416138,243.260178   C1044.273804,245.206161 1045.896362,244.792969 1048.262939,243.273392   C1053.681152,239.794510 1059.236450,236.527039 1064.607788,232.979324   C1066.279907,231.874954 1068.254150,230.392990 1068.852783,228.657166   C1070.573486,223.667404 1071.638428,218.453369 1073.002197,213.338409   C1079.163574,190.227646 1085.362671,167.126892 1091.491943,144.007599   C1092.857422,138.856918 1093.995117,133.645798 1095.317749,128.128571   C1085.638916,130.752136 1076.804565,133.146774 1067.237427,135.966232  M925.041077,303.566284   C933.038330,315.855286 941.035645,328.144287 948.938660,340.288452   C961.483093,313.433807 979.977722,290.817474 1004.070679,273.143219   C984.274048,257.042725 966.810181,239.191467 950.381470,219.720428   C932.686890,244.228363 909.848511,262.223602 882.652771,275.164429   C897.699097,283.584595 912.536621,291.185364 925.041077,303.566284  z" />
<path fill="#000000" opacity="1.000000" stroke="none" d=" M1.000000,836.454102   C7.510317,832.158386 13.535874,835.146118 19.238541,837.808899   C42.240017,848.549255 65.110023,859.571411 88.011841,870.524536   C90.496063,871.712708 92.872025,873.127258 95.298233,874.436707   C95.776939,874.052185 96.255646,873.667603 96.734344,873.283020   C87.372017,846.256531 78.108864,819.195129 68.617920,792.213928   C60.073334,767.923035 48.817570,744.820251 36.942661,722.030212   C31.152802,710.918457 25.178005,699.857422 18.505535,689.265686   C13.170206,680.796448 13.523715,673.753662 20.163790,666.322083   C31.077057,654.107971 41.577930,641.526123 52.397240,629.226501   C53.827568,627.600464 55.980774,626.427490 58.017624,625.554199   C62.925465,623.450073 65.967232,625.011780 68.051239,630.003479   C69.904633,634.442749 71.897362,638.838074 74.135361,643.091309   C74.622627,644.017273 76.491096,644.853516 77.592491,644.712036   C83.189285,643.992859 88.711342,642.528198 94.319069,642.095215   C103.210587,641.408813 112.148560,641.311890 121.068260,641.005676   C131.486252,640.648010 141.913422,639.911377 152.322723,640.101013   C167.167755,640.371338 182.001678,641.303467 196.837051,642.020935   C201.095108,642.226929 205.340973,642.679199 209.593994,642.997681   C215.367386,643.430115 218.800278,646.809326 218.963959,652.652893   C219.127197,658.481506 219.069626,664.319214 218.976669,670.150879   C218.908630,674.418701 215.451355,678.443604 211.307022,678.963745   C205.000565,679.755188 198.676620,680.788086 192.343521,680.919495   C166.929337,681.446960 141.509064,681.856323 116.090401,681.894714   C107.459373,681.907776 98.826500,680.697754 90.141724,680.042664   C95.280869,694.476990 100.993996,708.440063 105.221840,722.839294   C113.586563,751.327881 121.163658,780.048462 129.003540,808.690308   C136.251892,835.171082 143.425293,861.672363 150.613327,888.169617   C151.791260,892.511841 153.522858,896.830811 153.856262,901.246765   C154.422760,908.749817 160.243805,910.896973 165.284912,914.013977   C167.885483,915.621948 170.964417,916.701050 173.095200,918.772278   C177.300430,922.859741 180.683685,922.292603 185.301361,919.094727   C199.213516,909.460449 213.401688,900.214722 227.649017,891.077576   C238.327179,884.229431 247.871414,876.153137 249.344131,862.920288   C250.682678,850.892883 250.029190,838.641296 250.197067,826.487732   C250.240570,823.338379 249.940430,820.182739 250.022095,817.035767   C250.432068,801.234558 248.264816,785.705994 245.054443,770.303406   C240.779449,749.792969 236.410187,729.301758 231.976120,708.825073   C229.865662,699.078857 226.988541,689.462402 225.538040,679.628052   C224.994370,675.942017 226.517242,671.045288 228.825684,668.018188   C235.174942,659.692444 242.380081,652.011780 249.361923,644.178711   C253.866165,639.125366 258.458862,634.139648 263.218231,629.327698   C269.598297,622.877258 281.783081,622.819031 287.911499,629.488098   C299.366669,641.953796 310.509460,654.706055 321.815491,667.309265   C327.612976,673.771973 326.394196,681.278992 324.679352,688.591980   C318.951141,713.019409 312.487030,737.283752 307.236603,761.809998   C304.487396,774.652466 303.978058,787.959473 301.854279,800.958191   C301.007202,806.142700 302.016876,810.767334 302.787323,815.714478   C303.421906,819.789185 302.989258,824.393127 301.703613,828.329468   C298.887512,836.951355 299.646790,845.471985 301.009979,854.064148   C301.890198,859.612244 302.538177,865.313049 304.372192,870.567810   C307.418732,879.296814 315.054230,884.300537 321.753387,890.057373   C326.231384,893.905518 330.443695,898.177856 334.184601,902.744019   C341.182159,911.285400 348.244019,919.496155 359.940735,921.496399   C362.166901,921.877075 364.364624,922.715698 366.588623,922.766235   C375.745422,922.974304 384.907196,922.967712 394.067291,923.023315   C397.066833,923.041504 400.088715,923.241394 403.062683,922.959900   C416.070557,921.728638 429.175232,921.015808 442.038422,918.875000   C462.730225,915.431274 483.293610,911.175964 503.843323,906.934387   C515.020142,904.627380 526.119507,901.872925 537.136230,898.886475   C545.566895,896.601074 552.872009,897.958008 559.313965,903.832947   C570.878967,914.380066 582.461548,924.908325 593.965210,935.522156   C597.387634,938.679810 597.916504,942.443604 598.523682,947.314514   C599.982361,959.016907 590.952148,962.943237 585.158936,969.023926   C578.639832,975.866272 570.344177,981.022095 563.866150,987.896240   C554.087646,998.272766 543.228088,999.376953 530.123718,995.781982   C508.882751,989.954834 487.466858,984.603577 465.885284,980.234497   C450.619476,977.144104 434.997803,975.584473 419.461273,974.126892   C405.848206,972.849670 392.121185,972.007690 378.466278,972.242249   C370.012085,972.387573 361.384674,974.169434 353.223297,976.548645   C343.900269,979.266418 338.245636,987.161682 333.098053,994.825745   C322.597382,1010.459717 312.498932,1026.365356 302.393311,1042.259766   C301.703430,1043.344849 301.776215,1045.584595 302.440033,1046.747437   C305.789185,1052.614624 309.276489,1058.423096 313.096924,1063.990234   C314.492126,1066.023193 316.698944,1068.242676 318.943878,1068.838501   C358.689758,1079.388916 398.622253,1089.254883 438.252380,1100.216064   C466.680542,1108.078857 494.745422,1117.264160 522.920837,1126.025269   C529.955811,1128.212646 536.791992,1131.039307 543.608521,1133.531616   C543.082092,1126.441406 542.158142,1119.158813 542.074341,1111.866699   C541.854248,1092.703247 541.755005,1073.531372 542.084534,1054.371094   C542.311218,1041.193359 543.177612,1028.018677 544.065491,1014.863342   C544.545593,1007.749878 548.005737,1005.002197 555.295715,1005.000244   C560.128845,1004.998901 564.981995,1005.278259 569.790405,1004.933350   C576.629761,1004.442810 580.493164,1007.619629 580.960754,1015.843933   C581.467346,1024.752808 581.795715,1033.676636 581.974121,1042.598389   C582.388855,1063.348511 583.091064,1084.106567 582.843140,1104.851318   C582.690857,1117.597046 581.040344,1130.327881 579.947327,1143.055542   C579.816406,1144.580200 578.961670,1146.042603 578.215271,1148.186035   C582.436218,1150.073120 586.956848,1152.032227 591.425110,1154.104248   C602.102417,1159.055542 600.468384,1163.730591 593.932922,1171.228760   C588.140625,1177.874146 581.022644,1183.402222 574.259094,1189.152100   C567.816650,1194.629028 560.712341,1199.368530 554.572083,1205.147461   C548.853149,1210.529785 543.335693,1210.038208 537.258972,1206.678711   C526.010986,1200.460083 514.775757,1194.217773 503.571381,1187.921021   C461.365784,1164.202393 415.927673,1148.424561 370.108368,1133.593506   C363.195251,1131.355713 356.174377,1129.451050 348.387085,1127.151123   C352.823944,1135.588379 357.108887,1143.283203 360.972107,1151.184448   C367.462158,1164.458130 373.814636,1177.803223 379.963348,1191.237915   C383.021088,1197.918945 385.586243,1204.832275 388.199097,1211.707153   C389.431671,1214.950073 390.258331,1218.350464 387.109314,1221.623779   C384.299988,1222.000000 381.599976,1222.000000 378.338318,1221.635132   C376.714081,1220.916992 375.597046,1220.676270 374.597046,1220.193359   C360.446045,1213.358643 346.364960,1206.376343 332.151001,1199.675659   C324.099487,1195.880127 318.526611,1190.537842 314.757202,1181.995483   C305.815216,1161.730469 295.719940,1141.971680 285.962830,1122.071045   C283.776062,1117.610962 281.270630,1113.272461 278.539093,1109.123535   C275.615875,1104.683594 272.922943,1104.547607 269.326874,1108.211670   C268.429565,1109.125854 267.589050,1110.170166 266.998077,1111.299072   C261.494171,1121.812500 255.925491,1132.295166 250.622040,1142.909790   C244.521149,1155.120605 237.916824,1167.160767 232.949615,1179.831177   C228.983551,1189.947632 222.286270,1196.214233 212.909851,1200.609131   C197.896286,1207.646362 182.965683,1214.860596 168.000000,1222.000000   C165.629440,1222.000000 163.258896,1222.000000 160.329956,1221.632080   C154.336380,1217.879761 157.329056,1213.338989 158.862122,1209.789795   C165.535583,1194.339844 172.536697,1179.025635 179.715515,1163.801880   C185.307388,1151.943481 191.337021,1140.291382 197.769485,1127.345337   C138.296066,1144.535889 81.567734,1165.105225 28.423637,1195.054565   C58.690594,1141.535400 79.111816,1084.636841 96.327415,1025.325195   C92.742279,1027.279663 90.268509,1028.744019 87.697472,1030.010986   C72.560936,1037.469849 57.482140,1045.053467 42.221390,1052.250366   C32.383343,1056.890137 22.306482,1061.034790 12.256356,1065.207886   C8.181790,1066.899780 4.128756,1066.901611 1.000000,1063.000000   C1.000000,1060.299927 1.000000,1057.599976 1.394985,1054.446289   C2.086574,1053.900391 2.562307,1053.894531 2.654279,1053.703735   C10.450873,1037.529541 18.246731,1021.354736 25.970900,1005.145874   C28.652700,999.518188 32.879826,995.702148 38.504875,993.076721   C53.338982,986.153198 68.160583,979.194641 82.845024,971.961365   C93.219978,966.850830 103.527618,961.555481 113.547852,955.790833   C119.640312,952.285828 119.454414,948.060425 113.694633,944.321411   C111.150330,942.669800 108.396141,941.319458 105.662956,939.984436   C82.425964,928.634277 59.124641,917.413940 35.979691,905.879578   C32.922981,904.356262 29.708664,901.778687 28.151428,898.847656   C20.243071,883.962585 12.872181,868.792419 5.273438,853.742065   C3.945797,851.112488 2.429286,848.578247 1.000002,846.000000   C1.000000,842.969421 1.000000,839.938782 1.000000,836.454102  M221.487808,1006.985413   C220.285080,1005.453369 219.377411,1003.469360 217.832840,1002.460938   C205.704727,994.542786 193.471786,986.784241 181.205917,979.080383   C180.333786,978.532593 178.648392,978.307129 177.841782,978.781982   C171.608582,982.452209 165.378815,986.157166 159.420563,990.248352   C157.516983,991.555359 155.758301,993.852905 155.092545,996.048645   C152.163208,1005.710266 149.629211,1015.492676 147.004684,1025.245483   C141.833359,1044.462402 136.676712,1063.683350 131.562943,1082.915649   C130.521896,1086.830933 129.696350,1090.803589 128.630981,1095.349121   C130.558884,1094.655273 131.440704,1094.261719 132.362137,1094.017578   C162.619003,1086.002686 192.890518,1078.042480 223.123749,1069.939453   C226.322662,1069.082153 230.423538,1068.243774 232.162430,1065.933716   C236.770157,1059.812256 240.131180,1052.768311 244.390396,1046.358521   C245.641357,1044.475952 245.465454,1043.485352 244.427887,1041.902466   C236.926422,1030.459595 229.476654,1018.982666 221.487808,1006.985413  M259.541504,909.966431   C248.543518,925.558167 234.677750,938.401550 220.093063,950.321289   C239.953079,966.173767 257.295898,983.772644 273.459015,1003.549683   C291.523834,979.390808 314.034393,960.785950 342.602692,947.469910   C309.851532,934.884949 288.634277,912.567261 276.179871,881.935486   C270.581146,891.405396 265.274872,900.380676 259.541504,909.966431  z" />
<path fill="#000000" opacity="1.000000" stroke="none" d=" M837.449951,1222.000000   C832.595642,1216.297485 835.492676,1210.766357 837.905396,1205.636719   C849.670166,1180.623779 861.706665,1155.738525 873.641968,1130.805664   C873.991089,1130.076294 874.283264,1129.319702 874.961487,1127.736816   C871.058777,1128.680542 867.558960,1129.224487 864.268616,1130.370117   C836.431030,1140.062256 808.437744,1149.353760 780.892761,1159.822144   C763.979736,1166.249878 747.539429,1174.063965 731.316406,1182.120605   C717.515808,1188.974243 704.209900,1196.861328 690.911072,1204.675537   C680.941345,1210.533569 676.546387,1211.019775 667.354248,1203.624512   C655.242981,1193.880737 643.582764,1183.567261 631.923584,1173.277832   C629.560852,1171.192871 627.790283,1168.277466 626.234497,1165.474243   C623.811279,1161.107788 624.765686,1158.391724 629.414001,1155.995728   C634.809265,1153.214722 640.333008,1150.682617 645.388855,1148.241577   C644.523804,1144.216064 643.195435,1140.687134 643.089905,1137.121948   C642.261230,1109.122314 641.247681,1081.116943 641.179077,1053.111084   C641.145386,1039.374390 643.008362,1025.633667 643.993713,1011.893433   C644.327820,1007.234314 647.442871,1005.279785 651.461914,1005.087097   C658.113220,1004.768066 664.793762,1004.881775 671.456665,1005.039185   C676.440674,1005.157043 679.729065,1009.276306 679.980591,1015.613647   C680.701660,1033.782104 681.538635,1051.949463 681.935242,1070.125977   C682.254883,1084.776733 682.163879,1099.442871 681.924866,1114.096802   C681.819153,1120.581421 680.897766,1127.052856 680.346558,1133.530884   C713.287109,1121.322021 746.690979,1110.338623 780.948792,1101.812744   C815.378235,1093.244019 849.471558,1083.327393 883.733887,1074.082031   C890.716003,1072.197754 897.737671,1070.344849 904.849976,1069.098022   C909.546997,1068.274536 910.755859,1064.486084 912.798767,1061.453857   C916.027954,1056.660645 918.921082,1051.628174 921.707581,1046.560059   C922.308472,1045.467163 922.433899,1043.408691 921.796509,1042.443481   C909.715515,1024.148193 897.511841,1005.933533 885.277649,987.739868   C879.900452,979.743408 871.945862,975.278076 862.757996,974.179565   C851.018738,972.775940 839.081421,971.705200 827.307922,972.235107   C811.347778,972.953430 795.448486,975.206787 779.547302,977.014099   C749.152710,980.468872 719.786438,988.805298 690.318848,996.485168   C679.486511,999.308289 670.664978,997.673401 662.544434,990.096008   C651.831787,980.099731 640.844360,970.398621 630.048035,960.491028   C626.609802,957.335815 626.250549,953.356445 625.520630,948.703552   C624.161987,940.042053 629.234314,935.974854 634.130432,931.492615   C645.390015,921.184998 656.959473,911.215759 668.404907,901.111145   C673.442444,896.663635 679.753723,897.096313 685.298157,898.333191   C703.486816,902.391052 721.402588,907.674561 739.595215,911.711487   C753.323547,914.757812 767.251404,917.133362 781.207336,918.864441   C796.798706,920.798462 812.501038,922.145142 828.195251,922.839050   C839.408508,923.334778 850.729431,922.821655 861.927063,921.871338   C875.106750,920.753052 882.837952,911.158203 890.732422,901.881287   C895.192810,896.639893 899.993835,891.467834 905.458435,887.348267   C916.122131,879.309021 922.642639,869.402832 923.037476,855.811646   C923.107910,853.387573 924.071167,850.952942 923.925781,848.565674   C923.449585,840.749023 922.525635,832.960022 922.028442,825.144165   C921.755005,820.844971 921.997681,816.513367 921.997192,812.196350   C921.996460,806.538086 922.460571,800.829590 921.868103,795.233337   C920.964417,786.696350 919.724487,778.151550 917.923340,769.761230   C913.260254,748.039551 908.220154,726.398682 903.314453,704.729187   C901.572083,697.032593 899.478210,689.400452 898.104919,681.639832   C896.838074,674.480530 900.505737,668.675720 904.987122,663.622620   C915.040649,652.286377 925.209717,641.045105 935.594971,630.013062   C942.731262,622.432434 954.452087,622.480103 961.619568,630.234131   C972.997314,642.542969 984.145691,655.072449 995.102783,667.757568   C999.859192,673.264099 999.249878,680.082642 997.686707,686.645203   C991.872681,711.054260 985.499146,735.339722 980.212708,759.860718   C977.514038,772.378418 976.382019,785.268066 975.102600,798.045776   C974.231812,806.743347 974.325684,815.537903 974.001831,824.289673   C973.659485,833.541870 972.847046,842.808960 973.120483,852.043518   C973.479553,864.169373 976.381287,875.919556 986.463196,883.701416   C997.294983,892.062195 1008.936707,899.385254 1020.334900,906.996582   C1027.697021,911.912720 1035.355835,916.388184 1042.659424,921.385986   C1044.525146,922.662720 1045.519287,922.433350 1047.115845,921.421204   C1052.686523,917.889282 1058.303711,914.428894 1063.950317,911.019287   C1066.777954,909.311951 1068.282593,907.310120 1069.226318,903.733826   C1079.222046,865.855774 1089.615601,828.082458 1099.944336,790.292603   C1106.291992,767.068481 1112.324951,743.747498 1119.255859,720.697632   C1123.349731,707.083252 1128.920166,693.912842 1133.565918,681.253235   C1126.369873,681.253235 1118.905518,681.206726 1111.442383,681.287292   C1109.668335,681.306396 1107.899536,681.962036 1106.127197,681.967285   C1088.127563,682.020752 1070.117310,682.373535 1052.131226,681.875366   C1039.039062,681.512756 1025.929565,680.379700 1012.942017,678.704773   C1010.055054,678.332458 1005.810730,674.533081 1005.380493,671.808105   C1004.303101,664.983643 1004.660400,657.839844 1005.204163,650.883667   C1005.591431,645.928894 1009.429749,643.241333 1014.692688,643.007751   C1030.196167,642.319641 1045.700317,641.644165 1061.206055,641.008301   C1070.456543,640.629028 1079.719360,639.909851 1088.961060,640.099915   C1102.640503,640.381104 1116.318726,641.150574 1129.972046,642.084412   C1136.187744,642.509460 1142.342773,643.824829 1148.932373,644.796326   C1150.673706,641.035706 1152.891724,636.285645 1155.075928,631.520020   C1158.605713,623.818176 1164.816162,622.571838 1171.066406,628.643677   C1175.438843,632.891296 1179.551758,637.431824 1183.516968,642.067017   C1190.093384,649.754578 1196.513672,657.578369 1202.881470,665.440491   C1205.112549,668.195068 1207.306030,671.072510 1208.910034,674.204590   C1209.748413,675.841492 1210.027100,678.518494 1209.262207,680.097900   C1205.071045,688.751099 1200.418579,697.179199 1196.035767,705.741577   C1187.322510,722.763306 1178.051392,739.537170 1170.182983,756.943298   C1161.809082,775.467468 1154.243774,794.406921 1147.334717,813.529724   C1140.260742,833.108398 1134.406860,853.127991 1128.045288,872.963013   C1127.904907,873.400879 1128.080322,873.940063 1128.115845,874.561096   C1141.341919,867.945862 1154.333618,861.071960 1167.645996,854.888367   C1182.900146,847.802856 1198.414917,841.274109 1213.872070,834.633240   C1217.438110,833.101135 1220.574341,833.825134 1222.641357,837.895874   C1223.000000,839.388916 1223.000000,840.777771 1222.625488,842.706299   C1221.893677,844.649597 1221.758301,846.159485 1221.144897,847.440613   C1214.072144,862.212402 1206.433838,876.737610 1199.973999,891.770203   C1195.655151,901.820801 1187.765747,906.785217 1178.573364,910.794617   C1176.816895,911.560791 1174.980591,912.155273 1173.260742,912.992432   C1155.183228,921.791504 1137.084229,930.548462 1119.085449,939.506470   C1115.220459,941.429993 1111.640137,943.981445 1108.101318,946.487549   C1105.203613,948.539673 1104.920654,951.130066 1107.942383,953.356323   C1111.570068,956.029175 1115.131348,958.952332 1119.135132,960.928711   C1141.763550,972.098450 1164.595581,982.858459 1187.149048,994.174927   C1190.955322,996.084839 1194.406860,999.570129 1196.845215,1003.133118   C1200.452026,1008.403442 1203.212036,1014.296753 1205.964111,1020.099487   C1211.769287,1032.339600 1217.335693,1044.692993 1223.000000,1057.000000   C1223.000000,1058.714355 1223.000000,1060.428711 1222.625977,1062.692871   C1220.779053,1064.161743 1219.354126,1065.780151 1217.825562,1065.884521   C1208.974487,1066.489868 1201.856689,1061.349854 1194.359741,1057.916260   C1174.648804,1048.888672 1155.178223,1039.335205 1135.642090,1029.928467   C1133.186035,1028.745850 1130.911011,1027.187012 1128.552124,1025.802490   C1128.031982,1026.172485 1127.511841,1026.542480 1126.991699,1026.912476   C1136.993408,1055.424072 1146.031982,1084.321777 1157.267212,1112.338745   C1168.532959,1140.432129 1181.989746,1167.646851 1194.500122,1195.277344   C1142.307007,1165.015015 1085.602051,1144.482788 1026.271729,1127.391479   C1028.701050,1132.347290 1030.580078,1136.061035 1032.356201,1139.823486   C1043.253296,1162.906982 1054.218262,1185.959473 1064.924927,1209.131104   C1066.847290,1213.291260 1069.201172,1218.077637 1064.000000,1222.000000   C1061.629395,1222.000000 1059.258911,1222.000000 1056.328369,1221.631592   C1054.846802,1221.002319 1053.866699,1220.865112 1053.011963,1220.461792   C1038.498657,1213.611938 1023.888489,1206.953003 1009.547058,1199.758789   C1002.394165,1196.170532 996.143616,1191.735840 992.653381,1183.498169   C985.714050,1167.120117 977.759460,1151.163818 969.958496,1135.162720   C965.883057,1126.803223 961.541138,1118.540527 956.767639,1110.564453   C952.702515,1103.772095 948.984802,1103.908325 944.796570,1110.736938   C940.938477,1117.027466 937.279541,1123.477417 934.049255,1130.108521   C925.267761,1148.135254 916.961914,1166.395996 907.996155,1184.328369   C905.855103,1188.610596 902.425171,1192.706055 898.603821,1195.578003   C893.525208,1199.394897 887.589355,1202.147705 881.830566,1204.967163   C869.954102,1210.781738 857.951050,1216.337769 846.000000,1222.000000   C843.299988,1222.000000 840.599976,1222.000000 837.449951,1222.000000  M999.803955,1069.970459   C1003.427429,1070.742676 1007.094543,1071.352783 1010.667542,1072.313110   C1038.652100,1079.833740 1066.618530,1087.421631 1095.196289,1095.152588   C1094.884033,1093.391846 1094.752441,1092.140503 1094.435669,1090.937866   C1086.627441,1061.288940 1078.872070,1031.625732 1070.899658,1002.020935   C1069.655884,997.402588 1069.273926,992.171814 1064.027344,989.429321   C1058.484497,986.531982 1053.016968,983.409546 1047.867554,979.874329   C1045.190674,978.036621 1043.706909,978.501099 1041.225464,980.128296   C1031.821655,986.295044 1022.072571,991.936646 1012.690552,998.134827   C1008.992249,1000.578125 1005.195679,1003.458374 1002.693176,1007.017883   C994.639893,1018.472534 987.115051,1030.302002 979.572021,1042.105591   C978.940674,1043.093506 979.251831,1045.210571 979.888977,1046.390381   C982.477905,1051.184326 985.364807,1055.817505 988.142090,1060.509766   C990.702942,1064.836304 993.511841,1068.864258 999.803955,1069.970459  M905.477173,935.013794   C898.088867,939.243225 890.700623,943.472717 882.689758,948.058533   C909.963867,960.813843 932.560303,979.348938 950.588013,1003.569153   C966.765137,983.591064 984.282043,965.999023 1004.092651,950.216248   C980.122192,931.866577 961.037659,909.711426 948.696350,882.103210   C945.075012,888.398132 941.514832,894.498413 938.039062,900.646484   C930.160522,914.582397 920.218262,926.550293 905.477173,935.013794  z" />
<path fill="#000000" opacity="1.000000" stroke="none" d=" M643.997559,339.252777   C644.964783,333.686707 648.821960,332.263947 653.238342,332.056549   C658.391418,331.814545 663.564575,331.986755 668.728943,332.003235   C675.660950,332.025330 679.746948,336.000732 679.996338,342.992371   C680.673767,361.987915 681.516846,380.979980 681.939209,399.981323   C682.249634,413.948059 682.155457,427.929749 681.929749,441.899750   C681.827576,448.224121 680.968384,454.536224 680.422974,461.217407   C718.984619,445.843994 758.432129,434.357330 799.242065,424.527283   C789.196045,465.044586 778.077820,504.260132 762.494141,543.286743   C766.816833,542.804077 770.410828,542.131226 774.018677,542.045715   C792.260864,541.613159 810.509766,540.961731 828.750366,541.111816   C844.752686,541.243408 860.748474,542.304199 876.743591,543.032837   C879.162537,543.143005 881.630432,543.431030 883.955505,544.072449   C888.094604,545.214172 891.443970,547.910217 891.613220,552.258118   C891.886841,559.288147 891.618591,566.392456 890.873413,573.390259   C890.376770,578.053711 886.919434,579.905823 882.140259,580.069702   C868.468994,580.538696 854.813782,581.472473 841.142944,581.963196   C827.069458,582.468506 812.981140,583.031738 798.906311,582.887573   C787.067627,582.766479 775.224915,581.845398 763.412598,580.914856   C758.381531,580.518555 753.423401,579.196045 747.925354,578.202942   C745.942200,582.467346 743.525818,587.823059 740.971741,593.112183   C738.218506,598.813660 732.160400,600.251953 727.447998,595.782349   C721.430847,590.075256 715.705750,584.009155 710.319214,577.701233   C703.458740,569.667297 697.393555,560.939941 690.344543,553.086914   C686.049438,548.301941 686.555603,543.865601 688.650391,538.751892   C689.348938,537.046570 689.767334,535.226440 690.337097,533.383240   C689.349426,533.174011 688.965088,532.955872 688.750366,533.066650   C675.347473,539.981506 676.788208,538.117676 664.205933,528.475098   C652.412659,519.437134 641.348450,509.424561 630.258301,499.511017   C627.864746,497.371460 625.856628,493.972137 625.321838,490.868652   C624.956360,488.747742 626.840210,485.114319 628.792664,483.933746   C634.244385,480.637207 640.255005,478.264984 645.498108,475.786407   C644.609741,472.075134 643.351074,468.747803 643.091003,465.344147   C642.475098,457.283783 642.202148,449.190063 642.026123,441.104675   C641.611023,422.028992 640.996460,402.948212 641.113525,383.873505   C641.197388,370.204346 642.316162,356.540710 643.038452,342.878052   C643.095459,341.799133 643.663696,340.747284 643.997559,339.252777  z" />
<path fill="#000000" opacity="1.000000" stroke="none" d=" M557.194458,332.000000   C561.334412,332.000000 564.999756,331.998932 568.665100,332.000214   C577.550903,332.003296 580.605286,334.894012 580.989136,343.829254   C581.372070,352.742920 581.787231,361.657837 581.975403,370.576691   C582.388306,390.153748 583.119751,409.740021 582.844421,429.310181   C582.653381,442.890686 581.049011,456.454529 579.944519,470.015106   C579.796448,471.832153 578.875305,473.586243 578.217896,475.667877   C583.456543,478.066132 589.013489,480.517914 594.486938,483.143982   C599.181030,485.396118 600.734741,489.149506 597.667358,493.428711   C594.024475,498.510803 589.627869,503.181000 584.971802,507.379730   C577.096619,514.481262 568.818359,521.142456 560.592957,527.845703   C556.963257,530.803833 553.338745,534.061157 549.153198,535.934021   C546.660034,537.049561 543.008789,536.071716 540.015076,535.412903   C537.734558,534.911072 535.669312,533.430847 532.485840,531.891479   C534.044128,535.846008 535.311462,538.844238 536.408691,541.903503   C537.713745,545.542236 537.236633,548.860657 534.641052,551.931335   C523.046387,565.648132 511.647491,579.533508 499.857513,593.079102   C497.827240,595.411682 494.407349,596.909729 491.340302,597.871521   C487.352203,599.122131 484.595551,597.127930 482.958405,593.159790   C480.761169,587.834167 478.174866,582.669006 476.171112,578.334045   C470.606506,579.257263 465.376617,580.696228 460.098724,580.901733   C437.111053,581.796875 414.107452,582.895020 391.113495,582.814697   C374.026703,582.755005 356.942688,581.048706 339.864380,579.966003   C334.855804,579.648499 332.712921,575.550171 332.431274,571.667969   C331.935577,564.835327 332.681519,557.908936 332.970001,551.024414   C333.157257,546.555969 336.729889,545.031372 340.069000,544.153992   C343.652313,543.212402 347.510559,543.141235 351.258820,543.032043   C376.252838,542.303589 401.246582,541.394531 426.246674,541.129395   C436.736206,541.018188 447.240509,542.338257 457.739075,542.991821   C458.720642,543.052917 459.709320,542.999939 460.695343,542.999939   C454.077820,523.386292 447.121490,504.146545 441.126526,484.611816   C435.151123,465.140808 430.139740,445.373962 424.362549,424.496918   C465.439362,434.245728 504.926636,445.851959 543.513245,461.188660   C542.991882,453.843231 542.133667,446.859436 542.068237,439.868256   C541.876404,419.377502 541.768127,398.880157 542.087463,378.392578   C542.277222,366.218689 543.177307,354.046722 544.070068,341.896820   C544.502991,336.005310 549.840210,330.697327 557.194458,332.000000  M533.020569,531.700867   C532.453369,531.646912 531.886108,531.593018 531.318909,531.539124   C531.748779,531.826660 532.178711,532.114197 533.020569,531.700867  z" />
<path fill="#000000" opacity="1.000000" stroke="none" d=" M679.066162,883.791321   C677.902466,889.118774 674.810730,891.207397 669.825500,891.036011   C664.998718,890.870056 660.145691,890.746338 655.332642,891.051575   C644.541626,891.736023 643.883606,886.505920 643.134827,879.159607   C642.231934,870.300232 642.204102,861.341003 642.025818,852.420532   C641.611084,831.673401 640.915466,810.918640 641.156982,790.176636   C641.301514,777.765808 642.948181,765.368408 644.060181,752.977600   C644.211792,751.287537 645.180969,749.670898 645.903076,747.652832   C641.128052,745.373596 636.177368,742.910828 631.143616,740.631409   C623.816772,737.313660 622.758728,731.924255 628.709778,725.873108   C633.685730,720.813416 638.851501,715.902771 644.269531,711.324036   C652.722534,704.180298 661.712341,697.657776 669.985291,690.320129   C675.198303,685.696472 679.932068,685.126160 685.604004,688.907471   C687.265076,690.014832 689.347595,690.489990 692.072754,691.593262   C691.274597,689.810425 690.884460,688.878601 690.446533,687.969788   C684.493347,675.614197 685.896057,675.378845 693.573669,666.052979   C703.665344,653.794556 714.178101,641.879089 724.675171,629.961853   C726.326233,628.087402 728.696838,626.646179 731.003296,625.592896   C735.348633,623.608765 738.512390,624.868042 740.607788,629.192322   C743.262085,634.669983 745.733582,640.236328 748.130615,645.432129   C750.485046,644.581360 752.622986,643.310547 754.862488,643.094788   C761.087341,642.495239 767.351440,642.259644 773.605286,642.014160   C791.605469,641.307373 809.606506,640.213196 827.610535,640.144836   C841.776917,640.091064 855.949951,641.302551 870.116272,642.024536   C873.708679,642.207642 877.281311,642.848694 880.872925,642.959595   C886.962952,643.147705 890.231689,644.796448 891.130554,650.862549   C892.106079,657.446716 892.300537,664.400269 891.292969,670.955566   C890.218201,677.947998 886.687927,679.763367 878.013367,679.980652   C849.348389,680.698486 820.683716,681.526001 792.013611,681.881287   C783.532227,681.986389 775.034546,680.652771 766.540833,680.025330   C765.415222,679.942261 764.268860,680.138428 762.628601,680.234741   C777.998840,718.873535 789.331970,758.399841 799.216980,798.748962   C758.683411,788.841553 719.159241,777.544495 681.108521,762.212830   C681.403931,778.124268 681.772156,794.177185 681.975098,810.232300   C682.107544,820.708496 682.255005,831.195435 681.936035,841.663574   C681.529480,855.006531 680.668518,868.335876 679.955261,881.668457   C679.924194,882.249023 679.412292,882.803894 679.066162,883.791321  z" />
<path fill="#000000" opacity="1.000000" stroke="none" d=" M532.044678,690.865173   C534.857300,690.144836 537.908630,689.424255 540.446960,687.867188   C545.103149,685.010864 548.946472,686.194397 552.781250,689.267273   C559.251953,694.452454 565.933838,699.390015 572.202942,704.806641   C580.051025,711.587524 587.713135,718.601196 595.165527,725.814026   C598.208740,728.759338 600.618286,732.526917 597.936218,737.075012   C597.241882,738.252380 596.013062,739.340210 594.773376,739.931458   C589.284973,742.548889 583.703064,744.970276 578.997498,747.084106   C580.025208,755.027405 581.679199,762.636719 581.876831,770.283630   C582.533142,795.686401 582.900635,821.102905 582.888794,846.513855   C582.883667,857.348938 581.591003,868.179565 581.023254,879.019531   C580.548523,888.083862 577.681335,890.999878 568.828430,891.000000   C564.329834,891.000061 559.831238,891.000916 555.332642,890.999756   C547.862854,890.997803 544.238220,888.021851 544.060303,880.681335   C543.256897,847.524231 542.561340,814.363342 542.093201,781.200073   C542.004517,774.915649 543.123413,768.614136 543.652710,762.683044   C524.283142,769.197327 504.900543,776.164001 485.233490,782.204407   C465.501801,788.264709 445.486359,793.401245 425.595245,798.942566   C425.019714,798.364563 424.444183,797.786499 423.868652,797.208496   C435.840210,758.205505 447.811768,719.202515 459.457977,681.259399   C453.374908,681.259399 445.902435,681.213318 438.431274,681.293213   C436.657318,681.312134 434.888519,681.962463 433.116302,681.967651   C415.122101,682.020630 397.117371,682.373474 379.136810,681.875305   C366.048279,681.512756 352.988190,680.042053 339.922577,678.977051   C334.968048,678.573242 332.710480,674.665039 332.436523,670.723022   C331.961456,663.886292 332.477905,656.945496 333.025299,650.083984   C333.469910,644.510254 337.873810,643.261780 342.479584,643.034180   C357.808167,642.276794 373.142761,641.636475 388.477448,641.010132   C398.057922,640.618835 407.651031,639.911804 417.223541,640.101257   C430.732208,640.368591 444.236725,641.186340 457.723328,642.069397   C463.641693,642.456909 469.511475,643.586304 476.315613,644.501526   C478.011780,640.701782 479.907440,636.147644 482.053253,631.714600   C486.052765,623.452026 492.103210,622.453674 498.680084,629.272095   C505.418213,636.257812 511.933411,643.475403 518.251709,650.844055   C523.752869,657.259644 528.716064,664.134399 534.159912,670.601746   C537.820618,674.950684 537.634155,679.378418 535.405334,684.094360   C534.377930,686.268188 533.175293,688.359131 532.044678,690.865173  z" />
</svg>