<?xml version="1.0" encoding="UTF-8"?>
<svg id="Layer_1" data-name="Layer 1" xmlns="http://www.w3.org/2000/svg" viewBox="0 0 125.72 125.71">
  <path d="M54,0c1.76.8,3.6,1.54,5.15,2.7,1.17,2.05,1.96,4.32,3.13,6.37.84,1.48,1.03,1.66,1.93.1,1-1.73,1.69-3.63,2.6-5.4.57-1.1.59-1.19,1.68-1.82,1.31-.75,2.73-1.33,4.1-1.95h.6c.11.14.19.26.21.45.05.6-1.1,2.89-1.42,3.59-.67,1.43-1.48,2.8-2.09,4.26,4.63-1.25,9.15-2.94,13.4-5.15,1-.52,2-1.22,3-1.7,1.13-.55,1.21-.25,2.15.45.85.64,2.18,1.74,2.91,2.49.47.48.71,1.03.02,1.42-.77.44-1.93.87-2.77,1.23-6.94,2.94-14.34,4.36-21.57,6.43-.1.03-.15.11-.21.19-.11.13-1.08,1.71-1.1,1.81-.04.19.09.34.17.49.55,1.1,2.35,3.83,3.17,4.73,1.62,1.78,6.04,1.25,8.29.99,3.16-.37,6.18-1.54,9.14-1.96.45-.06.76-.12,1.19.05.61.25,3.03,2.44,3.58,3.02.15.15.5.59.53.78,0,.04,0,.78,0,.85-.08.69-1.84,1.87-2.28,2.47,1.08.04,2.17-.04,3.25,0,.87.03,2.33.08,3.15.25,1.03.21.78,1.04.79,1.86.87.01,1.67-.2,1.89.86.13.64.18,1.72.21,2.39.06,1.34-.04,2.7,0,4.05.67-.53,1.28-1.62,1.97-2.08.75-.51,1.55-.32,2.19.28s2.49,2.62,2.89,3.31c.37.64.25.94.12,1.61-.89,4.85-2.52,9.07-2.17,14.23.13,1.95.6,2.57,2.11,3.69,1.33.98,2.83,1.77,4.18,2.72l2.12-1.22c2.41-8.31,3.96-16.93,7.85-24.73.38-.37.98,0,1.3.29.69.63,1.85,2.08,2.44,2.86.2.26.78.95.8,1.21.06.63-1.57,3.1-1.95,3.84-2.25,4.32-3.97,8.9-5.25,13.6,1.47-.69,2.89-1.5,4.36-2.19.61-.28,3.19-1.53,3.66-1.4.28.08.29.39.28.63-.02.68-1.47,3.49-1.89,4.22-.25.44-.47.91-.87,1.23-2.06,1.11-4.28,1.93-6.32,3.08-1.28.72-1.68.97-.2,1.83,1.91,1.12,4.07,1.84,6,2.9.22.12.49.27.66.44.48.45,2.44,4.34,2.57,5.02.07.34.11.86-.33.93-.5.08-2.58-.94-3.18-1.22-1.62-.73-3.18-1.59-4.76-2.39,1.27,4.71,3,9.28,5.25,13.6.49.93,1.15,1.87,1.6,2.8.24.48.47.79.23,1.34-.21.47-1.2,1.55-1.59,2.01-.46.55-1.78,2.26-2.45,2.24-.11,0-.2-.04-.29-.1-4.01-7.68-5.5-16.34-7.89-24.61-.24-.49-1.67-1.04-2.12-1.45-1.24.85-2.59,1.58-3.82,2.45-2.72,1.92-2.65,3.09-2.53,6.38.16,4.35,1.47,7.75,2.17,11.83.2,1.13.17,1.23-.52,2.12-.59.77-1.52,1.81-2.2,2.5-.31.32-.69.78-1.15.86-1.8.28-2.54-1.95-3.8-2.86-.06,1.68.07,3.38,0,5.05-.03.79-.09,2.02-.23,2.77-.13.72-.73.85-1.38.77.08.71-.08,1.28-.86,1.39-.84.12-2.03.18-2.89.21-1.61.06-3.24-.06-4.85,0,.49.7,2.79,2.21,2.88,2.97.02.15-.07.27-.07.39,0,.17.09.32.07.47-.04.36-.62.86-.88,1.12-.53.52-2.65,2.46-3.2,2.7-.48.21-.83.1-1.32.02-1.48-.25-3.06-.82-4.56-1.14-3.02-.65-6.69-1.23-9.77-1.04-2.34.15-2.85.93-4.09,2.71-.78,1.13-1.46,2.35-2.22,3.49-.07.14-.02.24.04.37.11.27,1.11,1.82,1.3,1.91,7.85,2.27,16.2,3.72,23.59,7.31,1.2.58,1.6.79.48,1.92-.75.76-2.38,2.15-3.26,2.74s-1.1.27-1.99-.19c-1.3-.67-2.55-1.49-3.86-2.14-3.86-1.92-8.07-3.38-12.24-4.51.66,1.2,1.3,2.42,1.89,3.66.35.73,1.76,3.59,1.72,4.19-.06,1.02-1.96,0-2.48-.23-1.18-.53-2.4-1.21-3.49-1.91-1.16-1.96-1.91-4.2-3.03-6.17-.22-.38-.71-1.44-1.17-1.44-.4,0-.78.81-.97,1.14-1.15,2.01-1.96,4.29-3.08,6.32-.46.6-3.83,2.25-4.68,2.52-.54.18-1.51.57-1.41-.4.07-.66,1.15-2.78,1.5-3.51.66-1.4,1.42-2.76,2.09-4.16-4.71,1.27-9.29,3-13.6,5.25-.73.38-3.07,1.91-3.66,1.95-.47.03-1.71-1.09-2.14-1.45-.61-.5-1.8-1.46-2.25-2.05-.25-.33-.45-.69-.14-1.05,7.79-3.89,16.41-5.46,24.73-7.84l1.22-2.12c-.99-1.45-1.85-3.1-2.92-4.48s-1.68-1.69-3.39-1.81c-4.91-.35-9.19,1.07-13.85,2.05-.91.19-1.33.42-2.19-.11-.7-.43-3.01-2.54-3.51-3.19-.25-.34-.3-.85-.25-1.27.1-.76,1.87-1.85,2.35-2.48-1.25-.04-2.51.05-3.75,0-.76-.03-2.06-.09-2.77-.23-.87-.17-.79-1.18-.77-1.88-.8-.01-1.65.2-1.86-.79-.18-.86-.21-2.52-.25-3.45-.04-.98.04-1.97,0-2.95-.6.44-1.78,2.19-2.47,2.28-.37.04-.92,0-1.23-.22-.68-.48-2.7-2.78-3.2-3.5-.36-.54-.36-.93-.27-1.57.21-1.64.99-3.73,1.34-5.46.59-2.91,1.03-6.2.84-9.17-.23-3.49-3.77-4.21-6.11-6.09-.14-.09-.24-.05-.39,0-.19.07-1.81,1.09-1.89,1.22-2.04,6.99-3.42,14.17-6.17,20.93-.42,1.03-.96,2.46-1.49,3.41-.34.6-.59.62-1.15.24-.61-.41-2.94-3.16-3.35-3.85s-.22-.75.09-1.39c.45-.93,1.12-1.86,1.6-2.8,2.25-4.31,4.01-8.89,5.25-13.6-1.4.57-2.7,1.35-4.06,1.99-.7.32-3.2,1.56-3.79,1.52-.26-.01-.31-.13-.45-.31v-.5c.58-1.31,1.15-2.65,1.85-3.9.74-1.32.78-1.31,2.12-1.98,1.71-.87,3.54-1.54,5.2-2.5,1.07-.62,1.68-.89.3-1.73-1.94-1.19-4.21-1.91-6.2-3-1.01-.55-1.64-2.01-2.15-3.05-.41-.83-.75-1.69-1.11-2.54v-.5c.1-.17.24-.29.45-.29.56-.02,2.45.92,3.08,1.21,1.64.74,3.22,1.65,4.86,2.38-1.37-4.48-2.89-8.93-5.05-13.1-.55-1.05-1.24-2.09-1.77-3.13-.13-.26-.44-.79-.46-1.04-.03-.33.44-.84.64-1.11.61-.82,1.53-1.92,2.24-2.66.45-.47,1.13-1.31,1.75-.64,3.79,7.7,5.39,16.18,7.7,24.4.24.55,1.59,1.01,2.06,1.45h.19c1.47-1.11,3.36-1.97,4.75-3.16,1.03-.88,1.36-1.58,1.46-2.94.23-3.29-.34-6.96-1.04-10.17-.28-1.31-1.29-4.19-1.17-5.33.02-.15.04-.27.09-.41.18-.47,2.88-3.5,3.36-3.84.56-.4.54-.14.9-.14.11,0,.2-.13.36-.12.82.07,2.27,2.34,2.99,2.85v-4.05c.28-1.1-.05-2.86.31-3.89.19-.55.75-.7,1.29-.66-.06-.8.25-1.29,1.06-1.39,1.04-.12,2.15-.03,3.18-.22h4.35c-.46-.7-2.68-2.12-2.8-2.86-.01-.06,0-.91,0-.98.06-.39.97-1.2,1.3-1.51.41-.39,2.5-2.24,2.87-2.33,1.08-.24,3.54.67,4.73.93,3.51.78,7.64,1.56,11.24,1.24,1.57-.14,2.24-.76,3.14-1.96,1.01-1.34,1.83-2.92,2.8-4.3l-1.21-2.11c-7.39-2.13-14.95-3.56-22.04-6.61-.61-.26-2.24-.89-2.67-1.23-.27-.21-.19-.65-.05-.93.21-.41,2.96-2.71,3.5-3.1,1.06-.77,1.08-.58,2.19-.01,1.34.69,2.64,1.53,3.99,2.21,3.82,1.89,8,3.34,12.1,4.45-.66-1.4-1.43-2.76-2.09-4.16-.31-.66-1.52-3.13-1.51-3.68,0-.21.13-.35.3-.46h.6ZM69.3,24.1c.07-.1-1.89-1.12-2.09-1.26-1.57-1.02-2.78-2.3-3.96-3.74-1.59,2.11-3.65,3.83-6.05,4.95,2.36,1.11,4.58,2.75,6,4.95,1.69-2.02,3.62-3.88,6.1-4.9ZM28,41.5c-.65,2.48-1.28,5.01-1.59,7.56-.21,1.73-.54,5.94.17,7.41.53,1.1,2.52,2.26,3.57,2.93.78.51,1.58,1.01,2.38,1.48l2.05-1.36,3.52-13.09-.09-.4c-.66-.67-3.09-2.23-3.2-3.1-.02-.19-.03-.34.09-.5.11-.15,2.09-1.01,2.44-1.16.91-.4,1.86-.73,2.76-1.14.84-1.53,1.29-3.45,2.15-4.95.71-1.25,1.94.57,2.51,1.2.47.53.91,1.1,1.35,1.65l.24.04,13.19-3.52,1.35-2.11c-.91-1.35-1.7-2.82-2.66-4.14-1.77-2.42-2.72-2.18-5.57-2.12-2.69.05-5.05.37-7.67.93-.64.14-2.78.54-3.21.79-.07.04-.14.06-.16.15.05.78.47,2.53-.58,2.71-.84.15-2.19.2-3.07.23-1.86.07-3.76-.01-5.61-.1-.48-.02-1,.09-1.45-.1.04,2.47.2,4.97.1,7.45-.03.74-.09,2.17-.25,2.85-.21.89-2.1.68-2.76.39ZM84.1,27.7c-2.47-.51-4.93-1.17-7.45-1.4-1.65-.15-5.35-.43-6.74.36-1.01.57-2.29,2.73-2.95,3.75-.2.32-1.27,1.92-1.24,2.12l1.26,2.07,12.08,3.19.25-.13,2.84-3.36c.39-.24.78-.56,1.2-.2l2.5,5.8c.74.38,5.71,2.21,5.89,2.62.26.62-.62,1.34-1.03,1.73-.87.82-1.88,1.55-2.81,2.31l3.27,12.22,2.14,1.28c1.52-1.2,4-2.21,5.29-3.6,1.55-1.67.96-6.3.68-8.49s-.75-4.17-1.27-6.21c-.19-.28-2.21.37-2.5-.62-.34-1.16-.03-2.88-.31-4.09l.2-6.75c-2.44.16-4.9.29-7.36.21-.93-.03-2.4-.07-3.27-.23-1.07-.19-.8-1.79-.67-2.58ZM69.8,39.7c.46.97,1.01,1.9,1.49,2.86.6,1.22,1.41,2.79,1.86,4.04.15.42.57,1.36-.12,1.48-.62.11-4.18-1.73-4.89-2.17-1.22-.75-1.44-2.04-2.05-3.25s-1.27-2.73-1.97-3.93c-.21-.36-.4-.85-.87-.93-.27,0-.63.61-.76.83-1.19,1.94-1.91,4.21-3,6.2-.46.86-.87.96-1.69,1.41-.65.36-3.69,1.93-4.23,1.83-.31-.06-.5-.29-.46-.61.08-.63.87-2.18,1.17-2.84.75-1.67,1.68-3.26,2.42-4.93-3.63,1.14-7.33,2.24-10.77,3.88-.35.17-1.43.64-1.62.88-.32.41-.88,1.81-1.13,2.37-1.42,3.19-2.44,6.54-3.48,9.87,1.63-.76,3.22-1.64,4.86-2.38.66-.3,2.39-1.18,3-1.21.32-.02.52.12.53.45.03.69-1.51,3.69-1.94,4.44-.37.65-.5,1.03-1.18,1.42-1.97,1.1-4.4,1.88-6.33,3.07-1.38.84-.77,1.12.3,1.73,2,1.16,4.29,1.97,6.32,3.08.5.4.76.98,1.07,1.53.38.68,1.79,3.41,1.79,4.02,0,.31-.13.54-.45.56-.61.04-2.89-1.1-3.59-1.42-1.43-.67-2.8-1.49-4.26-2.09.58,2.34,1.36,4.67,2.22,6.92.44,1.14,1.34,3.71,1.99,4.61.29.4,1.88,1.05,2.42,1.28,3.05,1.34,6.27,2.33,9.47,3.28-.84-1.76-1.79-3.48-2.59-5.26-.51-1.15-2.11-3.76.44-2.84,1.06.39,3.08,1.37,4.02,1.98.24.16.43.36.63.57,1.11,1.96,1.88,4.16,2.98,6.12.2.36.64,1.33,1.07,1.33.47-.07.66-.56.87-.93,1.13-1.93,1.89-4.22,2.97-6.13.1-.17.23-.39.37-.53.51-.54,4.71-2.63,5.42-2.66.38-.02.53.14.54.52,0,.71-1.61,3.93-2.02,4.78-.5,1.04-1.07,2.04-1.59,3.06,4.25-1.2,8.47-2.65,12.41-4.67,1.92-3.94,3.44-8.09,4.59-12.33-1.59.78-3.15,1.65-4.76,2.39-.6.27-2.68,1.29-3.18,1.22-.31-.05-.35-.27-.37-.55-.03-.69,1.43-3.51,1.86-4.25.45-.79.57-1.13,1.41-1.59,1.93-1.06,4.1-1.77,6-2.9,1.53-.9,1.01-1.14-.27-1.87-1.98-1.14-4.24-1.94-6.25-3.05-.14-.13-.28-.26-.39-.41-.46-.58-2.35-4.41-2.36-5.04,0-.25,0-.55.28-.63.46-.13,3.06,1.12,3.66,1.4,1.47.68,2.89,1.49,4.36,2.19-1.11-4.04-2.53-7.99-4.33-11.77-3.78-1.9-7.82-3.23-11.87-4.43ZM101.8,56.5c-.23-.05-.16.03-.22.13-.34.52-.62,1.18-.97,1.72-1.06,1.62-2.28,2.9-3.8,4.1,2,1.64,3.87,3.61,4.8,6.05.73-1.04,1.29-2.23,2.1-3.25s1.88-1.91,2.89-2.8c-2.02-1.6-3.77-3.55-4.8-5.95ZM24.1,69.3c1.04-2.43,2.83-4.44,4.9-6.05-2.14-1.56-3.83-3.65-4.95-6.05-1.12,2.41-2.84,4.46-4.95,6.05,1.53,1.21,2.85,2.54,3.9,4.2.12.19,1.01,1.92,1.1,1.85ZM97.8,84.2c.38-1.73.85-3.45,1.15-5.2.42-2.4,1.2-7.73.13-9.84-.45-.89-1.39-1.45-2.19-2.01-1.18-.82-2.46-1.51-3.64-2.33-.5.43-1.9.94-2.16,1.51l-3.49,13.11c.52.8,3.34,2.49,3.39,3.4.01.17-.05.31-.15.44l-5.22,2.23c-.69,1.54-1.25,3.23-2.01,4.74-.38.75-.54.95-1.37.43l-2.79-3.09-13.28,3.5c-.22.42-1.32,1.86-1.26,2.22,1.16,1.47,2.5,4.69,4.05,5.66s6.03.55,7.97.3c2.46-.31,4.85-.98,7.26-1.49-.24-.92-.61-2.68.68-2.87,2.38-.36,5.06-.14,7.48-.23l2.55.2c-.15-2.18-.28-4.37-.2-6.55.03-.98.09-2.23.21-3.19.07-.64.14-1.04.86-1.14.63-.09,1.45-.05,2.04.19ZM39.97,85.83c-1.62-.7-3.33-1.25-4.91-2.04-.97-.48-1.58-.63-.67-1.74l3.26-2.74.13-.25-3.21-12.09c-.06-.1-1.73-1.16-1.89-1.22-.11-.04-.2-.09-.32-.04-1.5,1.1-3.49,2.01-4.88,3.23-.81.72-1.21,1.52-1.3,2.6-.22,2.68.15,5.82.63,8.47.18,1.01.49,2.96.86,3.84.03.08.05.19.15.21.46-.11,1.99-.17,2.26.2.06.08.17.47.18.59.36,2.51.13,5.25.21,7.8l-.2,2.75c2.32-.1,4.63-.28,6.96-.21,1.04.03,2.36.09,3.38.22,1.72.21.81,1.34,1.12,2.6,2.08.5,4.18,1.01,6.31,1.27,2,.25,6.07.7,7.8-.27,1-.56,2-2.28,2.64-3.26.22-.33,1.58-2.41,1.55-2.56l-1.33-2.07-12.21-3.21c-.68.79-2.63,3.6-3.52,3.84-.71.19-1.17-1.35-1.42-1.89-.6-1.32-1.12-2.68-1.61-4.04ZM62.6,96.8c-.19-.13-1.11,1.16-1.3,1.35-.92.97-1.89,1.76-3.01,2.49-.27.17-1.76.91-1.79,1.01-.06.18.07.14.13.17.6.37,1.3.67,1.92,1.07,1.52,1,2.77,2.28,3.9,3.7,1.65-2.13,3.66-3.71,6.05-4.95-2.32-1.09-4.48-2.71-5.9-4.85Z"/>
  <path d="M106.93,30.07c-.29-.27-.29-1.91-.2-2.3.1-.46.53-.6.94-.66,2.6-.38,5.96-.25,8.59-.11,1.99.11,3.42-.39,3.15,2.25-.06.6-.21.95-.86,1.04-2.99.42-7.97.37-10.98,0-.14-.02-.55-.14-.63-.22Z"/>
  <path d="M110.78,94.73c2.69-.1,5.39-.03,8.07.27.78.2.66,2.28.34,2.74-.37.52-2.11.43-2.74.46-1.97.12-4.02.18-6.01.1-.79-.03-2.34-.08-3.05-.25-.88-.21-.8-1.68-.69-2.4.07-.44.44-.69.85-.75.92-.13,2.26-.14,3.22-.18Z"/>
  <path d="M10.48,95.23c2.38-.09,5.11-.06,7.47.17.79.08,1.04.26,1.14,1.06.08.71.1,1.94-.76,2.12-.71.14-2.02.2-2.77.23-1.85.07-4.06.08-5.91,0-.66-.03-2.05-.09-2.63-.27-.31-.1-.56-.36-.61-.69-.06-.39-.07-1.95.2-2.19.3-.28,3.27-.4,3.88-.42Z"/>
  <path d="M27.77,106.72c.31-.07,1.65-.07,1.96,0,.37.08.51.39.56.74.33,2.39.31,5.76.21,8.19-.03.84-.09,2.17-.23,2.97-.05.28-.22.61-.53.67-.25.05-1.86.04-2.08-.02-.31-.09-.51-.65-.56-.94-.15-.85-.18-2.2-.21-3.09-.08-2.2-.12-5.55.23-7.68.06-.35.27-.77.65-.85Z"/>
  <path d="M95.57,106.72c.31-.07,1.64-.06,1.93.02.36.11.52.48.59.81.14.72.18,1.93.21,2.69.08,2.02.22,6.54-.25,8.36-.09.37-.2.62-.61.69-.34.05-1.74.05-2.05-.04-.4-.12-.44-.55-.48-.92-.38-3.65-.23-7.44.09-11.08.06-.24.33-.48.57-.53Z"/>
  <path d="M96.07,6.42c.32-.06,1.77-.08,2.02.03.43.18.54,1,.59,1.41.27,2.29.22,5.55.12,7.89-.03.67-.09,2.14-.28,2.72-.24.72-1.71.61-2.37.53s-.68-.58-.74-1.16c-.11-1.13-.19-2.55-.22-3.68-.07-2.44.08-4.94.35-7.36.07-.25.3-.33.53-.37Z"/>
  <path d="M102.98,19.73c3.31-.31,3.51,4.55.37,4.68s-3.36-4.4-.37-4.68Z"/>
  <path d="M21.98,101.63c3.56-.46,3.65,5.19-.12,4.66-2.42-.33-2.53-4.32.12-4.66Z"/>
  <path d="M102.98,101.12c3.35-.26,3.5,4.64.27,4.68-3.01.04-3.2-4.45-.27-4.68Z"/>
  <path d="M96.28,99.32c3.03-.36,3.43,4.29.76,4.67-3.44.48-3.7-4.32-.76-4.67Z"/>
  <path d="M101.38,94.23c1.08-.14,2.23.53,2.57,1.57.75,2.28-2.07,3.99-3.84,2.44-1.51-1.32-.66-3.76,1.27-4.02Z"/>
  <path d="M96.57,21.72c2.14-.36,3.62,1.98,2.33,3.73-.98,1.33-2.97,1.26-3.82-.18-.78-1.33-.06-3.28,1.49-3.55Z"/>
  <path d="M23.88,94.72c2.68-.19,3.55,3.66.92,4.53-3.3,1.09-4.43-4.27-.92-4.53Z"/>
  <path d="M101.17,26.42c3.44-.59,3.87,4.27.76,4.57s-3.51-4.1-.76-4.57Z"/>
  <path d="M28.48,99.32c1.55-.16,2.79,1.4,2.48,2.88s-2.17,2.36-3.49,1.48c-1.85-1.23-1.2-4.13,1.01-4.36Z"/>
  <path d="M10.18,27.43c2.47-.1,5.32-.1,7.77.17.72.08,1.05.32,1.14,1.06s.15,1.95-.76,2.11c-2.58.45-5.65.08-8.28.23-.72-.23-2.98.03-3.45-.45-.31-.32-.32-2.33.05-2.66.45-.4,2.83-.44,3.53-.47Z"/>
  <path d="M28.27,6.42c.31-.07,1.65-.07,1.96,0s.51.33.57.63c.45,2.6.07,5.65.2,8.29-.23.94-.02,2.17-.22,3.08-.07.3-.34.52-.63.57s-1.73.06-1.97-.01c-.35-.1-.52-.72-.56-1.04-.3-2.52-.22-5.26-.11-7.78.03-.75-.08-3.08.44-3.56.09-.08.21-.15.32-.18Z"/>
  <path d="M22.08,19.73c3.34-.3,3.47,4.58.37,4.68s-3.34-4.41-.37-4.68Z"/>
  <path d="M23.58,26.93c3.4-.5,3.78,4.26.76,4.56s-3.53-4.16-.76-4.56Z"/>
  <path d="M28.67,21.72c3.63-.62,3.7,4.9.38,4.68-2.75-.19-2.8-4.26-.38-4.68Z"/>
</svg>