<svg xmlns="http://www.w3.org/2000/svg" version="1.1" id="Layer_1" x="0px" y="0px" width="100%" viewBox="0 0 1294 1295" enable-background="new 0 0 1294 1295" xml:space="preserve">
<path fill="#000000" opacity="1.000000" stroke="none" d=" M0.999989,860.463196   C2.711277,858.458496 4.453314,856.949585 6.128432,855.369751   C12.623914,849.244202 18.941778,842.918945 25.631804,837.014893   C30.572012,832.655029 37.091812,833.301147 42.682667,838.205261   C51.439548,845.886658 60.319675,853.441040 68.818016,861.401001   C88.491638,879.828613 108.430527,898.009521 127.374031,917.168274   C141.901016,931.860291 155.069397,947.895630 168.845886,963.330017   C171.800644,966.640381 174.455368,970.307373 177.802505,973.159729   C184.384537,978.768982 185.365494,989.417664 178.044800,996.472839   C172.411041,1001.902283 167.002365,1007.564575 161.406662,1013.034424   C156.383972,1017.944214 147.878845,1018.890503 142.189865,1014.587830   C134.533768,1008.797302 126.920174,1002.856750 119.929947,996.296936   C97.603722,975.345337 75.035835,954.605957 53.600578,932.764648   C36.603291,915.445374 21.114758,896.643616 5.020826,878.443054   C3.660957,876.905090 2.790323,874.934570 1.346199,873.082520   C1.000000,868.975464 1.000000,864.950928 0.999989,860.463196  z" />
<path fill="#000000" opacity="1.000000" stroke="none" d=" M868.583374,1.000000   C878.735046,3.985432 885.845459,11.071450 892.886780,17.645271   C918.314636,41.385098 943.572693,65.333344 968.152588,89.944221   C981.458984,103.267448 993.296997,118.061470 1005.721191,132.258713   C1008.933960,135.929916 1012.268921,139.598007 1014.828430,143.714767   C1019.605652,151.398666 1016.513550,157.683151 1012.190308,162.232620   C1006.685303,168.025711 1000.995850,173.649994 995.247009,179.203278   C988.943054,185.292679 981.307312,185.760727 974.723572,180.099854   C965.008057,171.746292 955.416870,163.233154 946.057556,154.483337   C927.090637,136.751572 907.836487,119.287430 889.609802,100.815964   C874.741699,85.748314 861.196167,69.375648 847.063721,53.582031   C843.774536,49.906288 839.965515,46.570374 837.300354,42.487534   C831.641479,33.818604 832.484924,30.733503 839.588623,22.190039   C845.151550,15.499752 852.087830,9.931451 858.587036,4.056060   C859.929626,2.842322 862.036621,2.474121 863.895630,1.358097   C865.388916,1.000000 866.777771,1.000000 868.583374,1.000000  z" />
<path fill="#000000" opacity="1.000000" stroke="none" d=" M1.000006,424.460632   C6.649717,417.131378 12.289821,410.254791 17.952938,403.397217   C21.065573,399.628113 24.082375,395.767731 27.380497,392.166565   C33.185196,385.828491 39.135334,379.621948 45.091785,373.424896   C54.855614,363.266724 64.405334,352.882904 74.532417,343.098358   C88.887009,329.229340 103.604424,315.731323 118.326790,302.249481   C125.198532,295.956787 132.405624,290.026428 139.534744,284.019684   C145.804855,278.736664 154.891174,278.128845 160.883820,283.597046   C167.949234,290.044067 174.468582,297.149780 180.725403,304.400726   C184.630722,308.926605 183.848297,316.876526 179.939423,321.529755   C176.155350,326.034363 172.527237,330.690521 168.492538,334.960693   C143.620239,361.284637 119.157928,388.024902 93.532753,413.598083   C77.309036,429.788940 59.582863,444.528290 41.972134,459.250702   C34.111568,465.822083 30.078741,464.443939 21.615973,456.873962   C14.491545,450.501099 8.288246,443.098480 1.338596,436.075867   C1.000000,432.307098 1.000000,428.614166 1.000006,424.460632  z" />
<path fill="#000000" opacity="1.000000" stroke="none" d=" M431.583344,1.000000   C444.139526,6.898754 452.041199,17.479137 460.608734,27.241951   C463.545807,30.588795 462.410126,38.386864 459.108673,42.320049   C453.219849,49.335762 447.509186,56.531254 441.223206,63.177956   C419.263550,86.397804 397.484863,109.811821 374.849304,132.360870   C361.272278,145.885986 346.224396,157.933929 331.850037,170.659851   C328.402466,173.712067 325.021973,176.840042 321.579468,179.898132   C315.546295,185.257675 308.891632,185.576645 303.244446,180.565552   C296.130493,174.252914 289.645233,167.225510 282.971375,160.425354   C278.133270,155.495712 278.075531,147.606644 282.190918,142.357117   C286.509491,136.848419 290.720428,131.212646 295.481201,126.100700   C316.540863,103.487671 337.452789,80.721046 359.076843,58.655548   C372.573853,44.882977 387.165192,32.173595 401.430115,19.167686   C406.597778,14.456136 412.089600,10.057550 417.740784,5.937655   C420.375153,4.017129 423.741791,3.101002 426.888245,1.364800   C428.388885,1.000000 429.777802,1.000000 431.583344,1.000000  z" />
<path fill="#000000" opacity="1.000000" stroke="none" d=" M863.437500,1296.000000   C852.121765,1289.306030 843.468323,1280.174805 836.130798,1269.960205   C831.247437,1263.162109 833.758057,1258.722656 839.841125,1251.816040   C855.604553,1233.918335 871.515625,1216.134155 887.875977,1198.783936   C901.034729,1184.829102 914.764282,1171.396484 928.572083,1158.076050   C937.188965,1149.763306 946.424072,1142.091675 955.377625,1134.127686   C961.511841,1128.671387 967.413208,1122.922852 973.832703,1117.826538   C980.167847,1112.797363 986.184082,1110.682129 993.729980,1117.083740   C1000.528564,1122.851562 1007.294861,1128.928467 1012.809814,1135.873901   C1020.903076,1146.066284 1017.408264,1151.633179 1010.392944,1159.924561   C999.039917,1173.342773 987.288452,1186.454834 975.172791,1199.189697   C957.999084,1217.241089 940.621887,1235.119751 922.792542,1252.519897   C910.933350,1264.093628 898.314270,1274.916992 885.658569,1285.631348   C881.073608,1289.512939 875.393677,1292.101196 870.106628,1295.639771   C867.958313,1296.000000 865.916687,1296.000000 863.437500,1296.000000  z" />
<path fill="#000000" opacity="1.000000" stroke="none" d=" M1295.000000,873.539368   C1288.337524,881.955688 1281.697998,889.930908 1275.002930,897.859131   C1271.517578,901.986511 1268.131592,906.224304 1264.361694,910.080811   C1244.145386,930.762024 1224.166992,951.693726 1203.418579,971.830383   C1188.938843,985.883301 1173.508911,998.977600 1158.195435,1012.141907   C1150.993164,1018.333374 1142.352783,1020.168762 1133.744019,1012.093384   C1127.969116,1006.676331 1122.764282,1000.647766 1117.356323,994.844360   C1109.861450,986.801514 1112.355713,980.133911 1118.658691,972.933350   C1130.460938,959.450745 1142.446777,946.121826 1154.618652,932.971924   C1167.206665,919.372559 1179.706299,905.650574 1192.976929,892.734558   C1207.718872,878.386658 1223.224976,864.818237 1238.533691,851.061157   C1243.489624,846.607605 1248.944824,842.714966 1254.042236,838.412598   C1260.389038,833.055725 1265.077881,832.338379 1271.560181,838.040222   C1278.887329,844.485046 1285.732666,851.482056 1292.688110,858.339722   C1293.542114,859.181641 1293.784058,860.644165 1294.654785,861.909546   C1295.000000,865.692932 1295.000000,869.385803 1295.000000,873.539368  z" />
<path fill="#000000" opacity="1.000000" stroke="none" d=" M426.437500,1296.000000   C417.974426,1290.144409 409.271759,1285.017090 402.047211,1278.299927   C378.150360,1256.081299 354.385529,1233.688354 331.367157,1210.568848   C317.254181,1196.393921 304.595917,1180.770264 291.291626,1165.790894   C288.895569,1163.093140 286.610474,1160.292847 284.142517,1157.663574   C278.332886,1151.474243 277.159332,1141.234497 284.477509,1134.856323   C290.492279,1129.614014 295.725372,1123.486084 301.566803,1118.031006   C309.142212,1110.956909 315.266296,1111.796387 322.069519,1117.736450   C339.288696,1132.770630 356.278656,1148.079956 373.015778,1163.649536   C386.262726,1175.972412 399.329285,1188.526367 411.867126,1201.563354   C424.284546,1214.474976 436.009705,1228.057861 447.889862,1241.477783   C451.865356,1245.968628 455.593811,1250.715332 459.058533,1255.611572   C463.739746,1262.227051 463.096466,1268.380249 457.564850,1273.949463   C451.694672,1279.859619 445.895203,1285.847534 439.827454,1291.548828   C438.033356,1293.234497 435.435303,1294.064575 433.102844,1295.643311   C430.958344,1296.000000 428.916656,1296.000000 426.437500,1296.000000  z" />
<path fill="#000000" opacity="1.000000" stroke="none" d=" M1295.000000,435.541931   C1288.089355,443.076569 1281.192627,450.166931 1274.252441,457.214539   C1273.229126,458.253662 1272.101929,459.265747 1270.849731,459.992035   C1263.123779,464.473328 1259.805908,464.135284 1252.562622,458.012115   C1245.312012,451.882629 1237.912842,445.901184 1230.993286,439.412811   C1210.834351,420.509888 1190.419678,401.843506 1170.999023,382.200806   C1155.996582,367.026917 1142.322388,350.537964 1128.100464,334.595642   C1123.853516,329.835083 1119.454102,325.166412 1115.660278,320.057831   C1111.311157,314.201477 1112.058472,307.566132 1117.070312,302.471283   C1123.144775,296.296204 1129.271973,290.171997 1135.443604,284.093903   C1140.592529,279.023102 1148.083984,278.200500 1154.039673,282.625763   C1161.216797,287.958771 1168.402588,293.394257 1174.891235,299.519958   C1199.224854,322.492706 1223.836792,345.215515 1247.239136,369.114410   C1263.367432,385.584869 1277.687012,403.827850 1292.756836,421.328674   C1293.546021,422.245178 1293.791016,423.630249 1294.644653,424.898621   C1295.000000,428.361298 1295.000000,431.722565 1295.000000,435.541931  z" />
<path fill="#000000" opacity="1.000000" stroke="none" d=" M1028.678711,842.724609   C1016.751892,846.684814 1005.162659,850.430603 993.557251,854.125732   C981.143494,858.078125 969.067078,863.627136 954.759827,861.758301   C967.437805,869.727783 979.282227,877.293335 991.250549,884.657715   C1000.389648,890.281311 1004.411560,898.617798 1005.007751,909.006409   C1005.979126,925.928833 1007.035400,942.846497 1007.985657,959.770081   C1008.411255,967.350403 1009.088745,974.951965 1008.877319,982.522278   C1008.679504,989.604797 1009.479004,997.720398 999.742371,1000.086609   C999.429138,1000.162659 999.125122,1000.783203 999.035461,1001.197266   C997.486023,1008.349609 991.577942,1008.707825 986.149597,1008.899475   C976.162537,1009.251953 966.126709,1009.471375 956.160889,1008.891541   C940.465210,1007.978394 924.815613,1005.377441 909.137329,1005.298157   C891.555664,1005.209106 884.497009,993.023071 877.031433,980.788635   C869.078247,967.755005 861.508484,954.487732 853.715454,941.355591   C853.235901,940.547607 852.267334,940.029907 850.461975,938.439453   C851.768066,942.073120 852.631165,944.599487 853.580872,947.092896   C856.366699,954.407654 859.090332,961.786377 857.929077,969.784668   C857.333313,973.888245 856.159302,977.931946 854.974548,981.921936   C847.447632,1007.270874 839.947327,1032.638184 828.954224,1056.774780   C827.637695,1059.665161 825.763428,1062.455322 823.592712,1064.771851   C818.560547,1070.142334 812.126465,1069.279541 809.014160,1062.446655   C803.572876,1050.500488 798.253296,1038.457642 793.727722,1026.144653   C785.106812,1002.689087 777.001465,979.042175 768.845459,955.418274   C765.405701,945.455078 762.380127,935.348877 758.834656,924.271667   C755.215637,930.917480 751.992126,936.665222 748.927917,942.496704   C740.246887,959.016846 731.283508,975.401184 723.082520,992.157776   C713.983826,1010.748718 705.588013,1029.684326 696.956238,1048.501831   C696.484497,1049.530396 696.149963,1051.114258 696.605286,1052.001587   C703.432251,1065.307129 710.922302,1078.297241 717.226074,1091.841064   C728.592102,1116.260986 739.634827,1140.847412 750.112732,1165.659790   C758.019531,1184.383911 764.900574,1203.543945 772.094971,1222.564209   C774.174194,1228.061157 771.924805,1232.571045 766.632263,1234.769531   C758.244141,1238.254395 749.442322,1236.999512 740.796082,1236.839478   C735.113220,1236.734375 729.461548,1235.477905 723.772705,1235.038452   C713.446777,1234.240601 703.077026,1233.934692 692.775696,1232.916260   C684.398499,1232.088013 676.097534,1230.499146 667.757324,1229.284546   C662.817993,1228.565430 659.942627,1225.323486 658.545654,1220.984131   C654.957947,1209.839600 651.696350,1198.590088 648.065674,1186.593750   C646.291260,1192.978882 644.719238,1198.919922 642.980225,1204.811646   C641.300720,1210.502075 639.636047,1216.209229 637.615845,1221.782593   C635.908875,1226.492065 632.315063,1229.304810 627.261047,1229.890625   C617.860779,1230.980469 608.458862,1232.074097 599.039429,1232.975830   C584.207825,1234.395508 569.379578,1235.957031 554.513733,1236.869385   C546.212646,1237.378906 537.758118,1237.890381 529.629089,1234.904785   C525.448242,1233.369263 522.507385,1228.716187 524.009277,1224.280762   C528.372498,1211.395020 532.515137,1198.390381 537.754456,1185.854614   C548.880005,1159.235352 560.292358,1132.722534 572.271179,1106.478271   C580.343323,1088.793091 589.462708,1071.578247 598.420166,1054.312134   C599.989624,1051.286621 599.881714,1048.817017 598.609253,1046.178833   C584.783447,1017.515015 571.045471,988.806946 556.948425,960.276550   C551.055359,948.349792 544.362183,936.818359 537.513489,924.146423   C534.452698,933.989014 532.015137,942.863464 528.945984,951.513855   C516.946533,985.334229 504.813934,1019.108032 492.534485,1052.827637   C491.070099,1056.848877 488.720856,1060.660156 486.214264,1064.162598   C482.632904,1069.166626 475.613586,1070.835693 471.195618,1062.757690   C465.844757,1052.973877 461.352600,1042.583252 457.705750,1032.034424   C450.851044,1012.206482 444.733887,992.118042 438.596252,972.050354   C436.335541,964.658813 439.152679,957.665344 441.619507,950.746338   C442.232117,949.028076 442.208374,947.082886 442.477142,945.242004   C441.855774,945.068054 441.234436,944.894043 440.613068,944.720093   C436.067993,952.565918 431.722382,960.536072 426.927826,968.226440   C420.795197,978.063171 414.899841,988.154663 407.681976,997.158081   C404.574799,1001.033875 398.651459,1003.692078 393.568420,1004.709412   C385.105286,1006.403015 376.299072,1006.572266 367.618469,1006.950317   C348.621735,1007.777588 329.616364,1008.467163 310.607544,1008.920471   C304.707092,1009.061157 298.797546,1008.250854 296.941864,1000.954834   C296.848083,1000.586182 296.397583,1000.128296 296.031006,1000.035156   C287.426910,997.848816 287.472626,990.028259 287.303131,984.036072   C286.954895,971.726746 288.314606,959.369324 288.967407,947.031433   C289.315826,940.446716 289.544189,933.853271 290.027710,927.278564   C290.664734,918.616394 290.881775,909.856323 292.430389,901.347778   C293.853180,893.530396 299.333710,888.095520 306.117798,883.954834   C317.627777,876.929749 329.011749,869.698364 339.450287,863.177307   C331.828644,861.584106 323.066315,860.477051 314.772125,857.876770   C293.682068,851.264771 272.757507,844.111694 251.869339,836.878784   C246.915939,835.163574 242.208237,832.550720 237.669571,829.872803   C231.876465,826.454773 229.487045,816.408325 239.561386,812.014282   C252.910355,806.191956 266.358612,800.517700 280.055817,795.590393   C305.835846,786.316589 331.816040,777.597778 357.733002,768.706604   C363.710968,766.655762 369.769501,764.839783 376.746033,762.610474   C350.230682,748.934082 324.817871,735.410156 299.019806,722.666138   C281.778961,714.149231 264.018402,706.677246 246.399323,698.945251   C244.788483,698.238342 242.226303,698.449097 240.589569,699.237671   C213.810684,712.139099 187.414795,725.882812 160.303909,738.034180   C134.154419,749.754639 107.291016,759.883728 80.721581,770.663452   C78.356728,771.622925 75.896454,772.528809 73.395226,772.936646   C65.603958,774.207214 60.101044,769.191956 60.146988,759.555481   C60.205822,747.215454 61.315304,734.879944 61.990135,722.543518   C62.304829,716.790771 62.465935,711.020752 63.040569,705.293030   C64.261467,693.123657 65.523918,680.952515 67.135590,668.830811   C67.994293,662.372375 73.078316,659.728577 78.695045,657.995300   C87.091187,655.404358 95.491829,652.827942 105.186607,649.846802   C101.107582,648.711426 97.973228,648.024902 94.970924,646.964478   C88.793320,644.782715 82.664505,642.457153 76.558662,640.080200   C73.044800,638.712280 71.356178,636.013916 70.964767,632.226685   C69.724815,620.228882 68.122147,608.265564 67.053749,596.253906   C65.817329,582.353394 65.310249,568.382935 63.855629,554.509094   C63.218262,548.429993 63.047016,542.815063 64.793938,536.774597   C67.395554,527.778625 72.452171,526.418945 79.319893,528.857422   C93.653625,533.946594 108.001915,539.032288 122.127602,544.662903   C162.285019,560.669800 201.389709,578.990784 239.717438,598.976624   C241.398880,599.853394 243.066895,600.755859 245.848846,602.235474   C287.492615,581.524414 329.894592,560.436279 372.296570,539.348145   C372.198547,538.863892 372.100494,538.379578 372.002472,537.895325   C363.969818,535.269714 355.884705,532.793396 347.913666,529.992493   C313.756104,517.989868 279.613159,505.944763 245.521881,493.755768   C241.615707,492.359131 238.026932,490.035889 234.360321,488.016357   C227.219482,484.083313 226.517456,475.537445 233.754349,471.925568   C245.595505,466.015686 257.787079,460.631683 270.239807,456.166260   C287.270874,450.059052 304.652069,444.913605 321.948151,439.566040   C331.061798,436.748230 339.704132,439.459808 348.201141,442.668884   C349.635101,443.210449 351.073395,443.740417 353.006500,443.242218   C346.406525,439.381683 339.739777,435.630066 333.222748,431.634247   C324.169708,426.083527 315.009155,420.664948 306.306702,414.598572   C298.785858,409.355865 295.525208,401.448456 294.992584,392.369507   C294.019348,375.780457 292.932159,359.197815 292.026672,342.605164   C291.540436,333.694763 290.884766,324.755554 291.154083,315.855042   C291.340576,309.691467 291.789093,302.875122 299.883667,300.936218   C300.326385,300.830170 300.865143,300.156067 300.949585,299.674561   C301.702667,295.379272 304.182434,293.121826 308.553925,292.907379   C314.454895,292.617828 320.353363,292.277039 326.254456,291.990265   C327.584137,291.925629 328.922028,291.951172 330.253174,292.006409   C346.090759,292.663574 361.940826,293.122162 377.759308,294.093231   C385.356506,294.559631 393.007507,295.488190 400.429108,297.132629   C409.373840,299.114563 414.271393,306.426605 418.864441,313.580109   C423.945099,321.492981 428.681915,329.626648 432.937927,336.626984   C436.533142,324.036041 439.870239,310.652649 444.200256,297.598663   C450.096893,279.821625 456.413330,262.162659 463.283844,244.742599   C465.382965,239.420364 467.953674,232.587830 475.813080,233.183136   C478.295074,233.371124 481.763428,235.134399 482.808350,237.182724   C487.455994,246.293579 492.002289,255.547989 495.465271,265.154236   C506.277100,295.146210 516.603821,325.313354 527.065979,355.430878   C529.419373,362.205597 531.559082,369.054596 534.074951,376.715302   C540.787903,363.986237 547.096985,352.160156 553.277527,340.267273   C560.400818,326.560303 567.753052,312.957214 574.384033,299.013275   C582.922485,281.058472 590.877502,262.825195 598.951477,244.653061   C599.471985,243.481750 599.300354,241.584641 598.704285,240.401138   C593.564941,230.197098 587.806946,220.282883 583.081726,209.896332   C571.065491,183.483444 559.180054,157.001602 547.847046,130.290756   C540.658691,113.348503 534.466187,95.979385 528.008972,78.733589   C525.610779,72.328705 528.485474,67.908440 534.852783,65.899567   C544.399902,62.887482 553.909973,63.737682 563.544373,64.937393   C568.592957,65.566071 573.718994,65.543610 578.790588,66.021568   C595.874207,67.631561 612.947083,69.355171 630.028320,70.990433   C636.503540,71.610344 640.076294,75.494354 641.988708,81.329178   C644.016602,87.516083 646.019104,93.711296 648.234192,100.522362   C650.193481,94.436584 651.775208,89.099022 653.626709,83.856720   C658.136658,71.086838 659.149048,71.870354 672.284973,70.162476   C687.863220,68.137047 703.590515,67.202408 719.271240,66.038185   C731.092651,65.160484 742.936951,64.430511 754.783142,64.156540   C757.953125,64.083221 761.408020,65.463745 764.307068,66.986206   C769.140625,69.524574 770.311768,73.486290 768.124573,79.353607   C761.132935,98.109505 754.799561,117.170349 746.686401,135.435806   C731.306824,170.060257 714.970581,204.262894 698.717102,238.491318   C697.011292,242.083588 697.079834,244.874466 698.528625,248.030380   C704.286316,260.572418 709.977539,273.147949 715.953064,285.586334   C724.170471,302.691376 732.437561,319.777710 741.034241,336.693726   C747.865540,350.136047 755.223267,363.310852 762.322876,376.558838   C768.386597,358.009369 774.133423,339.417786 780.547913,321.059540   C788.787842,297.476837 797.494080,274.055542 806.174500,250.629608   C807.730164,246.431366 809.878357,242.392838 812.200378,238.550964   C816.957031,230.680771 825.858765,230.955978 829.923828,239.425964   C834.560791,249.087463 838.958923,258.948486 842.392334,269.084686   C849.074036,288.810394 855.067993,308.770874 861.188354,328.682831   C862.039856,331.453003 861.993103,334.499329 862.444946,338.072327   C864.400146,334.944672 866.169067,332.068787 867.983276,329.221832   C873.083618,321.217834 877.981812,313.072449 883.388672,305.280518   C887.283630,299.667297 893.308167,296.733643 899.938782,296.100250   C913.825256,294.773743 927.757996,293.890839 941.684814,293.039490   C950.590576,292.495056 959.518860,292.108765 968.438782,292.071777   C975.336609,292.043182 982.252136,292.491455 989.130005,293.076935   C992.401855,293.355469 1003.893799,305.817047 1003.934570,309.149902   C1004.099854,322.637024 1004.118225,336.128601 1003.963379,349.615906   C1003.880127,356.870605 1003.549622,364.137817 1002.946106,371.367310   C1002.187622,380.453644 1001.142761,389.520386 1000.021118,398.570801   C999.035583,406.523529 994.244324,411.922272 987.684448,416.034729   C974.635742,424.215088 961.611084,432.433929 948.642883,441.393158   C952.418823,440.596008 956.211182,439.868408 959.967346,438.986938   C967.384094,437.246490 974.323730,439.413208 981.185364,441.661255   C1002.652954,448.694733 1024.125000,455.722931 1045.474609,463.102539   C1051.333252,465.127655 1056.923706,468.100494 1062.356567,471.139923   C1068.246460,474.434998 1069.839600,484.585510 1061.529541,488.061279   C1049.436035,493.119446 1037.525391,498.666260 1025.242676,503.209167   C1002.707275,511.544189 979.992126,519.399536 957.281067,527.250061   C946.603394,530.941040 935.761475,534.156616 923.908386,537.933533   C930.595215,541.610962 936.379456,544.901001 942.261475,548.005859   C958.624268,556.643127 974.848755,565.568848 991.462280,573.697449   C1010.201233,582.865845 1029.369995,591.152344 1048.205200,600.129944   C1053.165527,602.494263 1056.299072,599.227173 1059.837891,597.527283   C1078.660645,588.485718 1097.275513,579.010010 1116.130005,570.036560   C1128.723877,564.042725 1141.463623,558.308411 1154.375977,553.041260   C1175.279541,544.514343 1196.341309,536.369751 1217.417236,528.274536   C1224.004517,525.744324 1228.660767,529.129700 1231.150879,536.293457   C1233.907593,544.224792 1233.228638,552.010925 1232.099365,560.007874   C1231.388550,565.040955 1231.334839,570.167480 1231.003296,575.253174   C1230.329468,585.588806 1229.955200,595.954407 1228.913086,606.252502   C1228.000122,615.274048 1226.167969,624.199402 1225.086426,633.208557   C1224.537720,637.779785 1221.488525,640.095154 1217.975586,641.390381   C1209.563354,644.491882 1200.930298,646.994568 1191.570557,650.000977   C1196.354614,651.417236 1200.734131,652.655823 1205.076294,654.013550   C1210.730469,655.781555 1216.487915,657.322083 1221.946899,659.575867   C1225.762207,661.151123 1228.574951,664.048157 1229.043823,668.722717   C1230.247192,680.723572 1231.877686,692.684082 1232.946045,704.695435   C1234.182373,718.596130 1234.533081,732.590332 1236.196289,746.432373   C1237.038086,753.437866 1236.881714,759.859863 1234.246948,766.391846   C1231.875122,772.272339 1226.887451,774.796631 1220.968018,772.485352   C1196.352295,762.873901 1171.410645,754.004089 1147.223022,743.413330   C1120.014282,731.499695 1093.481445,718.040833 1066.676514,705.208496   C1064.217529,704.031372 1061.804077,702.686523 1059.565796,701.135986   C1054.334961,697.512390 1049.369629,698.274719 1043.913696,700.934082   C1026.441162,709.450623 1008.675049,717.371521 991.283508,726.046082   C969.144104,737.088867 947.256653,748.637024 925.273315,759.991882   C923.858215,760.722839 922.551636,761.663879 920.607544,762.872009   C927.952698,765.334106 934.891663,767.568665 941.768433,769.980530   C976.990906,782.334229 1012.210388,794.696960 1047.388062,807.177063   C1050.696899,808.350952 1053.675537,810.431213 1056.864990,811.971619   C1060.914551,813.927612 1063.906006,816.903137 1063.889526,821.487732   C1063.872559,826.234314 1060.411987,829.207764 1056.467896,830.971191   C1047.409424,835.021362 1038.173218,838.673950 1028.678711,842.724609  M604.031128,402.669739   C601.356140,407.426392 598.727783,412.209900 595.997864,416.934845   C586.027222,434.191620 575.828247,451.321747 566.213684,468.774170   C564.521362,471.846130 561.236694,474.492767 562.767334,479.574310   C565.868713,489.870239 567.592041,500.575500 570.077393,511.066071   C570.871033,514.415894 571.724670,517.245911 576.455933,518.195129   C595.702209,522.056641 614.765869,526.819641 633.976562,530.872742   C640.142517,532.173584 646.839478,533.830994 652.802673,532.711243   C675.902161,528.373901 698.813110,523.023499 721.754517,517.873596   C723.020142,517.589478 724.532471,515.879517 724.902893,514.547668   C727.098633,506.652924 728.824158,498.627197 731.029785,490.735474   C733.508179,481.867645 735.583984,473.228607 728.174927,465.466919   C726.776489,464.002014 726.040588,461.902496 725.008789,460.090240   C716.821472,445.709290 708.692810,431.294525 700.435547,416.953857   C691.297852,401.083923 682.070190,385.265533 672.830933,369.454346   C664.778931,355.675018 656.656433,341.936920 648.250916,327.646515   C647.480286,328.671356 646.900635,329.296814 646.484802,330.016907   C637.970825,344.760620 629.522217,359.542358 620.959534,374.257690   C615.542114,383.567749 609.960083,392.782013 604.031128,402.669739  M964.612366,651.035278   C965.678040,650.536987 966.743774,650.038696 968.083313,649.412354   C947.096558,637.138489 926.474976,625.006897 905.783813,612.995117   C879.380249,597.667114 852.935059,582.410522 826.440552,567.240601   C825.155640,566.504944 823.129456,566.482727 821.609558,566.831238   C810.169312,569.454102 798.791382,572.351379 787.340515,574.924500   C784.692993,575.519409 782.830566,575.867310 782.836853,579.278687   C782.840759,581.427307 781.498840,583.544617 781.026550,585.733276   C776.847229,605.099060 772.610596,624.453796 768.656921,643.866028   C767.368652,650.191772 765.233276,656.964905 766.303833,663.036377   C769.683533,682.203735 774.520630,701.110046 778.500427,720.178650   C779.356018,724.277954 781.311951,725.412598 785.199646,726.187439   C794.481140,728.037292 803.632446,730.576233 812.781677,733.039612   C817.662842,734.353760 821.709839,734.659363 826.545349,731.418152   C835.852966,725.179382 846.016663,720.224426 855.778137,714.654297   C867.640076,707.885498 879.464417,701.050537 891.284485,694.208679   C904.628296,686.484741 917.975525,678.766174 931.272034,670.961426   C942.223572,664.533142 953.103210,657.982300 964.612366,651.035278  M367.988678,672.483521   C371.062927,674.225220 374.158661,675.930176 377.207794,677.714905   C392.600464,686.724121 407.956360,695.796448 423.372864,704.764587   C438.225647,713.404846 453.047760,722.106140 468.091400,730.403320   C471.410004,732.233704 474.325043,735.441895 479.259033,734.124146   C490.747040,731.055908 502.432831,728.733704 513.975220,725.855225   C515.202393,725.549194 516.600464,723.698547 516.922546,722.329895   C521.050049,704.787537 525.039062,687.212097 528.954468,669.620789   C529.829285,665.690186 531.485718,661.423767 530.739197,657.724121   C525.453247,631.524780 519.685913,605.421570 513.866150,579.333618   C513.499878,577.691711 511.632874,575.560791 510.068787,575.145325   C500.748932,572.669617 491.180603,571.071106 481.960388,568.298157   C475.420410,566.331238 469.736481,566.415710 464.080933,570.368774   C460.793304,572.666687 457.276123,574.649841 453.788147,576.645203   C437.618256,585.895508 421.373688,595.016174 405.248383,604.343201   C385.082275,616.007385 365.001434,627.819031 344.895477,639.586975   C339.531097,642.726746 334.209351,645.939331 328.273712,649.472229   C341.798645,657.276123 354.587128,664.655090 367.988678,672.483521  M601.035278,886.404602   C616.737793,913.301636 632.440308,940.198730 648.193604,967.182800   C649.955994,964.292175 651.513611,961.850281 652.960938,959.344604   C660.589905,946.137207 668.171448,932.902405 675.807312,919.698975   C683.848511,905.794373 691.946533,891.922546 699.994019,878.021545   C708.443176,863.426697 717.063354,848.924500 725.159180,834.135681   C727.311157,830.204834 731.492188,826.885864 730.052490,821.269897   C727.181824,810.071533 724.762390,798.757507 721.884766,787.561096   C721.445251,785.850830 719.785767,783.498474 718.297791,783.157776   C698.369263,778.594360 678.376160,774.311279 658.384949,770.024414   C654.599915,769.212708 650.667908,767.844238 646.954895,768.221375   C640.909790,768.835388 634.990784,770.682739 629.016174,771.998718   C612.355042,775.668701 595.699036,779.362305 579.023804,782.967102   C576.623901,783.485901 575.413696,784.120544 574.803528,787.071533   C572.560181,797.919861 569.947083,808.716675 566.844727,819.349548   C565.704773,823.256775 566.349915,826.306824 568.157898,829.433167   C574.355042,840.149292 580.643005,850.812744 586.887451,861.501526   C591.587891,869.547363 596.274719,877.601196 601.035278,886.404602  M682.500793,592.000000   C675.009766,592.000000 667.518799,592.000000 660.027771,592.000000   C644.870667,592.000000 629.712952,592.073364 614.556763,591.954285   C610.136536,591.919556 605.722046,591.315918 601.302368,591.009155   C596.291931,590.661316 591.278625,590.354004 585.905884,590.005676   C588.397888,630.506104 596.765564,670.344910 588.823486,710.910767   C628.434448,707.229492 667.662476,707.244934 706.996826,710.850403   C704.974060,690.431152 702.708679,670.522644 704.931335,650.393433   C707.134644,630.439087 708.778870,610.422974 710.699402,590.104858   C701.727661,590.729614 692.605896,591.364807 682.500793,592.000000  z" />
<path fill="#000000" opacity="1.000000" stroke="none" d=" M121.381210,113.217880   C134.353851,103.537025 148.182693,102.164528 162.518707,108.098618   C175.270798,113.377060 186.364609,128.769440 187.212296,143.664062   C188.331192,163.323853 174.110977,179.213394 159.109985,185.243500   C145.046875,190.896591 130.177155,187.487289 118.621902,177.237228   C109.598473,169.233017 104.409378,159.549149 104.060890,147.550430   C103.729149,136.128311 107.881401,126.349449 116.130600,118.363632   C117.805771,116.741936 119.424896,115.062370 121.381210,113.217880  z" />
<path fill="#000000" opacity="1.000000" stroke="none" d=" M146.894791,1192.998779   C130.384155,1192.574951 118.668388,1184.294800 110.232414,1171.520630   C100.512222,1156.801880 102.113480,1138.244995 113.690460,1124.854126   C119.534782,1118.094116 126.364738,1112.622314 135.468826,1110.940552   C148.463211,1108.540161 160.637573,1109.463623 170.878265,1119.291016   C177.898911,1126.028320 184.519272,1132.932983 186.416992,1142.917358   C189.250290,1157.823975 184.026443,1173.107300 172.025406,1183.088745   C164.735458,1189.151978 156.383392,1191.726196 146.894791,1192.998779  z" />
<path fill="#000000" opacity="1.000000" stroke="none" d=" M1127.323975,179.820831   C1120.725464,173.028320 1113.908447,167.103546 1110.829102,157.836975   C1103.762085,136.570435 1117.696533,113.362244 1136.543823,107.114326   C1152.263062,101.903374 1166.454224,104.649315 1178.586914,116.911537   C1186.603638,125.013809 1191.975830,133.856964 1192.035645,145.560715   C1192.114502,160.975891 1185.569092,172.728943 1172.760864,180.994202   C1157.561523,190.802429 1142.452637,190.004730 1127.323975,179.820831  z" />
<path fill="#000000" opacity="1.000000" stroke="none" d=" M1133.075562,1113.991699   C1143.811157,1106.887451 1166.465332,1108.968018 1177.039917,1119.272339   C1184.052856,1126.106079 1189.734619,1133.385132 1191.454224,1143.023315   C1193.502686,1154.505859 1191.731689,1165.335083 1183.909546,1174.591553   C1177.550537,1182.116699 1170.630371,1188.591431 1160.559082,1191.143921   C1146.611450,1194.678589 1134.567627,1191.718750 1123.808350,1182.350342   C1113.891602,1173.715942 1108.715820,1162.985596 1109.029663,1149.801880   C1109.240356,1140.957886 1112.372070,1132.963257 1118.231201,1126.508667   C1122.478882,1121.829346 1127.830322,1118.151855 1133.075562,1113.991699  z" />
<path fill="#000000" opacity="1.000000" stroke="none" d=" M226.876312,1106.001343   C211.788315,1105.271484 198.102509,1094.707275 192.973038,1080.408447   C188.140701,1066.937866 188.922119,1054.028320 197.064835,1042.130859   C202.835022,1033.699951 210.798340,1028.053467 221.060379,1025.984741   C235.626450,1023.048218 248.498398,1026.826050 259.073639,1036.827759   C266.060303,1043.435547 270.077179,1051.939331 271.155396,1061.931274   C272.087952,1070.573486 271.130920,1078.623047 266.937561,1086.102417   C260.458496,1097.658691 250.784546,1104.806519 237.282501,1105.959106   C233.985443,1106.240601 230.643997,1106.002075 226.876312,1106.001343  z" />
<path fill="#000000" opacity="1.000000" stroke="none" d=" M262.246582,204.667542   C269.803864,213.486496 272.324921,223.163605 271.191467,234.455109   C270.128113,245.048096 266.223877,253.968567 258.495850,260.860565   C235.676758,281.211121 199.850311,273.663483 191.419556,242.446411   C185.181229,219.347321 198.662430,195.521378 224.402634,191.187866   C238.153427,188.872849 250.942902,192.349258 261.147461,202.686172   C261.573517,203.117752 261.744141,203.801468 262.246582,204.667542  z" />
<path fill="#000000" opacity="1.000000" stroke="none" d=" M1041.405762,1033.207031   C1055.970947,1023.980835 1070.880859,1021.689758 1086.042969,1030.111328   C1098.441650,1036.998047 1105.249634,1047.976929 1105.977661,1062.321655   C1106.903076,1080.555908 1099.377319,1094.366089 1082.991577,1102.383179   C1058.846436,1114.196655 1031.265137,1101.905273 1025.483276,1075.286377   C1022.638000,1062.187256 1025.371460,1048.921021 1035.799438,1038.694580   C1037.581665,1036.946777 1039.324585,1035.159180 1041.405762,1033.207031  z" />
<path fill="#000000" opacity="1.000000" stroke="none" d=" M1075.828857,271.001648   C1062.629883,273.683411 1050.957397,271.334198 1040.703003,263.156616   C1028.458252,253.391769 1023.546265,240.395081 1025.063721,225.053116   C1026.460327,210.933182 1035.386108,197.991760 1050.076172,193.256058   C1071.013184,186.506470 1088.732056,191.904877 1100.648682,210.624924   C1108.861694,223.527039 1108.273438,243.775330 1098.340454,256.356049   C1092.452637,263.813477 1085.278320,268.609253 1075.828857,271.001648  z" />
<path fill="#000000" opacity="1.000000" stroke="none" d=" M1259.714111,94.780411   C1251.747681,100.737434 1243.019287,103.454674 1233.548584,102.931374   C1215.775146,101.949310 1199.197144,86.242340 1196.749023,68.568359   C1194.747681,54.120102 1198.236450,42.316257 1208.311523,32.222542   C1222.843384,17.663820 1249.220459,19.194407 1263.766724,32.090496   C1277.931274,44.647953 1281.722168,66.208900 1270.991821,82.377296   C1268.004272,86.878937 1263.690063,90.500099 1259.714111,94.780411  z" />
<path fill="#000000" opacity="1.000000" stroke="none" d=" M65.013489,1192.000000   C82.550072,1189.552612 101.389526,1206.196045 103.754234,1222.829956   C106.918236,1245.086182 97.133148,1265.548340 73.525993,1271.638672   C50.706329,1277.526001 26.765007,1259.845459 23.903671,1237.057861   C20.871582,1212.910645 36.874763,1196.492554 57.046612,1192.090454   C59.434280,1191.569458 62.031128,1192.006836 65.013489,1192.000000  z" />
</svg>