<?xml version="1.0" encoding="UTF-8"?>
<svg id="Layer_1" data-name="Layer 1" xmlns="http://www.w3.org/2000/svg" viewBox="0 0 139.7 154.64">
  <path fill="#FFFFFF" d="M0,54.43v-1.1c.48-1.68,2.15-2.44,3.72-1.67,2.05,1,1.58,4.5-.77,4.77-1.51.17-2.57-.55-2.95-2Z"/>
  <path fill="#FFFFFF" d="M139.7,100.13v1c-.68,3.09-5.17,2.65-5-.65.15-2.98,4.33-3.18,5-.35Z"/>
  <path fill="#FFFFFF" d="M139.7,53.43v1c-.63,2.83-4.86,2.68-5-.35-.09-1.97,1.59-3.21,3.43-2.53.93.34,1.3.97,1.57,1.88Z"/>
  <path fill="#FFFFFF" d="M0,101.23v-1.1c.65-2.84,4.87-2.61,5,.35.15,3.25-4.2,3.74-5,.75Z"/>
  <path fill="#FFFFFF" d="M46.6,154.63c-.14.02-.37.02-.5,0-2.84-.36-2.88-4.86.15-5,3.32-.16,3.62,4.61.35,5Z"/>
  <path fill="#FFFFFF" d="M93.6,154.63c-.13.02-.36.02-.5,0-3.29-.4-2.96-5.16.35-5,3,.14,2.99,4.65.15,5Z"/>
  <path fill="#FFFFFF" d="M69.7,26.33c.13.09.54-.39.65-.5.58-.6,1.73-2.36,2.54-2.45.2-.02.45.08.56.25,4.11,8.37,5.87,17.59,8.36,26.52l2.32,1.36c1.63-1.1,3.67-2.09,5.17-3.34,1.14-.95,1.51-1.8,1.61-3.29.22-3.19-.3-6.85-.93-9.97-.31-1.51-1.62-5.51-1.46-6.72.02-.17.1-.37.17-.53.25-.53,3-3.6,3.52-3.98.16-.12.24-.21.46-.25.08-.01.9-.02.99,0,.28.03.45.19.65.36.52.41,1.29,1.32,1.75,1.85s1.73,1.91,1.82,2.48c.2,1.15-1.04,4.89-1.34,6.31-.7,3.3-1.28,7.19-1.03,10.57.1,1.38.47,2.2,1.5,3.1.97.84,1.16,1.01,2,2,.96,1.12,1.77,1.44,3.25,1.55,3.61.27,7.83-.45,11.35-1.25,1.34-.3,4.25-1.33,5.44-1.14.48.08,2,1.44,2.46,1.84s2.09,1.81,2.18,2.33c.01.07.01.99,0,1.05-.03.17-.31.53-.43.67-.63.74-2.2,2.06-3,2.7-.38.3-.82.73-1.31.79-1.13.16-4.39-.97-5.72-1.26-3.48-.77-7.4-1.36-10.97-1.14-1.6.1-2.4.48-3.39,1.71-1.2,1.49-2.14,3.39-3.24,4.97-.06.15,0,.26.06.4.07.17,1.19,1.95,1.29,2.01,8.91,2.5,18.11,4.24,26.46,8.34.14.08.24.17.26.34.17,1.04-2.33,2.58-3,3.29.65.74,3.07,2.19,3.01,3.2,0,.09-.02.17-.06.25-.13.27-4.06,1.91-4.65,2.15-6.18,2.46-12.63,3.8-19.02,5.58-.55.15-2.79.67-3.09.91-.09.07-1.19,1.82-1.24,1.96-.04.11-.08.2-.04.32.98,1.48,1.85,3.07,2.9,4.51.96,1.3,1.53,1.95,3.24,2.16,5.67.68,10.59-1.26,15.93-2.24,1.45-.27,1.56-.11,2.65.76.53.42,3.24,2.83,3.33,3.27.08.35.02,1.18-.18,1.48-.44.64-3.21,3.06-3.91,3.49-.85.51-1.28.3-2.19.11-1.62-.34-3.24-.88-4.88-1.22-3-.63-8.74-1.58-11.62-.78-1.68.46-1.76,1.55-2.73,2.52-.7.7-1.61.86-2.18,1.97-1.08,2.05-.27,8.09.15,10.49s1.23,4.67,1.64,6.96c.12.65.28,1.16-.05,1.79s-2.99,3.62-3.57,4.03c-.35.25-.94.32-1.36.26-.51-.08-1.45-1.14-1.85-1.56-.5-.53-2.35-2.58-2.44-3.16-.18-1.14,1.06-4.91,1.36-6.32.69-3.25,1.23-6.94,1.04-10.27-.08-1.4-.38-2.4-1.46-3.34-1.49-1.3-3.64-2.27-5.25-3.46h-.29s-2.11,1.34-2.11,1.34c-2.28,8.11-3.87,16.46-7.28,24.19-.26.59-.71,1.78-1.03,2.27-.11.17-.33.36-.54.36-.9,0-2.38-2.42-3.1-2.99-.25,0-2.29,3.09-3.1,2.99-.25-.02-.4-.17-.53-.36-.62-.85-1.65-3.69-2.09-4.81-2.76-7.02-4.13-14.47-6.32-21.68l-2.24-1.33c-1.57,1.05-3.36,1.99-4.85,3.14-2.38,1.83-2.05,4.18-1.92,6.99.2,4.32,1.55,7.86,2.27,11.93.21,1.19.25,1.4-.47,2.37-.52.7-1.34,1.62-1.95,2.25-.37.39-1.26,1.39-1.75,1.46-.08.01-.77.02-.84.01-.41-.05-1.48-1.22-1.81-1.57-.45-.48-2.32-2.58-2.43-3.07-.06-.31-.03-.64,0-.95.17-1.6.97-3.71,1.32-5.38.65-3.02,1.64-9.04.82-11.92-.45-1.59-1.47-1.7-2.44-2.61-.48-.46-.78-1.25-1.38-1.77-1.56-1.35-5.02-1.05-7-.9-4.16.33-8.14,1.52-12.19,2.39-.73-.12-1.25-.65-1.8-1.1-.72-.59-2.47-2.05-2.95-2.75-.2-.3-.26-1.12-.18-1.48.04-.17.39-.6.52-.74.59-.64,3.11-2.94,3.8-3.25.73-.33,1.32-.09,2.07.07,5.08,1.07,10.23,2.77,15.54,2.14,1.41-.17,2.05-.62,2.9-1.7,1.21-1.53,2.19-3.41,3.26-5.05.02-.2-1.16-2.11-1.48-2.32-7.92-2.28-16.1-3.81-23.69-7.11-.43-.19-2.69-1.15-2.84-1.36s-.11-.43-.05-.66c.22-.82,2.95-2.64,2.95-2.85-.56-.52-1.25-.98-1.8-1.5-.46-.44-1.49-1.26-1.15-1.95.13-.26,4.4-2.03,5.02-2.27,7.02-2.76,14.49-4.17,21.72-6.28l1.31-2.29c-1-1.55-1.91-3.21-3.02-4.69-1.04-1.39-1.71-1.95-3.53-2.07-3.6-.25-7.64.37-11.16,1.15-1.29.29-4.65,1.43-5.73,1.23-.42-.08-.88-.51-1.22-.78-.73-.57-2.66-2.18-3.15-2.85-.43-.59-.2-.93-.3-1.59.07-.49,2.52-2.62,3.05-3.06,1.25-1.04,1.34-1.27,3.07-.97,1.29.23,2.67.72,3.98,1.02,3.26.74,9.67,1.91,12.8,1,1.46-.42,1.7-1.49,2.6-2.4s1.94-1.15,2.41-2.49c.91-2.62-.07-8.82-.65-11.65-.38-1.83-1.23-4.13-1.42-5.88-.11-.99.02-1.13.57-1.87.49-.65,2.63-3.14,3.2-3.5.24-.15,1.15-.2,1.44-.15.19.03.4.23.56.35.78.62,2.26,2.37,2.9,3.2.3.39.63.7.69,1.21.15,1.18-1.05,4.79-1.36,6.22-.7,3.3-1.27,7.1-1.03,10.47.12,1.8.63,2.53,2.02,3.58s3.13,1.95,4.59,3.01c.14.09.24.05.39,0,.16-.06,2.05-1.21,2.1-1.33,2.47-8.91,4.24-18.1,8.32-26.46.6-.91,1.68.45,2.14.94s.99,1.14,1.35,1.7ZM76.3,47.13c-1.59-5.54-3.54-11.02-6.45-16-2.93,4.97-4.87,10.46-6.45,16l4.19-2.11c.1-.13-.69-1.45-.09-1.74.71-.35,1.81.64,2.35.64.44,0,2.36-1.36,2.55-.34.09.51-.28.94-.29,1.44l4.19,2.11ZM46.6,47.63c-.23-.05-.16.03-.22.13-.6.92-.98,1.96-1.69,2.9-1.1,1.45-2.82,2.45-4.48,3.17.9.64,1.95,1.12,2.87,1.78,1.38.99,2.59,2.25,3.58,3.62l3.1-3.3,2.05-1.85c-1.91-1.34-3.41-3.11-4.58-5.12-.24-.41-.56-.87-.62-1.33ZM93.3,47.63c-.23-.05-.16.03-.22.13-.21.32-.36.79-.56,1.14-1.18,2.04-2.69,3.82-4.62,5.18l5.05,5.15c1.78-2.29,3.95-4.04,6.55-5.35-2.03-.95-3.68-1.97-4.94-3.86-.47-.7-1-1.6-1.26-2.39ZM69.85,49.33c-.19.19-.35.37-.58.52-2.19,1.36-5.14,2.14-7.3,3.6-1.16.78-.42,1.14.43,1.63,2.1,1.22,4.59,2.05,6.67,3.23.29.17.56.36.78.62.19-.19.35-.37.58-.52,2.05-1.27,4.87-2.09,7-3.4.51-.32,1.23-.67.66-1.33-1.12-.68-2.29-1.26-3.46-1.84-1.25-.62-2.87-1.18-4.02-1.88-.3-.18-.53-.38-.76-.64ZM60.4,67.83l-2.6-9.75-2.24-1.33-3.82,2.48-2.43,3.77,1.28,2.19,9.8,2.65ZM79.2,67.83l9.85-2.59,1.33-2.24-2.43-3.77-3.82-2.48-2.31,1.3-2.62,9.78ZM67.59,63.24l-4.04-2.01-.14.14c1.71,5.42,3.49,10.88,6.44,15.76,2.93-4.94,4.82-10.41,6.45-15.9l-4.19,2.01c0,.47.34.86.3,1.34-.11,1.24-2.06-.21-2.58-.23-.39-.01-2.24,1.29-2.49.48-.19-.61.21-1.02.25-1.6ZM51.6,77.23c-.36-.07-.59-.5-.75-.8-1.1-1.98-2.26-5.69-3.6-7.3-.55-.66-.83-.31-1.22.26-1.43,2.06-2.2,4.98-3.48,7.12-.18.3-.38.53-.64.76.19.19.37.35.52.58,1.22,1.96,2.04,4.59,3.23,6.67.19.33.67,1.32,1.09,1.28.38-.11.54-.45.75-.75,1.38-2.06,2.14-4.8,3.38-6.92.21-.36.42-.63.74-.91ZM88.1,77.23c1.09,1.17,1.6,2.89,2.31,4.33.53,1.06,1.24,2.79,1.9,3.7.91,1.24,1.36-.09,1.84-.93,1.13-2.02,1.94-4.57,3.13-6.47.14-.23.33-.39.52-.58-.29-.26-.52-.54-.72-.88-.77-1.35-1.38-3.08-2.1-4.5-.36-.72-1.02-2.24-1.5-2.8-.53-.63-.84-.21-1.19.28-1.4,2-2.25,4.89-3.46,7.04-.18.31-.35.75-.74.81ZM39.7,70.83c-4.71,1.31-9.33,2.97-13.7,5.15l-2.4,1.35c5.03,2.79,10.45,4.86,16,6.4l-2.01-4.19c-.51,0-.99.43-1.52.27-.86-.26.42-2.1.42-2.53,0-.45-1.44-2.44-.23-2.55.38-.03,1.15.4,1.33.29l2.11-4.19ZM69.8,77.23c-5.04-2.8-10.46-4.83-16-6.4l2.1,4.3c.42-.18,1.03-.54,1.47-.33.85.4-.44,1.96-.44,2.48,0,.46,1.41,2.34.31,2.55-.53.1-1.14-.45-1.4-.2l-2.05,4.1c5.09-1.44,10.15-3.22,14.8-5.75.39-.21.88-.45,1.2-.75ZM85.9,70.83c-5.54,1.58-11.01,3.56-16,6.45,4.98,2.91,10.45,4.9,16,6.45l-2.05-4.1c-.26-.24-.87.3-1.4.2-1.12-.2.31-2.06.31-2.55s-1.23-1.94-.52-2.46c.49-.26,1.09.11,1.56.31l2.1-4.3ZM116.1,77.23c-5.08-2.77-10.51-4.87-16.1-6.4l2.11,4.19c.18.11.91-.29,1.24-.29,1.35.02-.13,2.04-.14,2.55-.01.48,1.35,2.37.33,2.55-.51.09-.94-.28-1.44-.29l-2.11,4.19c5.01-1.34,9.9-3.17,14.5-5.55l1.6-.95ZM76.3,93.43c-1.58-5.54-3.54-11.02-6.45-16-2.91,4.94-4.82,10.4-6.45,15.9l4.19-2.01c.12-.16-.69-1.45-.09-1.74.71-.35,1.8.64,2.35.64.41,0,2.36-1.36,2.55-.34.09.51-.28.94-.29,1.44l4.19,2.11ZM60.5,86.73l-9.86,2.59-1.32,2.24,2.41,3.83,3.84,2.42,2.3-1.31,2.63-9.77ZM87.97,95.4l2.41-3.84-1.34-2.23-9.85-2.6,2.63,9.77,2.3,1.31,3.84-2.42ZM49.16,97.96c-.84-.84-1.75-1.62-2.41-2.63-1.25,1.52-2.6,2.96-4.26,4.04-.74.49-1.6.84-2.29,1.36,1.2.58,2.85,1.41,3.8,2.35,1.08,1.06,1.59,2.52,2.37,3.73.06.1-.01.18.22.13,1.07-2.6,2.97-4.78,5.2-6.45l-1.65-1.45c-.37-.3-.66-.75-.98-1.07ZM99.5,100.73c-.69-.52-1.55-.87-2.29-1.36-1.67-1.08-3-2.51-4.26-4.04-.46.56-.9,1.17-1.4,1.7-.43.46-.9.92-1.35,1.35-.73.71-1.48,1.4-2.3,2,0,.16,1.7,1.5,1.95,1.75,1.34,1.33,2.51,3.07,3.25,4.8.23.05.16-.03.22-.13.77-1.19,1.25-2.6,2.32-3.68.98-.98,2.61-1.81,3.85-2.4ZM69.85,95.63c-.19.19-.35.37-.58.52-2.19,1.36-5.14,2.14-7.3,3.6-1.16.78-.42,1.14.43,1.63,2.12,1.23,4.88,2.09,6.87,3.33.23.14.39.33.58.52,1.02-.94,2.53-1.39,3.79-2.01s3.09-1.38,4.16-2.14c.46-.33.78-.62.24-1.13s-2.62-1.42-3.4-1.8c-1.31-.65-2.99-1.24-4.21-1.99-.23-.14-.39-.33-.58-.52ZM67.59,109.54l-4.04-2.01-.14.14c1.48,4.73,3.06,9.45,5.34,13.86l1.15,2c2.77-5.05,4.8-10.46,6.4-16l-4.19,2.01c0,.47.34.86.3,1.34-.11,1.27-2.11-.24-2.56-.24s-2.45,1.51-2.56.24c-.04-.48.3-.87.3-1.34Z"/>
  <path fill="#FFFFFF" d="M32.3,114.83c-1.22,5.54-3.12,10.91-5.51,16.04-.5.77-1.29.01-1.74-.44-.72-.72-1.7-1.93-2.35-2.75-.21-.27-.75-.89-.85-1.15-.26-.71.65-1.66.55-1.8-.63.26-1.15.86-1.85.5s-3.62-2.82-4.15-3.45c-1.12-1.32.35-1.61,1.33-2.07,4.61-2.16,9.64-3.64,14.57-4.88Z"/>
  <path fill="#FFFFFF" d="M114.36,23.87c.79.7,2.28,2.53,2.93,3.42.13.18.5.67.56.84.2.63-.63,1.61-.56,1.7.66-.26,1.09-.81,1.83-.48.61.27,3.7,2.91,4.21,3.49.87,1,.22,1.27-.6,1.68-4.78,2.36-10.18,3.93-15.34,5.21,1.09-4.7,2.53-9.36,4.48-13.77.17-.37.99-2.29,1.16-2.44.42-.36.99.05,1.32.34Z"/>
  <path fill="#FFFFFF" d="M117.3,124.73c.11.54.69,1.06.6,1.64-.05.31-1.67,2.22-2,2.61-.48.56-1.7,2.13-2.37,2.24-.48.07-.67-.49-.84-.82-.51-.98-1-2.23-1.43-3.27-1.63-3.97-2.91-8.1-3.85-12.3,4.22,1.03,8.39,2.29,12.4,3.95,1.05.43,2.52.98,3.47,1.53.65.37.51.9.08,1.42-.58.71-2.9,2.61-3.72,3.18-1.06.74-1.28.42-2.33-.18Z"/>
  <path fill="#FFFFFF" d="M32.3,39.73c-4.84-1.14-9.63-2.65-14.17-4.68-.33-.15-2.05-.88-2.12-1.08-.06-.18-.03-.46.03-.64.27-.88,3.68-3.22,4.5-4,.63-.32,1.18.28,1.76.41-.2-.74-.75-1.06-.32-1.87.38-.73,2.66-3.36,3.32-3.98.34-.32,1.09-.75,1.44-.25,2.42,5.14,4.3,10.54,5.56,16.09Z"/>
  <path fill="#FFFFFF" d="M9.07,106.05c.38-.08,1.64-.07,2.01.04s.55.41.61.79c.43,3.09.4,7.77.11,10.89-.08.81.02,1.8-.96,1.94-.84.12-2.24.2-2.5-.79-.34-1.31-.21-3.27-.24-4.66-.04-2.11-.11-4.28.1-6.39.07-.68.04-1.66.87-1.83Z"/>
  <path fill="#FFFFFF" d="M128.23,119.5c-.22-.2-.29-1.26-.32-1.63-.29-3.18-.35-7.84.11-10.99.15-1.07,1.59-.96,2.43-.85,1.05.14.98,1.07,1.06,1.94.18,1.88.12,3.83.1,5.69-.01,1.47.13,3.8-.22,5.18-.11.45-.38.77-.85.85-.44.08-1.99.09-2.3-.2Z"/>
  <path fill="#FFFFFF" d="M9.28,34.86c.81-.13,2.27-.19,2.41.83.38,2.63.35,6.31.21,8.99-.04.84-.07,2.41-.24,3.16-.08.35-.35.63-.71.69-.38.06-1.67.05-2.03-.06s-.54-.44-.61-.79c-.27-1.31-.17-3.22-.21-4.59-.04-1.71-.09-3.47,0-5.2.03-.57.11-1.93.29-2.41.15-.39.49-.55.88-.62Z"/>
  <path fill="#FFFFFF" d="M128.98,34.86c.72-.11,2.1-.17,2.36.69.39,1.29.25,3.92.26,5.34.02,1.86.09,3.82-.1,5.69-.08.76-.02,1.81-.96,1.94-.74.1-2.39.22-2.54-.75-.22-1.45-.16-3.31-.21-4.79-.06-2.04-.09-4.15.1-6.2.09-.96-.07-1.76,1.08-1.92Z"/>
  <path fill="#FFFFFF" d="M31.38,135.26c1.76-.07,3.52,0,5.27-.03.92.29,3.56-.08,4.2.5.33.3.33,1.98.23,2.43-.07.29-.37.56-.65.65-1.21.37-3,.04-4.27.33-1.54.06-3.08-.04-4.6-.11-.79-.03-3.42.08-3.9-.5-.24-.28-.25-2.52,0-2.79.32-.36,3.09-.45,3.73-.47Z"/>
  <path fill="#FFFFFF" d="M56.08,135.26c2.59-.1,5.82-.15,8.37.17.46.06.96.12,1.04.66.05.3.06,1.93-.01,2.17-.13.45-.85.6-1.24.66-2.44.37-5.61.22-8.09.11-.93-.04-2.85.04-3.65-.25s-.7-1.91-.59-2.6c.09-.55.55-.71,1.05-.75.97-.09,2.14-.13,3.13-.17Z"/>
  <path fill="#FFFFFF" d="M78.08,135.26c1.76-.07,3.52,0,5.27-.03.92.29,3.56-.08,4.2.5.33.3.33,1.98.23,2.43-.07.29-.37.56-.65.65-1.21.37-3,.04-4.27.33-1.54.06-3.08-.04-4.6-.11-.79-.03-3.42.08-3.9-.5-.24-.28-.25-2.52,0-2.79.32-.36,3.09-.45,3.73-.47Z"/>
  <path fill="#FFFFFF" d="M102.78,135.26c2.59-.1,5.82-.15,8.37.17.46.06.96.12,1.04.66.05.3.06,1.93-.01,2.17-.13.45-.85.6-1.24.66-2.42.37-5.53.21-7.99.11-.96-.04-2.93.05-3.75-.25-.78-.28-.7-1.91-.59-2.6.09-.55.55-.71,1.05-.75.97-.09,2.14-.13,3.13-.17Z"/>
  <path fill="#FFFFFF" d="M11.47,59.56c.11.11.2.55.23.72.2,1.55.16,3.33.19,4.9.04,2.11.14,5.01-.22,7.07-.06.31-.22.58-.55.65s-1.84.07-2.16,0-.54-.37-.63-.67c-.16-.56-.21-1.73-.25-2.35-.09-1.7-.04-3.42,0-5.11.03-1.42-.05-3.31.22-4.68.08-.38.33-.7.73-.77.43-.07,2.15-.07,2.42.22Z"/>
  <path fill="#FFFFFF" d="M8.97,81.65c.36-.08,1.86-.06,2.21.05.42.13.44.4.51.79.4,2.5.34,6.24.22,8.79-.04.89-.07,2.46-.23,3.27-.07.33-.29.61-.63.67-.3.05-1.92.06-2.17-.01-.3-.09-.51-.55-.56-.84-.25-1.33-.17-3.11-.21-4.49-.04-1.68-.1-3.41,0-5.11.03-.63.08-1.82.23-2.37.08-.31.31-.68.65-.75Z"/>
  <path fill="#FFFFFF" d="M128.67,81.65c.41-.07,1.72-.08,2.11.04s.5.43.59.81c.34,1.42.2,3.59.22,5.08.02,2.07.15,4.84-.22,6.87-.05.29-.31.71-.63.77s-1.87.05-2.18-.02c-.37-.08-.51-.39-.56-.74-.39-2.71-.37-6.54-.21-9.3.05-.82.07-2.21.25-2.95.09-.37.27-.5.63-.57Z"/>
  <path fill="#FFFFFF" d="M128.23,59.56c.3-.3,1.97-.29,2.42-.22.4.06.66.39.73.77.36,2.04.24,4.79.22,6.87-.02,1.5.12,3.74-.24,5.16-.09.34-.26.69-.63.77-.32.07-1.84.07-2.16,0s-.49-.34-.55-.65c-.38-2.16-.28-5.17-.22-7.38.04-1.52.01-3.2.2-4.7.02-.17.12-.51.23-.62Z"/>
  <path fill="#FFFFFF" d="M57.28,15.46c2.03-.06,4.67-.07,6.67.17.49.06,1.44.16,1.55.75.06.3.04,1.98-.04,2.25-.11.35-.41.42-.73.47-.84.14-2.1.2-2.97.23-3.1.12-6.23,0-9.31-.3-.73-.25-.64-1.93-.54-2.55.12-.79,1.11-.79,1.75-.85,1.13-.11,2.48-.14,3.63-.17Z"/>
  <path fill="#FFFFFF" d="M32.88,15.46c1.6-.03,3.28-.03,4.87.07.66.04,2.27.09,2.8.3.23.09.47.33.52.58.07.31.07,1.84-.02,2.13s-.43.52-.73.57c-.85.15-2.37.2-3.27.23-2.55.09-6.12.16-8.6-.21-.47-.07-.86-.11-.95-.65-.05-.31-.05-2.02.05-2.24.19-.45,1.06-.55,1.5-.6,1.17-.14,2.63-.15,3.83-.17Z"/>
  <path fill="#FFFFFF" d="M103.98,15.46c2.03-.06,4.67-.07,6.67.17.49.06,1.44.16,1.55.75.06.3.04,1.98-.04,2.25-.11.35-.41.42-.73.47-.84.14-2.1.2-2.97.23-3.1.12-6.23,0-9.31-.3-.73-.25-.64-1.93-.54-2.55.12-.79,1.11-.79,1.75-.85,1.13-.11,2.48-.14,3.63-.17Z"/>
  <path fill="#FFFFFF" d="M79.58,15.46c1.6-.03,3.28-.03,4.87.07.66.04,2.27.09,2.8.3.23.09.47.33.52.58.07.31.07,1.84-.02,2.13s-.43.52-.73.57c-.85.15-2.37.2-3.27.23-2.55.09-6.12.16-8.6-.21-.47-.07-.86-.11-.95-.65-.05-.31-.05-2.02.05-2.24.19-.45,1.06-.55,1.5-.6,1.17-.14,2.63-.15,3.83-.17Z"/>
  <path fill="#FFFFFF" d="M92.68,7.46c4.07-.59,4.03,5.48.08,4.97-2.73-.36-2.79-4.57-.08-4.97Z"/>
  <path fill="#FFFFFF" d="M45.98,7.46c3.68-.54,4.09,4.52.95,4.95-3.58.48-3.91-4.52-.95-4.95Z"/>
  <path fill="#FFFFFF" d="M44.64,142.87c1.36-1.38,4.14-.68,4.36,1.31s-1.13,3.24-3.13,2.93-2.52-2.94-1.24-4.24Z"/>
  <path fill="#FFFFFF" d="M91.34,142.87c1.36-1.38,4.14-.68,4.36,1.31s-1.13,3.24-3.13,2.93-2.52-2.94-1.24-4.24Z"/>
  <path fill="#FFFFFF" d="M9.47,98.15c3.53-.61,4.02,4.76.76,5.07s-3.71-4.56-.76-5.07Z"/>
  <path fill="#FFFFFF" d="M131.46,102.49c-2.56,2.56-6.16-1.91-3.06-4.01,2.37-1.6,5.23,1.84,3.06,4.01Z"/>
  <path fill="#FFFFFF" d="M129.58,51.35c3.13-.17,3.57,4.67.56,5.07-3.61.48-3.84-4.89-.56-5.07Z"/>
  <path fill="#FFFFFF" d="M9.88,51.35c3.08-.17,3.46,4.67.56,5.07-3.66.5-3.92-4.89-.56-5.07Z"/>
  <path fill="#FFFFFF" d="M45.87,14.95c1.88-.32,3.38.99,3.12,2.92-.4,2.85-5.49,2.68-4.98-.98.11-.79,1.07-1.8,1.87-1.93Z"/>
  <path fill="#FFFFFF" d="M92.57,14.95c1.88-.32,3.38.99,3.12,2.92-.4,2.85-5.49,2.68-4.98-.98.11-.79,1.07-1.8,1.87-1.93Z"/>
  <path fill="#FFFFFF" d="M45.97,134.75c2.12-.34,3.8,1.7,2.75,3.65-1.28,2.36-5.13,1.3-4.71-1.71.12-.88,1.1-1.8,1.97-1.93Z"/>
  <path fill="#FFFFFF" d="M92.67,134.75c2.12-.34,3.8,1.7,2.75,3.65-1.28,2.36-5.13,1.3-4.71-1.71.12-.88,1.1-1.8,1.97-1.93Z"/>
  <path fill="#FFFFFF" d="M92.67.05c4.02-.68,4.1,5.42.08,4.87-1.61-.22-2.52-2.35-1.64-3.73.27-.43,1.04-1.05,1.56-1.14Z"/>
  <path fill="#FFFFFF" d="M45.77.05c2.73-.46,4.33,2.7,2.17,4.37-1.11.87-2.78.68-3.59-.5-.89-1.3-.23-3.59,1.42-3.87Z"/>
</svg>