<?xml version="1.0" encoding="UTF-8"?>
<svg id="Layer_1" data-name="Layer 1" xmlns="http://www.w3.org/2000/svg" viewBox="0 0 125.8 125.7">
  <path d="M21.2,125.7h-.3c-1.72-1.29-3.38-2.83-4.85-4.4-.52-.55-1.87-1.94-2.19-2.51-.17-.3-.21-.51-.05-.83.07-.13.9-.97,1.04-1.06.33-.22.57-.22.9,0,.72.48,2.03,1.75,2.7,2.4.6.57,1.23,1.2,1.8,1.8s1.95,2.02,2.29,2.61c.45.77-.8,1.58-1.34,1.99Z"/>
  <path d="M125.8,20.9v.3c-.42.54-1.22,1.79-1.99,1.34-.59-.34-2.04-1.75-2.61-2.29-.6-.57-1.23-1.2-1.8-1.8-.64-.67-1.92-1.99-2.4-2.7-.24-.37-.25-.55,0-.9.4-.56,1.19-1.39,1.89-.99.58.33,2.04,1.75,2.61,2.29,1.53,1.45,3.03,3.07,4.3,4.75Z"/>
  <path d="M104.9,125.7h-.3c-.56-.47-1.81-1.2-1.28-2.03.47-.75,1.87-2.18,2.53-2.87,1.07-1.11,2.88-2.93,4.1-3.8.4-.29.57-.4,1-.1.52.37,1.37,1.18,1.04,1.84-.25.49-1.58,1.88-2.03,2.37-1.52,1.64-3.26,3.28-5.05,4.6Z"/>
  <path d="M125.8,104.5v.3c-1.32,1.79-2.96,3.53-4.6,5.05-.48.45-1.88,1.79-2.37,2.03-.24.12-.47.18-.73.06-.07-.03-1.02-.98-1.1-1.1-.31-.43-.19-.6.1-1,.87-1.22,2.69-3.03,3.8-4.1.69-.66,2.13-2.06,2.87-2.53.83-.52,1.45.8,2.03,1.28Z"/>
  <path d="M104.7,0h.1c1.12.66,2.11,1.6,3.05,2.5.61.58,1.22,1.19,1.8,1.8.5.52,2.06,2.15,2.34,2.66.15.28.18.51.02.79-.05.09-1,1.02-1.11,1.09-.36.23-.51.19-.85-.04-1.37-.97-3.32-2.95-4.5-4.2-.38-.4-2.4-2.61-2.41-2.95-.01-.42,1.17-1.43,1.56-1.65Z"/>
  <path d="M0,104.7v-.1c.22-.39,1.23-1.57,1.65-1.56.33.01,2.55,2.03,2.95,2.41,1.24,1.17,3.24,3.14,4.2,4.5.24.34.28.48.04.85-.07.11-1,1.06-1.09,1.11-.28.16-.52.13-.79-.02-.51-.27-2.05-1.75-2.56-2.24-.63-.6-1.3-1.27-1.9-1.9-.9-.94-1.83-1.93-2.5-3.05Z"/>
  <path d="M0,21.1v-.1c.18-.39.43-.71.7-1.05,1.25-1.55,3.1-3.39,4.6-4.7.37-.33,1.67-1.52,2.06-1.55s1.62,1.19,1.64,1.56c.01.19-.07.29-.15.44-.35.6-1.7,1.97-2.24,2.56-1.45,1.55-3.05,2.96-4.67,4.33-.66.34-1.57-1-1.94-1.49Z"/>
  <path d="M21,0h.1c.49.37,1.83,1.28,1.49,1.94-1.37,1.62-2.79,3.21-4.33,4.67-.58.55-1.96,1.89-2.56,2.24-.15.09-.24.17-.44.15-.37-.02-1.58-1.25-1.56-1.64s1.22-1.68,1.55-2.06c1.32-1.5,3.15-3.34,4.7-4.6.34-.27.65-.52,1.05-.7Z"/>
  <path d="M37.77,65.33c.13.14.11.3.09.48-.12.74-.98,2.6-1.31,3.4-2.38,5.63-5.85,10.69-8.77,16.03l.47,2.07c1.77.31,4.11,1.23,5.89.99,1.3-.18,3.71-2.99,4.55-4.05,1.79-2.24,2.91-4.67,4.5-6.9.5-.7.69-.81,1.56-.94.35-.05.92-.09,1.29-.11.46-.03,2.51-.07,2.78.09.03.02.45.45.47.48.09.13.18.51.2.68.07.74-.09,2.81-.21,3.59-.14.87-.37,1-1.04,1.46-1.5,1.05-3.27,1.89-4.82,2.98s-5.77,4.27-6.02,6.08c-.23,1.7.73,4.14,1.04,5.84l2.05.46c6.39-3.57,12.49-7.78,19.5-10.12.42-.1.57.38.61.7.08.74-.11,3.68-.33,4.38-.04.13-.08.22-.17.33-.31.34-2.92.91-3.58,1.12-3.91,1.24-7.61,2.99-11.22,4.93-.03.14.1.11.2.15,1.75.73,4.99,1.33,6.47,2.33.59.4.41.71-.13,1.01-.74.41-3.93,1.48-4.69,1.41-1.93-.49-3.83-1.49-5.75-1.95-1.3-.31-1.48-.31-1.15,1.05.5,2.02,1.53,4.02,2.03,6.05-.32,1.16-.65,2.38-1.08,3.5-.24.62-.75,2.25-1.46,1.05-.96-1.63-1.54-4.51-2.25-6.35-.04-.1-.04-.24-.19-.26-1.6,3.18-3.27,6.34-4.43,9.72-.56,1.64-.93,3.34-1.52,4.98-.24.31-1.01.35-1.4.4-.7.09-1.7.19-2.39.21-.45.01-1.77.1-1.71-.61,2.36-7,6.55-13.1,10.11-19.49l-.37-2.08c-1.7-.25-4.98-1.55-6.55-.83-1.95.88-5.13,5.3-6.33,7.17-.72,1.11-1.32,2.38-2.06,3.44-.62.9-.67.95-1.79,1.11-.87.12-2.24.18-3.12.16-.15,0-.45-.03-.58-.07-.3-.09-.82-.69-.86-1.04-.1-.84,0-2.44.1-3.3.12-.99.12-1.25.95-1.85,2.2-1.6,4.68-2.71,6.9-4.5,1.34-1.08,4.19-3.43,4.16-5.24-.03-1.63-.87-3.59-1.02-5.24l-2.11-.5c-6.4,3.6-12.53,7.79-19.55,10.16-.41.04-.59-.49-.62-.83-.08-.78.16-3.16.33-3.97.04-.21.1-.41.17-.61.15-.24,4.02-1.25,4.66-1.47,3.53-1.17,6.9-2.84,10.15-4.65-1.29-.52-2.64-.87-3.95-1.35-.53-.19-2.79-.96-2.98-1.33-.23-.47.34-.68.69-.86.79-.4,3.7-1.39,4.49-1.31,1.81.52,3.53,1.36,5.35,1.85.38.1,1.16.4,1.5.2.29-.26.12-.63.05-.95-.42-2.03-1.6-4.1-2.06-6.15-.02-.64,1.17-4.23,1.57-4.74.24-.31.41-.44.75-.16.29.23,1.1,2.57,1.29,3.1.45,1.24.81,2.51,1.25,3.75,1.65-2.96,3.21-6.04,4.35-9.25.28-.78,1.53-5.35,1.75-5.55.16-.15.95-.25,1.21-.29.75-.1,1.83-.19,2.58-.22.38-.01,1.26-.06,1.53.23ZM35.5,90.2c-2.13.78-4.35.97-6.6.7.27,2.23.12,4.49-.7,6.6,2.14-.76,4.34-.98,6.6-.7-.01-.98-.17-1.96-.1-2.95.09-1.25.51-2.45.8-3.65Z"/>
  <path d="M90.32,25.38c1.65.15,3.61.99,5.24,1.02.25,0,.62-.06.87-.13,1.98-.59,5.45-5.38,6.62-7.18.56-.86,2.19-3.99,2.81-4.39.31-.2.91-.25,1.3-.3.87-.1,2.46-.2,3.3-.1.15.02.26.03.39.11.1.06.64.64.66.74.09.47.03,1.86,0,2.4-.02.36-.06.95-.11,1.29-.15,1.1-.23,1.19-1.11,1.79-1.07.73-2.33,1.34-3.44,2.06-1.81,1.17-6.42,4.48-7.2,6.4-.64,1.58.59,4.79.87,6.48l1.85.41c6.32-3.13,12.4-7.86,19.21-9.97.62-.19.99-.34,1.12.53.1.71-.14,3.53-.32,4.27-.05.2-.1.4-.28.52-1.74.62-3.54,1.01-5.28,1.62-3.27,1.15-6.35,2.76-9.42,4.33.01.13.14.16.24.2,1.86.77,4.64,1.23,6.36,2.24,1.17.69-.45,1.22-1.05,1.46-1.12.43-2.34.76-3.5,1.08-2.04-.5-4.03-1.53-6.05-2.03-1.36-.34-1.36-.16-1.05,1.15.47,1.95,1.5,3.88,1.96,5.85.03.74-.98,3.71-1.36,4.45-.19.36-.37.79-.85.55-.6-.29-2.16-5.78-2.55-6.75-.04-.1-.01-.23-.15-.2-1.95,3.61-3.68,7.3-4.93,11.22-.3.94-.49,1.99-.8,2.9s-.49.85-1.42.98c-.67.09-1.63.18-2.3.2-.51.02-2.13.19-2.01-.6.12-.74.89-2.42,1.21-3.19,2.38-5.74,5.91-10.89,8.91-16.3l-.48-2.08c-1.71-.27-4.21-1.28-5.9-1-1.45.24-3.89,3.21-4.81,4.39-.79,1.02-1.57,2.15-2.26,3.24-.58.9-1.68,3.22-2.33,3.82-.26.24-.68.37-1.03.42-.79.12-2.83.28-3.59.21-.17-.02-.55-.11-.68-.2-.03-.02-.42-.41-.44-.43-.09-.11-.2-.61-.21-.75-.04-.84.06-2.42.18-3.27.04-.3.11-.79.26-1.04.32-.57,3.41-2.2,4.19-2.71,1.81-1.17,6.49-4.53,7.27-6.43.67-1.65-.54-4.71-.84-6.45l-2.05-.45c-6.18,3.24-12.27,7.83-18.98,9.92-.59.18-1.03.38-1.15-.46-.11-.8.09-2.72.21-3.58.04-.32.13-1.06.35-1.25.35-.3,3.28-.98,3.99-1.21,3.75-1.2,7.33-2.92,10.75-4.85-1.24-.44-2.51-.8-3.75-1.25-.53-.19-2.87-1.01-3.1-1.29-.3-.37-.1-.56.22-.79.54-.39,4.06-1.55,4.68-1.52,2.05.46,4.11,1.63,6.15,2.06.33.07.69.24.95-.05.2-.34-.1-1.12-.2-1.5-.39-1.44-1.97-4.72-1.84-5.94.07-.64,1.15-3.78,1.51-4.29.08-.12.17-.24.29-.32.66-.3,1.21,1.71,1.4,2.2.6,1.57,1.04,3.19,1.65,4.75,1.78-3.2,3.43-6.52,4.6-10,.22-.65,1.28-4.65,1.52-4.8.48-.15.99-.23,1.48-.29.78-.09,2.27-.26,3-.2.43.03.86.13.92.64-2.37,7.02-6.57,13.13-10.16,19.54l.5,2.11ZM96.9,34.8c-.28-2.26-.06-4.46.7-6.6-2.12.81-4.36.97-6.6.7.27,2.27.07,4.45-.7,6.6,1.2-.32,2.4-.71,3.65-.8.99-.07,1.97.09,2.95.1Z"/>
  <path d="M37.3,18.4c.14-.01.16-.15.2-.25.83-1.82,1.22-4.28,2.15-6.15.12-.24.29-.62.6-.6.4.12.56.52.72.87.59,1.28.88,2.74,1.31,4.08-.49,2.04-1.53,4.03-2.03,6.05-.26,1.07-.35,1.4.85,1.15,1.91-.4,3.89-1.55,5.72-1.98.89-.21,3.08.59,4.01.96.49.19,1.89.6,1.33,1.28-.28.34-2.53,1.09-3.11,1.29-1.24.45-2.51.81-3.75,1.25,3.43,1.92,6.99,3.65,10.75,4.85,1,.32,2.05.53,3.05.85,1.17.37,1.13.37,1.3,1.6.09.65.17,1.55.2,2.2.02.43.12,1.9-.37,2.04-.27.07-2.76-.95-3.23-1.14-5.84-2.38-11.06-5.99-16.57-9.02l-2.01.5c-.27,1.69-1.24,4.14-1.01,5.82.2,1.51,3.23,4.01,4.45,4.95,2.08,1.62,4.78,2.81,6.68,4.32.49.39.66.6.76,1.24.12.78.29,2.86.21,3.59-.07.67-.59,1.25-1.26,1.34-1.03.14-2.51-.26-3.59-.19-.7-.1-.9-.23-1.33-.77-1.51-1.9-2.7-4.6-4.32-6.68-.95-1.23-3.44-4.24-4.95-4.45-1.68-.22-4.13.74-5.82,1.01l-.47,2.07c2.75,5.01,6.05,9.81,8.37,15.04.48,1.07,1.54,3.31,1.74,4.36.07.35.05.47-.3.61-.59.24-3.22,0-3.99-.12-1.18-.17-1.16-.17-1.51-1.29-.32-1-.53-2.05-.85-3.05-1.2-3.75-2.93-7.32-4.85-10.75-.48,1.34-.86,2.72-1.35,4.05-.19.53-.87,2.54-1.19,2.81-.68.55-1.09-.84-1.28-1.33-.37-.92-1.17-3.12-.96-4.01.37-1.57,1.32-3.38,1.78-5.02.36-1.26.77-1.97-.95-1.55-2.02.5-4.01,1.54-6.05,2.03-1.05-.29-2.11-.57-3.13-.96-.43-.16-1.78-.57-1.82-1.07.01-.32.28-.44.53-.57,1.86-.96,4.38-1.34,6.22-2.18.1-.05.23-.07.25-.2-3.52-1.87-7.11-3.61-10.92-4.83-.72-.23-3.39-.81-3.78-1.12-.22-.18-.24-.45-.29-.71-.15-.78-.4-3.27-.31-3.99.04-.3.23-.83.61-.8,7.01,2.34,13.11,6.52,19.49,10.11l2.16-.46,1.05-5.26c.01-1.49-1.58-2.95-2.6-3.9-1.56-1.44-3.36-2.71-5.15-3.85-.83-.53-3.54-1.9-3.95-2.55-.07-.11-.12-.21-.16-.34-.21-.79-.36-3.56-.24-4.35.06-.37.66-.91,1.04-.96.84-.1,2.43,0,3.3.1.39.05.99.1,1.3.3.66.43,2.01,3.11,2.55,3.95,1.23,1.92,4.78,6.99,6.9,7.6.27.08.57.12.85.15l5.26-1.05.46-2.16c-3.09-5.57-6.73-10.86-9.11-16.8-.21-.53-.97-2.26-1.01-2.69-.06-.65,1.09-.62,1.5-.61.72.02,1.68.12,2.4.2.4.05,1.37.11,1.6.4.32.41.89,3.04,1.12,3.78,1.22,3.81,2.96,7.4,4.83,10.92ZM34.8,28.9c-2.25.28-4.48.1-6.6-.7.8,2.12.98,4.35.7,6.6.98-.01,1.96-.17,2.95-.1,1.24.08,2.47.47,3.65.8-.33-1.18-.71-2.41-.8-3.65-.07-.99.09-1.97.1-2.95Z"/>
  <path d="M99.5,80.4c.31-.93,2.05-6.68,2.6-6.95.3-.17.58.12.74.36.36.56,1.49,4.02,1.47,4.64-.44,1.98-1.49,3.9-1.96,5.85-.33,1.39-.24,1.48,1.15,1.15,1.88-.45,3.78-1.42,5.65-1.95.2,0,.4,0,.59.01.63.07,3.73,1.11,4.25,1.45.24.16.53.44.36.74-.3.59-6.02,2.22-6.95,2.65,3.63,2.08,7.46,3.79,11.45,5.05.6.19,3,.72,3.31.99.19.17.3,1.06.34,1.36.1.81.27,2.44.2,3.2-.03.35-.18,1-.63.93-7.01-2.39-13.14-6.57-19.55-10.17l-1.99.47-.12.18c-.21,1.81-1.49,4.73-.68,6.43,1.01,2.1,5.73,5.33,7.76,6.64.77.5,3.19,1.68,3.59,2.31.18.28.25.77.3,1.1.12.88.22,2.76.11,3.6-.08.58-.82.99-1.37,1.01-.87.03-2.31-.04-3.18-.16-.32-.04-.78-.09-1.05-.25-.65-.4-2.07-3.17-2.6-4-.8-1.24-1.68-2.55-2.6-3.7-.83-1.03-3.18-3.77-4.46-3.94-1.81-.25-4.11.68-5.9.98l-.5,2.11c3.33,6.12,7.66,12.08,9.86,18.75.18.53.55,1.14-.27,1.33-.62.14-3.75-.14-4.45-.3-.21-.05-.39-.09-.52-.28-.35-.5-.81-2.78-1.05-3.55-1.26-3.91-2.96-7.55-4.9-11.15-.14-.03-.11.1-.15.2-.39.95-2.01,6.49-2.55,6.75-.63.31-.91-.72-1.07-1.13-.43-1.04-1.3-3.37-1.06-4.41.37-1.58,1.34-3.37,1.78-5.02.37-1.37.65-1.86-1.05-1.45-1.92.46-3.82,1.47-5.75,1.96-.8.06-3.75-.96-4.55-1.36-.92-.46-.77-.81.06-1.23,1.86-.95,4.21-1.38,6.14-2.17.1-.04.23-.01.2-.15-3.59-1.95-7.24-3.65-11.15-4.9-.66-.21-3.28-.8-3.61-1.09-.23-.2-.3-1.02-.34-1.36-.11-.85-.3-2.6-.2-3.4.03-.23.19-.61.41-.7s2.94,1.02,3.39,1.21c5.74,2.37,10.89,5.9,16.3,8.91l2.11-.5c.3-1.78,1.22-4.11.98-5.9-.17-1.27-2.91-3.62-3.94-4.46-1.15-.93-2.46-1.81-3.7-2.6-.83-.53-3.6-1.95-4-2.6-.17-.27-.21-.72-.25-1.05-.12-.86-.21-2.34-.19-3.19.01-.53.5-1.29,1.03-1.37.84-.11,2.73-.01,3.6.11.33.05.82.12,1.1.3.61.39,2.56,4.02,3.17,4.93,1.12,1.67,4.04,5.59,5.78,6.42s4.61-.48,6.43-.68l.18-.12.47-1.99c-3.59-6.41-7.78-12.53-10.17-19.55.1-.76,1.04-.65,1.64-.63.73.02,1.77.11,2.49.21.3.04,1.19.15,1.36.34.26.29.8,2.72.99,3.31,1.08,3.4,2.48,6.7,4.15,9.85.08.16.88,1.65.95,1.6ZM96.9,90.9c-2.26.28-4.46.06-6.6-.7.76,2.14.98,4.34.7,6.6,2.26-.28,4.46-.06,6.6.7-.77-2.14-.97-4.34-.7-6.6Z"/>
  <path d="M61.77,40.92c.5-.09.75.43,1.09.68.29.05.6-.99,1.37-.58.51.27,2,1.7,2.52,2.18,1.27,1.19,2.69,2.66,3.8,4,.36.44.9.86.55,1.46-.06.11-1.06,1.07-1.18,1.12-.27.13-.51.05-.76-.09-.69-.42-2.17-1.86-2.82-2.48-1.11-1.06-2.06-2.28-3.14-3.36-.08-.08-.21-.26-.34-.24-1.22,1.31-2.4,2.67-3.71,3.9-.43.4-2.47,2.27-2.85,2.35s-1.52-.97-1.65-1.26c-.11-.24-.07-.52.06-.74,1.35-1.51,2.66-3.06,4.13-4.47.36-.35,2.68-2.44,2.93-2.48Z"/>
  <path d="M65.74,79.14c.8-.79,1.7-1.67,2.56-2.39.46-.38,1.06-1.07,1.7-.8.07.03,1.06,1.02,1.11,1.09.14.24.15.5.04.75-2.12,2.51-4.42,4.86-6.95,6.95-.67.31-1.12-.58-1.33-.54-.92,1.26-1.83.06-2.66-.66-2.01-1.72-3.74-3.74-5.5-5.7-.12-.15-.12-.32-.09-.5.06-.43,1.4-1.89,1.97-1.38,2.28,1.85,4.31,3.95,6.29,6.12.2.04,2.5-2.59,2.87-2.96Z"/>
  <path d="M48.07,54.62c.18-.04.35-.05.53.03.07.03.98.93,1.06,1.04.24.33.28.45.1.81-.28.58-1.74,2.1-2.25,2.65-1.23,1.31-2.57,2.5-3.9,3.7l3.5,3.3c.45.74,2.75,2.67,2.77,3.42,0,.33-1.27,1.59-1.62,1.59-.15,0-.28-.07-.4-.15-.7-.47-1.94-1.67-2.6-2.3-1.01-.95-2.09-2.06-3-3.1-.27-.31-1.33-1.47-1.35-1.76-.03-.43.46-.71.7-.99-.27-.31-.77-.59-.68-1.08.05-.25,2.09-2.51,2.43-2.88,1.13-1.19,3.1-3.19,4.4-4.1.11-.07.19-.15.32-.18Z"/>
  <path d="M77.27,54.62c.24-.07.45-.02.67.09.49.26,2.11,1.81,2.61,2.28,1.01.95,2.1,2.06,3,3.1.74.86,2.03,1.8.76,2.76-.05.26.7.45.59,1.08-.04.21-1.66,2.05-1.95,2.36-.79.85-1.75,1.81-2.6,2.6-.57.53-1.82,1.75-2.4,2.1-.13.08-.24.16-.4.16-.36,0-1.53-1.16-1.56-1.5-.02-.17.01-.29.06-.45.09-.26,1.36-1.65,1.64-1.96,1.41-1.54,3.01-2.94,4.5-4.4-1.2-1.13-2.46-2.21-3.6-3.4-.51-.53-2.22-2.3-2.48-2.82-.13-.25-.18-.57-.06-.84.04-.09,1.14-1.16,1.22-1.18Z"/>
  <path d="M118.38,5.13c1.72-.21,3,1.76,1.92,3.22-1.6,2.18-4.9-.36-3.2-2.5.28-.36.82-.67,1.28-.72Z"/>
  <path d="M7.08,116.53c.7-.02,1.51.51,1.84,1.1,1.1,1.95-1.47,4.02-3.18,2.38-1.31-1.27-.4-3.42,1.33-3.48Z"/>
  <path d="M118.58,116.52c.47-.04,1.08.22,1.42.53,1.98,1.76-.63,4.7-2.6,3.1-1.48-1.2-.58-3.5,1.18-3.63Z"/>
  <path d="M55.97,54.42c1.94-.4,3.3,1.91,1.88,3.38-1.74,1.8-4.49-.52-3.1-2.5.23-.32.83-.8,1.22-.88Z"/>
  <path d="M6.87,5.12c1.67-.26,3,1.71,1.88,3.18-1.69,2.21-4.72-.22-3.25-2.25.28-.39.89-.85,1.37-.93Z"/>
  <path d="M68.97,54.42c2.38-.41,3.41,2.92,1.25,3.85-2.74,1.18-4.03-3.37-1.25-3.85Z"/>
  <path d="M55.97,67.32c2.07-.36,3.44,2.32,1.62,3.62-2.03,1.45-4.39-1.48-2.54-3.14.22-.19.64-.43.92-.48Z"/>
  <path d="M68.97,67.32c2.29-.39,3.39,2.44,1.42,3.72-1.65,1.08-3.79-.97-2.78-2.68.23-.39.91-.96,1.36-1.04Z"/>
  <path d="M73.17,71.52c2.5-.43,3.26,2.85,1.25,3.75-2.9,1.3-3.95-3.28-1.25-3.75Z"/>
  <path d="M114.28,9.32c2.81-.28,3.02,4.3-.02,3.97-2.25-.25-2.4-3.73.02-3.97Z"/>
  <path d="M11.18,9.32c2.55-.27,2.88,3.65.46,3.97-2.83.38-3.12-3.69-.46-3.97Z"/>
  <path d="M114.28,112.43c2.75-.36,2.93,3.76.37,3.97s-2.9-3.65-.37-3.97Z"/>
  <path d="M10.87,112.42c2.66-.45,3.37,3.55.85,3.95-2.69.43-3.26-3.54-.85-3.95Z"/>
  <path d="M73.47,50.24c2.84-.05,2.8,4.46-.29,3.94-2.21-.38-2.05-3.9.29-3.94Z"/>
  <path d="M51.77,71.52c2.91-.5,3.28,3.78.66,3.97-2.46.17-3.01-3.56-.66-3.97Z"/>
  <path d="M52.27,50.24c2.47-.05,2.55,3.64.38,3.95-3.1.45-3.08-3.9-.38-3.95Z"/>
  <path d="M122.47,120.72c2.25-.38,3.4,2.79,1.25,3.75-2.9,1.3-3.92-3.3-1.25-3.75Z"/>
  <path d="M2.68,120.73c2.74-.37,3.01,3.92.37,3.98s-2.79-3.65-.37-3.98Z"/>
  <path d="M122.27,1.12c2.34-.48,3.56,2.27,1.72,3.52-1.72,1.18-3.74-.67-2.91-2.51.18-.41.75-.92,1.19-1.01Z"/>
  <path d="M3.05,1.06c2.63.04,2.36,4.2-.3,3.94-2.43-.24-2.38-3.98.3-3.94Z"/>
</svg>