<svg xmlns="http://www.w3.org/2000/svg" version="1.1" id="Layer_1" x="0px" y="0px" width="100%" viewBox="0 0 1381 1381" enable-background="new 0 0 1381 1381" xml:space="preserve">
<path fill="#FFFFFF" opacity="1.000000" stroke="none" d=" M582.464661,1382.000000   C581.845947,1381.403564 581.891113,1380.509155 581.509094,1380.253662   C567.872864,1371.137451 553.841309,1362.566895 540.615295,1352.894165   C523.712769,1340.532715 507.305176,1327.476196 490.965820,1314.368286   C476.705109,1302.928101 462.830811,1291.006104 448.795685,1279.285034   C446.408844,1277.291626 444.049683,1275.263794 441.717285,1273.206909   C438.458099,1270.332886 434.971527,1269.043457 430.347504,1268.811157   C413.316559,1267.955322 396.325256,1266.319580 379.316071,1265.016113   C374.069458,1264.614014 368.815430,1264.298340 363.561188,1264.008301   C351.059113,1263.317993 338.550110,1262.745239 326.052795,1261.979492   C311.125397,1261.065186 296.206390,1260.011963 281.285400,1258.995239   C266.862183,1258.012451 252.430573,1257.127686 238.022690,1255.953979   C228.768616,1255.200317 219.516693,1254.237915 210.329529,1252.913330   C204.859009,1252.124390 199.911560,1249.270386 198.422989,1243.725830   C196.803345,1237.693115 198.134979,1231.323242 202.746384,1226.986328   C209.252319,1220.867554 216.329041,1215.282227 223.569443,1210.030884   C248.897949,1191.660400 275.732758,1175.730103 303.721741,1161.771118   C315.301422,1155.995972 327.579742,1152.745361 340.656433,1152.981567   C346.653961,1153.089844 352.656403,1152.917603 358.654297,1153.015503   C376.406006,1153.305542 394.157288,1153.630615 411.907257,1154.011963   C424.493408,1154.282593 437.080536,1154.573364 449.660706,1155.032349   C458.227509,1155.344849 466.783112,1155.964233 475.686218,1156.465576   C475.686218,1110.766724 475.686218,1065.697266 475.686218,1020.892883   C464.650665,1020.892883 453.473206,1020.888855 442.295715,1020.897583   C440.802155,1020.898804 439.308624,1020.995117 437.815094,1020.995422   C408.484283,1021.001587 379.153320,1021.061279 349.822784,1020.971436   C337.183746,1020.932739 325.061981,1018.127258 313.857422,1012.308472   C298.027008,1004.087402 282.223206,995.778442 266.768097,986.881531   C250.737198,977.653198 234.947556,967.968567 219.435532,957.893555   C212.880646,953.636292 206.978119,948.202637 201.384476,942.689514   C196.567398,937.941772 197.196808,931.511353 199.246765,925.755920   C201.066818,920.646179 205.533310,918.271729 211.029175,917.976990   C215.274338,917.749390 219.504349,917.148010 223.749786,917.033081   C239.165405,916.615784 254.585693,916.373840 270.002197,915.985718   C280.255768,915.727600 290.505829,915.331116 300.757599,915.000488   C311.175812,914.664490 321.594208,914.333130 332.012512,913.999878   C342.430847,913.666565 352.848816,913.322937 363.267578,913.002808   C374.518768,912.656982 385.770813,912.338989 397.022156,911.998230   C407.774017,911.672668 418.525604,911.337524 429.277069,910.998901   C439.695557,910.670776 450.118256,910.431702 460.530060,909.955627   C465.447083,909.730713 470.342926,909.042969 475.642487,908.526428   C475.642487,818.533630 475.642487,728.131104 475.642487,637.455688   C475.694763,637.503845 475.459076,637.093445 475.210388,637.085449   C463.293732,636.701782 451.377014,636.311523 439.458038,636.010437   C424.541199,635.633667 409.621521,635.370300 394.704865,634.987183   C384.284851,634.719604 373.868195,634.322998 363.449493,634.002808   C352.198303,633.657043 340.945923,633.348511 329.694977,632.995300   C319.775909,632.683899 309.858459,632.322449 299.939667,632.002930   C289.188446,631.656616 278.436035,631.347046 267.684998,630.995544   C258.099304,630.682129 248.508301,630.458496 238.931503,629.965027   C229.272949,629.467346 219.620346,628.792419 209.980804,628.003357   C197.026199,626.942993 193.704498,610.445618 203.001617,601.924072   C212.500732,593.217407 223.036652,585.321960 234.094452,578.700989   C258.771240,563.925598 283.876495,549.833801 309.175812,536.144775   C320.209259,530.174744 332.008087,525.852295 345.112183,525.890381   C366.694275,525.953186 388.277283,525.202209 409.861786,525.038269   C431.742065,524.872070 453.624542,525.001648 475.910797,525.001648   C475.910797,509.294861 475.910797,492.886444 475.910797,476.083374   C492.711090,476.083374 509.119446,476.083374 526.000000,476.083374   C526.000000,473.414825 526.000000,471.136505 526.000000,468.858185   C526.000000,448.359955 526.114014,427.860840 525.956055,407.363831   C525.865479,395.610443 525.628174,383.843140 524.940857,372.112366   C523.328369,344.594147 528.655884,318.957886 543.220825,295.177063   C558.918030,269.547668 573.571106,243.278381 589.296204,217.666763   C593.212402,211.288315 599.200378,206.040817 604.790527,200.873154   C609.800720,196.241562 615.827759,197.260101 621.601562,199.919724   C627.072510,202.439850 628.600098,207.585602 628.879150,212.734528   C629.578247,225.632828 629.669922,238.564117 629.999023,251.482346   C630.336670,264.733643 630.635254,277.986023 631.010437,291.236237   C631.291382,301.156097 631.681946,311.072784 631.995972,320.991760   C632.346985,332.076141 632.657104,343.161804 633.002991,354.246338   C633.322998,364.498413 633.681396,374.749298 633.996094,385.001526   C634.346558,396.419250 634.653625,407.838257 635.004089,419.255981   C635.318787,429.508240 635.585022,439.762939 636.025452,450.010010   C636.387085,458.425537 636.973083,466.831390 637.482300,475.632446   C727.580322,475.632446 818.100159,475.632446 908.897705,475.632446   C909.265625,468.739777 909.790222,461.866180 909.968689,454.983551   C910.398682,438.401611 910.624451,421.814453 911.015076,405.231354   C911.268311,394.477844 911.662781,383.727631 912.001282,372.976166   C912.329285,362.557678 912.672913,352.139679 912.998291,341.721100   C913.339294,330.803070 913.656860,319.884308 914.003052,308.966431   C914.322815,298.880981 914.668762,288.796387 914.999390,278.711273   C915.335449,268.459686 915.664734,258.207916 916.000732,247.956314   C916.331299,237.871216 916.580261,227.782242 917.050171,217.703583   C917.200623,214.475800 917.754395,211.234818 918.444946,208.069962   C920.994080,196.385971 935.746399,195.247772 941.927551,200.856110   C948.771545,207.065994 954.875793,214.473434 959.851868,222.283432   C971.686218,240.857056 982.912476,259.833435 993.899292,278.926208   C1000.790100,290.900848 1006.982239,303.291382 1013.151917,315.662811   C1018.260681,325.907135 1020.955139,336.881897 1020.977661,348.375183   C1021.041504,380.872253 1021.108337,413.370148 1020.934692,445.866425   C1020.881958,455.743011 1020.051331,465.615448 1019.564026,475.758514   C1065.379028,475.758514 1110.448120,475.758514 1156.438843,475.758514   C1155.961182,466.641968 1155.482788,457.625977 1155.023804,448.609009   C1154.964478,447.445282 1155.013428,446.276306 1154.998779,445.109955   C1154.666870,418.859650 1154.388428,392.608490 1153.969971,366.359589   C1153.825195,357.271484 1152.979980,348.185120 1153.078125,339.104706   C1153.249756,323.245544 1158.255859,308.762268 1166.276489,295.137238   C1172.308838,284.889954 1177.473267,274.125732 1183.635010,263.962036   C1196.463013,242.802902 1209.319458,221.607178 1226.245850,203.334671   C1231.586304,197.569412 1240.460815,196.391190 1246.740601,199.955948   C1252.032349,202.959778 1252.966187,208.571030 1253.816528,213.602982   C1255.149414,221.490219 1255.469238,229.563354 1255.971558,237.573212   C1257.064087,254.989258 1257.935425,272.419159 1259.021851,289.835602   C1259.921875,304.264008 1261.004639,318.680939 1261.998779,333.103485   C1263.004395,347.691864 1263.991577,362.281494 1265.004761,376.869324   C1265.653320,386.207520 1266.352295,395.542236 1266.995239,404.880798   C1267.683838,414.882782 1268.062378,424.918091 1269.187744,434.869690   C1269.475708,437.416595 1271.834717,439.899719 1273.646851,442.075104   C1282.749512,453.002655 1292.144531,463.689423 1301.133911,474.707764   C1311.305664,487.175171 1321.239380,499.839813 1331.123779,512.537659   C1342.389160,527.009338 1353.826416,541.367493 1364.526611,556.251160   C1370.779053,564.948181 1375.737061,574.575745 1381.638794,583.892334   C1382.000000,588.689270 1382.000000,593.378479 1381.652710,598.617249   C1378.077026,605.998840 1373.023193,611.142029 1366.058472,613.905640   C1354.935669,618.319214 1343.242188,620.020264 1331.288330,620.004883   C1315.790161,619.984985 1300.292114,619.992859 1284.793945,620.013428   C1283.540649,620.015076 1282.287598,620.206116 1281.466309,620.273682   C1280.961548,630.150024 1281.127319,639.650024 1279.794556,648.934937   C1278.737305,656.299744 1277.199463,664.195007 1273.519409,670.474243   C1261.241333,691.424194 1248.363037,712.061829 1234.817261,732.215942   C1225.145752,746.605652 1214.032715,760.026489 1203.603638,773.825928   C1204.887817,775.472961 1206.522095,777.507935 1208.091675,779.591492   C1218.131104,792.919373 1228.634399,805.930298 1238.057129,819.681396   C1248.329590,834.672424 1257.241211,850.591980 1267.402710,865.664001   C1277.114868,880.069580 1281.172485,895.790894 1281.006714,912.889709   C1280.962036,917.500061 1281.000000,922.111145 1281.000000,927.000000   C1283.130127,927.000000 1284.765259,926.975830 1286.399658,927.003662   C1305.647339,927.331238 1324.918701,927.191101 1344.135132,928.148560   C1359.834595,928.930847 1374.450439,932.860962 1382.000000,949.000000   C1382.000000,954.022095 1382.000000,959.044189 1381.651123,964.617798   C1379.828857,967.650452 1378.543579,970.268555 1376.852173,972.590759   C1364.090820,990.112671 1351.402222,1007.691101 1338.384766,1025.021973   C1328.050659,1038.780762 1317.490845,1052.382690 1306.650146,1065.744873   C1295.944336,1078.940918 1284.699463,1091.698242 1273.841553,1104.772949   C1271.857422,1107.162109 1269.547607,1110.024414 1269.202271,1112.887329   C1268.276001,1120.564941 1268.375610,1128.363403 1267.985107,1136.109619   C1267.728638,1141.197144 1267.389526,1146.282349 1266.981201,1151.360107   C1265.680908,1167.531738 1264.231445,1183.692139 1263.042603,1199.871826   C1262.462402,1207.769531 1262.487427,1215.711060 1261.948853,1223.613037   C1261.538452,1229.632324 1260.425903,1235.606567 1260.078857,1241.626953   C1259.749146,1247.348022 1260.007935,1253.103027 1260.007935,1258.525269   C1256.677368,1259.107300 1254.141602,1259.775146 1251.570679,1259.962769   C1236.825073,1261.038208 1222.070435,1261.986572 1207.320435,1263.003662   C1193.068115,1263.986084 1178.823730,1265.089600 1164.565308,1265.972290   C1151.740479,1266.766357 1138.900146,1267.309937 1126.069214,1268.011963   C1121.315063,1268.271973 1116.565796,1268.637573 1111.820923,1269.034912   C1111.078979,1269.097046 1110.241211,1269.428955 1109.670044,1269.903687   C1099.376953,1278.458984 1089.146729,1287.089966 1078.843872,1295.633667   C1067.548706,1305.000366 1056.360107,1314.506592 1044.822876,1323.567505   C1029.522705,1335.583496 1014.153625,1347.536499 998.388916,1358.928223   C986.521240,1367.503906 975.370789,1377.414795 961.000000,1382.000000   C957.969421,1382.000000 954.938782,1382.000000 951.337646,1381.631104   C941.424133,1380.370361 933.935364,1370.586426 930.987976,1360.004639   C927.712524,1348.245117 926.820557,1336.253662 926.961304,1324.099121   C927.126526,1309.835693 927.000000,1295.568970 927.000000,1281.487061   C917.633423,1280.973267 908.705200,1280.936157 899.906433,1279.850586   C893.441223,1279.052979 886.408569,1278.189209 880.907471,1275.087280   C861.881409,1264.359131 843.044800,1253.197266 824.840881,1241.136719   C807.088196,1229.375122 790.200012,1216.308716 773.046387,1203.897705   C765.613831,1209.668945 757.885681,1216.174316 749.651733,1221.959839   C731.578552,1234.658569 713.380981,1247.191650 694.966492,1259.388306   C686.406799,1265.057739 677.436157,1270.208862 668.261780,1274.818726   C659.033997,1279.455688 648.705383,1280.235474 638.549377,1280.924316   C632.476257,1281.336304 626.352295,1281.000000 620.000000,1281.000000   C620.000000,1287.327271 620.124268,1293.132202 619.976868,1298.930054   C619.519714,1316.917114 621.570557,1335.015137 617.965698,1352.864136   C615.310181,1366.012573 610.646790,1377.813843 596.000000,1382.000000   C591.643127,1382.000000 587.286194,1382.000000 582.464661,1382.000000  M858.488464,663.987366   C853.376282,658.208801 848.270203,652.424744 843.150696,646.652710   C834.151489,636.506653 822.483154,630.457153 809.889038,626.557861   C793.099243,621.359619 775.797913,618.533020 758.249451,622.107300   C747.428345,624.311340 736.385254,626.506104 726.224121,630.631775   C708.258850,637.926208 695.815063,652.167786 685.095947,667.814209   C681.074402,673.684448 677.723328,679.383667 670.954285,683.289001   C657.896667,690.822388 646.756104,700.958557 637.882385,713.439026   C627.144958,728.540588 622.948364,745.835754 621.168823,763.729736   C619.966675,775.817749 621.174866,787.975464 623.961304,799.922180   C627.336792,814.394653 632.832825,827.836426 642.681152,839.137512   C658.794006,857.627380 678.862793,870.028137 702.315247,876.968933   C717.472717,881.454773 732.690247,885.691467 748.550537,887.040344   C758.453674,887.882568 768.352539,889.947937 778.217896,889.744568   C788.896362,889.524414 799.675598,887.987549 810.157532,885.806885   C828.850464,881.917847 847.501709,877.566528 864.767578,868.964233   C866.615906,868.043335 868.909180,866.536560 869.495789,864.795959   C874.201538,850.832764 879.082153,836.888916 882.828186,822.654602   C885.699280,811.744873 887.099548,800.438232 888.954102,789.274902   C889.858948,783.828735 891.386169,778.179077 890.754944,772.843628   C889.044434,758.386230 886.752075,743.963928 883.917725,729.681030   C879.335632,706.591125 873.045349,684.042358 858.488464,663.987366  M1163.963379,897.170288   C1164.308960,886.752319 1164.605835,876.332458 1165.019287,865.917175   C1165.247803,860.161133 1165.506592,854.397400 1166.040039,848.664001   C1167.266235,835.483337 1168.557495,822.306519 1170.035767,809.152161   C1171.198120,798.809937 1172.694336,788.505371 1174.009766,778.179993   C1174.335083,775.625732 1175.043213,772.986206 1174.706055,770.504028   C1172.959351,757.648071 1170.666748,744.863037 1169.079712,731.989685   C1167.698120,720.782837 1166.780151,709.505798 1166.053345,698.234253   C1164.866089,679.823975 1163.987427,661.393616 1163.006592,642.970215   C1162.605347,635.432495 1162.277222,627.890808 1161.909058,620.209412   C1113.516235,620.209412 1065.445190,620.209412 1017.417175,620.209412   C1016.604248,636.046387 1015.751953,651.669983 1015.014282,667.298950   C1014.282715,682.799500 1013.718628,698.307861 1012.983704,713.808228   C1012.398560,726.149231 1011.421326,738.476257 1011.071045,750.822327   C1010.740173,762.483398 1010.740479,774.168701 1011.075500,785.829529   C1011.387268,796.676941 1012.420349,807.501587 1012.977417,818.344421   C1013.730896,833.010315 1014.461487,847.679626 1014.963867,862.355591   C1015.462830,876.934387 1015.562073,891.526794 1016.046143,906.106262   C1016.274170,912.974915 1016.992493,919.827332 1017.494141,926.763184   C1065.554199,926.763184 1113.626953,926.763184 1163.000000,926.763184   C1163.000000,918.483643 1162.975342,910.430969 1163.022461,902.378723   C1163.031006,900.918335 1163.333252,899.459595 1163.963379,897.170288  M875.305603,1165.000000   C892.485718,1163.873901 909.665833,1162.747803 926.689880,1161.631836   C926.689880,1113.303955 926.689880,1065.235596 926.689880,1017.488098   C920.625854,1016.973083 914.906860,1016.280640 909.169067,1016.043335   C897.590637,1015.564514 885.997253,1015.448425 874.418884,1014.969177   C861.576538,1014.437683 848.745361,1013.640869 835.906921,1013.007751   C815.153259,1011.984375 794.405945,1010.654297 773.639038,1010.153625   C763.990356,1009.921143 754.306824,1011.414246 744.630554,1011.978760   C731.798523,1012.727417 718.964172,1013.499207 706.120056,1013.962830   C683.955933,1014.763000 661.781128,1015.266724 639.615967,1016.041382   C633.100952,1016.268982 626.603333,1016.991272 620.332703,1017.469055   C620.332703,1065.749146 620.332703,1113.820557 620.332703,1161.678223   C626.587280,1162.135864 632.487000,1162.686768 638.399597,1162.972290   C647.479187,1163.410889 656.569458,1163.624390 665.651611,1164.016113   C671.573425,1164.271240 677.499084,1164.548950 683.405273,1165.033203   C698.750061,1166.291748 714.085754,1167.661987 729.423706,1169.003540   C736.924316,1169.659424 744.441650,1170.183228 751.916016,1171.066284   C762.364563,1172.300903 772.348450,1175.766357 783.411804,1173.282715   C796.218506,1170.407715 809.467957,1169.227417 822.593445,1168.119385   C839.809509,1166.666260 857.092346,1166.002930 875.305603,1165.000000  M1131.500000,1071.000000   C1111.406860,1071.000000 1091.313721,1071.000000 1071.281006,1071.000000   C1071.281006,1099.635986 1071.281006,1127.703491 1071.281006,1156.461548   C1080.142700,1155.962646 1088.686523,1155.271729 1097.242676,1155.043823   C1115.153687,1154.566650 1133.071167,1154.336304 1150.985962,1153.991821   C1151.926392,1153.973755 1152.864502,1153.838379 1155.000000,1153.654907   C1155.000000,1139.710693 1155.000000,1125.982666 1155.000000,1112.254639   C1155.000000,1098.577271 1155.000000,1084.900024 1155.000000,1071.000000   C1147.785645,1071.000000 1140.142822,1071.000000 1131.500000,1071.000000  z" />
<path fill="#FFFFFF" opacity="1.000000" stroke="none" d=" M0.999999,630.468628   C2.442172,626.747192 3.915492,623.507812 5.321348,620.239441   C13.320539,601.642273 26.614861,588.497559 46.246284,583.150940   C69.928932,576.701050 95.757347,582.629456 112.434128,604.768616   C119.962685,614.763123 124.079483,625.560181 125.152786,638.079102   C126.820526,657.531677 121.454712,674.277954 107.520958,687.790894   C97.405396,697.601013 85.077530,702.759521 70.718979,704.193970   C49.953938,706.268555 32.336731,700.302551 17.634695,685.964539   C10.040412,678.558289 4.669217,669.526001 2.880064,658.749451   C2.786728,658.187256 2.132046,657.718201 1.369351,657.102905   C1.000000,648.312439 1.000000,639.624817 0.999999,630.468628  z" />
<path fill="#FFFFFF" opacity="1.000000" stroke="none" d=" M0.999998,887.468628   C1.663283,886.524963 2.795047,886.150879 2.922208,885.560364   C7.696664,863.389771 31.273804,844.185303 52.196625,841.799988   C70.232086,839.743835 86.785011,841.826721 101.558907,852.962646   C115.488571,863.462341 123.476860,877.103271 125.169777,894.765198   C126.203445,905.549316 124.988571,915.691467 121.027779,925.603699   C113.271408,945.014648 99.315254,957.738892 79.069672,962.911377   C62.554054,967.130798 46.433636,965.194763 31.826399,956.204163   C17.307808,947.268127 7.184637,934.625305 2.972505,917.741516   C2.749893,916.849182 2.158437,916.048950 1.369344,915.102905   C1.000000,905.979126 1.000000,896.958191 0.999998,887.468628  z" />
<path fill="#FFFFFF" opacity="1.000000" stroke="none" d=" M655.531372,0.999994   C663.670227,4.333570 672.024170,6.643218 678.868713,11.213384   C693.222900,20.797848 701.449158,34.716908 704.080139,52.001350   C705.936768,64.198967 705.388855,76.058960 700.790649,87.517479   C693.605652,105.422142 680.721863,117.894501 662.162659,122.752831   C639.474915,128.691895 618.402588,124.761688 600.629211,108.171608   C591.480896,99.632347 585.088257,89.557938 582.672974,77.211205   C578.532471,56.046146 582.683655,36.994507 597.630005,20.889990   C605.965332,11.908813 615.835571,5.368618 627.929749,2.571326   C629.507019,2.206522 631.128357,2.032120 632.864624,1.384763   C640.354248,1.000000 647.708496,1.000000 655.531372,0.999994  z" />
<path fill="#FFFFFF" opacity="1.000000" stroke="none" d=" M913.531372,0.999990   C920.873169,3.738714 928.377869,5.491485 934.495361,9.409997   C949.871948,19.259321 960.975708,32.476128 964.079956,51.389400   C967.451538,71.931679 963.162415,90.349533 948.778381,105.428879   C939.439758,115.218979 927.917603,122.031212 914.002625,124.061958   C901.338562,125.910156 889.195801,125.276840 877.201721,120.133316   C862.487122,113.823135 852.550903,103.025795 846.095276,88.836800   C842.230835,80.343178 840.633240,71.095772 841.098450,61.824638   C842.334595,37.186977 853.117554,18.132833 875.314148,6.348651   C878.938049,4.424717 882.960999,3.252367 886.899780,1.366319   C895.687561,1.000000 904.375183,1.000000 913.531372,0.999990  z" />
<path fill="#FFFFFF" opacity="1.000000" stroke="none" d=" M392.999939,381.721130   C392.631287,385.336609 392.262695,388.482513 391.733368,392.999908   C372.375061,392.999908 352.118347,393.551056 331.918243,392.722290   C324.096039,392.401337 315.890076,390.058899 308.740082,386.739441   C280.960236,373.842438 254.859924,357.891174 229.490845,340.779114   C221.441803,335.349854 213.731567,329.401611 206.037857,323.468384   C201.215729,319.749634 195.317856,308.018982 199.073883,302.247253   C201.149597,299.057526 204.103378,295.407593 207.438766,294.294403   C213.482132,292.277405 220.074768,291.576843 226.495926,291.090607   C239.309296,290.120331 252.168594,289.773529 264.995483,288.957977   C272.159088,288.502502 279.295715,287.622925 286.918518,286.888824   C287.614014,280.090637 288.517731,273.334442 288.953735,266.548187   C289.777802,253.721939 290.011597,240.850479 291.124115,228.052872   C291.762360,220.710785 293.126068,213.331451 295.113953,206.235229   C297.108307,199.115738 303.821320,196.541336 311.150085,198.553802   C318.689728,200.624176 323.814728,205.496796 327.973907,211.727249   C340.497772,230.487915 353.336670,249.049637 365.394226,268.105591   C371.650665,277.993378 376.241028,288.919159 382.078796,299.092102   C390.325714,313.463379 393.805389,328.732788 393.099792,345.260437   C392.588470,357.237061 393.000000,369.253113 392.999939,381.721130  z" />
</svg>