<?xml version="1.0" encoding="UTF-8"?>
<svg id="Layer_1" data-name="Layer 1" xmlns="http://www.w3.org/2000/svg" viewBox="0 0 135.6 135.6">
  <path d="M39.9,0l.85.5,9.65,8.45c2.8.35,5.64.52,8.43.97.88.14,2.9.28,3.15,1.35.42,1.83-2.35,3.64-3.38,4.88,1.99,1.56,2.33,4.2,2.75,6.55.19,1.06.29,2.13.46,3.19.77.03,1.55.12,2.31.24.93.15,2.89.75,3.63.75.81,0,2.81-.62,3.82-.77.74-.11,1.49-.22,2.23-.22.24-2.28.53-4.89,1.27-7.08.39-1.16.98-1.82,1.82-2.67-.94-1.09-3.45-2.95-3.4-4.5.05-1.46,2.07-1.56,3.17-1.74,2.79-.46,5.63-.59,8.43-.97,3.2-2.57,6.14-5.49,9.3-8.1.38-.31.77-.61,1.2-.85h.4c.75.46.66,1.08.58,1.84-.18,1.89-1.2,6.29-2.38,7.72l-6,5.88,5.64,5.66c1.78-1.69,3.44-3.81,5.3-5.4,1.58-1.35,5.36-2.23,7.45-2.65.7-.14,1.92-.51,2.51,0,.68.58.1,1.21-.31,1.7-2.65,3.17-6.01,6.29-8.85,9.35-.49.53-.98,1.08-1.44,1.64l11.34,11.36,11.72-10.88c1.72-.18,1.19,1.61.98,2.68-.45,2.27-1.16,4.78-2.13,6.87l-5.92,5.98,5.66,5.64c.13.02.53-.42.64-.54,1.61-1.7,3.16-3.53,4.84-5.16,1.46-1.41,6.58-2.71,8.62-2.79.61-.02,1.08.22,1.33.79v.2l-.5.85-8.44,9.66c-.39,2.75-.53,5.57-.97,8.33-.18,1.11-.26,3.26-1.75,3.36s-3.44-2.59-4.57-3.39c-.85.9-1.5,1.43-2.69,1.82-2.2.71-4.68,1.02-6.98,1.27-.05.71-.11,1.43-.21,2.14-.16,1.04-.79,3.06-.79,3.91,0,.56.45,1.94.57,2.63.18,1.08.35,2.16.45,3.25l.15.15c2.27.25,4.85.56,7.01,1.29,1.07.36,1.77,1.06,2.57,1.82,1.18-.98,2.93-3.57,4.6-3.4,1.38.14,1.46,2.2,1.63,3.27.44,2.76.57,5.58.98,8.32,2.51,3.23,5.62,6.16,8.14,9.36.32.41.6.76.8,1.25v.2c-.46.67-.76.74-1.55.7-1.76-.1-6.61-1.27-7.95-2.35l-5.86-6.04-5.73,5.64,5.5,5.4c1.19,1.42,2.36,6.02,2.67,7.93.16.99.33,2.29-1.08,2.18l-11.73-10.85-11.36,11.34,10.55,11.25c.72.66.27,1.59-.63,1.68-1.07.1-5.01-1.04-6.22-1.43-.96-.3-1.97-.58-2.75-1.25l-5.6-5.6-5.64,5.66c-.02.13.33.44.44.54,1.62,1.54,3.33,3.01,4.91,4.59,1.84,1.85,2.75,5.78,3.03,8.37.15,1.37-.26,2.46-1.73,1.43l-9.75-8.55c-2.91-.29-5.85-.47-8.73-.97-.99-.17-2.8-.31-2.87-1.64-.09-1.67,2.55-3.34,3.4-4.58-.67-.7-1.37-1.35-1.72-2.29-.83-2.21-1.09-5.04-1.37-7.38-.64-.08-1.3-.12-1.94-.21-1.12-.17-3.16-.79-4.11-.79-.64,0-1.99.45-2.73.58-1.07.18-2.17.26-3.23.49-.23,1.86-.49,3.72-.94,5.54-.42,1.69-.79,2.94-2.25,4.05,1.03,1.2,3.82,3.17,3.35,4.95-.29,1.11-2.45,1.23-3.42,1.38-2.66.42-5.35.6-8.03.87l-9.95,8.65c-1.71.96-1.69-.58-1.53-1.83.24-1.85,1.13-5.92,2.28-7.32l6.06-5.95-5.69-5.59-5.31,5.4c-1.35,1.14-3.53,1.63-5.23,2.07-1.02.26-2.79.81-3.79.82-.78.01-1.51-.61-1.08-1.38l10.74-11.56-11.27-11.34c-.08-.01-.53.35-.64.44-3.69,3.13-7.08,6.96-10.75,10.15-.71.59-1.47.25-1.55-.64-.13-1.39,1-5.17,1.48-6.63.74-2.25,1.22-2.45,2.78-4.02,1.31-1.32,2.64-2.63,3.94-3.97l-5.64-5.73-5.55,5.85c-1.43,1.34-6.19,2.48-8.17,2.63-.7.05-1.22.04-1.64-.59v-.5c.28-.52.67-.96,1.05-1.4,2.59-3.04,5.29-5.98,7.9-9,.54-3.2.35-7.34,1.3-10.4,1.04-3.35,4.78,1.08,5.9,2.2.87-.99,1.61-1.53,2.87-1.92,2.12-.66,4.56-1,6.77-1.18.16-.83.19-1.69.33-2.52.16-.99.71-2.75.69-3.62-.02-.73-.44-2.03-.58-2.83-.18-1.03-.28-2.07-.45-3.1-1.27-.15-2.54-.31-3.8-.55-2.17-.41-4.35-.79-5.85-2.56-1.25.87-2.35,2.73-3.84,3.24-1.98.68-2.15-1.44-2.38-2.81-.48-2.85-.66-5.76-.97-8.63L0,40.1v-.6c.38-.33.69-.6,1.23-.59.92.01,2.6.44,3.55.66,1.52.36,3.57.83,4.77,1.83l5.85,5.96,5.59-5.69-5.49-5.41c-1.12-1.34-2.24-5.73-2.55-7.55-.19-1.1-.52-2.99,1.25-2.35l11.45,10.74,11.34-11.36-10.59-11.39c-.62-.62-.11-1.46.65-1.55,1.07-.13,3.83.71,4.97,1.03,1.33.37,3.01.74,4.08,1.62l5.56,5.54,5.73-5.64-6-5.7c-1.19-1.42-2.42-6.33-2.5-8.2-.03-.72.11-1.04.7-1.45h.3ZM57,36.8c0-1.01.09-2.04.2-3.05.21-1.97.43-4.24.83-6.17.15-.73.21-1.35.87-1.83l-5.33-4.54-5.96,6.03c1.3,1.44,2.63,2.84,3.94,4.26,1.64,1.77,3.22,3.67,5.15,5.15.1.08.13.19.3.15ZM78.6,36.8c1.24-1.1,2.55-2.15,3.7-3.35.71-.74,1.35-1.59,2.05-2.35,1.18-1.28,2.45-2.52,3.54-3.87l-5.95-6.02-5.33,4.54c.76.55.8,1.28.97,2.13.55,2.91.71,5.97,1.03,8.92ZM47.88,47.98c.05-.05.25-.66.38-.87.67-1.07,2.11-2.31,2.94-3.36.1-.12.29-.35.3-.5-.26-.64-.59-1.26-.95-1.84-1.03-1.67-1.94-2.73-3.57-3.83-2.94-1.99-6.15-3.11-9.17-.53-4.95,4.23-.87,10.79,3.51,13.49.27.17,1.86,1.07,2.03,1.04l3.61-3.18c.17-.23.8-.32.93-.42ZM87.62,47.98c.05.06.65.11.78.27l3.85,3.32c.72-.36,1.46-.7,2.14-1.13,4.13-2.59,8.06-8.87,3.71-13.09s-10.49-.16-13.04,3.96c-.17.27-1.07,1.86-1.04,2.03l3.08,3.52c.31.15.46,1.07.52,1.13ZM67.75,44.7l-1.14,1.23c.2.18,1.06,1.19,1.23,1.16l1.16-1.14-1.25-1.25ZM36.8,57l-3.25-3.6-6.4-5.8-6.03,6.05,4.63,5.35c.36-.62.98-.72,1.63-.87,3.01-.67,6.36-.72,9.42-1.13ZM98.8,57c2.91.37,5.95.47,8.82,1.03.85.16,1.55.25,2.22.86l4.56-5.23-6.04-6.06c-1.47,1.4-2.96,2.77-4.45,4.15-1.67,1.55-3.55,3.12-4.95,4.95-.08.1-.19.13-.15.3ZM51.5,48.4c-.96,0-1.96.51-2.9.2.2.94-.09,1.97-.3,2.9,1.43-.52,2.52-1.76,3.2-3.1ZM87,48.6c-.97.31-1.93-.16-2.9-.2-.16.14,1.06,1.69,1.23,1.86.26.26,1.41,1.14,1.72,1.23.15.05.16,0,.14-.14-.11-.89-.55-1.91-.2-2.76ZM60.7,60.8c.07-1.83.61-3.76,1.13-5.52.35-1.21.67-2.46,1.35-3.53l-1.24-1.14-11.34,11.34,1.15,1.25c1.26-.7,2.74-1.09,4.13-1.48,1.55-.42,3.22-.91,4.82-.93ZM74.8,60.8c1.4-.04,2.78.39,4.12.73,1.65.42,3.34.86,4.85,1.66l1.23-1.23-11.43-11.34-1.15,1.23c.87,1.54,1.33,3.42,1.76,5.15.31,1.25.7,2.52.63,3.82ZM74.09,61.51s-.72-.07-.84-.31l-2.31-2.19c-.17-.03-.65.6-.84.74-1.06.75-2.92.81-4.09.3-.53-.23-.96-.64-1.35-1.05-.2,0-2.2,2.29-2.82,2.48-.14.04-.29.02-.43.02.15.27-.01.55-.15.79l-2.34,2.45c1.59,1.13,1.84,3.72.8,5.3-.22.34-.51.54-.69.88l2.29,2.51c.18.12.18.72.21.74.05.04.56-.03.69.16l2.46,2.25c.79-.75,1.46-1.23,2.59-1.31,1.02-.07,1.94.03,2.81.6.34.22.54.52.88.7l2.57-2.34.6-.05c-.07-.41.05-.58.26-.89.32-.46,2.15-2.1,2.24-2.36v-.15c-1.24-.74-1.41-2.31-1.3-3.66.08-1,.56-1.75,1.3-2.4l-2.34-2.55c-.19-.12-.12-.65-.16-.69ZM45.86,66.61l-1.16,1.23,1.23,1.16,1.16-1.14-1.23-1.24ZM89.65,66.6l-1.15,1.25,1.15,1.15,1.25-1.15-1.25-1.25ZM60.7,74.8c-.38.18-.9.04-1.32-.03-1.17-.19-2.55-.58-3.7-.9-1.33-.37-2.76-.71-3.93-1.45l-1.14,1.31,11.34,11.36,1.23-1.25c-.66-.93-.94-2.05-1.25-3.13-.56-1.89-1.12-3.97-1.23-5.92ZM74.8,74.8c.04,1.55-.43,3.13-.83,4.62s-.8,3.07-1.56,4.45l1.23,1.23,11.34-11.36-1.24-1.32c-1.37.83-3.08,1.25-4.63,1.65-1.08.28-2.61.74-3.69.82-.24.02-.41.04-.63-.09ZM36.8,78.6c-1.58-.08-3.17-.23-4.74-.41-1.42-.17-2.99-.34-4.38-.62-.74-.15-1.45-.21-1.93-.87l-4.65,5.25,6.13,6.04c1.49-1.38,2.97-2.76,4.46-4.14,1.66-1.54,3.51-3.09,4.9-4.9.04-.06.22-.33.2-.35ZM98.7,78.6l3.35,3.7,6.32,5.68,6.02-5.95-4.54-5.34h-.15c-.38.76-1.59.83-2.38.97-2.81.5-5.78.7-8.62.93ZM47.88,87.62s-.36-.04-.52-.13c-.24-.13-.49-.33-.71-.49-.5-.39-3.1-2.89-3.4-2.9-.83.36-1.65.8-2.41,1.3-4.59,3.02-8.12,10.17-2.14,13.84,4.32,2.65,9.81-1.49,11.97-5.21.13-.23.82-1.54.82-1.68l-3.14-3.66c-.26-.13-.43-1.04-.48-1.07ZM51.5,87.3c-.63-1.39-1.81-2.57-3.2-3.2.14.94.55,1.96.3,2.9.95-.2,1.95.18,2.9.3ZM87,87c-.39-.93.2-1.94.15-2.9-1.39.72-2.45,1.8-3.15,3.2.99-.12,2.02-.52,3-.3ZM87.61,87.61l-.26.89-3.31,3.85c-.02.22.75,1.56.92,1.84,2.7,4.42,9.32,8.65,13.59,3.61,3.76-4.43-.5-10.5-4.62-12.88-.53-.31-1.12-.56-1.68-.82-.24,0-3.14,2.76-3.66,3.14-.32.23-.56.41-.98.37ZM67.75,88.5l-1.14,1.23c.2.18,1.06,1.19,1.23,1.16l1.16-1.14-1.25-1.25ZM78.6,98.8c-.31,2.94-.47,6.01-1.03,8.92-.16.85-.25,1.55-.86,2.22l5.23,4.55,5.95-6.12c-1.33-1.47-2.69-2.91-4.04-4.37-.62-.67-1.21-1.51-1.85-2.15-1.04-1.06-2.36-1.97-3.4-3.05ZM57,98.9c-.06-.07-.71.47-.8.55-1.93,1.66-3.35,3.3-5.05,5.15-1.18,1.28-2.44,2.51-3.53,3.85l6.03,6.04,5.25-4.5v-.15c-.74-.56-.81-1.48-.97-2.33-.33-1.8-.53-3.84-.73-5.67-.1-.98-.19-1.97-.2-2.95Z"/>
  <path d="M18.88,123.33c3.33-.48,5.61,3.31,3.52,5.92-2.46,3.08-7.53.65-6.45-3.25.34-1.21,1.67-2.49,2.93-2.67Z"/>
  <path d="M126.88,112.43c4.6-.1,4.92,6.96.47,7.37-5.06.47-5.63-7.26-.47-7.37Z"/>
  <path d="M8.48,112.42c4.84-.15,5.09,6.94.47,7.38-4.93.46-5.33-7.23-.47-7.38Z"/>
  <path d="M115.38,123.33c5-.69,5.89,6.63,1.35,7.25-5.33.72-5.61-6.66-1.35-7.25Z"/>
  <path d="M126.88,15.82c4.98-.13,4.82,7.97-.42,7.37-4.6-.53-4.07-7.25.42-7.37Z"/>
  <path d="M115.58,5.03c4.57-.5,5.64,5.8,1.65,7.14-5.13,1.73-6.84-6.58-1.65-7.14Z"/>
  <path d="M19.08,5.03c4.53-.49,5.63,5.95,1.5,7.2-4.94,1.5-6.87-6.62-1.5-7.2Z"/>
  <path d="M8.38,15.82c4.77-.23,5.38,7.01.57,7.37s-5.24-7.15-.57-7.37Z"/>
</svg>