<svg xmlns="http://www.w3.org/2000/svg" version="1.1" id="Layer_1" x="0px" y="0px" width="100%" viewBox="0 0 1305 1305" enable-background="new 0 0 1305 1305" xml:space="preserve">
<path fill="#FFFFFF" opacity="1.000000" stroke="none" d=" M709.000000,0.999999   C711.700012,1.000000 714.400024,1.000000 717.640625,1.345511   C722.980774,4.531397 726.058533,8.942966 725.831726,14.286947   C725.438354,23.551321 724.616028,32.889763 722.865295,41.983772   C719.824219,57.780685 716.130493,73.461670 712.326172,89.097771   C710.442993,96.837959 710.489685,97.846664 715.763916,102.316612   C725.760315,110.788536 735.640442,119.398682 745.507202,128.021881   C750.331665,132.238297 754.862915,136.259567 762.268738,135.193329   C767.037598,134.506760 772.089233,135.549973 776.989441,136.056351   C788.998718,137.297302 800.990234,138.709030 812.995789,139.987549   C819.987061,140.732071 827.016785,141.160049 833.984558,142.072006   C845.415161,143.568054 856.820679,145.268524 868.215942,147.018555   C880.701111,148.935959 893.227356,150.676849 905.616211,153.104248   C918.053772,155.541199 926.758789,165.797241 924.712769,176.708054   C923.394287,183.738739 919.310669,190.250092 916.475464,196.998016   C916.076782,197.946930 915.193726,199.093491 915.442200,199.850937   C917.877197,207.273178 914.614746,212.749725 909.717896,217.801804   C901.064331,226.729675 892.445435,235.691360 883.861389,244.685898   C882.787720,245.810913 882.012634,247.220795 881.121033,248.468185   C896.138489,264.248535 898.256592,268.027496 900.831238,277.761627   C905.642883,295.952789 910.244263,314.241364 913.820740,332.704895   C916.996704,349.100830 918.760559,365.776428 920.907715,382.359650   C921.272461,385.175873 922.231384,385.849731 924.879517,386.074646   C934.474365,386.889679 944.150085,387.421204 953.599915,389.136322   C973.437439,392.736694 993.234131,396.657898 1012.882874,401.165344   C1023.739258,403.655823 1034.911133,406.031342 1044.082397,413.059723   C1048.992920,416.822723 1053.517822,421.088623 1058.227295,425.136658   C1060.878418,422.881165 1063.472412,420.867462 1065.845337,418.620361   C1073.905151,410.988037 1081.668945,403.026947 1089.976562,395.678345   C1095.351807,390.923615 1100.617310,387.421204 1107.279297,391.692444   C1109.981689,389.869720 1112.524414,387.809906 1115.359985,386.299683   C1130.481323,378.245880 1148.965942,379.421692 1153.056396,401.430908   C1155.213379,413.036743 1157.232056,424.672333 1159.060669,436.334076   C1160.872437,447.887939 1162.551636,459.469391 1163.945190,471.080048   C1165.211304,481.629913 1166.006470,492.236115 1167.025391,502.815918   C1168.341797,516.484497 1169.578369,530.161865 1171.062378,543.812317   C1171.471802,547.578979 1171.514648,552.163391 1173.650757,554.831299   C1183.464355,567.088440 1194.003418,578.762634 1204.185669,590.728149   C1207.457886,594.573486 1210.710693,597.051025 1216.034058,594.125305   C1218.350830,592.851868 1221.243774,592.536987 1223.920532,592.022583   C1243.263550,588.304993 1262.664551,584.871643 1281.950317,580.880493   C1292.186035,578.762146 1300.363892,580.671326 1306.000000,590.000000   C1306.000000,592.370544 1306.000000,594.741150 1305.652954,597.639038   C1290.005127,616.709656 1274.704224,635.253052 1259.640747,653.508789   C1274.377808,672.892578 1293.121948,689.013000 1306.000000,710.000000   C1306.000000,712.370544 1306.000000,714.741150 1305.666748,717.627502   C1300.559204,724.502563 1294.144287,726.991638 1286.365723,725.982727   C1276.056030,724.645630 1265.644165,723.753784 1255.489380,721.644592   C1240.714111,718.575562 1226.139526,714.546021 1211.442505,711.082886   C1210.247314,710.801270 1208.266357,711.282227 1207.496704,712.155090   C1196.664307,724.438965 1185.952271,736.829529 1175.291626,749.263428   C1173.959961,750.816467 1172.334351,752.681274 1172.126709,754.544495   C1170.570068,768.511719 1169.328491,782.514099 1168.002563,796.506897   C1166.984253,807.253479 1166.235107,818.032593 1164.918579,828.742188   C1163.174561,842.929810 1161.105957,857.080811 1158.967041,871.215820   C1157.127197,883.374146 1155.792603,895.692261 1152.759033,907.562622   C1149.877319,918.838501 1142.042114,926.648071 1129.315186,924.720215   C1122.912476,923.750305 1116.981323,919.787231 1110.773438,917.338867   C1108.919556,916.607727 1106.849243,916.427917 1104.880493,915.984924   C1100.845947,915.077087 1096.350464,914.982178 1092.899414,913.036621   C1088.844604,910.750793 1085.637329,906.918884 1082.167969,903.645630   C1074.236938,896.162720 1066.370117,888.611694 1058.362549,880.979187   C1047.712036,892.815674 1034.558594,900.243652 1019.201111,903.984314   C986.947083,911.840515 954.425171,918.159119 921.164062,921.103455   C919.749695,933.153076 918.918152,945.040771 916.853638,956.710327   C913.679932,974.649780 909.699707,992.447876 905.987244,1010.290405   C902.168945,1028.641602 896.057068,1045.835449 880.866394,1058.210083   C891.480774,1069.557739 901.804626,1080.698486 912.258240,1091.715942   C916.040710,1095.702393 916.339478,1100.380859 915.906616,1105.410034   C915.784363,1106.830566 915.767029,1108.485474 916.369629,1109.701904   C918.355957,1113.711548 920.935608,1117.439941 922.771973,1121.509033   C929.616455,1136.675293 920.538940,1150.495850 906.640320,1152.978271   C894.694946,1155.111816 882.730469,1157.152588 870.741272,1159.021729   C859.187927,1160.822998 847.615173,1162.542603 836.008179,1163.943481   C825.460144,1165.216675 814.853088,1165.997314 804.274780,1167.023804   C790.773071,1168.334106 777.259827,1169.546753 763.782227,1171.072021   C759.365845,1171.571899 754.672058,1172.164551 750.788086,1174.091309   C747.096802,1175.922607 744.299133,1179.554077 741.105957,1182.390991   C732.143860,1190.353149 723.485718,1198.703613 714.066284,1206.081909   C710.338440,1209.002075 710.752502,1210.989990 711.798767,1214.717285   C714.534302,1224.461670 716.863586,1234.335449 718.945984,1244.243652   C721.503845,1256.413940 723.570129,1268.686890 725.991211,1280.887085   C728.312012,1292.582275 724.800720,1301.611572 716.000000,1306.000000   C714.611084,1306.000000 713.222229,1306.000000 711.304871,1305.635254   C708.443848,1304.287842 705.701965,1303.796143 703.842529,1302.245972   C686.909180,1288.129761 670.129578,1273.828857 652.984802,1259.310913   C641.083374,1269.649902 628.933228,1280.510132 616.426819,1290.943604   C609.943298,1296.352417 602.829224,1301.005493 596.000000,1306.000000   C593.629456,1306.000000 591.258850,1306.000000 588.442505,1305.631104   C581.357971,1300.144165 579.158875,1293.209961 580.045410,1285.170532   C580.452393,1281.479736 581.283203,1277.831299 582.006104,1274.180542   C585.201721,1258.042969 588.397034,1241.905151 591.655457,1225.780273   C593.409851,1217.098145 599.203796,1208.710693 587.353333,1201.289673   C577.335205,1195.016235 569.372192,1185.524536 560.167664,1177.855713   C556.614441,1174.895508 553.450317,1170.812134 547.515320,1171.707153   C543.725769,1172.278809 539.687866,1171.404053 535.783264,1170.976929   C521.029663,1169.362671 506.290527,1167.615845 491.535492,1166.015503   C478.549408,1164.607056 465.500122,1163.684570 452.567627,1161.902588   C435.880890,1159.603149 419.259827,1156.794189 402.656158,1153.939087   C394.678802,1152.567261 388.031494,1148.710327 383.914520,1141.403442   C378.504761,1131.802246 382.563934,1123.192505 386.866608,1114.624268   C388.283600,1111.802612 391.347473,1108.398682 390.663239,1106.187988   C388.357178,1098.737549 392.099609,1093.884766 396.375000,1089.218994   C405.821716,1078.909912 415.554108,1068.862427 425.307770,1058.562622   C422.540588,1055.522705 419.842194,1053.052246 417.746063,1050.147461   C413.980774,1044.929321 409.033020,1039.901489 407.308105,1033.996948   C401.861786,1015.353027 396.933838,996.484863 393.227783,977.426880   C389.852356,960.069275 388.343414,942.349182 385.984680,924.792542   C385.689880,922.598267 385.034760,921.173035 382.149017,920.891907   C371.134491,919.818970 360.067657,918.836121 349.194336,916.861450   C331.431549,913.635803 313.732788,909.971008 296.146545,905.890137   C284.643585,903.220886 272.765533,901.056946 262.877533,893.921997   C257.651611,890.151245 252.894058,885.731323 248.063248,881.719299   C246.321671,882.915344 244.984787,883.594360 243.945129,884.585266   C235.308685,892.816711 226.889587,901.285461 218.041183,909.280151   C214.925156,912.095459 210.898819,915.398743 207.110855,915.634827   C200.970444,916.017517 195.306168,916.419617 190.258942,920.241333   C189.128174,921.097534 187.663055,921.503479 186.375488,922.162903   C169.993362,930.552307 155.207916,919.941956 152.959381,904.759338   C151.751572,896.603943 150.015167,888.527710 148.760330,880.378296   C146.734711,867.223328 144.732269,854.059875 143.057312,840.857239   C141.762146,830.648315 141.000534,820.372253 139.970642,810.129089   C138.663544,797.129211 137.263321,784.138245 136.029541,771.131470   C135.517380,765.732056 135.375656,760.298157 134.953903,754.888672   C134.885086,754.005859 134.416733,753.010071 133.826279,752.334717   C128.642334,746.405518 123.381332,740.543762 118.157990,734.648865   C112.823013,728.628052 107.241890,722.800537 102.254105,716.503784   C97.398430,710.373840 97.342712,710.042419 90.266884,712.327026   C89.654251,712.524902 89.074654,712.857910 88.450615,712.982971   C68.367615,717.007263 48.259750,720.911072 28.203922,725.066040   C18.125778,727.153931 8.748179,726.953430 1.000000,719.000000   C1.000000,714.975464 1.000000,710.950928 1.369633,706.461670   C3.395570,703.927734 4.973337,701.789368 6.721117,699.800476   C16.787762,688.345215 26.931122,676.957275 36.968414,665.476440   C40.548462,661.381531 43.904594,657.090759 47.225494,653.056335   C43.605850,648.950989 40.415443,645.410461 37.311932,641.795349   C31.781054,635.352661 26.295965,628.870605 20.804111,622.394531   C14.195987,614.602112 7.600803,606.798645 1.000005,599.000000   C1.000000,595.638733 1.000000,592.277405 1.334868,588.385132   C6.746464,581.631775 13.401683,579.114075 21.232273,580.060730   C27.011900,580.759460 32.768864,581.798828 38.462555,583.026550   C56.089077,586.827454 73.686760,590.763184 91.280281,594.714966   C94.852554,595.517334 98.066803,596.987366 100.508926,592.206787   C102.171326,588.952576 105.349808,586.471619 107.855568,583.649597   C115.926819,574.559753 124.048248,565.513611 132.025742,556.342285   C133.338562,554.832947 134.702118,552.845032 134.888931,550.963806   C136.103622,538.732239 136.956055,526.465271 138.012833,514.217224   C138.955185,503.295563 139.761780,492.353699 141.072845,481.474335   C142.823074,466.950623 144.894867,452.462769 147.031021,437.989410   C148.875381,425.493134 150.562729,412.946838 153.139282,400.593658   C155.344788,390.019409 162.659592,380.998108 175.960892,381.797974   C183.749329,382.266327 189.657288,386.023071 196.004684,389.458069   C197.409225,390.218201 199.354874,390.893433 200.778214,390.532013   C205.022339,389.454376 208.838470,389.793091 212.176666,392.679199   C217.883957,397.613556 223.567368,402.579895 229.134140,407.671265   C235.449127,413.446960 241.624908,419.374847 248.031464,425.396606   C257.655670,415.793945 267.837250,407.549042 281.089813,404.464661   C298.184418,400.486115 315.252808,396.281219 332.508514,393.141235   C349.115601,390.119263 365.960022,388.414124 382.654419,385.834717   C383.953491,385.634003 385.669678,383.203796 385.872131,381.639069   C387.128754,371.925293 387.403015,362.053436 389.139099,352.439148   C392.722168,332.596405 396.629547,312.792389 401.180176,293.152374   C403.550476,282.922577 405.817200,272.357056 412.181183,263.577484   C416.175171,258.067505 420.778839,252.999420 425.215393,247.603638   C421.641815,244.064850 418.138702,240.736923 414.800995,237.250626   C411.501129,233.803848 408.382874,230.183823 405.158447,226.664062   C401.148010,222.286285 397.049500,217.987549 393.104736,213.551819   C390.208130,210.294678 389.018463,206.146164 390.203033,202.157150   C391.097412,199.145416 390.208344,197.453796 388.765747,195.158966   C384.716827,188.718140 381.106781,181.763336 381.197937,174.099274   C381.321838,163.685760 390.123077,154.643494 400.640747,153.031693   C420.847015,149.935165 441.055908,146.839981 461.305542,144.047638   C477.603424,141.800232 493.938019,139.756927 510.302887,138.077087   C523.683899,136.703522 537.136108,136.030075 550.548767,134.947662   C551.729126,134.852417 553.053955,134.267700 553.966797,133.500137   C560.977783,127.604973 567.908203,121.613800 574.854187,115.641518   C581.310669,110.090118 587.827454,104.604370 594.125549,98.878403   C595.039551,98.047508 595.432495,95.912872 595.133301,94.593124   C592.538757,83.149025 589.420959,71.816635 587.072754,60.325565   C584.675964,48.596840 583.369934,36.640610 580.844177,24.944252   C578.702637,15.027010 580.681335,7.077963 589.000000,1.000000   C591.370544,1.000000 593.741150,1.000000 596.660400,1.358267   C598.964600,2.474458 600.957520,2.921115 602.433044,4.046277   C607.737915,8.091570 613.001038,12.212845 618.037598,16.584595   C629.673828,26.684824 641.168213,36.948414 653.102539,47.483326   C665.922791,36.312954 678.509521,25.127886 691.357971,14.252015   C696.962219,9.508126 703.102905,5.397972 709.000000,0.999999  M718.453613,573.971619   C715.857300,572.038147 713.228638,570.146362 710.669983,568.164307   C694.690613,555.786194 677.501953,545.396362 658.867676,537.590698   C655.824036,536.315735 651.372986,536.272766 648.319519,537.507629   C632.928406,543.731873 618.337769,551.550903 604.973999,561.517700   C593.304626,570.220703 581.137268,578.118408 572.126648,590.132324   C558.816284,607.878967 546.815125,626.285889 537.798401,646.593567   C535.855103,650.970215 535.025574,654.817871 537.681396,659.487488   C542.907776,668.676697 546.731140,678.713623 552.404236,687.588501   C563.676758,705.223267 574.717163,723.025452 592.142395,735.883728   C609.079529,748.381836 626.620789,759.654236 645.812500,768.283203   C649.357239,769.877136 652.924500,772.215332 657.198303,770.001160   C660.473633,768.304138 663.916687,766.934265 667.230652,765.307800   C683.186462,757.476929 698.218750,748.151428 712.245300,737.230774   C717.380859,733.232361 722.870117,729.540527 727.353699,724.894165   C731.813171,720.272766 735.054260,714.501282 739.105835,709.455872   C751.291809,694.280457 760.531189,677.379944 768.669617,659.804749   C770.637634,655.554749 771.164612,651.607910 768.727661,647.151489   C764.497253,639.415283 761.306519,631.083496 756.779358,623.542053   C746.099304,605.751282 734.939087,588.240234 718.453613,573.971619  M489.000061,859.499939   C453.842560,824.341858 418.685059,789.183838 383.465820,753.964050   C363.525970,772.656433 343.841217,791.109680 324.169983,809.550232   C329.594788,815.357910 335.036224,820.910645 340.169342,826.735168   C351.216034,839.269775 362.205719,851.857910 373.018890,864.593872   C379.544128,872.279358 385.384979,880.560791 392.110199,888.057007   C397.531219,894.099487 400.733887,901.584351 407.804932,906.739929   C424.096069,918.618103 439.565247,931.656555 455.016083,944.642883   C465.712250,953.632996 475.799805,963.345642 486.204742,972.684814   C489.820862,975.930481 493.573303,979.024353 497.053192,982.007263   C515.670715,962.186401 534.047058,942.622314 552.514709,922.960938   C531.212952,901.677368 510.356476,880.838684 489.000061,859.499939  M807.000122,436.499908   C845.608887,475.109375 884.217651,513.718872 923.002563,552.504517   C942.931519,533.770142 962.489319,515.384766 982.680847,496.403656   C979.631775,493.617340 976.432739,491.172272 973.811035,488.215363   C962.393372,475.337402 950.975525,462.452332 939.883057,449.295471   C930.022278,437.599518 920.556885,425.568817 910.987793,413.629089   C907.963684,409.855804 905.795776,405.134247 902.163208,402.154510   C883.180176,386.583282 863.636719,371.692932 844.724243,356.039001   C833.322571,346.601837 822.767822,336.145264 811.647949,326.356415   C810.794312,325.604950 807.796204,325.871887 806.939148,326.764313   C799.523376,334.486633 792.432007,342.518829 785.123535,350.346313   C774.787903,361.415985 764.349792,372.389893 753.927979,383.433807   C771.619812,401.123688 789.059937,418.561829 807.000122,436.499908  M406.308838,400.972382   C404.283752,403.069611 402.074310,405.019958 400.265900,407.289795   C392.977142,416.438110 385.990295,425.831757 378.556610,434.858582   C369.199860,446.220673 359.606293,457.391998 349.944305,468.497192   C341.660217,478.018707 333.136017,487.331299 324.395508,497.096588   C344.148743,515.671936 363.601074,533.964355 382.472198,551.710266   C439.063782,495.119080 495.350677,438.832520 551.656860,382.526703   C533.682678,363.423126 515.395020,343.986389 497.943085,325.437927   C467.184967,350.833038 437.065704,375.700684 406.308838,400.972382  M839.000061,838.500061   C810.674988,866.824646 782.349976,895.149170 754.149414,923.349243   C772.719299,943.107239 791.032776,962.592468 809.341675,982.072876   C814.025269,977.770386 818.317871,973.663757 822.783875,969.755249   C835.358643,958.750244 847.891724,947.692810 860.659668,936.914795   C870.355835,928.729797 880.627319,921.216309 890.173279,912.867188   C895.414246,908.283386 901.812622,905.465820 906.289856,899.536377   C919.325378,882.272583 932.914734,865.403076 946.828491,848.833801   C958.122314,835.384583 970.198975,822.592712 982.175049,809.234131   C978.391052,805.939697 974.548035,802.825806 970.966980,799.435181   C956.418945,785.660828 941.800720,771.953735 927.561707,757.864746   C924.071289,754.411072 922.422607,754.930664 919.320374,758.058960   C892.805237,784.796936 866.128479,811.374512 839.000061,838.500061  M193.499420,638.000488   C188.687881,643.167053 183.876328,648.333557 179.268814,653.281006   C185.093735,659.612976 190.714584,665.905518 196.534256,672.008362   C206.147491,682.089417 215.996216,691.947754 225.512375,702.118347   C228.434052,705.240845 230.193771,705.532532 233.371689,702.277039   C247.801361,687.495178 262.486908,672.962402 277.150574,658.410706   C278.888672,656.685974 281.057739,655.395630 282.823486,654.058044   C264.255859,635.489136 246.721939,617.953979 229.171249,600.402039   C217.658478,612.545471 205.829178,625.022827 193.499420,638.000488  M609.499939,239.000061   C623.940613,253.442825 638.381287,267.885590 652.662354,282.168793   C670.553467,264.279053 688.080811,246.753067 705.747192,229.088058   C688.473450,212.656448 670.901245,195.940887 653.248474,179.148727   C635.491333,195.949768 617.772156,212.714890 599.994019,229.535782   C603.100281,232.627670 606.050110,235.563904 609.499939,239.000061  M660.031860,1120.450195   C662.747009,1118.074585 665.557129,1115.797974 668.156067,1113.301392   C672.599121,1109.033447 676.805969,1104.516846 681.298767,1100.303711   C689.560730,1092.556030 697.958435,1084.953003 706.089355,1077.482788   C688.223450,1059.620361 670.693726,1042.093994 653.789612,1025.193237   C636.604858,1042.379395 619.003357,1059.982422 601.093811,1077.893555   C618.105286,1094.058594 635.483215,1110.571899 653.727539,1127.908569   C655.722778,1125.528442 657.630737,1123.252441 660.031860,1120.450195  M1064.500122,613.000061   C1050.982056,626.463745 1037.464111,639.927368 1024.538208,652.801331   C1042.354736,670.622498 1059.870972,688.143372 1077.505127,705.782227   C1093.877319,688.476685 1110.533936,670.870361 1127.283203,653.166138   C1110.465088,635.487671 1093.861450,618.034729 1076.880371,600.185059   C1072.609619,604.612122 1068.804810,608.556091 1064.500122,613.000061  z" />
<path fill="#FFFFFF" opacity="1.000000" stroke="none" d=" M1123.202148,999.482849   C1131.418335,977.498169 1146.337646,964.687683 1169.510742,960.846069   C1198.141113,956.099731 1224.571777,976.214844 1229.968140,1002.532959   C1235.954102,1031.727905 1221.206665,1059.648926 1192.412354,1067.998657   C1175.279663,1072.966797 1159.124146,1070.030029 1144.567749,1059.141235   C1133.214233,1050.648193 1125.648071,1039.753174 1122.471436,1025.955811   C1120.469727,1017.260803 1121.316162,1008.532410 1123.202148,999.482849  z" />
<path fill="#FFFFFF" opacity="1.000000" stroke="none" d=" M1046.193970,1131.695801   C1057.354736,1140.043701 1065.020752,1150.373047 1068.253052,1163.702148   C1072.714478,1182.100342 1069.570679,1198.631958 1056.579834,1213.026245   C1048.115356,1222.405273 1037.901733,1228.912598 1025.553589,1230.580200   C1008.622620,1232.866455 992.426086,1230.498413 978.941833,1218.476929   C965.879944,1206.832275 959.185730,1192.306030 960.092834,1174.841797   C961.136414,1154.749634 970.205322,1138.913086 987.788940,1128.780518   C1007.561340,1117.386597 1027.059082,1119.485474 1046.193970,1131.695801  z" />
<path fill="#FFFFFF" opacity="1.000000" stroke="none" d=" M994.742981,78.690674   C1009.965637,73.073982 1024.919434,73.586189 1039.070068,80.184593   C1054.670166,87.458931 1065.054565,99.979156 1068.864014,116.914215   C1071.873779,130.294189 1070.274902,143.448715 1063.080688,155.491425   C1054.007446,170.679276 1041.486328,180.680725 1023.526855,184.153687   C994.078247,189.848404 966.546814,168.471024 961.125366,140.964645   C957.722412,123.699852 961.110107,107.853897 973.141846,94.222801   C979.140076,87.427238 985.799805,81.908485 994.742981,78.690674  z" />
<path fill="#FFFFFF" opacity="1.000000" stroke="none" d=" M1175.237305,236.001175   C1201.626831,235.794022 1222.992554,251.545578 1229.294800,276.102081   C1234.295898,295.588470 1230.831665,313.667450 1216.319458,329.532776   C1197.328125,350.295074 1163.413452,351.527466 1142.053833,334.325714   C1130.641846,325.135193 1123.239502,313.251740 1121.848511,297.873871   C1120.426514,282.151367 1124.465942,268.618866 1134.719482,256.760712   C1144.485107,245.466980 1156.236328,237.958694 1171.532471,236.955872   C1172.629883,236.883926 1173.695801,236.331314 1175.237305,236.001175  z" />
<path fill="#FFFFFF" opacity="1.000000" stroke="none" d=" M175.774597,984.375610   C189.128769,1004.830688 188.464844,1027.884888 174.547333,1046.420898   C157.578018,1069.021484 131.977188,1076.988892 105.991249,1065.162231   C89.211845,1057.525513 78.930565,1043.641113 75.943092,1024.852173   C73.542747,1009.755798 75.795235,995.916138 84.929817,983.325378   C93.998993,970.824829 105.623001,963.051270 121.209534,960.899109   C140.956192,958.172546 157.284683,964.229492 170.881210,978.425049   C172.568069,980.186279 174.017029,982.175293 175.774597,984.375610  z" />
<path fill="#FFFFFF" opacity="1.000000" stroke="none" d=" M268.387878,1226.769287   C252.491455,1219.034180 241.811661,1207.372192 237.737732,1190.296875   C233.359726,1171.947144 237.909836,1155.790161 249.972366,1141.482178   C258.241119,1131.674316 268.379578,1124.741333 281.038361,1122.558472   C295.952576,1119.986938 310.196350,1121.885010 322.825958,1131.278809   C335.536438,1140.732788 343.785736,1153.126221 345.716949,1168.765747   C347.693756,1184.774292 344.915497,1199.922607 333.215393,1212.340942   C326.302490,1219.678223 318.766418,1226.214111 308.920715,1228.876709   C295.431519,1232.524780 281.899902,1232.319214 268.387878,1226.769287  z" />
<path fill="#FFFFFF" opacity="1.000000" stroke="none" d=" M332.775024,165.723373   C323.721497,176.138382 312.957733,183.092926 299.464294,184.716934   C285.638916,186.380890 272.505859,183.707870 261.072021,175.474823   C249.144363,166.886169 240.514679,155.681427 237.517029,140.986084   C233.869003,123.102440 237.305878,107.070183 250.107742,93.258034   C261.684631,80.767540 275.736969,74.536789 292.577515,75.068939   C315.349335,75.788506 332.227386,86.447624 341.532379,107.293091   C350.202362,126.715881 347.123169,145.477600 335.479156,162.990219   C334.847687,163.939926 333.849335,164.645721 332.775024,165.723373  z" />
<path fill="#FFFFFF" opacity="1.000000" stroke="none" d=" M185.000000,293.914978   C184.353210,308.935852 178.210999,320.627899 167.863785,330.886536   C154.633804,344.003326 138.596970,347.587067 121.160995,345.820587   C105.283485,344.211975 93.017715,335.409332 84.154877,322.378326   C70.975861,303.001221 71.534698,277.586975 85.351265,258.683472   C94.128067,246.675278 106.077263,238.746796 121.908836,236.801483   C150.232376,233.321213 174.641449,251.865738 182.444305,275.142670   C184.368530,280.882843 184.204208,287.323090 185.000000,293.914978  z" />
</svg>