<svg xmlns="http://www.w3.org/2000/svg" version="1.1" id="Layer_1" x="0px" y="0px" width="100%" viewBox="0 0 1195 1517" enable-background="new 0 0 1195 1517" xml:space="preserve">
<path fill="#FFFFFF" opacity="1.000000" stroke="none" d=" M1.000007,946.000000   C1.000000,941.643127 1.000000,937.286194 1.356170,932.362427   C3.496162,927.058411 5.866842,922.958740 10.274611,919.882812   C20.701838,912.606201 32.665821,910.649475 44.735172,910.170227   C61.698067,909.496643 78.707703,910.005554 95.697327,909.989929   C97.116028,909.988647 98.534599,909.844666 99.637009,909.784363   C100.109367,900.697021 99.968826,892.041321 101.181702,883.579590   C102.193680,876.519348 103.609253,869.052856 106.919029,862.877197   C115.333115,847.177612 124.253395,831.660156 134.181259,816.882812   C147.450653,797.131836 161.862503,778.148438 175.716904,758.928040   C165.895386,745.731506 154.965805,731.866028 144.950531,717.368958   C133.974060,701.480530 123.660988,685.122131 113.400566,668.754395   C105.851326,656.711670 100.573067,643.869141 100.890297,629.163025   C101.033920,622.504883 99.994835,615.821228 99.551704,609.937744   C77.207474,608.952087 55.056942,608.340942 32.967056,606.838318   C22.688379,606.139160 12.987046,602.696106 5.909725,594.370117   C4.175441,592.329834 2.631476,590.127686 1.000006,588.000000   C1.000000,582.645081 1.000000,577.290100 1.344054,571.387207   C3.513906,568.006042 5.191252,565.063354 7.188831,562.356934   C24.303200,539.169434 41.022324,515.670471 58.765106,492.972443   C74.742607,472.532684 91.885757,453.005249 108.434769,433.009186   C109.923637,431.210205 111.620087,429.013519 111.860695,426.850342   C112.858040,417.883881 113.342934,408.859985 113.997185,399.855865   C114.675568,390.519592 115.354897,381.183319 115.993217,371.844238   C117.013069,356.923248 117.978058,341.998505 119.006020,327.078064   C119.976830,312.987030 121.021515,298.901123 121.992325,284.810089   C123.020279,269.889587 124.008820,254.966370 124.996651,240.043152   C125.680511,229.712082 126.155815,219.363602 127.046516,209.050735   C128.140518,196.384109 140.464157,190.574783 151.072784,197.536514   C160.507980,203.728180 165.677704,213.560120 171.974335,222.361145   C188.114182,244.920425 202.081970,268.796387 214.951233,293.373535   C222.257355,307.326416 226.575211,321.745575 225.994736,337.527222   C225.691193,345.780334 225.235947,354.028870 225.020950,362.283966   C224.615112,377.866913 224.316864,393.452789 224.004517,409.038055   C223.652100,426.622345 223.530869,444.214661 222.880936,461.787659   C222.683258,467.132263 224.848145,468.076996 229.461121,468.064453   C270.291412,467.953461 311.122131,468.001831 351.952698,467.991333   C353.226135,467.990997 354.499512,467.862732 356.000000,467.781830   C356.000000,465.650513 356.000000,463.842987 356.000000,462.035431   C356.000000,421.704803 356.133850,381.373474 355.915192,341.044037   C355.852783,329.538544 358.415161,318.741577 363.760834,308.849182   C377.970886,282.552795 392.249695,256.272308 407.410309,230.520767   C414.027985,219.280106 422.504974,209.049011 430.837555,198.936172   C435.535278,193.234802 442.533447,194.189484 449.044037,195.990234   C454.401672,197.472137 456.213562,202.055969 456.857697,206.689484   C457.739441,213.032227 457.725586,219.505493 457.985748,225.927246   C458.373993,235.510254 458.684326,245.096573 458.994995,254.682541   C459.348785,265.600342 459.652832,276.519775 460.004120,287.437714   C460.317871,297.190216 460.686188,306.941040 460.994537,316.693695   C461.350250,327.944794 461.653229,339.197540 462.003967,350.448792   C462.318359,360.534576 462.687714,370.618713 462.994263,380.704742   C463.351410,392.455780 463.716949,404.206909 463.987946,415.960114   C464.378021,432.876892 464.681854,449.795593 465.052826,466.712830   C465.062225,467.140900 465.425629,467.561157 465.462494,467.639923   C554.465454,467.639923 643.201538,467.639923 731.579468,467.639923   C732.076660,462.174896 732.715088,457.109070 732.961975,452.024261   C733.427124,442.445435 733.693237,432.856476 733.993042,423.270203   C734.355225,411.686005 734.653625,400.099792 735.003845,388.515198   C735.318848,378.096130 735.674866,367.678284 735.997620,357.259460   C736.341003,346.174622 736.653076,335.088837 737.004089,324.004242   C737.318176,314.085083 737.677429,304.167328 737.996948,294.248352   C738.343262,283.496948 738.734802,272.746399 738.984314,261.992615   C739.376709,245.075897 739.443237,228.147934 740.114197,211.243240   C740.369080,204.820404 741.395142,197.864334 749.003662,195.654892   C754.376038,194.094803 760.258972,193.832245 764.939941,197.609802   C768.670410,200.620285 772.156372,204.191605 774.906128,208.107178   C781.103455,216.932083 787.227539,225.867096 792.576599,235.217667   C806.622437,259.770752 820.456055,284.451935 833.924255,309.325653   C839.864441,320.296265 842.094482,332.450592 841.993713,344.951385   C841.677429,384.201447 841.332703,423.451294 841.001831,462.701202   C840.987122,464.446350 841.000000,466.191711 841.000000,467.999969   C884.381531,467.999969 927.043091,468.015381 969.704651,467.946472   C971.504150,467.943573 973.302368,467.157104 975.068176,466.743439   C974.638123,464.408875 974.094299,462.684204 974.036377,460.943390   C973.634460,448.860596 973.315491,436.774933 973.004700,424.689270   C972.650940,410.938171 972.157471,397.187592 972.041992,383.434143   C971.876953,363.770203 971.999695,344.103821 972.001221,324.438477   C972.001282,323.605469 971.874146,322.740601 972.049744,321.944244   C974.624329,310.269775 979.196350,299.483612 984.839294,288.878723   C997.030396,265.967743 1010.239868,243.724274 1025.184082,222.529770   C1030.701172,214.705246 1036.354736,206.856781 1042.884155,199.899780   C1049.478760,192.873383 1064.983765,191.433167 1068.747803,203.366287   C1069.229614,204.893814 1069.798950,206.438339 1069.965942,208.013336   C1071.033203,218.077087 1072.173340,228.138016 1072.957642,238.225662   C1074.116821,253.135727 1074.986938,268.068146 1076.003784,282.989471   C1076.986694,297.413055 1078.007935,311.834015 1078.996460,326.257233   C1080.007812,341.012146 1081.068604,355.764130 1081.978149,370.525391   C1082.748169,383.022552 1083.313354,395.532196 1084.009644,408.034027   C1084.283813,412.955902 1084.496582,417.891632 1085.069458,422.782166   C1085.379395,425.427429 1085.697510,428.520203 1087.208984,430.494720   C1092.368286,437.234222 1098.084839,443.545258 1103.540283,450.060455   C1111.925537,460.074615 1120.473267,469.961670 1128.586060,480.192963   C1141.395996,496.348328 1154.283203,512.467041 1166.421753,529.122925   C1176.803345,543.368103 1186.179321,558.346130 1196.000000,573.000000   C1196.000000,578.022095 1196.000000,583.044189 1195.656494,588.613403   C1190.907349,597.308533 1184.164673,602.566040 1175.129272,604.333862   C1165.611938,606.195984 1156.021973,608.322021 1146.387329,608.802856   C1131.432251,609.549316 1116.412354,608.993591 1101.419922,609.010315   C1099.991211,609.011902 1098.562744,609.158203 1097.484253,609.217896   C1096.973999,618.708618 1096.913818,627.817688 1095.852539,636.808655   C1095.125854,642.962952 1094.131226,649.551086 1091.289062,654.899902   C1083.758545,669.072205 1075.815308,683.119873 1066.836548,696.406250   C1052.354492,717.835693 1036.910156,738.614807 1021.495361,760.196411   C1025.404419,764.949585 1030.489136,770.296814 1034.618652,776.301086   C1050.782349,799.803101 1066.796021,823.412109 1082.563354,847.181702   C1092.554565,862.243713 1097.915039,878.824585 1097.030151,897.149109   C1096.825439,901.389954 1097.000000,905.649109 1097.000000,910.999878   C1118.410156,910.999878 1139.158569,910.476440 1159.865723,911.175232   C1174.851929,911.681030 1188.520386,916.090332 1196.000000,931.000000   C1196.000000,936.354919 1196.000000,941.709900 1195.613281,947.535339   C1194.033447,949.955750 1192.916138,951.957153 1191.633667,953.846619   C1186.109375,961.985535 1180.812622,970.298218 1174.922974,978.165833   C1163.641113,993.236694 1152.102417,1008.118286 1140.494507,1022.940735   C1133.260742,1032.177734 1125.735352,1041.187744 1118.285645,1050.254028   C1108.861572,1061.723145 1099.200928,1073.004761 1090.045776,1084.683472   C1087.606445,1087.795166 1085.698853,1091.938599 1085.187012,1095.824463   C1083.944946,1105.252075 1083.663574,1114.806763 1083.002075,1124.310669   C1081.998291,1138.732422 1080.914307,1153.149048 1080.026001,1167.578003   C1079.236328,1180.407104 1078.682251,1193.250488 1077.992432,1206.085938   C1077.701050,1211.506714 1077.412354,1216.930054 1076.977417,1222.340576   C1075.690430,1238.351562 1074.228638,1254.349243 1073.043701,1270.367432   C1072.459106,1278.267212 1072.608643,1286.224976 1071.916992,1294.111816   C1071.310303,1301.029419 1070.558716,1308.029541 1068.841187,1314.729370   C1066.817139,1322.625000 1059.740234,1325.417480 1051.634399,1323.257690   C1042.641357,1320.861572 1038.484497,1313.585449 1033.409912,1306.969849   C1011.743835,1278.724976 993.865540,1248.160889 978.215698,1216.293579   C974.183411,1208.082764 971.806580,1199.052490 971.984924,1189.614380   C972.367432,1169.364380 972.676270,1149.113159 972.997437,1128.862183   C973.342346,1107.111694 973.639954,1085.360352 974.023376,1063.610596   C974.096375,1059.466431 974.472046,1055.327515 974.700562,1051.316650   C929.965576,1051.316650 885.561829,1051.316650 842.000000,1051.316650   C842.000000,1072.536255 842.000000,1093.439575 842.000000,1114.342896   C842.000000,1135.174438 842.054138,1156.006226 841.953491,1176.837280   C841.933777,1180.921387 842.151367,1185.301270 840.818665,1189.029785   C836.567261,1200.924194 832.679749,1213.134399 826.749878,1224.203979   C814.835876,1246.444214 802.025452,1268.231567 788.855408,1289.759644   C782.544983,1300.074829 775.226257,1309.957520 767.173279,1318.972412   C758.552429,1328.623169 741.441284,1324.534424 740.900879,1311.624146   C740.440735,1300.632324 739.561279,1289.658813 739.025879,1278.669434   C738.567383,1269.257080 738.311096,1259.834595 738.006348,1250.415161   C737.647827,1239.331055 737.346863,1228.245239 736.995911,1217.160767   C736.681824,1207.241821 736.314331,1197.324463 736.005615,1187.405396   C735.650269,1175.987793 735.350220,1164.568604 734.994873,1153.151001   C734.686096,1143.231934 734.301697,1133.315186 734.008484,1123.395630   C733.641418,1110.978394 733.324524,1098.559814 733.002625,1086.141235   C732.700012,1074.469849 732.418945,1062.797974 732.133362,1051.322998   C642.610962,1051.322998 553.878601,1051.322998 465.494415,1051.322998   C464.983490,1060.397705 464.378174,1069.126465 464.028473,1077.865234   C463.578461,1089.112183 463.342926,1100.367554 462.997192,1111.618774   C462.677002,1122.037598 462.327209,1132.455200 462.001801,1142.873779   C461.660797,1153.791870 461.339294,1164.710571 460.998291,1175.628662   C460.672882,1186.047241 460.331360,1196.465088 460.000671,1206.883545   C459.664734,1217.468384 459.339478,1228.053711 458.998230,1238.638428   C458.673126,1248.723755 458.293945,1258.807373 458.009888,1268.893799   C457.636719,1282.144043 457.337372,1295.396362 456.998199,1308.647583   C456.850586,1314.413940 455.265991,1319.790283 449.861176,1322.473511   C444.176117,1325.295898 437.717743,1325.252686 432.863037,1321.048706   C427.675385,1316.556396 422.894684,1311.269775 419.103210,1305.555664   C410.660553,1292.831543 402.654205,1279.793091 395.004730,1266.573364   C384.537079,1248.483276 374.159088,1230.316772 364.548950,1211.765259   C359.531158,1202.078735 355.963837,1191.603271 355.978607,1180.303345   C356.032654,1138.973633 356.000000,1097.643921 356.000000,1056.314209   C356.000000,1054.567505 356.000000,1052.820679 356.000000,1051.354736   C311.220642,1051.354736 267.150635,1051.354736 222.520996,1051.354736   C223.027878,1060.642456 223.644608,1069.543457 223.968552,1078.455078   C224.425842,1091.035400 224.760529,1103.621948 224.979553,1116.208740   C225.384140,1139.458008 225.738632,1162.708740 225.969116,1185.960327   C226.081604,1197.307007 223.212158,1208.073120 218.289505,1218.209595   C204.263000,1247.092407 187.742722,1274.515625 168.874741,1300.479614   C163.677795,1307.631104 158.448654,1315.406494 151.469833,1320.457520   C142.061523,1327.266724 132.546249,1325.450806 128.484161,1314.842285   C126.951416,1310.839355 126.420471,1306.342285 126.067268,1302.018555   C124.890282,1287.611084 123.987823,1273.180786 123.005013,1258.757690   C121.988281,1243.836670 120.934898,1228.917847 120.020386,1213.990479   C119.254745,1201.493164 118.681801,1188.984131 117.991814,1176.482056   C117.701843,1171.227905 117.370827,1165.975220 116.988281,1160.726929   C115.675621,1142.718262 114.319923,1124.712769 113.007469,1106.704102   C112.625031,1101.456421 112.375412,1096.198853 111.956413,1090.954346   C111.885536,1090.067261 111.445244,1089.069092 110.865097,1088.385742   C106.627380,1083.394165 102.249641,1078.520874 98.031113,1073.513428   C89.402275,1063.270874 80.709793,1053.077148 72.297089,1042.658447   C63.932899,1032.299927 55.772449,1021.771912 47.715694,1011.171509   C36.050262,995.823059 24.429869,980.436646 13.057502,964.871155   C8.662376,958.855469 4.997574,952.306152 1.000007,946.000000  M549.058044,620.423706   C537.623413,626.770508 528.430481,635.574341 519.869507,645.423706   C503.516998,664.237122 497.016876,687.218994 491.090363,710.481201   C488.901886,719.071045 487.595337,727.898926 486.156952,736.662598   C484.922241,744.185669 483.299286,751.769226 483.273315,759.330994   C483.247986,766.724609 484.539581,774.229187 486.108490,781.500427   C489.804626,798.630676 493.389435,815.826721 498.160492,832.672974   C504.746429,855.927368 518.205444,875.118835 536.923035,890.225281   C552.514099,902.808411 571.420532,907.327637 590.933289,908.858582   C602.037231,909.729736 613.078064,908.321533 624.163818,906.213684   C652.421570,900.840637 671.680603,883.671997 686.730225,860.605225   C694.073059,849.350647 698.694336,836.793518 701.937439,823.843445   C705.337891,810.264465 708.290100,796.556030 710.893799,782.801086   C712.464966,774.500488 713.980713,765.976318 713.748291,757.601807   C713.465515,747.414978 712.123230,737.091309 709.798218,727.164307   C705.777588,709.997253 701.323425,692.867065 695.804688,676.132446   C689.394104,656.693909 676.510193,641.010437 660.749817,628.714233   C640.329834,612.782715 616.064087,608.095642 590.310120,609.881042   C576.083801,610.867188 562.728271,614.534729 549.058044,620.423706  M362.000031,676.515442   C361.666748,672.098511 361.163116,667.686584 361.031647,663.263672   C360.613251,649.187256 360.382935,635.105225 359.968445,621.028687   C359.851013,617.041565 359.351990,613.065613 359.047241,609.321289   C311.247955,609.321289 264.192902,609.321289 217.340500,609.321289   C216.877853,615.890808 216.319901,622.117798 216.027847,628.357239   C215.587418,637.766785 215.380371,647.187012 214.981018,656.598755   C214.743973,662.185913 214.421371,667.772949 213.975235,673.347046   C212.694351,689.350342 211.421127,705.355164 209.956741,721.342224   C209.349045,727.976685 207.823441,734.546265 207.505356,741.183228   C207.097427,749.694763 203.790955,757.607544 205.624893,766.768005   C208.939850,783.326111 210.318161,800.305847 211.904068,817.166016   C213.350143,832.540039 214.110168,847.982910 214.960129,863.407104   C215.505798,873.309631 215.563019,883.238464 216.040833,893.145752   C216.307663,898.678284 216.986618,904.190857 217.487534,909.798340   C264.581573,909.798340 311.659637,909.798340 358.691101,909.798340   C359.155090,907.551575 359.864258,905.519592 359.951019,903.461487   C360.389648,893.051819 360.600311,882.632751 361.015656,872.221924   C361.620819,857.055237 362.265015,841.889465 363.015839,826.729431   C363.944611,807.977722 365.554047,789.240173 365.823273,770.481506   C366.035919,755.663208 364.645233,740.823120 364.008087,725.990967   C363.313812,709.828369 362.667328,693.663757 362.000031,676.515442  M895.500000,910.000000   C923.618164,910.000000 951.736389,910.000000 980.149170,910.000000   C980.785034,899.017944 981.454895,888.528137 981.980469,878.031128   C982.410095,869.450806 982.624512,860.859924 983.016663,852.277405   C983.272034,846.688538 983.548462,841.095215 984.036255,835.523193   C985.291931,821.178894 986.584961,806.836548 988.038147,792.511169   C988.710632,785.882019 989.775818,779.292175 990.691650,772.688477   C991.426758,767.388428 993.288147,761.981689 992.751038,756.819885   C991.410034,743.932617 988.653625,731.198181 987.097473,718.325989   C985.642822,706.293091 984.805115,694.174133 984.047729,682.071045   C982.874634,663.325989 981.991455,644.562683 981.005737,625.806030   C980.715942,620.289978 980.495178,614.770386 980.242859,609.253540   C932.437500,609.253540 885.361023,609.253540 838.488098,609.253540   C837.978394,615.904541 837.289612,622.278870 837.042969,628.670166   C836.564026,641.082764 836.473816,653.510742 835.958618,665.921448   C835.487610,677.266968 834.632812,688.596191 834.010071,699.936035   C832.980103,718.690186 831.611694,737.437622 831.159363,756.206604   C830.922791,766.022156 832.397583,775.873535 832.983521,785.715698   C833.717773,798.049011 834.484314,810.383545 834.965698,822.728149   C835.758423,843.059937 836.286011,863.402039 837.022278,883.736267   C837.336975,892.427307 837.895447,901.109558 838.353699,910.000000   C857.214355,910.000000 875.857178,910.000000 895.500000,910.000000  z" />
<path fill="#FFFFFF" opacity="1.000000" stroke="none" d=" M482.531464,0.999998   C489.419708,3.564976 496.097809,5.630995 502.207520,8.794678   C516.704102,16.301226 525.347534,28.942900 529.496643,44.236359   C534.483276,62.616451 532.995361,80.629036 521.963745,96.855011   C512.438965,110.864540 499.655823,119.708939 482.362762,122.147568   C463.232269,124.845299 446.569275,120.557678 431.599701,108.253456   C420.621307,99.229813 413.534058,87.896233 411.259552,74.201004   C407.907257,54.015762 412.052826,35.614105 426.985107,20.405731   C435.472931,11.760944 444.908203,5.083123 456.931335,2.565689   C458.516663,2.233742 460.129211,2.031764 461.864563,1.384793   C468.687653,1.000000 475.375275,1.000000 482.531464,0.999998  z" />
<path fill="#FFFFFF" opacity="1.000000" stroke="none" d=" M735.531372,1.000004   C741.478394,2.956333 747.164246,4.474048 752.397217,6.949192   C769.822388,15.191113 781.553467,28.950283 785.556152,47.561127   C791.269470,74.125313 782.972229,98.316505 758.093506,114.052559   C746.141113,121.612556 733.059143,124.036697 719.416809,122.883118   C693.295166,120.674316 671.540771,102.454475 667.004028,75.297455   C664.009277,57.370796 665.777283,40.253548 677.027100,25.232407   C685.235413,14.272450 695.319946,5.744236 709.252380,2.882610   C709.821350,2.765752 710.283752,2.130475 710.897949,1.368366   C719.020935,1.000000 727.041809,1.000000 735.531372,1.000004  z" />
<path fill="#FFFFFF" opacity="1.000000" stroke="none" d=" M462.466858,1518.000000   C457.845978,1516.621948 453.571045,1515.527710 449.558258,1513.818115   C429.186188,1505.138550 415.608734,1490.285278 411.318207,1468.392822   C407.162323,1447.187622 413.579681,1424.275146 433.425934,1408.658569   C448.186554,1397.043945 464.671448,1394.458496 482.201111,1396.211060   C492.997986,1397.290283 502.635223,1402.061401 511.100281,1409.437500   C527.079712,1423.360596 533.181458,1441.148438 531.859375,1461.533936   C530.448059,1483.294678 519.428162,1499.735107 500.870239,1510.926392   C494.053894,1515.036865 486.362000,1517.056152 478.148254,1517.605225   C472.977905,1518.000000 467.955811,1518.000000 462.466858,1518.000000  z" />
<path fill="#FFFFFF" opacity="1.000000" stroke="none" d=" M714.467957,1518.000000   C708.484985,1515.684692 702.799622,1513.703247 697.486389,1510.992432   C680.505554,1502.328247 670.429810,1488.289917 667.068298,1469.660278   C664.478088,1455.305664 664.879333,1440.995605 671.823364,1427.749756   C680.201721,1411.767944 692.851013,1400.519897 710.927124,1397.125732   C729.227783,1393.689331 747.054810,1395.492798 762.383545,1407.206055   C775.071228,1416.901245 783.675354,1429.289917 786.174500,1445.730103   C788.150208,1458.727295 787.259155,1471.309570 781.433533,1482.802856   C773.036255,1499.369873 759.691040,1510.859375 741.463135,1515.935181   C738.516785,1516.755615 735.355896,1516.805908 732.147095,1517.606079   C726.311951,1518.000000 720.623962,1518.000000 714.467957,1518.000000  z" />
</svg>