<?xml version="1.0" encoding="UTF-8"?>
<svg id="Layer_1" data-name="Layer 1" xmlns="http://www.w3.org/2000/svg" viewBox="0 0 130.37 126.8">
  <path fill="#FFFFFF" d="M23.74,0c1.96.93,1.11,3.84,1.3,5.6h1.55c.73,0,2.37,1.04,3.04,1.46,1.35.84,2.63,1.81,3.86,2.82,1.48-1.12,2.95-2.28,4.56-3.22.61-.36,1.74-1.06,2.44-1.06h1.45c.16-1.76-.58-4.71,1.4-5.6h.5c2.97,1.68,5.49,4.07,8.18,6.17,3.82.53,7.86.38,11.67.83.55.06,1.16.11,1.5.6.32-.45.88-.54,1.4-.6,3.86-.41,7.91-.32,11.77-.83,2.68-2.1,5.2-4.51,8.18-6.17h.5c1.97.88,1.24,3.85,1.4,5.6h1.45c1,0,3.49,1.7,4.38,2.32s1.73,1.33,2.62,1.96c.69-.57,1.39-1.14,2.12-1.66.94-.66,3.76-2.62,4.78-2.62h1.55c.2-1.77-.68-4.66,1.3-5.6h.5c1.09.46,2.04,1.25,2.99,1.96,1.76,1.32,3.45,2.75,5.12,4.18l8.4.65.52,8.23c1.57,1.86,3.19,3.71,4.62,5.68.39.53.99,1.27,1.28,1.82,1.57,3.11-3.53,2.53-5.22,2.57,0,.34.02.69-.01,1.04-.2,1.85-1.51,3.63-2.57,5.13-.54.77-1.17,1.48-1.71,2.26.55.78,1.16,1.51,1.71,2.3,1.27,1.84,2.82,3.8,2.58,6.17,1.18.05,5.22-.39,5.49,1.25.12.74-.15,1.1-.51,1.68-1.54,2.49-3.86,4.82-5.66,7.14-.08,4.14-.87,8.45-.72,12.58.13,3.36.62,6.72.72,10.08,1.78,2.42,4.28,4.82,5.8,7.4,1.9,3.2-3.39,2.76-5.12,2.77.06,1.18-.12,2.07-.65,3.1-.93,1.84-2.4,3.62-3.64,5.26.96,1.36,2.01,2.66,2.89,4.08s1.59,2.64,1.4,4.45c1.36.12,3.07-.24,4.36.19,2.62.88.03,3.54-.92,4.79-1.31,1.74-2.75,3.39-4.12,5.08l-.56,8.14-8.19.61c-2.64,2.12-5.17,4.42-8.07,6.18h-.9c-1.68-1.22-.93-3.71-1.1-5.5-.54-.01-1.21-.02-1.74-.11-1.19-.21-3-1.46-4.03-2.17-.93-.63-1.78-1.36-2.7-2.01-2.58,1.69-5.12,4.45-8.43,4.29-.13,1.74.48,4.41-1.2,5.5h-.9c-2.84-1.8-5.4-4.02-7.99-6.16l-12.25-.85c-.4-.08-.74-.19-.91-.59-.17.4-.51.51-.91.59l-12.25.85c-2.61,2.12-5.14,4.36-7.99,6.16h-.9c-1.72-1.08-1.05-3.76-1.2-5.5-1.18.04-2.06-.12-3.1-.65-1.91-.97-3.58-2.42-5.33-3.64-1.76,1.19-3.72,2.98-5.66,3.84-.88.39-1.85.43-2.8.45-.19,1.75.64,4.46-1.2,5.5h-.8c-2.9-1.76-5.44-4.05-8.07-6.18l-8.23-.52-.52-8.23c-1.76-2.22-3.78-4.4-5.36-6.74-.51-.75-1.26-1.64-.6-2.57.82-1.16,4.01-.65,5.29-.76-.21-1.81.51-3,1.4-4.45s1.92-2.73,2.89-4.08c-.72-.89-1.43-1.79-2.07-2.73-1.15-1.68-2.45-3.48-2.22-5.63-1.52-.09-6.18.53-5.45-2.2.17-.63,2.22-3.15,2.76-3.84,1.09-1.4,2.26-2.74,3.38-4.12.1-3.43.59-6.86.72-10.28.15-4.04-.68-8.32-.72-12.38-1.81-2.22-3.86-4.46-5.46-6.84-.19-.28-.57-.76-.65-1.05-.81-2.78,3.94-2.11,5.43-2.18-.25-2.22,1.12-4.1,2.32-5.83.62-.9,1.34-1.74,1.97-2.64-.54-.74-1.14-1.45-1.67-2.2-1.29-1.84-2.88-3.87-2.62-6.23-1.41-.1-3.96.33-5.1-.65s.21-2.43.82-3.28c1.52-2.14,3.3-4.11,4.94-6.16l.54-8.21,8.4-.65c1.52-1.34,3.09-2.66,4.72-3.88,1.07-.81,2.17-1.71,3.39-2.26h.5ZM80.44,12.5c-2.6-.15-5.38.33-7.95.1-1.35-.12-4.14-1.87-5.32-2.68-.7-.49-1.64-1.04-1.98-1.82-.23.6-.78.95-1.28,1.32-1.25.94-4.55,3.06-6.02,3.18-2.61.22-5.43-.26-8.05-.1v7.5c.4.07.78-.09,1.15-.1,1.8-.06,4.24-.14,6.01,0s4.72,1.97,6.24,2.96c.71.46,1.5.9,1.96,1.64.35-.58.91-.97,1.46-1.34,1.51-1.03,5-3.13,6.74-3.26s4.21-.06,6.01,0c.34.01.68.17,1.05.1v-7.5ZM41.94,12.1c-2.28-.05-4.57-.19-6.84-.41-.46-.05-1.11-.27-1.52-.28-1.06-.03-2.65.53-3.79.49l-4.75.2v8c1.67.15,3.37.13,5.05.2,3.68.15,7.31.14,11-.09.29-.02.56-.13.85-.1v-8ZM105.34,12.1c-2.86-.08-5.72-.21-8.54-.69l-3.71.49-4.65.2v8c.29-.03.56.09.85.1,3.69.23,7.32.24,11,.09,1.68-.07,3.38-.04,5.05-.2v-8ZM17.14,12.5l-4.6.1-.1,4.6h4.7v-4.7ZM113.24,12.5v4.7h4.7l-.1-4.6-4.6-.1ZM49.84,26.1v15l4.5.1c-.42-5.27,7.44-5.06,6.8.2.82.18,3.28-.12,3.81.34.14.12.17.33.19.36.07.08.2-.29.35-.4.12-.09.28-.14.43-.17l3.33-.12c-.66-5.28,7.22-5.44,6.8-.2l4.4-.1v-15l-4.4-.2c.5,5.34-7.67,5.12-6.7-.2-.67-.05-3.58.06-3.96-.29-.12-.11-.14-.25-.14-.41-.18,0-.11.26-.22.37-.07.07-.42.2-.53.22l-3.44.11c.94,5.32-7.22,5.53-6.7.2l-4.5.2ZM20.14,25.1h-8c-.18,2.04-.22,4.1-.4,6.15-.06.69-.34,1.6-.36,2.21-.03.8.39,2.53.46,3.49.14,1.68.12,3.38.3,5.05h8c.02-1.48.03-2.98.1-4.45.14-2.95.14-5.14,0-8.09-.07-1.45-.08-2.91-.1-4.35ZM118.24,25.1h-8c-.03,1.41-.03,2.84-.1,4.25-.08,1.58-.24,3.13-.2,4.7.03,1.24.14,2.47.2,3.69.07,1.41.06,2.84.1,4.25h8c.16-1.71.16-3.44.3-5.15.08-1.01.43-2.38.45-3.3.01-.82-.37-2.35-.45-3.3-.14-1.71-.13-3.44-.3-5.15ZM33.02,27.13c-.86.06-4.13.68-4.68,1.22-.12.12-.2.37-.27.53-1.34,3.07-1.24,7.45.5,10.36,1.92,3.2,6.74,3.76,9.23.97.37-.41.69-1.13,1.04-1.46.31-.28.88-.53,1.25-.85,2.33-1.99,2.51-6.17.35-8.35-1.59-1.6-5.22-2.59-7.42-2.42ZM96.42,27.13c-2.04.13-4.88.88-6.38,2.32-2.24,2.16-2.13,6.35.2,8.4.88.77,1.06.76,1.86,1.74,3.05,3.72,8.42,3.09,10.24-1.44.88-2.19,1.13-4.57.67-6.87-.11-.56-.65-2.68-1.02-2.98-.29-.24-1.79-.66-2.23-.77-1-.24-2.33-.46-3.34-.4ZM80.44,47.2h-7.55c-.95,0-6.5-3.22-7.3-4-.21-.2-.29-.34-.4-.6-.11.18-.13.33-.3.5-.78.8-6.44,4.1-7.4,4.1h-7.65v2.7h-2.7v7.75c0,.42-.72,1.8-.95,2.25-.61,1.21-1.4,2.33-2.04,3.53.74,1.41,1.74,2.74,2.4,4.2.12.27.58,1.32.58,1.52v7.75h2.7v2.8c2.25.11,4.51-.24,6.75-.1s5.14,1.96,6.94,3.16c.61.4,1.28.8,1.66,1.44.38-.64,1.05-1.04,1.66-1.44,1.82-1.21,4.77-3.04,6.94-3.16s4.44.21,6.65.1v-2.65l.15-.15h2.65c0-1.68,0-3.37,0-5.05,0-1.24-.18-2.1.22-3.37.54-1.69,1.96-3.44,2.76-5.04-1.23-2.34-3.05-4.41-3.09-7.18,0-.44.11-.83.11-1.2,0-1.72-.01-3.44,0-5.15h-2.8v-2.7ZM19.94,49.9h-7.5c.07,2.15.09,4.29.1,6.45,0,.26.11.51.11.79.01,2.27-1.83,4.4-2.88,6.3,1.05,1.79,2.89,4.05,2.88,6.2-.01,1.78-.16,3.62-.21,5.39-.02.62.02,1.24,0,1.85h7.5c-.01-1.38.01-2.77,0-4.15,0-.74-.15-1.5-.11-2.3.14-2.74,1.82-4.68,3.07-6.99-.77-1.58-1.97-3.12-2.61-4.75s-.36-2.95-.35-4.64c.01-1.38-.02-2.77,0-4.15ZM41.04,49.9h-15v.8c2.69-.16,4.47,2.39,3.45,4.9-.55,1.36-2.19,2.31-3.65,1.9-.19,1.04-.07,2.1-.1,3.15-.08,2.59-.18,5.3,0,7.9.02.25.1.49.11.74,5.12-.56,5.24,7.08.19,6.8v.8h15v-.8c-5.05.31-4.94-7.39.2-6.8.25-3.93.24-7.87,0-11.8-1.83.48-3.74-.99-3.9-2.85-.21-2.39,1.31-4.02,3.7-3.95v-.8ZM104.34,49.9h-15v.8c2.7-.16,4.47,2.39,3.45,4.9-.55,1.36-2.19,2.31-3.65,1.9l-.1,3.25c-.08,2.54-.17,5.16,0,7.7.02.28.13.56.11.85,5.13-.58,5.24,7.09.2,6.8v.8h15v-.8c-5.05.29-4.94-7.39.2-6.8.12-2.51.25-5.03.2-7.56,0-.29-.1-.53-.11-.79-.03-1.15.07-2.31-.1-3.45-1.91.47-3.77-1.03-3.9-2.95-.17-2.36,1.36-3.9,3.7-3.85v-.8ZM117.94,49.9h-7.5v7.85c0,.32-.84,1.95-1.05,2.35-.59,1.14-1.34,2.2-1.94,3.33.73,1.36,1.67,2.66,2.34,4.06.13.28.65,1.44.65,1.65v7.75h7.5c-.09-1.99-.08-3.96-.1-5.95,0-.55-.15-1.08-.1-1.69.16-1.98,1.88-4.13,2.87-5.8-.98-1.78-2.71-3.81-2.87-5.9-.04-.59.1-1.08.1-1.59.02-2.03,0-4.04.1-6.05ZM69.24,85.4c-1.12-.03-2.33.06-3.44-.11-.33-.05-.46-.22-.61-.5-.15.28-.27.44-.61.5-1.11.17-2.32.08-3.45.1.66,5.27-7.13,5.55-6.8.3l-4.5.1v15l4.5.1c-.42-5.28,7.43-5.1,6.8.19.9.33,3.05-.19,3.75.3.19.13.2.36.25.4.07.07.21-.33.41-.44.67-.38,3.41.02,3.69-.26-.62-5.29,7.21-5.47,6.8-.19l4.4-.1v-15l-4.4-.1c.49,3.54-4.23,5.23-6.24,2.39-.13-.18-.56-1.07-.56-1.24v-1.45ZM20.14,84.9h-8c-.19,1.67-.16,3.37-.3,5.05-.08.97-.48,2.55-.46,3.39.02.91.38,2.31.46,3.32.14,1.71.11,3.44.3,5.15h8c.02-1.48.03-2.97.1-4.45.06-1.31.3-2.8.29-4.09s-.23-2.69-.29-4.01c-.07-1.45-.08-2.91-.1-4.35ZM32.72,84.93c-4.92.51-6.14,6.79-5.33,10.77.13.65.51,2.13.83,2.67.24.39,1.78.8,2.28.92,2.77.67,6.18.48,8.67-1.01,3.4-2.03,3.77-6.96.72-9.48-.32-.27-.91-.53-1.14-.76s-.46-.78-.71-1.09c-1.35-1.68-3.2-2.24-5.32-2.02ZM91.61,88.07c-.22.22-.8.48-1.11.74-3.11,2.57-2.68,7.55.85,9.55,2.8,1.59,6.71,1.69,9.7.59.36-.13.71-.28,1.05-.45.43-.95.72-1.96.92-2.98.79-4.03-.56-10.22-5.52-10.62-2.12-.17-3.79.42-5.15,2.05-.26.32-.52.89-.74,1.11ZM118.24,84.9h-8c-.03,1.38-.03,2.78-.1,4.15-.08,1.61-.24,3.2-.2,4.8.03,1.24.14,2.47.2,3.69.07,1.41.07,2.84.1,4.25h8c.18-1.74.15-3.51.3-5.25.08-.89.49-2.55.47-3.29-.03-.9-.38-2.22-.47-3.22-.15-1.71-.12-3.44-.3-5.15ZM80.44,106.9h-7.65c-.88,0-6.39-3.21-7.15-3.95-.22-.21-.33-.37-.45-.65-.12.28-.23.44-.45.65-.74.73-6.29,3.95-7.15,3.95h-7.75v7.35c.53.36,1.36.06,1.95.05,1.39-.04,2.82-.08,4.2-.1,2.84-.05,4.03.7,6.35,2.16.97.61,2.28,1.38,2.86,2.34.07,0,.12-.29.2-.4.81-1,5.27-3.64,6.54-3.96,1.17-.29,2.03-.06,3.15-.05,1.79.02,3.57-.01,5.35.1v-7.5ZM41.94,106.7c-1.31-.04-2.64-.03-3.95-.1-1.44-.07-3.08-.32-4.5-.31s-2.99.24-4.4.31-2.71.06-4.05.1v8c1.78.15,3.57.15,5.35.3.9.08,2.32.45,3.1.45.84,0,2.25-.37,3.2-.45,1.74-.15,3.51-.15,5.25-.3v-8ZM105.34,106.7c-1.35-.04-2.71-.03-4.05-.1-1.44-.07-3.09-.32-4.5-.31s-2.98.24-4.39.31c-1.31.06-2.64.05-3.95.1v8c1.74.15,3.51.15,5.25.3.95.08,2.36.45,3.2.45.78,0,2.2-.37,3.1-.45,1.78-.15,3.57-.15,5.35-.3v-8ZM17.14,109.7h-4.7l.1,4.6,4.6.1v-4.7ZM117.94,109.7h-4.7v4.7l4.6-.1.1-4.6Z"/>
  <path fill="#FFFFFF" d="M57.99,54.5c1.28.15,6.19,3.08,7,4.1.09.11.14.4.2.4.1-.1.1-.27.2-.4.73-.93,5.89-4.1,7-4.1h3.45c-.12.97.15,2.01.1,2.95-.11,2.1-1.9,4.2-2.87,5.99,1.03,1.73,2.78,3.92,2.87,6,.04.91-.22,1.92-.1,2.85h-3.75c-.8,0-5.83-3.11-6.5-3.8-.21-.21-.3-.43-.4-.7-.1.26-.17.43-.36.64-.64.71-5.74,3.86-6.54,3.86h-3.75c.08-.99-.17-1.97-.1-2.95.14-2.05,1.85-4.18,2.87-5.9-.99-1.76-2.71-3.81-2.87-5.9-.08-1.02.19-2.03.1-3.05,1.09.09,2.38-.13,3.45,0ZM70.03,60.31c-1.52-.15-3.12-.03-4.59-.46l-.25-.35c-.19.43-.7.49-1.11.59l-3.72.23c-.33,2.01-.22,4.06-.07,6.09.19.26,3.48.28,4.1.4.32.06.59.26.81.49.22-.24.39-.41.72-.47,1.28-.26,2.81-.06,4.1-.34.32-2.02.28-4.13.01-6.17Z"/>
</svg>