<?xml version="1.0" encoding="UTF-8"?>
<svg id="Layer_1" data-name="Layer 1" xmlns="http://www.w3.org/2000/svg" viewBox="0 0 138 137.92">
  <path fill="#FFFFFF" d="M0,95.92c.26-.6.71-.73,1.35-.7,1.55.08,5.83,1.13,7,2.1.72.59,1.58,1.56,2.25,2.25.36.37,2.73,3.08,2.93,3.05l4.96-4.94c-1.68-1.81-3.62-3.39-5.22-5.28-.81-1.84-1.44-3.99-1.83-5.97-.13-.63-.43-1.62.05-2.15.29-.32.74-.34,1.05-.05l10,9.4,9.94-9.96-9.29-9.99c-.77-1.64.94-1.4,2-1.2,1.91.34,5.41,1.22,6.85,2.45,1.59,1.37,2.96,3.17,4.51,4.6l5.03-4.94-1.83-1.64-4.34,3.67c-1.14.59-1.29-.53-1.22-1.42.15-1.99.97-4.36,1.66-6.23-.55-1.28-.95-2.65-1.25-4.01-.23-1.05-1.24-4.66.9-3.6l4.23,3.68,1.83-1.66-4.94-5.03-4.95,4.95c-1.07.86-6.15,2.28-7.57,2.34-.7.03-1.3-.37-1.11-1.12l9.48-10.22-9.8-9.91h-.2s-9.85,9.26-9.85,9.26c-.44.36-.93.33-1.25-.15-.36-.53.01-1.81.15-2.45.36-1.68,1.08-4.77,2.15-6.05l4.8-4.71-4.95-5.04c-1.93,1.83-3.58,3.97-5.62,5.68-1.2.61-2.61.97-3.93,1.27-.87.2-3.9,1.12-3.91-.3,0-.44.34-.76.61-1.1,2.24-2.78,4.89-5.37,7.14-8.16.37-2.46.46-4.97.87-7.43.14-.85.24-2.64,1.33-2.77,1.62-.2,3.02,2.1,4.19,2.9.69-.69,1.25-1.19,2.19-1.52,1.94-.68,4.24-.91,6.27-1.18.27-2.03.49-4.33,1.18-6.27.33-.93.83-1.5,1.52-2.19-.78-1.14-3.39-2.81-2.84-4.43.28-.83,1.95-.96,2.71-1.09,2.46-.4,4.98-.5,7.43-.87L41.59.06c.67-.24,1.17.25,1.19.9.02.7-.36,2.2-.53,2.95-.34,1.52-.74,3.35-1.75,4.55l-5.2,5,5.04,4.95,4.71-4.8c1.3-1.08,5.39-2.12,7.13-2.37.58-.08,1.07-.27,1.53.21.36.39.28.71,0,1.11-2.81,3.16-5.97,6.06-8.75,9.25-.09.11-.55.67-.54.74l9.94,9.87,10.22-9.48c1.28-.13,1.14.89,1,1.8-.26,1.65-1.26,5.71-2.27,6.93l-4.9,4.9,4.96,4.94,1.73-1.83-3.78-4.33c-.45-1.2.48-1.3,1.42-1.22,2,.15,4.36.95,6.23,1.67,1.93-.66,4.35-1.54,6.39-1.68.95-.06,1.92.19,1.29,1.29l-3.73,4.36,1.58,1.75,5.1-4.95c-1.45-1.65-3.39-3.14-4.8-4.8-.85-1.01-1.11-2.19-1.47-3.43-.28-.97-1.1-3.76-.99-4.62.12-.95.9-.98,1.56-.45,3.2,2.55,6.12,6.2,9.3,8.8.11.09.42.36.54.34l9.82-9.79v-.2s-9.4-10.1-9.4-10.1c-.31-1.56,1.39-1.13,2.35-.95,1.56.3,5.19,1.19,6.35,2.15l4.9,4.9,4.9-4.9-.06-.25-5-4.7c-1.15-1.24-2.18-5.39-2.3-7.1-.1-1.54.55-1.88,1.75-.95,2.82,2.22,5.45,4.97,8.26,7.24,2.81.6,6.59.32,9.27,1.23,2.83.95-1.17,4.16-1.97,5.17,1.69,1.4,2,3.7,2.36,5.75.16.9.28,1.81.33,2.72,1.96.23,4.09.48,5.98,1.07,1.07.34,1.72.8,2.49,1.62,1.18-.81,2.7-3.26,4.37-2.87.77.18.91,1.32,1.04,1.96.53,2.68.6,5.51.98,8.22,2.3,2.8,4.94,5.37,7.2,8.2.26.32.47.63.65,1v.2c-.19.46-.63.68-1.12.67-1.97-.02-6.35-1.23-7.78-2.62l-4.55-4.85-4.94,5.03,4.8,4.81c1.01,1.22,1.82,4.72,2.15,6.35.12.62.47,1.69,0,2.2-.42.46-.88.25-1.29-.1l-9.8-9.18-9.94,9.93,9.19,9.8c.34.39.55.9.1,1.29-.52.45-1.58.13-2.2,0-1.59-.32-5.16-1.17-6.35-2.15l-4.81-4.8-5.04,4.99,1.84,1.59,4.49-3.81c1.22-.33,1.16.8,1.06,1.65-.24,2.02-.89,4.23-1.67,6.1.63,1.34,1.05,2.9,1.35,4.35.21,1,1.07,4.14-.9,3.3l-4.23-3.67-.28.08-1.64,1.56,4.96,4.94c.32.06,3.89-3.99,4.53-4.54,1.51-1.3,4.99-2.17,6.98-2.52.98-.17,2.61-.38,2.02,1.12l-9.39,10.09,9.94,9.96,10.25-9.56c1.54-.15,1.05,1.51.86,2.46-.4,1.98-1.14,5.15-2.45,6.65-1.38,1.59-3.17,2.93-4.6,4.5l4.9,4.91.25-.05,5.05-5.26c1.12-.9,5.48-1.98,6.95-2.05.63-.03,1,.06,1.35.6v.3c-.25.48-.6.89-.95,1.3-2.25,2.67-4.67,5.21-6.9,7.9-.31,2.27-.43,4.57-.77,6.83-.23,1.51-.31,4.2-2.55,3.08-1.2-.6-2-1.99-3.08-2.72-1.24,1.7-3.56,2.03-5.53,2.37-.96.17-1.94.34-2.92.33-.06,1.11-.23,2.22-.43,3.32-.35,1.86-.66,3.94-2.27,5.13.76,1.11,2.92,2.54,2.97,4.01.03,1.01-1.1,1.25-1.85,1.4-2.7.56-5.58.64-8.31.99l-9.1,7.85h-.5c-.24-.2-.44-.32-.49-.66-.2-1.23,1-5.91,1.64-7.05.47-.83,1.59-1.81,2.3-2.5,1.13-1.1,2.36-2.11,3.45-3.25l-5.03-4.94c-1.58,1.4-2.91,3.23-4.51,4.6-1.45,1.23-4.64,1.99-6.53,2.37-1.01.2-3.02.71-2.36-1.06,2.72-3.03,5.65-5.89,8.4-8.9.14-.15.87-.94.9-1,.04-.08.07-.12,0-.2l-9.91-9.9-10,9.4c-1.33.65-1.36-.66-1.22-1.62.3-2.08,1.31-5.88,2.67-7.43s3.14-2.84,4.5-4.4l-5.03-4.94-1.66,1.74,3.72,4.28c.91,1.83-1.4,1.3-2.43,1.13-1.79-.31-3.54-.84-5.24-1.45-1.8.7-3.82,1.3-5.74,1.57-1.06.15-2.53.33-1.84-1.24l3.72-4.28-1.73-1.74-4.96,4.94c1.46,1.56,3.32,2.98,4.7,4.6,1.19,1.4,2.01,4.78,2.37,6.63.2,1.02.6,2.9-1.12,2.22l-10-9.4-9.94,9.96,9.39,10.09c.52,1.14-.49,1.32-1.42,1.22-2.05-.21-4.51-1.2-6.48-1.82-2.09-1.51-3.63-3.65-5.56-5.35l-5.03,4.94,5.45,5.25c.82,1.04,2.01,5.72,2.02,7.08,0,.48-.17.87-.57,1.12h-.4c-.21-.15-.44-.24-.65-.4-2.93-2.28-5.61-5.15-8.56-7.44-2.73-.35-5.62-.43-8.31-.99-.58-.12-1.22-.19-1.58-.72-1.08-1.58,1.99-3.47,2.7-4.6-.54-.72-1.14-1.15-1.48-2.03-.74-1.95-.95-4.45-1.23-6.52-.97,0-1.96-.16-2.92-.33-1.33-.23-3.53-.61-4.57-1.43-.2-.16-.89-.96-1.04-.93-1.01.79-2.85,3.49-4.32,2.9-.61-.25-.78-.91-.91-1.49-.65-2.75-.59-5.83-1.09-8.61L.4,96.77l-.4-.75v-.1ZM29.76,18.52c-1.12.98-2.19,2.02-3.32,2.99-.8.69-2.07,1.47-2.75,2.15s-1.42,1.9-2.1,2.7c-.97,1.13-2.01,2.2-2.99,3.32l5.26,5.33,5.59-4.99,5.64-6.17-5.33-5.33ZM108.16,18.52l-5.26,5.33,5.44,5.97,5.79,5.19,5.26-5.33c-1.12-1.28-2.29-2.52-3.39-3.82-.56-.66-1.18-1.69-1.75-2.25s-1.55-1.14-2.2-1.7c-1.31-1.12-2.54-2.33-3.89-3.39ZM34.14,34.05c-3.09,3.09-4.54,8.31-.03,10.91,6.15,3.55,16.69-8.56,8.68-13.18-2.79-1.61-6.59.21-8.66,2.28ZM96.98,31.15c-2.26.27-4.58,2.74-4.68,5.02-.2,4.45,5.2,9.79,9.66,9.46,2.22-.17,4.64-2.54,4.84-4.76.41-4.56-5.23-10.28-9.82-9.72ZM52.96,41.72c-.8.73-1.56,1.52-2.36,2.24-2.06,1.87-3.66,3.4-5.55,5.45-1.07,1.16-2.16,2.31-3.24,3.46l5.26,5.33c1.52-1.2,2.9-2.55,4.39-3.79.5-.42,1.34-.88,1.74-1.26.22-.21.61-.92.86-1.24,1.37-1.66,2.8-3.26,4.23-4.87l-5.33-5.33ZM84.96,41.72l-5.26,5.33c1.13,1.3,2.33,2.55,3.44,3.86.54.64,1.15,1.67,1.69,2.21.72.71,1.97,1.49,2.8,2.2,1.11.95,2.13,2.01,3.29,2.89l5.26-5.33-5.54-6.07-5.69-5.09ZM83.8,54.12c-.91-.05-1.82-.17-2.72-.33-1.32-.23-3.49-.61-4.57-1.33-.47-.31-.79-.74-1.25-1.03-1.53,1.54-4.75,5.3-5.33.81l-.93-7.72c-.35,2.57-.43,5.27-.93,7.82-.12.63-.22,1.52-.83,1.87-1.48.83-3.51-1.96-4.5-2.78-.75.6-1.21,1.18-2.16,1.52-1.93.69-4.35.93-6.38,1.17-.23,2.04-.49,4.44-1.17,6.38-.31.88-.88,1.44-1.52,2.09.8,1.03,4.76,4.17,1.97,5.16-2.12.75-5.99.81-8.33,1.07l-.85.2c.98.01,1.97.1,2.95.2,1.64.17,4.83.4,6.28.92,2.75.99-1.25,4.12-2.02,5.11.78.82,1.27,1.4,1.62,2.49.6,1.89.84,4,1.09,5.96,2.04.35,4.27.54,6.24,1.21.98.34,1.57.9,2.3,1.6,1.22-1.18,4.37-5.13,5.22-1.52.58,2.48.67,5.41.94,7.96.01.1.04.47.19.46.05-1.58.21-3.18.4-4.75.14-1.12.27-2.49.53-3.57.18-.75.47-1.62,1.42-1.58,1.31.05,2.96,2.18,3.9,3,.62-.63,1.13-1.2,1.97-1.53,1.97-.75,4.4-.89,6.46-1.29.35-2.04.51-4.55,1.27-6.48.34-.86.93-1.25,1.45-1.95,0-.23-1.8-1.84-2.1-2.2-.63-.77-1.32-1.92-.31-2.7.6-.46,3.1-.72,3.97-.83,1.87-.25,3.76-.41,5.64-.51l-.85-.2c-2.39-.24-4.92-.37-7.27-.83-.59-.12-1.56-.23-1.87-.83-.78-1.52,1.93-3.48,2.78-4.5-.66-.79-1.17-1.26-1.52-2.26-.69-1.94-.91-4.24-1.17-6.28ZM47.05,79.64l-5.24,5.31,4.89,5.42,6.35,5.85,5.24-5.43c-1.03-1.14-2.09-2.26-3.09-3.42-.64-.75-1.43-2.04-2.05-2.65-.46-.45-1.35-.94-1.9-1.4-1.42-1.2-2.75-2.51-4.2-3.67ZM90.86,90.88c.95-.94,1.87-2.16,2.78-3.17.33-.36,2.58-2.62,2.54-2.83l-5.24-5.25c-1.24,1.01-2.39,2.14-3.6,3.18-.74.63-1.9,1.34-2.54,1.96-.57.56-1.32,1.79-1.91,2.49-1.04,1.22-2.17,2.36-3.18,3.6l5.25,5.24c.23.04,2.47-2.21,2.83-2.54.98-.88,2.15-1.77,3.07-2.68ZM36.48,92.24c-1.86.04-3.57,1.24-4.52,2.78-3.79,6.16,8.37,16.78,13.02,8.92,2.83-4.78-3.64-11.8-8.5-11.7ZM105.17,93.85c-4.29-4.25-10.78.89-12.44,5.34s2.34,8.71,6.87,7.27,9.94-8.28,5.57-12.61ZM23.85,102.84l-5.24,5.32c1.02,1.24,2.15,2.39,3.19,3.62.59.69,1.34,1.93,1.91,2.49.6.58,1.73,1.26,2.44,1.86,1.26,1.07,2.44,2.23,3.7,3.29l5.24-5.33-5.25-5.86-5.99-5.39ZM114.15,102.82l-6.45,5.95-4.8,5.3,5.26,5.23c.13.03.28-.11.39-.19,1.01-.73,2.2-2.04,3.2-2.9.73-.62,2-1.4,2.59-2.01.63-.66,1.31-1.78,1.96-2.54,1-1.17,2.07-2.27,3.06-3.45l-5.21-5.4Z"/>
  <path fill="#FFFFFF" d="M68.28,13.84c5.41-.74,5.65,6.82.37,6.48-4.06-.26-4.06-5.98-.37-6.48Z"/>
  <path fill="#FFFFFF" d="M16.47,65.54c5.15-.81,5.15,7.17.48,6.87-3.95-.25-4.05-6.32-.48-6.87Z"/>
  <path fill="#FFFFFF" d="M77.98,4.35c4.28-.42,4.72,6.15.57,6.47s-4.98-6.04-.57-6.47Z"/>
  <path fill="#FFFFFF" d="M59.38,4.34c3.62-.44,5.09,4.61,1.66,6.16-4.47,2.02-6.51-5.57-1.66-6.16Z"/>
  <path fill="#FFFFFF" d="M7.38,56.44c3.56-.28,4.92,4.64,1.55,6.16-4.61,2.09-6.47-5.78-1.55-6.16Z"/>
  <path fill="#FFFFFF" d="M6.87,75.04c3.54-.6,5.53,3.77,2.62,5.82-2.54,1.78-5.88-.73-4.9-3.7.31-.94,1.27-1.95,2.28-2.12Z"/>
  <path fill="#FFFFFF" d="M123.16,71.48c-2.02,1.99-5.31.65-5.55-2.13-.45-5.06,6.94-5.27,6.49.12-.06.75-.4,1.48-.94,2.01Z"/>
  <path fill="#FFFFFF" d="M129.78,75.04c5.12-.74,4.95,7.11.02,6.33-3.62-.58-3.36-5.84-.02-6.33Z"/>
  <path fill="#FFFFFF" d="M132.66,61.98c-2.94,2.99-7.62-1.64-4.57-4.62s7.55,1.59,4.57,4.62Z"/>
  <path fill="#FFFFFF" d="M68.07,117.64c2.31-.36,4.62.84,4.42,3.42-.29,3.7-5.86,4.06-6.83.73-.51-1.75.53-3.87,2.41-4.16Z"/>
  <path fill="#FFFFFF" d="M59.07,127.14c4.99-.78,5.29,7.06.08,6.37-3.45-.46-3.39-5.85-.08-6.37Z"/>
  <path fill="#FFFFFF" d="M77.68,127.14c4.92-.72,5.11,7.05,0,6.35-3.6-.49-3.36-5.86,0-6.35Z"/>
</svg>