<?xml version="1.0" encoding="UTF-8"?>
<svg id="Layer_1" data-name="Layer 1" xmlns="http://www.w3.org/2000/svg" viewBox="0 0 126.23 124.35">
  <path fill="#FFFFFF" d="M.03,15.55c.24-2.95,1.71-6.9,5.25-6.9h3.35c-.06-3.52-.28-6.32,3.45-7.8,5.79-2.3,14.06.49,19.3,3.27C36.41,1.5,42.9-.75,48.64.29c3.1.56,5.28,1.94,5.49,5.31.35,5.6-.27,11.57,0,17.21.04,1.39,1.19,1.73,2.37,1.83,1.33.12,2.83-.02,4.19,0,.77.02,1.74.21,2.5.21.72,0,1.67-.2,2.4-.21,1.36-.03,2.86.11,4.19,0,1.18-.1,2.33-.45,2.37-1.83.26-5.64-.36-11.61,0-17.21.21-3.37,2.38-4.75,5.49-5.31,5.75-1.04,12.23,1.21,17.27,3.83C99.51,1.67,105.25-.3,110.57.06c3.2.21,7.05,1.67,7.05,5.45v3.15h3.35c3.54,0,5.01,3.95,5.25,6.9v3.1l-.45,2.8c-.7,3.51-1.91,6.81-3.61,9.95,1.7,3.14,2.91,6.44,3.61,9.95l.45,2.8v3.1l-.55,2.7c-.78,2.6-2.22,4.03-5,4.2-5.63.36-11.64-.27-17.31,0-1.3.08-1.65,1.25-1.74,2.36-.21,2.56-.06,5.52,0,8.09.04,1.77-.64,5.51,1.84,5.66,5.68.29,11.77-.4,17.41,0,2.77.19,4.22,1.94,4.9,4.5.21.79.25,1.61.45,2.4v3.1l-.45,2.8c-.72,3.48-1.88,6.84-3.63,9.93,1.65,2.99,2.81,6.12,3.53,9.47l.55,3.3v3.1c-.19.84-.27,1.71-.51,2.54-.36,1.29-1.07,2.63-2.14,3.46-1.55,1.19-4.1.83-5.95.9v3.15c0,2.96-2.41,4.52-5,5.1-.63.14-1.28.18-1.9.35h-3.1l-3.7-.65c-3.2-.71-6.2-1.87-9.07-3.43-3.41,1.88-7.25,3.25-11.11,3.85-.53.08-1.12.08-1.62.23h-3.1l-2.7-.55c-2.6-.79-4.03-2.2-4.2-5-.36-5.6.27-11.57,0-17.21-.14-2.22-2.7-1.78-4.26-1.84-3.25-.14-6.25-.14-9.49,0-1.56.07-4.11-.38-4.26,1.84-.28,5.65.39,11.7,0,17.31-.19,2.72-1.68,4.13-4.2,4.9l-2.7.55h-3.1c-.5-.15-1.09-.15-1.62-.23-3.86-.61-7.7-1.97-11.11-3.85-2.87,1.57-5.87,2.72-9.07,3.43l-3.7.65h-3.1c-.84-.19-1.71-.27-2.54-.51-1.66-.47-3.55-1.59-4.06-3.34-.44-1.48-.25-3.22-.29-4.76-1.34-.04-2.78.1-4.11-.14-2.47-.45-3.64-2.59-4.15-4.85-.14-.63-.18-1.28-.35-1.9v-3.1l.55-3.3c.72-3.34,1.88-6.48,3.53-9.47-1.59-2.83-2.72-5.86-3.43-9.03l-.65-3.7v-3.1c.2-.79.24-1.61.45-2.4.68-2.58,2.13-4.3,4.9-4.5,5.61-.42,11.74.32,17.41,0,2.44-.15,1.79-3.63,1.84-5.36.08-2.68.22-5.72,0-8.39-.09-1.11-.45-2.28-1.74-2.36-5.67-.27-11.68.37-17.31,0-2.76-.18-4.22-1.62-5-4.2L.03,47.25v-3.1l.45-2.8c.7-3.51,1.91-6.81,3.61-9.95-1.7-3.14-2.91-6.44-3.61-9.95L.03,18.65c.06-1.01-.08-2.1,0-3.1ZM15.13,8v7l-.15.15h-7.1c-.42,0-1.24.77-1.47,1.13-1.8,2.78-.82,8.28-.18,11.37.23.06.16-.05.23-.13.87-1.1,1.59-2.37,2.52-3.47,2.49-2.94,5.59-4.52,9.12-5.93,1.41-3.49,2.93-6.54,5.83-9.02,1.15-.98,2.43-1.72,3.58-2.62.08-.06.18,0,.13-.23-.98-.21-1.97-.45-2.96-.59-2.22-.3-4.75-.48-6.91.16-1.09.32-2.44.89-2.62,2.18ZM47.63,26.7V7.9c0-.55-.89-1.39-1.37-1.63-2.55-1.29-6.7-.91-9.45-.39-.56.11-1.11.29-1.68.37,1.4,1.15,2.96,2.11,4.3,3.35,3.86,3.56,5.85,9.69,7.13,14.67.27,1.07.31,2.06,1.17,2.88.07-.17-.09-.35-.1-.45ZM91.13,6.26c-1.24-.26-2.5-.55-3.76-.69-2.27-.25-5.04-.34-7.17.61-.86.39-1.49,1.04-1.58,2.02-.15,6,.21,12.12,0,18.11-.01.33-.12.62-.1.94l.85-1.4c1.23-5.46,3.18-12.29,7.4-16.2,1.35-1.25,2.94-2.24,4.35-3.4ZM118.38,15.15h-7.1l-.15-.15v-7c0-.54-.68-1.3-1.13-1.57-2.24-1.35-5.9-1.11-8.4-.77-1,.14-1.98.38-2.96.59-.06.24.04.16.13.22,2.03,1.42,4.21,2.87,5.77,4.83s2.62,4.49,3.63,6.82c3.53,1.41,6.63,2.99,9.12,5.93.93,1.1,1.65,2.38,2.52,3.47.06.08,0,.18.23.13.63-3.04,1.3-6.76.45-9.8-.29-1.02-.9-2.5-2.1-2.7ZM37.23,14.75c.09-.09-.6-1.33-.72-1.53-1.21-2.13-2.97-4.18-5.13-5.37-2.81,1.59-4.73,4.37-6.05,7.25.64-.19,1.29-.47,1.96-.54,1.65-.17,2.98.23,4.47.87,1.71-.9,3.58-1.1,5.47-.68ZM100.93,15.05c-1.36-2.85-3.24-5.62-6.05-7.2-1.96,1.07-3.58,2.86-4.75,4.75-.28.45-.96,1.55-1.1,2-.05.16.01.16.15.15.32-.02.67-.18,1-.2,1.55-.1,2.94.17,4.31.88,2.1-1,4.22-1.18,6.43-.38ZM31.1,21.68c-2.62.32-3.42,3.05-4.97,4.53-1.35,1.28-3.58,2.14-4.28,4.12-1.04,2.94,1.18,4.67,3.25,6.21s4.28,2.81,6.48,4.08c.98-.48,1.92-1.05,2.84-1.62.7-.43,2.18-1.27,2.71-1.79s1.41-2.07,1.84-2.76c.57-.92,1.13-1.87,1.64-2.82-1.11-1.98-2.29-3.95-3.6-5.8-1.48-2.09-2.99-4.49-5.9-4.14ZM93.9,21.68c-1.99.24-3.57,2.61-4.66,4.14-.46.64-3.66,5.53-3.6,5.86.72,1.18,1.38,2.4,2.14,3.56.34.52.94,1.58,1.34,1.96.53.52,2.01,1.36,2.71,1.79.93.57,1.86,1.14,2.84,1.62,1.39-.77,2.77-1.59,4.1-2.46,3.92-2.56,8.94-5.78,3.59-10.3-.66-.56-1.67-1.1-2.25-1.65-.84-.8-1.57-2.31-2.49-3.21-1.06-1.04-2.22-1.5-3.73-1.32ZM15.13,25.36c-2.92,1.26-5.7,3.25-7.3,6.05,1.53,2.74,4.2,4.57,6.95,5.95,0-.46-.21-.9-.25-1.35-.08-.94.02-1.73.27-2.62.1-.35.61-1.46.6-1.66-.01-.33-.61-1.51-.73-2.07-.3-1.43-.19-2.98.45-4.3ZM111.43,37.35c2.78-1.34,5.46-3.21,7-5.95-1.59-2.8-4.36-4.74-7.25-6.05.11.41.29.8.38,1.22.23,1.05.24,2.04.02,3.09-.12.55-.72,1.74-.73,2.07,0,.24.6,1.53.7,1.95.3,1.23.23,2.47-.13,3.68ZM77.92,28.25c-.82.82-2.11,1.12-3.25,1.2-3.44.25-7.03,0-10.35,1.15-.46.16-.7.47-1.25.46-.44-.01-1.34-.54-1.91-.7-3.13-.87-6.4-.67-9.6-.9-1.13-.08-2.42-.38-3.25-1.2-.06.07.54.95.58,1.17.17.87-1.58,1.72-2.18,2.17.48.38,2.36,1.51,2.25,2.16-.04.22-.77,1.15-.65,1.29,1.67-1.67,4.31-1.17,6.45-1.3,1.99-.12,5.03-.38,6.9-1,.43-.14,1.09-.61,1.5-.59.38.02,1,.45,1.41.59,1.86.62,4.9.89,6.9,1,2.14.13,4.77-.37,6.45,1.3.12-.14-.61-1.07-.65-1.29-.13-.75,2.34-2.08,2.25-2.21-.52-.28-1.91-1.13-2.12-1.63-.27-.62.36-1.12.52-1.67ZM6.42,35.16c-.26-.03-.16,0-.2.15-.76,2.5-1.14,6.9-.51,9.42.33,1.31.91,2.81,2.46,2.94,6,.15,12.12-.21,18.11,0,.33.01.62.12.94.1l-1.4-.85c-4.39-.94-8.97-2.33-12.83-4.67-2.81-1.7-4.89-4.29-6.57-7.08ZM120.02,35.15c-.23-.06-.16.05-.23.13-1.12,1.42-1.98,2.96-3.27,4.33-3.91,4.15-10.69,6.06-16.1,7.3l-1.4.85c.33.02.62-.09.94-.1,5.99-.21,12.1.16,18.11,0,1.55-.13,2.13-1.63,2.46-2.94.75-2.99.1-6.59-.51-9.56ZM47.63,47.65l.05-11.6c-.19.46-.67.92-.82,1.38-.31.96-.47,2.3-.76,3.34-.37,1.35-.83,2.67-1.32,3.98-2.01.86-4.15,1.39-6.27,1.93-.37.09-.87.11-1.18.22-.39.13-.84.66-1.3.75.01.26.39,0,.45,0h11.15ZM78.63,47.65h11.15c.06,0,.44.26.45,0-.45-.09-.91-.62-1.3-.75-.32-.11-.82-.12-1.18-.22-2.12-.54-4.25-1.07-6.27-1.93-.55-1.43-1.01-2.9-1.42-4.38-.26-.92-.39-2.11-.66-2.94-.15-.46-.63-.92-.82-1.38l.05,11.6ZM86.18,54.15h-13.9l-.15-.15v-13.8c0-.56-.64-1.18-1.14-1.36-.57-.2-1.67-.27-2.3-.3-2.25-.11-4.56,0-6.8,0-1.81.01-4.7-.22-6.37.23-.61.16-1.38.73-1.38,1.42v13.8l-.15.15h-13.9c-.47,0-1.06.64-1.23,1.07-.23.61-.29,1.79-.32,2.48-.13,2.76-.12,6.15,0,8.91.03.81.09,2.06.43,2.77.18.38.8.88,1.22.88h13.8l.15.15v13.8c0,.9,1.22,1.43,1.98,1.52,2.62.31,5.44.14,8.07.12,1.95-.01,4.05.1,5.98-.12.66-.08,1.42-.33,1.77-.93.04-.07.21-.55.21-.59v-13.8l.15-.15h13.8c.44,0,1.09-.54,1.27-.93.29-.63.35-1.89.38-2.61.13-2.94.27-7.77-.12-10.59-.12-.85-.47-1.8-1.44-1.96ZM35.03,48.36c-.58.07-1.03.76-1.63.58-.49-.15-1.75-2.26-1.87-2.18-.28.52-1.13,1.91-1.63,2.12-.69.3-1.51-.67-1.67-.52,1.44,1.45,1.08,3.43,1.2,5.25.08,1.35.15,4.4.55,5.55.22.63,1.14,1.33,1.03,2.12-.04.29-.28.61-.28.93,0,.36.29.67.31,1,.03.71-.88,1.5-1.08,2.12-.65,1.99-.34,5.59-.54,7.76-.1,1.05-.43,2.19-1.19,2.96.08.06,1.07-.61,1.29-.65.61-.11,1.77,1.71,2.01,2.25.13.09,1.46-2.38,2.21-2.25.25.04,1.16.76,1.29.65-1.66-1.68-1.17-4.4-1.3-6.55-.07-1.11-.15-2.96-.41-3.99-.2-.81-1.13-1.43-1.1-2.31.01-.4.3-.7.31-1.01,0-.28-.23-.53-.27-.81-.17-1.03.85-1.6,1.07-2.49.65-2.62.13-5.8.64-8.46.16-.85.44-1.49,1.07-2.08ZM98.03,48.36c-.17-.14-.99.82-1.67.52-.5-.22-1.35-1.61-1.63-2.12-.12-.08-1.38,2.03-1.87,2.18-.6.18-1.05-.51-1.63-.58,1.68,1.67,1.18,4.4,1.3,6.55.06,1.01.18,3.35.48,4.22.25.76,1.17,1.26,1.02,2.27-.04.29-.3.49-.29.8s.29.61.31,1.01c.03.88-.9,1.5-1.1,2.31-.66,2.66-.1,5.87-.66,8.54-.17.82-.46,1.41-1.05,2,.13.11,1.04-.6,1.29-.65.64-.11,1.78,1.77,2.16,2.25.33-.5,1.41-2.36,2.06-2.25.22.04,1.21.71,1.29.65-.75-.77-1.09-1.91-1.19-2.96-.2-2.18.12-5.75-.54-7.76-.19-.58-1.07-1.41-1.08-2.03,0-.35.31-.74.31-1.1,0-.32-.24-.64-.28-.93-.11-.79.82-1.49,1.03-2.12.39-1.13.47-4.13.55-5.45.11-1.85-.27-3.88,1.2-5.35ZM27.13,76.65H8.48c-.49,0-1.46.43-1.79.81-.56.63-.99,2.14-1.12,2.98-.47,2.86.08,6.01.67,8.82,1.16-1.4,2.11-2.96,3.35-4.3,3.23-3.5,8.71-5.52,13.23-6.77.95-.26,2.15-.4,3.02-.68.38-.12.97-.59,1.3-.85ZM47.63,76.65h-11.6l1.38.87c2.5.43,4.97,1.14,7.32,2.08.5,1.03.83,2.15,1.15,3.25.38,1.31.58,2.91.98,4.12.15.47.66.9.82,1.38l-.05-11.7ZM90.23,76.65h-11.6l-.05,11.7c.19-.46.67-.92.82-1.38.39-1.21.59-2.81.98-4.12.15-.51.9-3.02,1.15-3.25,2.35-.94,4.82-1.65,7.32-2.08l1.38-.87ZM117.78,76.65h-18.65c.33.26.92.73,1.3.85.87.28,2.07.41,3.02.68,4.52,1.26,10,3.27,13.23,6.77,1.23,1.34,2.19,2.91,3.35,4.3.66-3.28,1.51-7.85.05-11-.45-.96-1.24-1.49-2.3-1.6ZM31.59,83.78c-1.2.65-2.37,1.35-3.52,2.08-3.94,2.51-9.7,5.88-4.3,10.6.69.61,1.75,1.15,2.35,1.75s1.18,1.69,1.8,2.4c4.62,5.29,7.88-.1,10.4-4,.81-1.24,1.55-2.53,2.28-3.82-.45-.86-.94-1.7-1.44-2.52-.46-.75-1.48-2.52-2.04-3.06s-2.24-1.52-3.01-1.99c-.33-.2-2.36-1.45-2.52-1.44ZM94.59,83.78c-1.09.64-2.2,1.25-3.26,1.94-.58.37-1.83,1.1-2.26,1.54-.65.67-1.76,2.63-2.29,3.51-.4.66-.78,1.34-1.14,2.02.73,1.29,1.47,2.58,2.28,3.82,2.52,3.89,5.78,9.29,10.4,4,.61-.69,1.15-1.75,1.75-2.35s1.7-1.19,2.4-1.8c2.81-2.45,3.02-4.91.15-7.45-.79-.7-7.51-5.32-8.03-5.23ZM15.13,99.05c-.65-1.33-.75-2.86-.45-4.3.11-.54.72-1.78.73-2.07,0-.2-.5-1.3-.6-1.66-.25-.89-.36-1.69-.27-2.62.04-.45.25-.9.25-1.35-2.74,1.35-5.43,3.2-6.93,5.93,1.58,2.82,4.37,4.79,7.28,6.07ZM111.13,99.05c2.91-1.28,5.7-3.25,7.28-6.07-1.5-2.74-4.19-4.59-6.93-5.93,0,.46.21.9.25,1.35.08.94-.02,1.73-.27,2.62-.1.35-.61,1.46-.6,1.66,0,.29.61,1.53.73,2.07.3,1.44.2,2.97-.45,4.3ZM77.92,89.35c-1.7,1.67-4.47,1.17-6.65,1.3-2,.12-4.91.39-6.78,1.02-.51.17-.71.47-1.32.48-.69.02-.86-.3-1.42-.48-3.54-1.19-7.23-.65-10.75-1.15-1-.14-1.97-.41-2.68-1.17-.11.13.6,1.04.65,1.29.12.72-1.84,1.7-2.25,2.21.48.21,1.94,1.16,2.15,1.6.29.64-.68,1.54-.55,1.7.81-.79,2.04-1.12,3.15-1.2,3.42-.25,7.08-.01,10.38-1.12.48-.16.76-.5,1.32-.49.45.01,1.03.42,1.53.58,3.18,1.01,6.8.78,10.08,1.02,1.11.08,2.34.41,3.15,1.2.13-.16-.84-1.06-.55-1.7.19-.41,1.69-1.41,2.15-1.6-.41-.51-2.37-1.49-2.25-2.21.04-.25.76-1.16.65-1.29ZM7.98,109.25h7l.15.15v7c0,.13.26.7.36.84,1.44,2.14,6.84,1.8,9.08,1.49,1.03-.14,2.04-.41,3.06-.59.06-.23-.05-.16-.13-.23-1.14-.9-2.44-1.64-3.57-2.62-2.86-2.47-4.45-5.52-5.79-9.01-3.5-1.42-6.56-2.95-9.06-5.84-.98-1.14-1.72-2.43-2.62-3.57-.06-.08,0-.18-.23-.13-.64,3.07-1.31,6.81-.43,9.88.31,1.07.93,2.45,2.18,2.62ZM111.13,116.4v-7l.15-.15h7c.49,0,1.27-.67,1.53-1.07,1.84-2.71.87-8.39.22-11.43-.23-.06-.16.05-.23.13-.9,1.14-1.64,2.44-2.62,3.57-2.5,2.89-5.56,4.43-9.06,5.84-1.35,3.49-2.93,6.54-5.79,9.01-1.14.98-2.43,1.72-3.57,2.62-.08.06-.18,0-.13.23,3.2.64,7,1.36,10.18.33.98-.32,2.16-.93,2.32-2.08ZM46.99,117.62c.33-.33.62-.93.64-1.41.15-6-.21-12.12,0-18.11.01-.33.12-.62.1-.94l-.85,1.4c-.92,4.42-2.35,9.03-4.71,12.89-1.69,2.78-4.29,4.85-7.04,6.51-.03.26,0,.16.14.2,2.67.78,9.62,1.55,11.72-.54ZM91.13,117.96c-2.78-1.68-5.38-3.76-7.08-6.57-2.33-3.85-3.76-8.44-4.67-12.83l-.85-1.4c-.02.33.09.62.1.94.21,5.99-.16,12.1,0,18.11.13,1.55,1.63,2.13,2.94,2.46,2.55.64,6.88.24,9.42-.51.14-.04.17.06.14-.2ZM37.33,109.56c-1.35.42-2.62.41-3.98.03-.35-.1-1.46-.61-1.66-.6-.29,0-1.53.61-2.07.73-1.5.31-2.89.14-4.3-.4,1.32,2.88,3.25,5.66,6.07,7.23,2.73-1.53,4.61-4.2,5.93-6.98ZM100.92,109.25c-1.33.63-2.87.76-4.3.45-.55-.12-1.74-.72-2.07-.73-.2,0-1.3.5-1.66.6-.89.25-1.69.36-2.62.27-.45-.04-.9-.25-1.35-.25,1.36,2.75,3.2,5.41,5.93,6.93,2.82-1.57,4.79-4.37,6.07-7.28Z"/>
  <path fill="#FFFFFF" d="M63.21,17.48c3.16-.25,4.12,4.1,1.37,5.28-4.05,1.74-5.66-4.94-1.37-5.28Z"/>
  <path fill="#FFFFFF" d="M68.1,9.38c3.84-.35,4.04,5.52.27,5.52-3.48,0-3.83-5.19-.27-5.52Z"/>
  <path fill="#FFFFFF" d="M57.6,9.38c3.93-.36,4.08,5.52.27,5.52-3.47,0-3.71-5.2-.27-5.52Z"/>
  <path fill="#FFFFFF" d="M63.1,101.38c3.76-.35,4.29,5.51.27,5.52-3.59,0-3.58-5.2-.27-5.52Z"/>
  <path fill="#FFFFFF" d="M57.71,109.48c3.69-.26,4.06,5.59.17,5.58-3.54-.01-3.65-5.33-.17-5.58Z"/>
  <path fill="#FFFFFF" d="M68.21,109.48c3.63-.26,3.98,5.56.17,5.58-3.61.01-3.72-5.32-.17-5.58Z"/>
  <path fill="#FFFFFF" d="M11.91,63.68c3.56-.25,4.09,5.27.47,5.58s-4.06-5.32-.47-5.58Z"/>
  <path fill="#FFFFFF" d="M11.6,55.18c2.08-.29,3.78,1.5,3.15,3.55-.78,2.59-4.6,2.64-5.3-.06-.4-1.54.5-3.27,2.15-3.49Z"/>
  <path fill="#FFFFFF" d="M19.8,59.78c4.15-.66,4.5,4.93,1.15,5.45-3.82.6-4.26-4.96-1.15-5.45Z"/>
  <path fill="#FFFFFF" d="M114.01,63.68c3.53-.25,3.92,5.28.47,5.58-3.87.33-4.15-5.31-.47-5.58Z"/>
  <path fill="#FFFFFF" d="M113.6,55.18c4.25-.68,4.49,6.08-.02,5.47-2.85-.39-2.96-4.99.02-5.47Z"/>
  <path fill="#FFFFFF" d="M105.4,59.48c3.22-.55,4.58,3.32,2.22,5.02s-5.35-1.01-4.07-3.57c.31-.62,1.17-1.33,1.86-1.44Z"/>
  <path fill="#FFFFFF" d="M74.31,62.98c3.57-.13,3.98,5.27.37,5.58s-3.93-5.44-.37-5.58Z"/>
  <path fill="#FFFFFF" d="M51.71,62.98c3.81-.14,3.74,6-.22,5.57-3.41-.38-3.14-5.44.22-5.57Z"/>
  <path fill="#FFFFFF" d="M58.1,49.08c3.75-.54,4.46,4.91,1.05,5.45-4.03.63-4.37-4.97-1.05-5.45Z"/>
  <path fill="#FFFFFF" d="M67.1,69.88c4.56-.67,4.2,6.06.12,5.43-3.02-.47-3.12-4.99-.12-5.43Z"/>
  <path fill="#FFFFFF" d="M51.3,55.88c3.94-.58,4.21,4.96,1.15,5.45-4.03.64-4.54-4.95-1.15-5.45Z"/>
  <path fill="#FFFFFF" d="M58,69.88c4.19-.61,4.41,5.11.86,5.46s-4.15-4.98-.86-5.46Z"/>
  <path fill="#FFFFFF" d="M73.9,55.88c3.08-.45,4.59,3.34,2.06,5.06-.82.56-2.1.59-2.95.08-2.08-1.25-1.57-4.78.89-5.14Z"/>
  <path fill="#FFFFFF" d="M67.2,49.08c3.72-.54,4.38,4.93,1.05,5.45-4.02.63-4.45-4.96-1.05-5.45Z"/>
  <path fill="#FFFFFF" d="M31.13,93.25c2.49-.25,4.01,2.93,2.25,4.7s-5.01.37-4.75-2.2c-2.16.16-3.69-2.02-2.74-3.99,1.32-2.75,5.5-1.47,5.24,1.49Z"/>
  <path fill="#FFFFFF" d="M97.63,95.75c.15,2.08-1.79,3.56-3.77,2.82-2.96-1.11-1.84-5.58,1.27-5.32-.2-2.33,2.53-3.9,4.43-2.48,2.21,1.65.84,5.23-1.93,4.98Z"/>
  <path fill="#FFFFFF" d="M31.13,31.15c.25,2.55-3.07,4.06-4.8,2.15s-.23-4.88,2.3-4.65c-.25-2.56,2.87-4.04,4.7-2.25s.32,4.97-2.2,4.75Z"/>
  <path fill="#FFFFFF" d="M97.63,28.65c2.18-.18,3.69,2.01,2.74,3.99-1.31,2.72-5.5,1.48-5.24-1.49-2.52.22-4.04-2.96-2.2-4.75s4.97-.32,4.7,2.25Z"/>
</svg>