<?xml version="1.0" encoding="UTF-8"?>
<svg id="Layer_1" data-name="Layer 1" xmlns="http://www.w3.org/2000/svg" viewBox="0 0 125.72 124.9">
  <path d="M54.02,0c3.88.71,6.11,4.23,8.85,6.7,2.74-2.42,4.89-5.99,8.75-6.7h1.9c.55.18,1.14.2,1.7.35,3.59.93,6.8,3.66,9.35,6.25.22.04.12-.04.16-.14,1.33-2.97,4.66-4.69,7.49-2.41,3.56,2.86,1.61,8.54-2.9,8.65l2.2,3.9c2.51-2.01,5.29-4.46,8.42-5.43.66-.2,2.46-.74,2.88-.03.27.46-.04,3.46-.12,4.19-.14,1.39-.74,6.05-1.49,7.01-.42.55-2.32,1.22-3.07,1.63-.34.19-2.4,1.44-2.49,1.62-.08.17-.03.25,0,.4.07.41.61,2.04.78,2.42.05.11.08.15.18.22.11.08,2.42.82,2.57.84.09,0,.13.03.22-.03.24-.15,1.5-2.28,1.72-2.69.35-.65,1.07-2.58,1.49-2.91.64-.52,3.35-.97,4.28-1.12,1.07-.17,2.19-.32,3.27-.43.84-.08,2.54-.3,3.3-.2,1.22.15.77,1.66.56,2.46-.84,3.28-3.42,6.39-5.61,8.89l5.8,3.55c-1.22-5.09,5.24-8.24,8.5-4.15,2.57,3.23-.18,7.82-4.1,7.8,2.54,2.47,4.98,5.44,6.03,8.87.26.84.8,2.39.95,3.15.05.27-.07.62.12.83v.1l-.4,1.75c-.46,1.24-1.57,2.18-2.7,2.8l-4.09,4.12c1.72,2.16,4.46,3.95,5.73,6.45,1.66,3.26.46,6.93-1.34,9.84-1.2,1.94-2.73,3.77-4.4,5.3,3.95-.08,6.8,4.53,4.2,7.8-2.99,3.75-8.96,1.52-8.6-3.4.02-.3.21-.58.15-.85l-5.75,3.55c2.07,2.63,4.7,5.53,5.55,8.85.17.67.64,2.36-.32,2.58-2.79-.06-5.71-.33-8.45-.91-.66-.14-1.7-.33-2.28-.62-.78-.39-1.17-1.93-1.58-2.72-.56-1.07-1.26-2.07-1.92-3.09-.1-.08-.21-.04-.32-.03-.23.03-2.65.8-2.75.91l-.88,2.88c1.12.8,2.3,1.55,3.52,2.19.75.39,1.99.61,2.39,1.41.23.46.4,1.26.52,1.78.66,2.87.94,6.01,1.01,8.95-.22.98-1.98.48-2.65.3-3.29-.89-6.25-3.5-8.82-5.63-1.47,2.84-3.21,5.55-5.2,8.05l1.95-.55c6.2-.32,7.21,8.24,1.25,9.6h-1.3c-3.13-.56-5.22-3.75-3.9-6.8-3.12,3.14-7.64,6.72-12.35,6.4-3.97-.27-6.37-4.21-9.1-6.6-2.66,2.36-5.22,6.32-9.1,6.6-4.75.35-9.16-3.21-12.35-6.3,1.14,3.08-.82,6.03-3.9,6.7h-1.4c-3.96-.84-5.43-5.79-2.25-8.5,1.22-1.04,2.78-1.35,4.33-.93.37.1.7.35.97.43.14.04.18-.01.15-.15-2-2.4-3.66-5.09-5.1-7.85l-.3.05c-2.34,2.03-5.28,4.51-8.3,5.4-.74.22-2.85.85-2.98-.33.1-1.93.22-3.85.5-5.76.15-1.03.69-4.55,1.28-5.22.39-.43,2.2-1.07,2.87-1.43.37-.2,2.69-1.63,2.79-1.82.13-.25-.76-2.4-.85-2.86l-2.68-.93c-.12-.04-.21-.02-.32.03-.26.12-1.6,2.38-1.82,2.78-.39.73-.97,2.47-1.53,2.87-1.07.75-5.83,1.35-7.3,1.5-.91.09-2.77.32-3.59.2-1.07-.16-.57-1.87-.38-2.57.9-3.35,3.49-6.28,5.63-8.92l-5.8-3.5c1.37,4.97-5.01,8.36-8.35,4.4-2.75-3.25.03-7.98,4.05-7.95-2.64-2.55-4.95-5.49-6.07-9.03-.24-.76-.32-1.19-.63-1.97-.15-.38-.27-.76-.4-1.15.04-.48-.06-1.04,0-1.5.21-1.68,1.76-3.35,3.3-3.95l3.89-3.92c-3.02-3.59-7.37-5.7-6.58-11.17.58-4.05,3.6-7.71,6.39-10.51-3.91-.03-6.61-4.61-4.04-7.84,3.22-4.05,9.78-.82,8.44,4.19l5.8-3.55c-2.1-2.48-4.66-5.48-5.52-8.67-.19-.72-.71-2.5.38-2.67.56-.09,1.86.05,2.49.1,2.08.16,4.76.52,6.77,1.03.69.18,1.54.32,1.96.94.5.71.93,2.05,1.4,2.9s1.05,1.6,1.53,2.42l2.92-.88.95-3c-1.11-.71-2.21-1.46-3.39-2.07-.83-.44-2.07-.61-2.48-1.52-.88-1.91-1.45-7.56-1.53-9.77-.07-1.99,1.21-1.58,2.68-1.18,3.24.87,6.19,3.44,8.72,5.53l2.2-3.9c-4.34-.13-6.37-5.53-3.1-8.45,2.74-2.45,6.68-.87,7.85,2.35,2.51-2.5,5.65-5.2,9.13-6.17.53-.15,1.4-.38,1.92-.43h1.9ZM51.2,12.73c-1.24.09-2.74.87-3.81,1.49-3.21,1.87-5.56,4.78-7.87,7.63,0,.12,1.62,1.46,1.86,1.63,2.41,1.69,3.4,1.12,5.38-.68,2.84-2.57,5.42-5.63,8.25-8.25-.99-1.1-2.28-1.94-3.82-1.82ZM73.8,12.73c-1.16.11-2.39.88-3.07,1.81l9.4,9.3c2.15,1.74,4.44-.45,5.95-1.94.16-.36-4.35-5.12-4.96-5.65-1.62-1.42-5.13-3.73-7.32-3.52ZM68.02,27.6l-5.16-5.19-5.14,5.14,5.06,2.05,5.24-2ZM45.92,37.3c-3.27-.15-5.37-2.93-7.66-4.88-.61.03-4.43.37-4.64.75-.18.82-.39,1.65-.49,2.49-.05.47-.21,1.57-.09,1.97.07.23,1.91,2,2.23,2.37,1.25,1.46,2.58,3.2,2.65,5.2,1-.74.15-2.12,1.75-2.3.48-.05,1.14.14,1.47.08.61-.1,1.55-.83,2.25-.91.7-1.08-.33-2.67.34-3.71.41-.64,1.81-.34,2.19-1.06ZM87.82,45.2c.06-3.08,2.81-5.4,4.81-7.44l.09-.21c-.18-1.47-.22-2.98-.7-4.4-1.45-.54-3.03-.56-4.56-.74l-.2.08c-1.56,1.5-3.64,3.76-5.72,4.49-.55.19-1.02.16-1.51.29-.1.03-.3,0-.22.18.15.3,1.42.46,1.77.63,1.21.59-.08,3.19.73,3.97.32.31,1.74.56,2.17.93.69-.09,2.15-.29,2.5.49.23.52.13,1.57.83,1.72ZM22.47,38.9c-2.78,2.29-5.58,4.49-7.49,7.61-1.63,2.67-2.75,5.45.01,7.88l.28-.08c2.57-2.8,5.61-5.34,8.15-8.15.41-.46,1.27-1.38,1.49-1.91.85-2.05-1.16-3.98-2.44-5.34ZM103.17,38.91c-1.94,2.18-3.85,3.89-1.45,6.65,2.62,3.01,6.01,5.7,8.7,8.7l.24.14c1.92-1.73,2.15-3.49,1.15-5.83-1.73-4.06-5.27-6.99-8.64-9.66ZM74.1,50.92c-3.72-1.07-7.5-1.93-11.32-2.61-3.78.71-7.54,1.56-11.24,2.61-.52,1.92-1.05,3.84-1.47,5.78-.19.87-.53,2.03-.62,2.88-.16,1.54.93,5.71,1.32,7.42.44,1.94.97,3.86,1.47,5.78,1.75.5,3.51.96,5.28,1.37,1.31.3,4.15,1.11,5.35,1.09,1.42-.02,4.62-.93,6.15-1.29s2.93-.73,4.38-1.17c1.23-4.21,2.17-8.5,2.9-12.83-.64-3.03-1.29-6.07-2.2-9.03ZM28.22,67.5c.5-1.77,1.27-3.45,1.96-5.15l-2.11-5.25-5.14,5.23,5.29,5.16ZM97.52,57.1c-.53,1.8-1.34,3.5-2.01,5.25l2.06,5.15,5.14-5.23-5.19-5.16ZM14.99,70.21c-1.93,1.76-1.98,3.64-.96,5.93,1.75,3.89,5.13,6.79,8.44,9.35,1.06-1.05,2.6-2.64,2.55-4.24-.03-1.18-.84-1.84-1.5-2.7l-8.25-8.25-.28-.08ZM110.58,70.21l-8.87,8.84c-2.31,2.28-.34,4.6,1.4,6.41.15.07,1.51-1.06,1.75-1.26,2.62-2.13,5.21-4.74,6.67-7.83,1.09-2.3,1.21-4.48-.95-6.16ZM39.39,80.13c-.24-.27-1.24-.72-1.57-1.03-.04,3.15-2.73,5.48-4.75,7.59-.03.66.33,4.5.75,4.75,1.45.37,2.94.53,4.43.64,2.18-2.06,4.44-4.73,7.67-4.89-1.08-1.07-1.82-2.3-2.49-3.66-.19-.4-.56-1.6-.77-1.83-.07-.08-1.7-.77-1.95-.85-.92-.33-.59.13-1.33-.72ZM92,91.38c.3-1.52.61-3.05.6-4.61-1.94-2.29-4.67-4.38-4.78-7.67-.44.37-1.01.64-1.45,1-.17.14-.22.4-.46.54-.34.2-.67.1-1,.2-.59.19-1.26.65-1.89.81-.75,2.03-1.73,3.95-3.2,5.55,3.24.18,5.41,2.89,7.66,4.88,1.52-.12,3.06-.24,4.52-.7ZM68.02,96.9l-5.23-1.98-5.17,2.03,5.24,5.24,5.16-5.29ZM43.5,100.03c-1.54.14-2.86,1.58-3.97,2.52,2.28,2.83,4.61,5.73,7.77,7.63,2.58,1.55,5.41,2.66,7.63-.13l-8.5-8.6c-.92-.72-1.64-1.54-2.92-1.42ZM81.7,100.03c-.82.07-1.35.54-1.98,1.02l-8.99,9.09c2.48,2.69,5.15,1.57,7.82-.06,2.13-1.3,4-3.19,5.62-5.08.67-.79,1.31-1.62,1.92-2.45-1.09-1.08-2.75-2.67-4.4-2.52Z"/>
  <path d="M62.92,55.8c1.39-2.59,4.88-3.02,7.05-1.1,2.44,2.15,2.14,5.77-.55,7.55,5.14,4.44-1.91,11.75-6.57,6.76-.82.69-1.44,1.3-2.53,1.55-4.83,1.1-7.98-5.16-4.11-8.3-6.16-4.78,2.1-12.7,6.7-6.45ZM63.72,62l-.8-1.1-.89.96.76.83c.23.04.62-.72.94-.69Z"/>
</svg>