<?xml version="1.0" encoding="UTF-8"?>
<svg id="Layer_1" data-name="Layer 1" xmlns="http://www.w3.org/2000/svg" viewBox="0 0 125.91 125.51">
  <path d="M41.61,0c3.78.73,6.67,3.86,8.7,6.95,1.87,2.84,3.34,5.94,4.22,9.23,3.01.77,5.8,2.11,8.45,3.7,2.64-1.63,5.45-2.87,8.43-3.73.87-3.02,2.11-5.78,3.76-8.44,2.09-3.37,5.08-6.87,9.14-7.71h1.2c.91.23,1.69.65,2.4,1.25,4.14,3.49,7.84,8.33,11.95,11.95,1.03.86,1.68.79,2.74.04,2.9-2.04,5.24-6.05,9.01-6.99.85-.21,1.56-.43,1.5.7s-.22,2.49-.42,3.59c-.09.52-.31,1.8-.63,2.17-.18.21-1.9.97-2.35,1.25-1.52.94-3.16,2.31-4.51,3.49-1.61,1.4-3.1,3.55-5.4,3.65l1.23.42c.41.18.3,1.02.27,1.43-.04.54-.24,1.11-.3,1.65.6-.17,2.7-.7,3.05-.1.17.31.25,1.03.35,1.4l.25-1.3c1.97-3.22,4.99-5.51,6.99-8.81.27-.45,1.01-2.12,1.21-2.29.47-.42,3.36-.81,4.12-.88.43-.04,2.25-.28,2.44.06.39.71-.65,2.74-1.06,3.42-1.64,2.73-4.05,4.29-5.84,6.66-.9,1.19-1.12,1.79-.11,3,3.5,4.16,8.38,7.87,12,12,3.42,4.14-1.66,9.28-4.97,11.63-2.99,2.12-6.47,3.78-10.01,4.74-.84,3.07-2.18,5.91-3.82,8.63,1.65,2.71,2.98,5.56,3.81,8.63,3.19.79,6.12,2.22,8.87,3.98,3.74,2.39,9.91,7.91,5.96,12.54-3.5,4.1-8.4,7.74-11.85,11.85-1.01,1.19-.8,1.82.1,3,2.01,2.63,4.9,4.4,6.38,7.62.24.52.91,2.16.37,2.54-.32.23-2.46-.05-2.99-.12-.67-.09-2.97-.42-3.42-.78-.17-.14-.76-1.58-.97-1.93-1.97-3.47-5.18-5.84-7.23-9.17l-.25-1.3c-.1.37-.18,1.09-.35,1.4-.35.61-2.44.04-3.05-.1.07.53.26,1.12.3,1.65.03.41.13,1.24-.27,1.43l-1.33.42c2.3-.02,3.82,2.17,5.4,3.55,1.71,1.49,3.52,2.98,5.5,4.1,1.21.68,1.47.25,1.87,1.83.33,1.28.62,3.46.64,4.77.02,1.61-2.73.14-3.44-.27-2.89-1.66-4.56-4.37-7.08-6.12-1.1-.77-1.7-.83-2.74.04-4.11,3.44-7.75,8.35-11.85,11.85-.8.69-1.56,1.11-2.6,1.35h-.9c-.72-.15-1.38-.3-2.07-.58-5.45-2.26-9.43-10.21-11.03-15.57-2.99-.87-5.8-2.12-8.45-3.75-2.62,1.64-5.44,2.89-8.43,3.72-.94,3.4-2.45,6.61-4.42,9.53s-4.92,6-8.6,6.65c-.32-.03-.69.04-1,0-.67-.09-1.67-.62-2.2-1.05-4.07-3.68-7.74-8.26-11.85-11.85-1.24-1.09-1.83-1.3-3.24-.24-2.67,2-4.42,4.91-7.67,6.43-.46.21-2.27.95-2.59.42-.3-.5.33-4.59.54-5.36.08-.29.22-.88.41-1.09s1.54-.74,1.93-.97c1.55-.88,3.32-2.35,4.67-3.53,1.68-1.47,3.31-3.8,5.7-3.85l-1.38-.42c-.54-.94.06-2.07.08-3.08-.55.17-2.6.62-2.98.18l-.42-1.28c-.19,2.25-2.26,3.71-3.65,5.3-1.24,1.41-2.75,3.2-3.69,4.81-.29.5-.81,1.9-1.16,2.14-.59.41-3.32.78-4.15.85-.43.04-2.04.23-2.26-.04-.51-.65.68-2.91,1.07-3.55,1.49-2.43,3.59-4.02,5.39-6.11,1.3-1.5,1.65-2.15.25-3.75-3.57-4.1-8.19-7.78-11.85-11.85-2.86-3.45.76-7.97,3.45-10.25,3.3-2.8,7.54-4.79,11.65-6.05.84-3.04,2.15-5.89,3.82-8.55-1.67-2.68-2.97-5.5-3.82-8.55-3.79-1.19-7.47-2.85-10.64-5.26-2.95-2.24-7.58-7.21-4.51-10.99,3.66-4.02,8.11-7.66,11.7-11.7,1.07-1.2,1.58-1.72.54-3.24-2-2.92-6-5.19-6.97-8.93-.13-.51-.49-1.48.27-1.58,1.04-.14,4.1.34,5.18.63.44.12.91.23,1.16.64.37.59.65,1.45,1.07,2.13,1,1.63,2.33,3.17,3.59,4.61,1.37,1.57,3.38,2.95,3.55,5.2l.42-1.23c.37-.62,2.35.08,2.98.03.1-.1-.57-2.18-.18-2.83l1.48-.57c-2.43-.1-4.09-2.45-5.8-3.95-1.53-1.34-3.42-2.83-5.2-3.8-1.2-.66-1.34-.19-1.74-1.76-.21-.82-.8-4.7-.52-5.28.19-.4,1.02-.13,1.35-.05,1.73.43,3.78,2.01,5.1,3.2,1.11.99,3.81,4.22,5.15,4.35.94.09,1.45-.51,2.1-1.1,4.36-3.9,8.04-8.65,12.61-12.29l1.14-.41h1.2ZM50.41,15.1c.2-.18-1.96-3.05-2.2-3.35-1.09-1.35-2.36-2.75-3.87-3.63-1.4-.82-2.86-1.47-4.18-.12l-12.85,12.8c.46-.08,1.18-.16,1.59-.36.76-.35,1.91-1.28,2.74-1.76,2.8-1.6,6.34-3.2,9.49-3.91s6.16-.29,9.28.33ZM98.61,20.8l-12.95-12.9c-1.26-1.18-2.59-.62-3.88.12-2.58,1.48-4.73,4.54-6.27,7.03.71,0,1.45-.23,2.17-.33,6.2-.92,10.76.71,16.1,3.67.99.55,2.5,1.72,3.41,2.09.41.17.98.22,1.42.32ZM51.99,18.72c-2.93-.84-6.04-.25-8.88.68,1.72,1.07,2.76,2.47,3.43,4.37,2.07.64,3.82,2.06,4.57,4.13l.3-.65c.87-2.73,1.35-5.72.58-8.53ZM82.91,19.4c-2.9-.91-5.99-1.52-8.99-.69-.64,3.06-.31,6.32.94,9.19.74-2.05,2.53-3.45,4.55-4.15.58-1.35,1.19-2.59,2.35-3.55l1.15-.8ZM69.61,26.1c.09-1.99.37-3.96.8-5.9l-3.6,2.4,2.8,3.5ZM56.41,26.2c.63-1.31,1.71-2.5,2.8-3.45-.29-.33-3.41-2.65-3.6-2.45l.8,5.9ZM15.51,50.1c-.43-2.43-.97-5.07-.7-7.55.36-3.3,2.29-7.7,3.88-10.62.58-1.06,1.71-2.49,2.14-3.46.2-.44.26-1.09.38-1.57l-12.8,12.85c-2.23,2.24.99,5.66,2.7,7.2,1.32,1.19,2.85,2.28,4.4,3.15ZM41.49,41.08c.52-1.91,1.02-3.83,1.37-5.77.48-2.67,1.4-6.25-1.42-7.88-1.97-1.14-5.94-.16-8.15.31-.51.11-3.99.9-4.13,1.07-.44,1.47-.81,2.97-1.12,4.48-.41,2.01-1.29,5.84-.31,7.65,1.34,2.46,3.82,2.18,6.22,1.86,2.52-.34,5.1-1.04,7.54-1.71ZM85.79,26.93c-2.66.36-3.32,2.94-3.17,5.22.19,2.89,1.17,6.04,1.85,8.85.2.27,3.73,1.05,4.33,1.17,2,.42,5.88,1.34,7.69.45,2.6-1.28,2.34-3.81,2.02-6.25s-1.01-5.14-1.73-7.57c-2.16-.66-4.4-1.21-6.63-1.57-1.34-.22-2.99-.49-4.34-.31ZM110.51,50c.22.24,3.67-2.46,4-2.75,1.58-1.36,4.69-4.52,3.58-6.78l-13.38-13.57c.16.51.21,1.13.44,1.61.53,1.09,1.55,2.37,2.17,3.53,2,3.7,4.08,8.66,3.89,12.92-.08,1.7-.5,3.37-.7,5.05ZM63.11,30.1c.36-.78.53-1.42.21-2.26l-.4-.74c-.22.68-.48,1.21-.4,1.95.02.19.33,1.25.6,1.05ZM70.51,31.1c-.37.44-.57.94-.95,1.4-.62.75-1.51,1.41-2.15,2.15l8.4,8.4c1.17,1.51.25,3.23-.8,4.49-2.33,2.79-4.62,4.73-6.45,8.05-.63,1.14-.19,1.22-1.68,1.62-1.94.51-3.57.73-5.52.4-.72-.12-2.77-.37-3.28-.72-.27-.19-.82-1.56-1.04-1.96-.77-1.33-1.88-2.75-2.87-3.93-1.46-1.75-5.87-5.21-4.2-7.69l8.54-8.57c-.91-1.23-2.41-2.09-2.89-3.64-.14.01-.16.15-.2.24-.99,2.18-1.55,4.32-2.74,6.56-.81,1.53-1.83,3.51-3.15,4.57l-.79,2.96c-.26.43-2.5.01-3.01-.13.06.58.57,2.58.18,2.98-.27.27-2.54.66-3.05.85-.95,1.28-2.88,2.26-4.32,3.03-2.35,1.26-4.91,2.38-7.5,3.05l1.17.58,2.77,2.51,8.71-8.69c2.66-1.43,4.79,1.62,6.55,3.15,1.44,1.26,2.98,2.59,4.61,3.59.68.42,1.53.7,2.13,1.07.41.26.52.73.64,1.16.78,2.87.74,5.04.08,7.92-.08.35-.19.94-.37,1.23-.23.38-1.67.93-2.18,1.22-1.61.95-3.4,2.45-4.81,3.69-1.8,1.58-4.01,4.72-6.69,3.2l-8.67-8.64c-1.08.79-1.82,2-3.03,2.65-.3.16-.65.18-.9.4,3.23.94,6.36,2.33,9.23,4.07.87.53,2.13,1.17,2.59,2.06.53.19,2.72.53,3.03.82.43.41-.09,2.39-.15,3,.54-.16,2.69-.63,3.01-.13l.79,2.96c1.29,1.01,2.27,2.9,3.05,4.37,1.2,2.25,2.13,4.61,3,7,.55-1.54,2.01-2.4,2.94-3.64l-8.49-8.51c-1.42-2.56,1.19-4.39,2.65-6.05s3.28-3.71,4.4-5.7c.24-.43.7-1.69,1.01-1.89.26-.16.82-.29,1.14-.36,2.85-.69,4.53-.69,7.42-.02.33.08.9.17,1.17.33.4.23.97,1.72,1.27,2.23.97,1.66,2.52,3.45,3.79,4.91,1.54,1.77,4.37,3.7,3.19,6.39l-8.64,8.76c1.07,1.16,2.37,2.08,3.05,3.55.77-2.46,1.78-4.84,3-7.1.79-1.46,1.7-3.2,2.96-4.27.31-.6.51-2.57.89-2.99.41-.45,2.32,0,2.91.16.09-.91-.86-2.68.22-3.13.61-.26,2.27-.46,2.67-.73.3-.19.89-.93,1.41-1.29,3.06-2.08,6.84-3.74,10.39-4.76-.3-.3-.77-.4-1.13-.62-1.06-.65-1.82-1.64-2.72-2.48l-8.35,8.35c-2.73,2.26-5.48-1.52-7.4-3.2-1.28-1.12-2.86-2.41-4.31-3.29-.45-.27-2.1-1-2.28-1.22-.2-.26-.39-1.17-.47-1.53-.6-2.79-.6-4.9.12-7.69.37-1.42.59-1.04,1.66-1.64,1.93-1.07,3.72-2.48,5.37-3.93,1.79-1.57,4.54-5.26,7.15-3.25l8.5,8.5c1.2-1.16,2.21-2.49,3.85-3.05-3.26-1-6.42-2.38-9.33-4.17-.52-.32-1.24-.72-1.7-1.1-.27-.22-.68-.77-.84-.86-.57-.32-2.43-.45-2.89-.81-.52-.41-.02-2.4.16-3.01-.59.09-2.63.58-3.01.16s-.52-2.3-.82-2.88c-.08-.16-.55-.45-.73-.67-.84-1-1.77-2.72-2.4-3.9-1.16-2.18-2.19-4.51-2.85-6.9ZM62.91,53.5l1.78-2.16c-.86-1.96.59-4.16,2.77-3.94.28.03.64.26.85.16.94-1.13,1.12-1.79.15-2.96l-5.5-5.5c-1.61,1.79-3.64,3.4-5.2,5.2-1.09,1.25-1.18,1.89-.13,3.29,2.07-.78,4.18.72,3.87,2.96-.03.22-.3.74-.24.86.03.07.79.86.95,1.05.25.31.55.68.71,1.05ZM28.31,50.7c-1.32-.42-2.51-1.45-3.24-2.61-.28-.45-.75-1.74-.95-1.95-.19-.19-1.33-.58-1.71-.79-.71-.4-1.25-.9-1.8-1.5l-.8-1.15c-.95,2.81-1.55,5.93-.7,8.85,2.56.84,5.34.37,7.88-.33l1.32-.53ZM106.21,42.8c-.18-.04-.2.05-.28.17-.6.78-.86,1.37-1.73,1.97-.52.36-2.17.99-2.36,1.19-.16.16-.68,1.56-.91,1.94-.53.87-1.21,1.48-2.04,2.06l-1.17.68c2.9,1.04,6.16,1.65,9.18.78.71-2.94.24-5.95-.68-8.78ZM27.11,55.9c-2.2.12-4.35-.33-6.5-.7.71,1.38,1.68,2.6,2.65,3.8l1.4-1.4,2.45-1.7ZM105.31,55.2c-2.11.43-4.24.74-6.4.75,1.41.82,2.64,1.85,3.84,2.94.24-.04,2.73-3.54,2.56-3.69ZM54.11,62.8c-.66-.55-1.38-1.05-2.05-1.6-.22-.19-.68-.77-.86-.85-.23-.11-1.02.09-1.44.04-1.19-.14-2.33-1.33-2.37-2.54,0-.27.16-.79.06-.95-1.15-.82-1.84-.34-2.76.45-1.79,1.54-3.37,3.57-5.15,5.15l-.15.25.15.25c1.75,1.55,3.3,3.53,5.05,5.05.96.83,1.64,1.38,2.88.53-.39-1.51.55-3.16,2.11-3.44.48-.08,1.38.11,1.6,0,.19-.09.71-.75.96-.95.59-.5,1.27-1.06,1.95-1.4ZM78.41,56.91c.49,1.54-.51,3.2-2.1,3.45-.46.07-1.29-.1-1.5,0-.19.09-.91.85-1.16,1.05-.57.46-1.17.89-1.75,1.35.55.42,1.11.82,1.65,1.25.26.21,1.08,1.07,1.26,1.15s1.1-.09,1.52-.03c1.53.24,2.5,1.9,2.13,3.38.98.82,1.66.58,2.55-.15l5.6-5.6-5.81-5.79c-.89-.67-1.44-.56-2.39-.05ZM27.81,62.8c.81.28,1.76.54,2.5-.05-.57-.49-1.42-.42-2.09-.2-.11.04-.41.11-.4.24ZM98.11,62.7c-.84-.36-1.7-.47-2.5.05.65.42,1.29.42,2.02.22.12-.03.46-.12.48-.27ZM27.11,69.5c-1.48-.71-2.73-1.81-3.85-3-.98,1.19-1.94,2.42-2.65,3.8l3.36-.59,3.14-.21ZM105.31,70.3c.16-.15-2.33-3.65-2.56-3.69-1.21,1.07-2.43,2.12-3.84,2.94,2.16-.03,4.29.31,6.4.75ZM62.96,72l-1.7,2.09c.83,1.96-.48,4.2-2.7,4-.26-.02-.78-.26-.95-.15-1.15,1.43-.84,2.12.25,3.36,1.47,1.68,3.35,3.18,4.85,4.85l.25.15.25-.15c1.56-1.81,3.75-3.43,5.25-5.25.96-1.17.79-1.83-.15-2.96-.2-.11-.57.13-.85.16-2.16.22-3.65-1.98-2.77-3.94l-1.73-2.16ZM28.31,74.7c-2.9-1-6.21-1.72-9.21-.76-.83,2.93-.24,6.04.71,8.86l.8-1.15c.53-.58,1.05-1.07,1.73-1.47.37-.22,1.65-.69,1.81-.89.18-.21.31-.83.47-1.13.69-1.32,1.55-2.29,2.86-3.04l.83-.42ZM106.89,73.92c-2.22-.69-4.71-.47-6.94.07-.57.13-1.48.37-1.99.61-.1.04-.23.07-.24.2,2.09.74,3.45,2.52,4.12,4.58,1.53.5,2.73,1.26,3.72,2.53.16.2.28.47.43.66.06.08,0,.18.23.13.91-2.84,1.4-5.84.68-8.78ZM21.21,98.6c-.16-1.67-1.32-2.91-2.12-4.33-2.73-4.84-4.82-9.83-4.17-15.5.13-1.13.44-2.23.54-3.36-1.26.73-2.48,1.56-3.6,2.5-1.93,1.62-5.84,5.31-3.46,7.85l12.8,12.85ZM104.71,98.6l13.38-13.57c.99-2.02-1.48-4.88-2.88-6.18s-3.02-2.43-4.65-3.45c-.26-.02-.09.05-.08.18.24,1.69.66,3.35.73,5.07.18,4.41-2.14,9.73-4.29,13.52-.82,1.45-1.99,2.73-2.22,4.43ZM41.49,84.42c-.14-.17-3.73-.98-4.26-1.09-4.68-.99-10.36-2.4-9.92,4.52.18,2.89,1.19,6,1.83,8.82,2.87.74,6.16,1.75,9.13,1.92,6.99.4,5.12-6.35,4.1-10.8-.26-1.13-.57-2.26-.87-3.37ZM93.49,82.53c-2.4.16-5.78.91-8.1,1.6-.21.06-.63.14-.78.22-.26.15-.65,1.92-.75,2.35-1.13,4.49-3.5,12.32,3.81,11.91,1.94-.11,4.43-.69,6.35-1.15.45-.11,2.63-.59,2.79-.81.21-.29.73-2.7.86-3.24,1.05-4.54,2.96-11.35-4.17-10.87ZM63.11,95.4c-.23-.17-.58.75-.6.95-.09.72.13,1.31.4,1.95.76-.82.69-1.97.2-2.9ZM51.99,106.78c.81-3.03.27-6.29-.83-9.18-.89,2.08-2.52,3.44-4.65,4.15-.64,1.88-1.73,3.28-3.4,4.35,2.85.91,5.92,1.47,8.88.68ZM82.81,105.9c-1.04-.43-1.94-1.37-2.52-2.33-.22-.38-.69-1.63-.89-1.81-.24-.22-1.45-.64-1.89-.91-.95-.59-1.66-1.4-2.25-2.35l-.46-.84c-1.11,2.83-1.66,6.14-.8,9.1,2.3.69,4.92.43,7.22-.18.39-.1,1.13-.27,1.45-.45.11-.06.17,0,.13-.22ZM55.61,105.2c.15.17,3.34-2.14,3.6-2.45-1.04-1.04-2.18-2.09-2.8-3.45l-.8,5.9ZM70.41,105.3l-.9-5.9-1.1,1.65-1.59,1.7c1.07,1.02,2.33,1.82,3.6,2.55ZM50.41,110.4c-2.91.52-5.76,1.02-8.7.45-3.19-.61-7.04-2.34-9.86-3.94-.89-.51-2.18-1.52-3.01-1.89-.39-.18-1-.21-1.43-.32l12.75,12.8c1.04.85,1.73.97,2.99.48,2.15-.84,4.02-2.91,5.4-4.7.21-.27,2.02-2.74,1.86-2.89ZM98.61,104.7c-.48.07-1.14.17-1.57.38-1.06.52-2.33,1.52-3.46,2.14-4.9,2.66-9.52,4.43-15.2,3.67-.95-.13-1.92-.44-2.86-.44,1.5,2.4,3.48,5.27,5.91,6.79,1.32.83,2.91,1.65,4.24.36l12.95-12.9Z"/>
  <path d="M0,95.4c-.01-.12-.01-.28,0-.4.33-2.74,4.16-3.58,5.25-.9,1.63,4.01-4.9,5.33-5.25,1.3Z"/>
  <path d="M0,30.4c-.01-.12-.01-.28,0-.4.33-2.79,4.44-3.3,5.33-.58,1.28,3.95-4.98,5.08-5.33.98Z"/>
  <path d="M125.91,29.7v1.1c-.5,1.39-1.5,2.33-3.05,2.2-2.57-.21-3.27-3.92-.98-5.09,1.7-.87,3.45.08,4.03,1.78Z"/>
  <path d="M125.91,94.7v1c-.56,2.06-3.03,2.98-4.65,1.4s-.47-4.62,1.83-4.68c1.37-.04,2.43,1.05,2.82,2.27Z"/>
  <path d="M20.39,1.72c3.62-.19,3.97,5.35.27,5.48-3.5.13-3.66-5.31-.27-5.48Z"/>
  <path d="M30.28,119.43c3.16-.43,4.37,3.97,1.49,5.19-3.84,1.64-5.35-4.66-1.49-5.19Z"/>
  <path d="M30.39.62c3.61-.43,4.18,5.36.37,5.48-3.33.1-3.78-5.07-.37-5.48Z"/>
  <path d="M3.48,17.53c4.05-.53,4.19,5.96-.12,5.37-2.74-.38-3.03-4.95.12-5.37Z"/>
  <path d="M3.79,102.52c1.13-.06,2.26.77,2.64,1.81.99,2.71-2.31,4.85-4.42,2.92-1.75-1.6-.53-4.6,1.78-4.73Z"/>
  <path d="M20.18,118.33c2.23-.29,4.02,2.17,2.71,4.11-.86,1.27-2.6,1.76-3.87.81-1.95-1.45-1.22-4.6,1.17-4.91Z"/>
  <path d="M94.99,119.43c3.08-.33,4.15,4.03,1.39,5.19-3.81,1.6-5.58-4.74-1.39-5.19Z"/>
  <path d="M95.09.63c2.45-.23,3.81,2.82,2.12,4.63-1.37,1.47-3.84.86-4.52-.98-.61-1.67.68-3.48,2.4-3.64Z"/>
  <path d="M104.98,118.33c2.65-.35,4.16,2.92,2.22,4.72s-5.32-.27-4.42-2.92c.31-.92,1.24-1.67,2.2-1.8Z"/>
  <path d="M105.29,1.72c1.03-.06,2.14.67,2.54,1.61,1.13,2.68-1.93,5.05-4.22,3.22-1.98-1.58-.71-4.7,1.68-4.83Z"/>
  <path d="M121.89,102.52c3.5-.19,4.01,5.35.27,5.48s-3.63-5.3-.27-5.48Z"/>
  <path d="M121.68,17.53c2.35-.31,4.03,2.28,2.57,4.26-.89,1.19-2.58,1.55-3.79.61-1.92-1.5-1.19-4.55,1.22-4.87Z"/>
  <path d="M86.24,94.46c-2.56-2.57,1.52-6.33,3.92-3.77s-1.34,6.35-3.92,3.77Z"/>
  <path d="M91.88,85.62c3.51-.6,4.54,4.35,1.33,5.23-3.84,1.06-4.6-4.68-1.33-5.23Z"/>
  <path d="M37.38,30.23c3.58-.49,4.27,4.91.77,5.36-3.68.48-4.04-4.91-.77-5.36Z"/>
  <path d="M33.29,34.53c2.33-.22,3.76,2.46,2.32,4.32-1.76,2.27-5.23.64-4.77-2.17.18-1.11,1.35-2.05,2.45-2.15Z"/>
  <path d="M92.19,34.53c3.58-.33,3.99,4.98.66,5.36-3.66.42-4.18-5.04-.66-5.36Z"/>
  <path d="M87.89,30.23c3.53-.38,4.02,5.02.66,5.36-3.68.38-4.17-4.99-.66-5.36Z"/>
  <path d="M37.18,89.92c3.98-.68,4.47,5.26.67,5.38-3.22.1-3.73-4.85-.67-5.38Z"/>
  <path d="M32.99,85.63c3.51-.51,4.36,4.4,1.33,5.23-3.81,1.04-4.83-4.72-1.33-5.23Z"/>
</svg>