<?xml version="1.0" encoding="UTF-8"?>
<svg id="Layer_1" data-name="Layer 1" xmlns="http://www.w3.org/2000/svg" viewBox="0 0 114.1 134.31">
  <path fill="#FFFFFF" d="M0,40.61c.25-5.86,1.95-13.91,9.15-14.4h30.91c2.01-.09,3.49-.33,4.1-2.49.87-3.1.29-8.11.45-11.45.15-3.08,1.07-9.49,3.25-11.75,1.03-1.07,1.53-.23,2.3.6.87.93,1.71,2,2.49,3.01.73.95,3.29,4.34,3.36,5.34.05.7-.79,2.45-1.03,3.27-.88,3.01-1.32,6.78-1.57,9.93-.28,3.56.15,7.89-.87,11.23-.36,1.17-.89,1.95-1.73,2.82l2.38-1.28c.78-.19,1.69,1,2.12,1.53.63.77,1.22,1.67,1.7,2.55.75-.88,1.29-1.93,2.05-2.8.47-.53,1.26-1.49,2.02-1.22s1.62,1.09,2.43,1.32c-1.84-1.57-2.38-4.11-2.5-6.44-.33-6.03-.12-12.3-1.97-18.13-.2-.64-.94-2.14-.92-2.67.02-.48.59-1.41.85-1.85,1.29-2.2,3.74-5.34,5.54-7.16.82-.83,1.22-.71,1.95.15,2.4,2.81,3.04,9.64,3.15,13.25.08,2.5-.45,9.04.9,10.9.93,1.3,2.1,1.19,3.55,1.35h31.01c6.62.41,8.73,7.78,9.05,13.3v3.4l-.52,4.53c-1.24,6.94-3.45,13.57-6.88,19.72,3.65,6.52,5.92,13.62,7.08,21.01l.31,3.24v3.4l-.77,4.88c-1.07,4.42-3.58,8.09-8.48,8.42h-31.01c-1.4.13-2.63.15-3.43,1.46-1.26,2.06-.73,8.18-.81,10.79s-.35,5.38-.94,7.96c-.48,2.1-1.29,4.55-2.97,5.98h-.6c-1.59-1.6-3.05-3.35-4.38-5.17-.6-.83-2.57-3.51-2.61-4.39-.03-.58.6-1.69.8-2.29,1.14-3.57,1.63-7.86,1.9-11.6.23-3.26-.13-7.17.75-10.25.54-1.9,1.96-3.67,4-4h33.1c2.38-.16,3.6-1.15,4.49-3.3,1.63-3.92,1.42-8.69.94-12.84-.26-2.25-.68-4.49-1.29-6.66-2.98,4.17-5.93,8.57-10.17,11.58-5.24,3.73-12.81,6.58-19.01,8.29-1.78.49-5.45,1.59-7.16,1.42-.23-.02-.47-.22-.68-.17-.31.07-2.04,1.24-2.51,1.5-.41.23-2.13,1.25-2.43,1.28-.46.05-.94-.33-1.24-.65l-2.55-3.35c-.75.98-1.37,2.09-2.2,3-.47.52-1.06,1.22-1.82.92-1.46-.57-3.16-1.98-4.62-2.68-2.37.37-5.12-.53-7.45-1.15-6.1-1.63-12.88-4.2-18.21-7.59-4.82-3.07-8.22-7.69-11.3-12.4-.22-.04-.13.09-.17.22-.99,2.87-1.33,7.09-1.48,10.13-.2,4.17.02,12.31,5.75,12.46h33.1c5.59,1.44,4.38,9.17,4.65,13.64.21,3.47.66,7.76,1.61,11.09.24.84,1.16,2.83,1.1,3.51-.08.88-2.14,3.7-2.77,4.54-1.27,1.72-2.69,3.44-4.24,4.91h-.6c-2.33-2.24-3.08-6.04-3.49-9.16-.53-4.03-.16-8.06-.41-12.09-.1-1.69-.38-4.13-2.3-4.7-.6-.18-1.24-.12-1.85-.25H9.25c-6.98-.39-9.07-8.12-9.14-13.95,0-.17.06-.44-.1-.55v-.7c.17-.1.1-.38.1-.55.05-4.86,1.21-9.83,2.65-14.45,1.17-3.76,2.85-7.3,4.71-10.75-2.15-3.9-3.88-7.86-5.11-12.15S.16,46.47.11,41.96c0-.17.06-.44-.1-.55,0-.26-.01-.54,0-.8ZM49.4,37.52l-1.05.2H15.35c-2.38.17-3.59,1.33-4.42,3.47-1.53,3.92-1.36,8.14-.91,12.26.26,2.39.73,4.74,1.29,7.06,1.14-1.43,2.13-3.02,3.26-4.49,3.19-4.15,6.01-6.84,10.64-9.36,6.62-3.6,14.06-5.98,21.45-7.45l2.75-1.69ZM102.8,60.51c.6-2.18,1.03-4.41,1.29-6.66.39-3.39.61-7.23-.22-10.56-.73-2.96-1.7-5.35-5.12-5.58-10.9-.31-22.03.42-32.91,0-.33-.01-.62-.12-.95-.1l2.72,1.63c8.08,1.66,16.56,4.33,23.57,8.73,5,3.14,8.3,7.77,11.61,12.54ZM56.98,50.53c-4.27,2.46-8.66,5.04-12.57,8.05-3.45,2.65-6.52,5.39-5.06,10.24.82,2.71,4.1,5.06,6.32,6.68,3.62,2.64,7.5,4.94,11.38,7.18,3.86-2.18,7.68-4.49,11.28-7.08,4.03-2.9,9.02-6.82,5.99-12.45-1.91-3.56-11.34-9.32-15.05-11.45-.49-.28-1.53-.98-1.97-1.13-.11-.04-.2-.08-.32-.04ZM26.8,56.42c-5.07,2.33-9.87,5.84-12.69,10.75,2.89,5.02,7.93,8.62,13.14,10.95-.5-1.45-.96-3-1.05-4.55-.14-2.47.69-4.79,1.67-7-1.55-3.2-2.24-6.69-1.06-10.15ZM86.9,78.11c5.27-2.33,10.18-5.95,13.17-10.95-2.84-4.89-7.61-8.32-12.62-10.75.05.89.38,1.76.45,2.65.2,2.72-.5,5.06-1.59,7.5.47,1.28,1.05,2.51,1.34,3.85.56,2.61.19,5.22-.75,7.7Z"/>
  <path fill="#FFFFFF" d="M20.08,13.04c6.04-.56,7.69,8.13,1.97,9.77-7.19,2.07-8.81-9.14-1.97-9.77Z"/>
  <path fill="#FFFFFF" d="M91.58,14.34c7.34-.88,7.42,10.48.38,9.96-6.16-.45-6.08-9.27-.38-9.96Z"/>
  <path fill="#FFFFFF" d="M34.48,1.34c6.97-.84,7.81,9.56,1.07,9.97s-6.96-9.26-1.07-9.97Z"/>
  <path fill="#FFFFFF" d="M77.59,2.54c6.66-.11,6.77,10.69-.63,9.98-5.9-.57-5.63-9.87.63-9.98Z"/>
  <path fill="#FFFFFF" d="M18.18,112.14c6.42-.72,7.76,8.29,2,9.8-6.95,1.82-8.68-9.05-2-9.8Z"/>
  <path fill="#FFFFFF" d="M33.08,123.84c5.83-.4,7.52,7.62,2.25,9.65-7.21,2.78-9.53-9.14-2.25-9.65Z"/>
  <path fill="#FFFFFF" d="M78.69,122.94c6.85-.24,6.81,10.71-.53,9.97-5.76-.58-5.77-9.75.53-9.97Z"/>
  <path fill="#FFFFFF" d="M92.98,111.24c6.69-.69,7.28,9.41,1.07,9.97-6.64.6-7.63-9.29-1.07-9.97Z"/>
  <path fill="#FFFFFF" d="M51.08,62.24c5.94-.65,7.89,7.78,2.2,9.6-7.1,2.27-9.05-8.85-2.2-9.6Z"/>
  <path fill="#FFFFFF" d="M62.38,62.24c6.72-.74,7.47,9.55.87,9.87-6.47.31-7.16-9.18-.87-9.87Z"/>
</svg>