<?xml version="1.0" encoding="UTF-8"?>
<svg id="Layer_1" data-name="Layer 1" xmlns="http://www.w3.org/2000/svg" viewBox="0 0 136.1 134.3">
  <path fill="#FFFFFF" d="M32.3,0c.44.37.83.81,1.2,1.25.57.68,2.71,3.36,2.7,4.1-.94,2.52-1.32,5.22-1.5,7.9-.1,1.51.03,3.19-.23,4.67-.16.9-.43,1.62-1.07,2.28.14.12,1.03-.76,1.63-.58.54.16,1.52,2.08,1.82,2.08.32-.51,1.41-2.26,2.06-2.15.2.04.97.67,1.09.55-.16-.39-.45-.61-.62-1.03-.65-1.64-.38-3.42-.48-5.12-.14-2.22-.34-4.63-.93-6.77-.12-.44-.63-1.52-.63-1.83,0-1.08,3.05-4.44,3.86-5.35h.3c1.34,1.18,1.75,3.34,1.99,5.06.33,2.49-.09,5.27.33,7.57.3,1.67,1.09,1.78,2.63,1.87,5.48.31,11.37-.39,16.81,0,3.12.22,4.46,3.25,4.8,6.01.35-2.77,1.64-5.78,4.8-6.01,5.44-.38,11.33.32,16.81,0,1.54-.09,2.34-.19,2.64-1.86.41-2.35-.02-5.15.32-7.68.23-1.67.66-3.83,1.99-4.96h.3c.83,1.04,3.72,4.03,3.81,5.25.03.47-.61,2-.76,2.65-.43,1.87-.63,3.93-.75,5.85-.13,2.13.37,4.8-1.3,6.45.14.12,1.07-.61,1.29-.65.61-.11,1.74,1.66,2.06,2.15.19,0,.97-1.26,1.2-1.5,1.03-1.13,1.06-.46,2.25,0-.81-.76-1.12-1.96-1.2-3.05-.25-3.23-.1-6.22-.86-9.44-.13-.56-.73-2.01-.73-2.37,0-.58,1.08-2.02,1.46-2.54.73-.99,1.54-1.97,2.44-2.81h.2c1.63,1.47,2.08,4.52,2.2,6.65.11,1.88-.16,3.92.11,5.79.13.86.4,1.75,1.36,1.94,4.66.27,9.35.06,14.03.12v13.75c0,.17.3.81.45.95.49.51,1.63.66,2.3.7,2.53.16,4.79-.11,7.37.33,1.52.26,3.14.68,4.28,1.77v.4c-.94.91-1.94,1.78-3.01,2.54-.44.31-1.67,1.22-2.14,1.27-.57.05-2.03-.59-2.75-.76-1.91-.43-4-.63-5.95-.75-2.11-.13-4.7.36-6.35-1.3-.08.09.64,1.1.68,1.27.15.72-1.67,1.73-2.18,2.08,0,.19,1.17.89,1.4,1.1,1.16,1.02.76.99.2,2.25,1.86-1.5,4.57-1.05,6.85-1.2,1.87-.12,3.9-.32,5.71-.79.55-.14,1.88-.74,2.29-.72,1.08.05,4.31,3.02,5.25,3.81v.4c-1.52,1.52-4.45,1.98-6.55,2.1-1.9.11-3.89-.13-5.8.1-1.22.15-1.94.55-2.06,1.84-.33,5.64.46,11.81,0,17.39-.17,1.98-1.06,3.21-2.79,4.11,1.73.86,2.62,2.17,2.79,4.11.47,5.58-.32,11.75,0,17.39.17,1.97,1.88,1.76,3.35,1.85,2.57.16,5.11-.02,7.65.55,1.21.27,2.57.69,3.4,1.65v.4c-1.62,1.38-3.28,2.97-5.26,3.79-2.49-.91-5.15-1.31-7.79-1.49-2.35-.16-5.11.31-7.05-1.2-.14.16.75.94.53,1.47-.26.61-1.61,1.33-2.12,1.78.45.47,2.37,1.44,2.18,2.17-.05.18-.76,1.19-.68,1.28,1.61-1.66,4.07-1.17,6.15-1.3s4.41-.32,6.47-.83c.49-.12,2.03-.76,2.31-.74,1.16.06,4.22,3.03,5.27,3.77v.5c-1.54,1.37-3.94,1.81-5.95,2s-3.95-.04-5.9.1c-.95.07-2.55.42-2.55,1.65v13.75h-13.35s-.7.1-.78.12c-.32.08-.68.37-.86.64-.83,1.28-.42,5.4-.52,7.08-.12,2.12-.58,5.18-2.2,6.65h-.2c-.97-.94-1.91-2.06-2.68-3.17-.32-.46-1.21-1.68-1.22-2.19,0-.36.6-1.81.74-2.36.78-3.21.62-6.21.86-9.44.08-1.1.38-2.28,1.2-3.05-.59.08-.96.76-1.6.56-.6-.19-1.3-1.59-1.75-2.06-.16-.04-.9,1.18-1.1,1.4-.94,1.07-.97.69-2.15.2.13.35.38.53.55.9.75,1.67.45,3.69.55,5.45.12,1.92.32,3.98.75,5.85.15.65.79,2.18.76,2.65-.08,1.08-3.01,4.42-3.91,5.25h-.2c-1.31-1.16-1.75-3.28-1.99-4.96-.35-2.53.09-5.32-.32-7.68-.26-1.49-.91-1.77-2.34-1.86-5.52-.36-11.5.4-17.01,0-3.21-.23-4.54-3.17-4.9-6.01-.38,2.84-1.66,5.78-4.9,6.01-5.51.39-11.49-.37-17.01,0-1.33.09-2.07.35-2.33,1.77-.53,2.79.09,5.95-.56,9.04-.27,1.29-.72,2.82-1.75,3.7h-.2c-.9-.83-3.92-4.26-3.95-5.35,0-.35.59-1.71.72-2.23.51-2.03.7-4.29.83-6.37s-.3-4.38,1.1-6.15c-.54.06-.94.71-1.5.45-.46-.21-1.68-2.23-1.8-2.15-.27.52-1.12,1.9-1.63,2.12-.68.29-1.05-.43-1.67-.52.22.3.5.53.67.88.77,1.57.51,4.21.62,5.98.18,2.71.56,5.45,1.51,8-.83,2.02-2.41,3.79-3.9,5.35h-.2c-1.61-1.46-2.08-4.45-2.2-6.55-.11-1.89.14-3.91-.1-5.8-.1-.79-.38-1.81-1.27-2.03-.08-.02-.73-.12-.78-.12h-13.35v-13.75c0-.46-.5-1.08-.91-1.29-1.27-.65-4.48-.29-6.04-.36-1.99-.09-5.32-.48-6.94-1.66-.18-.13-.3-.34-.51-.44v-.5c1.02-.76,4.11-3.71,5.27-3.77.3-.01,1.61.56,2.07.68,2.13.55,4.52.75,6.71.89,2.07.13,4.53-.35,6.15,1.3.08-.09-.63-1.09-.68-1.28-.19-.74,1.73-1.7,2.18-2.17-.53-.44-1.86-1.15-2.12-1.78-.22-.5.64-1.35.53-1.47-1.97,1.5-4.69,1.04-7.05,1.2-2.64.18-5.3.58-7.79,1.49-1.99-.82-3.64-2.41-5.26-3.79v-.5c.94-.85,2.17-1.28,3.4-1.55,2.54-.57,5.08-.39,7.65-.55,1.59-.1,3.19.14,3.35-1.95.44-5.58-.48-11.82,0-17.39.16-1.88,1.11-3.19,2.79-4.01-1.66-.83-2.62-2.13-2.79-4.01-.51-5.54.43-11.81,0-17.39-.1-1.25-.74-1.78-1.96-1.94-1.93-.25-3.96,0-5.89-.11-2.1-.12-5.03-.58-6.55-2.1v-.4c.94-.79,4.16-3.76,5.25-3.81.37-.02,1.75.58,2.29.72,1.78.45,3.78.66,5.61.79,2.3.15,5.06-.32,6.95,1.2.14-.16-.75-.94-.53-1.47.24-.56,1.58-1.41,2.13-1.73-.44-.62-2.43-1.41-2.16-2.3.05-.18.67-.96.56-1.1-1.67,1.54-4.18,1.07-6.25,1.2-1.96.12-4.04.31-5.95.75-.72.16-2.18.81-2.75.76-1.2-.11-4.06-2.96-5.15-3.7v-.5c1.14-1.09,2.76-1.51,4.28-1.77,2.59-.44,4.84-.17,7.37-.33.67-.04,1.82-.19,2.3-.7.14-.15.45-.79.45-.95v-13.75c4.67-.07,9.37.14,14.03-.12,1-.25,1.26-1.11,1.37-2.03.37-2.94-.13-5.75.53-8.77.28-1.27.7-2.78,1.77-3.58h.2ZM32.4,20.8h-11.6v11.5c.28-.31.66-.87.8-1.25.39-1.13.6-2.71.95-3.95.33-1.13.69-2.26,1.15-3.35,2.34-.96,4.81-1.64,7.3-2.1l1.4-.85ZM59.85,20.8h-18.65l1.38.87c5.37,1.14,12.19,3.15,16.03,7.27,1.25,1.35,2.24,2.95,3.4,4.35.37-1.56.68-3.15.8-4.75.18-2.36.23-7.41-2.95-7.75ZM94.9,20.8h-18.65c-3.14,0-3.12,5.75-2.95,7.85.12,1.57.41,3.13.8,4.65,1.14-1.38,2.07-2.93,3.3-4.25,3.9-4.21,10.66-6.22,16.13-7.37l1.38-.87ZM115.3,20.8h-11.6l1.4.85c2.49.46,4.96,1.14,7.3,2.1.42.99.74,2.02,1.05,3.05.4,1.34.63,3.02,1.05,4.25.13.39.52.94.8,1.25v-11.5ZM68.1,48.7c.53-4.09,1.85-8.06,3.86-11.65-2.01-3.64-3.32-7.63-3.91-11.75-.58,4.13-1.92,8.1-3.91,11.75,1.28,2.4,2.38,4.88,3.03,7.53l.93,4.12ZM36.67,27.92c-1.09.64-2.2,1.26-3.26,1.94-.55.36-1.81,1.08-2.21,1.49-.49.5-1.33,1.99-1.74,2.66-.57.93-1.14,1.86-1.62,2.84.79,1.38,1.59,2.77,2.46,4.1,2.49,3.8,5.64,8.78,10.1,3.7.62-.71,1.18-1.77,1.8-2.4.57-.58,1.67-1.16,2.35-1.75,5.1-4.45.37-7.51-3.46-10.04-1.07-.71-2.4-1.6-3.52-2.18-.22-.11-.68-.4-.89-.37ZM99.18,27.92c-1.32.77-2.65,1.54-3.93,2.38-4.43,2.89-9,5.9-3.14,10.64.52.42,1.36.87,1.79,1.31,1.19,1.2,2.2,3.56,3.97,4.23,3.27,1.23,5.11-1.51,6.75-3.81,1.33-1.86,2.5-3.84,3.64-5.82-.39-.8-.86-1.58-1.32-2.34s-1.58-2.71-2.15-3.25c-.85-.8-3.35-2.23-4.46-2.84-.29-.16-.87-.57-1.15-.5ZM53.2,43.1c2.83-1.37,5.66-3.21,7.19-6.05-1.01-1.96-2.89-3.59-4.74-4.75-.47-.3-1.52-.94-2-1.1-.15-.05-.16,0-.13.13.08.45.25.96.28,1.42.1,1.38-.36,2.66-.9,3.91.94,2.12,1.26,4.25.3,6.44ZM82.6,31.2c-2.74,1.19-5.47,3.18-6.89,5.85,1.52,2.82,4.36,4.7,7.19,6.05-.57-1.41-.76-2.78-.43-4.28.11-.51.72-1.78.72-2.07s-.41-1.02-.52-1.37c-.42-1.43-.54-2.73-.07-4.18ZM53.2,53.2h7.15c.62,0,1.4-.91,1.67-1.43,1.14-2.24.9-5.67.57-8.1-.14-1-.39-1.98-.59-2.96-1.53,2.04-2.93,4.29-4.95,5.9s-4.52,2.64-6.85,3.65c-1.35,3.31-2.9,6.66-5.75,8.95l-3.75,2.8c2.65.66,5.82,1.2,8.53.79,1.33-.2,3.97-.91,3.97-2.63v-6.95ZM75.75,53.2h7l.15.15v6.9c0,.61.73,1.37,1.23,1.67,2.38,1.42,6.64,1.03,9.29.55.67-.12,1.33-.28,1.98-.47l-3.65-2.7c-2.92-2.31-4.49-5.71-5.88-9.07-3.37-1.36-6.77-2.97-9.07-5.88l-2.7-3.65c-.36,1.56-.67,3.15-.8,4.75-.16,1.96-.18,7.31,2.45,7.75ZM20.8,41.3v18.85c0,.66.63,1.39,1.17,1.73,2.09,1.3,5.61,1.1,7.97.81.35-.04,3.36-.53,3.36-.74-2.62-1.71-5.14-3.59-6.84-6.26-2.44-3.81-3.9-8.56-4.83-12.97l-.83-1.42ZM115.3,60.15v-18.85l-.83,1.42c-.96,4.4-2.39,9.16-4.83,12.97-1.68,2.63-4.22,4.58-6.84,6.21-.1.15.79.32.9.35,2.83.68,7.87,1.19,10.43-.37.61-.37,1.07-1.01,1.17-1.73ZM43,53.3c-1.61.55-3.12.7-4.78.22-.3-.09-1.44-.61-1.56-.6-.32.03-1.4.59-1.89.71-1.29.31-2.23.18-3.5-.05-.08-.01-.26-.18-.17.07.17.51.88,1.6,1.2,2.1,1.22,1.9,2.74,3.63,4.73,4.73,2.73-1.64,4.68-4.31,5.97-7.18ZM104.9,53.6c-1.2.23-2.38.32-3.58.03-.49-.12-1.57-.68-1.89-.71-.12-.01-1.25.52-1.56.6-.92.26-1.86.36-2.81.26-.66-.07-1.3-.38-1.96-.44,1.32,2.83,3.22,5.51,5.95,7.11,2.17-1.16,3.92-3.22,5.13-5.34.12-.2.81-1.44.72-1.53ZM76.5,59.6h-3.95c-.15,0-.88-.25-1.08-.32-2.22-.85-3.14-3.51-3.42-5.68-.31,2.17-1.2,4.81-3.42,5.68-.19.08-.93.32-1.08.32h-3.95v3.65c0,.27-.3,1.28-.42,1.58-.43,1.05-1.42,1.8-2.38,2.32.98.51,1.94,1.28,2.38,2.32.14.33.42,1.25.42,1.58v3.65h4.05c.14,0,1.01.31,1.2.4,2.04.9,2.93,3.56,3.2,5.6.25-1.94,1.06-4.42,2.86-5.44.24-.14,1.33-.56,1.54-.56h4.05v-3.75c0-.18.22-.98.3-1.2.41-1.23,1.37-1.91,2.4-2.6-1.08-.7-2.04-1.47-2.44-2.75-.06-.2-.25-.9-.25-1.05v-3.75ZM44.2,67.1c-1.74-.42-3.41-1.07-5.04-1.82-.41-.19-1.95-1.1-2.21-1.08-2.28,1.23-4.66,2.25-7.16,2.95,2.54.68,4.92,1.77,7.24,2.95l3.36-1.65,3.8-1.35ZM106.3,67.1c-2.52-.6-4.88-1.69-7.16-2.9-1.33.57-2.59,1.31-3.94,1.85-1.11.44-2.26.77-3.4,1.1,2.54.64,4.95,1.69,7.25,2.95l3.45-1.64,3.8-1.35ZM20.8,74.05v18.95l.77-1.28c.94-4.36,2.33-8.93,4.64-12.76,1.7-2.81,4.3-4.89,7.08-6.57.11-.16-1.16-.42-1.3-.45-2.74-.6-7.34-1.03-9.85.35-.63.34-1.24,1.02-1.35,1.75ZM53.2,81v-6.95c0-.12-.24-.63-.32-.78-1.15-2.1-5.98-1.96-8.03-1.77-.53.05-4.02.55-4.15.85,2.07,1.38,4.34,2.94,5.9,4.9s2.62,4.49,3.63,6.82c2.36.94,4.83,2.03,6.82,3.63s3.37,3.81,4.95,5.8c.38-1.55.68-3.15.8-4.75.14-1.89.13-6.54-1.93-7.47-.22-.1-.91-.28-1.12-.28h-6.55ZM82.9,74.05v6.95h-6.55c-3.26,0-3.22,5.65-3.05,7.85.12,1.57.41,3.13.8,4.65,1.6-2.03,3-4.27,5.05-5.9s4.42-2.61,6.72-3.53c.91-2.14,1.84-4.35,3.2-6.25,1.64-2.28,4-3.95,6.32-5.48-.11-.25-2.83-.68-3.26-.74-2.22-.28-4.66-.42-6.81.26-1.09.35-2.24.9-2.42,2.18ZM115.3,93v-18.85c0-.64-.64-1.4-1.17-1.73-2.47-1.54-7.28-1.07-10.03-.47-.14.03-1.41.29-1.3.45,2.64,1.62,5.16,3.58,6.84,6.21,2.44,3.82,3.88,8.56,4.83,12.97l.83,1.42ZM43,81c-1.28-2.86-3.23-5.57-5.97-7.18-2.1,1.12-3.75,3.08-4.97,5.09-.26.43-.81,1.31-.96,1.74-.09.25.1.09.17.07,1.55-.29,2.26-.42,3.82.02.54.15,1.04.39,1.55.61,1.53-.66,2.9-1.08,4.57-.83.61.09,1.19.31,1.78.47ZM105,80.8c-1.28-2.79-3.2-5.47-5.93-6.98-2.74,1.61-4.65,4.29-5.97,7.13l2.85-.55c1.24.11,2.37.48,3.5.96,1.75-.86,3.67-1.24,5.55-.56ZM68.1,108.9c.53-4.09,1.86-8.06,3.86-11.65-2.02-3.6-3.28-7.57-3.91-11.65-.63,4.09-1.91,8.04-3.91,11.65,1.26,2.42,2.39,4.86,3.03,7.53l.93,4.12ZM36.38,87.53c-2.04.14-3.34,1.93-4.46,3.44-1.52,2.04-2.82,4.27-4.08,6.48.39.81.86,1.58,1.32,2.34s1.58,2.71,2.15,3.25c.68.64,2.52,1.68,3.4,2.2.67.4,1.35.79,2.04,1.15.29,0,3.13-1.79,3.6-2.09,3.98-2.54,9.65-5.92,4.09-10.6-.65-.55-1.68-1.1-2.25-1.65-.42-.41-.85-1.24-1.26-1.74-1.23-1.53-2.4-2.93-4.56-2.78ZM99.08,87.53c-1.58.12-2.52,1.1-3.48,2.22-.57.66-1.19,1.81-1.75,2.35-1.25,1.19-3.5,2.1-4.2,3.9-1.21,3.13,1.31,4.99,3.52,6.58,1.93,1.4,4.07,2.71,6.18,3.81.97-.52,1.91-1.08,2.84-1.65.65-.4,2.19-1.27,2.65-1.75.53-.55,1.45-2.17,1.9-2.9.53-.86,1.06-1.74,1.52-2.64-1.21-2.1-2.45-4.22-3.88-6.18-1.33-1.83-2.74-3.93-5.3-3.74ZM53.5,103.1c2.76-1.23,5.42-3.16,6.89-5.85-1.52-2.84-4.35-4.7-7.19-6.05.55,1.39.75,2.72.45,4.2-.12.61-.73,1.76-.75,2.15-.01.2.55,1.46.65,1.84.34,1.32.33,2.39-.05,3.7ZM82.8,91.3c-2.82,1.21-5.62,3.22-7.09,5.95.96,1.86,2.7,3.42,4.44,4.55.52.34,1.76,1.13,2.3,1.3.13.04.19,0,.14-.14-.48-1.37-.32-2.68.08-4.04.1-.35.52-1.09.52-1.37,0-.24-.51-1.28-.62-1.67-.45-1.65-.28-2.96.23-4.58ZM41.2,113.5l19.28-.17c.93-.25,1.38-.93,1.72-1.78.85-2.09.73-4.68.49-6.89-.14-1.27-.43-2.51-.69-3.76-1.15,1.49-2.15,3.13-3.45,4.5-2.88,3.05-7.94,5.11-11.93,6.27-1.29.38-2.95.58-4.13.97-.34.12-.99.61-1.3.85ZM94.9,113.5c-.31-.24-.96-.74-1.3-.85-1.2-.4-2.89-.61-4.2-1-5.01-1.47-10.36-3.77-13.44-8.16l-1.86-2.59c-.28,1.24-.56,2.49-.7,3.75-.25,2.26-.36,4.84.52,6.98.41,1,.97,1.67,2.12,1.78,5.93.16,11.99-.23,17.91,0,.33.01.62.12.95.1ZM115.3,113.4v-11.5l-.75,1.2c-.54,2.53-1.2,5.04-2.15,7.45-1.29.53-2.63.95-3.98,1.32-1.05.29-2.4.45-3.34.76-.46.15-.92.63-1.38.82l11.6-.05ZM20.8,102v11.4l11.6.05c-.46-.19-.92-.67-1.38-.82-.95-.31-2.3-.47-3.34-.76-1.35-.37-2.69-.79-3.98-1.32-.46-1.09-.82-2.22-1.15-3.35-.36-1.23-.56-2.82-.95-3.95-.13-.39-.52-.94-.8-1.25Z"/>
  <path fill="#FFFFFF" d="M79.28,120.93c2.22-.32,3.99,1.43,3.23,3.63-1.06,3.04-5.8,2.09-5.28-1.48.14-.98,1.06-2.01,2.05-2.15Z"/>
  <path fill="#FFFFFF" d="M47.78,127.33c2.95-.39,4.17,3.51,1.82,5.12-.77.53-2.02.49-2.82.04-2.33-1.31-1.66-4.81,1.01-5.15Z"/>
  <path fill="#FFFFFF" d="M55.57,120.92c4.46-.7,4.21,5.83.39,5.47-3.26-.31-3.34-5.01-.39-5.47Z"/>
  <path fill="#FFFFFF" d="M87.58,127.33c4.11-.53,4.3,6.08-.22,5.47-2.67-.37-2.92-5.06.22-5.47Z"/>
  <path fill="#FFFFFF" d="M47.98,1.42c3.65-.19,3.81,5.59.17,5.59s-3.69-5.4-.17-5.59Z"/>
  <path fill="#FFFFFF" d="M55.78,7.93c4.02-.57,4.28,6.05-.12,5.47-2.9-.39-3.06-5.01.12-5.47Z"/>
  <path fill="#FFFFFF" d="M79.48,7.93c1.84-.24,3.47,1.32,3.18,3.18s-2.53,2.94-4.17,1.96c-2.13-1.27-1.5-4.81.99-5.14Z"/>
  <path fill="#FFFFFF" d="M87.78,1.42c3.71-.26,3.98,5.58.17,5.58-3.43,0-3.62-5.34-.17-5.58Z"/>
  <path fill="#FFFFFF" d="M119.38,121.53c4.15-.11,3.29,6.83-.93,5.38-2.82-.97-2.18-5.29.93-5.38Z"/>
  <path fill="#FFFFFF" d="M125.68,114.83c3.75-.54,4.48,5.09.76,5.46s-4.06-4.99-.76-5.46Z"/>
  <path fill="#FFFFFF" d="M9.48,114.83c3.76-.54,4.46,5.1.76,5.46s-4.06-4.99-.76-5.46Z"/>
  <path fill="#FFFFFF" d="M16.58,121.53c3.78-.1,3.74,5.58.07,5.58-3.42,0-3.64-5.48-.07-5.58Z"/>
  <path fill="#FFFFFF" d="M125.68,14.03c3.95-.53,4.33,5.09.76,5.46s-4.21-5-.76-5.46Z"/>
  <path fill="#FFFFFF" d="M119.08,7.23c3.64-.48,4.07,5.07.86,5.46-3.99.49-4.43-5-.86-5.46Z"/>
  <path fill="#FFFFFF" d="M9.48,14.03c3.9-.56,4.28,5.02.87,5.46s-4.41-4.95-.87-5.46Z"/>
  <path fill="#FFFFFF" d="M16.28,7.23c2.25-.29,3.97,2.12,2.83,4.13-.33.57-1.12,1.21-1.78,1.32-4.08.69-4.42-5.01-1.05-5.45Z"/>
  <path fill="#FFFFFF" d="M131.37,45.42c3.97-.62,4.53,5.31.67,5.48-3.58.16-3.77-4.99-.67-5.48Z"/>
  <path fill="#FFFFFF" d="M131.48,83.43c3.87-.51,4.33,5.1.76,5.46s-4.19-5.02-.76-5.46Z"/>
  <path fill="#FFFFFF" d="M125.28,75.32c3.56-.25,3.92,5.07.66,5.47-3.98.48-4.36-5.2-.66-5.47Z"/>
  <path fill="#FFFFFF" d="M125.45,53.46c3.79,0,3.72,6.03-.59,5.43-3.03-.42-2.83-5.44.59-5.43Z"/>
  <path fill="#FFFFFF" d="M3.78,83.43c3.85-.51,4.19,5.07.76,5.46-3.62.42-4.35-4.99-.76-5.46Z"/>
  <path fill="#FFFFFF" d="M10.48,75.32c3.56-.25,3.85,5.08.66,5.47-4,.48-4.42-5.2-.66-5.47Z"/>
  <path fill="#FFFFFF" d="M3.68,45.43c3.84-.56,4.44,5.12.76,5.46s-4.08-4.98-.76-5.46Z"/>
  <path fill="#FFFFFF" d="M10.65,53.46c3.74,0,3.71,6.03-.59,5.43-3.05-.42-2.87-5.43.59-5.43Z"/>
  <path fill="#FFFFFF" d="M39.7,94.5c2.47-.28,4,2.69,2.4,4.55-1.73,2-5.1.52-4.8-2.05-2.38.24-4-2.71-2.4-4.55,1.74-2.01,5.13-.64,4.8,2.05Z"/>
  <path fill="#FFFFFF" d="M98.8,97c.29,2.51-2.97,4.03-4.7,2.15s-.25-4.9,2.3-4.65c-.23-2.21,1.95-3.66,3.94-2.69,2.73,1.33,1.39,5.44-1.54,5.19Z"/>
  <path fill="#FFFFFF" d="M98.8,37.3c2.93-.29,4.25,3.89,1.54,5.19-2.02.97-4.24-.54-3.94-2.79-1.62.32-3.06-1.01-3.06-2.67,0-3.76,5.79-3.48,5.46.27Z"/>
  <path fill="#FFFFFF" d="M39.7,39.7c.34,2.55-2.62,4.06-4.55,2.4s-.39-5.1,2.15-4.8c-.29-1.69,1.39-3.15,3.04-2.99,2.87.28,3.31,4.54.46,5.34-.35.1-.78.22-1.1.05Z"/>
</svg>