<?xml version="1.0" encoding="UTF-8"?>
<svg id="Layer_1" data-name="Layer 1" xmlns="http://www.w3.org/2000/svg" viewBox="0 0 124.33 124.32">
  <path d="M50.57,26.31c1.16-.08,2.29-.3,2.99-1.31,1.44-2.05.84-9.41.95-12.15.14-3.42.88-8.84,2.8-11.7.42-.63.89-1.43,1.78-1.07.22.09,1.74,1.85,2.02,2.18.88,1.03,1.79,2.21,2.58,3.32.58.81,2.32,3.19,2.32,4.08-2.19,5.67-2.62,11.86-2.9,17.9-.08,1.73.06,3.2-.24,4.96s-.82,3.14-2.15,4.4l2.29-1.25c.8-.25,1.32.39,1.8.91.86.92,1.48,2.06,2.25,3.05.76-.85,2.28-3.67,3.35-3.95.94-.25,2.09,1.02,3,1.25-1.75-1.63-2.28-4.12-2.4-6.44-.31-5.93-.14-12.07-1.87-17.83-.23-.76-1.05-2.44-1.03-3.07.02-.48.6-1.4.86-1.85,1.31-2.22,3.81-5.44,5.64-7.26,1.24-1.23,2.1.42,2.65,1.45,2.75,5.09,2.21,12.33,2.45,17.95.1,2.35-.2,5.85,2.88,6.32,10.87.29,21.78.04,32.67.13,10.29,1.28,9.76,15.74,8.2,23.3-1.3,6.3-3.41,12.24-6.54,17.85,3.26,5.88,5.56,12.29,6.76,18.93,1.1,6.05,1.33,16.14-3.87,20.47-.98.81-3.19,1.75-4.45,1.75h-6.75c-.19,4.53,1.02,9-2.85,12.3-5.34,4.54-15.36,3.71-21.75,2.25-5.85-1.33-11.31-3.32-16.55-6.24-6.05,3.32-12.69,5.71-19.53,6.86s-20.94,1.11-21.62-8.72v-31.3c.12-4.04-3.49-4.04-6.55-4.15-5.56-.2-12.82.44-17.86-2.34-.72-.4-2.54-1.42-1.7-2.4,2.28-2.02,4.61-4.07,7.21-5.69.57-.35,1.6-1.05,2.25-1.06.58-.01,2,.72,2.67.93,5.9,1.87,12.24,1.61,18.33,1.97,2.24.13,4.7.68,6.24,2.4-.22-.96-1.55-2.1-1.22-3.07.37-1.11,3.92-3.02,3.92-3.28-.85-.8-3.57-2.23-3.92-3.28-.32-.96.98-2.14,1.22-3.07-1.63,1.76-4.12,2.28-6.44,2.4-5.88.32-11.86.16-17.6,1.8-.74.21-2.65,1.1-3.21,1.09-.83,0-3.02-1.59-3.78-2.12-2.05-1.44-4-3.06-5.79-4.81-.5-1.15,1.65-2.17,2.49-2.56,5.17-2.39,11.62-1.89,17.18-2.12,1.97-.08,5.5.19,6.28-2.22.09-.29.27-1.25.27-1.53v-24.35h24.25ZM59.32,37.72l-21.4.2-.2,21.4,1.67-2.68c.87-4.6,2.17-9.13,3.86-13.49,4.36-1.57,8.82-2.94,13.39-3.76l2.68-1.67ZM113.02,60.81c.67-2.53,1.15-5.13,1.4-7.75.4-4.2.83-14.69-5.15-15.15h-33.21s-1.25-.2-1.25-.2l2.68,1.67c7.24,1.41,14.5,3.73,21.02,7.18,4.66,2.47,7.6,5.03,10.84,9.16,1.29,1.65,2.42,3.41,3.66,5.09ZM66.99,50.73c-1.74.99-3.47,1.99-5.16,3.04-1.21.75-3.98,2.33-4.86,3.24-1.03,1.06-2.64,3.93-3.49,5.31-.96,1.56-1.9,3.13-2.75,4.74,2.31,4.09,4.76,8.16,7.55,11.94,1.57,2.12,3.85,5.21,6.5,5.9,4.45,1.17,6.96-1.15,9.54-4.35.83-1.03,1.76-2.73,2.6-3.6.91-.93,3.01-2.09,4.15-3.05,4.93-4.15,5.95-8.7.85-13.35-3.34-3.05-8.52-6.26-12.47-8.53-.36-.21-2.25-1.34-2.46-1.3ZM97.02,78.51c5.24-2.44,10.27-5.94,13.2-11.05-2.33-4.1-6.31-7.42-10.43-9.67-.5-.27-1.65-.94-2.12-1.08-.13-.04-.19,0-.14.14,1.15,3.45.36,6.82-1.1,10.01,1.4,3.1,2.04,5.76,1.34,9.15-.18.86-.5,1.66-.75,2.5ZM97.02,97.01h12.55c1.23,0,2.57-1.12,3.19-2.11,2.5-4,2-11.11,1.34-15.63-.25-1.75-.65-3.46-1.09-5.16-2.92,4.11-5.89,8.53-10.03,11.52-3.5,2.53-7.54,4.22-11.48,5.92-1.48,3.6-3.09,7.29-5.25,10.55-3.05,4.59-7.7,7.78-12.14,10.91,1.13.24,2.24.56,3.38.77,4.9.91,13.03,1.69,17.41-1.03.99-.61,2.11-1.97,2.11-3.19v-12.55ZM60.82,113.01c-4.79-3.34-9.49-6.68-12.64-11.71-4.42-7.06-7.1-15.61-8.76-23.74l-1.69-2.75.2,1.15v33.21c.25,3.38,3.12,4.36,5.99,5s6.16.54,9.15.25c2.62-.25,5.21-.77,7.75-1.4ZM78.52,96.91c-1.99.91-4.46,1.38-6.64,1.09-1.76-.23-3.38-.94-5.01-1.58-2.84,1.29-5.33,1.95-8.47,1.46-.5-.08-1.09-.31-1.53-.37-.14-.02-.19,0-.15.15.13.43.82,1.65,1.08,2.12,2.26,4.13,5.56,8.06,9.67,10.43,5.1-2.95,8.7-7.99,11.05-13.3Z"/>
  <path d="M102.2,14.34c6.83-.43,6.94,10.58-.12,10.06-6.22-.46-6.13-9.66.12-10.06Z"/>
  <path d="M87.7,2.54c7.11-.1,6.36,11.54-1.1,9.95-5.72-1.22-4.81-9.86,1.1-9.95Z"/>
  <path d="M18.7,97.44c6.89-.83,7.84,9.63.97,9.97-6.62.33-7.02-9.24-.97-9.97Z"/>
  <path d="M6.9,82.74c7.07-.85,7.77,9.93.77,9.98-6.48.04-6.66-9.27-.77-9.98Z"/>
  <path d="M44.3,1.34c6.97-.89,7.89,9.25,1.56,9.96-7.02.79-7.4-9.22-1.56-9.96Z"/>
  <path d="M5.5,40.24c7.98-.96,7.55,10.93-.08,9.83-5.32-.77-5.52-9.16.08-9.83Z"/>
  <path d="M29.6,13.14c7.04-.85,7.85,9.28,1.46,9.96-6.91.73-7.29-9.26-1.46-9.96Z"/>
  <path d="M17.2,25.54c6.54-.89,7.96,7.53,2.85,9.55-4.21,1.66-8.31-2.59-6.54-6.74.57-1.35,2.24-2.61,3.69-2.81Z"/>
  <path d="M72.42,72.41c.56,4.72-5.24,7.36-8.55,4s-.3-9.05,4.15-8.4c-.49-2.32,1.5-4.8,3.7-5.35,3.99-1,7.21,2.68,5.93,6.53-.72,2.17-2.99,3.44-5.23,3.22Z"/>
</svg>