<?xml version="1.0" encoding="UTF-8"?>
<svg id="Layer_1" data-name="Layer 1" xmlns="http://www.w3.org/2000/svg" viewBox="0 0 120.2 120.6">
  <path d="M69.7,120.6l-.23-.42-.06-25.32c.1-.6.41-.97.84-1.36,1.09-.97,2.84-1.9,4.15-2.55-1.35-.69-3.13-1.63-4.25-2.65-.29-.27-.75-.84-.75-1.25v-17l.15-.15h16.5c.11,0,.79.13.92.18.78.25,2.33,2.8,2.81,3.59.22.36.43.74.57,1.13l1.65-2.65c.58-.69,1.11-1.93,2.06-2.14.25-.06.81-.1,1.09-.11,7.71-.45,15.85.35,23.61,0,2.21.01,1.07,1.29.39,2.4-.39.64-1.75,2.82-2.25,3.15-.53.36-.98.25-1.59.26.9,1.11,1.86,2.19,2.68,3.37.5.71,2.12,3.13,2.12,3.88,0,.5-.54,1.25-1.05,1.25h-10.15l1.03.42c2.51,1.71.6,5.39-2.23,4.43-2.01-.68-2.09-3.59-.27-4.57l.87-.28h-5.05c-1.35,0-2.84,1.86-3.11,3.09-.31,1.46-.34,6.42.14,7.77.41,1.17,1.87,2.63,3.17,2.63h5.05l-1.17-.38c-2.1-1.31-1.31-4.62,1.22-4.63,2.71,0,3.53,3.5,1.12,4.72l-.97.28h10.45c.22,0,.72.46.82.68.32.71-.22,1.56-.56,2.19-1.08,2.03-2.7,3.84-4.12,5.63.41.04.91-.08,1.31.05.59.18,2.34,3,2.74,3.66.21.36.88,1.28.69,1.67-.05.1-.3.33-.38.33h-8.25l-.07,8.28-.23.42h-.5c-1-.6-2.03-1.2-2.99-1.86-1.08-.74-2.29-1.27-2.01-2.84-2.16,1.76-4.33,3.57-6.9,4.7h-.7c-.47-.19-.9-.73-.9-1.25v-9.65l-.5.95c-1.72,2-4.64.76-4.4-1.9.19-2.13,3-2.74,4.35-1.24l.56,1.09v-5.05c0-.99-1.73-2.46-2.64-2.76-1.41-.45-6.41-.43-7.88-.07-1.08.27-2.88,1.75-2.88,2.92v4.95l.36-.79c1.76-2.52,5.65-.53,4.33,2.43-.77,1.71-3.23,1.87-4.27.3l-.42-.93v9.85c0,.44-.49.99-.9,1.15h-.7c-2.57-1.13-4.73-2.96-6.9-4.7.05.78.02,1.25-.55,1.8-1.12,1.11-3.11,1.88-4.35,2.9h-.6ZM95.3,95.9c.02-1.08-.03-2.17,0-3.25.08-3.71.05-7.48-.09-11.2-.05-1.22.07-4.29-.75-5.15-.71-.75-2.57-.45-3.5-.6-.26-.04-.41-.26-.52-.28-.12-.02-.34.24-.59.28-1.16.19-3.07-.3-3.73.97-.52,1.01-.58,4.4-.62,5.68s.04,2.44,0,3.65l-5.25.1c-1.22.27-3.62-.08-4.55.85-.74.74-.31,2.58-.52,3.48-.05.24-.37.49-.37.52,0,.03.32.28.37.52.22.95-.26,2.94.69,3.61,1.49,1.06,5.93.44,7.78.82h11.65ZM81.3,79v-2.45c0-.2-.31-.85-.55-.85h-5.55v5.65c0,.19.52.45.65.45h2.65c-.49-1.06-.68-2.23-.6-3.4,1.17-.08,2.31.23,3.4.6ZM114,75.7h-13.95c-.36,0-.51.78-.54,1.06-.03.32-.05,2.1.09,2.24.76-.3,1.63-.55,2.45-.6,3.36-.24,6.99.21,10.38-.02,1.11-.37,1.35-1.67,1.57-2.68ZM78.5,100.1h-2.75c-.08,0-.55.27-.55.35v14.05c1.07-.14,2.51-.52,2.67-1.78.24-3.39-.22-7.02.02-10.38.06-.75.28-1.57.6-2.25ZM114,106.2c-.05-.71-.69-2.7-1.55-2.7h-9.55v9.25c0,1.05,1.82,1.72,2.7,1.75v-8.3h8.4Z"/>
  <path d="M0,70c.19-.31.61-.38.95-.4l24.59.02c1.45.11,2.39,1.95,3.1,3.1.38.6.77,1.22,1.01,1.89.3-.7.7-1.35,1.11-1.99.44-.7,1.53-2.46,2.21-2.79.08-.04.64-.22.68-.22h16.9l.15.15v16.7c0,.19-.2.79-.32.98-.71,1.16-3.49,2.48-4.68,3.22,1.26.57,2.52,1.33,3.63,2.17.99.75,1.29,1.02,1.37,2.33v24.01c-.05.74-.15,1.36-1.03,1.02-.65-.25-4.11-2.52-4.48-3.02-.4-.55-.3-1-.3-1.65-1.89,1.55-4.07,3.54-6.33,4.52-.66.29-1.34.53-1.87-.17-.07-.09-.3-.53-.3-.6v-10.05l-.66,1.29c-1.19,1.32-3.45,1-4.12-.67-1.2-2.96,2.78-4.88,4.44-2.24l.34.81v-4.95c0-.86-1.17-2.19-1.9-2.6-1.57-.9-6.47-.8-8.33-.52-1.76.26-3.13,1.9-3.27,3.63-.4,4.83.43,10.29,0,15.1-.18,2.02-1.98,1.06-3.07.46-1.97-1.09-3.69-2.61-5.43-4.02,0,.8.15,1.28-.47,1.88-.46.45-3.79,2.64-4.36,2.84-.35.12-.87.02-.87-.37v-8.25H.65s-.65-.3-.65-.3v-.5c.42-.64.79-1.31,1.2-1.95s1.25-2.08,1.75-2.55,1.13-.55,1.75-.5c-1.77-2.14-3.58-4.33-4.7-6.9v-.7c.27-.44.49-.73,1.05-.8,4.91-.24,10.13.32,15.01,0,2.95-.19,3.91-2.16,4.05-4.85.09-1.78.19-5.41-.72-6.89-.38-.61-1.71-1.77-2.43-1.77h-5.05l.84.31c1.69,1.07,1.61,3.72-.3,4.47-2.92,1.16-4.88-2.89-2.17-4.47l.83-.32H1.05c-.35,0-.93-.56-1.05-.9v-.7c1.19-2.55,2.94-4.8,4.8-6.9-.93.06-1.37.05-2-.65-1.06-1.16-1.81-3-2.8-4.25v-.5ZM34.6,85.7c-.02-.88.03-1.77,0-2.65-.04-1.43-.08-2.96-.21-4.39-.07-.77-.16-2.13-.7-2.7-.7-.75-2.65-.37-3.53-.57-.22-.05-.37-.23-.52-.38-.34.65-1.27.34-1.9.4-1.43.13-2.28.1-2.62,1.68-.42,1.94-.27,4.56-.32,6.58,0,.27-.13.52-.11.79l.02,11.04c.24.07.48.1.73.12,3.49.2,7.12-.03,10.6-.11,1-.02,2.01.05,3.01,0,1.19-.05,4.11-.1,5.02-.68,1.32-.84.44-3.34.99-4.02.07-.09.27-.09.24-.15-.15-.15-.33-.3-.38-.52-.21-.92.17-2.77-.57-3.53-.55-.56-1.85-.63-2.6-.7-1.33-.12-2.76-.17-4.09-.21-1.02-.03-2.04.03-3.05,0ZM20.5,78.7v-2.75c0-.14-.29-.55-.45-.55H6.1c.14,1.01.5,2.47,1.67,2.68,3.39.23,7.02-.23,10.38.02.8.06,1.61.32,2.35.6ZM44.9,75.4h-5.65c-.09,0-.45.54-.45.65v2.65c1.08-.44,2.22-.68,3.4-.6.09,1.18-.21,2.31-.6,3.4h2.55c.14,0,.75-.31.75-.45v-5.65ZM44.9,114.2v-13.95c0-.16-.41-.45-.55-.45h-2.75c.31.78.55,1.6.6,2.45.23,3.37-.2,6.99.02,10.38.21,1.04,1.76,1.47,2.68,1.57ZM17.1,103.2H7.55c-.69,0-1.49,1.96-1.45,2.6h8.3v8.4c.68-.07,1.95-.43,2.4-.95.05-.06.3-.47.3-.5v-9.55Z"/>
  <path d="M9.5,0c.74.47,1.51.92,2.25,1.4.69.45,2.52,1.47,2.64,2.26.06.36-.03.78,0,1.14,2.13-1.82,4.35-3.59,6.9-4.8h.8c.44.27.73.49.8,1.05.27,4.95-.37,10.3,0,15.21.14,1.92,1.54,3.46,3.46,3.74,1.59.23,6.28.29,7.67-.3.91-.39,2.36-1.8,2.36-2.84v-4.95l-.46.99c-1.78,2.34-5.47.41-4.32-2.42.79-1.95,3.46-1.97,4.46-.2l.32.83V1.05c0-.4.52-.93.9-1.05h.7c2.55,1.19,4.8,2.94,6.9,4.8.02-.42-.06-.87.07-1.28.31-1,3.93-2.77,4.83-3.52h.5l.25.3c.33,8.34.07,16.77.13,25.14-.03,1.44-1.7,2.3-2.8,3-.7.45-1.41.92-2.19,1.21.7.3,1.35.7,1.99,1.11.69.44,2.55,1.58,2.82,2.28.04.1.19.75.19.81v16.7l-.15.15h-16.7c-1.3,0-2.26-1.73-2.89-2.71-.48-.74-.93-1.5-1.31-2.29-.29.78-.76,1.49-1.21,2.19-.74,1.15-1.57,2.79-3.1,2.8l-24.19.02c-.39-.09-.93-.03-1.15-.4v-.5c.75-.9,2.52-4.52,3.52-4.83.42-.13.86-.04,1.28-.07-1.85-2.1-3.59-4.36-4.8-6.9v-.7c.16-.4.58-.9,1.05-.9h10.15l-.97-.38c-1.78-.96-1.65-3.63.24-4.4,2.9-1.18,4.8,2.63,2.36,4.36l-1.03.42h5.05c1.04,0,2.45-1.45,2.84-2.36.58-1.38.58-6.85.16-8.33s-1.93-2.68-3.49-2.81c-4.88-.38-10.27.29-15.2,0-.61-.07-.86-.29-1.15-.8v-.8c1.22-2.55,2.98-4.77,4.8-6.9-.73,0-1.28.13-1.85-.4L0,9.5v-.5l.65-.3h8.05s0-8.05,0-8.05l.3-.65h.5ZM17.1,17.1V7.55c0-.71-2.05-1.54-2.7-1.45v8.3H6.1c.07.68.43,1.95.95,2.4.06.05.47.3.5.3h9.55ZM44.9,6.1c-.94.13-2.46.5-2.68,1.57-.23,3.39.22,7.02-.02,10.38-.06.84-.31,1.67-.6,2.45h2.75c.09,0,.55-.3.55-.45V6.1ZM44.47,25.73c-.51-.64-2.32-.76-3.12-.83-1.44-.12-2.95-.06-4.4-.1-.24,0-.46-.1-.69-.11h-11.55s0,11.26,0,11.26c.2,1.71.07,3.47.2,5.2.07.9.13,2.67.85,3.25.91.73,3.26.25,3.75.65.07.05.1.16.1.24.06.05.32-.34.47-.38.75-.22,2.19.06,3.13-.27,1.04-.36,1.11-2.05,1.2-3,.13-1.43.16-2.96.21-4.39.03-.88-.03-1.77,0-2.65.82-.02,1.64.03,2.45,0,1.5-.05,3.09-.07,4.59-.21.74-.07,2.15-.18,2.7-.7.72-.67.37-2.67.57-3.53.05-.22.23-.37.38-.52.03-.06-.17-.06-.24-.15-.25-.31-.17-2.14-.27-2.74-.04-.24-.19-.86-.32-1.03ZM44.9,44.9v-5.65c0-.09-.54-.45-.65-.45h-2.65c.41,1.08.67,2.23.6,3.4-1.18.07-2.31-.2-3.4-.6v2.55c0,.14.31.75.45.75h5.65ZM20.5,41.6c-.78.29-1.6.54-2.45.6-3.36.24-6.99-.21-10.38.02-1.07.19-1.45,1.75-1.57,2.68h13.95c.15,0,.45-.46.45-.55v-2.75Z"/>
  <path d="M70.4,0c.9.75,4.52,2.52,4.83,3.52.13.42.04.86.07,1.28,2.09-1.86,4.35-3.6,6.9-4.8h.7c.38.12.9.65.9,1.05v10.05l.32-.83c1.01-1.77,3.67-1.74,4.46.2,1.17,2.89-2.62,4.79-4.36,2.36l-.42-1.03v5.05c0,1.04,1.5,2.5,2.43,2.87,1.39.55,6.03.5,7.61.27,1.92-.27,3.32-1.81,3.46-3.74.37-4.9-.28-10.26,0-15.21.07-.56.36-.78.8-1.05h.8c2.55,1.21,4.77,2.98,6.9,4.8.03-.37-.05-.79,0-1.14.12-.79,1.95-1.81,2.64-2.26.74-.48,1.51-.93,2.25-1.4h.5l.3.65v8.05s8.05,0,8.05,0l.65.3v.5l-2.95,4.5c-.57.53-1.12.4-1.85.4,1.82,2.13,3.59,4.35,4.8,6.9v.8c-.29.51-.54.73-1.15.8-4.94.29-10.32-.39-15.2,0-1.87.15-3.38,1.63-3.63,3.47-.22,1.61-.3,6.18.27,7.6.37.93,1.82,2.43,2.87,2.43h5.05l-1.03-.42c-2.44-1.73-.53-5.53,2.36-4.36,1.89.77,2.02,3.44.24,4.4l-.97.38h10.15c.47,0,.89.5,1.05.9v.7c-1.2,2.55-2.95,4.8-4.8,6.9.42.02.87-.06,1.28.07,1,.31,2.77,3.93,3.52,4.83v.5c-.22.38-.76.32-1.15.4l-24.19-.02c-1.54,0-2.37-1.64-3.1-2.8-.45-.7-.92-1.41-1.21-2.19-.38.79-.83,1.55-1.31,2.29-.63.98-1.59,2.71-2.89,2.71h-16.7l-.15-.15v-16.7c0-.06.16-.71.19-.81.27-.7,2.12-1.85,2.82-2.28.64-.41,1.29-.81,1.99-1.11-.51-.15-.94-.44-1.39-.71-1.32-.8-3.56-1.91-3.6-3.6.07-8.34-.2-16.73.13-25.04l.25-.3h.5ZM78.6,20.5c-.29-.78-.54-1.6-.6-2.45-.24-3.36.21-6.99-.02-10.38-.19-1.07-1.75-1.45-2.68-1.57v13.95c0,.15.46.45.55.45h2.75ZM105.8,6.1c-.65-.09-2.7.74-2.7,1.45v9.55h9.55c.7,0,1.52-2.05,1.45-2.7h-8.3V6.1ZM95.5,24.7h-11.55c-1.67.2-3.41.06-5.09.2-.77.06-2.78.2-3.18.93-.48.88-.19,3.26-.52,3.67-.05.07-.16.1-.24.1.63.51.34,1.15.4,1.85.04.51.1,1.37.28,1.82.52,1.35,3.5.98,4.67,1.23l5.35.1c.02.88-.03,1.77,0,2.65.04,1.43.07,2.96.21,4.39.09.95.16,2.64,1.2,3,.94.33,2.38.05,3.13.27.17.05.29.27.42.38.29-.64,1.19-.34,1.8-.4,1.35-.13,2.34-.08,2.71-1.59.54-2.21.13-4.99.45-7.25v-11.35ZM78.6,38.8h-2.65c-.11,0-.65.36-.65.45v5.65h5.65c.14,0,.45-.61.45-.75v-2.55c-1.09.4-2.22.67-3.4.6-.07-1.17.19-2.32.6-3.4ZM114.1,44.9c-.13-.92-.51-2.48-1.57-2.68-3.39-.23-7.02.22-10.38-.02-.84-.06-1.67-.31-2.45-.6v2.75c0,.09.3.55.45.55h13.95Z"/>
  <path d="M8.4,60.1l.99.46c2.46,1.95.16,5.84-2.72,4.22-1.71-.95-1.61-3.37.04-4.32l.79-.36c-2.53-.41-2.81-4.01-.37-4.82,3.43-1.14,4.69,4.17,1.27,4.82Z"/>
  <path d="M51.8,60.1l.99.46c2.55,1.88.26,5.67-2.6,4.3-2.06-.99-1.55-4.33.7-4.7-3.37-.8-2.15-5.96,1.28-4.88,2.47.78,2.16,4.45-.38,4.83Z"/>
  <path d="M60,50.6l.2-.07c.84-2.56,4.88-1.98,4.88.82s-4.11,3.54-4.88.75l-.2.07c-1.09,3.14-5.66,1.61-4.75-1.57.64-2.25,4.2-2.27,4.76,0Z"/>
  <path d="M60,7.2l.2-.07c.67-2.14,3.75-2.32,4.62-.2,1.26,3.08-2.84,4.7-4.36,2.46-.1-.15-.27-.68-.31-.69-.21-.07-.24.66-.45.75-2,2.33-5.7.16-4.22-2.72,1.01-1.95,3.98-1.63,4.52.47Z"/>
  <path d="M41,60.1l.99.46c2.47,1.88.3,5.69-2.6,4.3-2.04-.98-1.54-4.34.7-4.7-3.36-.8-2.15-5.96,1.28-4.88,2.42.76,2.16,4.48-.38,4.83Z"/>
  <path d="M60,39.8l.2-.07c1.11-2.98,5.71-1.6,4.73,1.65-.68,2.26-4.18,2.23-4.73-.08l-.2.07c-1.05,3.03-5.6,1.67-4.77-1.49.61-2.33,4.17-2.39,4.77-.08Z"/>
  <path d="M19.2,60.1l.99.46c2.37,1.9.32,5.69-2.6,4.3-2.09-1-1.57-4.32.7-4.7-3.41-.8-2.15-5.96,1.28-4.88,2.37.75,2.1,4.51-.38,4.83Z"/>
  <path d="M60,18l.2-.07c1.09-3.03,5.74-1.58,4.73,1.65-.59,1.88-3.39,2.21-4.48.61-.1-.15-.27-.68-.31-.69-.21-.07-.24.66-.45.75-1.78,2.12-5.24.53-4.45-2.25.64-2.27,4.19-2.3,4.76,0Z"/>
  <path d="M60,68.2c.48-.44.81-1.05,1.45-1.3,2.34-.96,4.46,1.79,3.05,3.75-1.24,1.72-3.78,1.25-4.55-.65-.97,1.96-4.03,1.85-4.68-.32-.96-3.21,3.79-4.71,4.73-1.48Z"/>
  <path d="M60,111.5c.14.03.13.02.21-.06.26-.27.4-.58.76-.82,1.34-.91,3.45-.35,3.86,1.3.82,3.27-3.64,4.56-4.88,1.48-1.04,2.04-4.09,1.9-4.7-.4-.85-3.17,3.69-4.4,4.76-1.5Z"/>
  <path d="M60,78.9c.14.03.13.02.21-.06.25-.27.46-.65.8-.88,1.35-.92,3.5-.23,3.85,1.44.67,3.25-3.7,4.33-4.91,1.41-1.02,1.98-4.1,1.85-4.7-.4-.84-3.14,3.67-4.5,4.76-1.5Z"/>
  <path d="M60,100.7c.15.04.16-.02.24-.11.52-.52.69-.98,1.55-1.15,4.01-.77,4.23,5.34.17,4.84-.96-.12-1.6-.87-2.01-1.69-1.17,2.3-4.69,1.69-4.8-1-.12-2.85,3.99-3.48,4.85-.9Z"/>
  <path d="M112.08,55.12c2.82-.15,3.71,3.78,1.22,4.83-3.77,1.59-4.95-4.63-1.22-4.83Z"/>
  <path d="M68.78,55.13c3.37-.09,3.31,5.16-.02,5.08-3.14-.08-3.29-4.99.02-5.08Z"/>
  <path d="M79.58,55.13c3.38-.09,3.28,5.16-.02,5.08-3.1-.08-3.28-4.99.02-5.08Z"/>
  <path d="M111.88,60.43c2.68-.24,3.87,3.57,1.36,4.76-3.7,1.75-5.1-4.43-1.36-4.76Z"/>
  <path d="M68.58,60.42c3.28-.22,3.47,5.05.16,5.07s-3.43-4.85-.16-5.07Z"/>
  <path d="M101.28,55.12c3.41-.18,3.5,5.03.16,5.08-3.12.04-3.33-4.91-.16-5.08Z"/>
  <path d="M101.08,60.42c2.82-.29,3.83,3.96,1.09,4.9-3.57,1.23-4.71-4.52-1.09-4.9Z"/>
  <path d="M79.28,60.42c3.34-.35,3.62,5.05.26,5.07s-3.37-4.74-.26-5.07Z"/>
  <path d="M25.28,106.32c3.55-.25,3.47,5.49-.32,4.97-2.58-.36-2.75-4.75.32-4.97Z"/>
  <path d="M10.97,92.42c3.9-.63,3.96,5.38.08,4.87-2.7-.36-2.76-4.44-.08-4.87Z"/>
  <path d="M108.07,23.02c2.85-.49,4.31,2.89,2.12,4.42-1.71,1.2-3.98.02-3.95-2.08.01-.99.82-2.17,1.84-2.34Z"/>
  <path d="M10.87,23.02c1.98-.33,3.55,1.22,2.98,3.18-.81,2.79-5.29,2.01-4.84-1.24.11-.81,1.06-1.8,1.87-1.93Z"/>
  <path d="M94.17,9.02c3.8-.64,4.09,5.06.51,4.92-3.2-.13-2.96-4.5-.51-4.92Z"/>
  <path d="M24.87,9.02c4.16-.7,3.89,5.91-.18,4.83-2.46-.65-2.12-4.44.18-4.83Z"/>
</svg>