<?xml version="1.0" encoding="UTF-8"?>
<svg id="Layer_1" data-name="Layer 1" xmlns="http://www.w3.org/2000/svg" viewBox="0 0 115.3 115.23">
  <path fill="#FFFFFF" d="M19,115.23c-.44-.3-.69-.7-.7-1.25v-48.19c.17-1.21.97-1.94,1.86-2.66,1.99-1.6,5.09-3.55,7.41-4.59.12-.05.18.05.14-.21-.95-.21-1.86-.86-2.69-1.36-1.08-.65-2.25-1.4-3.28-2.12s-3.43-2.3-3.43-3.67V18.23h32.45c1.94,0,3.26,2.27,4.23,3.67,1.28,1.84,2.62,3.86,3.47,5.93,1.03-2.37,2.58-4.8,4.11-6.89,1.18-1.61,1.82-2.58,3.98-2.72h47.21c.73.08,1.34.23,1.55,1v.2c-.35.88-.86,1.69-1.36,2.49-.93,1.52-3.69,6.09-4.95,6.95-.1.07-.68.36-.74.36h-2.25c3.61,4.12,7.27,8.56,9.3,13.7v.3c-.15.38-.14.72-.34,1.11-.47.87-1.3,1.07-2.21,1.19h-29.3c-3.57.42-6.14,3.47-6.53,6.96s-.39,8.47,0,11.87,2.97,6.54,6.53,6.97h29.3c.61.11,1.15.16,1.65.54.65.49.71,1.01.9,1.75v.3c-2.03,5.13-5.71,9.57-9.3,13.7h2.25c.72,0,1.73,1.33,2.13,1.87,1.21,1.64,2.49,3.69,3.56,5.44.49.81,1.01,1.61,1.36,2.49v.2c-.1.56-.83,1-1.35,1h-15.35v15.55c0,.28-.42.91-.7,1.05h-.7c-1.11-.63-2.22-1.27-3.29-1.96-1.24-.79-5.35-3.31-5.95-4.35-.07-.11-.36-.79-.36-.84v-2.05c-4.05,3.56-8.41,7.06-13.4,9.2h-1c-.79-.29-1.35-.58-1.63-1.42-.1-.31-.27-1.14-.27-1.43v-18.65l-.58,1.77c-2.93,5.25-10.58,1.63-8.6-4,1.34-3.79,6.95-3.96,8.7-.34l.48,1.57v-9.85c0-1.67-2.28-4.13-3.67-4.93-2.6-1.51-7.68-1.31-10.68-1.22-5.06.14-9.65.23-11.3,6-.33,10.09-.05,20.24-.15,30.35-.13,1.08-.77,1.83-1.8,2.15h-1c-5-2.12-9.35-5.65-13.4-9.2v1.95c0,.2-.29.77-.42.98-.64,1.06-4.35,3.32-5.59,4.11-1.18.75-2.38,1.46-3.59,2.16h-.7ZM67.9,67.83c.01-2.38-.01-4.77,0-7.15.03-6.71.08-13.48-.2-20.19-.1-2.4.04-8.13-1.35-9.95-.76-.99-2.32-1.1-3.49-1.21-1-.09-2.6.05-3.48-.12-.4-.08-.83-.48-.92-.88-.42,1.26-1.78.83-2.8.9-1.14.07-4,.19-4.81.94-1.96,1.82-1.3,8.26-1.74,10.81l-.1,7.95-9.25.2c-1.98.19-4,.16-5.98.42-1.24.16-3.28.48-3.86,1.74-.4.85-.55,2.44-.6,3.4-.06,1.16.44,3.12-.8,3.66v.2c1.24.55.74,2.58.8,3.75.05.83.19,2.17.45,2.95.43,1.28,1.97,1.79,3.21,1.99,2.23.36,4.54.28,6.78.52,8.92-.1,18.3.68,27.21.2.32-.02.62-.11.94-.11ZM39.85,29.23h-10.55v10.85c0,.37,1.06.85,1.35.85h5.05c-.97-2.02-1.31-4.27-1.2-6.5,2.19-.06,4.4.31,6.4,1.2.07-1.43.23-3.11.09-4.54-.07-.74-.27-1.72-1.14-1.86ZM103.7,29.23h-26.75c-.13,0-.65.41-.74.56-.06.11-.31.99-.31,1.09v4.75c1.63-.65,3.37-1.11,5.15-1.2,6.38-.35,13.05.31,19.46-.04,2.23-.38,2.72-3.35,3.19-5.16ZM29.3,76.78v26.85c2.43-.58,5.01-.95,5.2-3.95.4-6.24-.41-12.96,0-19.21.1-1.52.56-3.17,1.2-4.54-1.18,0-2.37-.01-3.55,0-.19,0-.36-.1-.51-.09-.59.01-2.19.23-2.34.94ZM103.7,87.63c-.35-1.32-.85-3.8-2.01-4.64-.18-.13-1.07-.56-1.24-.56h-18.05v17.75c0,.2.27.9.38,1.12.72,1.4,3.36,2.07,4.82,2.33v-16h16.1Z"/>
  <path fill="#FFFFFF" d="M100.7.03c5.62.71,5.43,9.6-.75,9.61S93.83.69,99.3.03c.32-.04,1.08-.04,1.4,0Z"/>
  <path fill="#FFFFFF" d="M17.6.03c6.36.81,4.61,11.64-2.35,9.3C10.5,7.74,11.41.64,16.2.03c.31-.04,1.09-.04,1.4,0Z"/>
  <path fill="#FFFFFF" d="M0,100.03v-.1c.34-6.47,10.21-6.06,9.6.65-.5,5.51-9.11,5.77-9.51-.39l-.09-.16Z"/>
  <path fill="#FFFFFF" d="M0,16.93v-.1c.35-6.52,10.01-6.22,9.6.45-.36,5.91-9.55,5.51-9.6-.35Z"/>
  <path fill="#FFFFFF" d="M38.3.03c5.38.68,5.33,9.6-.75,9.61S31.32.7,36.9.03c.32-.04,1.08-.04,1.4,0Z"/>
  <path fill="#FFFFFF" d="M80,.03c5.55.67,5.4,9.61-.65,9.61S73.18.72,78.6.03c.32-.04,1.08-.04,1.4,0Z"/>
  <path fill="#FFFFFF" d="M0,37.63v-.2c.41-6.38,10.03-6.06,9.6.55-.38,5.85-9.47,5.54-9.6-.35Z"/>
  <path fill="#FFFFFF" d="M0,79.43v-.2c.42-6.71,10.73-5.84,9.53,1.08-.93,5.39-9.41,4.72-9.53-.88Z"/>
  <path fill="#FFFFFF" d="M92.48,45.66c4.91-.59,7.67,5.28,3.77,8.37-2.25,1.78-5.75,1.19-7.13-1.37-1.49-2.77.15-6.62,3.36-7Z"/>
  <path fill="#FFFFFF" d="M92.48,61.86c5.98-.72,7.7,7.26,2.42,9.12-6.72,2.37-8.83-8.35-2.42-9.12Z"/>
  <path fill="#FFFFFF" d="M49.78,88.56c2.37-.26,4.67,1.2,5.18,3.57,1.05,4.87-4.92,8.11-8.21,4.21-2.43-2.89-.74-7.36,3.03-7.77Z"/>
</svg>