<?xml version="1.0" encoding="UTF-8"?>
<svg id="Layer_1" data-name="Layer 1" xmlns="http://www.w3.org/2000/svg" viewBox="0 0 128.11 128.21">
  <path d="M55.81,0c3.37.26,3.31,5.48-.25,5.41-3.32-.07-3.4-5.14-.05-5.41.1,0,.2,0,.3,0Z"/>
  <path d="M9.61,0c3.3.26,3.21,5.48-.25,5.41S5.82.28,9.31,0c.1,0,.2,0,.3,0Z"/>
  <path d="M.01,9.71c-.02-.14-.02-.36,0-.5.42-3.43,5.41-3.15,5.41.25S.4,12.9.01,9.71Z"/>
  <path d="M128.11,72.51c0,.07,0,.13,0,.2-.17,3.32-5.47,3.3-5.41-.15s5.29-3.41,5.41-.05Z"/>
  <path d="M.01,72.81c-.02-.14-.02-.36,0-.5.33-2.74,4.23-3.36,5.22-.67,1.39,3.78-4.74,5.07-5.22,1.17Z"/>
  <path d="M.01,119.01c-.02-.14-.02-.36,0-.5.39-3.2,5.41-3.03,5.41.25s-4.99,3.7-5.41.25Z"/>
  <path d="M72.61,0c3.31.26,3.27,5.34-.05,5.41-3.57.07-3.63-5.14-.25-5.41.1,0,.2,0,.3,0Z"/>
  <path d="M128.11,55.51c0,.07,0,.13,0,.2-.12,3.38-5.35,3.53-5.41-.05s5.22-3.47,5.41-.15Z"/>
  <path d="M72.71,128.21c-.12.01-.28.01-.4,0-3.38-.29-3.29-5.41.15-5.41s3.52,5.02.25,5.41Z"/>
  <path d="M9.61,128.21c-.12.01-.28.01-.4,0-3.44-.41-3.16-5.41.25-5.41s3.44,5.13.15,5.41Z"/>
  <path d="M128.11,118.71c0,.07,0,.13,0,.2-.17,3.11-4.77,3.5-5.35.4-.72-3.81,5.23-4.23,5.35-.6Z"/>
  <path d="M128.11,9.31c0,.07,0,.13,0,.2-.13,3.62-6.08,3.22-5.35-.6.59-3.11,5.18-2.7,5.35.4Z"/>
  <path d="M.01,55.91c-.02-.14-.02-.36,0-.5.47-3.88,6.6-2.61,5.22,1.17-.99,2.7-4.88,2.07-5.22-.67Z"/>
  <path d="M55.81,128.21c-.12.01-.28.01-.4,0-3.89-.47-2.62-6.61,1.17-5.22,2.74,1,2.04,4.98-.77,5.22Z"/>
  <path d="M118.81,0c3.48.27,3.33,5.41-.15,5.41s-3.41-5.15-.15-5.41c.1,0,.2,0,.3,0Z"/>
  <path d="M118.91,128.21c-.12.01-.28.01-.4,0-3.28-.28-3.2-5.41.15-5.41s3.66,5,.25,5.41Z"/>
  <path d="M.01,84.31c-.02-.14-.02-.36,0-.5.4-3.25,5.41-3.13,5.41.25s-5.01,3.55-5.41.25Z"/>
  <path d="M44.31,0c3.35.26,3.29,5.48-.25,5.41-3.32-.07-3.38-5.14-.05-5.41.1,0,.2,0,.3,0Z"/>
  <path d="M44.31,128.21c-.12.01-.28.01-.4,0-3.3-.39-3.11-5.41.25-5.41s3.49,5.12.15,5.41Z"/>
  <path d="M84.11,0c3.31.26,3.27,5.34-.05,5.41-3.54.07-3.61-5.14-.25-5.41.1,0,.2,0,.3,0Z"/>
  <path d="M.01,44.41c-.02-.14-.02-.36,0-.5.4-3.28,5.41-3.11,5.41.25S.41,47.65.01,44.41Z"/>
  <path d="M128.11,84.01c0,.07,0,.13,0,.2-.18,3.32-5.46,3.28-5.41-.15s5.29-3.4,5.41-.05Z"/>
  <path d="M84.21,128.21c-.12.01-.28.01-.4,0-3.35-.29-3.27-5.41.15-5.41s3.52,5.02.25,5.41Z"/>
  <path d="M128.11,44.01c0,.07,0,.13,0,.2-.12,3.42-5.48,3.46-5.41-.15.07-3.36,5.23-3.31,5.41-.05Z"/>
  <path d="M21.11,0c3.23.26,3.24,5.35-.15,5.41S17.34.28,20.81,0c.1,0,.2,0,.3,0Z"/>
  <path d="M128.11,107.21c0,.07,0,.13,0,.2-.19,3.4-5.47,3.31-5.41-.15s5.29-3.36,5.41-.05Z"/>
  <path d="M107.31,0c3.46.27,3.25,5.46-.15,5.41s-3.38-5.15-.15-5.41c.1,0,.2,0,.3,0Z"/>
  <path d="M21.11,128.21c-.12.01-.28.01-.4,0-3.37-.41-3.14-5.42.25-5.41s3.44,5.13.15,5.41Z"/>
  <path d="M.01,107.51c-.01-.14-.02-.36,0-.5.39-3.2,5.41-3.02,5.41.25s-5.06,3.59-5.41.25Z"/>
  <path d="M128.11,20.81c0,.07,0,.13,0,.2-.12,3.3-5.35,3.42-5.41-.05s5.22-3.56,5.41-.15Z"/>
  <path d="M107.41,128.21c-.12.01-.28.01-.4,0-3.29-.28-3.19-5.41.15-5.41s3.61,5.01.25,5.41Z"/>
  <path d="M.01,21.21c-.02-.14-.02-.36,0-.5.41-3.37,5.41-3.12,5.41.25S.4,24.4.01,21.21Z"/>
  <path d="M28.56,10.21c.37.06.91.45,1.15.75l2.9,4.45c0-.21.09-.39.18-.57.54-1.03,1.56-2.61,2.28-3.52.38-.49.85-1.01,1.5-1.1l27.15.04c.45.4.38.09.69,0l27.15-.04c.58.08.99.53,1.36.94,1.01,1.16,1.94,2.89,2.65,4.25.82-1.37,1.68-3.08,2.71-4.29.2-.23.93-.91,1.19-.91h18.45v18.35c0,.88-2.38,2.33-3.11,2.79-.68.43-1.37.85-2.09,1.21,1.35.71,3.09,1.65,4.25,2.65.42.36.87.77.94,1.36l-.04,27.15c-.29.37-.29.42,0,.79l.04,27.15c-.05.23-.12.46-.25.65-.47.72-2.45,1.95-3.25,2.45-.52.32-1.11.74-1.69.86l4.45,2.9c.25.16.75.89.75,1.15v18.35h-18.45c-.77,0-2.27-2.45-2.69-3.11s-.85-1.37-1.21-2.09c-.71,1.35-1.65,3.09-2.65,4.25-.36.42-.77.87-1.36.94l-27.15-.04c-.45-.4-.38-.09-.69,0l-27.15.04c-.24-.04-.45-.13-.65-.25-.77-.45-2.65-3.46-3.13-4.37-.1-.18-.19-.35-.18-.57l-2.9,4.45c-.11.2-.9.75-1.05.75H10.21v-18.45c0-.74,2.47-2.28,3.11-2.69.68-.43,1.37-.85,2.09-1.21-.6-.21-1.15-.57-1.69-.91-.98-.61-3.34-1.94-3.5-3.1l.04-27.15c.29-.37.29-.42,0-.79l-.04-27.15c.05-.23.12-.46.25-.65.52-.8,3.43-2.63,4.38-3.12.18-.1.35-.19.57-.18l-4.35-2.8c-.23-.19-.85-.87-.85-1.15V10.21h18.35ZM69.11,16.31c-1,.03-1.42.12-2.1-.65-1.1-1.23-2.02-3.16-2.95-4.55-.32.57-.65,1.14-1.01,1.69-.47.73-1.74,2.85-2.35,3.25-.56.37-1.05.24-1.69.26,1.92,2.24,3.85,4.58,5.05,7.3,1.2-2.72,3.11-5.08,5.05-7.3ZM32.65,16.07c-.06-.05,0-.19-.09-.16-.46.62-1.23.34-1.9.4-.55.05-1.41.11-1.91.29-1.46.53-1.09,3.13-1.35,4.35l-.1,6.35c-1.25.03-2.51-.04-3.75,0-1.57.05-3.33.08-4.89.31-1.33.19-2,.46-2.24,1.86-.13.77.02,1.91-.13,2.57-.05.24-.37.49-.37.52s.32.28.37.52c.14.62.02,1.73.13,2.47.14.86.22,1.27,1.07,1.63,1.46.62,5.07.47,6.78.52.27,0,.52.13.79.11h12.76s0-12.46,0-12.46c-.2-1.68-.07-3.4-.21-5.09-.08-1.02-.14-3.25-1.24-3.65-.92-.34-3.25-.11-3.72-.54ZM100.81,27.31c-.03-1.21.04-2.44,0-3.65-.04-1.3-.08-2.69-.21-3.99-.09-.92-.18-2.63-1.17-3.03-1.06-.43-2.39-.12-3.36-.34-.22-.05-.37-.23-.52-.38-.06-.03-.04.13-.12.2-.45.34-2.16.21-2.87.31-.82.13-1.1.15-1.51.89-.75,1.34-.59,5.28-.64,6.96,0,.27-.13.52-.11.79v12.76s12.66,0,12.66,0c2.22-.29,4.78.03,6.97-.43,1.21-.26,1.58-.63,1.77-1.83.11-.71-.02-2.42.31-2.87.06-.08.23-.06.2-.12-.15-.15-.33-.3-.38-.52-.22-.97.08-2.31-.34-3.36s-2.11-1.08-3.03-1.17c-1.27-.12-2.63-.17-3.89-.21s-2.51.04-3.75,0ZM22.81,19.81v-2.75c0-.16-.35-.75-.55-.75h-5.95v5.95c0,.23.54.55.75.55h2.75l-.6-2.15v-1.45c1.25-.1,2.43.21,3.6.6ZM57.71,16.31h-14.95c-.76,0-.52,2.98-.4,3.5.76-.29,1.58-.54,2.39-.61,3.58-.26,7.47.23,11.08-.02,1.36-.23,1.52-1.8,1.87-2.88ZM85.36,16.31h-14.95c.33,1.07.53,2.65,1.87,2.88,3.61.24,7.5-.24,11.08.02.83.06,1.62.34,2.39.61,0-.66.41-3.27-.4-3.5ZM111.81,16.31h-5.95c-.23,0-.55.54-.55.75v2.75l2.15-.6h1.45c.1,1.25-.21,2.43-.6,3.6h2.75c.16,0,.75-.35.75-.55v-5.95ZM75.61,25.41h-10.25c-.46,0-1.19-.4-1.3-.9-.11.5-.84.9-1.3.9h-10.25l.89.46c1.81,1.26,1.47,3.96-.64,4.65-2.87.95-4.7-2.6-2.55-4.55l1.09-.56h-5.35c-1.39,0-2.99,2.37-3.14,3.66-.23,1.94-.36,6.89.55,8.53.44.79,1.86,2.11,2.79,2.11h5.35l-1.03-.42c-1.68-1.1-1.59-3.86.31-4.66,3.04-1.28,5.37,2.9,2.48,4.68l-1.05.4h10.85c.3,0,.89.5,1,.8.11-.3.7-.8,1-.8h10.85l-.93-.32c-2.48-1.36-1.54-5,1.28-4.99s3.47,3.43,1.38,4.89l-1.03.42h5.25c1.02,0,2.42-1.25,2.89-2.11.82-1.48.74-5.09.66-6.84s-.2-3.27-1.7-4.5c-.27-.23-1.25-.85-1.55-.85h-5.35c.1.19.46.17.67.28,1.96,1.04,1.75,4.17-.39,4.85-2.88.91-5-2.8-2.37-4.67l.89-.46ZM69.01,48.7c-1.85-2.25-3.74-4.52-4.95-7.2-1.22,2.67-3.1,4.95-4.95,7.2.71-.05,1.38.02,1.9.55l3.05,4.65,3.05-4.65c.52-.52,1.19-.6,1.9-.55ZM16.31,42.76v14.95c1.08-.35,2.65-.51,2.88-1.87.25-3.61-.25-7.5.02-11.08.06-.79.3-1.66.61-2.39-.61-.02-3.36-.41-3.5.4ZM111.81,57.71v-14.95c0-.06-.38-.37-.5-.4-.88-.3-2.07.02-3.01,0,.27.78.54,1.57.61,2.39.26,3.58-.22,7.47.02,11.08.23,1.36,1.8,1.52,2.88,1.87ZM39.71,51.61v-5.35c0-1-1.27-2.42-2.11-2.89-1.44-.82-5.12-.74-6.84-.66-1.86.09-3.37.26-4.6,1.8-.2.25-.75,1.18-.75,1.45v5.35l.6-1.15c2-2.06,5.41-.24,4.51,2.61-.71,2.24-3.64,2.45-4.81.4-.13-.22-.12-.54-.3-.65v10.15c0,.17-.2.81-.32.98-.39.56-1.08.21-.04.87.1.13.35.92.35,1.05v10.15l.46-.89c1.85-2.6,5.55-.53,4.67,2.37-.58,1.91-3.33,2.35-4.57.81l-.56-1.09v5.35c0,1.39,2.37,2.99,3.66,3.14,1.94.22,6.9.36,8.53-.55.85-.47,2.11-1.88,2.11-2.89v-5.35l-.42,1.13c-1.45,2.1-4.89,1.3-4.89-1.38s3.24-3.74,4.79-1.58l.52,1.23v-10.85c0-.07.23-.51.3-.6.05-.25.66-.31.6-.5-.03-.08-.23-.05-.35-.15-.18-.15-.55-.65-.55-.85v-10.85l-.52,1.23c-1.55,2.15-4.8,1.06-4.79-1.58,0-2.78,3.69-3.52,4.99-1.18l.32.93ZM102.71,51.31v-5.35c0-.99-1.8-2.58-2.7-2.9-1.57-.55-6.08-.43-7.84-.24-1.46.16-3.76,1.76-3.76,3.34v5.35l.42-1.03c1.46-2.11,4.88-1.29,4.89,1.38,0,2.81-3.63,3.77-4.99,1.28l-.32-.93v10.85c0,.07-.23.51-.3.6-.05.25-.66.31-.6.5.03.08.23.05.35.15.18.15.55.65.55.85v10.85l.4-1.05c1.78-2.89,5.96-.56,4.68,2.48-.8,1.9-3.56,1.98-4.66.31l-.42-1.03v5.35c0,1.54,2.25,3.15,3.68,3.32,1.75.21,6.36.33,7.92-.22.92-.33,2.7-1.89,2.7-2.9v-5.35l-.6,1.15c-1.99,2.06-5.44.24-4.5-2.6.69-2.1,3.38-2.46,4.65-.64l.46.89v-10.25c0-.15.24-.8.35-.95.17-.21.59-.27.55-.45-.01-.05-.39-.16-.55-.36-.12-.14-.35-.79-.35-.95v-10.25l-.46.89c-1.82,2.61-5.59.52-4.67-2.37.68-2.14,3.81-2.36,4.85-.39.11.21.09.57.28.67ZM57.61,48.71c-.05-.72-.47-2.04-1.05-2.5-.07-.06-.47-.3-.5-.3h-10.15v10.15s.24.43.3.5c.55.73,1.68.87,2.5,1.15v-8.85l.15-.15h8.75ZM82.21,45.91h-10.15s-.43.24-.5.3c-.73.55-.87,1.68-1.15,2.5h8.85l.15.15v8.85c.79-.27,1.98-.45,2.5-1.15.06-.07.3-.47.3-.5v-10.15ZM54.91,54.91v8.55c0,.12-.27.6-.4.7.18.01.4.49.4.6v8.55h8.25c.78.25,1.02.25,1.79,0h8.25s0-8.25,0-8.25c.27-.82.27-1.07,0-1.89v-8.25s-8.25,0-8.25,0c-.78-.25-1.02-.25-1.79,0h-8.25ZM23.61,64.01c-.4-.05-.81-.29-1.17-.48-2.22-1.23-4.24-2.84-6.13-4.52-.01.64.12,1.13-.26,1.69-.59.89-3.76,2.58-4.81,3.28-.06.04-.18-.03-.13.17.02.1,1.46.86,1.69,1.01.76.5,3.26,1.97,3.46,2.74.11.43-.02.88.1,1.3,1.68-1.57,3.6-3.05,5.58-4.22.5-.3,1.07-.5,1.54-.76.11-.06.17,0,.13-.22ZM117.01,64.01c-.48-.18-.96-.49-1.39-.76-.75-.48-3.53-2.18-3.74-2.86-.14-.46,0-.93-.12-1.38-2.11,1.95-4.44,3.72-7.05,4.95-.12.06-.24-.01-.2.19,2.72,1.21,5.07,3.12,7.3,5.05-.08-1.17-.03-1.56.87-2.28,1.25-1,2.91-1.86,4.27-2.71l.06-.21ZM54.01,64.01c-.58-.18-1.09-.54-1.59-.86-.84-.53-2.44-1.47-3.11-2.09-.6-.56-.6-1.18-.65-1.95-1.78,1.5-3.65,3.06-5.68,4.22-.46.26-.96.44-1.43.67-.1.05-.19-.05-.14.21,2.75,1.02,5.02,3.1,7.3,4.9-.04-.74-.01-1.36.55-1.9.63-.62,2.34-1.61,3.16-2.14.49-.31,1-.62,1.53-.85l.06-.21ZM86.71,64.01c-2.75-1.01-5.03-3.1-7.3-4.9.03.57.02,1.07-.28,1.57-.48.8-3.91,2.71-4.89,3.31-.06.04-.19,0-.13.17.04.1,1.61.93,1.89,1.11.67.43,2.8,1.71,3.13,2.27.3.5.27,1.01.33,1.57,1.76-1.51,3.66-3.06,5.68-4.22.46-.26.96-.44,1.43-.67.1-.05.19.05.14-.21ZM16.31,70.51v14.95c0,.77,2.98.5,3.5.4-.28-.7-.55-1.54-.6-2.3-.28-3.6.24-7.54-.02-11.18-.23-1.36-1.8-1.52-2.88-1.87ZM111.81,85.46v-14.95c-1.08.35-2.65.51-2.88,1.87-.24,3.61.24,7.5-.02,11.08-.06.83-.34,1.62-.61,2.39.65.08,3.28.4,3.5-.4ZM48.71,70.61c-.76.04-2.04.43-2.5,1.05-.06.07-.3.47-.3.5v10.15h10.15s.48-.28.55-.35c.58-.5.94-1.7,1-2.45h-8.75l-.15-.15v-8.75ZM82.21,82.31v-10.15s-.28-.48-.35-.55c-.5-.58-1.7-.94-2.45-1v8.75l-.15.15h-8.85c.28.82.42,1.95,1.15,2.5.07.06.47.3.5.3h10.15ZM69.01,79.51c-.74.04-1.36.01-1.9-.55l-3.05-4.65-3.05,4.65c-.52.52-1.19.6-1.9.55,1.85,2.25,3.72,4.54,4.95,7.2,1.21-2.68,3.1-4.95,4.95-7.2ZM75.91,88.51h-10.85c-.3,0-.89-.5-1-.8-.11.3-.7.8-1,.8h-10.85l1.23.52c2.16,1.53,1.03,4.8-1.58,4.79s-3.49-3.43-1.38-4.89l1.13-.42h-5.35c-1.11,0-2.59,1.41-3.04,2.36-.73,1.56-.61,6.46-.4,8.28.15,1.29,1.75,3.66,3.14,3.66h5.35l-1.09-.56c-1.54-1.24-1.1-3.99.81-4.57,2.91-.88,4.97,2.83,2.37,4.67l-.89.46h10.15s.58.12.65.15c.41.14.59.36.75.75.15-.39.34-.61.75-.75.07-.02.62-.15.65-.15h10.15c-.12-.18-.43-.17-.65-.3-2.05-1.17-1.84-4.1.4-4.81,2.85-.91,4.66,2.5,2.61,4.51l-1.15.6h5.35c.27,0,1.2-.55,1.45-.75,1.54-1.23,1.71-2.74,1.8-4.6.08-1.72.16-5.4-.66-6.84-.47-.84-1.89-2.11-2.89-2.11h-5.35l1.13.42c2.09,1.46,1.3,4.88-1.38,4.89s-3.76-3.47-1.4-4.91l1.05-.4ZM37.81,90.41h-12.65c-1.85.37-6.92-.25-8.28,1.01-.71.67-.42,2.82-.57,3.73-.03.18-.19.48-.39.46.11.21.32.32.38.57.28,1.22-.37,3.32,1.03,4.07,1.04.55,4.79.63,6.13.67s2.57-.04,3.85,0c.03,1.31-.04,2.64,0,3.95.04,1.23.09,2.56.2,3.8.09.93.16,2.52,1.17,2.93,1.06.43,2.39.12,3.36.34.22.05.37.23.52.38.09-.2.28-.36.51-.39.97-.16,3.08.18,3.77-.63,1.24-1.45.6-6.51.98-8.42v-12.45ZM111.28,91.44c-.26-.26-.98-.53-1.34-.61-1.88-.39-4.34-.27-6.28-.32-.27,0-.52-.13-.79-.11h-12.56s0,12.76,0,12.76c.31,2.19-.04,4.82.43,6.97.26,1.17.71,1.49,1.84,1.66.77.12,1.83-.01,2.49.11.24.05.34.25.5.4.15-.15.3-.33.52-.38.97-.22,2.3.08,3.36-.34.99-.4,1.08-2.11,1.17-3.03.12-1.3.17-2.69.21-3.99.04-1.22-.03-2.44,0-3.65,1.28-.03,2.57.04,3.85,0s2.63-.08,3.89-.21c.96-.09,2.57-.2,2.96-1.24s.1-2.34.32-3.28c.05-.22.23-.37.38-.52-.2-.09-.36-.28-.39-.51-.15-.9.12-3.03-.54-3.71ZM69.11,111.9c-1.95-2.22-3.87-4.57-5.05-7.3-1.21,2.72-3.11,5.08-5.05,7.3.64.01,1.13-.12,1.69.26.61.4,1.88,2.52,2.35,3.25.35.55.69,1.12,1.01,1.69.26-.46.52-.94.81-1.39.48-.76,1.93-3.14,2.55-3.55.56-.37,1.05-.24,1.69-.26ZM19.81,105.41h-2.75c-.16,0-.75.35-.75.55v5.95h5.95c.2,0,.55-.59.55-.75v-2.75l-2.15.6h-1.45v-1.45l.6-2.15ZM111.81,111.91v-5.95c0-.2-.59-.55-.75-.55h-2.75c.39,1.17.7,2.35.6,3.6h-1.45l-2.15-.6v2.75c0,.21.32.75.55.75h5.95ZM57.71,111.91c-.35-1.08-.51-2.65-1.87-2.88-3.61-.25-7.5.25-11.08-.02-.79-.06-1.66-.3-2.39-.61-.12.52-.37,3.5.4,3.5h14.95ZM70.41,111.91h14.95c.93-.84.34-2.38.4-3.5-.76.29-1.58.54-2.39.61-3.58.26-7.47-.23-11.08.02-1.34.22-1.55,1.8-1.87,2.88Z"/>
</svg>