<?xml version="1.0" encoding="UTF-8"?>
<svg id="Layer_1" data-name="Layer 1" xmlns="http://www.w3.org/2000/svg" viewBox="0 0 126.71 126.9">
  <path d="M126.71,23.83v1c-.78,2.74-4.82,2.29-4.81-.55s4.12-3.2,4.81-.45Z"/>
  <path d="M126.71,102.13v.9c-.69,2.76-4.81,2.41-4.81-.45s4.15-3.28,4.81-.45Z"/>
  <path d="M.01,24.53c-.01-.11-.01-.29,0-.4.23-1.87,2.43-2.95,3.95-1.7,2.06,1.7.21,4.96-2.25,4.15-.79-.26-1.6-1.22-1.7-2.05Z"/>
  <path d="M.01,102.73c-.01-.11-.01-.29,0-.4.36-2.91,4.99-2.9,4.8.45-.16,2.83-4.44,2.92-4.8-.05Z"/>
  <path d="M43.38,3.46c.18.16.33.79.4,1.05.26.91.82,3.21.84,4.07s-.44,1.09-.91,1.65c2.1.14,4.37.35,6.4.95,1.23.36,2.71.78,1.65,2.35l-6.45,6.45c.34.06.63-.2.96-.24,2.19-.28,3.5,2.23,2.09,3.89-1.5,1.78-4.37.49-4.14-1.84.04-.35.26-.64.24-.96-1.77,2.03-4.65,3.44-3.53,6.63.44,1.24,3.78,4.53,4.93,5.37.9.66,1.86.92,2.99.79,1.86-.22,3.28-2.63,4.66-3.74-.29-.05-.54.2-.86.24-2.37.31-3.77-2.64-1.93-4.13,1.72-1.4,4.12-.13,3.88,2.08-.04.35-.25.64-.24.96l6.45-6.45c1.79-1.27,2.3,1.14,2.5,2.45l.95-2.4c.43-.5.93-.52,1.49-.18l6.72,6.68-.34-1.44c.12-2.34,3.06-3.13,4.37-1.19,1.17,1.73-.42,3.94-2.41,3.61l-.98-.32c2.09,1.84,3.65,4.92,6.94,3.54,1.22-.51,4.91-4.17,5.55-5.35.41-.76.51-1.63.42-2.48-.18-1.8-2.58-3.21-3.65-4.55-.06.25.12.47.15.75.2,1.98-1.56,3.4-3.41,2.51-2.23-1.07-1.41-4.72,1.34-4.44.35.04.64.26.96.24l-6.25-6.25c-1.49-1.79.5-2.31,1.93-2.67,1.9-.49,3.96-.71,5.92-.83-.7-.69-.88-1.04-.8-2.05.06-.8.65-3.63.97-4.33s.61-.58,1.13-.17l16.64,16.66c.81,1,.27,2.55.03,3.71-.16.77-.37,1.52-.57,2.28.51-.2,1.06-.33,1.6-.45,1.32-.3,3.25-.98,4.39-.09l16.51,16.49c.37.45.73.91.03,1.23-.74.34-3.63.93-4.49,1.01-.98.09-1.27-.13-1.94-.79-.21,2.2-.4,4.48-1.05,6.6-.43,1.38-.95,2.41-2.45,1.25l-6.25-6.25c-.02.4.25.84.25,1.25,0,2.07-2.54,3.06-4.06,1.61s-.37-4.07,1.71-4.07c.43,0,.76.25,1.15.26-1.97-1.66-3.1-4.31-6.12-3.62-1.29.29-3.18,2.19-4.13,3.17-.83.86-2.3,2.37-2.44,3.56-.36,3.05,2.02,4.04,3.74,6.04.05-.29-.2-.54-.24-.86-.36-2.56,2.75-3.92,4.23-1.83,1.26,1.78-.23,4.09-2.37,3.67l-.98-.32,6.65,6.65c1.31,1.97-1.68,2.13-2.85,2.65,1.03.21,4.03.71,2.98,2.38l-6.78,6.82c.33,0,.63-.27.97-.33,2.62-.42,3.84,2.69,1.83,4.23-1.73,1.33-3.99-.27-3.69-2.39.04-.32.29-.56.24-.86-1.14,1.39-3.56,2.86-3.75,4.75-.06.61-.02,1.34.18,1.92.47,1.31,4.51,5.38,5.79,5.91,3.28,1.34,4.64-1.62,6.73-3.43-.39,0-.72.26-1.15.26-2.23,0-3.33-2.83-1.45-4.26,1.53-1.17,3.8-.11,3.8,1.8,0,.41-.27.85-.25,1.25l6.25-6.25c1.5-1.13,2.03-.09,2.45,1.25.66,2.11.83,4.41,1.05,6.6.67-.65.95-.88,1.94-.79s3.47.63,4.42.98c.78.29.46.76.05,1.26l-16.85,16.75c-.88.47-2.66-.03-3.65-.25-.67-.15-1.35-.32-2-.55.19.76.41,1.51.57,2.28.25,1.16.78,2.71-.03,3.71l-16.59,16.61c-.43.4-.85.58-1.16-.05s-.91-3.57-.98-4.32c-.1-1.04.05-1.43.79-2.14-2.1-.14-4.37-.36-6.4-.95-1.39-.41-2.77-.97-1.45-2.55l6.25-6.25c-.32-.02-.61.2-.96.24-2.13.21-3.42-2.1-2.09-3.79,1.53-1.93,4.41-.67,4.15,1.85-.03.28-.21.5-.15.75,1.07-1.34,3.47-2.75,3.65-4.55.21-2.09-.66-2.94-1.95-4.35-.87-.95-2.91-3.02-4.02-3.48-3.25-1.38-4.87,1.71-6.94,3.54l1.06-.34c1.88-.23,3.36,1.74,2.45,3.44-1.14,2.13-4.39,1.43-4.49-1.01l.34-1.44-6.97,6.83c-1.56.49-1.79-1.71-2.09-2.73l-.52,1.73c-.28.9-1.03,1.4-1.91.86l-6.62-6.58c-.06.34.2.63.24.96.26,2.07-1.91,3.37-3.66,2.26-2.07-1.31-.89-4.55,1.62-4.32.37.03.61.27.95.25-2.05-1.78-3.4-4.67-6.63-3.53-1.33.47-5.54,4.68-5.98,6.02-1.04,3.17,1.8,4.54,3.56,6.55.02-.32-.2-.61-.24-.96-.23-2.33,2.64-3.62,4.14-1.84,1.4,1.66.1,4.17-2.09,3.89-.33-.04-.62-.3-.96-.24l6.45,6.45c1.08,1.62-.49,2.02-1.73,2.37-2.03.58-4.22.81-6.32.93.52.59.95.87.9,1.75-.04.79-.74,4.05-1.05,4.76-.21.48-.58.45-.96.15l-16.94-16.96c-.34-.45-.29-1.08-.24-1.63.11-1.32.61-2.89.99-4.16-.53.16-1.06.32-1.6.45-1.04.24-3.32.87-4.2.29L3.71,84.38c-.47-.47-.39-.84.22-1.08.78-.31,3.68-.91,4.53-.97,1.03-.07,1.16.29,1.85.9.07-2.1.33-4.32.91-6.34.36-1.27.76-2.8,2.39-1.71l6.45,6.45c.05-.29-.2-.54-.24-.86-.32-2.34,2.18-3.69,3.89-2.19s.46,4.24-1.65,4.15c-.39-.02-.77-.28-1.15-.25,2.07,1.87,3.73,4.95,7,3.3,1.12-.57,4.62-4.04,5.25-5.15,1.88-3.3-1.27-5.11-3.2-7.2-.04.37.23.68.25,1.05.11,1.51-1.35,2.78-2.83,2.52-2.79-.48-2.52-5.14.87-4.67.32.04.56.29.86.24l-6.45-6.45c-1.36-1.94,1.4-2.35,2.75-2.6.02-.26,0-.16-.15-.2-1.22-.28-3.73-.59-2.73-2.43l6.58-6.62c-.29-.05-.54.2-.86.24-3.28.46-3.7-3.97-1.02-4.62,1.53-.38,3.1.89,2.98,2.48-.03.37-.3.68-.25,1.05,1.67-1.96,4.37-3.18,3.62-6.22-.37-1.52-4.67-5.85-6.15-6.35-3.14-1.05-4.53,1.78-6.52,3.52.38.03.77-.24,1.15-.25,2.16-.06,3.31,2.7,1.65,4.15s-4.22.14-3.89-2.19c.04-.32.29-.56.24-.86l-6.45,6.45c-1.57,1.1-2.01-.38-2.37-1.63-.6-2.04-.85-4.3-.93-6.42-.72.67-.88.97-1.95.9-.85-.06-3.65-.66-4.43-.97-.61-.24-.69-.61-.22-1.08l16.91-16.89c.45-.29.92-.28,1.43-.24,1.38.1,3.01.66,4.36.99-.38-1.27-.88-2.84-.99-4.16-.05-.55-.1-1.18.24-1.63L42.61,3.57c.21-.18.54-.32.77-.12ZM42.91,11.13l-.25.1-9.13,9.16c-.16.3-.15.4-.02.7.07.17,1.64,1.79,1.76,1.84.17.07.14-.07.17-.13.46-.77.71-1.36,1.33-2.07,2.02-2.34,4.69-4.41,6.73-6.77.63-1.02-.19-1.92-.59-2.83ZM83.96,11.13c-.55.75-1.32,1.91-.71,2.81,2.08,2.5,4.95,4.63,7.02,7.08.51.6.8,1.24,1.2,1.9.49-.44,1.09-.88,1.49-1.41.2-.26.57-.72.35-1.02l-9.34-9.36ZM47.71,47.63c-.15-.72.55-1.02.95-1.5,1.01-1.19,1.5-1.67.53-3.13-1.16-1.76-3.56-4.04-5.08-5.62-3.03-3.14-6.3-6.45-9.5-9.4-.77-.71-3.39-3.21-4.26-3.34-1.5-.24-2.54,1.96-3.41,2.06-.09,0-.15-.05-.23-.07,0,.2.03.4-.05.6s-1.1,1.12-1.35,1.45c-.56.74-.87,1.04-.49,1.99.33.82,1.88,2.44,2.54,3.16,3.92,4.34,8.81,9.23,13.15,13.15.79.71,2.73,2.58,3.7,2.71.51.07.95-.27,1.35-.56.7-.51,1.27-1.52,2.15-1.5ZM100.11,26.63c-.81.2-1.3-.74-1.85-1.2-.52-.43-1.07-.88-1.79-.79-.86.11-2.84,1.99-3.56,2.64-2.13,1.92-4.11,4.03-6.15,6.05-2.8,2.79-6.08,5.79-8.55,8.85-1.09,1.35-1.72,1.94-.5,3.49.3.38,1.09,1.04,1.28,1.42.1.18.1.51.12.53.03.03.33-.02.49.06.2.09,1.07,1.02,1.35,1.25.8.62,1.14,1.01,2.18.58,1.27-.52,5.02-4.32,6.22-5.48,3.11-3,6.37-6.23,9.3-9.4.77-.83,3.27-3.43,3.43-4.38.12-.75-.43-1.34-.88-1.87-.43-.5-1.39-1.04-1.1-1.75ZM23.01,35.33c.07-.09-1.32-1.5-1.51-1.64-.31-.23-.64-.51-1.03-.25l-9.36,9.39c.86.36,1.87,1.23,2.84.69,2.35-2.08,4.42-4.69,6.76-6.74.68-.59,1.43-1.17,2.3-1.45ZM103.71,35.33c.72.22,1.43.67,2,1.15,2.41,2.03,4.54,4.86,6.96,6.94.97.69,2.09-.09,2.93-.63l-9.4-9.4c-.66-.31-2.03,1.51-2.5,1.95ZM51.41,38.93c-.04.15.04.17.1.25.18.26,1.64,1.66,1.88,1.72.15.04.3.05.45,0l5.67-5.63-1.83-1.74c-2.07,1.75-3.68,4.38-6.26,5.39ZM75.41,38.93c-2.58-.94-4.18-3.69-6.27-5.39-.12-.05-.19.02-.28.08-.15.1-1.51,1.47-1.53,1.58-.1.38,4.96,5.04,5.58,5.69.85.27,2.01-1.38,2.5-1.96ZM71.81,47.63l-8.45-8.5-8.45,8.45c1.9.15,2.97,2.24,1.84,3.84-1.37,1.94-4.46.78-4.35-1.54.02-.36.19-.61.21-.95-1.55-.14-3.12-.49-4.6-1,.47,1.59.89,3.24,1,4.9,2.44-1.21,4.68,2.04,2.65,3.9-1.27,1.17-3.35.62-3.9-1-.09-.25-.01-.58-.2-.8l-8.44,8.46,8.44,8.54c.24-1.71,1.71-2.95,3.45-2.25,2.93,1.18.88,5.85-2,4.35-.11,1.66-.53,3.31-1,4.9,1.48-.51,3.04-.84,4.6-1-.87-2.12,1.23-4.25,3.33-3.18,1.7.87,1.69,3.4-.03,4.24-.28.14-.48.16-.76.24-.11.03-.18-.07-.15.15l8.35,8.35,8.45-8.45c-2.06-.19-3.01-2.62-1.54-4.14,1.84-1.89,4.99.39,3.84,2.79l4.7,1c-.62-1.51-.82-3.19-1.1-4.8-2.42.99-4.6-2.08-2.69-3.94,1.55-1.5,4.08-.37,4.14,1.74l8.44-8.46-8.44-8.54c-.03,2.1-2.62,3.24-4.15,1.75-1.9-1.84.35-5.07,2.7-3.85.25-1.64.48-3.36,1.1-4.9-1.52.49-3.1.88-4.7,1,.94,2.06-1.15,4.19-3.2,3.25-2.21-1.01-1.55-4.49.9-4.55ZM39.01,51.33c-1.1,2.64-3.76,4.33-5.6,6.45l1.76,1.74,5.8-5.79c.13-.35-.16-.69-.36-.95-.13-.17-1.51-1.52-1.6-1.45ZM87.66,51.33c-.38.52-1.79,1.53-1.91,2.1-.02.1-.03.18.03.27l5.76,5.82,1.76-1.83c-1.86-2.13-4.36-3.78-5.64-6.36ZM39.01,75.53c.1.07,1.46-1.28,1.6-1.45.2-.27.5-.6.36-.95l-5.8-5.79-1.76,1.74c1.85,2.11,4.49,3.81,5.6,6.45ZM91.47,67.33l-5.69,5.82c-.06.09-.05.17-.03.27.12.57,1.52,1.58,1.91,2.1,1.29-2.57,3.78-4.23,5.64-6.36l-1.83-1.83ZM47.71,79.23c-.88.02-1.45-.99-2.15-1.5-.6-.43-.91-.69-1.67-.47-.88.25-2.72,2.03-3.48,2.72-4.3,3.89-9.06,8.66-12.95,12.95-.69.76-2.47,2.6-2.72,3.48-.27.95.39,1.57.97,2.27.41.49,1.15.83,1,1.55.76-.13,1.42.92,2.05,1.4.96.72,1.39.87,2.48.19,1.59-.99,4.08-3.59,5.52-4.98,2.56-2.46,5.19-5.09,7.65-7.65,1.4-1.46,3.79-3.75,4.84-5.36.92-1.41.34-1.99-.59-3.09-.4-.48-1.1-.78-.95-1.5ZM100.11,100.23c-.29-.75.75-1.32,1.2-1.85.39-.47.87-1.04.8-1.69-.1-.96-2.67-3.63-3.44-4.46-2.56-2.76-5.32-5.37-8-8-2.03-1.99-4.6-4.94-6.9-6.5-1.28-.87-1.66-.69-2.8.2-.3.24-1.11,1.14-1.35,1.25-.16.07-.46.03-.49.06-.02.02-.02.35-.12.53-.2.38-.89.95-1.18,1.31-1,1.26-1.08,1.65-.1,3,2.11,2.92,6.01,6.53,8.65,9.15s5.51,5.63,8.31,7.89c1.45,1.17,2,1.62,3.59.3.56-.46,1.04-1.4,1.85-1.2ZM23.01,91.53c-.82-.27-1.55-.79-2.2-1.35-2.38-2.05-4.48-4.75-6.86-6.84-.96-.54-1.98.33-2.84.69l9.36,9.39c.38.27.72-.01,1.03-.25.19-.14,1.59-1.54,1.51-1.64ZM103.71,91.53c.47.44,1.83,2.26,2.5,1.95l9.4-9.4c-.84-.56-1.95-1.28-2.93-.63-2.42,2.08-4.55,4.9-6.97,6.93-.56.47-1.29.97-2,1.15ZM51.41,87.93c2.57,1.04,4.19,3.63,6.26,5.39l1.83-1.74-5.67-5.63c-.15-.05-.3-.04-.45,0-.24.06-1.7,1.47-1.88,1.73-.06.08-.14.1-.1.25ZM75.41,87.93c-.52-.57-1.64-2.23-2.5-1.96-.63.64-5.69,5.3-5.58,5.69.03.11,1.39,1.48,1.53,1.58.09.06.16.13.28.08,2.09-1.7,3.69-4.45,6.27-5.39ZM35.41,103.93c-.15-.04-.17.04-.25.1-.29.2-1.7,1.66-1.75,1.96-.02.15-.02.3.05.44l9.2,9.2.25.1c.4-.92,1.21-1.82.59-2.83-2.06-2.35-4.7-4.42-6.73-6.77-.56-.65-1.08-1.37-1.35-2.2ZM91.46,103.93c-.4.66-.69,1.3-1.2,1.9-2.07,2.46-4.94,4.59-7.02,7.08-.6.9.14,2.07.71,2.81l9.34-9.36c.22-.3-.15-.77-.35-1.02-.42-.54-1.01-.93-1.49-1.41Z"/>
  <path d="M102.29,122.05c1.15-.06,2.37.88,2.51,2.04.32,2.57-3.07,3.87-4.46,1.56-.92-1.53.19-3.5,1.94-3.59Z"/>
  <path d="M101.88.05c2.2-.37,3.83,2.05,2.42,3.82-1.54,1.94-4.63.58-4.25-1.85.13-.86.96-1.82,1.83-1.97Z"/>
  <path d="M23.78.05c3.6-.62,3.9,4.66.66,4.77-3.05.1-3.24-4.32-.66-4.77Z"/>
  <path d="M22.65,122.76c2.23-2.12,5.45.91,3.52,3.27-2.07,2.53-5.86-1.04-3.52-3.27Z"/>
  <path d="M3.49,91.55c2.68-.36,3.85,3.36,1.33,4.53-3.36,1.55-4.83-4.06-1.33-4.53Z"/>
  <path d="M3.49,30.55c2.56-.35,3.88,3.31,1.41,4.51-3.38,1.66-4.96-4.03-1.41-4.51Z"/>
  <path d="M93.18,1.45c2.59-.44,4.07,2.53,2.07,4.17s-4.73-.65-3.63-2.93c.25-.51.99-1.15,1.56-1.24Z"/>
  <path d="M100.79,8.65c3.22-.4,3.53,4.6.37,4.78s-3.47-4.39-.37-4.78Z"/>
  <path d="M122.69,91.55c1.97-.24,3.4,2.09,2.22,3.72-1.71,2.39-5.21.25-4.18-2.28.32-.79,1.11-1.34,1.95-1.44Z"/>
  <path d="M100.69,113.45c1.94-.25,3.49,2.03,2.37,3.67-1.68,2.45-5.29.4-4.22-2.22.29-.72,1.08-1.35,1.85-1.44Z"/>
  <path d="M93.18,120.75c2.67-.46,4.12,2.81,1.92,4.32-2,1.37-4.65-.89-3.37-3.17.29-.51.86-1.04,1.45-1.15Z"/>
  <path d="M122.69,30.55c1.97-.24,3.39,2.1,2.22,3.72-1.64,2.29-5.07.45-4.25-2.05.27-.81,1.17-1.57,2.02-1.67Z"/>
  <path d="M25.39,8.65c2.51-.34,3.84,3.06,1.54,4.44-2.16,1.3-4.63-1.48-3.11-3.51.34-.46,1-.85,1.58-.92Z"/>
  <path d="M25.49,113.45c3.17-.39,3.58,4.59.37,4.78s-3.35-4.41-.37-4.78Z"/>
  <path d="M32.48,120.75c3.68-.63,3.93,5.22-.01,4.67-2.49-.35-2.39-4.26.01-4.67Z"/>
  <path d="M32.49,1.45c1.23-.18,2.47.42,2.79,1.65.69,2.63-2.73,4.25-4.31,1.91-.91-1.34-.07-3.33,1.52-3.57Z"/>
  <path d="M10.58,98.85c3.34-.57,3.86,4.19.95,4.65-3.39.54-3.7-4.19-.95-4.65Z"/>
  <path d="M115.18,23.35c2.51-.43,3.93,2.56,1.97,4.17-1.73,1.42-4.2-.1-3.82-2.32.13-.76,1.09-1.72,1.85-1.85Z"/>
  <path d="M10.48,23.35c2.14-.37,3.84,1.84,2.57,3.67-1.42,2.04-4.57.83-4.34-1.64.08-.87.89-1.87,1.77-2.03Z"/>
  <path d="M115.08,98.85c2.62-.49,4.09,2.7,1.98,4.28-1.95,1.45-4.7-.91-3.45-3.15.26-.47.95-1.02,1.48-1.12Z"/>
  <path d="M48.49,60.85c3.26-.18,3.43,5.1.16,5.17-3.02.06-3.21-5-.16-5.17Z"/>
  <path d="M78.09,60.85c3.63-.07,2.87,6.18-.68,5.02-2.65-.87-2.01-4.97.68-5.02Z"/>
  <path d="M62.88,46.25c3.62-.58,3.9,4.66.56,4.77-2.89.09-3.47-4.3-.56-4.77Z"/>
  <path d="M63.29,75.85c3.37-.18,3.38,5.36-.41,4.75-2.75-.44-2.49-4.6.41-4.75Z"/>
</svg>