<?xml version="1.0" encoding="UTF-8"?>
<svg id="Layer_1" data-name="Layer 1" xmlns="http://www.w3.org/2000/svg" viewBox="0 0 117.8 150.67">
  <path fill="#FFFFFF" d="M0,34.43c.3-.44.7-.69,1.25-.7l49.99.02c.48.06.85.2,1.25.45,1.48.9,3.88,4.85,4.85,6.45.58.95,1.22,1.91,1.51,2.99,1.02-2.35,2.54-4.68,4.03-6.77.92-1.29,1.86-2.86,3.58-3.12h49.99c.7.05,1.13.32,1.35.99v.1c-.31.93-.85,1.76-1.36,2.59-.88,1.46-3.97,6.52-5.15,7.25-.25.15-.88.46-1.14.46h-1.85c-.04.17.07.2.15.3.66.87,1.63,1.76,2.35,2.65,1.15,1.42,2.4,3.07,3.43,4.57,1.42,2.07,2.77,4.29,3.58,6.67v.2c-.16.21-.09.51-.17.78-.29.99-1.21,1.5-2.18,1.62h-30.4c-3.98.39-6.64,3.58-7.04,7.45-.37,3.53-.38,8.47,0,12s2.61,6.32,5.99,7.21c10.42.34,20.91.05,31.35.15.86.1,1.67.39,2.11,1.19.23.43.19.78.34,1.21v.2c-.78,2.35-2.18,4.63-3.58,6.67-1.04,1.52-2.27,3.14-3.43,4.57-.72.9-1.68,1.79-2.35,2.65-.08.1-.19.13-.15.3h1.85c.98,0,1.96,1.2,2.49,1.91,1.29,1.71,2.69,3.95,3.8,5.8.51.84,1.05,1.66,1.36,2.59v.1c-.18.56-.33.78-.92.93l-50.42.06c-1.6-.23-2.51-1.61-3.38-2.82-1.47-2.04-3.03-4.45-4.07-6.73-.05-.1-.06-.23-.2-.25-.24,1.02-.92,2-1.46,2.89-.94,1.56-3.29,5.41-4.67,6.33-.41.27-.84.49-1.33.57l-50.09.02c-.55-.01-.95-.26-1.25-.7v-.7c.47-.92,1.01-1.81,1.56-2.69,1.11-1.79,2.61-4.3,3.9-5.9.47-.58,1.4-1.41,2.19-1.41h1.85c-3.66-4.21-7.32-8.71-9.5-13.9v-1c.31-1.21,1.15-1.73,2.35-1.9h30.4c3.7-.33,6.5-3.45,6.95-7.05s.38-8.08.1-11.6c-.34-4.28-2.66-7.67-7.14-8.16H2.35c-1.22-.15-2.03-.68-2.35-1.9v-1c2.2-5.21,5.83-9.67,9.5-13.9h-1.95c-.22,0-.9-.33-1.12-.48-1.13-.76-3.51-4.68-4.37-6.03-.72-1.14-1.44-2.29-2.06-3.49v-.7ZM58.8,106.43c.91-1.35,2.72-.82,4.15-.9,1-.05,3.12-.25,3.85-.95,1.6-1.54,1.49-6.8,1.6-9,.35-7.09.3-14.21.29-21.3,0-7.68.23-15.79-.5-23.4-.17-1.72-.31-4.5-2.17-5.23-.86-.34-2.24-.48-3.17-.53-1.38-.07-3.17.45-4.05-.9-.49,1.35-2.66.83-3.86.9-1.34.07-3.44.19-4.27,1.33-1.41,1.95-1.26,7.16-1.37,9.63-.35,8.1-.24,16.28-.2,24.39.03,5.24-.09,10.48.19,15.71.12,2.13.17,6.59,1.51,8.19.75.9,2.8,1.09,3.95,1.15,1.24.07,3.53-.46,4.05.9ZM39.85,45.13H12c.33,1.47.91,4.05,2.27,4.88.6.37,1.38.48,2.08.52,6.47.41,13.45-.44,19.91,0,1.48.1,3.1.59,4.44,1.2-.02-1.53.23-3.1.09-4.64-.05-.57-.27-1.82-.94-1.96ZM105.7,45.13h-27.75c-.06,0-.53.31-.6.4-.06.09-.35.98-.35,1.05v5.15c1.38-.61,3.03-1.11,4.55-1.2,6.41-.42,13.27.36,19.71,0,1.39-.08,2.34-.23,3.13-1.47.7-1.12,1.13-2.63,1.32-3.93ZM12,105.53h27.85c.62,0,.9-1.5.94-1.96.14-1.54-.11-3.1-.09-4.64-1.35.67-2.86.99-4.35,1.2l-21.15.15c-2.14.37-2.79,3.48-3.19,5.26ZM105.7,105.53c-.29-1.76-1.08-4.95-3.17-5.28-6.48-.26-13.12.26-19.58-.02-1.12-.05-2.38-.18-3.47-.43-.85-.2-1.69-.51-2.48-.87v5.15c0,.05.26.9.31.99.07.12.44.46.54.46h27.85Z"/>
  <path fill="#FFFFFF" d="M92.1,150.63c-.37.05-1.33.05-1.7,0-5.51-.7-5.46-9.38.25-9.9,6.79-.62,7.29,9.16,1.45,9.9Z"/>
  <path fill="#FFFFFF" d="M92,.03c5.91.71,5.49,10.31-1.15,9.9-5.91-.36-6.07-9.22-.35-9.9.35-.04,1.15-.04,1.5,0Z"/>
  <path fill="#FFFFFF" d="M27.3,150.63c-.36.05-1.24.04-1.6,0-5.82-.7-5.44-10.28,1.15-9.9,5.94.34,6.13,9.18.45,9.9Z"/>
  <path fill="#FFFFFF" d="M27.3.03c5.64.72,5.54,9.54-.45,9.9-6.54.4-7.02-9.16-1.15-9.9.35-.04,1.25-.04,1.6,0Z"/>
  <path fill="#FFFFFF" d="M14.98,14.86c7.41-1,7.56,10.57.29,9.86-5.86-.57-5.79-9.12-.29-9.86Z"/>
  <path fill="#FFFFFF" d="M101.08,14.86c6.96-.94,7.91,9.19,1.46,9.86s-7.18-9.09-1.46-9.86Z"/>
  <path fill="#FFFFFF" d="M36.38,14.86c7.43-1.01,7.58,10.48.38,9.87-5.86-.49-5.78-9.14-.38-9.87Z"/>
  <path fill="#FFFFFF" d="M79.68,14.86c3.49-.44,6.05,2.15,5.72,5.62-.38,4.06-5.78,5.74-8.5,2.7-2.5-2.78-1.05-7.84,2.78-8.33Z"/>
  <path fill="#FFFFFF" d="M15.18,125.96c6.77-.77,7.25,9.24,1.36,9.86-6.9.73-7.72-9.14-1.36-9.86Z"/>
  <path fill="#FFFFFF" d="M101.28,125.96c6.04-.68,7.78,7.63,2.47,9.57-7.09,2.6-9.37-8.79-2.47-9.57Z"/>
  <path fill="#FFFFFF" d="M36.58,125.96c6.78-.77,7.32,9.23,1.36,9.86-6.85.72-7.56-9.16-1.36-9.86Z"/>
  <path fill="#FFFFFF" d="M79.88,125.96c5.09-.57,7.55,5.75,3.67,8.87-2.24,1.8-5.75,1.19-7.19-1.31-1.77-3.06-.13-7.15,3.52-7.56Z"/>
  <path fill="#FFFFFF" d="M94.38,62.06c6.64-.69,7.59,9.2,1.07,9.77s-7.21-9.13-1.07-9.77Z"/>
  <path fill="#FFFFFF" d="M94.38,78.86c4.94-.51,7.63,5.5,3.62,8.72-2.03,1.63-5.08,1.34-6.75-.65-2.5-2.97-.76-7.67,3.13-8.07Z"/>
  <path fill="#FFFFFF" d="M22.18,78.86c7.17-.81,7.22,10.33.17,9.77-5.85-.47-6.08-9.1-.17-9.77Z"/>
  <path fill="#FFFFFF" d="M22.18,62.06c6.59-.8,7.45,9.31,1.07,9.77s-7.37-9.01-1.07-9.77Z"/>
</svg>