<?xml version="1.0" encoding="UTF-8"?>
<svg id="Layer_1" data-name="Layer 1" xmlns="http://www.w3.org/2000/svg" viewBox="0 0 118.6 118.2">
  <path d="M47.4,0c2.18,1.13,4.25,2.49,6.27,3.88.8.55,4.09,2.74,4.41,3.39.81,1.66-1.41,1.64-2.36,1.9-.82.23-1.7.71-1.9,1.6l-.03,13.88c.07.6,1.26,1.33,1.68,1.82,2.55.34,5.1.34,7.65,0,.42-.49,1.61-1.22,1.68-1.82l-.03-13.88c-.2-.9-1.07-1.38-1.9-1.6-.94-.26-3.16-.24-2.36-1.9.32-.65,3.6-2.84,4.41-3.39,2.02-1.39,4.09-2.74,6.27-3.88h.8c.71.35.89.9,1,1.65l.07,22.53c.1.47.44.68.86.84,1.09.41,4.19.34,5.51.39,2.32.08,4.59.04,6.9,0s4.64-.08,6.96-.15c.14.1.11.62.1.81-.3,5.35-.33,10.73-.11,16.1.02.57.05,1.53.15,2.05.09.48.38,1.16.88,1.32l22.53.07c.77.08,1.39.26,1.75,1v.8c-1.3,2.52-2.88,4.92-4.52,7.23-.62.87-1.3,1.91-1.98,2.72-1.06,1.24-2.02,1.32-2.45-.44-.3-1.21-.3-2.56-1.74-3.06l-13.96-.05c-.56.07-1.37,1.29-1.83,1.67-.3,2.42-.25,4.84-.02,7.26l1.77,1.65,13.93-.02c1.68-.44,1.54-2.16,1.94-3.46.35-1.15,1.21-1.28,2.05-.45s2.04,2.75,2.78,3.82c1.45,2.1,2.88,4.24,4.02,6.53v.8c-.26.47-.56.71-1.08.87-7.68.32-15.43-.02-23.13.17-1.16.48-.93,1.79-1,2.8-.08,1.32-.16,2.68-.2,4-.14,4.5.03,8.96.2,13.45-1.08-.02-2.17.02-3.25,0-4.91-.1-9.88-.35-14.8,0-.73.05-2.01.23-2.27,1.03l-.08,22.62c-.12.79-.29,1.38-1.1,1.65h-.6c-1.81-.87-3.5-1.97-5.17-3.08-1.47-.98-3.15-2.08-4.52-3.18-.59-.48-1.83-1.41-1-2.28s3.76-.23,4.17-2.23l.02-13.88c-.07-.62-1.29-1.39-1.74-1.86-2.5-.32-5.01-.32-7.51,0-.45.46-1.67,1.24-1.74,1.86l.02,13.88c.41,2,3.39,1.4,4.17,2.23.82.87-.41,1.81-1,2.28-1.37,1.1-3.05,2.21-4.52,3.18-1.67,1.11-3.36,2.21-5.17,3.08h-.6c-.77-.26-.99-.89-1.1-1.65l-.08-22.62c-.26-.8-1.54-.98-2.27-1.03-3.76-.26-7.83-.16-11.6-.09-2.16.04-4.3.1-6.45.1-.09-.49.09-.99.1-1.45.17-5.37.26-10.75-.1-16.11-.07-.98.14-2.24-1-2.7-7.7-.19-15.44.15-23.13-.17-.52-.17-.82-.4-1.08-.87v-.8c1.33-2.62,3.01-5.14,4.72-7.53.56-.79,1.47-2.25,2.13-2.87.83-.79,1.67-.59,2,.5.4,1.3.26,3.02,1.94,3.46l13.93.02,1.77-1.65c.23-2.42.27-4.84-.02-7.26-.46-.39-1.27-1.61-1.83-1.67l-13.96.05c-1.46.51-1.44,1.91-1.76,3.14-.44,1.73-1.43,1.54-2.43.36-.68-.8-1.37-1.84-1.98-2.72-1.64-2.31-3.22-4.71-4.52-7.23v-.8c.36-.74.97-.92,1.75-1l22.53-.07c.5-.16.79-.84.88-1.32s.13-1.41.15-1.95c.23-5.4.19-10.82-.11-16.2-.01-.19-.05-.71.1-.81,2.32.07,4.64.1,6.96.15s4.58.09,6.9,0c1.33-.05,4.42.02,5.51-.39.42-.16.76-.37.86-.84l.07-22.53c.11-.75.28-1.3,1-1.65h.8ZM40.6,32.4l-8.4-.2.2,8.8c3.25-2.69,7.4.81,5.5,4.5.64-.09,1.16-.51,1.54-1.01,1.01-1.31.46-2.78.77-4.28,1.15-.26,2.43.1,3.53-.32.97-.37,1.88-1.44,1.81-2.49-2.8,1.6-6.19-.65-5.41-3.91.1-.4.31-.72.45-1.09ZM64.49,39.48c.2-.4.29-.78.32-1.23.08-1.1.1-3.12,0-4.2-.02-.2-.14-.81-.3-.9-1.39-.13-2.59.13-3.93-.37-.34-.13-1.02-.59-1.32-.57-.26.02-.9.45-1.23.57s-.75.25-1.1.3c-.83.1-1.93-.11-2.67.03-.36.06-.43.73-.45,1.05-.09,1.09-.09,3.12,0,4.21.04.4.15.77.32,1.13,1.87-.25,3.59-.04,5.22.89,1.57-.99,3.33-1.12,5.15-.89ZM86.4,32.2l-8.4.2c.15.37.36.69.45,1.09.8,3.3-2.64,5.5-5.45,3.9.1.82.4,1.47,1.05,2,1.33,1.08,2.78.53,4.34.81.31,1.54-.25,3.01.81,4.34.38.47.89.86,1.5.95-1.9-3.69,2.25-7.18,5.5-4.5l.2-8.8ZM64.8,53.8v-6.05l-1.77-1.73-4.28-.23-3.17.23-1.77,1.73v6.05h-6.05l-1.73,1.77-.23,3.98.23,3.07,1.73,1.77h6.05v6.05l1.79,1.71c2.48.25,4.93.25,7.41,0l1.79-1.71v-6.05h6.05l1.73-1.77.23-3.98-.23-3.07-1.73-1.77h-6.05ZM39.5,54.11c-.42-.18-.78-.28-1.24-.31-1.08-.08-3.04-.1-4.1,0-.18.02-.93.18-1,.3-.13,1.11.07,2.23-.17,3.33-.11.49-.65,1.35-.67,1.64-.02.31.32.66.43.96.51,1.39.35,2.61.39,4.06.35.17.75.28,1.13.32.95.09,4.03.11,4.83-.17.14-.05.28-.1.37-.23-.17-1.72-.07-3.44.82-4.96-.94-1.43-1-3.3-.77-4.94ZM85.48,64.08c.07-1.16-.1-2.32.19-3.46.1-.41.64-1.33.63-1.56-.02-.29-.56-1.14-.67-1.64-.25-1.1-.04-2.22-.17-3.33-.08-.12-.82-.28-1-.3-.95-.09-4.05-.11-4.87.13-.16.05-.31.15-.48.18.24,1.65.17,3.51-.77,4.94.89,1.52.98,3.24.82,4.96.09.13.23.18.37.23.8.28,3.88.25,4.83.17.38-.04.79-.15,1.13-.32ZM39.16,73.34c-.16-.15-1.1-.76-1.26-.63,1.91,3.67-2.25,7.17-5.5,4.5l-.2,8.7c2.8.25,5.6-.08,8.4-.1-.08-.39-.35-.7-.46-1.09-.85-3.23,2.7-5.62,5.45-3.91-.09-1.08-.72-1.99-1.7-2.45s-2.57-.16-3.7-.35c-.28-1.6.27-3.41-1.04-4.66ZM80.7,72.7c-.67.08-1.33.61-1.68,1.17-.8,1.27-.33,2.73-.63,4.12-.11.1-2.56.07-2.94.11-1.23.14-2.42,1.45-2.45,2.7,2.76-1.71,6.3.68,5.45,3.91-.1.39-.38.7-.46,1.09,2.8.02,5.6.35,8.4.1l-.2-8.7c-3.26,2.66-7.39-.81-5.5-4.5ZM59.27,77.82c-1.07.61-2.27.98-3.51.99-1.15,0-1.79-.67-1.95.94-.1,1.07-.1,3.23,0,4.3.02.2.14.82.25.95.24.29,1.35-.01,1.7,0,.69,0,1.81.2,2.45.46.29.12.85.53,1.06.55.26.02.88-.44,1.22-.58,1.36-.53,2.63-.32,4.03-.37.17-.3.27-.65.3-1,.1-1.06.11-3.36,0-4.4-.16-1.48-.91-.84-1.95-.84-1.31,0-2.44-.41-3.58-.99Z"/>
  <path d="M118.6,95.8v.8c-1.12,2.27-2.54,4.39-3.98,6.47-.58.84-2.42,3.66-3.09,4.11-2.04,1.38-1.84-2.18-2.51-3.25-.2-.33-.9-.93-1.27-.93h-4.35v4.05c0,.9.88,1.59,1.65,1.85,1.01.35,3.52.23,2.69,1.99-.34.72-3.98,3.13-4.87,3.73-1.9,1.28-3.82,2.55-5.87,3.58h-.6c-.44-.11-1.1-.81-1.1-1.25v-22.15h21.65c.24,0,.98.26,1.18.42.25.19.28.37.47.58Z"/>
  <path d="M0,95.8c.21-.54,1.11-1,1.65-1h21.65v22.15c0,.44-.66,1.14-1.1,1.25h-.6c-2.05-1.02-3.98-2.29-5.87-3.58-.88-.6-4.53-3.03-4.87-3.73-.96-2.04,2.71-1.49,3.78-2.6.21-.22.56-.96.56-1.24v-4.05h-4.35c-.07,0-.64.29-.74.36-1.31.91-.84,3.07-1.56,3.84-.78.83-1.72-.23-2.19-.81-.82-1-1.64-2.24-2.38-3.32-1.44-2.08-2.86-4.2-3.98-6.47v-.8Z"/>
  <path d="M97,0c2.37,1.18,4.6,2.66,6.77,4.18.75.52,3.57,2.39,3.91,2.99,1.15,1.97-2.15,1.76-3.22,2.35-.52.29-1.07,1.02-1.07,1.63v4.05h4.15c.46,0,1.17-.48,1.43-.87.65-.95.51-2.78,1.11-3.39,1.07-1.09,2.51,1.35,3.04,2.07,2,2.69,3.93,5.61,5.46,8.59v.7c-.11.39-.76,1-1.15,1h-22.15V1.25c0-.41.59-1.11,1-1.25h.7Z"/>
  <path d="M22.3,0c.41.14,1,.84,1,1.25v22.05H1.15c-.39,0-1.04-.61-1.15-1v-.7c1.54-2.98,3.46-5.89,5.46-8.59.53-.71,1.97-3.15,3.04-2.07.76.77.28,2.78,1.5,3.8.22.18.78.46,1.04.46h4.15v-4.15c0-.53-.6-1.28-1.07-1.53-1.07-.59-4.37-.38-3.22-2.35.35-.59,3.17-2.47,3.91-2.99,2.17-1.51,4.4-3,6.77-4.18h.7Z"/>
  <path d="M15.18,35.63c5.14-.71,5.47,6.95.66,7.04-4.45.08-4.94-6.45-.66-7.04Z"/>
  <path d="M29.17,12.22c4.18-.66,5.81,5.17,2.16,6.76-3.09,1.34-6.11-1.72-4.68-4.78.4-.85,1.58-1.83,2.52-1.98Z"/>
  <path d="M15.28,26.33c4.84-.66,5.47,6.86.67,7.08-4.51.2-5.13-6.47-.67-7.08Z"/>
  <path d="M38.48,12.23c4.84-.7,5.69,6.54,1.06,7.06s-5.24-6.46-1.06-7.06Z"/>
  <path d="M102.18,35.63c4.88-.67,5.73,6.08,1.45,6.95-4.92,1-5.83-6.35-1.45-6.95Z"/>
  <path d="M88.18,12.23c5.2-.71,5.55,7.47.28,7.07-4.27-.32-4.12-6.54-.28-7.07Z"/>
  <path d="M102.38,26.33c4.35-.5,5.63,5.69,1.5,6.9-5.02,1.47-6.34-6.35-1.5-6.9Z"/>
  <path d="M78.88,12.23c4.86-.71,5.66,6.55,1.06,7.06s-5.26-6.45-1.06-7.06Z"/>
  <path d="M29.18,98.93c5.08-.74,5.59,6.55,1.06,7.06s-5.4-6.43-1.06-7.06Z"/>
  <path d="M15.48,75.53c4.55-.43,5.23,6.66.67,7.07-4.79.43-5.41-6.63-.67-7.07Z"/>
  <path d="M15.28,84.83c4.95-.67,5.37,6.87.67,7.08-4.44.19-5.21-6.46-.67-7.08Z"/>
  <path d="M38.48,98.93c5.07-.7,5.47,6.57,1.06,7.06s-5.4-6.47-1.06-7.06Z"/>
  <path d="M88.18,98.93c3.74-.51,5.63,4,2.73,6.33-2.01,1.61-4.96.49-5.55-1.95-.49-1.99.73-4.09,2.83-4.38Z"/>
  <path d="M102.48,75.53c4.64-.45,5.47,6.64.67,7.07s-5.19-6.63-.67-7.07Z"/>
  <path d="M102.28,84.83c4.38-.59,5.75,5.5,1.75,6.85-4.98,1.68-6.6-6.19-1.75-6.85Z"/>
  <path d="M78.88,98.93c5.09-.7,5.46,6.57,1.06,7.06-4.61.52-5.39-6.47-1.06-7.06Z"/>
</svg>