<?xml version="1.0" encoding="UTF-8"?>
<svg id="Layer_1" data-name="Layer 1" xmlns="http://www.w3.org/2000/svg" viewBox="0 0 121.2 219.07">
  <path d="M121.2,67.03v.4c-.16.33-.16.66-.34,1.01-.46.85-1.52,1.07-2.41,1.19h-36.9c-1.7-.05-2.42,1.6-2.54,3.05-.17,1.92-.14,4.14-.21,6.09-.22,6.39-.22,12.62,0,19.01.07,1.92.04,4.1.21,5.99.11,1.29.73,2.98,2.24,3.06h36.8c1.52.1,2.87.5,3.15,2.2v.4c-.88,2.36-2.34,4.54-3.7,6.65-2.06,3.21-5.04,8.02-7.55,10.75-1.39,1.51-3.02,1.66-3.62-.58s-.45-5-3.2-5.7l-23.18-.03-.48.12-2.42,2.48-.2.4c-.18,2.35-.27,4.71-.44,7.06s-.23,5.19-.61,7.39c-.45,2.62-1.84,1.92-3.07.29-1.91-2.52-5.03-7.51-6.2-10.4-.93-2.27-.61-4.47-.66-6.84-.13-.22-1.39-.48-1.7-.5-1.54-.12-6.84-.2-8.13.17-.28.08-.53.26-.8.35.11,2.27.3,4.71-.6,6.85-1.18,2.82-4.42,8.17-6.34,10.56-1.46,1.83-2.67,1.68-2.97-.79l-1.03-14.27c-.43-.53-.96-.97-1.43-1.47-.38-.4-.79-1.21-1.35-1.35h-23.51c-2.7.65-2.59,3.45-3.14,5.55-.44,1.7-1.72,2.47-3.2,1.2-1.38-1.2-3.59-4.72-4.73-6.37-2.49-3.59-5.02-7.3-6.92-11.23v-1c.28-1.06,1.06-1.54,2.07-1.78,12.61-.28,25.26-.05,37.88-.12,2.76-.25,2.18-4.96,2.24-6.86.19-5.43.44-10.75.3-16.19-.06-2.42-.22-4.87-.3-7.3-.08-2.19.61-6.62-2.54-6.86H2.75c-1.25-.12-2.32-.52-2.75-1.8v-1c1.89-4.02,4.49-7.79,7.02-11.43,1.23-1.77,2.67-4.05,4.08-5.62,1.19-1.32,2.92-1.96,3.63.17.82,2.47.35,5.83,4.02,6.08h22.21c1.07-.05,1.67-1.24,2.34-1.96.32-.34.72-.54.98-.92l1.03-14.37c.22-2.14,1.39-2.7,2.83-.95,1.13,1.37,2.46,3.64,3.4,5.2,2.57,4.26,3.93,6.22,3.76,11.45-.01.32-.24.73,0,1,.14.15.86.35,1.1.4,1.42.3,7.66.32,8.93-.18.12-.05.41-.15.47-.23.28-.32-.01-2.42,0-3.01.04-3.07,1.24-4.96,2.69-7.51,1.23-2.18,2.81-4.9,4.33-6.87.57-.74,1.78-2.01,2.57-.8.6.93.81,5.87.92,7.28.22,2.79.35,5.59.52,8.38l2.5,2.8.39.21,22.64.07c2.24-.16,3.07-1.53,3.56-3.54.36-1.5.31-4.5,2.69-3.81.77.22,1.11.73,1.6,1.3,1.64,1.92,3.25,4.41,4.68,6.52,2.29,3.35,4.7,6.81,6.32,10.53ZM60.47,69.45c-.72.07-1.77.18-2.48.33-2.1.43-3.65,2.3-3.8,4.4-.63,8.85-.49,17.76,0,26.59.11,1.94-.15,2.78,1.2,4.4,1.68,2.02,4.93,1.92,7.32,1.62,1.75-.22,3.02-1.25,3.8-2.8.62-1.25.41-3.11.48-4.52.4-8.07.47-15.93,0-24-.1-1.72-.05-2.63-1.16-4.04-1.32-1.67-2.63-1.67-4.58-1.82-.27-.02-.51-.19-.79-.17Z"/>
  <path d="M73.8,219.03c-.42.05-1.37.05-1.8,0-6.41-.69-6.88-10.08-.72-11.57,8.5-2.06,10.18,10.65,2.52,11.57Z"/>
  <path d="M49,.03c6.58.72,7.17,10.48.42,11.67C41.05,13.19,39.97.85,47.5.03c.37-.04,1.13-.04,1.5,0Z"/>
  <path d="M68.43,148.57c2.96-3.03,8.73-2.19,10.02,2.06,1.45,4.8-2.54,9.07-7.43,7.63-4.08-1.21-5.57-6.64-2.59-9.69Z"/>
  <path d="M47.88,146.76c8.11-.44,8.47,11.19.87,11.77s-8.71-11.35-.87-11.77Z"/>
  <path d="M72.18,189.36c8.18-.83,8.86,11.44.97,11.77s-8.44-11.01-.97-11.77Z"/>
  <path d="M71.98,164.76c4.79-.54,8.1,3.69,6.3,8.2s-8.43,4.66-10.69.44c-1.94-3.61.29-8.18,4.39-8.64Z"/>
  <path d="M47.28,164.76c4.18-.5,7.61,2.62,6.9,6.9-.81,4.85-7.42,6.53-10.47,2.72-2.76-3.44-.94-9.08,3.58-9.62Z"/>
  <path d="M47.98,17.96c7.75-.33,8.5,11.09.97,11.77-8.41.76-8.64-11.45-.97-11.77Z"/>
  <path d="M93.98,74.66c7.53-.85,9.42,9.77,2.42,11.52-8.5,2.13-10.13-10.65-2.42-11.52Z"/>
  <path d="M93.98,90.16c3.3-.36,6.49,1.84,6.81,5.23.54,5.73-6.85,8.83-10.54,4.34-2.83-3.45-.79-9.08,3.73-9.57Z"/>
  <path d="M25.48,90.16c9.17-1.1,8.59,13.16-.2,11.65-6.65-1.14-6.41-10.85.2-11.65Z"/>
  <path d="M25.58,74.66c8.89-1.01,8.62,13.13-.3,11.65-6.72-1.11-6.39-10.88.3-11.65Z"/>
</svg>