<?xml version="1.0" encoding="UTF-8"?>
<svg id="Layer_1" data-name="Layer 1" xmlns="http://www.w3.org/2000/svg" viewBox="0 0 144.71 144.83">
  <path fill="#FFFFFF" d="M66.52,144.83c-1.67-.6-3.19-1.54-4.69-2.46-2.17-1.32-4.34-2.81-6.44-4.26-1.78-1.23-5.2-3.34-6.57-4.83-.69-.75-.98-2.15,0-2.79,1.81-1.19,5.98-.31,6.67-3.53l.03-23.08-.12-.48-2.66-2.54-14.17-1.03c-2.15-.19-2.86-1.35-1.05-2.83,2.26-1.85,8.13-5.41,10.82-6.48,2.18-.86,4.32-.58,6.6-.6.18-.06.34-.52.4-.7.34-1.08.3-6.98.17-8.33-.03-.26-.32-1.4-.5-1.5-1.82,0-3.6.2-5.41-.19s-4.57-2.1-6.23-3.07c-1.25-.74-6.16-3.68-6.69-4.71-.86-1.66,1.38-1.85,2.47-1.97,4.46-.49,9.01-.55,13.48-.92.57-.47,1.04-1.03,1.57-1.53.29-.28,1.3-.88,1.3-1.3v-10.05h9.95c.53,0,1.08-.97,1.4-1.3.51-.53,1.06-1.01,1.53-1.57.51-4.63.44-9.36,1.02-13.98.3-2.37,1.32-3.1,2.94-1.04,1.95,2.47,4.98,7.48,6.24,10.36,1.01,2.31.65,4.57.73,7.02.25.11.5.21.76.29,1.5.43,5.87.34,7.58.23.75-.05,1.58-.16,2.2-.6.03-1.24-.14-2.5-.05-3.75.19-2.7,1.78-5.19,3.12-7.48,1.09-1.88,2.4-4.08,3.7-5.8s2.62-2.37,3.07.29c.52,3.07.58,7.1.81,10.29.1,1.39.13,2.79.22,4.18.24.4.67.59.98.92.63.66,1.28,1.86,2.24,1.96,7.69-.1,15.41.17,23.08-.13,2.58-.79,2.41-3.62,3.01-5.69.46-1.61,1.81-2.14,3.12-.98,1.52,1.35,3.92,5.2,5.17,7.03,1.57,2.3,3.26,4.74,4.66,7.14s3.42,5.46-.83,6.13h-36.8c-.72.06-1.37.29-1.79.91-.92,1.35-.8,5.49-.86,7.24-.28,8.16-.17,16.15.1,24.31.01.43.19.89.1,1.35-4.06-.07-8.11-.21-12.15-.3-5.43-.12-10.77.1-16.19.3-1.92.07-5.06-.35-5.46,2.24v36.7c-.13.93-.24,1.95-1.06,2.53l-1.03.42h-.5ZM91.32,91.33v-3.05c-.13-4.83,0-9.95-.41-14.78-.38-4.4-5.39-4.89-8.79-4.22-1.94.38-3.07,1.76-3.77,3.53l-.23,5.32c-.15.17-3.95.17-4.54.21-1.99.14-3.9,1.7-4.32,3.68-.29,1.36-.28,3.28-.12,4.66.23,1.89,1.39,3.35,3.15,4.05,1.04.41,2.92.25,4.09.31,4.27.21,8.93.58,13.2.41.57-.02,1.15-.19,1.75-.1Z"/>
  <path fill="#FFFFFF" d="M108.12,144.83c-.95-.27-1.46-.58-1.8-1.55-.1-.29-.3-1.13-.3-1.4v-35.75h36.35c.18,0,1.08.31,1.28.42,2.45,1.29-.04,4.7-.99,6.27-2.21,3.68-4.89,7.6-7.46,11.04-.61.81-1.82,2.64-2.71,2.99-2.68,1.06-2.53-2.63-3.02-4.22-.38-1.24-1.4-3-2.9-3h-6.95v7.25c0,1.4,2.12,2.44,3.26,2.74s3.82.28,4.03,1.77c.19,1.29-.47,1.8-1.34,2.54-2.22,1.86-5.05,3.7-7.48,5.32-3,2.01-6.07,4.12-9.37,5.58h-.6Z"/>
  <path fill="#FFFFFF" d="M73.02.03c7.12.76,7.01,11.32-.25,11.7-7.91.42-8.22-10.97-1.05-11.7.34-.03.97-.04,1.3,0Z"/>
  <path fill="#FFFFFF" d="M71.9,17.86c7.76-.6,8.79,10.98,1.17,11.67-8.22.74-8.67-11.09-1.17-11.67Z"/>
  <path fill="#FFFFFF" d="M22.8,66.65c8.84-1,8.93,12.37.17,11.68-6.6-.53-6.98-10.91-.17-11.68Z"/>
  <path fill="#FFFFFF" d="M5,66.65c4.19-.47,7.3,2.73,6.6,6.9-.98,5.78-9.03,6.56-11.15,1.2-1.41-3.56.66-7.66,4.55-8.1Z"/>
  <path fill="#FFFFFF" d="M79.1,112.85c8.53-.97,8.68,11.74.77,11.78-7.01.04-8.03-10.95-.77-11.78Z"/>
  <path fill="#FFFFFF" d="M94.5,112.85c7.71-.88,8.96,10.2,1.93,11.63-7.75,1.58-9.86-10.72-1.93-11.63Z"/>
  <path fill="#FFFFFF" d="M117.6,74.15c6.08-.73,9.51,6.49,4.67,10.37-3.45,2.76-8.8.8-9.44-3.66-.43-3.04,1.6-6.33,4.77-6.71Z"/>
  <path fill="#FFFFFF" d="M117.5,89.55c6.74-.85,9.74,7.46,4.09,10.79-3.93,2.32-8.86-.5-8.83-5.05.02-2.69,1.96-5.39,4.74-5.74Z"/>
</svg>