<?xml version="1.0" encoding="UTF-8"?>
<svg id="Layer_1" data-name="Layer 1" xmlns="http://www.w3.org/2000/svg" viewBox="0 0 140.9 136.4">
  <path fill="#FFFFFF" d="M0,58.6c.69-1.46,1.61-2.8,2.52-4.13.72-1.04,1.74-2.63,2.58-3.52.64-.68,1.41-.96,1.77.13s.16,2.32,1.62,2.58c3.29-.14,7.02.35,10.26.05.87-.08.93-.89,1.65-1.27.21-1.97.15-4,.41-5.97.05-.36.13-1.32.56-1.34.63.03.96.69,1.31,1.15.92,1.24,2.7,3.99,2.82,5.48.05.56-.05,1.14,0,1.7.5.45,4.02.27,4.81.05v-2.05c0-.86,1.65-3.49,2.2-4.3.32-.48,1.33-2.18,1.93-2.03.28.14.42.44.46.75l.53,6.57c.55.47.84,1.21,1.62,1.28,3.24.3,6.97-.2,10.26-.05,1.77-.31,1.15-2.31,1.84-3.06.87-.96,2.09,1.08,2.54,1.68,1.15,1.52,2.78,3.7,3.64,5.36s.23,2.07-1.46,2.17c-5.41.34-11.17-.26-16.61-.01-.47.06-.77.62-.84,1.06-.19,1.29-.07,2.69-.1,4-.09,2.97-.17,6.02,0,9,.02.35.06.96.11,1.29.07.46.31.99.79,1.11l17.35.05c1.97.37.94,1.8.29,2.89-.87,1.45-2.03,3.09-3.06,4.44-.52.68-2.21,3.34-2.85,1.39-.32-.96-.15-2.22-1.4-2.6l-10.93.02c-.62.64-1.2.96-1.29,1.91-.17,1.81-.07,4.15-.43,5.87-.3,1.45-1.19.32-1.66-.29-.88-1.15-2.79-4.11-2.92-5.48-.05-.61.08-1.24-.05-1.85-.2-.16-.46-.18-.7-.2-.85-.07-2.76-.09-3.58.03-.19.03-.37.17-.57.18.57,2.29-.86,4.37-2.06,6.19-.36.55-1.3,2.21-1.99,2.11-.48-.13-.48-.91-.54-1.37-.25-1.93-.17-3.93-.43-5.87-.51-.45-.84-1.22-1.53-1.27-3.37-.29-7.17.21-10.58.03-1.73.35-.92,4.26-2.72,3.08-.57-.38-1.66-2.03-2.13-2.67-1.25-1.7-2.52-3.52-3.42-5.43v-.1c.19-.44.18-.68.68-.87,5.82-.3,11.72-.05,17.57-.13.71.02,1.08-.62,1.15-1.26.16-1.43.06-3.05.1-4.5.07-2.77.07-5.43-.09-8.2-.05-.85.22-2.02-.7-2.5l-16.95-.05c-.86-.12-1.53-.12-1.75-1.1v-.1ZM27.48,59.73c-.87.04-1.6.23-2.12.98-.59.84-.42,2.97-.46,4.04-.07,1.95-.16,3.94-.1,5.91.02.77.08,3.68.28,4.22.8,2.09,5.25,1.99,5.7-.24.2-1,.08-2.8.12-3.88.07-1.91.06-3.59,0-5.49-.03-.96.08-3.4-.24-4.16-.56-1.3-1.92-1.42-3.18-1.37Z"/>
  <path fill="#FFFFFF" d="M61.4,0c.43.3.64.62.7,1.15l.09,16.91c.26.64,1.64.71,2.25.75,3.9.22,8.6.24,12.5,0,.87-.05,2.29-.1,2.25-1.25V1.15c.05-.53.27-.85.7-1.15h.7c2.17,1.15,4.33,2.49,6.33,3.92.74.53,3.27,2.05,1.21,2.68-.99.3-2.23.11-2.62,1.38l-.03,10.18c0,.67.87,1.04,1.27,1.53,2.08.25,4.31.16,6.37.43,1.13.15,1.66.49.59,1.37-.99.82-4.7,2.97-5.89,3.11-.7.08-1.44-.08-2.14.06-.16.2-.18.46-.2.7-.07.86-.07,2.35,0,3.21.02.26.04.69.35.75.55.1,1.38-.06,1.99,0,1.18.13,4.91,2.29,5.89,3.11.28.23.63.49.55.91-.09.32-.93.43-1.24.47-2.04.26-4.15.17-6.2.4-.19.04-1.52,1.19-1.36,1.54l.03,10.18c.03,1.6,4.87.95,3.03,2.87-.82.85-3.39,2.4-4.5,3.1-.73.46-2.99,1.96-3.71,2s-1.06-.49-1.15-1.15v-16.4c.05-1.14-1.39-1.2-2.25-1.25-3.92-.24-8.68-.24-12.61,0-.86.05-2.29.11-2.25,1.25v16.4c-.26,1.4-1.01,1.31-2.1.8-1.83-.86-5.21-3.11-6.79-4.41-.42-.35-.98-.7-.77-1.34.29-.87,3.02-.32,3.33-1.87l-.03-10.63-1.22-1.08c-2.07-.26-4.31-.16-6.37-.43-1.13-.15-1.66-.49-.59-1.37.98-.81,4.71-2.98,5.89-3.11.61-.07,1.44.09,1.99,0,.32-.06.33-.49.35-.75.07-.86.07-2.35,0-3.21-.02-.24-.04-.5-.2-.7-.7-.13-1.44.03-2.14-.06-1.07-.12-2.67-1.11-3.63-1.67s-4.62-2.42-1.67-2.8c2.06-.27,4.29-.18,6.37-.43.41-.48,1.27-.86,1.27-1.53l-.03-10.18c-.39-1.27-1.64-1.08-2.62-1.38-2.05-.62.47-2.15,1.21-2.68,2-1.43,4.16-2.77,6.33-3.92h.7ZM69.48,23.93c-1.6.02-3.55.03-5.13.17-2.05.19-2.49,1.83-2.24,3.64.18,1.26.97,1.95,2.24,2.06,3.69.33,8.91.34,12.6,0,1.71-.16,2.3-1.25,2.3-2.85s-.59-2.69-2.3-2.85c-2.3-.21-5.14-.21-7.47-.17Z"/>
  <path fill="#FFFFFF" d="M140.9,77.6c-1.03,1.89-2.24,3.7-3.52,5.43-.57.77-2.66,4.21-3.34,1.87-.27-.94-.17-2.07-1.32-2.48l-11.03.03-1.18,1.22c-.2,2.03-.13,4.27-.43,6.27-.04.3-.17.93-.54.96-.18.02-.3-.07-.44-.16-.67-.43-2.92-4.15-3.29-5.01-.47-1.09-.25-2-.36-3.14-.08-.12-.45-.18-.6-.2-.85-.09-2.65-.09-3.5,0-.3.03-.47.12-.74.21v2.25c0,.64-1.82,3.54-2.28,4.22-.52.77-1.99,3.19-2.31.87-.28-2.06-.21-4.2-.43-6.27l-1.18-1.22-11.03-.03c-1.62.36-.88,4.53-2.82,2.98-.69-.55-2.43-3.2-3.03-4.07-.49-.71-2.36-3.38-2.32-4.07.04-.54.48-.84.97-.94l17.28-.02c.74-.02,1.06-.71,1.14-1.36.19-1.59.07-3.74.11-5.39.04-2.1-.02-3.99-.1-6.09-.04-1.02.39-3.53-1.04-3.66-5.39-.27-11.16.38-16.51,0-2.54-.18-1.95-1.27-.99-2.9s2.76-4.31,4.04-5.76c.56-.64,1.55-1.34,1.93-.14.34,1.07.16,2.38,1.64,2.66l10.53-.03c.42-.1,1.01-1,1.38-1.32.23-1.98.12-4.22.43-6.17.33-2.1,1.34-.57,1.97.31.7.97,2.48,3.71,2.61,4.79.05.44-.1,1.98.11,2.19.37.37,3.83.3,4.43.12.14-.04.31-.08.36-.24.14-.41-.04-1.52.03-2.07.13-1.06,2.38-4.64,3.15-5.55.72-.86,1.25-.84,1.43.35.3,2,.22,4.24.43,6.27.51.49.98,1.31,1.72,1.38,3.24.3,6.98-.2,10.26-.05.72-.14,1.08-.64,1.3-1.3.27-.81.12-2.33,1.42-1.93.46.14,2.63,3.24,3.05,3.85.93,1.34,1.83,2.7,2.62,4.13v.6c-.41.69-1.01.71-1.75.8l-16.96.04c-.44.14-.64.91-.68,1.32-.19,1.65-.08,3.88-.11,5.59-.03,1.93.03,3.67.1,5.59.04,1.23-.48,3.85,1.24,3.96h17c.56.06.92.28,1.15.8v.5ZM112.68,59.73c-1.73.08-2.46.78-2.58,2.52-.25,3.65-.28,7.96,0,11.6.17,2.25,1.8,2.75,3.84,2.44,2.29-.35,1.97-2.1,2.06-3.84.16-3.44.29-6.94,0-10.39-.17-2.03-1.5-2.4-3.32-2.32Z"/>
  <path fill="#FFFFFF" d="M60.8,136.4c-1.9-.94-3.72-2.08-5.47-3.28-.59-.41-2.79-1.81-2.91-2.4-.22-1.08,1.38-.99,2.06-1.2.57-.17,1.13-.49,1.3-1.1l-.03-10.63-1.22-1.08c-2-.29-4.07-.18-6.08-.42-1.1-.14-2.19-.39-.84-1.44.94-.74,4.6-2.89,5.67-3.03.59-.08,1.85.1,2.26-.04.16-.05.21-.31.24-.46.13-.7.09-2.71.03-3.48-.02-.24-.04-.5-.2-.7-.67-.12-1.37.01-2.04-.06-1.25-.13-3.6-1.57-4.71-2.29-.87-.56-3.21-1.85-.79-2.19,2.12-.3,4.34-.2,6.47-.43l1.2-1.1.05-10.71c-.48-1.21-1.83-.97-2.76-1.34-.73-.29-.78-.87-.27-1.43.6-.68,2.83-2.03,3.7-2.6.97-.63,2.07-1.38,3.08-1.92,1.11-.58,2.23-1.17,2.57.57v16.41c.1,1.35,1.4,1.08,2.35,1.15,4.07.27,8.33.27,12.4,0,.83-.06,1.93.19,2.3-.8l.04-16.66c.26-1.79,1.34-1.3,2.51-.7,1.82.95,4.17,2.53,5.83,3.77.54.4,1.75,1.07,1.21,1.88-.49.74-2.87.33-3.22,1.68l.05,10.71,1.2,1.1c2.13.23,4.35.13,6.47.43,2.42.34.09,1.63-.79,2.19-1.12.72-3.46,2.15-4.71,2.29-.67.07-1.37-.07-2.04.06-.12.08-.18.45-.2.6-.08.81-.08,2.49,0,3.3.03.3.12.47.21.74h2.35c.7,0,4.93,2.49,5.64,3.06.29.23.67.57.6.98-.09.29-1.15.43-1.44.47-2,.25-4.07.14-6.08.42l-1.22,1.08-.03,10.63c.09,1.6,4.41.86,3.18,2.62-.41.59-2.05,1.61-2.73,2.07-1.75,1.2-3.57,2.34-5.47,3.28h-.5c-.52-.23-.74-.59-.8-1.15v-16.4c.03-.95-.87-1.17-1.65-1.24-1.86-.17-4.19-.08-6.1-.1-2.37-.02-5.35-.12-7.69.1-.78.07-1.68.29-1.66,1.24v16.4c-.06.56-.28.92-.8,1.15h-.5ZM68.88,106.43c-1.55.23-3.4-.03-4.92.18-1.76.24-2.09,2.28-1.83,3.72s1.23,1.88,2.63,1.97c3.75.25,8.05.25,11.8,0,1.39-.09,2.36-.48,2.63-1.97s-.1-3.53-1.92-3.72c-2.65-.29-5.68-.09-8.37-.17Z"/>
  <path fill="#FFFFFF" d="M108.18,112.23c2.23-.2,3.92,2.27,2.56,4.16-1.7,2.37-5.78.82-4.89-2.29.29-1.03,1.27-1.77,2.33-1.87Z"/>
  <path fill="#FFFFFF" d="M21.98,94.03c3.7-.34,4.12,4.99.47,5.27s-4.09-4.94-.47-5.27Z"/>
  <path fill="#FFFFFF" d="M22.08,36.72c3.53-.18,3.99,4.98.47,5.27-3.88.32-3.97-5.1-.47-5.27Z"/>
  <path fill="#FFFFFF" d="M118.58,36.72c3.5-.13,3.83,4.96.47,5.27-3.93.36-4.12-5.14-.47-5.27Z"/>
  <path fill="#FFFFFF" d="M118.48,94.03c3.66-.29,3.94,5,.47,5.27s-4.13-4.99-.47-5.27Z"/>
  <path fill="#FFFFFF" d="M118.28,102.03c3.89-.51,4.2,5.12.57,5.27s-3.95-4.83-.57-5.27Z"/>
  <path fill="#FFFFFF" d="M99.98,112.23c3.51-.28,3.98,4.84.76,5.27-4.05.54-4.27-4.99-.76-5.27Z"/>
  <path fill="#FFFFFF" d="M40.88,112.23c3.82-.3,4,5.84-.32,5.27-2.98-.4-2.91-5.01.32-5.27Z"/>
  <path fill="#FFFFFF" d="M21.88,102.03c3.44-.38,4.24,4.18,1.3,5.1-3.92,1.23-5.14-4.67-1.3-5.1Z"/>
  <path fill="#FFFFFF" d="M32.58,112.23c3.53-.32,4,4.87.76,5.26-4.02.49-4.24-4.94-.76-5.26Z"/>
  <path fill="#FFFFFF" d="M40.37,18.92c1.84-.31,3.56.71,3.43,2.72-.24,3.56-5.92,3.26-5.39-.69.12-.91,1.05-1.88,1.97-2.03Z"/>
  <path fill="#FFFFFF" d="M99.47,18.92c2.1-.35,3.72.92,3.42,3.12-.24,1.73-2.54,2.61-4,1.81-2.06-1.12-1.74-4.54.58-4.93Z"/>
  <path fill="#FFFFFF" d="M21.57,28.82c4.43-.75,4.57,5.7.19,5.17-2.95-.36-2.89-4.71-.19-5.17Z"/>
  <path fill="#FFFFFF" d="M118.07,28.82c4.37-.68,4.45,5.66.19,5.17-3.03-.35-3-4.73-.19-5.17Z"/>
  <path fill="#FFFFFF" d="M32.17,18.92c4.32-.68,4.4,5.22.68,5.22-3.41,0-3.56-4.76-.68-5.22Z"/>
  <path fill="#FFFFFF" d="M107.77,18.92c4.32-.68,4.48,5.22.68,5.22-3.35,0-3.52-4.77-.68-5.22Z"/>
  <path fill="#FFFFFF" d="M43.38,68.83c3.62-.29,4.08,4.99.47,5.27s-4-5-.47-5.27Z"/>
  <path fill="#FFFFFF" d="M43.48,61.92c3.59-.14,3.9,5,.37,5.28-3.74.29-3.88-5.14-.37-5.28Z"/>
  <path fill="#FFFFFF" d="M97.08,68.82c3.62-.28,3.98,5,.47,5.27s-4.05-5-.47-5.27Z"/>
  <path fill="#FFFFFF" d="M73.57,39.62c4.32-.67,4.28,5.31.59,5.26-3.18-.04-3.62-4.79-.59-5.26Z"/>
  <path fill="#FFFFFF" d="M66.47,39.62c4.34-.69,4.26,5.31.59,5.26-3.19-.04-3.62-4.78-.59-5.26Z"/>
  <path fill="#FFFFFF" d="M97.18,61.92c3.45-.25,3.85,4.99.47,5.28-3.8.32-4.14-5.01-.47-5.28Z"/>
  <path fill="#FFFFFF" d="M73.88,91.53c3.45-.42,4.23,4.85.76,5.26-3.85.46-4.16-4.85-.76-5.26Z"/>
  <path fill="#FFFFFF" d="M66.78,91.53c3.45-.42,4.2,4.85.76,5.26-3.86.46-4.18-4.84-.76-5.26Z"/>
  <path fill="#FFFFFF" d="M74.08,122.02c3.56-.13,3.67,4.85.66,5.27-3.97.55-4.37-5.13-.66-5.27Z"/>
  <path fill="#FFFFFF" d="M66.98,122.02c3.56-.13,3.64,4.85.66,5.27-3.98.55-4.38-5.13-.66-5.27Z"/>
  <path fill="#FFFFFF" d="M11.98,61.92c3.99-.26,3.72,6.1-.46,5.21-3.09-.66-2.61-5.01.46-5.21Z"/>
  <path fill="#FFFFFF" d="M11.98,68.83c3.54-.28,3.88,5.01.47,5.27-3.67.29-4.17-4.98-.47-5.27Z"/>
  <path fill="#FFFFFF" d="M74.08,9.02c3.33-.17,3.86,4.84.66,5.27-4.12.55-4.24-5.09-.66-5.27Z"/>
  <path fill="#FFFFFF" d="M66.88,9.02c3.82-.25,4,5.85-.32,5.27-3.05-.41-2.75-5.07.32-5.27Z"/>
  <path fill="#FFFFFF" d="M128.58,68.83c3.61-.29,3.96,5,.47,5.27s-4.08-4.99-.47-5.27Z"/>
  <path fill="#FFFFFF" d="M128.58,61.92c3.49-.25,4.08,4.97.47,5.28s-4.01-5.02-.47-5.28Z"/>
</svg>