<?xml version="1.0" encoding="UTF-8"?>
<svg id="Layer_1" data-name="Layer 1" xmlns="http://www.w3.org/2000/svg" viewBox="0 0 126.6 126.6">
  <path d="M56.5,0c3.41,1.18.82,3.38-.18,5.17s-1.3,3.26.18,4.98l6.77,6.74.24-.14c2.01-2.34,4.87-4.45,6.8-6.8,1.5-1.83.85-3.45-.26-5.24s-3.07-3.57.06-4.71h.9l10.22,1.73c3.02.79,6.64,1.1,9.51,2.29,2.3.95,2.16,2.82.63,4.48l-17.85,17.85,3.5-.1,10.75-9.35c.79-.74,2.57-1.68,2.84.05.22,1.43-.78,5.35-1.16,6.93-.65,2.71-1.54,6.7-3.23,8.87-.93,1.18-2.18,2.04-3.09,3.2.05.28.18.54.31.79.63,1.18,5.33,5.89,6.51,6.49.19.1.61.32.8.27.29-.07,1.76-1.84,2.12-2.19,2.43-2.32,5.05-2.86,8.21-3.69,2.09-.55,4.49-1.17,6.62-1.48,1.82-.26,4-.24,2.46,2.16l-9.79,11.41-.11,3.39,17.75-17.75c1.67-1.55,3.58-1.88,4.58.53,1.31,3.16,1.64,7.18,2.49,10.51l1.53,9.12v1c-1.13,3.16-2.99,1.13-4.71.06s-3.41-1.75-5.19-.31l-6.99,7.01.14.24c2.31,2,4.38,4.77,6.7,6.7,2.71,2.26,4.6.04,6.85-1.26,1.62-.93,2.61-.67,3.2,1.15v1l-1.63,9.62c-.57,2.67-1.03,5.39-1.78,8.02s-1.57,5.04-4.69,2.91l-18.25-18.25.1,3.5,9.59,11.11c1.73,2.4.07,2.79-2.16,2.46-3.39-.49-8.22-1.69-11.44-2.86-2.3-.84-3.87-2.77-5.52-4.49-.31-.1-.81.21-1.1.37-1.12.64-5.54,5.07-6.21,6.19-.17.29-.37.64-.42.98.02.23,2.32,2.27,2.7,2.71,2.13,2.47,2.99,6.61,3.73,9.77.37,1.55,1.28,5.08,1.04,6.51-.29,1.7-1.99.81-2.82.07l-10.85-9.44-3.5-.1,18.05,18.05c.95,1.07,1.55,2.52.4,3.7-.81.84-4.21,1.55-5.45,1.85-4.15,1-8.38,1.68-12.58,2.42l-3.12.43h-.4c-3.72-1.05-.93-3.43.08-5.27.84-1.52,1.24-3.04.07-4.53l-7.12-7.09-.24.14c-2.03,2.31-4.73,4.38-6.7,6.7-1.39,1.64-1.07,3.15-.08,4.88,1.05,1.84,3.69,4.14-.02,5.17h-.4l-3.63-.52c-4.77-.92-9.63-1.58-14.31-2.89-1.63-.46-3.93-.88-3.76-3.05.07-.86.65-1.5,1.15-2.15l17.85-17.85c-.69-.03-1.47.14-2.15.16-.47.01-.91-.21-1.31-.01l-11.05,9.55c-1.71,1.35-2.89.91-2.68-1.38s1.11-5.52,1.72-7.78c.85-3.18,1.33-5.49,3.67-7.93.34-.35,2.01-1.72,2.09-2.02.13-.48-.67-1.52-.98-1.88-.92-1.08-4.86-5.08-5.93-5.56-.2-.09-.4-.18-.62-.18-1.4,1.19-2.43,2.65-4.02,3.68s-4.83,1.81-6.79,2.31c-1.68.43-6.61,1.73-8.07,1.48-1.2-.2-1.34-1.06-.75-2.01,3.18-3.99,6.6-7.79,9.97-11.63l.11-.39.05-3.15-18.62,18.48c-3.16,1.89-3.89-1.29-4.52-3.64-1.34-4.98-2.06-10.14-2.99-15.21L0,70.6v-.2c.16-.59.23-1.1.7-1.55,1.28-1.26,2.9.47,3.97,1.13,1.69,1.05,3.48,1.78,5.23.37l6.99-7.01-7.09-7.19c-1.63-1.25-3.24-.67-4.83.27-1.17.69-3,2.64-4.32,1.28-.43-.44-.48-.95-.65-1.5,0-.07,0-.13,0-.2.28-4.44,1.64-10.47,2.65-14.9.31-1.35,1.15-5.43,2-6.3,1.18-1.2,2.66-.62,3.75.35l18.05,18.05-.1-3.5-9.49-10.91c-.71-.84-1.57-2.48.12-2.77,1.48-.25,5.74.86,7.39,1.26,2.63.65,6.28,1.46,8.38,3.12,1.18.93,2.08,2.15,3.21,3.1.38.04,1.53-.78,1.85-1.05,1.07-.9,5.03-4.81,5.52-5.88.1-.23.24-.55.17-.8-1.69-1.63-3.61-3.18-4.46-5.44-1.11-2.96-2.73-9.09-3.01-12.19-.2-2.18.85-2.81,2.58-1.48l11.2,9.69c1.08-.13,2.15.01,3.23.08.11,0,.2.2.17-.07l-18.25-18.25c-2.24-3.33.71-4.09,3.31-4.79,2.81-.76,5.85-1.33,8.72-1.88,2.68-.51,5.94-1.23,8.62-1.43h.9ZM52.9,47.7c-.99.19-1.7,1.02-2.41,1.64-.63.55-.59.5-1.15,1.15-.64.74-1.39,1.42-1.64,2.41l5.2-5.2ZM78.9,52.8c.06-.07-.22-.56-.28-.67-.74-1.33-2.83-3.41-4.15-4.15-.11-.06-.6-.34-.67-.28.57.73,1.24,1.48,1.9,2.15.8.82,1.93,1.99,2.8,2.7.07.05.38.28.4.25ZM63.27,53.81c-3.35,2.95-6.48,6.13-9.46,9.45l4.54,4.94,4.92,4.59c.11.02.43-.25.54-.34,1.7-1.39,3.74-3.5,5.3-5.1,1.03-1.05,2.45-2.44,3.35-3.55.1-.12.35-.41.35-.55-2.87-3.3-6.07-6.33-9.25-9.35l-.28-.08ZM52.9,78.9l-5.2-5.2c.11.41.34.82.58,1.17.73,1.09,2.36,2.72,3.45,3.45.35.23.76.47,1.17.58ZM73.7,78.9c.19,0,.4-.1.57-.18,1.26-.6,3.45-2.81,4.2-4,.19-.3.43-.65.44-1.01l-5.2,5.2Z"/>
  <path d="M7.48,19.83c6.08-.66,9.24,6.68,4.47,10.67S.44,29.24,2.53,23.67c.73-1.96,2.87-3.62,4.96-3.84Z"/>
  <path d="M25.28,2.13c2.79-.27,5.75,1.78,6.45,4.49,1.56,6.1-6.48,10.49-10.62,5.32-2.99-3.72-.47-9.36,4.18-9.82Z"/>
  <path d="M25.28,112.33c5.22-.39,8.85,5.94,5.07,10.07-4.06,4.45-11.02,1.11-10.54-4.64.23-2.73,2.73-5.23,5.47-5.43Z"/>
  <path d="M7.58,94.83c5.1-.5,8.98,5.53,5.52,9.72-4.72,5.71-12.99.19-10.32-6.12.79-1.85,2.78-3.4,4.8-3.6Z"/>
  <path d="M100.58,112.33c3.06-.21,5.99,2.38,6.22,5.42.47,6.01-6.79,9.19-10.8,4.3-3.18-3.88-.13-9.39,4.58-9.72Z"/>
  <path d="M117.68,94.12c2.86-.09,5.71,2.23,6.19,5.05.98,5.79-6.53,9.66-10.58,4.98-3.3-3.82-.54-9.88,4.39-10.03Z"/>
  <path d="M100.28,2.13c4.72-.46,8.15,4.92,5.76,9.06s-7.52,4.02-10.18.4c-2.81-3.83-.09-9.02,4.42-9.46Z"/>
  <path d="M117.08,19.13c5.33-.58,8.8,5.74,5.32,9.92-4.17,5-12.05.56-10.52-5.42.57-2.25,2.9-4.24,5.21-4.49Z"/>
</svg>