<?xml version="1.0" encoding="UTF-8"?>
<svg id="Layer_1" data-name="Layer 1" xmlns="http://www.w3.org/2000/svg" viewBox="0 0 127.9 127">
  <path d="M13.6,0c3.11.7,2.75,5.36-.35,5.5-3.41.16-4.14-4.72-.75-5.5h1.1Z"/>
  <path d="M0,13.6v-1.1c.49-1.83,2.37-2.86,4.09-1.84s1.95,3.16.46,4.44c-1.69,1.45-3.97.52-4.55-1.5Z"/>
  <path d="M115.5,0c3.33.86,2.56,5.66-.75,5.5s-3.49-4.72-.45-5.5h1.2Z"/>
  <path d="M115.3,127h-.8c-1.92-.42-2.99-2.43-1.94-4.19,1.17-1.97,4.04-1.71,4.89.39.75,1.84-.36,3.34-2.15,3.8Z"/>
  <path d="M0,114.5v-1.1c1.01-4.08,7.01-1.86,5.22,1.77-1.16,2.35-4.62,1.86-5.22-.67Z"/>
  <path d="M13.4,127h-.8c-2.03-.48-3.09-2.71-1.7-4.45.86-1.07,2.49-1.48,3.65-.65,1.74,1.26,1.65,3.71-.22,4.78l-.93.32Z"/>
  <path d="M41.8,37.8c2.42,2.55,5.96,5.99,9.65,6.3,2.86.23,8.3-.94,11.03-1.97.44-.17.37-.28.59-.4.11-.06,1.41-.13,1.56-.11.27.04.41.35.65.46.64.3,2.14.59,2.9.8,7.27,1.94,10.43,2.08,16.12-3.12.41-.37,1.43-1.3,1.7-1.7.06-.08.14-.1.1-.25l-.8-.35-9.15-9.15c-.46-.5-.26-.93.3-1.21.68-.34,2.06-.67,2.83-.87s2.52-.7,3.23-.48l7.3,7.2c1.04.67,2.67-.94,2.04-1.94l-6.9-6.9c-.46-.6-.43-.92-.32-1.62.18-1.2.66-2.98,1.07-4.13.22-.64.51-1.76,1.4-1.19l9.16,9.14.44.84c.03.13.13.06.21.01.34-.22,1.41-1.38,1.75-1.75,1.4-1.53,3.17-3.79,3.85-5.75,1.62-4.65-.99-10.34-2-14.92-.03-.44.05-.66.47-.81,1.13-.39,4.92-.89,6.18-.93s1.33.91,1.62,1.88c.62,2.06,1.13,4.58,1.5,6.7.3,1.77.65,3.64.33,5.42,1.6-.35,3.31-.03,4.92.23,2.07.34,4.4.84,6.42,1.38,1.02.27,2.67.44,2.66,1.74,0,1.07-.35,2.86-.53,3.97-.08.52-.3,2.23-.57,2.53-.36.41-.91.16-1.37.06-4.7-1.04-10.06-3.63-14.83-1.56-2.69,1.17-4.96,3.46-7,5.5l1,.5,9.26,9.35c.27.89-1.43,1.23-2.08,1.43-.52.16-1.13.32-1.66.44-1.01.24-2.46.79-3.32.08l-7-7c-1-.43-2.54,1.15-1.84,2.14l7.2,7.3c.22.71-.44,3.03-.66,3.85s-.7,3.51-1.89,2.51l-9.15-9.15-.35-.8c-.15-.04-.17.04-.25.1-.88.61-2.64,2.74-3.34,3.66-2.74,3.56-3.19,6-2.37,10.46.26,1.44,1.03,5.09,1.59,6.31.13.29.46.24.54.67.03.14-.03,1.66-.07,1.74-.11.2-.35.31-.46.54-.53,1.12-1.23,4.46-1.5,5.8-.94,4.76-.57,7.25,2.37,11.07.68.88,2.4,2.97,3.25,3.55.08.06.1.14.25.1.02-.41.3-.79.55-1.1,2.42-3,6.16-5.71,8.7-8.7,1.33-1.3,1.73.9,2.02,1.88.27.91,1.01,3.5.76,4.31l-7.18,7.32c-.67,1.04.94,2.67,1.94,2.04l7.3-7.2c.21-.09.4-.15.64-.14.96.04,3.13.68,4.12.99.79.25,2.52.57,1.69,1.7l-8.89,8.91-1.1.7c2.73,2.7,6.04,5.95,10.1,6.2,2.11.13,4.45-.42,6.5-.91,1.66-.4,4.18-1.41,5.72-1.58.4-.05.82-.04.99.39.25.62.42,2.31.53,3.07.15.98.4,2.33.42,3.29s-.78,1.16-1.5,1.4c-.84.27-1.84.47-2.72.68-3.13.74-6.57,1.56-9.78,1.27.34,1.94-.08,3.99-.43,5.92s-.83,4.37-1.42,6.28c-.5,1.61-.56,1.83-2.3,1.7-1.23-.09-4.37-.47-5.45-.85-.66-.23-.47-.86-.37-1.37,1.02-4.82,3.74-10.13,1.59-15.05-1.16-2.64-3.46-4.92-5.47-6.93-.12.41-.33.77-.6,1.1-2.47,3.05-6.26,5.81-8.85,8.85-.33.25-.62.48-1,.19-.49-.37-1.29-3.59-1.45-4.35-.14-.63-.45-1.62-.2-2.2l7.19-7.3c.66-1.03-1-2.62-2-2l-6.94,6.95c-.41.32-.61.38-1.14.34-.91-.07-2.56-.55-3.48-.82-.97-.28-3.31-.69-1.98-2.02,2.99-2.54,5.7-6.28,8.7-8.7.31-.25.69-.53,1.1-.55.04-.15-.04-.17-.1-.25-.69-1.01-3.26-3.12-4.33-3.87-3.18-2.26-5.55-2.6-9.39-1.95-1.71.29-5.6,1.12-7.1,1.77-.15.07-.12.34-.5.43-.17.04-1.42,0-1.57-.09-1.37-.81-4.26-1.44-5.91-1.8-5.07-1.09-7.6-.95-11.75,2.25-.97.75-2.33,1.88-3.1,2.8-.08.1-.52.63-.45.7l.9.45,9.05,9.05c.79,1.05-1.03,1.42-1.75,1.65-.98.31-2.89.86-3.86.94-.66.05-.9-.09-1.39-.49l-6.8-6.8c-.99-.66-2.73,1.13-1.89,2.09l7.15,7.25c.1.25.1.43.08.69-.08,1.07-.73,3.35-1.09,4.42-.22.65-.54,1.96-1.45,1.35l-9.2-9.2-.35-.8c-.08-.08-.65.41-.75.5-1.75,1.51-4.36,4.9-5.12,7.08-1.2,3.46.01,7.35.88,10.77.29,1.12.95,2.77,1.08,3.82.05.37.08.88-.33,1.05-.38.16-1.36.28-1.84.36-1.17.2-2.6.44-3.77.53-1.65.12-1.73-.02-2.22-1.58-.58-1.85-1.04-4.18-1.4-6.1-.38-2.04-.81-4.14-.53-6.22-2.1.29-4.25-.14-6.32-.53-1.82-.34-4.02-.78-5.78-1.32-1.38-.42-1.88-.4-1.8-2,.06-1.37.47-4.36.85-5.65.18-.63.49-.64,1.08-.57,1.9.24,4.65,1.35,6.69,1.81,1.75.39,3.63.78,5.44.67,4.14-.25,7.4-3.49,10.14-6.26l-.95-.55-9.15-9.15c-.58-1,.94-1.29,1.61-1.51.94-.3,2.06-.58,3.02-.78.74-.16,1.55-.49,2.18.08l6.9,6.9c.98.87,2.75-.88,2.14-1.84l-6.85-6.85c-.32-.35-.52-.7-.49-1.19.06-1.08.89-4.04,1.32-5.09.3-.73.53-1.26,1.38-.63l9.05,9.05.5.9c2.73-2.7,5.96-5.99,6.25-10.05.14-1.89-.34-4.09-.77-5.93-.25-1.1-.79-3.67-1.22-4.58-.13-.28-.42-.3-.49-.51-.05-.17-.01-1.86.07-1.99.1-.15.33-.18.41-.32.83-3.68,2.48-7.72,1.87-11.55-.57-3.58-3.67-6.63-6.12-9.08l-.65,1.05c-3.01,2.61-5.72,6.24-8.75,8.75-.86.71-1.14.45-1.53-.48s-1.26-4.1-1.32-5.09c-.02-.38.09-.75.34-1.04l7-7c.62-.97-1.03-2.6-2.04-1.94l-7.3,7.2c-.81.25-3.87-.61-4.81-.91s-2.53-.59-1.45-1.85c2.96-2.62,5.62-6.07,8.6-8.6.38-.32.77-.62,1.25-.75-2.06-2.08-4.32-4.38-7.06-5.54-4.76-2.01-10.23.62-14.92,1.66-.41.09-.91.27-1.22-.12-.21-.25-.41-1.78-.48-2.22-.14-.86-.72-4.33-.46-4.93.18-.43,1.22-.72,1.65-.85,2.04-.63,4.59-1.14,6.7-1.5,1.78-.31,3.72-.71,5.5-.35-.23-1.55,0-3.09.23-4.62.37-2.39,1-5.48,1.72-7.78.3-.94.44-1.65,1.6-1.6,1.35.06,3.22.38,4.57.63.42.08,1.84.25,1.96.64.06.22.03.62,0,.86-.3,1.86-1.26,4.23-1.71,6.19-.49,2.15-.97,4.4-.66,6.62.52,3.66,3.58,6.72,6.09,9.21.19.08.23-.35.31-.49.13-.2.33-.43.48-.62,2.55-3.04,6.15-5.78,8.81-8.79,1.15-.85,1.43.76,1.69,1.59.33,1.05.87,2.87.97,3.93.06.58.03.76-.32,1.22l-6.95,6.95c-.66,1,.94,2.66,2,2l7.32-7.18c.81-.25,3.1.41,4.01.66.54.15,2.32.6,2.56,1.05.2.38.01.62-.23.93-3.04,2.59-5.8,6.38-8.85,8.85-.31.25-.69.53-1.1.55ZM75.9,51.7c-1.82.38-3.78-.03-5.6-.35-2.13-.37-4.22-.95-6.35-1.36-2.77.54-5.51,1.34-8.31,1.69-1.17.15-2.38.32-3.54.01.35,3.96-.94,7.93-1.77,11.77.8,3.83,2.12,7.79,1.77,11.73,4.03-.33,8.02,1.05,11.95,1.8,1.24-.29,2.48-.62,3.74-.87,2.65-.54,5.41-1.22,8.12-.93-.29-.92-.18-1.89-.09-2.84.14-1.36.45-2.83.72-4.18.23-1.17,1.07-3.75,1.07-4.73,0-.74-.68-2.83-.87-3.73-.33-1.64-.75-3.42-.92-5.08-.1-.99-.18-1.97.09-2.94Z"/>
  <path d="M98.78,106.12c1.08-.04,2.22.72,2.64,1.71,1.23,2.93-2.44,5.13-4.52,3.02-1.65-1.66-.43-4.65,1.89-4.73Z"/>
  <path d="M98.48,15.33c2.45-.32,4.16,2.32,2.62,4.32-2.02,2.63-5.77.43-4.8-2.5.31-.96,1.17-1.69,2.18-1.82Z"/>
  <path d="M109.28,25.93c3.86-.47,4.19,6.08-.32,5.47-2.89-.4-2.94-5.07.32-5.47Z"/>
  <path d="M87.07,47.92c3.8-.6,4.44,5.07.87,5.46-3.77.42-4.13-4.95-.87-5.46Z"/>
  <path d="M76.37,84.22c2.35-.38,4.3,2.23,2.87,4.27-1.69,2.42-5.46,1.01-5.02-2.02.15-1.04,1.09-2.08,2.15-2.25Z"/>
  <path d="M50.58,84.23c4.24-.61,4.18,6.23-.18,5.43-2.95-.54-2.76-5,.18-5.43Z"/>
  <path d="M18.08,95.53c1.96-.21,3.6,1.64,2.97,3.57-.54,1.67-2.64,2.5-4.12,1.53-2.13-1.41-1.42-4.82,1.15-5.1Z"/>
  <path d="M28.98,106.12c4.12-.15,3.43,6.71-.78,5.42-3.02-.92-2.18-5.31.78-5.42Z"/>
  <path d="M50.37,37.32c3.28-.55,4.62,3.56,2.06,5.06s-5.41-1.63-3.67-3.97c.35-.47,1.03-.99,1.61-1.09Z"/>
  <path d="M39.77,47.92c4.23-.72,4.52,6.09.1,5.45-3-.43-2.92-4.97-.1-5.45Z"/>
  <path d="M39.77,73.62c4.11-.64,4.39,5.11.86,5.46s-4.11-4.96-.86-5.46Z"/>
  <path d="M124.67,111.22c4.34-.68,4.21,6.11.1,5.45-3.02-.48-3.13-4.98-.1-5.45Z"/>
  <path d="M124.67,10.32c4.25-.67,4.24,5.86.29,5.47-3.32-.33-3.25-5-.29-5.47Z"/>
  <path d="M76.27,37.32c3.24-.55,4.72,3.37,2.06,5.06-2.39,1.51-5.18-1.28-3.78-3.78.33-.58,1.05-1.17,1.72-1.28Z"/>
  <path d="M28.58,15.33c2.98-.43,4.46,3.36,1.96,5.06-1.99,1.35-4.53-.51-4.22-2.83.14-1.07,1.2-2.08,2.27-2.23Z"/>
  <path d="M86.97,73.62c4.5-.72,4.21,5.96.3,5.45-3.13-.41-3.24-4.98-.3-5.45Z"/>
  <path d="M109.28,95.53c3.65-.35,3.94,5.04.86,5.46-3.97.55-4.55-5.11-.86-5.46Z"/>
  <path d="M18.08,25.93c1.74-.16,3.35,1.42,3.08,3.18-.37,2.39-3.54,3.21-5,1.19-1.18-1.65-.13-4.17,1.92-4.36Z"/>
  <path d="M63.9,72.4c-1.11,2.1-4.53,1.51-4.96-.8-.58-3.18,3.22-4.7,5-2.11,1.81-2.67,5.87-.88,5.02,2.22-.65,2.36-3.75,2.62-5.07.68Z"/>
  <path d="M63.56,57.96c-.8.73-1.81,1.04-2.86.68-.76-.26-1.64-1.22-1.78-2.02-.53-3.1,3.19-4.56,5.03-2.13,1.85-2.53,5.89-.79,5,2.3-.68,2.38-3.62,2.62-5,.7-.18.1-.26.35-.39.46Z"/>
  <path d="M55.58,57.93c3.84-.55,4.27,5.05.86,5.46-3.76.45-4.26-4.98-.86-5.46Z"/>
  <path d="M55.78,63.52c2.97-.21,4.28,4.08,1.39,5.3-4.14,1.74-5.42-5-1.39-5.3Z"/>
  <path d="M71.78,63.52c3.59-.25,3.93,5.55.17,5.58s-3.7-5.33-.17-5.58Z"/>
  <path d="M71.48,57.93c2.42-.34,4.11,2.27,2.71,4.31-1.14,1.66-3.46,1.53-4.57-.1s-.1-3.93,1.86-4.21Z"/>
</svg>