<?xml version="1.0" encoding="UTF-8"?>
<svg id="Layer_1" data-name="Layer 1" xmlns="http://www.w3.org/2000/svg" viewBox="0 0 131.14 131.23">
  <path d="M75.54,131.23c-.82-.32-1.02-.92-1.1-1.75v-28.91c.08-.91.34-1.76.8-2.55-1.52,0-3.04,0-4.55,0-5.13,0-10.96.55-15.77,2.42-10.75,4.17-15.81,17.67-21.49,26.81-.73,1.17-1.42,2.3-2.91,1.45-1.78-1.02-3.97-2.78-5.66-4.04-1.78-1.33-4.16-2.97-5.71-4.49-.79-.77-1.07-1.13-.87-2.28.34-2,3.43-6.55,4.63-8.47,2.5-4,5.2-8.19,8.1-11.9,1.54-1.97,3.11-3.89,5.24-5.26.04-.15-.09-.16-.17-.23-.46-.44-1.3-.89-1.84-1.36-3.39-3.05-7.11-9.05-9.64-12.96-1.83-2.83-4.13-6.2-5.61-9.19-.71-1.44-1.31-2.74-.05-4.06,1.32-1.38,3.82-3.09,5.41-4.29,2.08-1.57,4.22-3.06,6.36-4.54,1.16-.62,1.94.37,2.51,1.25,2.58,3.93,4.75,8.64,7.28,12.72,6.8,11.03,11.48,15.34,24.89,16.61,3.28.31,6.55.35,9.85.3-.07-.28-.26-.49-.38-.77s-.42-1.21-.42-1.48v-9.7s-.13-.08-.1-.15h9.95c.14,0,.98.25,1.18.32.34.12.64.34.97.48.05-3.73,0-7.44-.4-11.15-1.28-11.56-5.22-16.4-14.71-22.49-4.74-3.04-9.73-5.7-14.64-8.46-1.05-.81-1.71-1.36-.93-2.73,1.37-2.41,3.9-5.51,5.64-7.76.87-1.12,2.05-2.83,3.04-3.76.77-.72,1.19-.84,2.22-.63,1.49.31,3.89,1.91,5.27,2.73,6.54,3.91,13.29,8.25,18.86,13.44l1.4,1.8c1.4-2.12,3.29-3.69,5.26-5.24,3.47-2.72,7.37-5.24,11.1-7.6,2.19-1.39,6.17-4.16,8.46-4.94,1.74-.59,2.21-.28,3.38.98,1.66,1.79,3.42,4.31,4.89,6.31.9,1.22,2.96,3.76,3.5,5,.58,1.33-.63,2.06-1.61,2.67-9.38,5.83-22.71,10.64-26.91,21.79-1.48,3.93-2.13,8.88-2.32,13.08-.11,2.29.08,4.65,0,6.95.74-.46,1.58-.72,2.45-.8h29.01c.82.06,1.36.25,1.75,1v1c-1.23,2.73-2.69,5.35-4.26,7.89-1.03,1.66-2.38,4.53-4.49,4.71h-22.59c-2.53.35-2.65,6.06.1,6.49h22.59c1.84.16,2.88,2.3,3.79,3.72,1.81,2.82,3.5,5.83,4.86,8.89v.9c-.21.45-.36.71-.84.91-.08.03-.67.19-.71.19h-19.45v19.65c0,.55-.57,1.27-1.1,1.45h-.8c-2.89-1.22-5.63-2.8-8.29-4.46-1.61-1.01-4.23-2.22-4.41-4.29v-22.59c-.5-2.66-6.14-2.52-6.49,0v22.59c-.18,2.06-2.81,3.28-4.42,4.29-2.66,1.66-5.4,3.23-8.29,4.46h-.8Z"/>
  <path d="M.04,109.13c-.05-.42-.05-1.38,0-1.8.47-4.17,5.38-6.35,9.04-4.69,6.15,2.81,3.7,12.53-3.48,11.88-2.65-.24-5.23-2.75-5.55-5.4Z"/>
  <path d="M.04,76.03c-.05-.42-.05-1.38,0-1.8.32-2.67,2.88-5.16,5.55-5.4,7.08-.64,9.61,8.85,3.69,11.79-3.67,1.82-8.76-.33-9.24-4.59Z"/>
  <path d="M74.42,50.56c9.16-.91,8.88,14.03-.5,12.45-7.13-1.21-6.71-11.73.5-12.45Z"/>
  <path d="M108.62,50.56c4.21-.42,7.68,3.32,6.89,7.49-1.06,5.59-8.87,6.96-11.62,1.88-2.08-3.85.28-8.93,4.73-9.37Z"/>
  <path d="M56.02,103.26c9.32-.96,9.17,12.55.78,12.46-7.66-.08-8.49-11.67-.78-12.46Z"/>
  <path d="M55.91,68.86c7.53-.9,9.91,9.39,3.45,11.95-4.7,1.86-9.7-1.89-8.68-6.98.48-2.41,2.76-4.67,5.23-4.97Z"/>
  <path d="M107.21.06c2.87-.32,5.72,1.12,6.8,3.85,2.68,6.76-6.2,11.78-10.63,6.43-2.95-3.57-.93-9.74,3.83-10.27Z"/>
  <path d="M74.11.06c9.78-1.17,9.06,14.52-.58,12.33-6.8-1.55-6.03-11.53.58-12.33Z"/>
</svg>