<?xml version="1.0" encoding="UTF-8"?>
<svg id="Layer_1" data-name="Layer 1" xmlns="http://www.w3.org/2000/svg" viewBox="0 0 142 143.19">
  <path d="M0,72.54v-1.9c.57-2.28,2.78-3.54,5-2.55,2.96,1.32,2.69,6.4-.58,7.22-2.14.54-3.88-.73-4.42-2.77Z"/>
  <path d="M142,70.54v2.1c-.59,2.26-2.91,3.47-5.07,2.42-2.94-1.44-2.54-6.42.75-7.19,2.05-.48,3.77.71,4.32,2.67Z"/>
  <path d="M66.2,22.04c.08.07,1.48-.21,1.75-.21,1.04,0,2.26.34,3.3.31.85-.02,1.93-.32,2.8-.31.26,0,1.68.27,1.75.21-.43-2.23.05-4.6.43-6.82.44-2.54,1.03-5.32,1.7-7.8.23-.84.62-2.96,1.62-3.08,1.35-.16,4.24.38,5.69.62.67.11,2.42.31,2.94.56s.46.78.42,1.26l-1.95,7.11c1.93,1.76,1.44,5.16-1.13,5.96-.29,2.33.1,4.71,1.1,6.83,1.12,2.35,2.9,4.28,4.53,6.27l2.35,2.2c-.03-.47.29-.85.55-1.2l11.55-11.55c.79-.6,1.21-.22,1.55.55.6,1.4,1.6,4.97,1.74,6.46.05.54.04,1.11-.33,1.54l-8.9,8.9c-.85,1.32,1.26,3.35,2.54,2.54l8.9-8.9c.72-.63,1.77-.28,2.62-.12,1.46.29,3.33.77,4.73,1.27.84.3,1.88.56,1.29,1.7l-11.59,11.61c-.35.34-.79.52-1.25.65l2.2,2.3c3.83,3.39,7.89,6.4,13.35,5.64.57-.08.91-.56,1.39-.81,1.25-.64,2.14-.28,3.41-.09,2.48-.3,5.76-1.99,8.11-2.19,1.33-.11,1.2.51,1.42,1.58.38,1.86.83,4.49.93,6.37.05,1.03.11,1.51-.88,2.02-1.82.95-7.28,1.9-9.5,2.3-2.38.43-4.92.95-7.32.53.08.97.16,1.97.1,2.95-.04.76-.31,1.66-.31,2.4s.27,1.64.31,2.4c.06.98-.02,1.98-.1,2.95,2.21-.38,4.52.05,6.72.43,2.66.46,5.61,1.08,8.2,1.8.78.22,2.62.57,2.77,1.53.17,1.08-.33,3.77-.51,4.98-.12.76-.41,3.16-.7,3.7s-.9.44-1.41.34c-2.34-.47-5.69-2.01-7.94-2.17-.6-.04-1.19.35-1.98.29-1.21-.08-1.36-.58-2.2-1-.6-.3-2.94-.25-3.7-.19-4.77.35-9.23,4.73-12.35,8,.51.01.91.37,1.3.65l11.45,11.45c.42.5.36,1.06-.2,1.4-.99.61-5.58,1.77-6.81,1.89-.56.05-1.11.07-1.54-.34l-8.9-8.9c-1.26-.79-3.42,1.23-2.54,2.54l8.75,8.75c.27.29.46.6.5,1,.12,1.11-1.06,5.3-1.5,6.5-.26.72-.67,2-1.65,1.35l-11.8-11.8-.5-1.1c-1.81,1.79-3.64,3.59-5.13,5.67-2.04,2.85-3.28,5.98-2.83,9.57,2.55.92,3.11,4.17,1.14,6.01l1.96,7.2c.13,1.27-.46,1.21-1.48,1.42-1.87.39-4.48.83-6.37.93s-1.97-.25-2.52-1.98c-.75-2.37-1.34-5.34-1.8-7.8s-1.07-5.33-.63-7.92c-.61,0-1.25.21-1.85.21-.92,0-2.01-.31-2.9-.32s-2.05.31-3,.32c-.6,0-1.25-.2-1.85-.21.46,2.28-.03,4.65-.43,6.92-.49,2.8-1.15,6.21-2,8.9-.53,1.69-.69,1.98-2.52,1.88-1.19-.07-2.68-.33-3.88-.52-.7-.11-3.14-.42-3.6-.7-.39-.23-.42-.71-.34-1.11l1.95-7.15c-.15-.32-.42-.52-.62-.84-1.21-1.94-.42-4.45,1.73-5.21.58-3.73-.88-7.06-3.04-9.98-1.04-1.4-3.32-4.16-4.69-5.11-.08-.06-.1-.14-.25-.1,0,.41-.23.76-.5,1.05l-11.7,11.7c-1.34.97-1.93-2.06-2.18-2.93-.34-1.19-.88-3.01-1-4.2-.07-.71-.02-1.06.42-1.63l8.85-8.85c.81-1.24-1.43-3.47-2.69-2.39l-9.15,9.05c-.86.34-3.32-.36-4.3-.62-.87-.22-1.87-.48-2.71-.79-.93-.34-2-.69-1.15-1.85l11.4-11.4,1.3-.7c-1.71-1.87-3.6-3.65-5.67-5.13-2.95-2.11-6.05-3.27-9.77-2.81-.84.1-1.43,1.01-2.54,1.16-.98.13-1.57-.32-2.26-.27-2.23.16-5.54,1.69-7.86,2.15-1.62.32-1.51-.3-1.77-1.64-.38-1.89-.84-4.57-.93-6.47-.06-1.19.07-1.46,1.17-1.93,2.41-1.01,7.13-1.83,9.81-2.29,2.24-.39,4.55-.81,6.82-.43-.24-.86-.25-1.86-.2-2.75.04-.77.29-1.63.31-2.39.04-1.78-.71-3.75-.1-5.55-2.61.42-5.34-.15-7.92-.63s-5.88-1.09-8.28-1.92c-1.95-.67-1.67-1.24-1.49-3.09.17-1.74.47-3.76.82-5.48.24-1.19.09-1.86,1.59-1.66,2.41.33,5.66,2,8.04,2.17.9.06,1.38-.49,2.66-.16.8.2,1.02.63,1.59.91.63.31,3.04.24,3.83.15,4.78-.56,9.02-4.59,12.16-7.94l-.59-.21c-4.2-3.69-7.97-7.9-12.01-11.79-1.56-1.59,1.91-2.22,2.98-2.52s3.96-1.13,4.92-.88c.17.04.36.19.5.3l8.9,8.9c1.31.82,3.39-1.28,2.6-2.5l-8.8-8.8c-.5-.61-.55-.87-.47-1.67.11-1.07,1.44-6.29,2.02-6.98.32-.38.68-.45,1.11-.2l11.8,11.8.45,1c.09.09.56-.32.65-.4,1.4-1.17,3.18-3.33,4.29-4.81,2.17-2.92,3.63-6.24,3.05-9.98-2.11-.72-2.92-3.23-1.77-5.15.13-.21.66-.74.66-.9l-1.97-7.23c-.08-.46.02-.91.49-1.09.65-.25,2.11-.41,2.87-.53,1.38-.23,4.53-.81,5.78-.61.8.12,1.16,1.7,1.35,2.35.85,2.94,1.6,6.49,2.08,9.52.3,1.9.65,3.93.23,5.82ZM76.5,33.44l-5.45-1.3-5.35,1.25-.1.15c3.09.58,3.77,4.83,1.07,6.42-3.6,2.12-7.26-2.71-4.17-5.62-1.08.03-2.61,1.21-3.35,0-.99.76-2.01,1.52-2.95,2.35-.74.65-2.39,2.06-2.9,2.8-.06.08-.14.1-.1.25l1,.45,11.75,11.75c1.04,1.36-1.82,1.91-2.73,2.17-1.27.37-2.9.82-4.2,1-.9.12-1.14.14-1.87-.47l-8.7-8.7c-1.26-.88-3.41,1.23-2.53,2.53l8.94,8.96c.62.81.19,1.9,0,2.8-.24,1.13-.56,2.39-.9,3.5-.29.96-.72,3.19-2.1,2.2l-11.5-11.5-.7-1.3c-1.83,1.79-3.64,3.68-5.13,5.77-.12.16-.9,1.24-.82,1.33,1.34.05,1.3.95,1,2,2.8-2.54,6.93.75,5.45,4.1-1.23,2.78-5.45,2.65-6.5-.2-.12.05-.46,1.43-.52,1.68-.53,1.98-1.01,3.16-.58,5.22.1.48.91,3.91,1.1,4,1.71-3.82,7.31-2.41,6.72,1.92-.28,2.06-2.59,3.33-4.53,2.68-.44-.15-.74-.42-1.15-.6.34,1.06.3,1.84-1,1.9-.09.09.92,1.5,1.06,1.69,1.44,1.94,3.17,3.72,4.89,5.41.18-.56.47-1,.85-1.45,3.26-3.88,7.82-7.35,11.2-11.2,1.47-1.33,1.93,1.01,2.25,2.05s.64,2.31.88,3.42c.19.9.66,2.11.02,2.88l-8.9,8.9c-.98,1.29,1.16,3.44,2.44,2.64l8.75-8.75c.82-.84,2.04-.43,3.03-.23,1.12.23,2.4.57,3.49.91.87.27,3.26.75,2.28,2.03l-11.75,11.75c-.23.26-.6.29-.88.43-.09.05-.16-.03-.13.17,1.83,1.91,3.79,3.71,5.95,5.25.74-1.18,2.39-.05,3.45.1-3.01-2.66-.1-7.41,3.6-5.95,3.17,1.25,2.71,6.02-.6,6.7.54.25,1.18.39,1.76.54.88.23,2.79.8,3.6.81.55,0,1.73-.34,2.33-.47,1.04-.23,2.13-.5,3.12-.88-4.13-.96-3.29-7.23.95-6.95,3.16.21,4.49,4.12,2.05,6.2,1.06-.14,2.72-1.28,3.45-.1,2.23-1.54,4.18-3.41,6.05-5.35l-1.2-.6-11.65-11.65c-.53-.74-.06-1.18.63-1.48,1.36-.6,4.93-1.57,6.39-1.71.58-.06,1.2-.08,1.64.34l8.9,8.9c1.24.78,3.25-1.19,2.58-2.48l-9.04-9.06c-.43-.61-.31-1.13-.2-1.81.22-1.29.63-2.83,1-4.1.29-.97.77-3.67,2.2-2.6,3.92,4.04,8.09,7.87,11.87,12.03l.33.77c2.25-2.16,4.37-4.46,6.05-7.1-1.34,0-1.44-.79-1.1-1.9-3.84,3-8.1-2.89-4.19-5.64,2-1.41,3.97-.33,5.17,1.41.06.09-.02.18.22.13l1.28-5.35-1.28-5.35c-.24-.05-.16.04-.22.13-1.11,1.61-2.44,2.52-4.5,1.75-4.04-1.52-1.97-7.9,2.31-6.61.47.14.79.44,1.22.63-.33-1.14-.28-1.73,1-1.95-1.57-2.66-3.76-4.89-5.95-7.05l-.6,1.2-11.55,11.55c-1.22.99-1.61-.55-1.93-1.48-.4-1.17-.75-2.56-1.02-3.78-.24-1.06-.76-2.37,0-3.3l8.94-8.96c.67-1.3-1.35-3.26-2.58-2.48l-8.9,8.9c-.63.48-1,.41-1.72.32-1.15-.15-2.6-.56-3.72-.88-.97-.27-4.25-.85-3.21-2.3l11.65-11.65c.34-.28.74-.53,1.2-.55-1.82-2.01-3.85-3.81-6.05-5.4-.7,1.2-2.36.08-3.4-.1l.97,1.43c.93,1.98-.62,4.46-2.69,4.74-3.84.53-5.54-4.3-2.46-6.46l1.23-.52Z"/>
  <path d="M70.07.07c1.85-.29,3.86.35,4.5,2.25,1.28,3.78-3.88,6.51-6.48,3.38-1.67-2.01-.63-5.22,1.98-5.63Z"/>
  <path d="M70.48,136.17c3.48-.4,5.81,3.62,3.17,6.07-1.46,1.36-4.22,1.25-5.55-.26-1.9-2.14-.37-5.5,2.37-5.82Z"/>
  <path d="M118.08,88.37c5.24-.77,5.34,7.68,0,6.95-3.99-.55-3.85-6.38,0-6.95Z"/>
  <path d="M22.78,88.37c4.2-.58,5.83,5.32,1.85,6.75-5,1.79-6.53-6.11-1.85-6.75Z"/>
  <path d="M22.88,47.87c4.2-.57,5.63,5.28,1.75,6.75-4.88,1.85-6.68-6.09-1.75-6.75Z"/>
  <path d="M118.18,47.87c5.24-.6,5.14,7.77-.18,6.93-3.79-.6-3.89-6.46.18-6.93Z"/>
  <path d="M90.28,116.27c4.47-.61,5.39,6.45.96,6.96-4.93.58-5.41-6.36-.96-6.96Z"/>
  <path d="M53.76,25.91c-3.48,3.42-8.22-2.11-4.77-5.12s8.04,1.91,4.77,5.12Z"/>
  <path d="M90.08,19.97c5.34-.73,5.33,7.31.38,6.97-4.05-.27-4.4-6.42-.38-6.97Z"/>
  <path d="M50.88,116.27c4.54-.49,5.47,6.44.96,6.96-4.92.57-5.27-6.49-.96-6.96Z"/>
</svg>