<?xml version="1.0" encoding="UTF-8"?>
<svg id="Layer_1" data-name="Layer 1" xmlns="http://www.w3.org/2000/svg" viewBox="0 0 126.74 126.91">
  <path d="M14.52,0c2,.9,3.95,1.96,5.79,3.16.61.4,2.01,1.2,2.23,1.87l.09,14.71c.15,1.99,3.93,1.97,4.18.1V5.55c.01-.24.08-.5.19-.72.33-.64,2.24-1.74,2.93-2.17,1.6-.99,3.27-1.9,4.99-2.66h.3c.7.2.85.66.9,1.35-.34,5.86.44,12.2,0,18.01-.05.68-.24,1.23-.5,1.85,5.18,0,11.35,0,15.73-3.12,1.6-1.14,3.12-2.85,4.25-4.45.17-.24.96-1.34,1-1.51.03-.12.03-.21-.04-.32-.46-.82-1.12-1.67-1.45-2.55-.54-1.42-.28-1.61.75-2.55,1.39-1.27,5.3-4.32,6.89-5.1.53-.26.68-.26,1.2,0,.82.4,2.14,1.48,2.94,2.06,1.25.91,2.83,2.01,3.96,3.04,1.05.95,1.3,1.19.73,2.62-.33.83-.98,1.69-1.42,2.48-.07.1-.06.2-.04.32.06.31,1.67,2.44,1.99,2.82,2.95,3.59,6.06,5.16,10.66,5.84,2.76.4,5.55.46,8.33.42l-.33-.82c-.39-6.34-.06-12.76-.17-19.13.06-.66.26-1.05.9-1.25h.3c2,.91,3.95,1.97,5.79,3.16.88.57,2.25,1.22,2.31,2.39v14.3c.27,1.93,3.88,1.65,4.09.3V6.05c-.05-1.63,1.52-2.33,2.71-3.09,1.75-1.11,3.6-2.11,5.49-2.96h.3c.86.22.78.81.9,1.55v11.95h12.55c.58,0,.82.74.74,1.24-.16,1.01-3.32,6.29-4.1,7.2-.43.51-.86.79-1.54.86h-14.3c-1.66.34-1.55,3.85,0,4.09h14.4c1.31.11,2.04,1.7,2.69,2.71.6.95,1.25,2.04,1.78,3.02s2.05,3.35.13,3.57h-18.6s-1.55-.45-1.55-.45c-.04,5.87-.01,12.47,4.15,17.05,1.4,1.54,3.22,2.81,4.94,3.95.18.04,2.48-1.43,3.01-1.6,1.41-.46,1.66.05,2.49,1,.94,1.08,1.89,2.4,2.74,3.56.62.84,1.82,2.3,2.25,3.15.22.44.15.89-.07,1.31-.42.8-1.37,1.98-1.94,2.76-.74,1.03-3.09,4.35-3.99,4.91-1.17.73-3.42-1.28-4.52-1.63-3.32,2.12-6.27,4.67-7.65,8.46-1.45,3.98-1.45,8.33-1.42,12.52l1.35-.4,19.16.05c.65.19.7.77.55,1.36-.29,1.16-3.17,5.97-4.01,6.99-.5.6-.89.84-1.69.91l-14.38.02c-1.52.67-1.37,3.88.38,4.08,4.58.31,9.69-.41,14.2,0,1.19.11,1.6,1.03,2.19,1.91.74,1.11,1.54,2.45,2.18,3.62.4.74,1.38,2.39,1.14,3.17-.08.25-.59.59-.8.59h-12.45v12.15c0,.05-.16.72-.19.81-.41,1.03-2.22-.01-2.88-.34-1.2-.6-2.58-1.45-3.72-2.18s-2.64-1.37-2.61-2.99v-14.1c-.49-1.6-3.84-1.44-4.09.2v14.4c0,.54-.33.96-.72,1.29-1.24,1.05-5.3,3.42-6.82,3.98-1.15.42-1.67.18-1.77-1.06.36-5.88-.46-12.29,0-18.11.05-.6.23-1.21.5-1.75-5.31-.02-11.48-.05-15.93,3.22-2.12,1.55-3.7,3.76-5.14,5.93.55,1.04,1.94,2.81,1.87,4-.03.55-1.03,1.3-1.45,1.65-1.28,1.08-2.84,2.21-4.22,3.18-.52.37-1.89,1.46-2.36,1.64-.33.13-.72.13-1.04,0-.42-.16-1.51-1.03-1.96-1.34-1.18-.82-5.15-3.6-5.81-4.59-.55-.82.03-1.78.43-2.56.23-.45,1.19-1.75,1.08-2.13-.1-.35-1.53-2.24-1.86-2.65-1.7-2.12-3.71-3.84-6.27-4.83-4.01-1.54-8.53-1.55-12.77-1.53l.3.9c.34,6.29.05,12.64.15,18.96-.16,1.92-1.48,1.22-2.67.66-1.31-.61-2.9-1.59-4.12-2.38-.92-.59-2.42-1.3-2.51-2.49v-14.3c-.26-1.91-3.93-1.91-4.19,0v14.3c-.1,1.19-1.59,1.89-2.52,2.49-1.02.65-4.75,2.94-5.74,2.97-.36,0-.71-.08-.87-.43-.03-.06-.18-.59-.18-.62v-12.35H.87c-.68,0-.92-.67-.84-1.24.12-.92,2.06-4.1,2.65-5.05.68-1.09,1.49-2.91,2.89-3.01h14.3c1.65-.24,1.74-3.43.29-4.07l-14.38-.02c-.84-.07-1.21-.34-1.73-.97-.79-.97-3.79-5.95-3.99-7.01-.11-.58-.05-1.09.57-1.28l19.16-.05,1.34.5c0-5.27.06-11.38-3.12-15.83-1.54-2.16-3.76-3.8-5.96-5.25-1.42.45-3.42,2.67-4.89,1.35-1.38-1.24-4.03-5.06-5.12-6.73-.41-.63-.88-1.07-.54-1.91.11-.28.9-1.31,1.14-1.66,1.02-1.49,2.24-3.12,3.39-4.51.4-.49,1.23-1.68,1.84-1.76,1.42-.18,2.9,1.3,4.16,1.76,3.28-2.08,6.14-4.52,7.57-8.23,1.54-4,1.54-8.54,1.53-12.77l-1.55.45H.97c-1.98-.23-.29-2.8.23-3.77s1.11-1.93,1.68-2.82c.65-1.03,1.34-2.61,2.69-2.71h14.4c1.56-.24,1.65-3.75,0-4.09H5.67c-1.04-.03-1.56-.85-2.09-1.61C2.81,20.08.26,15.96.04,14.83c-.07-.35-.07-.84.21-1.1.04-.04.4-.23.42-.23h12.65V1.15c0-.53.39-1.04.9-1.15h.3ZM63.37,22c-.91,1.05-1.8,2.05-2.95,2.85,1.12.8,2.03,1.83,2.95,2.85.91-1.05,1.8-2.05,2.95-2.85-1.17-.8-2.05-1.77-2.95-2.85ZM36.12,30.05v6.15h-6.45c-.24,0-.93-.34-1.15-.5-.21,2.38-.08,4.88.2,7.25.24,2.07.68,4.27,1.51,6.19,1.46,3.35,4.36,5.71,7.35,7.64,1.23-.5,2.86-2.08,4.26-1.76.4.09,1.27,1.17,1.57,1.53.98,1.16,1.99,2.57,2.88,3.82.47.66,1.52,1.94,1.8,2.6.2.47.14.75-.08,1.19-.81,1.6-3.97,5.66-5.25,7.05-.79.85-1.05.98-2.21.6-.59-.19-2.78-1.64-3.05-1.56-.35.1-2.24,1.54-2.65,1.86-5.15,4.11-6.17,8.97-6.45,15.35-.02.47-.04,3.6.1,3.75.3-.02.78-.4,1.05-.4h6.55v6.05c0,.4-.33,1.16-.5,1.55.72.02,1.44-.02,2.15,0,6.95.15,12.61-.85,17.09-6.51.27-.34,1.68-2.21,1.74-2.47.09-.36-.69-1.36-.9-1.76-.49-.93-1.28-2.11-.52-3.06.92-1.15,4.27-3.45,5.61-4.39.54-.38,2-1.53,2.58-1.53s2.39,1.41,2.98,1.83c1.27.9,4.34,3,5.21,4.09.73.92.04,1.95-.42,2.86-.21.41-1.09,1.61-1,1.96.07.29,1.45,2.1,1.74,2.47,4.47,5.65,10.13,6.68,17.09,6.51.72-.02,1.44.02,2.15,0-.19-.36-.5-1.05-.5-1.45v-6.15h6.55c.18,0,.99.46,1.05.4.13-2.69.05-5.37-.31-8.04s-1.21-5.61-2.9-7.9c-1.52-2.06-3.67-3.62-5.78-5.03-1.17.28-3.28,2.29-4.54,1.65-.31-.16-1-1.02-1.26-1.34-.79-.94-1.61-2.06-2.34-3.06-.59-.8-2.1-2.67-2.45-3.45-.2-.46-.17-.77.06-1.2.31-.6,1.02-1.47,1.44-2.06,1.05-1.49,2.38-3.38,3.58-4.72.2-.22.68-.76.9-.9,1.21-.76,3.41,1.17,4.53,1.63,2.62-1.76,5.28-3.75,6.82-6.58,1.82-3.34,2.03-7.13,2.35-10.85l-.11-3.65c-.28.17-.95.5-1.25.5h-6.35v-6.25c0-.29.56-1.4.5-1.45-5.19.02-11.26,0-15.67,3.08-1.62,1.13-3.17,2.88-4.31,4.49-.17.24-.96,1.34-1,1.51-.04.15,0,.19.04.32.2.57.97,1.51,1.27,2.14.18.39.49,1.2.47,1.61-.03.58-1.19,1.47-1.65,1.85-1.44,1.21-4.71,3.83-6.29,4.61-.52.26-.77.26-1.29-.02-1.72-.92-5.2-3.65-6.71-4.99-1.12-1-1.44-1.18-.83-2.72.34-.85.98-1.68,1.42-2.48.07-.1.06-.2.04-.32-.06-.22-1.08-1.61-1.3-1.91-3.57-4.85-7.3-6.39-13.23-6.97-2.14-.21-4.29-.23-6.45-.2.17.5.44,1.01.5,1.55ZM24.72,66.5c.85-1.11,1.78-2.11,2.89-2.96.03-.18-1.36-1.24-1.6-1.49-.15-.15-1.21-1.61-1.3-1.55-.65,1.21-1.74,2.11-2.8,2.95.97.95,2.19,1.8,2.8,3.05ZM102.02,66.5c.6-1.29,1.8-2.09,2.8-3.05-1.06-.84-2.15-1.74-2.8-2.95-.08-.06-1.15,1.4-1.29,1.55-.23.24-1.64,1.28-1.6,1.48,1.11.86,2.04,1.85,2.89,2.96ZM66.32,102c-1.22-.61-2.11-1.77-2.95-2.8l-1.8,2-1.15.95c1.19.76,2.07,1.76,2.95,2.85.59-.68,1.13-1.4,1.8-2,.29-.26.81-.53,1.04-.76.08-.08.14-.09.1-.24Z"/>
  <path d="M46.5,108.43c6.57-.89,6.34,9.41,0,8.55-4.23-.57-4.38-7.95,0-8.55Z"/>
  <path d="M111.5,43.43c1.33-.18,2.82,0,3.88.87,2.85,2.36,1.33,6.83-2.3,7.11-6.3.49-6.14-7.36-1.58-7.98Z"/>
  <path d="M78.59,108.42c1.49-.23,3.01.19,3.98,1.37,1.83,2.24.82,6.75-2.33,7.18-5.88.8-6.37-7.82-1.65-8.55Z"/>
  <path d="M13.3,43.43c2.98-.4,5.49,1.24,5.23,4.43-.42,5.07-8.69,4.66-8.65-.5.02-1.93,1.5-3.66,3.42-3.92Z"/>
  <path d="M13.2,75.63c2.95-.4,5.51.99,5.33,4.23-.3,5.25-8.71,4.84-8.67-.29.02-1.85,1.48-3.69,3.34-3.94Z"/>
  <path d="M109.36,82.47c-1.13-1.13-1.44-2.9-.91-4.39,1.46-4.17,9.07-3.1,8.37,2.27-.43,3.27-5.29,4.29-7.46,2.12Z"/>
  <path d="M46.9,9.93c5.73-.5,6.05,9.18-.03,8.67-4.9-.41-4.77-8.25.03-8.67Z"/>
  <path d="M76.56,17.46c-.71-.69-1.08-1.73-1.14-2.71-.42-6.56,9.1-6.52,7.96.75-.48,3.07-4.66,4.08-6.82,1.96Z"/>
  <path d="M46.9,31.83c5.59-.48,5.74,7.6.77,7.97-5.26.39-6.06-7.52-.77-7.97Z"/>
  <path d="M76.66,38.67c-3.93-3.88,2.02-9.43,5.72-5.67s-1.97,9.38-5.72,5.67Z"/>
  <path d="M35.1,43.43c5.56-.67,6.23,7.36,1.16,7.96-5.43.64-6-7.38-1.16-7.96Z"/>
  <path d="M90.2,75.63c6.7-.97,5.97,9.44-.26,7.8-4.21-1.1-3.6-7.25.26-7.8Z"/>
  <path d="M46.6,87.23c5.98-.81,6.5,8.67-.11,7.86-4.27-.52-4.18-7.28.11-7.86Z"/>
  <path d="M90.4,43.43c6.02-.83,6.04,8.77,0,7.95-4.48-.61-4.48-7.33,0-7.95Z"/>
  <path d="M34.9,75.63c5.53-.75,6.55,6.76,1.75,7.85-5.62,1.27-6.52-7.2-1.75-7.85Z"/>
  <path d="M78.7,87.23c4.84-.66,6.55,5.79,2.48,7.58-2.81,1.23-5.99-.8-5.74-3.94.13-1.67,1.56-3.4,3.26-3.64Z"/>
</svg>