<?xml version="1.0" encoding="UTF-8"?>
<svg id="Layer_1" data-name="Layer 1" xmlns="http://www.w3.org/2000/svg" viewBox="0 0 67.9 183.26">
  <path fill="#FFFFFF" d="M67.9,30.33v.6c-.51,1.12-1.19,2.16-1.86,3.19s-2.88,4.55-3.75,5.15c-.12.08-.86.46-.94.46h-15.75c.71,2.02,1.66,3.97,1.8,6.15.22,3.45-.03,7.14-.1,10.59-.03,1.32.07,2.64-.09,3.95l1.62-2.63c.99-1.03,1.94-3.05,2.94-3.96.3-.27.57-.33.96-.28,2.62.31,6.3,2.4,8.18,4.23,4.42,4.3,5.43,9.47,3.87,15.37-1.14,4.34-3.94,8.23-6.77,11.63,3.67,4.28,6.85,9.24,7.4,15,.69,7.2-3.98,13.49-10.72,15.68-.48.15-1.99.61-2.38.53-.12-.03-.36-.15-.47-.23-.82-.6-1.85-2.83-2.71-3.6l-1.92-3.03c.17,1.31.07,2.63.09,3.95.08,3.47.33,7.12.1,10.59-.14,2.19-1.11,4.11-1.8,6.15h15.85c.58,0,1.49,1.13,1.83,1.57,1.08,1.4,2.22,3.14,3.16,4.64.53.84,1.07,1.68,1.46,2.59v.5c-.24.49-.57.81-1.15.8H1.25c-.62.04-1-.27-1.25-.8v-.5c.44-1.02,1.06-1.95,1.66-2.89.9-1.41,1.94-3.03,2.96-4.34.34-.44,1.25-1.57,1.83-1.57h15.85c-.72-2.1-1.66-3.98-1.8-6.25-.21-3.35.03-6.85.1-10.19.03-1.42-.05-2.84.09-4.25l-1.46,2.39c-1.04,1.14-1.98,3.1-3.04,4.13-.24.23-.59.39-.92.36-2.3-.21-5.95-2.2-7.68-3.73-4.82-4.26-6.1-9.61-4.49-15.79,1.13-4.36,3.93-8.31,6.79-11.71-3.35-4.04-6.6-8.76-7.28-14.11-1.01-7.87,3.64-14.62,11.21-16.76.69-.2,1.67-.6,2.27-.12.92.73,1.86,2.84,2.79,3.71l1.82,2.93c-.15-1.42-.06-2.83-.09-4.25-.07-3.34-.31-6.85-.1-10.19.14-2.27,1.07-4.16,1.8-6.25H6.55c-.14,0-.82-.4-.98-.52-.98-.72-3.43-4.65-4.21-5.89-.49-.78-.97-1.56-1.36-2.39v-.5c.2-.36.24-.64.7-.75l66.16-.05c.53,0,.8.29,1.04.71ZM29.17,39.76c-.9.31-1.58.56-1.68,1.62-.17,1.79.15,4.25.21,6.1.12,3.6.2,7.21.5,10.8.46,5.62,1.08,12.14,5.75,15.93,3.86-3.04,4.92-8.07,5.45-12.73s.64-9.21.8-13.8c0-.24.1-.46.11-.69-.23-1.84.36-4.12.09-5.9-.11-.7-1.1-1.26-1.75-1.35-2.84-.39-6.54.25-9.47.02ZM23.8,77.93c-.49-1.04-1.04-2.05-1.4-3.15-1.03-3.11-1.39-7.7-1.6-11-.04-.61.11-1.27-.15-1.85-4.13,1.78-9.38,3.81-10.14,8.86-.56,3.71.65,7.29,2.69,10.34,1.27-1.1,2.36-2.42,3.6-3.55.6-.54,1.65-1.68,2.48-1.48l4.52,1.83ZM54.7,81.13c2.08-3.1,3.31-6.74,2.68-10.52-.81-4.85-6.14-7.02-10.17-8.68-.26,3.57-.44,7.19-1.15,10.7-.17.85-.36,1.64-.65,2.45-.35.99-.85,1.91-1.3,2.85l4.52-1.83c.78-.19,1.72.78,2.28,1.28,1.32,1.18,2.45,2.6,3.8,3.75ZM23.8,91.64l-4.9,1.86c-.46-.13-.84-.41-1.2-.71-1.22-1.01-2.7-2.53-3.8-3.7-.14-.15-.45-.7-.64-.65-2.16,3-3.32,6.7-2.73,10.42.38,2.38,1.56,3.88,3.44,5.26,2,1.46,4.32,2.64,6.67,3.42.24-.02.14-1.57.16-1.85.1-1.52.24-3.08.41-4.59.38-3.27.91-6.58,2.59-9.46ZM47.2,107.53c3.29-1.15,8.23-3.4,9.65-6.8,1.61-3.87.25-9.05-2.2-12.3l-4.45,4.35-1.2.71-4.9-1.86c2.7,4.78,2.61,10.56,3.1,15.9ZM33.95,95.37c-4.69,3.69-5.29,10.34-5.75,15.92-.29,3.6-.38,7.2-.5,10.8-.06,1.85-.38,4.31-.21,6.1.1,1.04,1,1.52,1.96,1.64,2.78.32,6.14-.21,8.98,0,.82-.12,1.82-.52,1.95-1.45.26-1.82-.3-4.03-.09-5.9-.28-4.48-.34-9.01-.8-13.5-.5-4.9-1.44-10.44-5.55-13.62Z"/>
  <path fill="#FFFFFF" d="M45.5,183.23c-.28.04-.91.03-1.2,0-5.31-.63-5.06-8.97.95-8.6,5.17.31,5.1,7.99.25,8.6Z"/>
  <path fill="#FFFFFF" d="M44.18,147.86c6.64-.8,6.49,9.09.27,8.57-5.1-.43-5.33-7.96-.27-8.57Z"/>
  <path fill="#FFFFFF" d="M22.38,147.86c6.24-.75,6.7,8.03,1.16,8.56s-6.49-7.92-1.16-8.56Z"/>
  <path fill="#FFFFFF" d="M44.28,160.96c6.39-.76,6.52,9.15.07,8.57-4.96-.44-5.25-7.95-.07-8.57Z"/>
  <path fill="#FFFFFF" d="M22.48,160.96c6.02-.67,6.61,7.99,1.16,8.56-5.93.63-6.59-7.96-1.16-8.56Z"/>
  <path fill="#FFFFFF" d="M44.08,13.16c6.54-.88,6.79,8.97.48,8.57-5.34-.34-5.27-7.92-.48-8.57Z"/>
  <path fill="#FFFFFF" d="M22.28,13.16c6.32-.77,6.94,8.2,1.07,8.57s-5.99-7.97-1.07-8.57Z"/>
  <path fill="#FFFFFF" d="M43.98.06c6.77-.92,6.79,8.94.59,8.56-5.31-.32-5.25-7.93-.59-8.56Z"/>
</svg>