<?xml version="1.0" encoding="UTF-8"?>
<svg id="Layer_1" data-name="Layer 1" xmlns="http://www.w3.org/2000/svg" viewBox="0 0 141.86 141.16">
  <path d="M122.33.03c1.29.16,2.86,1.5,3.38,2.67,2.08,4.73-4.2,8.67-7.58,4.48-2.13-2.64-.36-6.73,2.9-7.15.3-.04,1-.04,1.3,0Z"/>
  <path d="M20.83.03c1.35.17,2.89,1.39,3.45,2.6,2.02,4.31-3.51,8.37-7.01,5.21C14.44,5.27,15.96.83,19.53.03c.41.04.9-.05,1.3,0Z"/>
  <path d="M.03,20.83c-.04-.27-.04-.93,0-1.2.21-1.63,1.73-3.25,3.3-3.65,4.8-1.22,7.69,4.67,3.8,7.8-2.65,2.14-6.69.26-7.1-2.95Z"/>
  <path d="M55.99,6.86c.23.22.4.74.51,1.04.58,1.77.98,4.24,1.3,6.1.24,1.39.82,3.09-.12,4.32l-11.25,11.3c1.83.77,3.67,1.47,5.25,2.7,2.34,1.84,4.25,4.25,6.41,6.29.14.04.16-.1.23-.16.52-.53,1.14-1.51,1.66-2.14.3-.36.77-.68,1.05-1.05.19-.25.18-.5.44-.76,1.38-1.37,6.06-2.77,8-2.9,3.15-.21,8.42.7,10.89,2.82.31.26.27.57.46.84.29.4,1.04.91,1.35,1.34l1.6,2c1.89-1.73,3.6-3.8,5.5-5.5s3.87-2.57,6.15-3.5l-11.1-11.15c-.29-.31-.53-.79-.59-1.21-.21-1.58.99-6.87,1.46-8.62.34-1.26.81-2.94,2.38-1.62l47.35,47.35c1.62,2.03-2.25,2.45-3.48,2.72-1.45.32-5.16,1.21-6.46,1.12-.58-.04-1.19-.28-1.62-.69l-11.15-11.1c-.87,2.5-2.01,4.59-3.8,6.55-1.6,1.75-3.42,3.34-5.1,5l2.36,2.08c.4.62.73.85,1.31,1.14.78.4,1.9,2.97,2.23,3.87,1.28,3.49,1.42,6.99.37,10.57s-3.4,6.01-6.37,8.13c1.33,1.37,2.8,2.6,4.1,4,.93,1,1.88,2.05,2.55,3.25s1.16,2.48,1.65,3.7l.25-.1,11.15-11.15c.29-.24.68-.41,1.05-.45,1.53-.17,5.41.76,7.07,1.13,1.25.28,4.74.67,3.18,2.62l-47.45,47.45c-1.94,1.55-2.34-1.95-2.62-3.18-.37-1.64-1.3-5.57-1.13-7.07.04-.37.21-.76.45-1.05l11.15-11.15.1-.25c-1.83-.73-3.69-1.47-5.25-2.7-2.04-1.63-3.75-3.67-5.6-5.5-2.43,3.35-5.6,5.44-9.73,6.07-5.45.83-11.46-.34-15.07-4.77l-1.1-1.3c-1.4,1.47-2.79,3.03-4.3,4.4-1.96,1.79-4.05,2.93-6.55,3.8l11.1,11.15c.52.55.73,1.35.69,2.09-.12,2.02-1.09,6.52-1.72,8.49-.36,1.12-.96,1.91-2.12.98L7.72,86.88c-1.32-1.57.36-2.05,1.62-2.38,1.76-.47,7.04-1.67,8.62-1.46.42.06.9.3,1.21.59l11.15,11.1c.58-1.26,1.06-2.6,1.75-3.8,1.57-2.73,4.47-4.81,6.55-7.15l-2-1.6c-5.34-4.44-6.29-12.14-3.48-18.29.26-.56,1.19-2.39,1.65-2.65,1.02-.57,1.33-1.13,2.18-1.92.21-.2,1.58-1.2,1.55-1.34-2-2.13-4.38-4.01-6.19-6.31-1.23-1.56-1.93-3.43-2.7-5.25l-11.3,11.25c-.48.38-1.23.57-1.84.54-1.97-.1-6.67-1.09-8.59-1.72-.85-.28-1.74-.81-1.16-1.8,15.66-15.98,31.65-31.69,47.43-47.57.56-.46,1.17-.9,1.82-.26ZM53.93,53.23c0-2.29.58-4.53.93-6.77-1.74-1.99-3.49-3.98-5.27-5.93-1.47-1.6-3.03-3.3-4.55-4.85-1.23-1.25-1.94-2.27-3.75-.94-1.92,2.21-4.62,4.22-6.45,6.45-.6.73-1.06,1.84-.35,2.65,3.79,3.62,7.59,7.22,11.56,10.65,2.6-.55,5.22-1.2,7.9-1.25ZM88.03,53.23c2.59.1,5.17.6,7.67,1.28l.2-.05c3.92-3.38,7.62-6.98,11.43-10.48.67-.73.45-1.7-.02-2.48l-6.83-6.87c-1.38-.88-2-.61-3.05.45-1.56,1.56-3.14,3.32-4.65,4.95-1.94,2.09-3.84,4.24-5.7,6.41l-.05.33c.51,2.12.81,4.29,1,6.47ZM78.23,44.43c-1.49-.57-2.95-1.23-4.5-1.65-2.58-.71-3.43-.63-5.98.12-1.38.41-2.73.96-4.03,1.58-.02.31.73.89.95,1.15,1.71,1.96,3.39,3.97,4.93,6.07.13.18,1.32,2,1.42,1.93,1.47-2.37,3.24-4.58,5.05-6.7.58-.68,1.58-1.56,2.05-2.25.06-.08.14-.1.1-.25ZM60.03,53.03l-.75-1.1-.35,1.1h1.1ZM82.73,51.93c-.17-.16-.88,1.03-.8,1.1h1s-.2-1.1-.2-1.1ZM53.73,58.23l-2.4.65c.79.53,1.52,1.16,2.4,1.55v-2.2ZM88.23,58.23v2.2c.22-.07,2.39-1.49,2.3-1.6l-2.3-.6ZM96.73,77.53c.94-2.08,1.73-4.23,2.17-6.48s.34-2.78-.44-4.9c-.32-.86-.75-1.67-1.03-2.52-2.87,2.57-5.84,5.03-9,7.25,2.97,1.95,5.59,4.36,8.3,6.65ZM53.43,70.73c-2.23-1.38-4.3-3.06-6.3-4.75-.73-.62-1.52-1.5-2.25-2.05-.13-.1-.26-.22-.45-.2-.29.83-.7,1.62-1,2.45-.73,1.99-.86,2.55-.47,4.67.24,1.29.63,2.7,1.07,3.93.33.93.8,1.81,1.1,2.75l8.3-6.8ZM53.03,82.93v-1.3s-1.3.95-1.3.95c0,.16,1.09.32,1.3.35ZM90.23,82.53l-1.3-.8v1.2s.95-.2,1.1-.25c.1-.03.23-.01.2-.15ZM53.22,88.03c-2.29-.2-4.56-.57-6.8-1.05-2.39,2.1-4.78,4.22-7.1,6.39-1.18,1.1-2.41,2.21-3.55,3.35-1.05,1.05-1.33,1.67-.45,3.05l6.87,6.83c.78.47,1.75.69,2.48.02l9.78-10.63c.14-.34-.3-1.59-.4-2.05-.4-1.95-.78-3.92-.84-5.91ZM88.75,88.05c-.27,2.66-.73,5.29-1.37,7.89,3.24,3.68,6.59,7.26,10,10.79.89.66,1.93.24,2.7-.4,2.2-1.81,4.17-4.46,6.35-6.35,1.32-1.77.4-2.53-.84-3.75-1.15-1.13-2.37-2.24-3.55-3.35-2.14-2-4.36-3.91-6.5-5.9-2.24.48-4.5.83-6.78,1.07ZM60.73,88.23h-2.5c.18.59.28,1.21.45,1.8.04.14.11.66.3.6l1.75-2.4ZM83.63,88.23h-2.4l1.06,1.59.74.81.6-2.4ZM77.53,96.73l-6.65-8.1c-1.97,2.87-4.25,5.5-6.55,8.1,1.33.52,2.64,1.11,4.02,1.53.67.2,1.97.62,2.63.62s2.26-.51,2.93-.72c1.24-.39,2.42-.93,3.62-1.43Z"/>
  <path d="M127,25.35c4.5-.65,7.24,4.54,3.88,7.68-3.9,3.64-9.54-1.68-6.69-5.79.59-.85,1.77-1.73,2.82-1.88Z"/>
  <path d="M14.3,106.96c3.64-.34,6.33,4.23,3.92,7.22-3.09,3.83-9.11.71-7.82-3.92.47-1.68,2.16-3.13,3.9-3.3Z"/>
  <path d="M29.7,122.75c3.92-.54,6.92,4.15,4.12,7.32-3.09,3.5-8.43.81-7.77-3.77.24-1.65,2.01-3.33,3.65-3.55Z"/>
  <path d="M111,122.76c3.95-.47,6.42,4.23,3.82,7.32-3.2,3.81-9.3.12-7.55-4.45.55-1.42,2.2-2.69,3.73-2.87Z"/>
  <path d="M127.01,106.96c2.19-.15,4.44,1.84,4.62,4.02.37,4.39-5.07,6.71-7.9,3.3-2.35-2.83-.21-7.08,3.28-7.32Z"/>
  <path d="M29.1,9.56c3.77-.45,6.67,3.87,4.22,7.02-2.98,3.82-8.71,1.35-7.95-3.45.27-1.69,2.04-3.36,3.73-3.57Z"/>
  <path d="M136.6,15.85c4.48-.61,7.13,4.78,3.67,7.77-3.93,3.4-9.39-1.73-6.59-5.89.61-.91,1.81-1.73,2.92-1.88Z"/>
  <path d="M20.3,132.26c3.92-.46,6.76,4.15,4.02,7.32-2.99,3.46-8.38.81-7.77-3.67.24-1.79,1.97-3.44,3.75-3.65Z"/>
  <path d="M120.5,132.26c4.01-.47,6.46,4.38,3.72,7.42-3.29,3.65-9.16-.07-7.45-4.55.56-1.47,2.17-2.69,3.73-2.87Z"/>
</svg>