<?xml version="1.0" encoding="UTF-8"?>
<svg id="Layer_1" data-name="Layer 1" xmlns="http://www.w3.org/2000/svg" viewBox="0 0 139.13 139.13">
  <path d="M139.13,35.53v.8c-.54,1.11-1.2,2.15-1.86,3.19-.91,1.44-3.48,5.57-4.65,6.45-.17.13-.88.56-1.04.56h-18.55c.86,2.4,1.87,4.57,2.1,7.15.36,4.02-.02,8.53-.1,12.59-.03,1.52.03,3.04-.09,4.55l1.66-2.79,3.75-5.05c.61-.51,1.62-.12,2.31.07,8.34,2.25,14.35,9.7,13.58,18.52-.6,6.88-4.35,12.53-8.6,17.7,3.33,4.2,6.67,8.72,7.97,14.03,1.65,6.73.49,12.15-4.27,17.17-5.31,5.61-11.47,7.06-18.92,4.92-4.98-1.43-9.2-4.63-13.21-7.76-4.94,4.19-10.68,7.95-17.31,8.59-9.25.89-16.93-5.33-19.02-14.18-.16-.68-.38-1.15.18-1.76.99-1.09,3.23-2.15,4.36-3.24l3.23-2.02c-2.52.04-5.04.06-7.55.09-3.22.05-6.58.33-9.8,0-2.39-.25-4.55-1.24-6.75-2.1v18.45c0,.16-.39.9-.52,1.08-.82,1.17-5.3,3.97-6.73,4.87-1.35.85-4.43,3.28-4.66.15l.02-76.59c.11-.93.67-1.39,1.62-1.24s4.53,2.66,5.55,3.35c1.07.73,4.73,2.97,4.73,4.27v18.45c2.27-.88,4.49-1.86,6.95-2.1,4.42-.42,9.07,0,13.49.1,1.25.03,2.51-.08,3.75.09-.95-.65-1.97-1.18-2.93-1.82-1.66-1.11-3.21-2.41-4.81-3.59-.1-.19-.25-.42-.29-.62-.12-.55.82-3.3,1.09-3.97,1.97-4.95,5.94-8.68,10.97-10.43.69-.24,2.66-.89,3.28-.73.23.06.43.24.6.4,1.16,1.18,2.15,3.15,3.28,4.42l1.92,3.13c-.06-2.22-.06-4.44-.09-6.65-.07-3.94-.58-9.32.42-13.07.41-1.53,1.19-2.94,1.57-4.48h-18.45s-.61-.24-.7-.3c-1.1-.58-3.28-4.03-4.07-5.23-.74-1.12-1.68-2.44-2.29-3.61-.54-1.02-1.02-2.24.48-2.66h77.19c.66.04.93.22,1.25.79ZM92.27,47.37c-.13.14-.22.36-.31.54-.26,3.73.21,7.53.17,11.28.88,8.1-.15,19.14,5.31,25.79.26.31,1.73,1.99,2.03,1.94,4.57-3.79,5.76-9.71,6.36-15.34.56-5.21.72-10.47.9-15.7.08-2.38.37-4.91.3-7.28-.04-1.29-1.3-1.96-2.44-2.06-3.3-.31-7.05.23-10.4,0-.55.05-1.54.43-1.92.83ZM85.33,85.33c-.87-4.21-1.19-8.51-1.4-12.8-1.63.64-3.26,1.3-4.8,2.15-1.71.94-2.58,1.4-3.64,3.06-1.23,1.92-2.16,4.01-2.96,6.14,1.08.26,2.32.16,3.45.25,3.13.24,6.26.67,9.35,1.2ZM111.33,91.23l5.12-2.03c.85-.31,1.59.37,2.18.88,1.72,1.47,3.24,3.44,4.95,4.95,1.81-2.48,3.16-5.44,3.35-8.54.38-6.12-1.59-8.56-6.64-11.47-1.73-1-3.56-1.77-5.42-2.48-.23,4.11-.49,8.27-1.28,12.32-.21,1.05-.41,2.02-.77,3.03-.41,1.16-1.04,2.21-1.5,3.35ZM47.27,92.37c-.32.34-.69,1.25-.73,1.72-.34,3.4.25,7.34,0,10.8.19.94.65,1.91,1.67,2.13,7.89-.25,15.82-.31,23.68-1.18,5.55-.61,11.31-1.85,15.03-6.35-3.59-4.63-9.68-5.85-15.23-6.45-7.16-.78-14.7-1.02-21.9-1.1-.87,0-1.77-.37-2.51.43ZM103.53,123.73c2.33,1.48,4.59,2.68,7.37,3.09,3.8.55,7.54.15,10.18-2.88.42-.49.77-1.18,1.19-1.61s1.05-.72,1.5-1.1c2.88-2.44,3.4-5.62,3.15-9.25-.21-3.06-1.57-5.94-3.3-8.4-.17-.08-.57.57-.7.71-1.29,1.37-2.98,3.1-4.4,4.3-.48.41-1.3,1.08-1.95.86l-5.35-2.21c.3.69.71,1.34,1.02,2.03.61,1.38,1.13,2.86,1.28,4.37-2.23-.43-4.36-1.24-6.3-2.4.57,1.5,1.18,2.99,1.75,4.5.22.58.58.81.43,1.53-.07.32-.6,1.01-.83,1.27-1.21,1.44-2.92,3.09-4.3,4.4-.14.13-.89.6-.75.8ZM91.23,111.33c-.99.46-1.95.99-2.97,1.37-3.43,1.3-8.38,1.74-12.08,2.02-1.21.09-2.45.03-3.65.25,1.13,2.98,2.59,6.11,4.6,8.6,2.82,3.5,7,3.93,11.22,3.12,2.37-.45,4.64-1.63,6.57-3.03-1.36-1.66-3.12-3.03-4.55-4.64-.53-.59-1.48-1.55-1.28-2.38l2.13-5.32Z"/>
  <path d="M.03,112.93c-.04-.35-.04-1.15,0-1.5.71-5.9,9.89-5.85,10.1.54S.74,118.83.03,112.93Z"/>
  <path d="M112.93.03c6.4.77,5.35,11.46-1.9,9.95-5.67-1.18-4.98-9.31.4-9.95.35-.04,1.15-.04,1.5,0Z"/>
  <path d="M19.91,107.06c6.95-.71,7.52,10.07.67,10.18-6.61.11-6.89-9.55-.67-10.18Z"/>
  <path d="M85.71,15.46c3.69-.44,6.47,2.15,6,5.9-.52,4.1-6.28,5.5-8.93,2.48-2.45-2.8-.9-7.91,2.93-8.37Z"/>
  <path d="M111.21,15.46c7.84-1.06,8.09,10.9.1,9.95-5.74-.69-5.49-9.22-.1-9.95Z"/>
  <path d="M19.61,81.66c7.85-.94,7.64,10.74.27,10.07-5.74-.52-6.02-9.38-.27-10.07Z"/>
</svg>