<?xml version="1.0" encoding="UTF-8"?>
<svg id="Layer_1" data-name="Layer 1" xmlns="http://www.w3.org/2000/svg" viewBox="0 0 137.21 137.3">
  <path fill="#FFFFFF" d="M31.2,0c.66.3,1.28.67,1.89,1.06.86.54,3.43,2.16,3.95,2.85.08.11.36.55.36.64v10.95c1.28-.42,2.49-1.03,3.85-1.2,1.61-.2,3.2-.01,4.79,0,1.89.02,3.77-.06,5.65.09l-2.23-1.42c-.54-.58-1.96-1.24-2.37-1.83-.32-.46.14-1.65.33-2.18,1.48-4.27,5.59-7.51,10.22-7.27,4.22.21,7.87,2.55,11,5.18,3.13-2.62,6.78-4.97,11-5.18s8.14,2.49,9.83,6.26c.27.6.83,2.03.87,2.63.06.86-1.96,1.78-2.52,2.39l-2.23,1.42c1.85-.16,3.7-.07,5.55-.09,2.08-.02,4.16-.29,6.22.27.86.23,1.67.68,2.52.93V4.65s.26-.6.32-.68c.37-.56,2.69-2.05,3.39-2.51.81-.52,1.62-1.04,2.49-1.46h.3c.21.06.6.47.6.65v29.65h29.65c.57,0,.61.75.48,1.18-.21.71-2.65,4.29-3.23,4.96-.33.38-.92.95-1.45.95h-10.65c.43,1.34,1.07,2.62,1.2,4.05.08.93,0,1.88,0,2.79.02,2.46.01,4.91-.09,7.35l3.1-4.45c.48-.42,1.41-.05,1.98.13,3.29,1.01,6.35,3.89,7.25,7.25,1.4,5.22-1.63,10.25-4.8,14.13,2.45,2.95,4.65,6.28,5.07,10.2.5,4.68-2.13,8.86-6.4,10.7-.55.24-2.1.82-2.64.75-.64-.08-1.63-1.98-2.14-2.47l-1.42-2.23c.11,2.45.11,4.9.09,7.35,0,.95.09,1.93,0,2.89-.13,1.44-.81,2.69-1.2,4.05h10.95c.28,0,.9.58,1.09.81.54.63,3.26,4.65,3.35,5.25.08.53-.16,1.04-.74,1.04h-29.55v29.65c0,.21-.33.53-.5.65h-.5c-.79-.4-1.55-.88-2.29-1.36-.81-.52-3.1-1.96-3.53-2.67-.07-.12-.27-.52-.27-.63v-10.85c-1.42.61-2.88,1.19-4.45,1.3-3.19.22-6.55-.2-9.75-.1l4.4,3.04c.53.53.02,1.66-.2,2.31-1.58,4.5-5.7,7.56-10.56,7.25-4.13-.26-7.57-2.62-10.7-5.11-3.56,2.94-7.68,5.47-12.5,5.11-3.51-.26-6.93-3.14-8.33-6.27-.29-.64-1.06-2.6-.7-3.18l2.86-2.14,1.63-1.02c-.98.02-1.97-.03-2.95,0-2.23.05-4.56.26-6.79.1-1.59-.11-3-.72-4.45-1.3v10.95c0,.33-.6.92-.85,1.15-1.46,1.28-3.53,2.31-5.15,3.4h-.6c-.19-.1-.5-.58-.5-.75v-29.55H.45c-.11,0-.36-.3-.45-.4v-.6c.97-1.62,2-3.4,3.16-4.89.25-.32.86-1.11,1.29-1.11h11.05c-.55-1.37-1.19-2.76-1.3-4.25-.19-2.55.03-5.25.1-7.79.02-.72-.02-1.44,0-2.15l-1.62,2.43c-.26.37-1.36,1.92-1.63,2.07-.44.25-1.52-.14-2.01-.3-3.61-1.18-7.1-4.84-7.35-8.75-.33-5,2.12-8.86,5.1-12.59-3.05-3.57-5.53-7.81-5.09-12.71.26-2.92,2.65-6.03,5.11-7.49.7-.42,3.4-1.62,4.09-1.42.5.15,1.52,2,1.98,2.43l1.42,2.23c-.02-.75.03-1.5,0-2.25-.07-2.52-.28-5.17-.1-7.69.11-1.61.81-2.86,1.2-4.35H4.35c-.35,0-1.07-.92-1.29-1.21-1.12-1.46-2.07-3.14-3.06-4.69v-.7c.05-.13.49-.4.55-.4h29.75V.75c0-.31.34-.62.6-.75h.3ZM63.9,16.5l-1.25-3c-.18-.55.36-1.1.7-1.5.81-.95,1.91-1.8,2.75-2.75-2.6-2.07-7.61-3.01-10.15-.45-1.32,1.32-2.51,3.83-3.05,5.6,2.51.23,5.14.3,7.6.85,1.21.27,2.27.76,3.4,1.25ZM84.5,14.4c-1.26-3.02-2.76-6.84-6.55-7.1-2.52-.18-4.74.47-6.75,1.95.85.98,2.03,1.86,2.85,2.85.31.37.78.89.6,1.4l-1.25,3.1c3.3-1.96,7.38-1.84,11.1-2.2ZM60.87,24.17c.15-.16.26-.38.43-.53-2.32-3.03-6.46-3.59-10.04-3.94-3.82-.37-7.68-.42-11.5-.5-.5-.01-.88-.21-1.45-.06-.51.13-.82.72-.89,1.21-.27,1.99.18,4.53,0,6.59.15.46.41,1.06.95,1.15,4.36-.16,8.75-.16,13.09-.59,3.19-.32,7.11-.89,9.42-3.33ZM97.98,19.13c-4.24.12-8.73.2-12.93.67-3.27.37-6.94,1.08-9.04,3.84,2.38,2.92,6.3,3.51,9.84,3.86s7.28.43,10.9.5c1.14.02,2.91.64,3.14-1.05.27-2.02-.18-4.6,0-6.68-.3-1.2-.85-1.16-1.91-1.13ZM63.9,30.7c-1.14.52-2.14,1-3.38,1.27-2.53.56-5.15.62-7.72.88.51,1.25,1.05,2.49,1.76,3.64,1.41,2.3,2.74,3.45,5.57,3.47,2.18.02,4.26-.67,5.97-2.01,0-.26-3.33-2.92-3.48-3.83-.09-.57,1.14-2.7,1.28-3.42ZM84.5,32.8c-2.81-.23-6.05-.27-8.75-1.1-.82-.25-1.55-.71-2.35-1l1.25,3c.2.52-.2.93-.5,1.3-.84,1.02-2.07,1.93-2.95,2.95,1.12.82,2.5,1.57,3.88,1.82s3.19.29,4.52-.22c2.55-.98,3.97-4.37,4.9-6.75ZM42.75,37.4h-5.35v5.25c0,.33-.6.93-.85,1.15-1.03.9-2.51,1.62-3.63,2.42l-.12,5.48,1.22-1.93c.48-.44,1.7-2.58,2.18-2.73s2.23.51,2.77.74c3.13,1.34,6.18,4.76,6.44,8.26.37,5-2.06,9-5.1,12.69,3.07,3.64,5.44,7.65,5.1,12.62-.22,3.2-2.84,6.44-5.6,7.9-.69.36-2.93,1.32-3.61,1.1-.54-.17-1.76-2.34-2.28-2.82l-1.12-1.83.12,5.48,3.63,2.42c.21.16.75.81.75,1.05v5.35h5.35c.22,0,.78.47.95.65.94,1.01,1.7,2.6,2.52,3.73l5.48.12-2.23-1.42c-.43-.3-2.22-1.57-2.41-1.89-.11-.18-.11-.27-.09-.47.2-2.02,1.96-4.82,3.43-6.17,2.79-2.56,5.83-3.16,9.5-2.4,3.31.69,6.17,2.74,8.75,4.83,3-2.4,6.18-4.6,10.11-5.06s7.72,1.32,9.94,4.73c.57.87,1.63,3.13,1.68,4.13.01.22-.11.47-.26.63-.58.61-1.82,1.18-2.45,1.82l-2.07,1.28,5.5-.15,2.6-3.8c.12-.14.84-.65.95-.65h5.25v-5.15c0-.21.47-.88.65-1.05l3.83-2.67.12-5.33-3.13,4.47c-.54.43-2.71-.46-3.34-.75-3.06-1.42-5.88-4.81-6.14-8.26-.36-4.87,2.16-8.91,5.09-12.52-2.92-3.67-5.41-7.57-5.09-12.49.21-3.21,2.74-6.5,5.5-8,.63-.34,3.03-1.34,3.63-1.23.55.1,2.02,2.59,2.51,3.09l.96,1.59-.15-5.4c-.11-.22-3.08-2.03-3.6-2.5-.24-.22-.75-.83-.75-1.15v-5.15h-5.05c-.44,0-1.07-.53-1.35-.85-.87-1.02-1.56-2.43-2.4-3.5l-5.5-.25,1.93,1.22c.43.3,2.53,1.8,2.71,2.09.25.39-.07,1.32-.21,1.77-1.42,4.55-5.62,7.88-10.48,7.63-4.23-.22-7.69-2.58-10.9-5.11-3.13,2.49-6.56,4.83-10.7,5.1-4.94.33-9.31-3.06-10.68-7.72-.16-.56-.57-1.48-.02-1.88l4.45-3.1c-1.82.22-3.67,0-5.5.25-.75.81-2.46,4.15-3.45,4.35ZM20.48,37.43c-.58.08-1.3.39-1.38,1.02-.13,1.08.08,2.23.11,3.3.1,3.72.15,7.49.61,11.19.39,3.15,1.19,6.36,3.74,8.46,2.83-2.3,3.48-6.01,3.85-9.45.35-3.25.41-6.54.5-9.8.03-1.2.29-2.59.1-3.79-.09-.6-.92-.88-1.45-.95-1.25-.14-4.84-.16-6.06.02ZM110.17,37.42c-.55.22-.91.39-.98,1.02-.18,1.67.14,4.16.21,5.9.1,2.44.15,4.88.4,7.3.36,3.49.98,7.29,3.85,9.63,3.81-3.05,3.67-8.4,4.15-12.83-.07-3.19.55-6.73.38-9.87-.04-.63-.53-1.08-1.13-1.17-2.05-.29-4.75.18-6.87.01ZM104.5,52.8c-2.32.82-5.78,2.38-6.75,4.8-1.06,2.66-.17,6.17,1.5,8.4.25.06,3.11-3.28,3.82-3.38l.53.03,3,1.25c-.36-.91-.86-1.76-1.13-2.72-.73-2.62-.79-5.66-.97-8.38ZM128.1,66.1c1.33-2.09,2.11-4.22,1.9-6.75-.31-3.79-3.99-5.29-7.05-6.55-.1.07-.13.13-.15.25-.12.68-.03,1.84-.1,2.6-.12,1.37-.29,2.8-.55,4.15-.28,1.45-.7,2.68-1.35,4l2.97-1.18c.59-.17,1.02.28,1.43.63,1,.85,1.86,2.02,2.9,2.85ZM14.4,52.9c-2.43.87-5.98,2.45-6.88,5.07s0,5.97,1.63,8.13c.25.06,3.13-3.33,3.87-3.43l3.48,1.33c-.32-.75-.75-1.47-1-2.25-.16-.5-.26-1.02-.36-1.54-.48-2.37-.66-4.9-.73-7.32ZM30.6,64c.6-.19,3.05-1.44,3.48-1.33.91.22,3.59,3.5,3.87,3.43,1.92-2.54,2.85-6.74.89-9.49-.95-1.33-4.41-3.33-6-3.7-.19-.04-.12,0-.14.14-.35,2.92-.18,5.93-1.12,8.78-.25.75-.65,1.46-.97,2.17ZM106.6,73.4l-3.42,1.28c-.36-.14-.68-.39-.98-.63-.88-.73-1.88-2.16-2.75-2.75-.08-.06-.11-.14-.25-.1-1.46,2.34-2.49,5.38-1.57,8.12s4.38,4.1,6.82,5.18c.36-3.74.27-7.74,2.15-11.1ZM120.7,73.4c1.59,2.76,1.87,6.31,2.1,9.45.04.5-.1,1.07.1,1.51.17.13,1.01-.27,1.24-.37,1.43-.61,3.8-1.93,4.75-3.15,2.07-2.68,1.1-7.12-.84-9.63-.27-.07-3.12,3.35-3.84,3.46-.49.08-3.36-1.38-3.5-1.26ZM16.5,73.5l-3.43,1.28c-.77-.08-3.65-3.55-3.92-3.48-1.62,2.23-2.48,5.36-1.66,8.05s4.42,4.18,6.85,5.25c.32-3.73.25-7.77,2.15-11.1ZM32.7,84.6c2.29-.95,5.73-2.35,6.75-4.8,1.11-2.69.18-6.23-1.5-8.5-.29-.07-3.15,3.41-3.92,3.48l-3.43-1.28c.67,1.16,1.1,2.37,1.37,3.68.49,2.4.66,4.98.73,7.42ZM113.57,76.01c-.37.1-1.78,2.06-2.02,2.49-2.25,4.08-2.13,12.91-2.24,17.66-.03,1.36-.75,3.48,1.15,3.74,1.19.16,5.29.16,6.48,0,.62-.08,1.22-.58,1.24-1.24.03-1.3-.14-2.69-.18-4-.16-4.97.05-13.85-3.3-17.7-.19-.22-.89-1-1.13-.94ZM23.47,76.11c-.35.09-1.68,1.88-1.92,2.29-2.33,3.97-2.23,12.69-2.34,17.36-.03,1.05-.26,2.24-.1,3.29.08.53.76.88,1.25.95,1.96.27,4.47-.18,6.49,0,.63-.23,1.09-.41,1.16-1.14.11-1.19-.08-2.43-.11-3.6-.13-5.01.05-14.33-3.3-18.2-.19-.22-.89-1-1.13-.94ZM63.8,106.7l-1.25-3.1c-.18-.69.93-1.68,1.4-2.2.65-.71,1.39-1.34,2.05-2.05-3-2.21-7.96-3.12-10.6.1-.46.56-2.99,4.76-2.6,5.15,1.28,0,2.57.07,3.85.2,2.44.25,5.03.61,7.15,1.9ZM73.4,106.6c.55-.16,1.02-.5,1.55-.7,1.84-.72,4.51-1.02,6.5-1.2.8-.07,1.99.02,2.7-.1.12-.02.18-.05.25-.15-1.24-2.92-2.74-6.68-6.36-7.04-2.57-.26-4.83.51-6.94,1.89.79.97,1.83,1.75,2.65,2.7.23.26.77.88.83,1.18.11.6-1.35,3.25-1.18,3.42ZM38.38,109.22c-.71.1-1.02.78-1.08,1.42-.18,2.03.14,4.34.01,6.4.36,1.76,2.34,1.08,3.64,1.05,3.82-.09,7.7-.15,11.5-.6,3.17-.37,6.71-1.09,8.74-3.77-2.15-2.82-5.91-3.47-9.24-3.83-4.49-.49-9.06-.46-13.57-.68ZM98.28,109.23c-4.29.11-8.87.2-13.13.67-3.31.36-7.11,1.03-9.23,3.85,2.1,2.63,5.53,3.37,8.73,3.75,3.78.45,7.71.51,11.5.6,1.1.03,3.39.65,3.64-.95-.18-2.1.26-4.65,0-6.7-.11-.91-.68-1.24-1.52-1.22ZM63.8,120.8c-.56.25-1.1.56-1.67.78-2.89,1.09-6.38,1.05-9.43,1.37,1.06,2.44,2.5,6.09,5.32,6.88,2.65.75,5.86-.08,7.98-1.78-1.12-1.28-2.67-2.32-3.48-3.83l1.28-3.42ZM84.4,122.9c-2.39-.12-4.87-.27-7.22-.73-1.43-.28-2.59-.73-3.88-1.37l1.25,3c.07.17.07.35.03.53-.18.8-3.48,3.47-3.48,3.72,2.16,1.74,5.78,2.67,8.42,1.63,2.48-.98,4-4.43,4.87-6.78Z"/>
  <path fill="#FFFFFF" d="M121.88,119.53c4.19-.57,4.59,5.45,1.15,5.95-4.49.65-4.91-5.44-1.15-5.95Z"/>
  <path fill="#FFFFFF" d="M120.78,112.43c4.53-.61,4.57,6.34.17,5.97-3.52-.29-3.73-5.49-.17-5.97Z"/>
  <path fill="#FFFFFF" d="M123.88,15.83c4.42-.57,4.6,6.76-.28,5.93-3.29-.56-3.11-5.49.28-5.93Z"/>
  <path fill="#FFFFFF" d="M118.08,10.03c4.34-.42,4.44,6.04.37,6.07-3.66.03-4.09-5.72-.37-6.07Z"/>
  <path fill="#FFFFFF" d="M114.57,118.32c4.88-.82,4.98,6.52.3,5.95-3.42-.42-3.16-5.47-.3-5.95Z"/>
  <path fill="#FFFFFF" d="M12.58,115.53c4.53-.48,4.54,6.41-.03,5.97-3.32-.32-3.55-5.59.03-5.97Z"/>
  <path fill="#FFFFFF" d="M18.18,121.33c4.3-.63,4.77,5.45,1.15,5.95-4.36.6-4.6-5.44-1.15-5.95Z"/>
  <path fill="#FFFFFF" d="M14.28,11.63c4.26-.41,4.41,5.96.47,6.08s-4.27-5.71-.47-6.08Z"/>
  <path fill="#FFFFFF" d="M21.78,13.02c4.03-.15,4.09,5.9.27,6.08s-4.35-5.92-.27-6.08Z"/>
  <path fill="#FFFFFF" d="M15.78,18.93c3.9-.23,4.39,5.51.76,5.96-4.54.56-4.64-5.73-.76-5.96Z"/>
</svg>