<?xml version="1.0" encoding="UTF-8"?>
<svg id="Layer_1" data-name="Layer 1" xmlns="http://www.w3.org/2000/svg" viewBox="0 0 139.4 139.42">
  <path d="M58,139.42h-.8c-1-.31-1.75-.69-2.11-1.75-1.14-3.33,3.7-4.81,4.85-1.95.68,1.69-.22,3.27-1.95,3.7Z"/>
  <path d="M82.2,139.42h-.8c-3.55-.83-2.45-6.08,1.24-5.09,2.2.59,2.45,3.74.46,4.75l-.9.35Z"/>
  <path d="M139.4,81.42v.8c-.64,3.28-5.37,2.89-5.2-.55.09-1.92,1.98-2.86,3.68-2.17.87.35,1.26,1.08,1.52,1.93Z"/>
  <path d="M0,82.22v-.8c.83-3.53,6.08-2.46,5.09,1.24-.59,2.2-3.74,2.46-4.75.46-.15-.31-.18-.62-.34-.91Z"/>
  <path d="M139.4,57.12v.8c-.33,1.36-1.39,2.31-2.85,2.2-3.47-.27-3.02-5.78.77-5.17,1.06.17,1.83,1.19,2.07,2.18Z"/>
  <path d="M0,57.92v-.8c.24-.99,1.01-2.01,2.07-2.18,3.79-.61,4.25,4.9.77,5.17-1.45.11-2.52-.84-2.85-2.2Z"/>
  <path d="M95.4,23.92c.48,1.27,1,2.47,1.1,3.85.19,2.74-.19,5.61-.1,8.35l2.66-3.79c.44-.37,1.32,0,1.82.17,2.53.83,4.61,2.68,5.67,5.13.24.55.86,2.11.56,2.63l-4,2.77c.52.09,1.06-.09,1.55-.1,2.22-.07,5.23-.17,7.4,0,1.2.1,2.35.66,3.45,1.1v-9.55c0-.58,2.49-2.19,3.05-2.55s2.67-2.02,3.01-.9l.05,77.06c-.12.73-.54.83-1.17.57-.79-.34-3.73-2.32-4.38-2.92-.15-.14-.55-.69-.55-.85v-9.45c-.78.18-1.48.6-2.26.79-3.1.79-6.75-.02-9.94.21l3.6,2.55c.64.49-.01,1.96-.28,2.62-.91,2.21-2.72,4.04-4.92,4.98-.54.23-2.04.83-2.54.54-.25-.15-1.68-2.16-1.94-2.56l-.82-1.33c-.13,4.12.83,8.44-1,12.3h9.55s.43.24.5.3c.51.39,2.83,3.87,3.14,4.56.23.5.34.83-.21,1.16l-77.03.08c-.86-.18-.82-.63-.5-1.31s2.59-4.11,3.1-4.5c.07-.06.47-.3.5-.3h9.55c-1.84-3.86-.85-8.17-1-12.3l-.82,1.33c-.26.39-1.69,2.41-1.94,2.56-.5.29-1.99-.31-2.54-.54-2.2-.93-4.01-2.77-4.92-4.98-.27-.66-.92-2.13-.28-2.62l3.6-2.55c-2.64-.13-5.31.26-7.95.1-1.51-.09-2.85-.58-4.25-1.1v9.45c0,.16-.4.71-.55.85-.66.61-3.57,2.57-4.38,2.92-.63.27-1.05.16-1.17-.57l.05-77.06c.33-1.07,2.16.36,2.71.7.59.38,3.35,2.15,3.35,2.75v9.55c1.1-.43,2.25-1,3.45-1.1,2.17-.18,5.18-.08,7.4,0,.49.02,1.02.19,1.55.1l-3.99-2.76c-.33-.52.29-2.06.54-2.64,1-2.31,2.94-4.12,5.29-5.01.54-.2,1.74-.68,2.2-.29l2.66,3.79c.17-4.07-.86-8.4,1-12.2h-9.25c-.07,0-.55-.19-.65-.25-.59-.37-2.78-3.69-3.16-4.44s-.61-1.33.5-1.5h76.3c1.17.09,1.18.5.73,1.44-.36.76-2.6,4.14-3.19,4.51-.1.06-.58.25-.65.25h-9.25ZM67.35,23.92h-9.25c.3,1.18.9,2.21,1,3.45.19,2.35.01,5.33-.1,7.7-.02.38,0,.77,0,1.15l2.6-3.75c.09-.1.2-.23.33-.28.35-.15,1.86.38,2.3.55,1.88.75,3.45,2.19,4.52,3.88l1.01,1.99c.87-2.77,3.07-5.01,5.8-6,.62-.22,1.82-.78,2.25-.15l2.6,3.75c0-.38.02-.77,0-1.15-.11-2.37-.29-5.35-.1-7.7.1-1.24.7-2.28,1-3.45h-9.15c-1.02,0-1.78-1.67-2.32-2.37-.04-.05,0-.18-.18-.13-.13.04-1.1,1.87-1.68,2.22-.1.06-.53.26-.62.28ZM54.67,24.26c-.13-.15-.51-.31-.72-.33-1.16-.14-4.64-.14-5.8,0-.53.06-.99.41-1.02.98-.15,2.55.39,5.21.28,7.77.45,4.06.15,8.95,3.56,11.84.21.04.54-.33.69-.48,2.99-3.11,2.61-8.45,3.05-12.45-.15-2.08.39-4.58.2-6.61-.02-.24-.08-.53-.24-.71ZM84.73,24.26c-.16.18-.21.48-.24.71-.19,2.03.35,4.53.2,6.61.44,3.97.07,9.38,3.05,12.45.14.15.48.52.69.48,3.43-2.88,3.11-7.78,3.56-11.84-.1-2.56.42-5.22.28-7.77-.03-.57-.49-.91-1.02-.98-1.16-.14-4.64-.14-5.8,0-.21.03-.59.19-.72.33ZM43.8,43.72c-.44-2.13-.64-4.32-.7-6.5-.89.32-1.77.68-2.6,1.15-1.36.76-1.64,1.17-2.35,2.55-.32.63-.58,1.3-.85,1.95-.03.22.04.12.15.15.8.2,1.94.11,2.8.2,1.19.13,2.37.36,3.55.5ZM57.2,46.72c.16.15,2.4-1.12,3.03-.98.73.16,3,2.98,3.22,2.98,1.44-1.94,2.28-4.95,1.37-7.27-.85-2.16-3.76-3.4-5.77-4.23-.36,2.47-.27,5.25-1.05,7.65-.21.64-.59,1.21-.8,1.85ZM82.2,46.72c.06-.05-.53-1.15-.6-1.35-.97-2.56-.87-5.48-1.25-8.15-1.98.81-4.96,2.09-5.77,4.23-.5,1.31-.39,3.21,0,4.54.28.99.81,1.88,1.38,2.72.22,0,2.49-2.81,3.22-2.98.63-.14,2.87,1.14,3.03.98ZM102.1,43.02c.07-.07-.43-1.25-.51-1.44-.24-.53-1.03-2.04-1.39-2.41-.21-.22-1.16-.73-1.49-.91-.77-.42-1.57-.77-2.4-1.05-.05,2.18-.25,4.37-.7,6.5l6.5-.7ZM69.8,43.52c-.26-.03-.16,0-.2.15-.18.6-.31,1.15-.55,1.75-.81,1.98-2.18,3.83-3.54,5.47,1.74,2.22,3.56,4.6,4.09,7.44.26.03.16,0,.2-.15.19-.61.31-1.14.55-1.75.8-1.98,2.17-3.85,3.54-5.47-1.7-2.25-3.56-4.59-4.09-7.44ZM24.67,47.15c-.4.09-.71.66-.76,1.04-.11.77-.13,5.2.04,5.84.12.46.45.81.93.88,3.85-.21,7.73-.18,11.57-.58,2.89-.3,6.29-.89,8.13-3.35-2.08-2.55-5.53-3.05-8.63-3.35s-5.93-.34-8.9-.4c-.75-.02-1.62-.25-2.37-.08ZM112.78,47.15c-3.36.07-7,.19-10.33.57-2.79.32-5.78.97-7.63,3.25,1.84,2.46,5.24,3.05,8.13,3.35,3.84.4,7.72.37,11.57.58.52-.06.89-.54.97-1.04.14-.88.13-4.89-.02-5.77-.23-1.35-1.67-.97-2.7-.94ZM53.2,63.52c2.27,1.5,5.96,2.46,8.29.64.57-.45.83-1.02,1.26-1.44.4-.39.93-.64,1.35-1.15,1.36-1.65,1.27-4.09.62-6.03-.29-.87-.75-1.6-1.23-2.37-.08-.1-.14.05-.2.1-.72.54-2.37,2.67-3.07,2.83-.61.14-2.87-1.13-3.03-.98.42,1.01.97,1.98,1.1,3.1-1.14-.07-2.2-.59-3.2-1.1-.12.14,1.16,2.49,1.06,3-.17.84-2.32,2.35-2.86,3.14-.06.08-.14.1-.1.25ZM82.2,55.13c-.15-.15-2.44,1.11-3.03.98-.73-.16-3-2.98-3.22-2.98-1.66,2.15-2.52,6.14-.7,8.4.44.54,1.05.83,1.45,1.25.37.39.6.89,1.1,1.3,2.34,1.94,6.08.98,8.4-.55.04-.15-.04-.17-.1-.25-.55-.79-2.69-2.3-2.86-3.14-.1-.52,1.19-2.84,1.06-3-1,.56-2.09.92-3.2,1.2.12-1.15.66-2.16,1.1-3.2ZM48.7,63.52c.16-.21-2.85-2.74-2.98-3.37-.11-.52,1.21-2.87,1.08-3.03-2.86,1.55-6.31,1.61-9.5,1.8.6,1.9,2.01,4.88,3.9,5.75,2.38,1.09,5.4.21,7.5-1.15ZM102.1,58.93c-3.19-.19-6.64-.25-9.5-1.8-.11.13,1.19,2.53,1.08,3.03-.13.63-3.14,3.16-2.98,3.37,2.09,1.36,5.12,2.24,7.5,1.15,1.89-.87,3.3-3.85,3.9-5.75ZM23.9,58.02v9.45c0,.66-1.92,1.86-2.5,2.15-.1.14,2.5,1.52,2.5,2.25v9.45c1.15-.3,2.15-.85,3.35-1,1.28-.16,2.47,0,3.69,0,1.75,0,3.51-.07,5.25.09l-3.87-2.73c-.4-.51.33-2.23.58-2.81,1.11-2.48,3.31-4.37,5.89-5.21-2.43-.72-4.58-2.51-5.72-4.78-.27-.54-.98-2.38-.88-2.91.08-.44,1.96-1.55,2.37-1.94l1.63-1.02c-4.13-.15-8.43.84-12.3-1ZM115.5,58.02c-3.83,1.83-8.1.86-12.2,1,.73.53,1.51.98,2.23,1.52.33.24,1.61,1.14,1.67,1.44.15.83-1.02,3.24-1.52,3.98-1.19,1.76-3.05,3.11-5.08,3.72,2.57.84,4.78,2.73,5.89,5.21.26.58.99,2.3.58,2.81l-3.87,2.73c1.71-.17,3.43-.09,5.15-.09,1.26,0,2.48-.17,3.79,0,1.2.15,2.2.7,3.35,1v-9.45c0-.72,2.6-2.11,2.5-2.25-.58-.32-2.5-1.48-2.5-2.15v-9.45ZM69.8,63.22c-.26-.04-.16.02-.21.14-.15.33-.23.76-.4,1.1-1.15,2.3-3.6,4.51-6.09,5.21,2.94,1,5.71,3.5,6.5,6.55.26.04.16-.02.21-.14.11-.24.15-.56.27-.83,1.15-2.59,3.54-4.68,6.22-5.58-2.91-.88-5.66-3.51-6.5-6.45ZM58.6,69.63c-2.91-.45-5.37-2.37-7.65-4.1-2.3,1.78-4.73,3.58-7.65,4.15,2.89.68,5.41,2.35,7.65,4.24,1.65-1.42,3.47-2.63,5.45-3.54l2.2-.75ZM96.1,69.63c-2.93-.47-5.35-2.36-7.65-4.11-2.3,1.78-4.73,3.59-7.65,4.15,2.9.66,5.42,2.35,7.65,4.24,1.66-1.41,3.47-2.63,5.45-3.54l2.2-.75ZM48.7,76.12c.16-.22-1.2-.96-1.39-1.05-1.65-.79-3.99-1.14-5.73-.52-2.16.76-3.6,3.84-4.27,5.88,2.66.24,5.64.23,8.15,1.2.46.18.87.47,1.35.6.11-.11-1.15-2.5-1.08-2.92.08-.48,2.19-2.57,2.68-3.03.08-.08.18-.14.3-.15ZM57.1,84.32c.16.13,2.49-1.17,3.02-1.08.32.05,1.18.86,1.48,1.13.64.58,1.21,1.26,1.85,1.85,1.55-1.97,2.34-5.28,1.2-7.6-.53-1.09-1.18-1.26-1.91-1.99-.38-.38-.58-.86-1.04-1.26-2.28-1.96-6.32-1.18-8.5.6l2.65,2.75c.12.15.3.4.33.58.07.42-1.19,2.81-1.08,2.92,1.04-.42,2.04-1.02,3.2-1.1-.19,1.13-.59,2.23-1.2,3.2ZM84.3,82.22c.11-.11-1.15-2.5-1.08-2.92.03-.18.22-.43.33-.58l2.65-2.75c-2.19-1.78-6.21-2.57-8.5-.6-.45.39-.63.83-.99,1.21-.41.43-.97.68-1.4,1.2-1.23,1.48-1.23,3.62-.82,5.41.25,1.08.8,2.15,1.46,3.04,1.07-1.01,2.07-2.23,3.33-2.98l3.02,1.08c-.61-.97-1.01-2.07-1.2-3.2,1.15.09,2.16.68,3.2,1.1ZM102.1,80.42c-.66-2.03-2.12-5.12-4.27-5.88-2.26-.79-5.3-.06-7.13,1.43,1.01,1.07,2.24,2.06,2.98,3.33l-1.08,2.92c.06.06,1.15-.53,1.35-.6,2.51-.96,5.49-.95,8.15-1.2ZM69.8,81.02c-.26-.03-.16,0-.2.15-.15.5-.24.99-.42,1.48-.81,2.13-2.27,4.04-3.65,5.83,1.28,1.58,2.58,3.31,3.4,5.18.29.67.43,1.36.69,2.01.04.1.04.24.19.26.5-2.84,2.33-5.25,4.08-7.45-1.7-2.24-3.58-4.59-4.07-7.45ZM24.67,84.55c-.53.12-.73.75-.78,1.22-.1,1.16-.16,4.41.01,5.5.05.31.41.89.75.95.65.12,2.25.02,3,0,2.5-.05,5.1-.19,7.6-.4,3.26-.28,7.2-.69,9.33-3.45-2.04-2.55-5.46-3.05-8.53-3.35-2.79-.28-5.6-.32-8.4-.4-.92-.02-2.06-.29-2.97-.08ZM112.18,84.55c-3.18.06-6.68.2-9.83.57-2.75.32-5.71.98-7.53,3.25,2.16,2.77,6.04,3.17,9.33,3.45,2.5.21,5.1.35,7.6.4.75.02,2.36.12,3,0,.33-.06.7-.64.75-.95.12-.77.11-5.26-.06-5.93-.09-.33-.35-.72-.7-.8-.61-.14-1.87,0-2.55,0ZM59,102.12c1.46-.48,2.97-1.23,4.19-2.16,1.84-1.41,2.22-3.32,1.88-5.56-.2-1.31-.83-2.64-1.63-3.67-.27-.05-2.67,2.86-3.31,2.98l-2.93-1.08c.56,1.16.92,2.22,1.17,3.48.38,1.98.45,4.01.63,6.02ZM82.2,92.63c-.11-.11-2.46,1.13-2.9,1.06-.8-.13-3.03-3.02-3.33-2.95-.66.83-1.3,2.05-1.51,3.09-.84,4.04.65,5.89,4.12,7.59.38.19,1.32.62,1.7.7.19.04.21-.4.22-.55.22-2.15.2-4.35.74-6.46.22-.87.64-1.65.97-2.48ZM50.96,94.83c-2.1,1.77-2.82,4.53-3.15,7.16-.53,4.15-.46,8.39-.69,12.56.11.54.61.89,1.14.96,1.03.14,4.45.14,5.48,0,.47-.06,1.16-.38,1.16-.94-.21-4.3-.12-8.73-.72-12.99-.35-2.49-1.1-5.2-3.22-6.76ZM88.36,94.83c-1.23,1.03-2,2.29-2.49,3.82-1.06,3.25-1.02,7.31-1.17,10.73-.01.24-.1.46-.11.69.21,1.43-.3,3.23-.09,4.6.08.5.7.79,1.15.85,1.03.14,4.46.14,5.48,0,.61-.08,1.12-.49,1.14-1.14.03-1.27-.14-2.63-.18-3.9-.1-3.08-.14-6.24-.61-9.29-.36-2.33-1.17-4.89-3.12-6.36ZM43.8,95.63l-6.5.85c.06.61,1.49,3.31,1.95,3.75.35.34,3.66,2.11,3.85,1.9.06-2.18.26-4.37.7-6.5ZM102.1,96.33c-2.18-.08-4.36-.3-6.5-.7.44,2.13.66,4.32.7,6.5.2.21,3.5-1.56,3.85-1.9s2.18-3.68,1.95-3.9ZM58,115.52h9.55c.57,0,1.77,1.91,2.1,2.4.2,0,1.06-1.44,1.3-1.7.17-.19.66-.7.9-.7h9.55c-.26-.74-.62-1.46-.83-2.22-.61-2.23-.29-6.6-.17-9.03.02-.38,0-.77,0-1.15l-2.73,3.97c-.21.17-.45.14-.69.11-2.51-.3-5.34-2.62-6.53-4.77l-.8-1.7c-.74,2.41-2.57,4.56-4.85,5.65-.57.27-2.18.89-2.74.84-.12-.01-.24-.05-.33-.13l-2.73-3.87c0,.35-.02.7,0,1.05.12,2.42.43,6.79-.17,9.03-.2.76-.55,1.49-.83,2.22Z"/>
  <path d="M12.36,79.96c2.29,2.26-.93,6.15-3.57,3.92s1.07-6.38,3.57-3.92Z"/>
  <path d="M59.46,127.06c1.3,1.29.75,3.79-1.04,4.34-2.31.7-4.27-1.54-3.21-3.71.74-1.53,3.08-1.8,4.25-.63Z"/>
  <path d="M128.68,79.25c3.65-.24,3.7,5.22.26,5.28s-3.56-5.07-.26-5.28Z"/>
  <path d="M128.37,92.35c3.59-.57,4.24,4.68,1.05,5.15-3.86.56-4.04-4.68-1.05-5.15Z"/>
  <path d="M128.48,41.85c3.96-.52,4.06,5.72-.12,5.17-2.66-.35-2.85-4.78.12-5.17Z"/>
  <path d="M10.08,41.85c3.66-.52,3.94,4.69,1.05,5.15-3.83.61-4.29-4.69-1.05-5.15Z"/>
  <path d="M10.08,92.35c3.91-.57,4.15,5.77-.1,5.15-2.8-.41-2.72-4.74.1-5.15Z"/>
  <path d="M57.38,7.85c3.38-.27,3.73,4.76.76,5.17-3.96.55-4.23-4.89-.76-5.17Z"/>
  <path d="M44.08,126.35c3.66-.48,4.07,4.78.76,5.16-3.52.41-4.04-4.73-.76-5.16Z"/>
  <path d="M81.38,126.35c3.7-.53,4.2,4.81.76,5.16s-3.92-4.71-.76-5.16Z"/>
  <path d="M94.48,126.35c4.1-.58,3.99,5.84-.08,5.13-2.77-.48-2.82-4.72.08-5.13Z"/>
  <path d="M81.58,7.85c3.84-.3,3.88,5.87-.39,5.13-2.79-.49-2.55-4.9.39-5.13Z"/>
  <path d="M128.27,54.95c3.76-.64,4.34,4.68,1.05,5.15-3.64.52-3.96-4.66-1.05-5.15Z"/>
  <path d="M9.98,54.95c4.24-.62,4.05,5.84.02,5.13-2.86-.5-2.65-4.75-.02-5.13Z"/>
  <path d="M94.68,7.85c3.76-.33,3.88,5.87-.39,5.13-2.82-.49-2.61-4.87.39-5.13Z"/>
  <path d="M44.28,7.85c3.35-.27,3.86,4.78.66,5.16-3.87.47-4.02-4.9-.66-5.16Z"/>
  <path d="M56.97.05c4.16-.66,4.37,5.67-.02,5.07-2.58-.35-2.73-4.63.02-5.07Z"/>
  <path d="M81.17.05c1.34-.23,2.73.35,3.16,1.7.77,2.43-1.89,4.33-4,3-1.81-1.14-1.25-4.34.84-4.7Z"/>
</svg>