<?xml version="1.0" encoding="UTF-8"?>
<svg id="Layer_1" data-name="Layer 1" xmlns="http://www.w3.org/2000/svg" viewBox="0 0 139.62 139.54">
  <path d="M.09,90.9C-.06,84.65,0,78.16.09,71.9s.21-12.82.5-19.15c.06-1.25-.25-3.41,1.34-3.86.6-.17,3.23-.18,3.88-.07,1.39.24,1.7,2.17,1.77,3.33.15,2.31.04,4.78.1,7.1.31,13.16.5,26.36,0,39.49-.05,1.38.03,2.92-.11,4.29-.08.77-.34,1.48-1.09,1.81s-3.53.35-4.42.22c-.74-.11-1.36-.56-1.47-1.33-.18-1.37-.05-2.91-.1-4.3-.11-2.83-.34-5.74-.4-8.55Z"/>
  <path d="M78.19,0h8.9c.47,0,.93,0,1.4,0,3.22.06,6.51.28,9.75.4,1.64.06,3.5-.05,5.11.09.79.07,1.58.42,1.72,1.28.13.79.11,3.14.02,3.97-.1,1.02-.76,1.61-1.76,1.74-1.07.14-2.22.06-3.29.11-8.09.36-16.2.34-24.3.29-7.47-.04-15.05-.02-22.5-.4-1.23-.06-4.1.08-4.35-1.65-.1-.73-.1-3.05,0-3.78.16-1.16,1.55-1.49,2.54-1.56,2.79-.21,5.97-.02,8.81-.09,5.23-.13,10.52-.34,15.75-.4h2.2Z"/>
  <path d="M139.59,76c.04.32.04,1.08,0,1.4-.27,2.09-2.39,3.94-4.45,4.1-4.68.36-6.9-5.69-3.35-8.55,2.77-2.24,7.35-.48,7.8,3.05Z"/>
  <path d="M94.19,28.9c.97,2.7,1.66,5.37,1.9,8.25.52,6.31,0,13.3-.81,19.58-.7,5.35-1.69,9.78-3.91,14.69-.04.08-.17.21-.03.27,5.05-2.58,8.83-7.3,11.47-12.23,1.81-3.38,2.85-7.56,3.93-11.27,1.93-6.58,3.52-13.67,5.95-20.05,1.07-2.82,2.67-4.84,4.51-7.19,1.32-1.7,3.04-3.97,4.64-5.36.45-.39,1.42-1.27,2-.59s-.08,2.69-.3,3.5c-1.24,4.58-3.13,9.21-4.48,13.82-3.53,12.07-5.99,23.94.61,35.54,1.71,3.01,4.53,5.23,6.28,8.12.63,1.04.57,1.29.02,2.34-.44.83-1.12,1.6-1.6,2.4-1.28,2.14-2.25,4.52-3.16,6.84-3.32,8.46-5.24,17.39-7.33,26.22-9.43,2.32-19.01,4.29-27.99,8.06-1.62.68-3.43,1.48-4.93,2.37-.84.5-2.8,2.1-3.63,2.18-.65.06-1.32-.5-1.83-.86-2.74-1.9-4.9-4.44-7.84-6.06-11.8-6.48-23.65-3.91-35.84-.31-4.39,1.3-8.76,3.05-13.12,4.28-.78.22-3.12.96-3.7.31-.76-.86,1.3-2.64,1.9-3.21,2.76-2.59,7.61-6.46,11.08-7.82,9.24-3.63,19.73-5.16,28.98-8.72,4.74-1.83,10.47-6.16,13.37-10.33.32-.46,1.24-1.77,1.38-2.22.04-.14,0-.18-.14-.14-4.99,2.42-10.53,3.43-16.02,4.08-5.98.71-12.9,1.21-18.89.61-2.63-.26-5.21-.93-7.65-1.9v1.85c0,.96-1.31,2.1-2,2.7-1.2,1.05-2.71,2.13-4.01,3.09-.72.53-3.16,2.48-3.85,2.55-.87.1-1.23-.55-1.24-1.34l.03-52.38c.53-1.69,1.66-.86,2.65-.2,1.73,1.16,3.69,2.67,5.32,3.98.92.75,3.11,2.35,3.11,3.59v1.85c.89-.34,1.79-.69,2.7-.95,4.63-1.34,9.58-1.23,14.35-1.05,4.34.16,8.66.51,12.95,1.2-.32-3.08-.77-6.16-1-9.25-.3-4.12-.42-8.37-.1-12.5.23-2.91.92-5.62,1.9-8.35h-2.05c-.68,0-1.95-1.38-2.4-1.9-1.35-1.53-2.79-3.54-3.99-5.21-.68-.95-3-3.53-.67-3.94l52.16-.05c1.28.03,1.87.77,1.25,1.96-1.82,2.36-3.49,5.01-5.45,7.25-.49.57-1.64,1.9-2.4,1.9h-2.05ZM67.17,28.93c-1.07.13-1.68.34-1.78,1.52-.09.96-.03,2.32,0,3.31.17,5.88.9,12.38,1.94,18.16,1.14,6.38,2.76,13.41,8.14,17.56h3.06c5.23-4.02,6.89-10.76,8.04-16.96,1.09-5.87,1.7-11.9,1.93-17.87.05-1.28.31-3.33.06-4.55-.2-1-1.12-1.13-2-1.2-6.24-.47-13.08.33-19.37.03ZM106.17,106.09c1.5-8.59,2.75-17.25,5.17-25.64-2.71-5.47-4.74-11.35-5.16-17.5-.03-.43.07-1.01,0-1.4-.06-.36-.47-.29-.61-.08-.22.34-.5,1.24-.71,1.67-2.65,5.47-5.71,11.03-10.07,15.31,2.07,2.89,3.56,6.38,4.33,9.85.82,3.71.77,7.43.45,11.2-3.69.43-7.36.43-11-.35s-7.06-2.29-10.13-4.34c-4.76,4.78-10.93,7.99-17,10.78l-.06.51c2.13.09,4.21.24,6.3.65,4.45.85,8.71,2.58,12.75,4.55,8.42-2.42,17.12-3.63,25.73-5.21ZM29.42,88.17c.55.58,2.51.46,3.32.44,5.08-.11,10.74-.69,15.78-1.42,6.69-.98,15.71-2.53,20.32-7.88.1-.12.61-.72.63-.77.05-.18.13-1.32.13-1.58s-.07-1.4-.13-1.58c-.02-.05-.53-.66-.63-.77-4.1-4.76-11.19-6.32-17.13-7.37s-12.78-1.79-18.86-1.94c-1.6-.04-3.93-.42-3.86,1.85v19.61c.03.37.19,1.15.44,1.41ZM87.49,87.4c-.36-.56-2.24-2.9-2.77-2.98-.13-.02-.3.01-.33.14-.08.37,2.2,2.3,2.61,2.59.1.07.4.34.49.26Z"/>
  <path d="M46.89,46.8c-5.49-1.57-11.06-2.97-16.48-4.77-4.15-1.38-6.01-2.64-9.41-5.29-1.42-1.11-2.9-2.25-4.21-3.49-.43-.41-1.53-1.46-1.79-1.91-.18-.32-.28-.82-.06-1.13.48-.7,2.65-.06,3.37.12,4.01,1.05,8.17,2.78,12.2,4,1.78.54,3.56,1.07,5.38,1.47-1.32-5.36-3.33-10.52-4.97-15.78-.31-.98-.71-2.11-.88-3.12-.32-1.85.21-2.94,1.96-1.46,1.12.95,2.34,2.45,3.3,3.6,2.57,3.11,4.93,6.07,6.3,9.9,2.09,5.81,3.46,11.96,5.3,17.85Z"/>
  <path d="M76.07,130.03c4.16-.5,6.99,3.89,4.6,7.4-2.81,4.14-9.09,1.71-8.68-3.18.18-2.15,1.93-3.96,4.08-4.22Z"/>
</svg>