<?xml version="1.0" encoding="UTF-8"?>
<svg id="Layer_1" data-name="Layer 1" xmlns="http://www.w3.org/2000/svg" viewBox="0 0 128.11 128.12">
  <path d="M38.61,0c.64.16,1.29.25,1.92.43,2.85.78,5.66,2.52,8.21,3.99,3.99,2.31,7.87,4.81,11.82,7.18.14-.11.21-.24.22-.43.02-.52-.28-1.55-.35-2.14-.2-1.54-.45-3.25-.52-4.78-.04-.84-.12-2.65,0-3.4.05-.32.35-.65.59-.86h.4c1.19.79,1.89,2.34,2.55,3.6.1.2.44,1.09.5,1.1.2.06.14-.1.2-.2.87-1.52,1.49-3.44,2.95-4.5h.4c.94.62.74,2.41.7,3.45-.09,2.49-.81,5.15-.91,7.5,0,.24.04.42.1.64l15-8.95c1.81-.91,3.58-1.86,5.56-2.34.48-.12.98-.16,1.44-.31h1.8c.52.16,1.07.2,1.6.35,3.2.89,5.85,3.61,7.9,6.1,3.36,4.09,5.69,8.87,7,14,5.11,1.2,9.91,3.62,13.95,6.95,2.59,2.14,5.43,4.91,6.18,8.32.12.53.14,1.06.27,1.58v.9l-.41,2.14c-1,3.36-2.86,6.38-4.61,9.39-2.13,3.64-4.43,7.19-6.58,10.82l.44.23c3.16-.37,6.83-1.2,10.01-.89.57.05.9.29,1.14.81v.1c-.94,1.69-3.21,2.3-4.8,3.25,1.18.63,2.47,1.16,3.57,1.93.53.37.99.7,1.23,1.32v.1c-.24.52-.58.75-1.14.81-1.81.18-4.26-.11-6.09-.32-1.2-.13-2.69-.53-3.83-.58-.11,0-.54.04-.54.15,2.19,3.87,4.65,7.58,6.88,11.42,1.65,2.84,3.38,5.72,4.31,8.89l.41,2.14v.9l-.4,2.05c-.89,3.18-3.57,5.8-6.05,7.85-4.04,3.33-8.84,5.74-13.95,6.95-.66,2.31-1.39,4.61-2.41,6.79-2.07,4.4-6.93,11.25-11.59,13.01-.82.31-1.65.47-2.5.65h-1.7c-.53-.14-1.08-.19-1.62-.33-2.86-.73-5.8-2.48-8.35-3.95-4.09-2.36-8.03-4.97-12.13-7.32-.06.22-.11.4-.1.64.09,2.35.81,5.01.91,7.5.04,1.05.24,2.84-.7,3.45h-.4c-1.49-1.12-2.16-3.11-3.05-4.7-.21-.04-.14.08-.19.2-.74,1.55-1.56,3.49-2.96,4.5h-.4c-.25-.2-.54-.53-.59-.86-.13-.75-.05-2.56,0-3.4.07-1.53.32-3.25.52-4.78.08-.59.37-1.61.35-2.14,0-.18-.08-.31-.22-.42-3.96,2.35-7.83,4.87-11.82,7.18-2.67,1.54-5.75,3.44-8.77,4.13-.49.11-.99.15-1.46.29-.52-.03-1.09.05-1.6,0-3.89-.36-7.03-3.41-9.4-6.25-3.44-4.14-5.79-8.93-7.15-14.15-5.51-1.39-10.58-4.02-14.85-7.75-5.37-4.69-7.05-8.79-3.88-15.59,2.47-5.31,6.28-10.64,9.27-15.73.13-.22.65-1,.62-1.17-.08-.11-.31-.15-.44-.15-1.12.03-2.73.45-3.93.58-1.74.19-4.5.54-6.18.3-1.04-.15-1.24-.96-.51-1.69.99-.98,3-1.74,4.25-2.4.17-.22-4.18-1.85-4.62-3.03-.27-.71.32-1.1.97-1.17,1.78-.2,4.37.11,6.19.31,1.17.13,2.73.55,3.83.58.11,0,.42-.05.44-.15l-8.32-13.98c-1.9-3.44-3.96-7.17-2.91-11.25.82-3.19,3.47-5.83,5.93-7.87,4.11-3.41,8.96-5.85,14.15-7.15,1.35-5.22,3.71-10.01,7.15-14.15,2.3-2.76,5.51-5.9,9.3-6.25h1.8ZM50.31,14.8c-1.52-.88-3.03-1.79-4.63-2.52-.95-.43-2.3-1.06-3.29-1.31-.38-.1-1.26-.28-1.61-.25-.41.04-1.16.9-1.48,1.23-1.12,1.14-2.93,2.86-3.85,4.05-.11.14-.23.26-.25.45,1.28.73,1.96,2,2.13,3.43l5.82,1.32,6.05-5.95,1.1-.45ZM92.05,17.04c.13-.13.86-.61.86-.69l-5.09-5.41c-.39-.34-1.04-.2-1.53-.12-.87.15-1.85.59-2.67.93-2.07.84-3.98,1.93-5.9,3.05l.75.19.55.35,5.95,5.92c1.92-.58,3.87-1.04,5.85-1.37-.04-1.05.51-2.13,1.24-2.86ZM55.71,18.4l-5.1-3.3c.33.32.36.66.47,1.08.34,1.37.42,2.92.63,4.32,1.15-.56,2.6-1.1,3.67-1.78.08-.05.38-.25.33-.32ZM77.31,15.2l-5,3.25,4,2.05c.34-1.76.33-3.63,1-5.3ZM64.11,35.1c1.32-2.26,3.3-4.05,5.17-5.85l-1.22-2.15-4.02-2.78-4.1,2.81-1.21,2.12c1.99,1.77,3.78,3.71,5.37,5.85ZM25.31,38.5l.8-.25,11.95-11.85.4-1.01c-3.94-.97-8.29-.65-11.95,1.15-1.82,3.7-2.01,7.95-1.2,11.95ZM102.71,38.5c.9-3.97.65-8.29-1.19-11.95-3.69-1.86-7.9-1.98-11.9-1.25l.35,1,11.85,11.85.9.34ZM16.41,35.1c-.15-.04-.17.04-.25.1-.27.18-.91.83-1.2,1.1-1.39,1.3-2.7,2.7-4.1,4-.08.07-.12.15-.14.26-.29,1.47,1.79,5.73,2.55,7.15.49.91,1.12,1.76,1.55,2.7l.4-1.15,6-6.1-1.3-5.84c-1.46-.03-2.86-.9-3.5-2.2ZM113.11,50.4c1.41-1.99,2.57-4.22,3.45-6.5.43-1.12.89-2.21.75-3.44l-5.54-5.35c-.84,1.3-2.03,2.05-3.57,2.25l-1.37,5.78,5.83,5.86c.32.41.66.86.45,1.4ZM51.21,46.1l6.47-1.14-.27-1.2-3.85-4.75c-.2-.04-.12.04-.17.13-1.17,1.99-1.61,4.75-2.18,6.97ZM76.81,46.1c-.49-2.43-1.02-4.93-2.25-7.1-.51.53-.98,1.09-1.45,1.65-.68.81-2.62,2.98-2.69,3.91,0,.12-.04.25,0,.37l6.39,1.16ZM47.19,47.18l1.7-5.05-.03-.43c-.25-.38-1.16.78-1.41,1-.78.67-2.11,1.49-2.75,2.15-.48.5-1.02,1.41-1.5,2-.27.33-1.46,1.46-1.55,1.65-.12.26-.06.54.27.48l5.25-1.81ZM79.26,41.6c-.14.04-.19.29-.13.42l1.77,5.13,5.18,1.83c.2.05.49-.16.38-.38-.12-.24-1.18-1.22-1.45-1.55-.55-.66-1.14-1.63-1.7-2.2s-1.58-1.19-2.25-1.75c-.47-.39-.98-1-1.45-1.35-.11-.08-.19-.19-.35-.15ZM50.71,50.7v2.95s.13.34.15.45c.44-.55,1.27-.91,1.74-1.36.52-.5.96-1.41,1.51-1.94l-3.4-.1ZM77.41,50.7h-2.65l-.75.25c.56.46.91,1.21,1.39,1.71s1.28.87,1.75,1.44c.14-.09.14-.19.16-.34.11-1.01.09-2.04.09-3.06ZM109.71,55.7l3.2-5c-.39.33-.9.37-1.38.47-1.27.26-2.63.4-3.92.53-.07.06.52,1.34.61,1.54.29.6.83,1.72,1.17,2.23.09.13.11.27.32.23ZM18.51,55.8l2-3.95-5.3-1.05,3.3,5ZM46.11,51.3c-.3-.22-6.51,1.49-7.1,2.25.33.34.69.64,1.05.95.69.59,3.38,2.89,4.02,3.08.12.03.89.16.92.13.2-2.16.47-4.33,1.1-6.4ZM83.01,57.7l1.29-.26,4.81-3.89c.01-.46-6.26-2.33-7.1-2.25.47,2.11.94,4.23,1,6.4ZM35.11,64.1c-2.18-1.52-4.07-3.34-5.86-5.28l-2.18,1.19-2.76,4.04,2.73,4.02,2.14,1.22c1.01-.83,1.84-1.94,2.83-2.84s2-1.68,3.1-2.35ZM98.78,58.81c-1.76,1.92-3.62,3.75-5.77,5.24,1.9,1.3,3.5,2.86,5.1,4.5.18.19.48.76.75.75.12,0,2-1.1,2.15-1.25l2.77-4-2.77-4-2.23-1.24ZM65.78,65.77c.12-.12.89-.97.91-1.04.06-.19.06-1.17,0-1.36-.04-.13-1.75-1.86-1.88-1.92-.3-.13-1.29-.13-1.6,0-.12.05-1.8,1.73-1.85,1.85-.09.21-.09,1.29,0,1.5.05.12,1.73,1.8,1.85,1.85.19.09,1.32.09,1.53.03.07-.02.91-.79,1.04-.91ZM45.01,70.4s-.81.09-.92.13c-.6.18-2.79,2.05-3.42,2.58-.56.47-1.12.94-1.65,1.45.61.74,6.8,2.47,7.1,2.25-.62-2.08-.91-4.24-1.1-6.4ZM82.01,76.8c.83.08,7.11-1.79,7.1-2.25l-4.81-3.89-1.29-.26c-.07,2.17-.54,4.29-1,6.4ZM15.21,77.3l5.3-1.05-2-3.95-3.3,5ZM109.71,72.4c-.14-.03-.16.01-.24.1-.16.17-.84,1.56-1.01,1.89-.13.25-.97,1.88-.85,2,1.3.12,2.73.26,4.02.53.47.1.9.14,1.28.47l-3.2-5ZM50.71,74.45c-.11.91.08,2.01,0,2.95l3.4-.1c-.55-.52-.99-1.44-1.51-1.94-.47-.45-1.29-.83-1.74-1.36-.03.13-.13.33-.15.45ZM77.41,77.4c0-1.01,0-2.05-.1-3.06-.02-.15-.01-.25-.16-.34-.48.57-1.24.93-1.75,1.44s-.83,1.24-1.4,1.7c-.04.23.1.13.25.15,1.05.11,2.09.13,3.15.1ZM19.91,90.8l1.29-5.93-5.98-6.02-.4-1.15c-.59,1.17-1.35,2.24-1.94,3.41-.63,1.24-2.51,5.29-2.14,6.52l5.53,5.37.78-.96c.79-.74,1.75-1.23,2.86-1.24ZM108.23,90.78c1.54.1,2.71.94,3.53,2.21l5.53-5.26c.18-1.26-.3-2.39-.73-3.53-.87-2.28-2.05-4.47-3.4-6.5.1.58-.15.96-.5,1.4l-5.83,5.86,1.39,5.82ZM47.19,80.92l-5.25-1.81c-.33-.06-.4.22-.27.48.09.2,1.36,1.41,1.65,1.75.48.58.97,1.44,1.46,1.94s1.4,1.03,1.99,1.51c.31.26,1.73,1.67,1.92,1.69.27,0,.27-.31.21-.51l-1.7-5.05ZM86.09,79.12l-5.18,1.83-1.75,5.05c-.13.37.03.65.41.41.36-.22,1.1-1.07,1.5-1.4.66-.55,1.71-1.18,2.25-1.75s1.15-1.54,1.7-2.2c.28-.33,1.33-1.31,1.45-1.55.11-.22-.16-.41-.38-.38ZM53.41,89.1c.12.09.59-.53.7-.65.77-.89,2.83-3.19,3.3-4.1.21-.4.17-.79.27-1.2l-6.47-1.14c.5,2.43,1.14,4.85,2.2,7.1ZM76.81,82c-2.1.48-4.23.99-6.4,1-.02.45.03.91.23,1.32.36.72,1.87,2.41,2.47,3.13.47.56.94,1.13,1.45,1.65,1.19-2.19,1.77-4.66,2.25-7.1ZM25.31,89.6c-.55,2.85-.67,5.88.03,8.72.27,1.11.72,2.18,1.17,3.23,3.67,1.81,7.93,2.06,11.9,1.21.16-.12.05-.12.01-.22-.09-.27-.2-.61-.36-.84l-11.95-11.85-.8-.25ZM102.71,89.6l-.9.35-11.85,11.85-.35,1c4.01.74,8.21.6,11.9-1.25,1.84-3.67,2.1-7.99,1.19-11.95ZM59.94,100.97l4.1,2.81,4.02-2.78,1.22-2.15c-1.9-1.8-3.81-3.62-5.22-5.85-1.54,2.13-3.31,4.08-5.3,5.8l1.18,2.17ZM50.31,113.2c-.4.05-.74-.05-1.05-.3l-6.1-6.06-5.83,1.38c-.19,1.43-.85,2.7-2.13,3.43,0,.34,1.71,1.88,2.05,2.25.72.77,1.42,1.59,2.15,2.35.83.87.92,1.19,2.24,1.04,1.49-.17,4.82-1.81,6.23-2.57l2.43-1.52ZM90.81,108.2l-5.9-1.35-5.8,5.8c-.39.31-.79.56-1.3.6,1.97,1.31,4.08,2.45,6.3,3.3,1.15.44,2.26.93,3.53.73l5.27-5.53c-1.15-.87-2.16-2-2.1-3.55ZM55.71,109.5l-4-1.9c-.31,1.76-.23,3.83-1.1,5.4l5.04-3.29.06-.21ZM76.31,107.6c-1.12.54-2.33,1.02-3.4,1.65-.12.07-.56.25-.5.4l4.9,3.25c-.66-1.67-.66-3.54-1-5.3Z"/>
</svg>