<?xml version="1.0" encoding="UTF-8"?>
<svg id="Layer_1" data-name="Layer 1" xmlns="http://www.w3.org/2000/svg" viewBox="0 0 117.52 131.04">
  <path fill="#FFFFFF" d="M38.32,131c-8.19-.66-9.8-7.42-11.57-14.08-3.31-12.41-5.47-26.45-10.81-38.09-.92-2.01-2.13-3.56-3.1-5.4-.65-1.25-.54-1.34.2-2.46,1.8-2.73,4.31-4.79,5.9-7.7,8.39-15.33.55-30.69-3.74-45.69-.23-.79-.91-2.87-.38-3.53.63-.77,1.72.33,2.2.8,2.14,2.05,5.68,6.47,7.18,9.02,1.71,2.91,2.99,8.28,3.97,11.63,2.08,7.09,3.75,16.08,7.61,22.29,2,3.22,4.59,6.33,7.79,8.41.34.22,1.4.9,1.7,1,.07.02.17.02.15-.05-2.45-4.81-3.38-10.28-3.99-15.61s-1.06-11.78-.51-17.29c.24-2.45.82-4.9,1.8-7.15h-1.75c-.86,0-1.76-1-2.3-1.6-1.08-1.2-2.22-2.8-3.19-4.11-.61-.83-1.81-2.24-2.2-3.1-.57-1.23.41-1.67,1.49-1.69l48.56.05c1.01.16,1.35.7.98,1.69-1.71,2.21-3.29,4.78-5.13,6.87-.57.65-1.71,1.9-2.6,1.9h-1.65c.8,2.15,1.43,4.36,1.7,6.65.56,4.87.25,10.41-.2,15.3-.59,6.32-1.51,12.07-4.12,17.88-.04.08-.17.21-.03.27,4.7-2.43,8.18-6.74,10.67-11.33,1.59-2.95,2.47-6.35,3.43-9.57,1.95-6.56,3.51-13.78,5.98-20.12.99-2.54,2.57-4.53,4.24-6.66,1.18-1.51,3.26-4.27,4.74-5.36.39-.29,1.26-.62,1.53-.02.36.78-.17,2.44-.4,3.25-1.16,4.16-2.85,8.33-4.08,12.52-3.33,11.36-5.74,22.48.33,33.47,1.61,2.92,4.17,4.98,5.96,7.74.72,1.11.68,1.27.04,2.42-1.04,1.87-2.17,3.37-3.1,5.4-5.29,11.55-7.44,25.47-10.71,37.79-1.79,6.74-3.37,13.62-11.67,14.28h-4l-4.12-.53c-4.32-.8-8.51-2.35-12.25-4.65-3.87,2.19-8,3.91-12.42,4.65l-4.12.53c-1.3-.08-2.71.1-4,0ZM49.2,27.13c-.7.13-1.16.37-1.27,1.13-.18,1.34.04,2.95.09,4.29.24,6.3.91,12.71,2.23,18.87.93,4.35,2.28,8.89,5.42,12.18.23.24,1.43,1.39,1.65,1.45.18.05,1.22.14,1.46.14.42,0,1.01-.18,1.48-.12,5.08-3.9,6.57-10.55,7.64-16.56,1-5.66,1.72-12.13,1.84-17.86.03-1.46.38-3.56-1.65-3.56l-18.88.03ZM31.9,57.52l-.48-.02c-.03,6.3-2.14,12.36-4.87,17.93,3.25,10.88,4.08,22.36,6.72,33.37.55,2.3,2.13,7.81,3.85,9.35,2.4,2.15,8.12,1.91,11.14,1.54.76-.09,1.51-.25,2.26-.39-6.8-7.65-12.51-17.48-13.1-27.94-.17-2.95,0-6.05.67-8.94.74-3.17,2.11-6.16,3.91-8.85-.02-.29-1.17-1.26-1.43-1.57-3.67-4.17-6.35-9.47-8.67-14.48ZM67.02,119.3c2.51.47,5.09.73,7.65.61,1.82-.09,4.12-.45,5.59-1.61,2.16-1.7,3.8-8.38,4.4-11.1,2.33-10.54,3.33-21.38,6.35-31.77-2.36-4.98-4.41-10.32-4.8-15.89-.03-.38.12-1.95-.16-2.04l-.34.04c-2.72,5.7-5.66,11.49-10.18,16,3.44,4.87,4.91,10.85,4.69,16.81-.19,5.05-1.4,9.75-3.49,14.31-2.43,5.31-5.72,10.39-9.72,14.63ZM51.49,79.12c-7.04,6.17-7.12,16.52-4.52,24.89,1.57,5.06,4.94,9.66,9.75,12.05.46.23,1.79.89,2.23.83.64-.09,2.73-1.24,3.37-1.64,7.54-4.68,10.49-15.05,9.81-23.49-.38-4.72-2.4-9.49-6-12.6-.21-.1-1.56.22-1.95.25-1.26.11-2.44.1-3.7,0-.51-.04-1.23-.29-1.69-.29s-1.19.24-1.71.29c-1.25.11-2.44.11-3.7,0-.62-.06-1.25-.25-1.88-.28Z"/>
  <path fill="#FFFFFF" d="M.02,72.4c-.03-.23-.03-.67,0-.9.63-5.6,9.25-5.33,9,.65-.23,5.55-8.39,5.52-9,.25Z"/>
  <path fill="#FFFFFF" d="M117.52,71.2v1.5c-1.34,5.47-9.34,4.66-8.9-1.25.34-4.56,6.42-5.42,8.46-1.55l.45,1.3Z"/>
  <path fill="#FFFFFF" d="M52.2.03l20.47-.03,2.69.11c2.68.37,5.73,0,8.39.31.68.08,1.12.41,1.33,1.07s.21,3.14.12,3.86c-.14,1.07-.93,1.56-1.94,1.66-3.75.36-8,.23-11.8.3-11.2.19-22.49.09-33.69-.3-1.31-.05-5.06.29-5.35-1.55-.09-.6-.09-3.08.02-3.67.04-.21.19-.51.34-.66.96-1.04,4.29-.67,5.69-.71,4.57-.11,9.16-.27,13.73-.37Z"/>
</svg>