<?xml version="1.0" encoding="UTF-8"?>
<svg id="Layer_1" data-name="Layer 1" xmlns="http://www.w3.org/2000/svg" viewBox="0 0 135.01 135.4">
  <path fill="#FFFFFF" d="M35.21,0c.41.44.72.91,1.02,1.43,4.06,7.07,6.42,15.19,14.45,18.95,2.59,1.22,3.98,1.06,6.67,1.43.39.05,1.63.2,1.87.43s.78,2.87.99,3.51c1.3,3.9,4.58,9.86,6.96,13.24.1.14.19.41.39.41,2.47-4.28,5.39-8.56,7.05-13.25.4-1.11.54-2.52.92-3.48.26-.65.71-.66,1.34-.76,2.24-.38,3.95-.18,6.19-1.01,8.97-3.32,11.41-12.15,15.73-19.57.28-.48.57-.99,1.02-1.33h.3c.56.43.43,1.48.4,2.15-.2,4.05-.86,6.2-2.68,9.72-2.62,5.05-7.06,10.93-7.42,16.68-.06.99,0,3.83.45,4.66.03.05.12.13.15.1,1.39-4.02,4.33-7.66,7.15-10.8,2.2-2.46,4.64-4.81,7.65-6.25-.57-.56-.91-.73-.94-1.6-.05-1.25.32-3.59.57-4.87.11-.56.19-1.39.98-1.14l19.75,19.65c.43.5.33.91-.28,1.12-.87.3-3.62.63-4.61.69-.38.02-1.23.05-1.56-.05-.29-.09-.92-.98-1.09-.86-1.27,3.23-4.12,5.9-6.7,8.15-2.33,2.04-4.81,3.96-7.5,5.5l-2.7,1.25c3.71,1.1,7.89.33,11.3-1.35,3.78-1.86,7.33-4.2,11.1-6.1,2.88-1.46,5.3-1.99,8.55-2.15.71-.03,1.89-.18,2.35.4v.3c-.47.46-.96.79-1.53,1.12-5.75,3.32-12.94,5.66-17.01,11.29-1.25,1.74-2.71,4.43-3.04,6.56-.2,1.35-.06,3.55-.53,4.77-.27.72-1.79.73-2.48.92-3.2.89-6.71,2.76-9.58,4.42-1.55.89-4.01,2.21-5.37,3.23-.09.06-.2.09-.17.23,3.86,2.32,7.66,4.81,11.83,6.57.77.32,1.58.67,2.37.93.67.22,2.79.57,3.15.85s.37.85.43,1.27c.38,2.43.19,4.14,1.17,6.53,3.48,8.55,11.94,11.01,19.22,15.18.55.32,1.11.64,1.53,1.12v.3c-.45.57-1.56.43-2.25.4-4.15-.2-6.23-.91-9.82-2.78-5-2.61-10.79-6.94-16.48-7.32-.96-.06-3.85.01-4.66.45-.05.03-.13.12-.1.15,4.09,1.44,7.81,4.45,11,7.35,2.28,2.07,4.8,4.52,5.9,7.45.17.13.8-.76,1.09-.86.33-.1,1.27-.07,1.66-.05,1.06.06,3.47.36,4.45.65.63.19.81.65.35,1.16l-19.75,19.65c-.48.17-.73-.12-.86-.55-.29-.98-.59-3.39-.65-4.45-.02-.39-.05-1.33.05-1.66.08-.27.99-.95.86-1.09-2.96-1.11-5.46-3.68-7.55-6-2.85-3.16-5.84-6.86-7.25-10.9-.03-.03-.12.05-.15.1-.46.82-.51,3.67-.45,4.66.35,5.71,4.8,11.65,7.42,16.68,1.83,3.52,2.49,5.66,2.68,9.72.03.67.16,1.72-.4,2.15h-.3c-.44-.35-.74-.85-1.02-1.33-3.6-6.17-5.92-13.74-12.29-17.81-1.45-.93-3.97-2.2-5.67-2.43-1.38-.19-3.41-.06-4.71-.49-.81-.27-.83-1.9-1.04-2.66-1.21-4.24-4.92-10.97-7.49-14.61-.03-.05-.13-.21-.18-.17-2.43,4.38-5.43,8.66-7.1,13.45-.23.66-.84,3.51-1.05,3.75s-.89.34-1.21.39c-2.1.35-3.79.18-5.89.91-9.09,3.18-11.61,12.1-15.93,19.57-.31.53-.6,1.08-1.12,1.43h-.3c-.09-.16-.26-.25-.3-.45-.28-1.49.39-6.48.92-7.97.43-1.21,1.25-2.59,1.86-3.74,2.75-5.22,7.09-10.94,7.32-16.98.05-1.39-.21-2.81-.51-4.15-.31.3-.4.86-.58,1.27-1.48,3.27-4.09,6.56-6.47,9.23-2.22,2.49-4.72,5.11-7.85,6.4-.09.13.76.89.85,1.19s.06.91.04,1.25c-.06,1.11-.4,3.77-.71,4.79-.27.9-.92.54-1.44.06-6.42-6.54-13.08-12.88-19.37-19.53-.21-.52.2-.69.62-.82.98-.29,5.16-.85,6.03-.62.33.08.96.87,1.02.87,1.44-3.16,3.99-5.67,6.55-7.95s5.48-4.52,8.57-6.13l1.94-.81c-3.3-.97-7.49-.48-10.6.95-3.88,1.79-7.66,4.34-11.5,6.3-3.19,1.63-5.51,2.19-9.15,2.35-.45.02-1.71.1-1.96-.25-.43-.61.62-1.12,1.04-1.37,1.93-1.19,4.39-2.16,6.43-3.27,5.87-3.18,12.62-7.42,13.91-14.59.17-.94.22-4.85.77-5.33,1.2-.41,2.39-.57,3.61-.99,4.21-1.45,9.62-4.56,13.34-7.06.08-.06.57-.36.51-.44-3.49-1.95-6.82-4.19-10.46-5.89-1.41-.66-3.02-1.37-4.51-1.79-.51-.14-2.17-.36-2.48-.62-.53-.46-.6-4.39-.77-5.33-1.27-7.1-7.9-11.33-13.71-14.49-2.13-1.16-4.6-2.15-6.63-3.37-.41-.25-1.46-.79-1.04-1.37.25-.35,1.6-.27,2.06-.25,3.74.17,5.97.77,9.25,2.45,5.17,2.65,11.3,7.29,17.14,7.66,1.6.1,3.22-.06,4.75-.51l-1.94-.81c-2.84-1.49-5.44-3.45-7.87-5.53-2.8-2.41-5.69-5.15-7.25-8.55-.73.98-1.46.96-2.6.9s-3.42-.36-4.45-.65c-.94-.26-.76-.8-.2-1.41L28.51,8.65c.43-.15.72,0,.87.42.3.87.67,3.87.73,4.87.02.38.04.87-.07,1.23-.15.53-.67.74-.83,1.22,3.1,1.23,5.66,3.94,7.85,6.4,2.4,2.69,4.98,5.94,6.47,9.23.18.41.27.97.58,1.27.29-1.35.56-2.76.51-4.15-.26-6.51-5.41-12.99-8.26-18.74-.35-.7-.82-1.62-1.05-2.35-.44-1.42-1.05-6.23-.8-7.6.04-.2.21-.29.3-.45h.4ZM26.98,18.72c-.17.02-.43.22-.58.33-2.17,2.51-5.22,4.77-7.3,7.3-.85,1.03-.07,1.45.7,2.2,3.03,2.95,10.04,8.65,14.04,9.66.68.17,2.9.49,3.46.24.07-.03,1.02-.98,1.05-1.05.24-.54.12-1.82.04-2.43-.59-4.35-6.68-11.81-9.79-15.01-.32-.34-1.16-1.3-1.63-1.23ZM107.78,18.72c-.16.03-.69.44-.83.58-2.26,2.17-4.92,5.58-6.73,8.17-1.99,2.85-4.1,6.1-3.7,9.76l1.18,1.22c3.43.46,6.52-1.43,9.23-3.27,2.55-1.73,5.43-4.01,7.67-6.13.37-.35,1.71-1.55,1.67-1.99-.02-.17-.21-.43-.32-.57-2.02-2.59-5.4-4.97-7.55-7.55-.18-.17-.37-.28-.63-.23ZM54.78,29.13c-3.23-.95-5.87-2.49-8.43-4.62-.09-.08-.68-.58-.75-.5.28,1.25.79,2.46,1.15,3.7.64,2.24,1.17,4.55,1.15,6.9,6.08,1.01,10.68,6.12,12.77,11.68.35.92.57,2.03.92,2.88.04.1.07.23.21.24l2.86-5.41c-3.21-5.01-7.01-9.63-9.88-14.87ZM89.31,24c-.14-.11-.71.57-.85.7-2.42,2.07-5.25,3.41-8.24,4.46-2.98,5.17-6.66,9.88-9.96,14.85l2.95,5.5,1.02-3.12c2.06-5.58,6.7-10.71,12.77-11.78.15-.57.05-1.17.11-1.74.2-1.91.71-3.82,1.25-5.65.25-.86.85-2.1,1-2.89.02-.11-.05-.2-.05-.31ZM58.48,58.57c1.72-3.68,1.03-7.53-.99-10.9-2.24-3.73-5.85-7.02-10.43-7.18-.96-.03-.95.53-1.5,1.11-.91.97-1.88,1.85-2.8,2.8-.68.7-1.36,1.45-2.23,1.92-.35,5.08,3.46,9.19,7.61,11.5,3.29,1.83,6.81,2.29,10.34.76ZM88.68,40.63c-.52-.37-2.78.15-3.45.34-4.8,1.42-9.44,7.5-9.73,12.47-.06.96.26,4.59,1.07,5.14.29.2,1.39.53,1.78.62,3.15.74,5.96.05,8.69-1.53,4.06-2.35,7.73-6.29,7.37-11.31-.68-.51-1.38-1.04-1.95-1.67-.33-.36-.62-.91-.96-1.24-.53-.52-1.22-.9-1.79-1.51-.24-.26-.86-1.21-1.03-1.32ZM34.5,47.91c-3.63.06-7.09-1.2-10.49-2.31-.03.16.01.23.09.35.32.49.96,1.04,1.35,1.55,1.69,2.25,2.73,4.77,3.75,7.35,5.24,2.96,9.95,6.74,14.98,10.03l.36-.09c1.77-.98,3.49-2.26,5.46-2.79-.02-.15-.15-.15-.26-.19-1.06-.39-2.27-.62-3.37-1.03-5.7-2.11-10.73-6.68-11.89-12.86ZM85.01,62c1.97.63,3.73,1.82,5.5,2.86.26.09.55-.18.79-.32,2.85-1.62,5.78-4.09,8.54-5.96,1.94-1.32,3.92-2.59,5.97-3.73.98-2.65,2.11-5.3,3.86-7.54.19-.24,1.36-1.46,1.34-1.56-.02-.09-.2-.2-.3-.11-3.28,1.17-6.76,2.33-10.29,2.26-1.08,6.43-6.49,11-12.38,13.07-.89.31-1.94.5-2.77.83-.1.04-.24.04-.26.19ZM67.38,59.92c-1.65,1.01-3.48,1.64-5.32,2.18-.57,1.93-1.22,3.86-2.31,5.55,1.03,1.77,1.77,3.68,2.31,5.65,1.92.5,3.71,1.31,5.48,2.18,1.66-1.02,3.53-1.61,5.37-2.22.52-1.96,1.31-3.81,2.27-5.59-1.02-1.72-1.73-3.6-2.27-5.52-1.02-.41-2.09-.67-3.1-1.1-.83-.34-1.61-.82-2.43-1.13ZM50.01,73.4c-1.98-.56-3.74-1.82-5.5-2.85h-.39c-5,3.29-9.69,7.04-14.91,9.99-1.03,2.56-2.07,5.11-3.75,7.35-.19.25-1.47,1.62-1.44,1.76.04.19.18.09.27.08.85-.15,2.22-.78,3.15-1.05,2.27-.66,4.59-1.22,6.98-1.22l.17-.23c1.12-5.92,6.07-10.4,11.5-12.5,1.18-.45,2.39-.72,3.58-1.12.11-.04.36-.06.35-.2ZM85.01,73.4c.01.15.15.16.25.19,4.17,1.52,6.57,1.91,10.05,5.05,2.69,2.42,4.39,5.25,5.19,8.81,3.52.05,6.93,1.1,10.2,2.3.11.09.29-.02.3-.11.03-.13-1.4-1.64-1.64-1.96-1.59-2.16-2.63-4.64-3.56-7.14-5.24-2.92-9.92-6.7-14.93-9.98l-.37-.04c-1.77,1.04-3.53,2.23-5.5,2.86ZM58.48,76.83c-3.52-1.58-7.05-1.06-10.34.76-4.1,2.26-7.98,6.4-7.58,11.42.8.6,1.5,1.28,2.2,2,.95.98,1.96,1.9,2.9,2.9.45.48.46,1,1.3,1,4.8.02,8.84-3.98,10.97-7.93,1.69-3.14,2.13-6.86.56-10.14ZM94.39,89.08c.42-4.51-2.64-8.26-6.16-10.64-2.74-1.86-5.68-2.93-9.05-2.42-.55.08-2.44.55-2.75.95-.45.58-.88,2.82-.92,3.58-.35,6.35,5.82,14.29,12.46,14.36.94,0,1.04-.7,1.59-1.3.62-.68,1.43-1.13,1.99-1.71.27-.27.57-.82.86-1.14.58-.64,1.24-1.22,1.98-1.67ZM54.78,106.27c2.87-5.23,6.67-9.86,9.89-14.87v-.2c-1.04-1.7-2.22-3.42-2.86-5.3-.14-.01-.16.24-.2.35-.32.95-.57,1.93-.92,2.88-2.09,5.57-6.7,10.64-12.77,11.68.03,2.19-.46,4.33-1.03,6.42-.38,1.41-.92,2.78-1.27,4.18.17.05.2-.07.3-.15.67-.51,1.25-1.12,1.97-1.63,2.05-1.47,4.51-2.57,6.91-3.34ZM87,100.81c-6.06-1.09-10.7-6.2-12.76-11.79l-1.02-3.12-2.97,5.45c3.26,4.98,7,9.65,9.93,14.84,2.95,1.09,5.77,2.36,8.19,4.41.15.13.81.91.95.8,0-.11.07-.19.05-.31-.15-.79-.74-2.03-1-2.89-.54-1.84-1.04-3.74-1.25-5.65-.06-.57.05-1.17-.11-1.74ZM35.19,96.93c-4.38.41-12.13,6.77-15.33,9.87-.78.76-1.6,1.22-.75,2.25,2.08,2.53,5.13,4.79,7.3,7.3.81.83,1.57-.25,2.15-.85,3.13-3.21,9.28-10.77,9.85-15.15.08-.6.19-1.81-.05-2.35-.04-.09-1.03-1.06-1.12-1.08-.35-.1-1.62-.03-2.05,0ZM97.78,96.92l-1.25,1.25c-.42,4.05,2.21,7.76,4.5,10.86,1.64,2.22,4.08,5.37,6.09,7.21.56.51.77.6,1.39.11,2.55-1.98,4.9-5.34,7.45-7.45.25-.32.42-.53.22-.93-.16-.32-1.34-1.41-1.68-1.73-1.95-1.84-4.38-3.77-6.57-5.33-2.95-2.11-6.35-4.4-10.16-4Z"/>
  <path fill="#FFFFFF" d="M3.78,110.62c.45-.12.82.01,1.18.28,1.71,1.25,3.27,3.39,5,4.7,2.28,2.32,4.57,4.64,6.84,6.96s5.11,4.88,7.15,7.35c1.12,1.35.88,1.99-.45,3.05-.54.43-.7.57-1.37.27-.9-.42-3.83-3.62-4.78-4.52-5.29-5.04-10.55-10.14-15.41-15.59-.43-.63,1.43-2.38,1.83-2.48Z"/>
  <path fill="#FFFFFF" d="M22.59,2.02c.57-.07,1.94,1.27,2.08,1.78.18.68-.39,1.32-.8,1.8-2.23,2.62-5.2,5.46-7.65,7.95-1.44,1.46-2.94,2.85-4.41,4.29-1.83,1.8-3.59,3.68-5.5,5.4-.62.56-1.59,1.7-2.43,1.53-.54-.11-2.63-2-1.77-2.73C8.52,15.17,15.21,8.52,22.14,2.18c.14-.05.3-.15.44-.17Z"/>
  <path fill="#FFFFFF" d="M18.28,70.72c2.88-.48,4.39,2.77,2.17,4.47-1.69,1.3-4.05.04-4.06-2.05,0-1.02.84-2.25,1.88-2.43Z"/>
  <path fill="#FFFFFF" d="M18.38,59.72c3.95-.67,4.21,5.52.08,4.97-2.7-.36-2.68-4.53-.08-4.97Z"/>
  <path fill="#FFFFFF" d="M115.38,70.72c2.89-.49,4.26,2.81,2.17,4.47-1.85,1.47-4.36-.2-4.04-2.54.11-.81,1.06-1.8,1.87-1.93Z"/>
  <path fill="#FFFFFF" d="M115.48,59.72c3.03-.52,4.17,3.49,1.73,4.73-1.15.59-2.62.2-3.35-.86-.95-1.39-.05-3.58,1.62-3.87Z"/>
  <path fill="#FFFFFF" d="M61.69,113.93c2.82-.41,4.11,3.03,1.96,4.56-1.81,1.28-4.36-.28-3.99-2.49.16-.94,1.07-1.93,2.03-2.07Z"/>
  <path fill="#FFFFFF" d="M72.18,113.92c4.05-.68,4.21,5.54.08,4.97-2.64-.37-2.56-4.55-.08-4.97Z"/>
  <path fill="#FFFFFF" d="M61.58,16.52c4.17-.7,4.04,5.58.1,4.95-2.63-.42-2.74-4.51-.1-4.95Z"/>
  <path fill="#FFFFFF" d="M72.18,16.52c3.71-.63,4.12,4.45,1.15,4.95-3.56.6-4.06-4.46-1.15-4.95Z"/>
  <path fill="#FFFFFF" d="M130.48,110.62c.29-.07.6-.05.87.09.4.21,2.25,1.97,1.56,2.54-5.92,6.36-12.02,12.59-18.4,18.5-.43.4-1.65,1.61-2.16,1.65s-1.96-1.4-2.08-1.82c-.13-.46.21-.94.44-1.33,6.22-6.19,12.18-13.15,18.8-18.9.19-.17.77-.68.97-.73Z"/>
  <path fill="#FFFFFF" d="M112.08,2.02c.42-.09.82.18,1.13.43,6.1,5.78,12.18,11.56,17.85,17.75.46.5,2.09,1.87,2.01,2.5-.06.46-1.58,2.02-2.01,2.09-.23.04-.5.02-.72-.07-4.62-4.2-9.07-8.6-13.43-13.07-1.87-1.92-4.49-4.35-6.09-6.41-.31-.39-.71-1-.51-1.5.11-.27,1.52-1.68,1.78-1.73Z"/>
</svg>