<?xml version="1.0" encoding="UTF-8"?>
<svg id="Layer_1" data-name="Layer 1" xmlns="http://www.w3.org/2000/svg" viewBox="0 0 133.61 131.47">
  <path d="M49.5.06s.11.1.24.1c1.63.04,3.62-.06,5.21.1.49.05.96.2,1.05.75.06.4.06,1.79,0,2.19-.05.33-.39.69-.71.79-8.45.39-16.99.38-25.43.06-.92-.03-3.45.29-3.79-.81-.12-.41-.13-1.97.05-2.32.24-.48.94-.62,1.44-.66,2.65-.24,5.89-.05,8.61-.09.18,0,.32-.11.34-.11C40.78,0,45.23-.04,49.5.06Z"/>
  <path d="M97.1.06s.16.1.34.11c2.71.04,5.97-.14,8.61.09.34.03,1.03.17,1.28.39.38.34.35,2.11.21,2.59-.34,1.11-2.87.78-3.79.81-7.71.29-15.48.25-23.2.11-.78-.27-2.32.22-2.79-.61-.21-.38-.23-2.07-.15-2.54.09-.56.56-.71,1.05-.75,1.58-.16,3.57-.06,5.21-.1.13,0,.23-.1.24-.1C88.38-.04,92.83,0,97.1.06Z"/>
  <path d="M0,91.86v-2.9c.17-.1.1-.38.1-.55,0-.77,0-1.54,0-2.3,0-.17.06-.44-.1-.55,0-.56-.01-1.14,0-1.7.02-1.1.16-2.32.2-3.45.05-1.3-.07-2.94.1-4.2.02-.12.14-.45.22-.53.35-.35,2.72-.33,3.12-.03.34.25.42,1.04.45,1.45.14,1.88.07,3.91.09,5.81.08,5.53.03,11.05-.1,16.59-.04,1.49.14,3.25-.11,4.69s-1.26,1.38-2.54,1.26c-.89-.08-1.08-.51-1.15-1.35-.19-2.23-.04-4.75-.09-7.01-.04-1.72-.18-3.54-.2-5.25Z"/>
  <path d="M133.6,91.96c-.02,1.48-.06,3.05-.1,4.55-.06,2.41,0,5.24-.2,7.6-.07.84-.26,1.27-1.15,1.35-1.25.12-2.33.18-2.54-1.26-.23-1.53-.07-3.24-.11-4.79-.16-6.81-.27-13.59,0-20.39.03-.81-.25-3.11.64-3.46.49-.19,3.03-.35,3.11.5.18,2.49.19,4.97.25,7.46,0,.13.1.23.1.24v1.8c-.17.1-.1.38-.1.55,0,.73,0,1.47,0,2.2,0,.17-.06.44.1.55,0,1.03.01,2.07,0,3.1Z"/>
  <path d="M39.7,131.46c-1.51-.02-3.12-.06-4.65-.1-2.44-.06-5.3,0-7.7-.2-.84-.07-1.27-.26-1.35-1.15-.07-.75-.16-1.94.57-2.34.37-.21,1.42-.29,1.88-.32,3.26-.19,6.73-.07,10.01-.09,5.26-.04,10.64-.29,15.9.09.41.03,1.2.12,1.45.45.3.4.32,2.77-.03,3.12-.08.08-.41.2-.53.22-1.26.18-2.9.05-4.2.1-1.12.05-2.35.18-3.45.2h-1.7c-.1-.17-.38-.1-.55-.1-.8,0-1.6,0-2.4,0-.17,0-.44-.06-.55.1-.9,0-1.8.01-2.7,0Z"/>
  <path d="M93.9,131.46h-2.7c-.1-.17-.38-.1-.55-.1-.8,0-1.6,0-2.4,0-.17,0-.44-.06-.55.1-.56,0-1.14.01-1.7,0-1.1-.02-2.32-.16-3.45-.2-1.3-.05-2.94.07-4.2-.1-.12-.02-.45-.14-.53-.22-.35-.35-.33-2.72-.03-3.12.25-.34,1.04-.42,1.45-.45,5.26-.38,10.64-.13,15.9-.09,3.28.02,6.75-.09,10.01.09.47.03,1.51.11,1.88.32.73.4.64,1.59.57,2.34-.08.89-.51,1.08-1.35,1.15-2.23.19-4.75.04-7.01.09-1.76.04-3.61.18-5.35.2Z"/>
  <path d="M133.6,47.66s-.1.11-.1.24c-.06,2.47-.09,4.93-.2,7.4-.14.91-1.75.82-2.44.75-1.19-.12-1.28-.68-1.36-1.74-.37-5.23-.13-10.57-.09-15.8.02-3.28-.09-6.74.09-10.01.02-.38.07-1.02.13-1.37.04-.26.27-.77.48-.92.35-.26,2.56-.26,2.87.08.53.59.3,2.59.33,3.42.11,3.26.26,6.6.3,9.85v3c-.17.1-.1.38-.1.55,0,.73,0,1.47,0,2.2,0,.17-.06.44.1.55,0,.6.01,1.2,0,1.8Z"/>
  <path d="M0,47.66v-1.8c.17-.1.1-.38.1-.55,0-.77,0-1.54,0-2.3,0-.17.06-.44-.1-.55,0-.93-.01-1.87,0-2.8.04-3.25.2-6.58.3-9.85.03-.83-.33-3.55.75-3.75.32-.06,1.75-.05,2.09,0,.22.03.36.13.5.3.36.44.43,1.56.46,2.14.18,3.23.07,6.66.09,9.91.04,5.19.31,10.83-.1,15.99-.08,1.03-.21,1.54-1.35,1.65-.54.05-1.72.07-2.15-.25-.49-.37-.27-1.5-.3-2.1-.1-2-.26-4.08-.3-6.05Z"/>
  <path d="M65.98,7.99c.34.35-.08,1.64-.2,2.1-1.74,6.49-5.09,13.06-4.06,20.01.33,2.24,1.27,5.15,2.6,7,.72,1,1.81,1.85,2.38,2.97l.21-.06c.61-1.05,1.63-1.89,2.33-2.84,5.91-8.05,1.12-18.34-1.27-26.61-.15-.52-.72-2.16-.35-2.55.56-.31,1.25.49,1.63.87,1.05,1.08,2.68,3.14,3.49,4.41.91,1.41,1.48,3.68,1.98,5.32,1.08,3.49,1.87,7.09,3.05,10.55,1.23,3.64,3.65,7.15,7.08,9.02l-.98-2.72c-.85-3.05-1.27-6.26-1.47-9.43-.22-3.53-.26-7.21,1-10.55-1.11.12-1.54-.13-2.25-.9s-2.5-3.04-2.97-3.93c-.53-1,.23-1.12,1.07-1.17h26.71c.74.05,1.55.16,1.08,1.09-.39.79-2.01,2.81-2.64,3.56-.81.95-1.29,1.57-2.7,1.35.41.91.7,1.9.87,2.88.47,2.67.34,5.86.13,8.57-.12,1.52-.38,3.03-.5,4.55,5.18-.63,10.9-1.48,15.9.4-.04-.96.12-1.5.8-2.15.56-.53,3.65-2.95,4.23-3.17.37-.14.74-.16.88.26l.05,28.36c-.18.47-.58.49-1.01.3-.63-.27-3.33-2.4-3.94-2.96-.78-.7-1.06-1.13-1-2.25-3.08,1.09-6.4,1.13-9.65,1s-7.28-.6-10.35-1.55c-.89-.27-1.72-.66-2.6-.95.82,1.79,2.44,3.37,4.03,4.52,4.48,3.25,11.35,4.25,16.65,5.95,3.22,1.04,4.57,1.78,7.17,3.93.46.38,2.26,1.88,2.35,2.35.13.7-.9,1.55-1.4,2-2.29,2.08-4.37,3.5-7.32,4.48-6.05,2-14.11,3-18.88,7.32-1.08.98-1.96,2.16-2.7,3.4.05.14.2,0,.28-.02.58-.18,1.23-.55,1.84-.76,3.48-1.16,8.25-1.66,11.92-1.78,2.9-.09,5.94.03,8.65,1.1-.14-1.21.43-1.76,1.25-2.5,1.15-1.02,2.57-1.86,3.78-2.82.35-.18.82-.06.91.34l.02,28.29c-.27.55-.59.55-1.09.28-.66-.36-4.47-3.3-4.69-3.81-.15-.36-.16-.98-.18-1.37-.66.16-1.29.43-1.96.59-2.85.68-6.56.53-9.49.31-1.49-.12-2.97-.37-4.45-.5.12,1.49.38,2.96.5,4.45.22,2.72.34,6-.13,8.67-.17.95-.5,1.86-.77,2.78.39.04,1.02.03,1.38.18.51.21,3.51,4.11,3.84,4.76.25.49.19.78-.31,1.03l-28.36-.05c-.4-.17-.41-.59-.23-.95.38-.75,1.75-2.42,2.35-3.15.83-1.02,1.43-1.98,2.94-1.81-.29-.82-.59-1.64-.75-2.5-.49-2.47-.41-5.53-.25-8.05.27-4.13.86-8.34,2.5-12.15-.64.36-1.27.75-1.84,1.2-6.71,5.27-6.46,15.45-9.74,22.66-.61,1.35-3.65,5.31-4.82,6.18-.8.6-1.12.07-.98-.78,2.38-8.33,6.85-17.34,2.99-25.94-.92-2.04-2.28-3.43-3.68-5.13-.13-.03-.17.08-.24.15-.41.39-1.1,1.4-1.5,1.9-5.14,6.47-3.76,13.46-1.62,20.83.71,2.45,1.77,4.97,2.4,7.4.78,3-.76,1.7-1.92.42-2.66-2.93-3.69-4.87-4.88-8.62-1.61-5.11-2.61-11.66-5.69-16.01-1.24-1.76-2.74-3.21-4.63-4.27l.78,2.12c1.11,3.79,1.65,7.97,1.78,11.92.09,2.89-.03,5.95-1.1,8.65,1.31-.11,1.83.46,2.6,1.35.96,1.13,1.8,2.51,2.73,3.68.18.35.06.82-.34.91l-28.29.02c-.54-.29-.54-.5-.3-1.01.33-.67,3.3-4.56,3.83-4.77.35-.14.98-.13,1.38-.18-.53-1.52-.87-3.04-1-4.65-.18-2.15-.07-4.63.1-6.8.12-1.49.38-2.96.5-4.45-1.48.13-2.97.38-4.45.5-2.93.23-6.65.37-9.49-.31-.66-.16-1.3-.43-1.96-.59,0,.41,0,1-.18,1.37-.24.54-4.09,3.51-4.75,3.85-.49.25-.78.19-1.03-.31l.05-28.36c.2-.42.56-.39.94-.22.61.27,3,2.16,3.61,2.69.88.76,1.5,1.3,1.35,2.6.66-.24,1.33-.47,2.02-.63,2.66-.62,5.81-.54,8.53-.37,4.13.27,8.34.86,12.15,2.5-.72-1.3-1.69-2.56-2.8-3.55-4.75-4.23-12.78-5.24-18.78-7.22-2.84-.94-4.41-2.01-6.67-3.93-.38-.32-1.83-1.57-1.98-1.92-.28-.69.31-1.21.77-1.68,1.35-1.37,4.37-3.68,6.13-4.37,7.13-2.82,16.73-3.17,21.92-9.28.27-.32,1.21-1.57,1.3-1.9.06-.21-.11-.16-.23-.13-.66.19-1.53.67-2.29.91-3.09.96-7.18,1.44-10.43,1.57s-6.7.17-9.65-1.1c.07,1.17-.19,1.61-1,2.35-.61.55-3.31,2.68-3.94,2.96-.43.19-.83.17-1.01-.3l-.05-27.86c.07-.72.28-1.06,1.04-.73.69.3,3.54,2.54,4.17,3.13.68.65.84,1.19.8,2.15.78-.28,1.58-.58,2.4-.75,2.37-.49,4.86-.36,7.25-.25,2.09.1,4.19.22,6.25.6-.11-1.52-.38-3.03-.5-4.55-.21-2.71-.34-5.9.13-8.57.17-.98.46-1.97.87-2.88-1.41.22-1.89-.4-2.7-1.35-.41-.48-2.8-3.64-2.8-4,0-.59.8-.63,1.24-.65h26.71c.83.06,1.59.18,1.07,1.17-.47.9-2.24,3.15-2.97,3.93s-1.14,1.02-2.25.9c.17.68.47,1.33.63,2.02,1.09,4.49.26,13.49-1.11,17.96l-.98,2.72c3.43-1.87,5.84-5.38,7.08-9.02,1.57-4.64,2.47-9.82,4.27-14.33.67-1.69,2.95-4.62,4.25-5.95.28-.29,1.23-1.29,1.63-.87ZM35.03,15.68c-.4.71-.14,1.43-.12,2.13.14,4.96.81,14.44,4.2,18.2.22.24.91.95,1.18,1.02.23.06,1.34.07,1.56,0,.12-.04,1.17-1.1,1.32-1.28,3.02-3.57,3.92-13,4.05-17.65.03-.91.35-2.74-.95-2.66-3.37.22-7.08-.28-10.41,0-.29.02-.56.1-.82.23ZM98.58,15.68c-.26-.13-.53-.2-.82-.23-3.33-.28-7.04.22-10.41,0-1.28-.09-.97,1.77-.95,2.66.12,4.59,1.05,14.05,4.01,17.59.16.19,1.24,1.29,1.37,1.33.21.06,1.33.05,1.56,0,.14-.04.35-.23.48-.32,4.05-3.24,4.76-13.98,4.9-18.9.02-.7.27-1.42-.12-2.13ZM43.41,59.16l13.15-2.7c.82-4.54,1.48-9.11,2.74-13.55-1.27-2.77-2.43-5.71-2.69-8.79-.02-.23.1-1.45-.15-1.45-.72,1.16-1.26,2.46-1.93,3.67-1.09,1.94-2.31,3.84-3.9,5.4.35.89.95,1.72,1.33,2.63.68,1.59,1.16,3.52,1.26,5.24.06,1.16-.11,2.3-.1,3.45-4.03.49-7.94-.26-11.34-2.49-1.7,1.72-3.78,3.04-5.9,4.2-.43.23-3.1,1.47-3.17,1.63-.08.2.14.14.25.15,2.09.14,4.15.38,6.12,1.18.4-.1.62-.4,1.03-.53,1.5-.48,2.95.48,3.31,1.95ZM80.5,53.06c.01-1.12-.16-2.23-.1-3.35.09-1.77.56-3.72,1.26-5.34.39-.91.98-1.74,1.33-2.63-1.59-1.57-2.82-3.46-3.9-5.4-.67-1.21-1.2-2.51-1.93-3.67-.25,0-.13,1.22-.15,1.45-.26,3.08-1.41,6.02-2.69,8.79,1.25,4.44,1.92,9.02,2.74,13.55l13.09,2.7c.49-1.47,1.86-2.49,3.44-1.93.3.11.71.52.95.51.27-.01.99-.35,1.35-.45,1.64-.43,3.32-.76,5.02-.73.03-.17-.08-.26-.21-.34-.68-.45-1.91-.88-2.69-1.31-2.21-1.2-4.4-2.53-6.16-4.34-3.38,2.24-7.32,2.97-11.34,2.49ZM15.98,34.88c-.41.09-.45.46-.48.82-.29,3.46.23,7.31,0,10.81-.03.61.76.75,1.25.75,4.54,0,13.74-.93,17.66-3.15.49-.28,2.45-1.78,2.58-2.22.14-.5.09-1.61-.23-2.03-2.17-2.94-8.19-3.93-11.62-4.38-2.18-.29-4.49-.54-6.68-.62-.6-.02-1.96-.09-2.48.03ZM114.88,34.89c-2.53.1-5.31.39-7.81.79-3.12.49-8.24,1.5-10.22,4.18-.31.42-.37,1.53-.23,2.03.03.11,1.1,1.17,1.28,1.32,3.66,3.09,13.71,3.93,18.45,3.95.52,0,1.28.26,1.68-.32l.03-11.48c-.04-.12-.06-.25-.16-.34-.29-.28-2.48-.14-3.02-.12ZM72.92,60.64c-.96-4.04-1.83-8.13-3.19-12.06-.61-1.75-1.4-3.87-2.35-5.45-.09-.15-.47-.81-.63-.77-1.52,2.29-2.52,5.03-3.35,7.65-1.11,3.48-1.86,7.08-2.72,10.63-5.6,1.42-11.35,2.53-16.58,5.07,5.17,2.64,10.98,3.62,16.55,5.15,1.61,6.19,2.73,12.69,6.04,18.24l.21.06c3.29-5.59,4.45-12.08,6.05-18.3,5.57-1.53,11.38-2.51,16.55-5.15-5.23-2.54-10.98-3.65-16.58-5.07ZM46.5,46.46c.06-.06-1.01-1.19-1.15-1.3-.11-.09-.16-.24-.35-.2-.17.19.69.96.85,1.1.09.08.57.47.65.4ZM88.6,44.96c-.19-.04-.24.11-.35.2-.44.36-.81.84-1.15,1.3.08.07.55-.32.65-.4.16-.13,1.02-.91.85-1.1ZM10.3,65.66c.01.14.15.16.25.2,1.06.49,2.74.93,3.9,1.3,5.09,1.63,10.9,3.41,16.27,2.47,2.93-.52,5.92-1.74,7.98-3.92-3.76-3.66-9.26-4.61-14.33-3.94-4.78.64-9.47,2.5-14.06,3.89ZM123.3,65.66c-6.57-1.95-13.82-5.17-20.8-3.75-2.82.57-5.54,1.76-7.59,3.8,2.06,2.18,5.05,3.4,7.98,3.92,5.37.95,11.18-.84,16.27-2.47,1.16-.37,2.84-.81,3.9-1.3.1-.05.23-.06.25-.2ZM43.47,72.37c-.4.74-.65,1.36-1.46,1.75-1.14.54-1.91.17-2.94-.35-1.56.5-3.17.95-4.81,1.1-.27.02-1.64-.14-1.55.25.04.18,2.84,1.4,3.27,1.63,2.08,1.14,4.09,2.45,5.8,4.11.79-.35,1.52-.87,2.33-1.24,2.79-1.25,5.87-1.6,8.9-1.21.56,3.44-.06,6.95-1.69,10.02-.14.26-.75,1.08-.71,1.26,1.67,1.73,2.99,3.76,4.14,5.87.52.96.93,1.99,1.44,2.96s.38-1,.4-1.21c.27-3.05,1.4-5.97,2.7-8.7-1.25-4.48-1.94-9.08-2.74-13.65l-13.09-2.59ZM89.88,72.38c-1.11.12-2.77.7-3.96.95-2.95.61-5.93,1.01-8.87,1.63-.8,4.57-1.49,9.17-2.74,13.65,1.31,2.73,2.43,5.65,2.7,8.7.02.22-.11,2.15.42,1.22s.92-2.03,1.43-2.97c1.14-2.11,2.47-4.14,4.14-5.87-.35-.79-.87-1.52-1.24-2.33-1.01-2.25-1.47-4.87-1.35-7.35.01-.25.13-1.56.19-1.61,3.03-.39,6.11-.04,8.9,1.21.81.36,1.54.89,2.33,1.24,1.76-1.72,3.85-3.04,6-4.21.4-.22,3.03-1.37,3.07-1.53.1-.39-1.28-.23-1.55-.25-1.64-.15-3.25-.6-4.81-1.1-.47.11-.83.49-1.31.58-1.45.25-2.58-.59-3.02-1.93-.11-.08-.21-.03-.33-.02ZM16.08,84.28c-.42.09-.54.44-.58.82-.31,3.43.24,7.32,0,10.81.05.87,1.1.77,1.76.75,4.62-.1,14.71-.99,18.29-3.91.19-.15,1.4-1.35,1.43-1.47.07-.25.08-1.31.01-1.57-.13-.56-1.55-1.7-2.06-2.04-3.67-2.42-12.36-3.29-16.78-3.42-.52-.02-1.63-.08-2.08.03ZM115.18,84.29c-4.44.17-12.81.96-16.51,3.39-.51.34-1.93,1.47-2.06,2.04-.06.27-.06,1.33.01,1.57.15.53,2.43,2.19,3.01,2.49,3.92,2.01,12.25,2.79,16.71,2.89.65.01,1.71.12,1.76-.75l-.02-11.08c-.19-.87-2.17-.57-2.9-.54ZM46.4,85.06l-.95.69-.44.7c.07.07.67-.41.75-.5.07-.07.71-.84.65-.9ZM88.6,86.46l-.44-.7-.95-.69c-.06.06.57.83.65.9.08.08.68.57.75.5ZM40.17,94.48c-.19.06-1.28,1.2-1.47,1.43-2.97,3.73-3.78,13.63-3.91,18.39-.02.64-.08,1.61.75,1.66l11.08-.02c.82-.18.6-1.94.58-2.63-.13-4.36-.95-12.38-3.05-16.15-.34-.61-1.69-2.51-2.33-2.67-.23-.06-1.44-.07-1.66,0ZM91.78,94.49c-.61.16-1.95,2.01-2.29,2.61-2.13,3.75-2.97,11.95-3.09,16.31-.02.79-.3,2.49.75,2.56l11.08-.02c.46-.1.53-.53.57-.93.11-1.08-.11-3.23-.2-4.4-.31-4.09-1.12-11.4-3.66-14.64-.19-.24-1.31-1.43-1.51-1.49-.21-.06-1.42-.06-1.66,0Z"/>
  <path d="M114.5,19.06c.09.09,1.98-.49,2.28-.57,2.32-.67,5.49-2.13,7.72-2.48s.77,1.2,0,1.91c-.68.63-1.57,1.32-2.31,1.89-2.2,1.69-3.28,2.14-5.91,2.99s-5.12,1.47-7.68,2.17c.78-2.47,1.38-5.01,2.17-7.48.95-2.96,1.5-4.14,3.43-6.57.49-.61,2.15-2.74,2.75-2.95.94-.34.7.79.59,1.3-.41,2.02-1.45,4.39-2.08,6.42-.34,1.12-.67,2.25-.97,3.38Z"/>
  <path d="M25,24.96c-2.23-.6-4.47-1.19-6.68-1.87-1.13-.35-2.39-.69-3.48-1.12-1.75-.69-4.34-2.74-5.75-4.05-.77-.72-2.31-2.27,0-1.91s5.4,1.81,7.72,2.48c.29.09,2.18.66,2.28.57-.68-2.94-1.87-5.74-2.73-8.62-.15-.52-.88-2.46,0-2.55.41-.04,1.38,1.04,1.69,1.37,2.49,2.72,3.65,4.73,4.78,8.22.79,2.47,1.39,5,2.17,7.48Z"/>
  <path d="M24.9,106.56c-.7,2.7-1.4,5.42-2.27,8.08-1,3.04-2.27,5.02-4.42,7.38-.75.82-2.7,2.92-2.17.22.42-2.17,1.64-4.89,2.3-7.1.28-.92.53-1.85.77-2.78-1.37.35-2.73.75-4.08,1.17-1.81.57-3.92,1.5-5.72,1.88-.47.1-.92.27-1.35-.05-.12-.25-.03-.48.11-.7.48-.76,2.37-2.23,3.16-2.84,2.04-1.59,3.14-2.18,5.61-2.99,2.65-.87,5.38-1.57,8.08-2.27Z"/>
  <path d="M114.5,112.36c.24.93.5,1.86.77,2.78.66,2.21,1.83,4.85,2.28,7.02.58,2.82-1.42.68-2.2-.2-2.13-2.37-3.38-4.29-4.38-7.32-.87-2.65-1.57-5.38-2.27-8.08,2.7.7,5.43,1.4,8.08,2.27,2.09.69,3.04,1.09,4.81,2.39.72.52,3.95,3.05,4.09,3.71.18.83-.79.6-1.3.5-2.29-.46-5.07-1.71-7.4-2.4-.82-.24-1.65-.47-2.48-.67Z"/>
</svg>