<?xml version="1.0" encoding="UTF-8"?>
<svg id="Layer_1" data-name="Layer 1" xmlns="http://www.w3.org/2000/svg" viewBox="0 0 143.21 139.92">
  <path fill="#FFFFFF" d="M0,57.21v-1.3c.89-2.97,5.24-2.85,5.5.35.29,3.52-4.43,4.11-5.5.95Z"/>
  <path fill="#FFFFFF" d="M86.9,0c3.47.27,3.57,5.54-.15,5.61s-3.57-5.34-.15-5.61c.1,0,.2,0,.3,0Z"/>
  <path fill="#FFFFFF" d="M86.5,139.91c-3.33-.41-3.24-5.54.15-5.61,3.65-.07,3.86,5.18.35,5.61-.14.02-.36.02-.5,0Z"/>
  <path fill="#FFFFFF" d="M56.7,139.91c-.14.02-.36.02-.5,0-3.38-.41-3.36-5.61.35-5.61,3.36,0,3.56,5.19.15,5.61Z"/>
  <path fill="#FFFFFF" d="M0,82.81c.54-2.07,3.24-2.94,4.76-1.36,1.78,1.84.2,5.12-2.37,4.72-1.21-.19-1.95-1.09-2.39-2.15v-1.2Z"/>
  <path fill="#FFFFFF" d="M56.6,0c3.39.19,3.49,5.67-.15,5.61S52.88.2,56.4,0c.07,0,.13,0,.2,0Z"/>
  <path fill="#FFFFFF" d="M34.2,20.6c3.53-.39,7.24.48,10.05,2.7,1.07.85,1.93,1.96,2.99,2.79l6.33-5.77c.72-.07.47,1.38.42,1.82-.24,2.02-1.14,4.91-2.39,6.51-.46.59-.8.39-.34,1.25s3.41,3.98,4.31,3.99c.64-.41,1.15-.97,1.83-1.33,1.34-.72,5.15-1.83,6.62-1.69.19.02.51.13.55.34l-.05.36-5.7,6.11c.83,1.06,1.94,1.92,2.79,2.99,2.28,2.88,2.99,6.32,2.8,9.95l4.28-3.56c-.21-.73-.4-1.47-.55-2.22-.11-.54-.87-3.25.19-3.1.7.1,2.84,2.68,3.33,2.69.65-.36,2.72-2.69,3.3-2.69.43,0,.56.49.55.84-.03,1.41-.75,3.14-.96,4.56l4.35,3.6c-.41-3.61.52-7.3,2.8-10.15.83-1.03,1.88-1.87,2.69-2.89-.55-.82-5.86-5.98-5.78-6.4.13-.67,1.92-.32,2.4-.24,1.22.2,3.44.83,4.55,1.35.78.37,1.37,1.05,2.08,1.52.3,0,1.33-.77,1.6-1,.55-.46,3.1-3,2.94-3.63-.03-.1-.96-1.11-1.13-1.38-.85-1.32-1.97-5.29-1.92-6.86.01-.44.39-.98.81-.53l6.01,5.59c1.02-.81,1.86-1.86,2.89-2.69,2.85-2.29,6.53-3.21,10.15-2.8-2.74-3.52-5.79-6.78-8.74-10.11-.44-.47-.2-1.02.42-1.07.77-.07,4.59.84,5.33,1.22.84.44,2.48,2.12,3.25,2.85,2.75,2.61,5.43,5.44,7.84,8.36.59.71,1.26,1.85,1.85,2.45s1.8,1.31,2.5,1.9c2.93,2.43,5.79,5.13,8.4,7.9,1.06,1.11,2.63,2.57,3.1,4,.26.8,1.1,4.28.8,4.9-.07.15-.38.33-.55.26l-10.5-8.96c.35,3.39-.42,6.93-2.46,9.69-.9,1.22-2.09,2.2-3.03,3.34l5.78,6.4c-.1.49-1.15.39-1.53.36-.94-.06-2.04-.39-2.95-.65-1.7-.49-3.22-1.04-4.47-2.34-.65-.17-3.26,2.47-3.73,3.04-.37.44-.71.95-.9,1.5,0,.13,1.01,1.24,1.18,1.52.75,1.2,1.72,4.56,1.82,5.98.05.68.17,1.78-.8,1.45-.59,2.15-3.47,2.49-4.78.73-1.06-1.43-.52-3.46,1.12-4.13l.06-.2-2.36-2.09c-1.15.94-2.13,2.14-3.34,3.03-2.76,2.04-6.3,2.81-9.69,2.46l1.76,2.09c.73-.59,1.2-.98,2.11-1.26s3.85-.99,4.67-.83c.5.1.51.67.2.99l-4.01,4.56c.01.12.1.2.17.3,1.01,1.41,2.78,2.77,3.8,4.2.38.53.41.98-.34,1.06-.91.1-4.43-.69-5.29-1.12-.5-.25-.83-.7-1.3-.98l-1.76,2.09c2.98-.28,6.16.26,8.73,1.82,1.63.99,2.88,2.46,4.31,3.67l2.36-2.14-1.05-.85c-2.59-3.1,2.48-6.48,4.45-3.25.09.15.18.53.2.55.07.05.46-.19.7.15.36.51-.16,2.8-.34,3.48-.32,1.28-.87,3.11-1.63,4.17-.2.28-.96.99-.93,1.23.12.88,3.03,3.69,3.86,4.15.18.1.58.35.76.31,1.2-1.21,2.5-1.73,4.09-2.21,1.08-.33,3.36-.98,4.42-.77.24.05.36.23.42.45l-5.76,6.31c1.2,1.4,2.65,2.64,3.63,4.24,1.58,2.57,2.17,5.81,1.86,8.79,1.43-1.09,2.83-2.27,4.2-3.45,1.84-1.59,3.9-3.81,5.81-5.19.3-.22.9-.56,1.07.01.23.75-.56,4.03-.85,4.91-.31.93-.74,1.41-1.37,2.13-2.79,3.17-6.36,6.58-9.6,9.3-.86.72-2.36,1.63-3.05,2.35s-1.48,2.04-2.2,2.9c-2.36,2.81-5.07,5.63-7.74,8.16-.76.72-1.98,1.97-2.82,2.48s-4.31,1.29-5.3,1.31c-.42,0-.85-.12-.82-.62l8.88-10.47c-3.62.16-7.08-.53-9.95-2.8-1.07-.85-1.93-1.96-2.99-2.79l-6.11,5.7c-.48.28-.7-.24-.72-.64-.06-1.54,1.09-5.54,1.93-6.86.33-.51.82-.93,1.14-1.46,0-.3-.86-1.42-1.1-1.7-.48-.56-2.88-2.96-3.53-2.83-1.13,1.21-2.44,1.72-3.99,2.21-1.05.33-2.23.67-3.33.77-.37.03-1.33.16-1.56-.17l-.07-.27,5.77-6.33c-.83-1.06-1.94-1.91-2.79-2.99-2.21-2.8-3.1-6.52-2.7-10.05l-4.35,3.6c.19,1.42.93,3.15.96,4.56,0,.35-.12.84-.55.84-.63,0-2.62-2.34-3.32-2.68-.28-.02-2.35,2.12-2.84,2.43-1.17.75-1.08-.46-.98-1.28.16-1.3.64-2.57.84-3.86l-4.25-3.5c.2,3.89-.63,7.47-3.2,10.45-.3.35-2.42,2.32-2.39,2.49l5.7,6.11c.32.47-.21.75-.64.75-1.51,0-4.84-.91-6.23-1.57-.77-.37-1.36-1.04-2.06-1.5-1.04.12-4.7,3.87-4.55,4.62,1.22,1.14,1.73,2.43,2.21,3.99.32,1.02.65,2.17.77,3.23.05.41.22,1.49-.2,1.7h-.3s-6.26-5.75-6.26-5.75c-.17-.03-2.14,2.09-2.49,2.39-2.96,2.56-6.58,3.39-10.45,3.2,2.69,3.5,5.74,6.69,8.64,10.01.87,1.51-1.13,1.01-1.96.86-1.43-.25-3.35-.62-4.48-1.52-3.23-2.55-7.22-6.92-9.9-10.1-.73-.87-1.67-2.41-2.4-3.1-.63-.6-1.72-1.24-2.45-1.85-2.86-2.38-5.64-5-8.2-7.7-.79-.83-2.39-2.37-2.91-3.29-.49-.87-1.16-3.84-1.23-4.87-.04-.55-.12-1.24.6-1.21l10.5,8.96c-.34-3.75.6-7.59,3.1-10.45.33-.38,2.41-2.27,2.41-2.5-.48-.9-5.85-6.04-5.76-6.46.11-.53.98-.42,1.4-.39,1.43.1,4.35.91,5.64,1.56.42.21,1.84,1.43,1.96,1.43.47.02,1.73-1.05,2.11-1.39.52-.47,2.42-2.46,2.45-3.06.02-.31-.64-.86-.84-1.15-1.05-1.49-2.08-4.92-2.16-6.74-.03-.61,0-1.55.8-1.05,1.33-4.02,7.23-1.1,4.8,2.45l-1.1,1,2.35,2.16c.22,0,2.12-2.08,2.5-2.41,2.84-2.48,6.72-3.47,10.45-3.1l-1.66-2.11c-.58.27-.87.75-1.47,1.03-.92.42-4.38,1.21-5.32,1.09-.72-.1-.46-.73-.14-1.15,1.16-1.51,2.76-2.85,3.9-4.4l-3.94-4.46c-.78-1.12.16-1.16,1.08-1.08s3.83.73,4.63,1.17c.32.18,1.04.96,1.27.93l1.66-2.11c-3.68.38-7.52-.56-10.35-3-.9-.78-1.64-1.8-2.6-2.5l-2.45,2.25c1.96.81,2.44,3.43.65,4.75-1.13.84-2.91.73-3.8-.4-.17-.22-.42-.87-.46-.9-.07-.05-.46.19-.7-.15-.26-.37.04-2.05.14-2.58.24-1.26.87-3.4,1.49-4.51.35-.63.9-1.1,1.28-1.71.05-.91-3.43-4.36-4.55-4.55-.67.45-1.21,1.09-1.94,1.45-1.22.6-4.21,1.45-5.56,1.54-.4.03-1.52.14-1.51-.45l5.77-6.4c0-.22-2.08-2.12-2.41-2.5-2.51-2.86-3.43-6.71-3.1-10.45-1.49,1.18-2.96,2.4-4.4,3.65-1.65,1.43-4,3.99-5.71,5.09-1,.65-1.05-.27-.98-1.08.08-.99.6-3.32.97-4.23.47-1.18,2.47-3.09,3.42-4.08,2.07-2.17,4.37-4.4,6.66-6.34,1.11-.94,2.94-2.1,3.85-3.05.63-.65,1.28-1.75,1.9-2.5,2.8-3.36,6.04-6.78,9.3-9.7.46-.41,1.2-1.12,1.71-1.39.78-.42,4.36-1.26,5.24-1.24.41.01.76.16.75.62l-9,10.55ZM28.9,40.91c1.34-.7,2.63-1.51,3.87-2.38,2.62-1.83,3.82-3.03,5.65-5.65.31-.44,2.46-3.66,2.34-3.87-3.47-2.34-8.56-2.37-12.2-.39-2.04,3.71-1.91,8.71.35,12.29ZM107.78,27.24c-1.41.11-3.1.5-4.35,1.15-.18.09-1.03.57-.99.72.67,1.21,1.39,2.39,2.18,3.53,2.01,2.91,3.42,4.27,6.35,6.25,1.06.72,2.16,1.38,3.28,2.01,1.82-2.57,2.14-5.96,1.62-9.01-.13-.75-.76-2.94-1.34-3.36-1.46-1.07-4.99-1.42-6.76-1.29ZM46.15,34.44c-.86.76-1.61,1.64-2.45,2.42-1.2,1.12-2.55,2.14-3.71,3.29s-2.14,2.47-3.24,3.66c-.33.35-2.28,2.18-2.34,2.37-.08.27.09.44.23.63.54.72,2.72,2.87,3.45,3.45.16.12.32.22.5.31.17.03,1.63-1.56,1.9-1.81,1.28-1.19,2.71-2.34,3.95-3.55,2.09-2.03,3.89-4.47,6.03-6.47.03-.15-.32-.6-.43-.74-.64-.79-2.31-2.45-3.1-3.1-.24-.2-.48-.4-.8-.46ZM97.05,34.44c-.3.06-.52.23-.75.42-.52.41-3.22,3.11-3.44,3.56-.05.1-.16.28-.11.39.11.24,1.76,1.73,2.1,2.1,1.27,1.36,2.48,2.91,3.8,4.2,1.19,1.16,2.54,2.21,3.75,3.35.34.31,1.92,2.03,2.15,2.05.26.03.64-.29.85-.45.69-.55,2.4-2.26,2.95-2.95.19-.24.52-.62.43-.93-.05-.19-1.74-1.76-2.04-2.07-1.13-1.21-2.2-2.59-3.35-3.75-1.29-1.32-2.85-2.53-4.2-3.8-.73-.69-1.39-1.46-2.15-2.12ZM55.85,44.13c-1,.54-1.98,1.12-2.92,1.75-2.71,1.8-4.2,3.05-6.11,5.69-.56.77-1.12,1.57-1.62,2.38-.21.34-1.01,1.56-1.08,1.83-.08.31.46.55.68.68,2.82,1.68,7.64,1.74,10.6.39.97-.44,1.03-.57,1.45-1.55,1.27-2.95,1.16-7.55-.43-10.36-.09-.15-.44-.8-.57-.81ZM87.35,44.12c-1.92,2.63-2.21,6.47-1.5,9.59.13.55.7,2.28,1.05,2.65s2.15.97,2.7,1.1c3.17.72,6.82.38,9.56-1.45.1-.16-1.69-2.92-1.94-3.27-1.99-2.95-3.36-4.39-6.29-6.41-1.15-.8-2.35-1.53-3.58-2.21ZM71.7,50.71c-2.85,2.83-5.65,5.62-8.75,8.2-.69.57-1.74,1.17-2.34,1.76s-1.24,1.69-1.81,2.39c-2.01,2.41-4.13,4.72-6.4,6.9,2.42,2.33,4.67,4.81,6.8,7.4.46.56.97,1.49,1.45,1.95.61.58,1.69,1.22,2.4,1.8,3.03,2.53,5.85,5.27,8.6,8.1,2.78-3.05,5.82-5.87,9-8.5.57-.47,1.54-1.01,2-1.5s.97-1.37,1.45-1.95c2.1-2.55,4.32-5,6.7-7.3-2.55-2.43-4.87-5.07-7.09-7.8-.34-.42-.71-1.09-1.05-1.45-.57-.58-1.8-1.31-2.5-1.9-2.75-2.28-5.96-5.13-8.31-7.79-.08-.09-.15-.18-.15-.3ZM49.68,82.14c-1.55.09-4.15.64-5.37,1.62-.13.1-.25.18-.19.37.76,1.3,1.54,2.58,2.4,3.81,1.94,2.76,3.32,4.01,6.11,5.89.39.27,3.08,2.03,3.28,1.93,1.9-2.65,2.18-6.55,1.45-9.66-.13-.57-.7-2.23-1.1-2.6-.17-.16-1.22-.6-1.5-.7-1.49-.53-3.5-.76-5.07-.67ZM99.2,83.91c-2.79-1.78-6.29-2.16-9.5-1.45-.63.14-2.35.69-2.79,1.11-.34.31-.94,2.13-1.06,2.64-.71,3.13-.42,6.89,1.45,9.56.21.12,3.44-2.03,3.87-2.34,2.71-1.89,3.94-3.17,5.81-5.89.8-1.17,1.56-2.37,2.22-3.63ZM38.47,89.42c-.16.03-.26.14-.38.23-.65.49-2.96,2.8-3.45,3.45-.15.19-.31.36-.23.63.05.19,1.92,1.93,2.24,2.27,1.17,1.25,2.29,2.71,3.5,3.9s2.54,2.21,3.75,3.35c.6.56,1.56,1.77,2.15,2.16.25.17.55-.1.75-.26.75-.59,2.76-2.6,3.35-3.35.13-.16.4-.51.3-.7-.16-.31-1.63-1.6-2.01-2-1.32-1.41-2.52-2.96-3.9-4.3-1.2-1.18-2.61-2.29-3.85-3.45-.45-.42-1.44-1.62-1.84-1.86-.15-.09-.2-.12-.38-.08ZM104.47,89.42c-.19.05-1.93,1.92-2.27,2.24-1.18,1.1-2.51,2.11-3.65,3.25-1.24,1.23-2.39,2.72-3.6,4-.36.38-2.09,1.94-2.2,2.2-.05.11.06.29.11.39.23.47,2.91,3.13,3.44,3.56.21.17.59.53.85.36.51-.34,1.33-1.38,1.85-1.86,1.24-1.16,2.65-2.27,3.85-3.45,1.39-1.36,2.66-2.98,4-4.4.64-.69,1.35-1.32,2-2,.06-.13-.21-.49-.3-.6-.58-.73-2.73-2.9-3.45-3.45-.19-.15-.36-.31-.63-.23ZM28.9,99.01c-1.78,2.79-2.15,6.3-1.45,9.5.14.63.7,2.35,1.11,2.79.35.38,2.17.95,2.73,1.07,3.12.69,6.75.41,9.43-1.42l.05-.16c-.7-1.33-1.52-2.6-2.38-3.83-1.87-2.67-3.17-3.9-5.85-5.75-1.17-.8-2.38-1.54-3.63-2.22ZM114.3,99.01c-1.39.76-2.73,1.61-4.03,2.52-2.76,1.93-4.01,3.32-5.89,6.11-.25.37-2.03,3.11-1.94,3.27,2.54,1.8,6.07,2.12,9.08,1.57.67-.12,2.74-.76,3.18-1.22.35-.37.92-2.1,1.05-2.65.73-3.22.35-6.8-1.45-9.6Z"/>
  <path fill="#FFFFFF" d="M61.96,22.94c-.33-.33-.84-.66-1.17-.98-2.33-2.31-4.68-4.59-6.74-7.16-.56-.68.92-2.08,1.44-2.45s.87-.3,1.38.03c.74.47,1.93,1.64,2.63,2.27,2.02,1.84,3.85,3.89,5.75,5.85,2.26,1.97,4.32,4.15,6.32,6.39.19.03,1.39-1.49,1.63-1.75,3.2-3.37,6.86-7.09,10.25-10.25.64-.6,2.35-2.24,3-2.6.42-.22.7-.29,1.14-.04.24.14,1.57,1.52,1.64,1.76.16.5-.01.69-.29,1.07-1.98,2.67-4.83,5.09-7.19,7.41-2.71,2.66-5.25,5.78-8.3,8.1-.77.59-1.14.52-1.81-.19-.26-.04-.57.93-1.47.48-2.59-2.07-4.89-4.44-7.21-6.78-.32-.32-.66-.84-.98-1.17Z"/>
  <path fill="#FFFFFF" d="M71.4,112.91c-.13.3-.43.65-.65.9-2.05,2.33-4.09,4.18-6.25,6.35-2.33,2.33-4.86,5.45-7.56,7.34-.36.25-.59.41-1.06.3-.33-.08-1.84-1.63-1.93-1.98-.13-.52.26-.87.56-1.25,2.29-2.89,5.27-5.51,7.9-8.1,1.95-1.93,3.75-4.06,5.95-5.75,1.02-.78,1.06-.75,2.09.1.62-.62,1.59-2.23,2.58-1.78.55.25,2.59,2.18,3.18,2.72,3.04,2.79,5.67,5.99,8.8,8.7l4.18,4.72c.21.31.1.7-.09.99-.13.19-1.53,1.55-1.7,1.61-.46.15-.83-.06-1.2-.31-.79-.56-1.92-1.65-2.66-2.34-4.03-3.76-7.91-7.99-11.74-11.96-.11-.12-.21-.28-.4-.25Z"/>
  <path fill="#FFFFFF" d="M118.3,70.1c.12,0,.22.07.3.15,1.59,1.52,3.01,3.2,4.56,4.75,1.95,1.96,4.04,3.73,5.89,5.81.45.5,2.15,2.31,2.15,2.85,0,.17-.08.39-.16.54s-1.47,1.52-1.6,1.6c-.3.16-.67.19-.95-.02-2.29-1.9-4.44-3.95-6.53-6.06-1.17-1.18-2.32-2.33-3.5-3.5s-2.28-2.31-3.4-3.47c-.42.19-.7.23-1.1-.03-.19-.12-1.31-1.25-1.45-1.45-.51-.74.06-.93.06-1.3,0-.27-.41-.46-.22-1.06.11-.35,1.72-1.87,2.11-1.89.26-.01.49.24.7.11.33-.21.67-.78.95-1.06,1.24-1.28,2.59-2.41,3.86-3.64,1.97-1.92,3.67-3.98,5.75-5.85.66-.6,1.99-1.91,2.67-2.33.37-.23.66-.32,1.07-.1.14.07,1.52,1.45,1.6,1.59.26.46.17.7-.06,1.12-.44.79-2.18,2.57-2.88,3.32-2.02,2.16-4.23,4.2-6.3,6.3-1.14,1.16-2.31,2.29-3.46,3.45l-.05.2Z"/>
  <path fill="#FFFFFF" d="M14.08,54.03c.34-.05.54.05.82.24.96.63,2.61,2.25,3.51,3.09,1.52,1.43,2.84,3.03,4.3,4.5s3.18,2.93,4.71,4.49c.19.2.56.84.83.83.37-.01.45-.36,1.02.02.18.12,1.39,1.33,1.49,1.5.46.72-.12,1.04-.12,1.25,0,.16.48.43.2,1.12-.06.14-1.34,1.45-1.52,1.58-.66.47-1.03,0-1.26.14-.2.12-.37.48-.55.66-1.94,2.04-4.01,4.02-6,6-2.17,2.17-4.35,4.31-6.71,6.29-.34.24-.75.22-1.09,0-.2-.13-1.31-1.24-1.45-1.45-.36-.53-.3-.75.02-1.27,1.09-1.78,4.11-4.56,5.67-6.13,2.1-2.1,4.18-4.22,6.3-6.3.21-.21.82-.46.61-.8-.04-.07-.3-.19-.41-.3-1.56-1.5-2.94-3.15-4.44-4.66s-3.2-2.9-4.71-4.49c-.74-.79-2.56-2.63-3.04-3.46-.28-.48-.34-.74-.04-1.23.22-.35,1.48-1.59,1.86-1.65Z"/>
  <path fill="#FFFFFF" d="M8.38,86.43c3.49-.45,4.22,4.61,1.05,5.45-3.63.95-5.08-4.92-1.05-5.45Z"/>
  <path fill="#FFFFFF" d="M8.07,48.03c4.44-.75,4.44,6.17.12,5.43-3.14-.54-2.79-4.98-.12-5.43Z"/>
  <path fill="#FFFFFF" d="M140.18,80.63c3.93-.25,3.97,5.51.27,5.58-3.4.07-3.74-5.36-.27-5.58Z"/>
  <path fill="#FFFFFF" d="M91.97,6.03c4.27-.73,4.54,6.24-.1,5.45-2.8-.47-2.69-4.97.1-5.45Z"/>
  <path fill="#FFFFFF" d="M134.08,86.43c3.5-.45,4.46,4.43,1.2,5.4-3.74,1.12-4.94-4.92-1.2-5.4Z"/>
  <path fill="#FFFFFF" d="M50.18,128.43c4.39-.64,4.18,6.11,0,5.45-2.98-.47-3.01-5.01,0-5.45Z"/>
  <path fill="#FFFFFF" d="M133.87,48.03c3.93-.66,4.67,4.98,1.05,5.45-3.83.5-4.08-4.94-1.05-5.45Z"/>
  <path fill="#FFFFFF" d="M140.18,53.73c2.97-.28,4.3,4.01,1.46,5.26-4.18,1.83-5.49-4.87-1.46-5.26Z"/>
  <path fill="#FFFFFF" d="M91.87,128.43c4.02-.68,4.59,4.91,1.15,5.45-3.71.58-4.32-4.91-1.15-5.45Z"/>
  <path fill="#FFFFFF" d="M50.28,6.03c3.67-.53,4.22,5.03.97,5.47-3.96.53-4.49-4.95-.97-5.47Z"/>
</svg>