<?xml version="1.0" encoding="UTF-8"?>
<svg id="Layer_1" data-name="Layer 1" xmlns="http://www.w3.org/2000/svg" viewBox="0 0 141.22 140.53">
  <path fill="#FFFFFF" d="M47.6.03c5.41.69,4.78,9.44-.95,9.2S40.55.74,46.3.03c.3-.04,1-.04,1.3,0Z"/>
  <path fill="#FFFFFF" d="M141.2,92.83c.03.26.03.84,0,1.1-.74,5.51-9.79,5.13-9.19-1.04.55-5.7,8.55-5.37,9.19-.06Z"/>
  <path fill="#FFFFFF" d="M94.7,140.53h-1.4c-3.17-.72-5.12-4.17-3.24-7.09,1.39-2.16,4.63-2.81,6.69-1.21,3.23,2.52,1.79,7.42-2.05,8.3Z"/>
  <path fill="#FFFFFF" d="M0,93.43v-.2c.67-6.44,9.87-5.8,9.2.85-.53,5.26-9.05,4.85-9.2-.65Z"/>
  <path fill="#FFFFFF" d="M100.84,39.79c.58.58,1.8,1.27,2.51,1.84,5.84,4.66,11.29,9.84,16.41,15.29,1.43,1.53,3.63,3.56,4.27,5.53.55,1.67,1.07,4.11,1.34,5.86.33,2.08-.08,3.59-.52,5.62-.62,2.88-.83,4.33-2.8,6.6-5.35,6.19-12.27,12.63-18.66,17.74-.74.59-2.04,1.34-2.64,1.96-.97,1-2.18,2.96-3.15,4.15-3.98,4.89-8.57,9.61-13.14,13.96-1.35,1.28-3.87,3.92-5.42,4.68-1.31.65-6.93,1.92-8.39,1.92-1.6,0-6.6-1.15-8.12-1.79-1.83-.77-5.02-4.11-6.58-5.62-4.89-4.72-9.51-9.64-13.74-14.96-.57-.71-1.19-1.8-1.8-2.4s-1.64-1.19-2.35-1.75c-5.31-4.24-10.24-8.85-14.96-13.74-1.5-1.55-4.91-4.83-5.65-6.65-.67-1.67-1.88-7.03-1.74-8.74.07-.85.35-1.92.52-2.78.6-3,.87-4.73,2.92-7.08,5.38-6.18,12.25-12.63,18.66-17.74.73-.58,2.06-1.34,2.64-1.96.5-.53,1.05-1.52,1.55-2.15,5.02-6.31,10.75-12.36,16.69-17.81.89-.81,2.31-2.24,3.33-2.77,1.43-.73,6.98-1.95,8.6-1.94s7.43,1.28,8.86,2.12c1.29.77,3.05,2.61,4.21,3.69,5.46,5.11,10.63,10.56,15.29,16.41.57.71,1.26,1.93,1.84,2.51ZM84.3,33.53c-4.35-5.4-8.96-10.6-13.66-15.69-.14-.02-.39.29-.49.39-2.67,2.82-5.36,5.95-7.9,8.9-1.79,2.08-3.54,4.2-5.25,6.35,1.48.03,2.96-.06,4.45.05,3.18.25,6.31,1.07,9.12,2.58,3.36-1.76,6.71-2.44,10.48-2.58.2,0,.39-.11.6-.1l2.65.1ZM45.41,53.32c1.23.51,2.22,1.5,3.2,2.36.15.06.69-.16.87-.24,1.83-.85,6.08-5.13,6.78-7.02.06-.15.18-.33.11-.49-.05-.11-.96-1.01-1.15-1.26-.46-.59-.86-1.21-1.27-1.83-2.27.15-4.44.97-6.43,2.04-1.12,1.97-1.85,4.17-2.1,6.44ZM95.78,53.31c-.13-2.25-.96-4.42-2.04-6.38-1.97-1.15-4.19-1.92-6.48-2.11-.24.37-.43.78-.69,1.14-.3.43-1.54,1.7-1.63,1.97-.12.34.09.66.23.96.82,1.69,5.06,5.91,6.78,6.62.19.08.43.24.63.17.24-.08,1.53-1.3,1.92-1.59s.83-.59,1.27-.78ZM107,83.63l7.2-5.95,8.6-7.7-15.7-13.65c.34,4.74-.36,9.54-2.6,13.75,2.22,4.11,2.89,8.93,2.5,13.55ZM34.1,56.43l-1.85,1.4c-4.71,3.94-9.3,8.03-13.85,12.15l15.8,13.65c-.26-3.72.09-7.55,1.4-11.05.33-.88.78-1.71,1.1-2.59-2.26-4.18-2.81-8.85-2.6-13.56ZM70.65,62.43c-1.35,1.32-2.94,2.5-4.25,3.85-1.15,1.17-2.15,2.52-3.29,3.7,1.27,1.24,2.36,2.75,3.61,3.99s2.65,2.26,3.85,3.45c2.8-2.17,5.23-4.76,7.53-7.46-2.23-2.76-4.83-5.15-7.44-7.54ZM53.98,95.11c.14-.41.39-.77.63-1.11.29-.41,1.56-1.74,1.63-1.98.09-.28-.09-.55-.2-.8-.82-1.81-4.83-5.81-6.63-6.67-.16-.08-.69-.32-.82-.28-.29.47-3.07,2.29-3.1,2.5-.05.26.17,1.23.24,1.57.24,1.2.73,2.62,1.28,3.72.58,1.16.66,1.14,1.82,1.68,1.57.74,3.41,1.28,5.15,1.37ZM95.79,86.64c-.66-.32-1.26-.76-1.84-1.22-.24-.19-1.14-1.1-1.26-1.15-.18-.08-.46.1-.63.17-1.74.71-5.7,4.7-6.64,6.35-.14.24-.57,1.01-.47,1.23l2.51,3.11c2.19-.21,4.24-.99,6.18-2,1.16-1.99,1.89-4.2,2.16-6.49ZM84.2,106.43c-3.69.28-7.5-.09-10.98-1.37-.91-.34-1.76-.79-2.67-1.13-4.14,2.18-8.92,2.86-13.56,2.5l13.55,15.7,7.7-8.5,5.95-7.2Z"/>
  <path fill="#FFFFFF" d="M23.47,89.15c.65-.11.99.1,1.47.48,3.64,2.81,7.61,6.86,10.8,10.2,1.71,1.78,3.16,3.25,4.95,4.95,3.3,3.14,7.47,7.2,10.2,10.8.44.59.74.99.45,1.75-.25.65-1.63,2.03-2.2,2.5-.72.59-1.15.88-2.08.49-.89-.37-3.49-2.84-4.36-3.64-4.04-3.65-7.7-7.71-11.6-11.5-3.39-3.3-7.17-6.9-10.1-10.6-.56-.7-1.15-1.34-.83-2.32.18-.53,2.27-2.63,2.79-2.91.14-.08.35-.16.51-.19Z"/>
  <path fill="#FFFFFF" d="M92.97,19.55c.78-.16,1.22.11,1.82.53,1.72,1.22,3.94,3.4,5.51,4.89,2.63,2.49,4.96,5.24,7.51,7.79,4.1,4.1,8.39,7.75,12.09,12.31.68.84,1.63,1.72.99,2.88-.3.54-2.49,2.72-3.06,2.84-.97.2-1.46-.37-2.13-.93-3.19-2.61-6.54-5.83-9.4-8.8-1.31-1.36-2.49-2.84-3.84-4.16-4.25-4.13-8.64-8.08-12.35-12.75-.41-.59-.54-1.14-.19-1.79.31-.55,2.48-2.72,3.06-2.84Z"/>
  <path fill="#FFFFFF" d="M117.17,89.15c.51-.09.91.04,1.32.33.38.26,2.33,2.25,2.49,2.61.44.95-.04,1.56-.59,2.28-3.63,4.76-8.3,8.6-12.5,12.8s-7.67,8.29-12.2,12c-.99.81-1.95,1.89-3.25.95-.36-.26-2.33-2.27-2.49-2.61-.25-.55-.22-1.07.09-1.59,3.16-3.67,6.42-7.24,9.89-10.61,1.15-1.11,2.44-2.1,3.56-3.24,4.03-4.14,7.86-8.47,12.4-12.1.34-.28.85-.75,1.27-.82Z"/>
  <path fill="#FFFFFF" d="M47.37,19.55c.51-.11.97-.02,1.4.25.39.25,2.04,1.89,2.33,2.27.44.6.6,1.31.14,1.94-3.19,3.77-6.55,7.37-10.09,10.81-.86.83-1.85,1.56-2.71,2.39-1.05,1.02-1.93,2.21-2.94,3.26-3.45,3.56-7.07,6.94-10.87,10.13-.71.41-1.26.29-1.88-.19-.39-.3-2.22-2.12-2.41-2.49-.37-.71-.19-1.25.21-1.9.66-1.04,2.31-2.72,3.19-3.71,3.02-3.36,6.23-6.16,9.4-9.3,4.3-4.25,8.13-8.86,12.95-12.65.33-.26.87-.74,1.27-.83Z"/>
  <path fill="#FFFFFF" d="M56.48,121.46c5.47-.3,6.93,7.12,1.9,8.9-6.6,2.33-8.48-8.54-1.9-8.9Z"/>
  <path fill="#FFFFFF" d="M56.28,9.36c5.72-.68,7.4,7.73,1.73,9.03-6.51,1.48-7.6-8.33-1.73-9.03Z"/>
  <path fill="#FFFFFF" d="M13.98,51.76c6.05-.73,6.98,7.75,1.73,9.03-6.07,1.48-8.11-8.25-1.73-9.03Z"/>
  <path fill="#FFFFFF" d="M83.78,9.36c6.52-.78,6.77,9.76.18,9.16-5.68-.52-5.52-8.53-.18-9.16Z"/>
  <path fill="#FFFFFF" d="M4.18,42.16c6.41-.78,6.76,8.8.87,9.17s-6.93-8.44-.87-9.17Z"/>
  <path fill="#FFFFFF" d="M135.68,42.15c4.78-.65,7.48,5.08,3.57,8.17-3.46,2.74-8.08-.59-7.22-4.72.35-1.69,1.92-3.21,3.65-3.45Z"/>
  <path fill="#FFFFFF" d="M125.88,51.76c5-.61,7.36,5.49,3.31,8.31s-9.09-2.35-6.37-6.37c.67-1,1.85-1.79,3.06-1.94Z"/>
  <path fill="#FFFFFF" d="M14.57,79.07c6.01,0,6.16,9.84-.62,9.16-5.66-.57-5.05-9.15.62-9.16Z"/>
  <path fill="#FFFFFF" d="M84.18,121.46c5.92-.38,6.27,8.64.77,9.17-6.19.6-7.2-8.76-.77-9.17Z"/>
  <path fill="#FFFFFF" d="M126.58,79.06c5.7-.1,6.45,8.65.67,9.17-6.75.61-6.53-9.07-.67-9.17Z"/>
</svg>