<?xml version="1.0" encoding="UTF-8"?>
<svg id="Layer_1" data-name="Layer 1" xmlns="http://www.w3.org/2000/svg" viewBox="0 0 129.4 129.4">
  <path fill="#FFFFFF" d="M0,20.74c.18-.33.61-.37.95-.4.76-.07,1.62.03,2.4,0,1.96-.08,3.94-.21,5.9-.3.65-.03,1.31.06,1.96-.04.2-.14.06-3.54.09-4.11.03-.52.47-3.71.73-3.92,1.05-.26,2.14-.55,3.23-.62,1.39-.09,3.07.17,4.4,0,.11-.01.23,0,.3-.1.21-2.02.16-4.04.24-6.06,0-.24.1-.46.11-.69.05-1.25-.07-2.79.09-4.01.13-1.01,1.13-.19,1.5.21,1.51,1.62,3.96,5.95,4.29,8.11.09.61.09,1.23.16,1.84.06.1.39.23.52.28,1.5.58,5.5.54,7.05.09.27-.08.56-.14.79-.31.13-.16.15-1.44.2-1.8.26-1.65,1.07-3.18,1.87-4.63.43-.79,2.39-3.95,3.11-4.19,1.1-.36.76.84.81,1.5.18,2.6.18,5.2.29,7.81.03.59.15,1.24.15,1.85.07.1.19.09.3.1,2.59.31,4.58-.23,7.38.52,3.75,1.01,6.69,3.38,9.28,6.17L59.45.25c.63-.57,1.18.11,1.6.59.81.94,2.97,4.3,3.28,5.42.39,1.45.11,2.84.27,4.23.02.15.02.31.2.35.03-1.25-.07-2.6.11-3.84.23-1.51,2.33-4.83,3.35-6.05.92-1.11,1.75-1.5,1.94.34.26,2.63.22,5.44.4,8.1.2,2.89.51,5.77.7,8.65,2.58-2.79,5.53-5.16,9.28-6.17,2.8-.75,4.79-.21,7.38-.52.11-.01.23,0,.3-.1.23-3.22.22-6.45.44-9.66.05-.66-.29-1.86.81-1.5.73.23,2.68,3.4,3.11,4.19,1.11,2.02,2.08,3.99,2.03,6.37.07.12.52.27.67.33,1.52.5,5.72.52,7.2-.05.13-.05.46-.18.52-.28.07-.61.07-1.23.16-1.84.33-2.16,2.78-6.49,4.29-8.11.38-.4.82-.94,1.41-.51l.53,11.07c.07.1.19.09.3.1,1.33.16,3.01-.1,4.4,0,1.09.07,2.18.36,3.23.62.39,1.24.66,2.62.73,3.92.03.57-.11,3.97.09,4.11,1.49.11,2.97.08,4.46.14,1.84.07,4,.04,5.79.21.34.03.77.07.95.4v.3c-.16.33-.38.56-.65.8-1.5,1.39-5.45,3.73-7.42,4.18-.87.2-1.76.21-2.64.36-.33.19-.58,2.25-.6,2.7-.05.97-.09,5.02.61,5.6.33.28.93.1,1.34.16,2.14.27,5.02,1.77,6.82,2.98.88.59,1.91,1.36,2.53,2.22v.3c-.19.27-.32.36-.65.4-1.4.17-3.25.04-4.71.09-.24,0-.46.1-.69.11-1.75.07-3.51.02-5.25.2,0,2.29.1,4.53-.37,6.78-.85,4.1-3.31,7.36-6.33,10.12,2.54.27,5.1.52,7.65.7,2.94.2,6.45.08,9.3.5.47.07.87.11,1.05.6v.3c-.86,1.1-2.22,1.9-3.41,2.64-1.01.63-2.01,1.32-3.17,1.63-2.06.27-4.15.18-6.23.28l5.25.15c1.53.13,2.38.71,3.64,1.46,1.36.81,2.87,1.74,3.91,2.94v.3c-.13.23-.14.32-.4.45-.63.33-2.12.2-2.86.24-4.91.32-9.85.56-14.75,1.11,3.02,2.8,5.53,6.05,6.35,10.2.44,2.22.34,4.44.36,6.69.16.19,4.33.18,4.94.21.24,0,.46.1.69.11,1.54.06,3.53-.09,5.01.09.33.04.46.14.65.4v.3c-.5.79-1.41,1.45-2.17,1.98-2.62,1.84-4.8,2.83-7.97,3.23-.73.09-.77.39-.93,1.07-.37,1.6-.37,4.84,0,6.44.18.78.21.97,1.03,1.07,3.08.36,5.41,1.49,7.93,3.27.74.53,1.63,1.17,2.11,1.94v.3c-.65.68-2.11.36-3.05.4-2.03.08-4.07.22-6.09.31-.68.03-1.38-.07-2.06.04-.2.14-.06,3.54-.09,4.11s-.44,3.68-.73,3.92c-2.58.78-5.3.74-7.98.72l-.49,11.06c-.59.43-1.02-.11-1.41-.51-1.51-1.58-3.97-5.97-4.29-8.11-.09-.61-.09-1.23-.16-1.84-.31-.23-.7-.35-1.07-.43-1.31-.3-4.96-.3-6.27,0-.36.08-.7.2-1.02.38-.13.15-.16,1.51-.21,1.89-.23,1.52-1.22,3.38-1.97,4.73-.42.76-2.3,3.76-3.01,3.99-1.1.36-.76-.84-.81-1.5-.14-1.99-.22-4.01-.3-6-.05-1.21-.03-2.44-.1-3.65-1.11-.04-2.24.05-3.35,0-2.13-.09-4.27-.46-6.24-1.26-2.9-1.17-5.29-3.3-7.4-5.55-.19,2.89-.5,5.77-.7,8.65-.18,2.69-.15,5.42-.4,8.1-.08.88-.4,1.83-1.39.99-.76-.64-3.16-4.45-3.56-5.44-.62-1.54-.4-3.47-.45-5.1-.18.04-.19.2-.2.35-.16,1.41.13,2.76-.27,4.23-.28,1.04-2.88,5.19-3.69,5.91-.35.31-.84.52-1.18.11l-1.36-17.8c-2.72,2.99-5.89,5.43-9.92,6.33-2.32.52-4.71.48-7.08.47-.07,1.21-.04,2.44-.1,3.65-.09,2.02-.16,4.08-.3,6.1-.04.64.27,1.75-.81,1.4-.71-.23-2.59-3.23-3.01-3.99-.75-1.34-1.75-3.22-1.97-4.73-.06-.37-.06-1.72-.21-1.89-.32-.19-.66-.3-1.02-.38-1.31-.3-4.96-.3-6.27,0-.37.09-.76.2-1.07.43-.07.61-.07,1.23-.16,1.84-.32,2.14-2.72,6.38-4.19,8.01-.39.43-.9,1.06-1.51.61l-.49-11.06c-2.68.02-5.4.05-7.98-.72-.28-.23-.7-3.39-.73-3.92-.03-.57.11-3.97-.09-4.11-.68-.11-1.38,0-2.06-.04-2.02-.09-4.07-.23-6.09-.31-.94-.04-2.41.29-3.05-.4v-.3c.49-.77,1.37-1.41,2.11-1.94,2.52-1.79,4.85-2.92,7.93-3.27.82-.1.85-.28,1.03-1.07.37-1.59.38-4.85,0-6.44-.16-.68-.19-.98-.93-1.07-3.16-.4-5.35-1.39-7.97-3.23-.76-.53-1.67-1.21-2.17-1.98v-.3c.19-.27.32-.36.65-.4,1.47-.18,3.47-.03,5.01-.09.24,0,.46-.1.69-.11.61-.02,4.78-.02,4.94-.21,0-2.44-.08-4.78.48-7.17.93-3.98,3.31-6.99,6.23-9.72-2.58-.25-5.17-.52-7.75-.7-2.79-.19-5.62-.19-8.4-.4-.61-.05-1.6-.05-1.85-.7v-.3c1.63-1.76,3.93-2.99,6.05-4.1,2.23-.54,4.58-.29,6.85-.45l-5.45-.15c-1.82-.16-3.89-1.58-5.38-2.62-.74-.51-1.55-1.04-2.07-1.78v-.3c.18-.49.58-.53,1.05-.6,2.85-.42,6.36-.3,9.3-.5,2.55-.18,5.11-.43,7.65-.7-3.02-2.77-5.54-6.07-6.35-10.2-.44-2.22-.35-4.45-.35-6.7-.91-.17-1.83-.06-2.75-.1-1.05-.04-2.14-.16-3.2-.2-1.45-.06-3.31.08-4.71-.09-.33-.04-.46-.14-.65-.4v-.3c.16-.14.2-.35.35-.5,1.45-1.54,6.17-4.21,8.23-4.57.49-.08,1.87-.08,2.12-.28.69-.58.66-4.63.61-5.6-.03-.45-.27-2.51-.6-2.7-.88-.15-1.77-.16-2.64-.36-1.95-.45-5.94-2.8-7.42-4.18-.26-.25-.48-.48-.65-.8v-.3ZM34.48,19.76c-.25-.13-.45-.2-.73-.22-1.6-.14-4.7-.13-6.31,0-.3.03-.55.11-.83.22l-.16,6.59-6.51.29c-.36.06-.43.73-.45,1.05-.13,1.53-.11,4.17,0,5.71.03.42.04,1.09.55,1.15,1.28.15,2.97-.05,4.31,0,.24,0,.46.1.69.11,1.43.05,2.88.02,4.3.2l5.35-.21c.01-1.09.07-2.17.1-3.25.04-1.93-.13-3.67-.2-5.59s-.08-4.03-.11-6.04ZM102.79,19.75c-.28-.11-.53-.19-.83-.22-1.61-.14-4.71-.15-6.31,0-.28.03-.48.1-.73.22-.03,2.01-.04,4.03-.11,6.04-.1,2.68-.26,4.78-.1,7.49.03.45-.03.91,0,1.35,1.78.13,3.57.25,5.35.21.21,0,.41-.1.6-.1,1.47-.04,2.94-.16,4.39-.21,1.35-.04,3.03.16,4.31,0,.51-.06.52-.74.55-1.15.11-1.54.13-4.18,0-5.71-.03-.35-.09-1.07-.55-1.05l-6.34-.21-.23-6.67ZM44.3,41.44c4.64-.94,9.18-4.92,11.02-9.23.14-.34.56-1.31.57-1.62,0-.32-.5-1.55-.67-1.92-1.56-3.53-5.49-7.3-9.16-8.54-.27-.09-1.4-.42-1.6-.4-.12,0-.2.05-.23.17-.63,2.33-1.15,4.7-1.5,7.1-.31,2.14-.46,3.5-.2,5.67.36,2.96.99,5.9,1.79,8.76ZM85.1,41.44c.57-1.96,1.03-3.96,1.37-5.98.56-3.29.7-5.13.21-8.45-.35-2.4-.87-4.76-1.5-7.1-.03-.13-.1-.17-.23-.17-.21-.02-1.33.31-1.6.4-3.66,1.23-7.62,5.02-9.16,8.54-.15.35-.67,1.63-.67,1.92s.43,1.3.57,1.62c1.84,4.32,6.38,8.29,11.02,9.23ZM64.8,20.44c-.12-.16-.18,0-.2.15-.06.49.03,1.1,0,1.61-.05.92-.13,1.87-.2,2.8-.14,1.68-.71,4.06-.71,5.6,0,.5.23,1.19.29,1.71.32,2.77.56,5.55.67,8.34.23.07.14-.21.15-.35.09-2.07.19-4.14.4-6.2.11-1.06.5-2.53.51-3.5,0-.7-.31-1.84-.4-2.61-.27-2.5-.5-5.02-.51-7.54ZM41.4,44.24c-2.76-.69-5.54-1.33-8.36-1.69-3.01-.38-5.27-.02-8.24.53-1.39.26-2.89.56-4.24.96-.16.05-.8.19-.83.34.81,4.09,3.9,7.82,7.38,10,.69.43,2.68,1.47,3.44,1.47.83,0,2.96-1.13,3.7-1.61,3.35-2.15,6.51-6,7.15-10ZM88,44.24c.64,4.01,3.8,7.85,7.15,10,.75.48,2.87,1.61,3.7,1.61.76,0,2.75-1.04,3.44-1.47,3.47-2.17,6.59-5.91,7.38-10-.03-.15-.67-.29-.83-.34-1.35-.4-2.85-.7-4.24-.96-2.97-.55-5.22-.91-8.24-.53-2.83.36-5.61.99-8.36,1.69ZM58.1,43.14c-.17-.04-.2.05-.3.15-2.55,2.63-5.02,4.87-8.68,5.87-.96,3.55-3.35,6.46-6.02,8.88l16.1,1.1-1.1-16ZM80.28,49.16c-3.66-1.01-6.13-3.25-8.68-5.87-.1-.1-.13-.19-.3-.15l-1.1,16,16.1-1.1c-2.68-2.41-5.06-5.33-6.02-8.88ZM64.8,50.34c-.12-.16-.18,0-.2.15-.1.75.05,1.71,0,2.5-.12,2.06-.72,2.97-1.76,4.64-1.79,2.9-2.83,3.81-5.75,5.55-2.03,1.21-2.75,1.36-5.14,1.46-1.21.05-2.44-.08-3.65.05l5.25.15c1.75.11,3.22,1.14,4.64,2.06,2.32,1.5,2.97,2.22,4.45,4.55,1.12,1.76,1.83,2.77,1.96,4.94.02.32-.08,2.61.05,2.65.23.07.14-.22.15-.35.15-3.71-.05-4.08,1.96-7.24,1.68-2.64,2.57-3.44,5.25-5.05,1.34-.81,2.21-1.41,3.84-1.56l5.25-.15c-1.21-.13-2.44,0-3.65-.05-.88-.04-2.14-.09-2.97-.33-1.11-.32-4.8-2.68-5.68-3.52s-3.16-4.42-3.57-5.53c-.57-1.51-.38-3.34-.42-4.93ZM42,64.64c-1.78,0-3.57-.07-5.35-.2-1.88-.14-4.46-.74-6.21-.7-1.85.04-4,.68-5.9.7l-5.45.25c2.15.1,4.31.16,6.45.35,1.43.13,3.83.7,5.09.66,1.43-.04,3.39-.52,4.92-.66,2.02-.19,4.07-.26,6.1-.3l.35-.1ZM110.3,64.64c-1.81,0-3.64-.06-5.45-.2s-4.45-.75-6.21-.7c-1.41.04-3.22.47-4.7.6-2.18.2-4.37.25-6.55.35,2.15.11,4.31.15,6.45.35,1.53.14,3.49.62,4.92.66,1.25.04,3.66-.53,5.09-.66,2.02-.18,4.07-.27,6.1-.3l.35-.1ZM59.2,70.24c-3.24.15-6.5.26-9.75.5-2.12.16-4.26.37-6.35.65,2.73,2.36,5.03,5.34,6.05,8.85,2.65.8,5.03,2.28,7.05,4.15.56.52,1.07,1.22,1.6,1.7.1.09.14.18.3.15l1.1-16ZM86.3,71.34l-16.1-1.1,1.1,16c.16.04.2-.06.3-.15.49-.45.97-1.11,1.5-1.6,2.03-1.89,4.41-3.45,7.1-4.2,1.11-3.56,3.36-6.5,6.1-8.95ZM41.4,85.14c-.68-4.11-3.88-7.93-7.34-10.1-.71-.45-2.71-1.5-3.5-1.51-.36,0-1.08.32-1.45.46-1.5.59-2.83,1.52-4.05,2.55-2.56,2.16-4.66,5.12-5.33,8.45.05.27,3.92,1.09,4.47,1.2,1.73.34,4.67.95,6.35.95,1.54,0,4.18-.54,5.77-.83,1.71-.32,3.39-.75,5.08-1.17ZM88,85.14c1.68.42,3.37.86,5.08,1.17,1.58.29,4.24.83,5.77.83,1.69,0,4.62-.61,6.35-.95.55-.11,4.42-.92,4.47-1.2-.66-3.34-2.77-6.29-5.33-8.45-1.22-1.03-2.55-1.97-4.05-2.55-.37-.14-1.09-.46-1.45-.46-.79,0-2.79,1.06-3.5,1.51-3.47,2.16-6.66,5.99-7.34,10.1ZM44.36,88.05c-.16.06-.3.74-.36.95-.69,2.39-1.2,5.23-1.49,7.71-.26,2.17-.11,3.53.2,5.67.36,2.43.86,4.88,1.58,7.22.24.17,1.71-.33,2.06-.45,3.58-1.32,7.38-5.02,8.89-8.51.17-.4.64-1.47.64-1.85,0-.25-.44-1.31-.57-1.62-1.78-4.18-6.38-8.4-10.95-9.12ZM84.68,88.06c-4.08.48-9.04,5.46-10.6,9.11-.13.31-.56,1.36-.57,1.62,0,.32.48,1.48.64,1.85,1.57,3.64,5.73,7.61,9.57,8.73.33.1,1.27.46,1.46.1.74-2.78,1.36-5.63,1.71-8.49.26-2.19.11-3.52-.2-5.67-.35-2.42-.87-4.82-1.53-7.17-.12-.16-.31-.09-.48-.07ZM64.8,88.74c-.12-.16-.18,0-.2.15-.06.46.03,1.03,0,1.51-.12,2.22-.37,4.47-.62,6.68-.06.53-.29,1.21-.29,1.71-.01,1.18.48,3.2.61,4.5.18,1.87.23,3.77.35,5.65.23.07.14-.21.15-.35.09-2.07.19-4.13.4-6.2.11-1.06.49-2.54.51-3.5.01-.72-.31-1.83-.4-2.61-.27-2.5-.49-5.02-.51-7.54ZM34.7,94.74c-1.71-.09-3.43-.25-5.15-.2-.21,0-.41.1-.6.1-1.46.04-2.95.05-4.39.21l-4.76.04c-.2.36-.27.79-.3,1.2-.11,1.5-.13,4.12,0,5.61.03.39.14.73.29,1.08l6.67.26.21,6.62c.2.07.36.17.59.19,1.53.16,4.95.14,6.51,0,.27-.02.45-.08.68-.2.12-3.53.17-7.12.47-10.66l-.21-4.25ZM103.01,102.95l6.64-.21c.12-.34.22-.69.25-1.05.12-1.49.13-4.33,0-5.81-.03-.35-.13-.7-.3-1-4.98.08-9.93-.62-14.9-.15-.02.45.03.91,0,1.35-.16,2.72,0,4.81.1,7.49.07,2.01.08,4.03.11,6.04.25.13.45.2.73.22,1.53.14,5.01.16,6.51,0,.23-.03.42-.13.63-.22l.23-6.67Z"/>
</svg>