<?xml version="1.0" encoding="UTF-8"?>
<svg id="Layer_1" data-name="Layer 1" xmlns="http://www.w3.org/2000/svg" viewBox="0 0 106.1 179.17">
  <path fill="#FFFFFF" d="M0,73.83c.03-2.28.14-4.65.2-6.95.08-3-.25-5.9,1.18-8.62.76-1.44,4.24-7.12,5.4-7.8.91-.53,1.51.01,1.69.94.24,1.27.14,2.87.22,4.18.45,7.38.81,14.83,1.6,22.2.02.15,0,.25.15.34,4.77-5.37,10.62-9.31,17.91-10.19,2.66-.32,5.52.09,7.99-.21.11-.01.23,0,.3-.1.2-1.95.16-3.91.24-5.86.05-1.12.16-2.27.21-3.39.09-2.32-.06-5.04.2-7.3.08-.69.4-.96,1.08-.78s1.67,1.52,2.11,2.09c1.81,2.27,3.54,5.42,4.72,8.08.93,2.1,1.25,4.04,1.3,6.35.51.24,1.01.45,1.56.59,2.35.56,7.66.53,10.02-.02,1.88-.44,1.43-.48,1.6-2.1.37-3.52,1.67-6,3.38-9.02.72-1.28,3.15-5.13,4.3-5.8.47-.27,1.31-.39,1.4.32.17,1.21.05,2.48.11,3.7.12,2.89.29,5.8.41,8.69.06,1.48.03,2.98.14,4.46.07.1.19.09.3.1,1.64.2,3.79-.08,5.51,0,4.17.17,8.29,1.24,11.91,3.29,3.29,1.86,6.06,4.48,8.63,7.22l.9-10.15c.6-5.21.22-10.95.9-16.1.16-1.19.6-2.44,1.95-1.35s5.08,7.03,5.72,8.68c.98,2.51.67,7.56.72,10.38l.1.24v10c-.17.1-.1.38-.1.55-.05,4.71-.45,9.52-1.01,14.19-.11.87-.47,2.13-.49,2.92-.02.96.46,2.73.59,3.81.51,4.4.86,8.96.91,13.39,0,.17-.06.44.1.55v10c-.17.1-.1.38-.1.55-.03,2.7.1,5.96-.31,8.59-.35,2.24-3.04,6.17-4.4,8.1-.43.61-1.55,2.29-2.25,2.45-1.13.25-1.32-.8-1.43-1.63-.63-4.68-.26-9.95-.8-14.7l-1-11.65c-4.09,4.55-8.91,8.31-14.98,9.77-3.76.91-7.46.73-11.31.74-.19.12-.19,3.97-.21,4.54-.15,3.68-.21,7.42-.41,11.09-.02.33-.06,1.11-.12,1.38-.12.54-.72.54-1.15.39-1.25-.42-4.23-5.34-4.94-6.66-1.24-2.29-2.55-4.71-2.87-7.33-.06-.46-.09-2.33-.24-2.51-.98-.52-2.12-.71-3.23-.83-1.62-.17-3.67-.19-5.3-.11-.77.04-4.05.38-4.45.95-.25,1.98-.31,3.85-1.07,5.73-1.15,2.83-3.3,6.61-5.22,8.98-.65.8-2.32,3.08-3,1.11l-.64-16.66c-.07-.1-.19-.09-.3-.1-2.59-.32-5.5.15-8.29-.21-7.15-.93-12.97-4.88-17.61-10.18-.15.1-.14.19-.15.34-.86,7.98-1.14,16.04-1.69,24.01-.07.98.25,3.62-1.25,3.56-.87-.04-2.14-1.97-2.63-2.67-1.92-2.72-4.15-5.91-4.42-9.28-.29-3.64-.15-7.35-.19-11.01,0-.17.06-.44-.1-.55v-3.7c.17-.1.1-.38.1-.55.05-5.21.33-10.32.91-15.49.14-1.24.59-2.95.59-4.11s-.45-2.94-.59-4.21c-.58-5.18-.85-10.27-.91-15.49,0-.17.06-.44-.1-.55.01-1.2-.02-2.4,0-3.6ZM59.19,80.85c-.38-.13-.72-.28-1.13-.32-3.17-.3-6.79.23-10.01,0-.26,0-1.05.23-1.13.47.07,4.81-.24,9.58-.41,14.39-.15,4.24.17,8.45.29,12.7,0,.24.1.46.11.69v5.59c.04.21,1.29.45,1.54.47,1.68.13,8.83.23,10.13-.17.12-.04.6-.21.62-.3-.02-3.87.14-7.74.29-11.59.19-4.87.3-9.72-.2-14.59l-.11-7.34ZM31.8,80.84c-5.05.75-9.81,4.15-13.09,7.94-2.25,2.6-4.11,5.54-4.99,8.9,1.5,5.16,5.23,9.92,9.56,13.03,2.49,1.79,5.44,3.41,8.52,3.71,1.24-4.33,2.13-8.78,2.7-13.25.13-1.02.41-2.53.42-3.49,0-1.16-.35-3.06-.52-4.28-.58-4.24-1.44-8.44-2.59-12.56ZM74.41,114.53c5.58-1.08,10.42-4.69,13.9-9.05,1.17-1.47,2.24-3.06,3.02-4.78.27-.59,1.07-2.48,1.09-3.02.01-.32-.2-.78-.3-1.1-2.07-6.39-9.06-13.37-15.53-15.27-.39-.12-1.71-.5-2.03-.48-.15.01-.17.06-.23.17-.18.31-.49,1.73-.61,2.19-.83,3.15-1.45,6.58-1.89,9.81s-.54,5.21-.1,8.57c.57,4.38,1.44,8.74,2.69,12.97Z"/>
  <path fill="#FFFFFF" d="M17.5.03c1.88.23,4.02,1.97,4.57,3.78,1.77,5.79-5.7,9.8-9.47,5.37C9.92,6.05,11.62.52,15.9.03c.38-.04,1.22-.05,1.6,0Z"/>
  <path fill="#FFFFFF" d="M90.3,179.13c-.39.05-1.31.05-1.7,0-1.64-.2-3.65-1.73-4.32-3.23-2.24-5.07,3.69-9.84,8.19-6.89,3.99,2.61,2.67,9.54-2.17,10.12Z"/>
  <path fill="#FFFFFF" d="M76.67,41.5c-.31.29-.9.48-1.32.53-3.27.41-7.09.41-10.4.5-5.81.16-11.58-.16-17.41,0-3.49.09-6.92.08-10.4-.09-1.96-.1-4.39-.15-6.3-.4-1.37-.18-1.85-.79-1.95-2.15-.07-.88-.1-3.37.2-4.11s1.04-1.07,1.8-1.2c2.56-.46,5.55-.2,8.15-.55h10.21c.2-.01.41.1.6.1,5.72.07,11.46-.27,17.2-.1,2.39.07,5.56.17,7.89.51,1.02.15,2.03.52,2.23,1.67.13.79.11,3.25.02,4.08-.04.38-.26.95-.54,1.21Z"/>
  <path fill="#FFFFFF" d="M16.08,32.76c7.2-.87,8.89,9.2,2.3,10.8-7.89,1.92-9.24-9.97-2.3-10.8Z"/>
  <path fill="#FFFFFF" d="M88.38,32.76c8.08-1.02,8.31,11.66.28,10.97-6.61-.56-6.64-10.17-.28-10.97Z"/>
  <path fill="#FFFFFF" d="M88.88,16.16c8.31-.86,7.62,12.95-.88,10.82-6.02-1.51-5.29-10.18.88-10.82Z"/>
  <path fill="#FFFFFF" d="M16.18,16.16c6.55-.62,8.61,8.71,2.32,10.72-7.92,2.52-10.06-9.99-2.32-10.72Z"/>
  <path fill="#FFFFFF" d="M44.19,152.66l4.67.07,2.89.21h2.71s2.79-.21,2.79-.21h9.11c.2-.01.4.1.6.1,2.16.08,4.34.14,6.5.3.71.05,1.73.07,2.38.22s1.23.75,1.35,1.45c.13.77.11,3.46,0,4.25-.27,1.87-2.65,1.75-4.12,1.88-5.71.48-11.48.42-17.2.31-6.57-.13-13.12.26-19.69-.11-1.32-.07-5.39-.2-6.32-.78-.31-.19-.57-.46-.71-.79-.35-.81-.34-4.33,0-5.17.36-.92,1.14-1.06,2.04-1.16,4.25-.49,8.77-.32,13.03-.58Z"/>
  <path fill="#FFFFFF" d="M88.78,151.56c8.06-.6,7.5,12.33-.6,10.94-6.26-1.08-6.01-10.45.6-10.94Z"/>
  <path fill="#FFFFFF" d="M16.48,151.56c2.71-.2,5.51,1.7,6,4.44.96,5.44-5.97,8.91-9.58,4.78-2.92-3.35-.98-8.88,3.58-9.22Z"/>
</svg>