<?xml version="1.0" encoding="UTF-8"?>
<svg id="Layer_1" data-name="Layer 1" xmlns="http://www.w3.org/2000/svg" viewBox="0 0 114.5 114.5">
  <path d="M37.3,0c.43.21.72.46,1.05.8,2.58,2.66,6.9,10.03,7.7,13.6.33,1.45.38,2.92.5,4.4.08.13.22.18.35.25,2.2,1.3,10.44,1.11,12.97.46.58-.15,1.08-.38,1.62-.63.15-1.6.2-3.2.58-4.77.87-3.53,4.97-10.43,7.48-13.12.38-.41.73-.78,1.25-1h.7c.35.23.45.44.5.85l.74,19.06c.07.1.19.09.3.1,2.21.27,5.09-.13,7.41,0,1.95.1,4.18.51,6.07,1.03,6.49,1.78,11.79,5.91,16.18,10.87l1.1-11.75c.63-5.92.33-12.23,1-18.1.09-.79.16-1.6.9-2.05h.8c1.16.79,1.93,2,2.72,3.13,1.42,2.03,4.3,6.25,4.75,8.55.57,2.91.39,6.94.43,9.97,0,.17-.06.44.1.55v11.9c-.17.1-.1.38-.1.55-.05,5.14-.49,10.49-1.11,15.59-.14,1.12-.6,2.79-.6,3.81,0,1.23.54,3.27.7,4.61.57,4.84.95,9.91,1.01,14.79,0,.17-.06.44.1.55v11.9c-.17.1-.1.38-.1.55-.04,3.37.27,9.09-1.14,12.06-1.05,2.19-4.04,6.87-5.65,8.65-1.44,1.58-8.11,5.86-10.15,6.55-2.65.89-7.5.66-10.4.7-.17,0-.44-.06-.55.1h-12.9c-.1-.17-.38-.1-.55-.1-5.04-.05-10.28-.5-15.29-1.11-1.06-.13-2.76-.59-3.71-.59s-2.65.46-3.71.59c-5.01.62-10.24,1.05-15.29,1.11-.17,0-.44-.06-.55.1h-12.9c-.1-.17-.38-.1-.55-.1-2.9-.03-7.77.19-10.4-.7-1.94-.65-9.12-5.21-10.35-6.75-.11-.14-.15-.33-.3-.45v-.7c.36-.87,1.43-.92,2.25-1,5.46-.55,11.28-.52,16.8-.9,4.29-.3,8.58-.73,12.85-1.15,0-.17-1.33-1.24-1.55-1.45-5.53-5.26-9.52-11.91-10.25-19.65-.27-2.92,0-5.9-.11-8.84-.48-.21-1.02-.08-1.53-.12-4.55-.3-9.15-.42-13.7-.6-1.29-.05-2.73.06-4.01-.09-.4-.05-.52-.2-.75-.5v-.7c.7-1.17,2.01-2.13,3.11-2.94,3.83-2.84,9.48-5.85,14.24-6.26,1.59-.14,1.62.3,2.1-1.5.76-2.83.89-10.35-.3-13-.07-.16-.2-.48-.35-.55-.24-.11-1.9-.1-2.35-.15-4.3-.48-10.41-3.9-13.84-6.56-.93-.72-2.04-1.5-2.61-2.54v-.7c.16-.16.26-.38.49-.46.22-.07,1.15-.13,1.46-.14,4.61-.25,9.29-.3,13.89-.51.53-.02,4.02-.01,4.14-.21.07-3.7-.2-7.34.45-11,.18-1.04.47-2.06.72-3.08,2.1-.61,4.31-1.09,6.5-1.2s5.16.29,7.31,0c.17-.02.3-.04.4-.2.11-1.48.08-2.97.15-4.45.2-4.54.22-9.16.51-13.69.02-.24.07-1.02.12-1.18.06-.21.35-.31.48-.47h.7ZM61.3,61.4l.41-7.95c-.3-5.25-.63-10.53-.71-15.79-.01-.89.08-1.78.06-2.66-.42-.29-.99-.46-1.5-.5-3.54-.31-7.52.24-11.11,0-.31.01-1.28.26-1.4.5-.05.08-.04.16-.05.25-.21,1.51.05,3.78,0,5.41-.03,1.22-.15,2.48-.21,3.69-.02.43.11,2.2-.19,2.41-1.59.12-3.17.1-4.76.14-.24,0-.46.1-.69.11-1.81.04-4.2-.22-5.91,0-.08.01-.17,0-.25.05l-.5,1.5c.2,3.56-.26,7.38,0,10.91.03.47.2,1.59.75,1.65,1.82.21,4.29-.06,6.21,0,3.69.09,7.39.39,11.1.5,2.48.08,4.63-.08,7.09-.2.55-.03,1.11.03,1.65,0ZM78.44,34.83c-.17.03-.74,2.27-.84,2.63-.85,3.21-1.49,6.62-1.99,9.91-.31,2.05-.91,5.19-.82,7.18.23,4.75,1.57,11.46,2.81,16.09.1.36.67,2.6.84,2.63,6.16-1.16,11.56-5.16,15.45-9.93,2.27-2.78,4.07-5.79,5.01-9.3-.94-3.5-2.73-6.52-5.01-9.3-3.9-4.77-9.29-8.77-15.45-9.93ZM53.48,74.83c-3.03.18-6.69.85-9.7,1.4-2.59.48-6.32,1.14-8.73,2.07-.09.03-.21.03-.23.14.61,3.56,2.3,6.79,4.39,9.69,3.22,4.46,8.7,8.99,14.03,10.57,1.09.32,1.67-.03,2.71-.4,4.93-1.77,9.88-5.95,12.93-10.17,2.09-2.89,3.78-6.13,4.39-9.69-.02-.11-.14-.11-.23-.14-2.41-.93-6.14-1.59-8.73-2.07-2.92-.54-8.02-1.57-10.84-1.4ZM104.7,104.8c-.04-1.79-.11-3.57-.2-5.35-.35-6.59-.76-13.23-1.4-19.8-.1-1-.17-2.11-.31-3.09-.01-.1-.05-.3-.14-.36-4.18,4.85-9.48,8.96-15.73,10.72-1.55,5.53-5.05,10.45-9.17,14.38-.42.4-.97.8-1.38,1.22-.09.09-.22.08-.17.28l12.85,1.1,15.65.9Z"/>
</svg>