<?xml version="1.0" encoding="UTF-8"?>
<svg id="Layer_1" data-name="Layer 1" xmlns="http://www.w3.org/2000/svg" viewBox="0 0 141.99 155.51">
  <path fill="#FFFFFF" d="M116.69,155.5c-.14.01-.36.02-.5,0-3.27-.4-3.97-5.06-.82-6.07,4.73-1.52,5.66,5.63,1.32,6.07Z"/>
  <path fill="#FFFFFF" d="M116.59,0c4.41.24,3.55,7.69-1.23,6.08-3.3-1.11-2.27-5.96,1.03-6.08.07,0,.13,0,.2,0Z"/>
  <path fill="#FFFFFF" d="M141.99,37.9v.9c-.57,2.37-3.38,3.71-5.29,1.84-1.02-.99-1.29-2.85-.45-4.03,1.64-2.33,5.15-1.4,5.74,1.29Z"/>
  <path fill="#FFFFFF" d="M25.69,155.5c-.14.01-.36.02-.5,0-4.37-.53-3.22-7.53,1.26-6.11,3.34,1.06,2.52,5.77-.76,6.11Z"/>
  <path fill="#FFFFFF" d="M25.49,0c4.09.31,4.13,6.24-.05,6.31S21.52.1,25.39,0h.1Z"/>
  <path fill="#FFFFFF" d="M141.99,116.8v.8c-.91,3.86-6.59,3.32-6.2-.85.28-3,4.4-3.77,5.82-1.01l.38,1.07Z"/>
  <path fill="#FFFFFF" d="M85.09,29.5c3.95-.34,7.94.52,11.09,2.96,1.27.98,2.32,2.2,3.55,3.23l7.03-6.48c.54.05.65.58.63,1.04-.1,2.36-1.27,6.32-2.7,8.2-.21.27-.67.54-.7.91-.03.44.79,1.45,1.1,1.8.58.67,3.27,3.4,4.06,3.31.49-.42.97-.89,1.52-1.25,1.49-.98,6-2.27,7.77-2.18.3.01.62.15.75.44l-.08.38-6.4,6.89c1.65,1.66,3.38,3.3,4.51,5.38,1.53,2.82,1.89,6,1.78,9.17,1.75-1.42,3.5-2.87,5.2-4.35,1.87-1.63,4.01-3.95,5.95-5.35,1.1-.8,1.32,0,1.23,1.03-.1,1.17-.69,3.88-1.14,4.96-.57,1.38-4.21,4.92-5.45,6.15-3.13,3.15-6.46,6.13-10.05,8.75l-2.55,3.25c.96.87,1.67,2.39,2.55,3.25s2.47,1.84,3.5,2.7c3.15,2.64,6.33,5.75,9.16,8.74,1.54,1.64,2.62,2.52,3.23,4.77.24.88,1,4.07.7,4.76-.23.54-.88.13-1.18-.08-2.15-1.54-4.57-4.15-6.65-5.95-1.48-1.28-3-2.5-4.5-3.75.12,3.29-.29,6.54-1.92,9.43-1.11,1.98-2.8,3.52-4.36,5.12l6.39,6.9c.39,1.04-1.01.82-1.66.75-1.68-.16-4.87-1.05-6.35-1.85-.41-.22-1.82-1.44-1.95-1.45-.47-.07-1.52.77-1.9,1.1-.66.57-3.2,3.11-3.25,3.86-.02.4.78,1.09,1.04,1.45,1.13,1.57,2.32,5.9,2.37,7.84,0,.41-.25,1.15-.76.86l-6.91-6.4c-1.25,1.04-2.32,2.34-3.64,3.33-3.14,2.36-7.11,3.24-10.99,2.86,1.08,1.4,2.2,2.76,3.35,4.1,1.97,2.3,4.26,4.53,6.15,6.85.3.36.74.8.45,1.24s-.72.33-1.18.29c-1.19-.1-3.69-.66-4.81-1.08-1.37-.51-3.28-2.54-4.4-3.6-2.7-2.57-5.45-5.4-7.84-8.26-.93-1.11-1.95-2.74-2.9-3.7-.77-.78-2.08-1.49-2.94-2.23l-2.97,2.24c-2.6,3.6-5.6,6.92-8.75,10.05-1.45,1.45-3.52,3.61-5.11,4.79-1.22.91-3.78,1.45-5.33,1.67-.62.09-2.21.45-2.02-.62,2.17-2.76,4.67-5.28,6.95-7.95.72-.84,1.4-1.73,2.15-2.55l.9-1.25c-3.97.39-8.04-.56-11.19-3.06-1.19-.94-2.16-2.11-3.27-3.13-.08-.01-.53.35-.64.44-2.16,1.84-4.11,3.98-6.25,5.85l-.4.2c-.73-.02-.4-1.93-.33-2.43.14-1.02.48-2.13.78-3.12.55-1.76,1.12-3.2,2.48-4.51.09-.45-1.14-1.91-1.48-2.29-.57-.65-2.85-2.9-3.65-2.84-.38.03-.63.48-.91.69-1.66,1.27-4.46,2.13-6.53,2.47-.54.09-2.01.33-2.41.07-.57-.36.02-.87.34-1.25,1.52-1.77,3.33-3.45,4.9-5.2.14-.15.95-1.07.95-1.15-.95-1.19-2.19-2.15-3.14-3.36-2.53-3.22-3.36-7.15-3.06-11.19-1.67,1.29-3.3,2.66-4.9,4.05-2.01,1.74-4,3.81-6.05,5.45-2.53,2.02-1.17-2.71-.9-3.8.16-.65.32-1.42.58-2.02.51-1.2,2.69-3.29,3.67-4.33,3.65-3.83,7.57-7.41,11.81-10.59l2.46-3.2-2.46-3.2c-4.32-3.22-8.29-6.9-12.01-10.79-1.1-1.16-3.16-3.11-3.65-4.55-.38-1.11-.75-2.91-.92-4.08-.12-.85-.39-2.29.97-1.67,3.78,3.3,7.43,6.78,11.4,9.85-.29-4.05.55-8.03,3.1-11.25.94-1.19,2.18-2.13,3.1-3.3,0-.08-.9-1.08-1.05-1.25-1.56-1.73-3.49-3.48-4.95-5.25-.43-.53-.8-1.17.26-1.21,1.77-.08,6.22,1.16,7.73,2.12.33.21,1.45,1.26,1.6,1.29.72.16,3.38-2.5,3.91-3.1.32-.37,1.28-1.58,1.28-2.02-.37-.57-.89-1.03-1.26-1.6-.95-1.45-2.04-5.34-2.12-7.08-.03-.58-.04-1.89.85-1.25,2.18,1.88,4.12,4.13,6.35,5.95.11.09.42.36.54.34,1.1-.99,2.05-2.16,3.22-3.09,3.17-2.52,7.24-3.47,11.25-3.1.08-.06-.43-.65-.5-.75-3-3.77-6.41-7.21-9.47-10.93-.18-.86.56-.86,1.21-.81,1.11.08,4.35.8,5.33,1.27.89.43,2.4,1.98,3.18,2.72,4.13,3.9,8.13,8.12,11.49,12.71l2.9,2.2c.86-.75,2.18-1.46,2.95-2.25,1.15-1.19,2.36-3.07,3.5-4.4,2.8-3.26,6.83-7.56,10.15-10.25,1.35-1.1,3.89-1.62,5.63-1.87.7-.1,1.81-.43,2,.5-.13.34-.36.63-.58.91-1.61,2.04-3.72,4.05-5.45,6.05-1.39,1.6-2.74,3.23-4.05,4.9ZM63.26,38.53c-3.55-1.97-8.89-2.14-12.54-.34-.24.12-1.23.65-1.23.86,0,.32,1.85,3.15,2.18,3.63.83,1.22,2.17,3.22,3.17,4.23.4.41,2.53,2.08,3,2.3.12.06.2.13.36.09.09-.73.55-1.39,1-1.95.82-1.01,1.98-2.14,2.89-3.11.76-.8,1.59-1.55,2.36-2.35.19-.44-.9-2.83-1.18-3.37ZM92.48,38.91c-3.01-1.92-6.85-2.33-10.31-1.68-.74.14-2.92.79-3.43,1.27-.39.36-1.33,2.85-1.25,3.35.97,1.22,2.22,2.26,3.3,3.4,1.17,1.24,2.54,2.5,3.05,4.15,1.1-.93,2.47-1.7,3.45-2.75.88-.95,1.87-2.39,2.62-3.48.32-.46,2.72-4.06,2.57-4.26ZM43.26,45.11c-.15.02-.53.32-.67.44-.87.7-2.79,2.63-3.5,3.5-.16.19-.55.64-.48.88.06.23,2.82,2.92,3.24,3.37,2.23,2.42,4.14,4.32,6.55,6.55,1.14,1.06,2.25,2.15,3.35,3.26.22.18.57-.11.75-.26.85-.67,3.18-3,3.85-3.85.13-.16.4-.51.3-.7-.94-1.03-1.96-1.98-2.91-3-2.51-2.71-4.64-4.84-7.35-7.35-.97-.89-1.88-1.86-2.84-2.76-.08-.09-.17-.1-.28-.08ZM98.46,45.12c-.23.06-3,2.9-3.47,3.34-2.82,2.61-5.04,4.96-7.65,7.75-.68.72-1.42,1.38-2.1,2.1-.05.11.08.27.14.37.33.64,3.24,3.54,3.92,4.09.24.19.66.59.95.36.89-.87,1.74-1.8,2.64-2.66,1.22-1.14,2.56-2.18,3.75-3.35,1.38-1.35,2.58-2.9,3.9-4.3.9-.96,1.89-1.85,2.81-2.8.1-.21-.21-.58-.35-.75-.62-.77-3.21-3.43-3.95-3.95-.18-.13-.34-.25-.58-.19ZM61.69,51.8l.97.49c.23.02.83-1.08.95-1.32.2-.4.42-.92.48-1.37l-2.4,2.2ZM80.19,51.6l-2.4-2c.3.95.73,1.84,1.3,2.66l1.04-.45.06-.21ZM70.89,53.3c-.9,2.55-3.11,4.2-4.8,6.15l4.94,5.35,4.85-5.33-3.09-3.22-1.9-2.95ZM43.19,65.2c.11-.12-.41-.77-.52-.93-2.09-3.02-4.28-4.69-7.33-6.67-.74-.48-1.92-1.29-2.69-1.62-.27-.12-.5.42-.62.62-1.6,2.76-1.88,6.5-1.3,9.6.14.73.79,3.03,1.3,3.5.27.26,1.5.76,1.9.9.31.11,1.74.54,1.95.45,1.27-1.22,2.5-2.52,3.8-3.7,1.01-.91,2.06-2.05,3.5-2.15ZM109.49,55.9c-1.3.68-2.56,1.45-3.77,2.28s-3.19,2.15-4.18,3.12c-1.03,1.02-1.88,2.63-2.85,3.75.74.33,1.54.47,2.15,1.05l5.24,4.95c.74-.09,1.47-.29,2.17-.55.33-.12,1.43-.57,1.64-.76.34-.32,1.05-2.39,1.18-2.92.86-3.63.44-7.74-1.57-10.92ZM62.26,63.82c-.79.13-3.27,2.63-3.88,3.33-.28.32-1.06,1.34-1.07,1.72,0,.25.87,1.14,1.1,1.46.98,1.4,2.13,5.2,2.28,6.92.16,1.81-1.23,6.4-2.28,7.93-.19.28-1.07,1.22-1.1,1.39-.04.23.28.74.41.95.54.88,3.04,3.37,3.93,3.87,1.14.64,1.06,0,1.94-.62,1.16-.83,2.27-1.16,3.62-1.58,1.91-.61,3.3-1.17,5.26-.6,1.79.52,4.14.97,5.65,2.05,1.03.74.99,1.47,2.3.66.87-.54,4.08-3.6,4.17-4.54.04-.43-.68-.98-.94-1.35-1.07-1.48-2.26-5.32-2.46-7.15-.17-1.46,1.25-6.14,2.02-7.48.21-.37,1.33-1.62,1.37-1.74.13-.48-.9-1.74-1.23-2.13-.6-.69-2.91-2.97-3.73-3.08-.3-.04-1.16.83-1.49,1.07-1.57,1.11-3.74,1.52-5.58,2.02-1.38.38-1.74.42-3.13.03-1.97-.55-4.14-.98-5.81-2.19-.35-.26-.96-.99-1.33-.93ZM43.89,70.3c.35-.1,1.92-.8,1.88-1.13l-.28-.52-1.6,1.65ZM97.99,70.3l-1.35-1.6-.25-.1-.26.7c.58.39,1.18.79,1.86,1ZM95.79,77.7c-2.8-.95-4.83-3.15-6.85-5.2l-5.65,5.25,5.65,5.23c1.21-1.16,2.32-2.41,3.66-3.42l3.19-1.86ZM46.09,77.8c2.87.91,4.81,3.26,6.94,5.19l5.66-5.24-5.74-5.16c-1.67,1.42-3.05,3.21-5.02,4.29l-1.83.92ZM35.37,84.53c-.66.07-2.95.86-3.38,1.32-.48.51-1.13,2.78-1.27,3.53-.61,3.32-.27,7.45,1.82,10.19,1.34-.72,2.63-1.53,3.88-2.39,1.17-.8,2.75-1.88,3.77-2.83,1.13-1.05,1.99-2.63,2.99-3.81.03-.23-1.02-.45-1.3-.59-1.05-.53-2.91-2.46-3.85-3.35-.36-.34-1.92-2.05-2.2-2.1-.16-.03-.31.01-.47.03ZM109.86,85.73c-.17-.17-1.95-.85-2.3-.95-.99-.29-1.24-.5-2.08.17-1.57,1.27-2.98,3.19-4.65,4.45-.72.54-1.3.75-2.15,1.05l2.79,3.7c2.53,1.99,5.11,3.94,7.96,5.44,1.77-2.58,2.26-5.87,1.95-8.95-.12-1.21-.39-2.42-.85-3.55-.09-.21-.58-1.29-.67-1.38ZM43.89,85.2l1.6,1.65c.06-.05.28-.44.28-.52.03-.3-1.54-1.04-1.88-1.13ZM97.89,85.3c-.65.09-1.2.58-1.76.9l.26.7c.18.03.25-.09.35-.2.39-.4.82-.95,1.15-1.4ZM71.09,90.7c-.14-.09-.81.65-.95.8-1.16,1.22-2.52,2.62-3.6,3.9-.1.12-.45.55-.45.65,1.7,1.94,3.87,3.63,4.8,6.15.11.08.67-1.15.76-1.29,1.13-1.88,2.7-3.31,4.22-4.86l-4.78-5.35ZM51.85,92.32c-2.38,2.51-5.17,4.64-7.57,7.13-1.22,1.27-2.34,2.67-3.55,3.95-.3.32-2.09,2-2.14,2.17-.05.21.2.56.33.73.61.79,2.96,3.14,3.75,3.75.19.14.51.37.75.35,1.03-.8,1.89-1.85,2.85-2.75,1.22-1.14,2.56-2.18,3.75-3.35,1.38-1.35,2.58-2.9,3.9-4.3.36-.38,2.69-2.58,2.74-2.77.05-.21-.2-.56-.33-.73-.65-.84-3.01-3.19-3.85-3.85-.13-.11-.49-.36-.64-.33ZM90.04,92.33c-.21.07-.38.18-.55.32-.92.73-3.22,3.03-3.95,3.95-.09.12-.36.47-.3.6,2.55,2.39,4.68,5.19,7.2,7.6.85.81,1.79,1.55,2.65,2.35.45.42,3.22,3.23,3.45,3.25.11.01.22-.03.32-.08l4.18-4.12.3-.6c-.95-1.01-1.96-1.98-2.9-3-2.51-2.71-4.64-4.84-7.35-7.35-1.03-.95-1.99-1.99-3.05-2.92ZM64.09,105.9c-.24-.94-.73-1.88-1.3-2.66l-1.1.46,2.4,2.2ZM80.19,103.7l-1.1-.46c-.55.82-.99,1.71-1.3,2.66.75-.65,1.59-1.26,2.29-1.96.08-.08.14-.09.11-.24ZM92.48,116.59c.13-.19-2.08-3.54-2.37-3.96-.8-1.17-1.88-2.75-2.82-3.78s-2.37-1.82-3.45-2.75c-.45,1.58-1.75,2.78-2.85,3.95-1.16,1.24-2.48,2.33-3.51,3.7-.06.46.9,2.92,1.25,3.25.27.25,1.31.66,1.7.8,3.1,1.11,7.37,1.02,10.39-.32.58-.26,1.1-.6,1.66-.89ZM58.19,106.2c-.11-.02-.19,0-.3.05-.49.24-2.68,1.97-3.1,2.4-1.14,1.15-2.73,3.55-3.64,4.96-.26.39-1.67,2.6-1.66,2.85,0,.22,1.05.78,1.3.9,3.13,1.52,7.81,1.59,11.03.32.21-.08,1.36-.61,1.45-.7.17-.17.77-1.66.87-1.98.09-.28.4-1.19.31-1.39-.86-.9-1.8-1.75-2.66-2.65s-1.86-1.89-2.59-2.81c-.46-.58-.93-1.18-1-1.95Z"/>
  <path fill="#FFFFFF" d="M125.77,114.32c.29-.04.53.02.77.18s1.78,1.75,1.83,1.97c.04.15.04.32.03.48-.05.59-1.58,2.22-2.05,2.75-1.98,2.24-4.11,4.11-6.2,6.2-2.21,2.2-4.24,4.55-6.55,6.65-.76.7-2.37,2.27-3.17,2.73-.35.2-.65.29-1.06.2-.33-.08-2.03-1.81-2.13-2.18-.15-.56.24-.94.56-1.35,2.27-2.97,5.3-5.56,7.95-8.15,3.04-2.97,5.73-6.23,9.1-8.9.26-.21.61-.54.92-.58Z"/>
  <path fill="#FFFFFF" d="M31.96,20.03c.33-.06.53-.05.82.13.26.16,1.83,1.79,1.88,2.02.1.44-.04.73-.28,1.08-1.08,1.54-3.42,3.91-4.8,5.3-.81.82-1.68,1.59-2.5,2.4-2.32,2.27-4.52,4.69-6.9,6.9-.86.8-2.67,2.57-3.57,3.13-.54.34-.88.27-1.38-.08-.32-.23-1.61-1.57-1.7-1.9-.16-.57.15-.92.46-1.35,2.24-3.15,5.87-6.06,8.6-8.8s5.47-6.14,8.55-8.35c.26-.19.49-.42.82-.48Z"/>
  <path fill="#FFFFFF" d="M15.76,114.32c.38-.07.62.03.92.24,2.67,2.27,5.13,4.72,7.61,7.19.53.52,1.01,1.22,1.54,1.76,2.78,2.74,6.23,5.6,8.55,8.75.28.38.41.76.22,1.22-.06.14-1.65,1.76-1.83,1.87-.47.3-.92.16-1.37-.12-1.01-.65-2.69-2.29-3.63-3.17-1.88-1.76-3.53-3.74-5.34-5.56-2.74-2.75-6.28-5.59-8.55-8.75-.27-.37-.48-.69-.38-1.17s1.79-2.16,2.25-2.25Z"/>
  <path fill="#FFFFFF" d="M109.46,20.02c.42-.09.68.01,1.02.23.9.59,2.37,2.01,3.21,2.79,2.3,2.14,4.43,4.52,6.65,6.75,2.44,2.46,5.2,4.82,7.35,7.55.42.54.9.98.66,1.75-.05.17-1.65,1.81-1.86,1.94-.32.2-.69.23-1.03.04-2.59-2.14-5.01-4.45-7.37-6.83-3.36-3.4-7.35-6.99-10.29-10.71-.44-.55-.81-.88-.42-1.62.19-.37,1.7-1.83,2.09-1.91Z"/>
  <path fill="#FFFFFF" d="M102.96,136.23c4.8-.75,4.74,6.42.48,6.18-3.71-.21-4.05-5.62-.48-6.18Z"/>
  <path fill="#FFFFFF" d="M2.66,114.03c4.44-.6,4.84,6.83-.1,6.15-3.53-.48-3.33-5.68.1-6.15Z"/>
  <path fill="#FFFFFF" d="M2.56,35.33c4.87-.71,4.6,6.76.1,6.15-3.46-.47-3.61-5.64-.1-6.15Z"/>
  <path fill="#FFFFFF" d="M109.97,142.83c4.17-.2,4.05,6.21.16,6.28s-4.46-6.07-.16-6.28Z"/>
  <path fill="#FFFFFF" d="M110.06,6.44c4.55,0,3.76,7.68-1.09,6.04-3.33-1.12-2.26-6.03,1.09-6.04Z"/>
  <path fill="#FFFFFF" d="M9.47,107.53c2.73-.27,4.48,3.17,2.62,5.22-1.37,1.51-3.94,1.24-5.02-.48-1.2-1.9.2-4.53,2.4-4.74Z"/>
  <path fill="#FFFFFF" d="M31.57,142.83c3.87-.3,4.68,5.15,1.12,6.13-4.28,1.18-5.48-5.79-1.12-6.13Z"/>
  <path fill="#FFFFFF" d="M9.16,41.83c3.82-.56,5.01,4.3,1.96,5.86-2.44,1.25-5.17-1.3-4.34-3.84.32-.97,1.37-1.87,2.38-2.02Z"/>
  <path fill="#FFFFFF" d="M103.26,13.13c4.34-.53,4.68,7-.38,6.13-3.39-.58-3.18-5.7.38-6.13Z"/>
  <path fill="#FFFFFF" d="M131.46,41.83c3.57-.56,5.27,3.72,2.36,5.66-2.74,1.82-5.96-1.52-4.34-4.24.39-.65,1.23-1.31,1.98-1.42Z"/>
  <path fill="#FFFFFF" d="M131.76,107.53c3.91-.51,4.9,5.64.97,6.17-4.5.6-4.81-5.66-.97-6.17Z"/>
  <path fill="#FFFFFF" d="M31.77,6.43c4.02-.11,4.43,6.21.07,6.28-3.99.06-3.98-6.18-.07-6.28Z"/>
  <path fill="#FFFFFF" d="M37.66,136.23c3.5-.55,5.3,3.7,2.36,5.66-2.32,1.55-5.1-.54-4.71-3.21.16-1.12,1.22-2.28,2.35-2.45Z"/>
  <path fill="#FFFFFF" d="M37.96,13.13c1.4-.17,2.94.84,3.37,2.18,1.04,3.23-3.26,5.52-5.4,2.9-1.49-1.83-.31-4.79,2.03-5.08Z"/>
  <path fill="#FFFFFF" d="M62.56,67.02c.21-.02.34.07.52.13.99.35,3.42,2.66,4.3,3.5,1.22,1.14,2.33,2.41,3.56,3.54l.14-.04c1.3-1.47,2.73-2.88,4.2-4.21.73-.66,2.26-2.15,3.03-2.57.46-.25.96-.45,1.44-.2.21.11,1.69,1.55,1.83,1.77.39.59.15.99-.2,1.5-.69.98-2,2.34-2.85,3.25-1.3,1.39-2.74,2.66-4.05,4.05,1.28,1.35,2.68,2.59,3.95,3.95.6.64,3.09,3.32,3.27,3.93.11.37.1.59-.12.92-.12.19-1.56,1.63-1.75,1.75-.7.46-1.52-.17-2.1-.6-1.21-.9-2.64-2.29-3.75-3.35-1.04-.98-2.01-2.06-3.05-3.05-1.28,1.21-2.46,2.54-3.75,3.75-.89.83-2.52,2.41-3.5,3-.49.29-.96.55-1.5.3-.25-.12-1.69-1.5-1.84-1.75-.4-.63-.05-1.22.35-1.74.96-1.27,2.47-2.83,3.59-4.01,1.03-1.07,2.11-2.09,3.2-3.1-2.15-2-4.26-4.1-6.15-6.35-.49-.58-1.24-1.25-1.16-2.05.06-.53,1.84-2.28,2.38-2.33Z"/>
</svg>