<?xml version="1.0" encoding="UTF-8"?>
<svg id="Layer_1" data-name="Layer 1" xmlns="http://www.w3.org/2000/svg" viewBox="0 0 138.62 138.14">
  <path d="M.02,44.54c-.02-.16-.02-.44,0-.6.46-3.77,6.66-2.77,5.45,1.2-.87,2.87-5.08,2.36-5.45-.6Z"/>
  <path d="M138.62,32.14v1.2c-1.02,3.55-6.41,2.34-5.39-1.44.27-1.01,1.32-1.84,2.35-1.94,1.46-.14,2.62.85,3.04,2.19Z"/>
  <path d="M138.62,93.24v1.3c-1.11,3.32-6.05,2.43-5.48-1.23.15-.96,1.16-2.03,2.13-2.17,1.68-.23,2.76.56,3.34,2.09Z"/>
  <path d="M.02,33.04c-.02-.16-.02-.44,0-.6.34-2.74,4.26-3.48,5.35-.8,1.64,4.04-4.86,5.36-5.35,1.4Z"/>
  <path d="M44.92,138.14h-1.2c-3.54-1.04-2.32-6.4,1.44-5.39.94.25,1.84,1.28,1.94,2.25.17,1.51-.79,2.7-2.19,3.14Z"/>
  <path d="M.02,105.74c-.02-.15-.02-.45,0-.6.49-4,7-2.66,5.35,1.4-1.07,2.63-4.97,1.93-5.35-.8Z"/>
  <path d="M138.62,43.64v1.2c-.27.95-1.16,2-2.17,2.18-3.4.58-4.63-4.07-1.66-5.26,1.63-.65,3.34.24,3.84,1.89Z"/>
  <path d="M33.42,138.14h-1.2c-2.27-.62-3.07-3.45-1.1-4.95,1.67-1.28,4.16-.3,4.39,1.81.16,1.48-.69,2.71-2.09,3.14Z"/>
  <path d="M95.02,138.14h-1.3c-3.29-1.02-2.57-5.8.95-5.5,3.05.25,3.22,4.68.35,5.5Z"/>
  <path d="M.02,94.14c-.02-.14-.02-.36,0-.5.43-3.52,5.61-3.2,5.61.25s-5.19,3.69-5.61.25Z"/>
  <path d="M138.62,104.74v1.3c-.98,3.33-5.8,2.61-5.5-.95.25-2.98,4.71-3.18,5.5-.35Z"/>
  <path d="M106.52,138.14h-1.2c-3.88-1.08-1.94-6.96,1.8-5.25,2.42,1.11,1.87,4.59-.6,5.25Z"/>
  <path d="M59.03,25.42l.79.21c.15-.95.92-5.3,1.7-5.65.47-.21.74.25.85.65.74,2.65.98,5.54,1.82,8.28,1.02,3.35,1.94,5.49,5.98,5.12,2.24-.21,3.13-1.75,3.85-3.65,1.24-3.25,1.64-6.78,2.46-10.14.86-1.04,1.4.96,1.59,1.59.37,1.2.55,2.47.8,3.7.06.17.69-.09.73-.12.19-.17,1.07-4.25,1.25-4.9.71-2.54,2.23-8.33,4.28-9.92,2.85-2.22,9.19-.2,12.06,1.42,1.06.6,2,1.38,2.98,2.09,2.18-1.93,4.8-3.24,7.63-3.95,2.47-.61,6.02-1.2,7.87.97s2.5,5.67,3.47,8.38c1.48.48,3,.85,4.45,1.4,4.64,1.73,6.1,3.38,5.18,8.53-.61,3.38-2.02,6.42-4.22,9.05,2.18,2.68,3.64,5.71,4.24,9.13.8,4.58-.17,6.42-4.37,8.17-3.51,1.46-7.5,2.23-11.16,3.24l-.24.71c1.56.38,3.54.56,5,1.25.93.44.96,1.03-.08,1.32-3.04.83-10.13,1.5-12.27,3.73-1.44,1.5-1.45,4.6.01,6.09s6.22,2.49,8.34,2.96c1.25.28,2.96.42,4.1.8,1.45.47-.02,1.24-.71,1.5-1.35.51-2.97.77-4.4.95l.22.78c3.23.84,6.51,1.59,9.65,2.7,4.46,1.57,6.7,2.82,6.01,8.06-.46,3.53-2.03,7.07-4.38,9.73,2.02,2.46,3.37,5.1,4.06,8.22.61,2.73,1.03,5.88-1.54,7.7-2.31,1.64-5.28,2.23-7.91,3.14-.97,2.6-1.91,7.69-4.46,9.19-2.73,1.61-8.29.02-10.97-1.36-1.3-.67-2.45-1.59-3.63-2.45-2.12,1.88-4.6,3.15-7.34,3.87-5.22,1.36-7.9,1.05-9.97-4.17-1.38-3.48-2.2-7.32-3.14-10.93l-.81-.27c-.2,1.49-.47,3.31-1.05,4.7-.33.8-1.03,1.57-1.42.32s-.55-3.08-.86-4.44c-.44-1.96-1.48-6.58-2.87-7.93-1.47-1.43-4.81-1.44-6.35-.14-2.37,2-3.11,9.48-3.9,12.5-.11.43-.53.86-.95.54-.82-.63-1.37-4.46-1.6-5.55l-.78.22c-.82,3.49-1.66,7.15-2.95,10.5-1.88,4.91-3.73,6.03-9.06,4.91-3.17-.67-5.99-2.03-8.47-4.1-2.65,2.19-5.73,3.64-9.13,4.24-4.89.85-6.59-.39-8.32-4.82-.61-1.57-1.04-3.22-1.52-4.83-1.98-.67-4.11-1.16-6.01-2.04-3.63-1.68-4.37-3.56-3.73-7.5.57-3.52,1.98-6.71,4.27-9.43-.54-.92-1.28-1.74-1.84-2.66-1.68-2.77-3.61-8.79-2.01-11.79,1.22-2.28,6.06-3.64,8.45-4.35,2.24-.67,4.52-1.2,6.78-1.77l.12-.73c-1.02-.23-4.95-.82-5.51-1.59-.3-.41.07-.81.48-.93.76-.22,1.82-.3,2.63-.47,2.26-.48,4.7-.96,6.87-1.73,1.58-.56,3.24-1.26,3.8-3,2.24-7.05-9.12-7.15-13.28-8.37-.41-.12-.75-.4-.54-.85.37-.8,4.7-1.49,5.65-1.7l-.3-.75c-2.58-.6-5.15-1.23-7.68-2.02-2.22-.7-6.46-1.96-7.54-4.16-1.4-2.84.23-8.28,1.67-10.97.64-1.2,1.49-2.24,2.25-3.35-1.79-2.22-3.06-4.54-3.79-7.31s-1.45-6.42,1.16-8.42c2.25-1.73,5.45-2.38,8.11-3.24.41-1.45.8-2.92,1.32-4.33,1.85-5.04,3.61-6.34,9.12-5.22,3.2.65,6.06,2.03,8.53,4.15,2.56-2.23,5.68-3.66,9.03-4.25,4.88-.86,6.64.27,8.39,4.74,1.34,3.42,2.2,7.23,3.04,10.81ZM35.11,17.24c-2.05-.74-4.63-1.37-6.82-1.08-3.29.45-3.55,5.16-4.48,7.62-2.38.83-7.21,1.25-7.59,4.41-.26,2.21.27,4.79,1.09,6.84l.25-.1c3.03-2.95,6.67-5.22,10.52-6.93,1.55-3.54,3.62-6.88,6.18-9.77.14-.16.96-.85.85-1ZM54.42,28.84c-.45-2.18-.93-4.37-1.53-6.52-.65-2.32-1.3-5.89-4.22-6.18-1.72-.17-4.97.29-6.52,1.08-.09.05-.16-.03-.13.17,3.23,3.27,5.59,7.27,7.45,11.45h4.95ZM84.32,28.84h5c1.66-4.3,4.27-8.19,7.4-11.55-2.14-.86-6.5-1.94-8.45-.45-1.41,1.08-2.06,3.99-2.52,5.68-.57,2.08-1.07,4.2-1.43,6.32ZM114.83,23.82c-.62-1.89-1.07-5.15-2.42-6.63-1.67-1.83-6.33-.95-8.4-.1-.12.05-.47.12-.4.29,2.93,3.09,5.26,6.72,6.99,10.61,2.91,1.34,5.68,2.92,8.2,4.9.78.61,1.6,1.51,2.36,2.04.08.06.1.14.25.1.53-1.57,1-3.18,1.1-4.85.21-3.7-1.12-4.43-4.32-5.48-1.1-.36-2.24-.63-3.36-.89ZM45.12,28.84c-.58-2.61-1.78-5.01-3.55-7-.39-.44-2.59-2.59-3-2.59-.55.27-1.13.77-1.6,1.19-2.5,2.23-4.24,5.11-4.95,8.4h13.1ZM106.62,28.84c-.5-2.81-1.94-5.4-3.9-7.45-.31-.33-2.27-2.14-2.55-2.14-.72-.02-3.67,3.31-4.17,4.02-1.18,1.66-1.98,3.57-2.38,5.57h13ZM28.92,32.04c-3.98.59-7.38,3.25-9.67,6.45,2.26,3.28,5.69,5.79,9.67,6.55v-13ZM109.72,45.04c3.96-.75,7.48-3.22,9.7-6.55-2.24-3.25-5.71-5.86-9.7-6.45v13ZM35.32,35.34v6.45c0,.37.22,1.37.35,1.75.46,1.28,1.82,2.36,3.2,1.91,1.92-.63,2.34-2.47,2.24-4.3,1.71-.06,3.74-.32,4.35-2.2.39-1.2-.24-2.47-1.32-3.08-1.44-.81-6.31-.74-8.08-.62-.25.02-.49.11-.75.1ZM55.72,35.24h-4.3v5.9h4.3l.11-.43c-.75-.45-.33-1.76-.33-2.52s-.41-2.04.33-2.52l-.11-.43ZM87.32,35.24h-4.25c-.45,0,.11.72.13.77.3.73,0,1.6.02,2.38,0,.59.21,1.12.06,1.75-.03.14-.65.99-.21.99h4.25v-5.9ZM103.32,35.34c-.22-.01-.42-.09-.65-.1-1.82-.13-6.4-.18-7.96.55-1.15.54-1.93,1.86-1.5,3.11.67,1.95,2.49,2.12,4.3,2.25.06,1.62.26,3.41,1.9,4.15.97.44,1.71.33,2.59-.3.63-.45,1.31-1.84,1.31-2.59v-7.05ZM28.92,49.34c-4.29-1.68-8.19-4.27-11.55-7.4-.63,1.44-1.06,3.07-1.15,4.64-.24,4.02,1.01,4.67,4.53,5.78,2.67.84,5.43,1.44,8.18,1.97v-5ZM109.72,54.34c2.52-.46,5.04-1.03,7.5-1.75,4.24-1.25,5.78-1.9,5.19-6.79-.06-.47-.76-3.86-1.14-3.86-3.3,3.19-7.27,5.73-11.55,7.4v5ZM79.59,50.96l-.73-.13c-.25,1.1-.76,4.77-1.55,5.45-.42.36-.84.04-.97-.42-.35-1.19-.49-2.85-.77-4.13-.5-2.26-1.5-7.26-3.36-8.64-1.52-1.12-4.46-1.04-5.93.16-2.4,1.97-3.08,9.48-3.91,12.49-.1.35-.21.64-.61.7-.09.02-.16-.01-.24-.05-.79-.36-1.55-4.7-1.7-5.65l-.79.21-1.66,6.39-6.18,1.62-.37.72c.98.35,5.2.9,5.63,1.78.26.53-.3.73-.71.84-3.09.84-9.98,1.48-12.22,3.68-1.5,1.46-1.5,4.65-.04,6.14s6.24,2.49,8.34,2.96c1.25.28,2.96.42,4.1.8s.4,1.06-.34,1.37c-1.41.6-3.25.87-4.77,1.08l.32.83,6.23,1.67,1.66,6.39.79.21c.15-.97.88-5.27,1.7-5.65.52-.24.73.22.85.65.88,3.08,1.43,10.02,3.68,12.27,1.39,1.38,4.34,1.5,5.96.48,1.93-1.23,2.86-5.67,3.36-7.84.36-1.57.54-3.56.97-5.03.07-.23.28-.54.53-.58.12-.02.23,0,.35.05.83.41,1.34,4.45,1.6,5.4.03.11.03.18.14.25l.66-.26,1.69-6.39,6.39-1.67.12-.74c-.87-.15-5.35-.95-5.59-1.72-.12-.42.19-.68.56-.8,1.18-.4,3.13-.56,4.44-.86,2.78-.62,8.16-1.47,8.93-4.67,1.36-5.63-5.73-6.49-9.65-7.35-1.16-.26-2.63-.38-3.71-.69-1.19-.35-.46-1.08.31-1.4,1.51-.64,3.23-.74,4.79-1.2l-.32-.68-6.36-1.69-1.64-6.36ZM54.42,47.54h-4.95c-.31.31-.34.96-.65,1.25-.25.23-.95.45-1.3.55v5l5.58-1.22,1.32-5.58ZM89.32,47.54h-5l1.25,5.5,5.55,1.3v-5l-1.28-.53-.52-1.27ZM41.12,51.34h-5.8v4c.52.14.46-.16.66-.29.33-.21,4.19-.15,4.62.06.16.08.13.35.52.23v-4ZM103.32,51.34h-5.8v4c.52.14.46-.16.66-.29.29-.18,2.25-.12,2.79-.12.43,0,1.01-.05,1.4.01s.52.49.96.39v-4ZM35.32,82.74v4h5.8v-4c-.41.11-.62.43-1.06.49-.65.09-1.23-.1-1.79-.1-.67,0-1.31.23-2.05.06-.35-.08-.48-.49-.9-.45ZM97.52,82.74v4.1c.07.03.12-.1.15-.1h5.65v-4c-.41.11-.62.43-1.06.49-.65.09-1.23-.1-1.79-.1-.64,0-1.35.24-2.06.07-.35-.09-.44-.45-.89-.46ZM28.92,88.84v-5.1c-2.24.55-4.5,1-6.72,1.63s-5.69,1.32-5.98,4.02c-.24,2.21.27,4.82,1.15,6.85,3.33-3.16,7.26-5.73,11.55-7.4ZM91.12,88.84v-5.1l-5.58,1.32-1.22,5.58h5c.13-.29.33-1.08.53-1.27.18-.18.98-.44,1.27-.53ZM54.42,90.64l-1.3-5.55-5.6-1.25v4.85c.29.33,1.04.43,1.3.7.29.29.34.95.65,1.25h4.95ZM109.72,83.84v4.85c2.19,1.04,4.36,2.09,6.39,3.41,1.84,1.19,3.52,2.59,5.16,4.04.2.03.13-.04.17-.13.75-1.47,1.23-4.69,1.08-6.32-.29-3.12-3.9-3.74-6.38-4.42-2.1-.58-4.27-1.1-6.42-1.43ZM35.32,96.29c-.17,2.1.13,4.42,0,6.55h7.15c.25,0,1.04-.27,1.32-.38,1.67-.7,2.31-2.38,1.31-3.95-.8-1.25-2.61-1.47-3.98-1.47.07-1.67-.23-3.5-1.93-4.22-.72-.31-.97-.33-1.69-.06-1.58.59-2.05,1.94-2.17,3.53ZM103.32,102.84v-7.05c0-.96-.76-2.31-1.6-2.8-1.02-.6-1.95-.48-2.9.21-1.1.8-1.28,2.6-1.31,3.84-1.7.04-3.43.23-4.19,1.96-.37.84-.36,1.28.07,2.1.48.93,1.84,1.73,2.87,1.73h7.05ZM28.92,93.14c-3.97.74-7.45,3.24-9.67,6.55,2.32,3.2,5.69,5.78,9.67,6.45v-13ZM109.72,106.14c2.05-.32,3.99-1.18,5.67-2.38,1.18-.84,2.77-2.31,3.63-3.47.11-.16.4-.5.38-.68-2.28-3.24-5.7-5.81-9.68-6.47v13ZM55.72,97.04h-4.3v5.8h4.3c.24-.46-.22-.52-.29-.96-.1-.61.08-1.32.07-1.89,0-.76-.42-2.06.33-2.52l-.11-.43ZM87.32,97.04h-4.4c-.13.4.18.54.28.77.3.73,0,1.6.02,2.38,0,.56.19,1.06.08,1.67-.08.42-.45.55-.38.97h4.4c.03-.07-.1-.12-.1-.15v-5.5s.15-.11.1-.15ZM17.37,103.14c-.42.1-1.12,3.87-1.16,4.45-.19,2.8.09,4.21,2.78,5.33,1.55.65,3.24.94,4.83,1.47.32.89.49,1.83.77,2.73,1.05,3.34,1.55,5.16,5.58,4.92.77-.04,4.52-.66,4.9-1.2l-2.19-2.61c-1.95-2.5-3.52-5.26-4.86-8.14-3.94-1.67-7.47-4.11-10.65-6.95ZM121.41,103.14c-.08-.06-.55.32-.65.4-3.21,2.67-6.25,5-10.16,6.64-1.59,3.89-3.96,6.92-6.59,10.11-.08.09-.47.57-.4.65,1.6.54,3.25,1.01,4.95,1.1,2.44.13,3.82-.38,4.8-2.7.65-1.55,1-3.36,1.47-4.98,2.51-.84,7.21-1.2,7.65-4.5.29-2.12-.37-4.73-1.08-6.72ZM45.12,109.24h-13.1c.78,3.96,3.23,7.46,6.55,9.7,3.31-2.24,5.77-5.74,6.55-9.7ZM54.42,109.24h-5c-1.69,4.28-4.23,8.22-7.4,11.55,0,.37,3.39,1.08,3.86,1.14,5.38.66,5.76-1.57,7.01-6.07.61-2.18,1.09-4.4,1.53-6.62ZM84.32,109.24c.31,2.03.79,4.04,1.33,6.02.99,3.66,1.32,6.99,5.93,6.78,1.67-.08,3.66-.47,5.14-1.25-2.3-2.35-4.31-5.14-5.85-8.05-.61-1.15-1.06-2.37-1.7-3.5h-4.85ZM106.62,109.24h-13c.69,3.97,3.21,7.4,6.47,9.68.44.04,2.88-2.42,3.29-2.88,1.65-1.89,2.83-4.32,3.25-6.8Z"/>
  <path d="M25.39,64.36c2.87-.48,4.59,2.66,2.53,4.73,1.79,1.55.74,4.54-1.55,4.75-2.73.25-3.99-2.87-2.16-4.76-.93-1-1.2-2.35-.46-3.55.3-.5,1.06-1.06,1.64-1.16Z"/>
  <path d="M111.99,64.36c2.97-.5,4.46,2.7,2.43,4.73,1.69,1.35.92,4.44-1.26,4.74-2.76.38-4.39-2.74-2.44-4.74-.85-1.08-1.19-2.11-.48-3.38.33-.59,1.08-1.23,1.75-1.35Z"/>
  <path d="M65.55,114.1c-1.99-2.03.13-5.53,2.89-4.54.23.08.82.48.92.48.06,0,.73-.46,1.05-.55,4.11-1.17,4.95,5.97.26,5.34-.47-.06-1.16-.58-1.31-.59-.17,0-.73.42-1.09.51-.97.23-2.02.07-2.73-.65Z"/>
  <path d="M67.48,23.27c.63,0,1.31.25,1.8.64,1.34-.92,3.26-.87,4.22.59,1.7,2.6-1.8,5.7-4.13,3.55-2.19,1.8-5.08-.06-4.51-2.82.24-1.16,1.49-1.95,2.62-1.96Z"/>
  <path d="M93.69.06c4.57-.77,4.35,6.11.2,5.45-3.09-.49-2.93-4.99-.2-5.45Z"/>
  <path d="M43.69.06c4.02-.64,4.61,4.98,1.05,5.45-3.81.5-4.08-4.97-1.05-5.45Z"/>
  <path d="M32.19.06c4.45-.71,4.32,6.1.12,5.43-3.11-.49-2.9-4.99-.12-5.43Z"/>
  <path d="M105.19.06c2.21-.37,4.08,1.44,3.33,3.63-1.01,2.97-5.8,2.28-5.3-1.5.12-.87,1.09-1.99,1.97-2.13Z"/>
  <path d="M67.19,85.06c.83-.08,1.48.2,2.17.64,1.4-1.17,3.64-.74,4.34,1,1.09,2.71-2.14,5.05-4.36,3.15-.96.75-2.2.97-3.26.27-2.14-1.4-1.51-4.8,1.11-5.06Z"/>
  <path d="M66.99,47.66c.93-.14,1.66.08,2.38.65,1.3-1.19,3.35-.8,4.19.73,1.24,2.26-.89,4.73-3.3,3.9-.27-.09-.79-.48-.91-.49s-.62.4-.88.49c-3.96,1.36-5.05-4.72-1.48-5.28Z"/>
</svg>