<?xml version="1.0" encoding="UTF-8"?>
<svg id="Layer_1" data-name="Layer 1" xmlns="http://www.w3.org/2000/svg" viewBox="0 0 137.61 137.5">
  <path d="M7.61,137.5c-.72-.32-1.7-1.45-2.34-1.71-.17-.07-.3.02-.45-.03-.28-.09-2.95-2.7-3.05-2.96-.45-1.23-.8-1.36-1.42-2.38-.23-.39-.51-.73-.21-1.18,1.31-.75,2.57-1.58,3.8-2.45,1.87-1.32,6.53-4.7,7.25-6.75.83-2.37-1.41-5.71-2.64-7.72-.88-1.43-2.39-3.23-3.08-4.62-.86-1.73,1.47-.64,2.11-.31,1.06.55,2.09,1.34,3.08,2.02l.42-.65c-1.23-1.94-2.43-3.92-3.52-5.95s-3.07-5.7-2.95-7.85c.2-3.55,6.26-6.71,9.28-7.52,1.15-.31,2.33-.43,3.5-.65.22-1.2.35-2.4.67-3.58.82-2.99,3.93-8.91,7.41-9.19,2.2-.17,6.04,1.91,8,2.97s3.96,2.27,5.88,3.49l.65-.42c-.67-.99-1.46-2.02-2.02-3.08-.33-.63-1.42-2.96.31-2.11,1.39.69,3.19,2.21,4.62,3.08,2.01,1.23,5.35,3.47,7.72,2.64,2.05-.72,5.43-5.38,6.75-7.25.87-1.23,1.69-2.5,2.45-3.8.55-.35.87.02,1.3.29.94.59,1.08.92,2.19,1.31.31.11,2.93,2.76,3.03,3.08.38,1.19.97,1.46,1.53,2.47.18.33.37.6.07.94-.28.31-1.64.98-2.1,1.29-2.16,1.45-7.93,5.48-8.9,7.7s.96,5.23,2.07,7.13c1.04,1.77,2.63,3.66,3.52,5.38.18.35.4,1-.21,1.07-1.06.11-4.05-2.11-4.99-2.77l-.33.67c1.77,3.1,3.84,6.22,5.27,9.5,1.75,4.02,1.67,6.14-1.95,8.82-2.78,2.05-6.25,3.48-9.73,3.62-.14,3.48-1.56,6.96-3.62,9.73-2.63,3.55-4.7,3.72-8.68,2.01-3.33-1.43-6.49-3.54-9.64-5.33l-.67.33c.62.8,2.99,4.19,2.76,5.06-.15.54-.71.32-1.05.14-1.52-.8-3.26-2.25-4.81-3.19-1.98-1.19-5.37-3.42-7.69-2.41-1.87.81-4.92,4.97-6.18,6.72-1.04,1.44-1.99,2.93-2.92,4.43h-.5ZM22.01,86.7c4.49.02,8.92,1.11,13.05,2.8l3.45-3.44c-2.11-1.4-4.26-2.81-6.5-4.01-3.34-1.78-4.99-2.59-7.7.71-.94,1.14-1.83,2.55-2.3,3.95ZM43.88,89.61l-2.96,2.94,4.03,3.94,2.87-2.94c0-.14-1.41-2.21-1.61-2.39-.19-.17-2.19-1.57-2.33-1.55ZM20.94,90.32c-.65,3.84-.08,7.98,2.23,11.17l8.95-8.95c-3.19-2.31-7.34-2.88-11.17-2.23ZM17.31,91.4c-1.39.47-2.81,1.37-3.95,2.3-3.29,2.71-2.49,4.36-.71,7.7,1.19,2.24,2.61,4.38,4.01,6.5l3.44-3.45c-1.69-4.13-2.78-8.56-2.8-13.05ZM36.39,97.92c-.58.1-1.61.83-2.08,1.23-1.21,1.03-5.11,4.88-5.62,6.18-1.04,2.69,1.56,4.56,4.05,3.15,1.02-.58,5.53-5.08,6.19-6.11,1.48-2.28.32-4.93-2.55-4.45ZM50.81,115.5c1.62-.69,3.2-1.64,4.5-2.85,2.56-2.38,1.76-4.02.35-6.75-1.23-2.39-2.74-4.65-4.21-6.9l-3.44,3.45c1.68,4.14,2.7,8.57,2.8,13.05ZM44.96,105.4l-8.9,9c3.21,2.18,7.33,2.88,11.11,2.1.65-3.82.06-7.92-2.2-11.1ZM23.16,110.3l-2.94,3.03c.56.62,1.01,1.68,1.55,2.26.19.2,2.25,1.61,2.39,1.61l2.94-2.94-3.94-3.96ZM46.11,120.2c-4.49-.1-8.91-1.12-13.05-2.8l-3.45,3.44c2.25,1.46,4.51,2.97,6.9,4.21,2.73,1.41,4.37,2.21,6.75-.35,1.21-1.3,2.16-2.88,2.85-4.5Z"/>
  <path d="M129.51,137.5c-1.04-1.54-2.02-3.12-3.12-4.63-1.26-1.73-4.74-6.5-6.84-6.76s-4.84,1.42-6.67,2.51-3.56,2.4-5.41,3.5c-1.49.36-.05-2.1.22-2.59.54-.97,1.2-1.86,1.82-2.78l-.63-.33c-1.94,1.12-3.83,2.33-5.8,3.4-2.19,1.19-6.01,3.3-8.51,2.97-1.89-.25-3.69-2.54-4.66-4.04-1.72-2.66-2.77-5.57-3-8.75-3.45-.17-6.76-1.51-9.53-3.52-1.38-1.01-3.06-2.53-3.26-4.34-.3-2.73,3.15-8.54,4.57-11.01.25-.43,1.84-2.88,1.82-3.07-.02-.17-.24-.34-.2-.56l-.23.02c-1.01.69-2.01,1.43-3.1,2-.4.21-1.66.9-2.04.56l-.11-.6c1.52-2.47,3.28-4.8,4.63-7.37.81-1.55,1.82-3.37,1.25-5.16-.61-1.9-4.6-4.9-6.27-6.13-1.37-1.01-3.44-2.08-4.62-3.08-.52-.44-.43-.51-.15-1.03.32-.59,1.31-1.57,1.49-2.01.09-.24,0-.47.1-.7.08-.19,2.75-2.79,2.94-2.86s.4-.02.6-.1c.68-.27,1.98-1.97,2.8-1.59.98,1.46,1.89,2.95,2.92,4.38,1.23,1.71,4.52,6.15,6.43,6.77,2.52.83,6.51-1.92,8.65-3.26,1.16-.73,2.42-1.78,3.58-2.42.35-.2.93-.44,1.03.14.22,1.19-2.07,4.03-2.7,5.1l.65.32c3.07-1.8,6.21-3.86,9.48-5.29,3.64-1.58,5.83-1.83,8.46,1.47,2.27,2.85,3.76,6.48,4.02,10.13,1.45.21,2.89.42,4.29.87,2.75.87,8.05,3.79,8.47,6.93.32,2.32-1.76,6.12-2.86,8.19s-2.33,4-3.51,5.98l.34.65c.94-.58,1.82-1.27,2.78-1.81.57-.32,2.85-1.7,2.56-.14-1.6,2.5-3.39,4.91-4.75,7.55-1.05,2.05-2.1,4.08-.45,6.15,1.98,2.48,5.86,5.19,8.55,6.95.68.45,1.51.8,2.05,1.4v.3l-1.75,2.41c.11.93-.94,1.42-1.51,1.99s-1.1,1.66-2.05,1.57l-2.4,1.74h-.4ZM115.51,86.7c-.44-1.57-1.55-3.19-2.65-4.4-2.46-2.72-4.07-1.95-6.95-.45-2.38,1.24-4.63,2.77-6.9,4.2l3.46,3.43c4.13-1.67,8.55-2.75,13.04-2.78ZM96.6,92.68l-.08-.34-2.84-2.73c-.14.01-2.18,1.43-2.37,1.63-.22.22-1.61,2.23-1.58,2.39l2.92,2.86c1.31-1.27,2.47-2.72,3.95-3.81ZM114.51,101.5c2.11-3.32,2.81-7.22,2.16-11.1-.22-.34-3.72-.34-4.31-.3-2.46.15-4.75,1.08-6.85,2.31l9,9.1ZM121.01,107.9c1.27-2.22,2.76-4.33,3.95-6.6,1.52-2.89,2.51-4.61-.25-7.15-1.25-1.15-2.82-2.13-4.4-2.75-.18,4.48-1.08,8.94-2.87,13.05l3.57,3.45ZM108.38,108.37c.29-.26.71-1.42.73-1.82.07-1.27-1-2.51-1.8-3.4-1.1-1.23-4.7-4.97-6.18-5.22-2.48-.42-3.87,1.73-2.81,3.91.61,1.25,5.19,5.86,6.42,6.58.89.53,1.63.77,2.66.43.15-.05.88-.4.97-.48ZM86.16,98.9c-1.4,2.2-2.88,4.39-4.1,6.7-.78,1.47-1.79,3.14-1.35,4.86.35,1.35,2.46,3.04,3.61,3.79.32.21,1.99,1.16,2.25,1.16.41,0,.22-1.31.25-1.65.31-3.91,1.31-7.76,2.78-11.39l-3.43-3.46ZM101.61,114.4l-9.1-9c-2.14,3.34-2.76,7.29-2.09,11.19,3.94.62,7.83-.03,11.19-2.19ZM114.36,110.3c-1.22,1.42-2.53,2.74-3.95,3.95l2.95,3.03c.68-.59,1.8-1.04,2.4-1.68.19-.2,1.51-2.12,1.53-2.28.02-.11,0-.2-.08-.28l-2.85-2.75ZM108.01,120.9l-3.45-3.5c-4.15,1.66-8.55,2.71-13.05,2.8.5,1.45,1.44,2.95,2.45,4.1,2.77,3.17,4.4,2.19,7.65.45,2.2-1.17,4.24-2.61,6.4-3.85Z"/>
  <path d="M137.61,7.7v.3c-.63.62-1.51,1.01-2.25,1.5-2.11,1.39-8.3,5.74-9.02,7.98-.55,1.71.26,3.32,1.02,4.82,1.37,2.69,3.21,5.13,4.83,7.67.35,1.5-1.55.46-2.15.15-1.09-.56-2.07-1.35-3.1-2.01-.21-.03-.39.45-.41.63,1.7,2.95,3.66,5.92,5.07,9.03,1.97,4.36,1.99,6.53-2.05,9.42-2.74,1.95-6.04,3.3-9.43,3.42-.16,2.88-1.06,5.57-2.52,8.03-1.02,1.72-3,4.51-5.14,4.76s-4.7-1.02-6.54-1.94c-2.66-1.33-5.18-2.93-7.75-4.42l-.65.31c.67.98,1.42,1.98,1.98,3.02.26.49.98,1.71.67,2.23-.21.35-.71.11-.97-.04-1.48-.84-2.99-2.09-4.49-3.01-2.1-1.28-5.59-3.64-8.04-2.56-2.3,1.01-6.38,6.9-7.85,9.15-.26.39-.84,1.58-1.09,1.81-.37.33-.65.07-1-.11-.96-.5-1.3-1.19-2.41-1.48-.27-.07-2.98-2.71-3.05-2.95-.42-1.28-1-1.55-1.59-2.61-.22-.41-.37-.63,0-.98.48-.44,1.72-1.03,2.35-1.45,2.12-1.44,7.86-5.46,8.66-7.74.66-1.87-.46-3.8-1.33-5.43-1.33-2.5-3.03-4.78-4.53-7.17-.28-1.24,1.29-.51,1.85-.25,1.2.57,2.35,1.51,3.49,2.21.2.06.24-.51.34-.65-1.82-3.28-4.19-6.65-5.54-10.15s-1.25-5.15,1.55-7.55,6.67-3.94,10.31-4.19c.31-1.32.44-2.67.82-3.98.78-2.64,3.42-7.46,6.07-8.53s6.32,1.1,8.6,2.3,4.39,2.5,6.55,3.82l.65-.42c-.68-.91-1.38-1.89-1.92-2.89-.27-.49-1.52-2.68-.16-2.45,2.47,1.53,4.8,3.28,7.37,4.64,4.08,2.15,5.37,2.08,8.45-1.35,1.85-2.05,3.68-4.69,5.19-7.01.23-.36.61-1.2.85-1.45.64-.65,2.28,1.15,2.87,1.44,1.02.49.76.22,1.63,1.07.78.76,2.01,1.6,2.11,2.68l1.69,2.37ZM91.51,17.3c4.49.05,8.92,1.11,13.05,2.8l3.45-3.44c-2.26-1.45-4.52-2.96-6.9-4.21-2.57-1.34-4.32-2.27-6.65.15-1.23,1.28-2.37,3.03-2.95,4.7ZM115.78,21.83l-2.42-1.61-2.95,2.93,4.03,3.94,2.85-2.86-.04-.22c-.57-.54-.98-1.66-1.48-2.17ZM92.51,32.1l9.05-9c-3.25-2.24-7.27-2.83-11.13-2.18-.44,2.68-.34,5.64.6,8.21.39,1.05,1.01,1.97,1.48,2.97ZM86.71,22c-1.37.55-2.71,1.37-3.85,2.3-3.02,2.47-2.67,3.96-1.01,7.2,1.25,2.42,2.78,4.75,4.31,6.99l3.42-3.36c-1.32-3.32-2.3-6.81-2.68-10.39-.1-.92-.04-1.85-.2-2.75ZM105.99,28.52c-.69.1-1.55.68-2.08,1.12-1.26,1.06-5.31,5.06-5.78,6.42-.59,1.7.37,3.42,2.22,3.53,1.11.07,2.1-.61,2.91-1.3,1.18-1.01,4.91-4.67,5.5-5.9,1.01-2.13-.38-4.22-2.77-3.87ZM120.31,46.1c1.64-.68,3.31-1.72,4.6-2.95,2.18-2.08,1.78-3.58.55-6.05-1.29-2.61-3.03-5.14-4.6-7.6l-3.42,3.45c1.73,4.17,2.72,8.63,2.87,13.15ZM114.37,36l-8.85,8.93c3.13,2.29,7.38,2.93,11.15,2.17.57-3.59.12-7.23-1.74-10.37-.1-.16-.39-.77-.56-.73ZM92.66,40.9l-2.94,3.03c.01.14,1.45,2.2,1.64,2.37.6.56,1.66,1.02,2.3,1.58l2.94-3.02-3.95-3.96ZM115.61,50.8c-4.52-.06-8.97-1.15-13.15-2.8l-3.45,3.5c2.17,1.22,4.2,2.68,6.4,3.85,3.45,1.84,5.1,2.71,7.9-.71.95-1.16,1.71-2.47,2.3-3.85Z"/>
  <path d="M28.12,10.79l.66.23c1.87-1.14,3.74-2.3,5.67-3.35s4.1-2.26,6.22-2.78c3.25-.8,4.92.8,6.66,3.32,1.87,2.7,3.1,5.84,3.29,9.16,1.47.21,2.94.43,4.37.89,2.62.84,7.99,3.81,8.4,6.8.35,2.59-1.83,6.43-3.06,8.69-1.03,1.9-2.18,3.75-3.3,5.6.08.13.26.69.42.63,1.2-.73,3.26-2.48,4.64-2.67.74-.1.8.48.51,1.01-.81,1.5-2.2,3.14-3.13,4.67-1.43,2.36-3.96,6.01-2.04,8.62,1.72,2.34,5.86,5.22,8.33,6.87.4.27,2.18,1.23,2.3,1.5.2.42-.2.83-.43,1.17-.61.93-.91,1.02-1.26,2.13-.08.25-2.8,2.97-3.05,3.06-.2.06-.41.01-.6.1-.56.24-1.47,1.31-2.13,1.57-.85.33-1.18-.88-1.57-1.47-1.82-2.76-4.68-7.05-7.27-9.03-2.88-2.21-7.25,1.01-9.82,2.64-1.13.71-2.45,1.83-3.57,2.43-.57.3-1.12.29-1.02-.51.19-1.35,1.93-3.46,2.67-4.64l-.62-.42c-3.1,1.81-6.27,3.92-9.57,5.33-4.11,1.76-6.17,1.49-8.82-2.17-2.05-2.84-3.29-6.05-3.59-9.56-3.71-.21-7.81-1.88-10.59-4.36-3.04-2.72-2.39-5-.88-8.39,1.41-3.18,3.42-6.2,5.15-9.21-.15-.11-.21-.59-.4-.54-.46.12-2.16,1.46-2.8,1.81-.43.24-1.76.95-2.17.84-.29-.08-.49-.38-.38-.68,1.67-2.68,3.64-5.23,5.03-8.07,2.27-4.64.29-6.05-3.2-8.9-2.25-1.83-4.69-3.39-7.1-5-.11-.22-.07-.45.03-.67.24-.59,1.35-1.59,1.57-2.13.1-.24.03-.46.17-.73.09-.17,2.53-2.61,2.69-2.71.31-.19.52-.1.79-.21.57-.23,1.56-1.35,2.21-1.59.85-.32,1.29,1.09,1.69,1.7,1.62,2.48,5.06,7.49,7.45,9.05,2.64,1.72,6.53-1.03,8.84-2.46,1.31-.81,2.98-2.21,4.26-2.84.22-.11.42-.24.68-.18.15.04.33.3.34.45.06.54-.91,2.2-1.23,2.73-.36.6-1.14,1.47-1.39,2.01-.05.1-.08.18-.05.29ZM46.11,17.3c-.79-2.01-3.21-5.96-5.55-6.2-1.78-.19-4.56,1.59-6.12,2.48-1.67.96-3.27,2.05-4.93,3.02l3.46,3.48c4.18-1.64,8.61-2.77,13.14-2.78ZM24.18,20.21c-.67.58-1.77,1.02-2.37,1.63s-1.02,1.66-1.58,2.32l2.94,3.03,3.94-3.96-.09-.29-2.84-2.73ZM47.21,20.9c-3.63-.56-7.39-.14-10.56,1.78l-.63.47,8.95,8.95c2.3-3.26,2.8-7.3,2.24-11.19ZM51.51,38.5c1.43-2.44,3.08-4.77,4.35-7.3,1.44-2.85,1.81-4.26-.75-6.55-1.24-1.11-2.76-2.03-4.3-2.65-.09,4.49-1.14,8.9-2.8,13.05l3.5,3.45ZM30.49,28.52c-1.79.3-2.36,2.25-1.72,3.77.55,1.3,4.1,4.76,5.3,5.8.87.76,1.98,1.59,3.21,1.5,1.89-.13,2.77-1.96,2.13-3.64-.52-1.38-4.65-5.49-5.94-6.46-.9-.68-1.79-1.18-2.97-.98ZM17.31,46.1c0-4.52,1.12-8.97,2.78-13.14l-3.48-3.46c-1.06,1.84-2.27,3.59-3.32,5.43-.83,1.47-2.37,3.93-2.18,5.62.25,2.32,4.17,4.8,6.2,5.55ZM20.92,47.19c3.88.58,7.94.06,11.19-2.24l-8.95-8.95c-.2-.04-.12.05-.17.13-2.11,3.42-2.73,7.08-2.07,11.06ZM44.96,40.9l-4.05,4.05,2.95,2.93c.15.01,2.19-1.46,2.4-1.67s1.63-2.21,1.62-2.35l-2.93-2.95ZM22.01,50.8c.54,1.49,1.5,3.02,2.55,4.2,2.43,2.75,3.85,2.29,6.85.75,2.46-1.26,4.76-2.84,7.1-4.3l-3.45-3.44c-4.16,1.64-8.55,2.73-13.05,2.8Z"/>
  <path d="M5.09,51.82c3.81-.61,4.34,4.91.87,5.37s-4.12-4.85-.87-5.37Z"/>
  <path d="M74.49,121.22c3.92-.67,4.45,5,.87,5.37s-3.93-4.85-.87-5.37Z"/>
  <path d="M74.49,10.92c3.79-.65,4.57,5,.87,5.37-3.5.35-3.92-4.84-.87-5.37Z"/>
  <path d="M54.09,2.92c2.34-.32,4.03,2.29,2.57,4.26-1.78,2.39-5.4.72-4.78-2.28.2-.99,1.21-1.85,2.21-1.99Z"/>
  <path d="M12.99,59.82c2.62-.44,4.34,2.4,2.68,4.38-1.75,2.08-5.11.62-4.74-2.14.13-.95,1.11-2.07,2.07-2.23Z"/>
  <path d="M131.49,80.32c3.83-.56,4.2,5.07.76,5.36s-4.03-4.89-.76-5.36Z"/>
  <path d="M82.69,2.92c2.39-.31,4.01,2.37,2.52,4.32-1.79,2.34-5.37.51-4.79-2.29.22-1.03,1.23-1.9,2.27-2.03Z"/>
  <path d="M54.39,129.12c3.49-.09,3.83,5.38.16,5.46s-3.63-5.37-.16-5.46Z"/>
  <path d="M131.49,51.82c4.07-.59,4.14,5.67.28,5.37-3.16-.25-3.37-4.92-.28-5.37Z"/>
  <path d="M61.99,121.22c4.23-.62,4.08,5.94.12,5.33-3.05-.47-3.09-4.89-.12-5.33Z"/>
  <path d="M123.59,72.32c3.71-.46,4.13,4.92.77,5.37-3.58.47-4.2-4.94-.77-5.37Z"/>
  <path d="M82.99,129.12c2.35-.13,3.71,2.92,2.02,4.63s-4.62.59-4.65-1.8c-.02-1.43,1.18-2.75,2.62-2.83Z"/>
  <path d="M61.99,10.92c4.06-.65,4.21,5.69.28,5.37-3.2-.25-3.26-4.9-.28-5.37Z"/>
  <path d="M123.29,59.82c2.18-.37,4.06,1.6,3.2,3.71-1.13,2.79-5.75,1.84-5.16-1.66.14-.81,1.12-1.91,1.95-2.05Z"/>
  <path d="M13.19,72.32c2.96-.39,4.33,3.49,1.74,5.04-3.55,2.13-5.99-4.48-1.74-5.04Z"/>
  <path d="M4.99,80.32c2.35-.4,4.31,2.16,2.87,4.17-1.97,2.74-6.02.33-4.69-2.69.28-.64,1.13-1.36,1.82-1.48Z"/>
  <path d="M89.19,69.82c3.34-.32,4.05,4.92.66,5.36-3.76.49-4.15-5.03-.66-5.36Z"/>
  <path d="M117.39.42c3.39-.3,3.98,4.97.66,5.37-3.88.46-4.05-5.07-.66-5.37Z"/>
  <path d="M72.09,86.72c4.31-.63,4.13,5.83.1,5.25-2.92-.42-3.01-4.82-.1-5.25Z"/>
  <path d="M133.89,17.32c4.21-.62,4.24,5.65.17,5.27-2.95-.27-3.09-4.85-.17-5.27Z"/>
  <path d="M19.79.42c3.32-.22,3.92,5.05.47,5.38-3.78.35-3.91-5.15-.47-5.38Z"/>
  <path d="M133.79,114.92c3.86-.65,4.52,4.76,1.05,5.25-3.65.52-4.07-4.74-1.05-5.25Z"/>
  <path d="M72.09,45.52c4.25-.67,4.21,5.85.1,5.25-3.01-.44-2.91-4.81-.1-5.25Z"/>
  <path d="M64.29,45.52c4.3-.72,4.41,5.72.29,5.27-3.04-.34-2.92-4.82-.29-5.27Z"/>
  <path d="M116.99,131.72c4.36-.74,4.3,5.82.18,5.27-2.78-.37-2.99-4.79-.18-5.27Z"/>
  <path d="M88.79,62.32c2.47-.42,4.24,2.01,2.83,4.13s-4.84,1.14-4.85-1.5c0-1.17.8-2.42,2.02-2.63Z"/>
  <path d="M2.59,17.32c4.21-.72,4.26,5.86.1,5.25-2.9-.43-2.96-4.76-.1-5.25Z"/>
  <path d="M2.59,114.92c4.63-.72,3.95,6.56-.35,5.1-2.64-.89-2.14-4.71.35-5.1Z"/>
  <path d="M47.89,69.82c3.81-.4,3.92,6.07-.28,5.33-3.01-.52-2.67-5.02.28-5.33Z"/>
  <path d="M64.39,86.72c3.9-.57,4.33,4.88.86,5.26s-4-4.81-.86-5.26Z"/>
  <path d="M47.59,62.32c4.29-.62,4.2,5.81.08,5.27-2.76-.37-2.96-4.85-.08-5.27Z"/>
  <path d="M19.29,131.72c3.32-.56,4.56,3.57,1.9,5-3.65,1.96-5.54-4.38-1.9-5Z"/>
</svg>