<?xml version="1.0" encoding="UTF-8"?>
<svg id="Layer_1" data-name="Layer 1" xmlns="http://www.w3.org/2000/svg" viewBox="0 0 141.83 121.15">
  <path fill="#FFFFFF" d="M141.83,63.43c-.15.24-.12.52-.28.77-.12.19-.33.24-.4.4-.28.65-.37,2.76-.55,3.65s-.24,1.7-1.39,1.56c-1.42-.18-3.36-.84-4.87-1.13-2.39-.46-4.85-.85-7.27-1.13-3.46-.41-9.5-1.26-12.29,1.09-2.29,1.93-3.81,8.44-4.5,11.4-.63,2.7-.96,5.83-1.68,8.42-.14.5-.37.94-.92,1.07-.71-.14-1.01-.84-1.25-1.44-.97-2.34-1.37-5.17-1.8-7.65l-1.18.31c-.88,3.54-1.73,7.09-2.77,10.58-1.15,3.88-3.3,11.79-7.11,13.69-4.57,2.28-13.47-.46-17.74-2.84-1.76-.98-3.33-2.23-4.95-3.43-3.3,2.79-6.95,4.78-11.13,5.95-3.5.98-8.8,2.07-12.05.01s-5.13-8.64-6.19-12.11c-1.2-3.91-2.23-7.87-3.08-11.87l-1.19-.31c-.43,2.17-.78,4.38-1.45,6.5-.2.64-.84,2.78-1.75,2.56-.98-.24-.98-2.03-1.15-2.86-.83-4.05-1.57-8.13-2.83-12.07-1.16-3.66-2.48-7.11-6.87-7.43-5.46-.39-12.69.9-18.07,2.03-.71.15-2.62.8-3.19.62-.43-.14-.53-.69-.63-1.07-.29-1.16-.28-3.19-.65-4.14-.08-.21-.29-.21-.42-.39-.45-.62-.09-2.87-.09-3.71s-.35-2.73.05-3.44c.13-.23.37-.29.48-.62.35-1.11.33-2.76.63-3.97.08-.33.23-.99.6-1.09.58-.17,3.03.59,3.81.75,5.15,1.06,12.06,2.28,17.27,1.93,5.96-.4,7.13-7.13,8.3-11.9.75-3.05,1.12-6.35,1.88-9.32.16-.64.61-1.5,1.37-1.02.81.52,1.42,2.96,1.68,3.92.43,1.65.7,3.35,1.03,5.02l1.1-.35c1.12-4.4,2.19-8.81,3.57-13.13,1.05-3.29,2.87-9.12,5.97-10.93,3.33-1.94,8.45-.87,11.97.13,4.1,1.16,7.81,3.17,11.03,5.95,3.18-2.67,6.66-4.64,10.65-5.83,3.75-1.12,9.75-2.41,13.09.21,3.01,2.37,5.08,9.68,6.16,13.34.99,3.36,1.81,6.76,2.64,10.16l1.21.44c.23-1.73.56-3.46,1.01-5.14.21-.77,1.48-5.8,2.81-3.33.32.59.47,2.3.63,3.07.82,4.04,2.63,14.19,5.45,16.95s8.85,1.74,12.34,1.34c2.9-.34,5.92-.84,8.78-1.42,1.08-.22,2.45-.71,3.46-.84.79-.1,1.07-.04,1.32.73.41,1.28.31,3.39.72,4.48.07.18.31.2.43.37.14.21.08.51.25.7v1.7c-.18.74-.19,1.67,0,2.4v1.7ZM53.73,45.83c2.65-6.81,6.76-13,11.7-18.35-2.14-1.07-4.76-1.64-7.15-1.85-2.1-.18-4.22-.27-6.04.96s-2.69,4.2-3.34,6.26c-1.32,4.24-2.23,8.63-3.17,12.98h8ZM96.03,45.83c-.74-3.93-1.64-7.86-2.75-11.7-.65-2.24-1.6-5.86-3.45-7.35-1.96-1.58-4.89-1.32-7.24-1.03-2.12.26-4.35.8-6.26,1.74,3.7,3.93,6.96,8.45,9.45,13.25.87,1.67,1.56,3.42,2.4,5.1h7.85ZM81.23,45.83c-1.1-6.32-5.14-11.8-10.33-15.38-5.21,3.61-9.18,9.08-10.37,15.38h20.7ZM50.53,55.93h-6.9l-.81,4.65.96,4.65h6.75v-9.3ZM65.61,55.96c-2.75.2-5.02,1.03-5.81,3.89-.21.77-.13,1.15.15,1.9,1.04,2.82,3.72,3.34,6.42,3.48s6.25.13,9.01,0,5.38-.61,6.42-3.38c.42-1.12.41-1.52-.03-2.62-1.01-2.55-3.35-3.17-5.89-3.31-3.02-.17-7.27-.19-10.27.03ZM98.13,55.93h-6.9c.31,3.08.3,6.22,0,9.3h6.9l.84-4.65-.84-4.65ZM53.73,75.33h-8c.97,4.43,1.9,8.95,3.27,13.28.91,2.87,1.78,5.91,5.05,6.75,2.43.63,6.73-.06,9.15-.8.28-.09,2.21-.74,2.22-.88-4.91-5.38-9.03-11.54-11.7-18.35ZM81.23,75.33h-20.7c1.21,6.34,5.16,11.7,10.35,15.37,5.2-3.58,9.23-9.06,10.35-15.37ZM96.03,75.33h-8c-2.61,6.82-6.73,13.03-11.7,18.35,2.02.92,4.25,1.5,6.46,1.74,2.36.25,4.95.48,6.97-1,1.68-1.23,2.59-4.37,3.19-6.31,1.29-4.18,2.22-8.49,3.07-12.78Z"/>
  <path fill="#FFFFFF" d="M80.73.03c3.13.4,4.87,4.48,2.85,7-3.12,3.91-9.16.83-7.6-4.1.44-1.38,1.9-2.71,3.35-2.9.31-.04,1.09-.04,1.4,0Z"/>
  <path fill="#FFFFFF" d="M62.33,121.13c-.26.03-.84.03-1.1,0-5.37-.69-4.99-8.81.55-8.81,5.44,0,5.67,8.15.55,8.81Z"/>
  <path fill="#FFFFFF" d="M62.53.03c3.64.75,4.81,5.51,1.9,7.85-2.38,1.91-6.24.6-6.95-2.35-.63-2.61,1.03-4.88,3.55-5.5h1.5Z"/>
  <path fill="#FFFFFF" d="M80.53,121.13c-.25.03-.75.03-1,0-5.78-.68-4.57-10.04,1.52-8.67,4.82,1.08,4.28,8.11-.52,8.67Z"/>
  <path fill="#FFFFFF" d="M18.81,36.96c5.85-.51,6.33,8.22.77,8.67s-6.62-8.16-.77-8.67Z"/>
  <path fill="#FFFFFF" d="M122.21,36.96c5.35-.5,6.42,6.96,1.68,8.48-5.89,1.88-8.12-7.87-1.68-8.48Z"/>
  <path fill="#FFFFFF" d="M18.51,75.56c6.19-.85,6.82,8.65.67,8.65-5.58,0-5.55-7.99-.67-8.65Z"/>
  <path fill="#FFFFFF" d="M121.91,75.56c6.12-.83,6.87,8.69.67,8.65-5.42-.03-5.72-7.97-.67-8.65Z"/>
</svg>