<?xml version="1.0" encoding="UTF-8"?>
<svg id="Layer_1" data-name="Layer 1" xmlns="http://www.w3.org/2000/svg" viewBox="0 0 137.7 137.3">
  <path d="M46.5,0c.11.15.34.08.5.15.14.06.2.27.37.33.71.23,1.84.15,2.61.39.25.08.57.19.62.49.06.4-.63,2.88-.75,3.54-.41,2.21-.84,4.82-.95,7.05-.22,4.61.55,5.63,4.83,6.98,2.87.91,5.86,1.38,8.8,2l.38.53c0,.66-1.81,1.09-2.37,1.24-1.04.29-2.16.53-3.24.61l.2.75c3.86.97,7.69,2.02,11.45,3.35,3.68-1.43,7.51-2.37,11.33-3.32l.13-.73c-1.37-.36-4.25-.6-5.34-1.46-.56-.44-.12-.9.41-1.06,1.47-.43,3.45-.61,5.02-.98,2.36-.55,7.01-1.45,8.02-3.88.76-1.84.08-6.71-.24-8.8-.29-1.94-.72-3.86-1.14-5.77.03-.09.05-.21.11-.29.33-.42,2.48-.42,3.07-.63.22-.08.53-.43.87-.48h3.5c.34.05.66.4.87.48.59.21,2.75.21,3.07.63.06.08.08.19.11.29-.31,1.49-.67,2.98-.93,4.49-.48,2.8-.98,6.16-.73,8.97.31,3.48,5.52,4.36,8.3,5,1.57.37,3.55.55,5.02.98.41.12.87.44.58.9-.51.81-4.36,1.3-5.35,1.58-.11.03-.18.03-.25.14.16.14.13.52.22.63.21.25,5.61,1.2,6.33,1.72.5.71,1.46,6.11,1.72,6.31.08.06.69.23.73.19.28-1.52.5-3.57,1.2-4.95.39-.77.94-1.09,1.27-.07.44,1.38.63,3.41.98,4.92.64,2.77,1.43,7.65,4.65,8.35,2.84.62,8.64-.49,11.62-1.08.5-.1,2.23-.68,2.53-.37.54.55.25,3.04,1.05,3.7v4c-.87.54-.41,3.68-1.36,3.8-.36.05-2.37-.55-2.94-.65-3.03-.58-7.5-1.38-10.52-1.02-2.66.32-3.41,2.69-4.1,4.9-.89,2.82-1.35,5.76-1.95,8.65-.69,1.09-1.22-.2-1.47-.88-.5-1.37-.75-2.95-.96-4.4l-.79.21c-.78,3.82-1.9,7.57-3.19,11.24,1.3,3.67,2.42,7.42,3.19,11.24l.79.21c.22-1.5.48-3.21,1.02-4.63.26-.69.76-1.65,1.4-.65.6,2.89,1.06,5.83,1.95,8.65,1.4,4.45,2.4,5.17,7.18,4.93,2.36-.12,5.12-.61,7.45-1.05.55-.11,2.61-.71,2.94-.65.95.15.48,3.24,1.36,3.8v4c-.77.93-.51,2.26-.9,3.35-.07.19-.12.42-.36.45-1.91-.34-3.79-.79-5.71-1.09-2.35-.36-7.22-1.17-9.27-.1-2.2,1.14-3.09,5.7-3.62,7.98-.35,1.52-.53,3.53-.98,4.92-.14.45-.43.84-.93.48-.72-.52-1.41-4.51-1.54-5.51-.04-.04-.66.13-.73.19-.26.2-1.22,5.6-1.72,6.31l-6.23,1.67-.32.68c.07.11.14.11.25.14,1.02.28,4.79.74,5.34,1.57.36.54-.23.79-.67.91-3.01.82-10.58,1.55-12.46,4.04-.4.53-.7,1.28-.76,1.94-.16,1.76,0,3.72.21,5.49.31,2.68.87,5.34,1.44,7.97-.03.09-.05.21-.11.29-.33.42-2.48.42-3.07.63-.22.08-.53.43-.87.48h-3.5c-.34-.05-.66-.4-.87-.48-.59-.21-2.75-.21-3.07-.63-.06-.08-.08-.19-.11-.29.42-1.91.85-3.83,1.14-5.77.32-2.13,1.04-7.19.13-9-1.13-2.27-5.59-3.14-7.92-3.68-1.59-.37-3.39-.56-4.92-.98-.48-.13-1.08-.41-.62-.96.64-.78,4.37-1.32,5.45-1.55l-.13-.73c-3.82-.95-7.66-1.9-11.33-3.32-3.75,1.33-7.59,2.37-11.45,3.35l-.2.75c1.08.08,2.2.32,3.24.61.56.16,2.37.58,2.37,1.24l-.38.53c-2.94.61-5.94,1.09-8.8,2-4.28,1.35-5.05,2.38-4.83,6.98.11,2.23.54,4.84.95,7.05.12.66.82,3.14.75,3.54-.05.29-.37.41-.62.49-.77.24-1.91.16-2.61.39-.18.06-.24.26-.37.33-.16.08-.39,0-.5.15h-3.4c-.11-.15-.34-.08-.5-.15-.14-.06-.2-.27-.37-.33-.71-.23-1.84-.15-2.61-.39-.25-.08-.57-.19-.62-.49.42-2.07.88-4.12,1.19-6.21s1.01-6.74.07-8.64c-1.06-2.15-5.26-3.02-7.45-3.55-1.74-.42-3.87-.61-5.51-1.09-.75-.22-.81-.74-.16-1.17,1.19-.8,3.67-.96,5.07-1.33.15-.09.02-.54-.06-.65-.19-.28-5.61-1.36-6.34-1.76l-1.62-6.18c-.08-.19-.76-.53-.86-.2-.26,1.46-.49,3.25-1.1,4.6-.35.77-1.02,1.42-1.37.24-.45-1.5-.63-3.57-1.01-5.19-.5-2.14-1.41-6.47-3.38-7.62s-7.11-.35-9.49.02c-1.89.29-3.73.75-5.61,1.08-.23-.03-.32-.21-.4-.4-.33-.77-.23-2.07-.47-2.83-.06-.18-.26-.24-.33-.37-.08-.16,0-.39-.15-.5v-3.3c.16-.14.09-.38.18-.58.07-.15.24-.23.3-.4.22-.61.21-2.8.67-3.13.07-.05.13-.09.21-.09,1.58.31,3.14.7,4.72.97,2.36.4,7.59,1.22,9.72.48,2.67-.93,3.59-5.95,4.15-8.45.34-1.48.5-3.21.87-4.63.11-.42.4-.84.87-.62.78.36,1.48,4.52,1.65,5.45.12.19.54-.01.73-.02.9-3.79,1.94-7.55,3.22-11.23-1.28-3.68-2.32-7.44-3.22-11.23l-.68-.22c-.35,1.53-.54,3.27-1.13,4.73-.35.86-1.1,1.61-1.45.3-.5-1.88-.71-4.06-1.19-6.01-.56-2.26-1.39-6.21-3.84-7.06-2.04-.71-6.78.01-9.03.36-1.81.29-3.59.72-5.39,1.07-.1-.03-.19-.07-.27-.14-.43-.38-.4-2.45-.63-3.07-.06-.16-.23-.25-.3-.4-.09-.19-.02-.44-.18-.58v-3.3c0-.39.42-.68.48-.87.24-.76.14-2.06.47-2.83.09-.2.17-.36.4-.4.45-.08,2.05.44,2.64.55,2.85.56,9.17,1.71,11.78.87s3.5-5.58,4.05-7.95c.38-1.62.56-3.68,1.01-5.19.35-1.18,1.02-.54,1.37.24.61,1.35.84,3.14,1.1,4.6.05.28.59.06.72-.04.2-.15.5-1.89.61-2.29.13-.51.99-3.91,1.15-4.05.73-.4,6.15-1.47,6.34-1.76.06-.09.18-.67.15-.7-1.51-.22-3.61-.49-4.97-1.18-.75-.38-.97-1-.04-1.27,3.08-.9,10.06-1.42,12.3-3.7,1.86-1.89.95-7.1.58-9.58-.3-2.09-.77-4.15-1.19-6.21.05-.29.37-.41.62-.49.78-.24,1.92-.17,2.61-.39.19-.06.48-.48.87-.48h3.4ZM47.7,27.4c-.92-.03-2.06-.52-2.95-.51s-1.96.48-2.85.51v4.3h5.8v-4.3ZM95.8,27.4c-.91-.03-1.97-.51-2.85-.51s-1.94.48-2.85.51v4.3h5.7v-4.3ZM35.5,28.7l-5.48,1.32-1.32,5.48h4.95c.31-.31.34-.95.65-1.25.29-.27.9-.3,1.2-.6v-4.95ZM54,28.7v5c4.25,1.65,8.14,4.18,11.45,7.3.17.07.26-.31.29-.4.51-1.22-.1-1.81-.42-2.98-.52-1.91-1.02-4.05-.63-6.02-3.45-1.34-7.09-2.14-10.7-2.9ZM83.7,28.7c-3.56.81-7.22,1.49-10.59,2.91.26,1.99-.13,3.98-.66,5.89-.14.49-.73,1.83-.75,2.16-.03.4.39.92.4,1.34h.23c3.27-3.14,7.16-5.63,11.37-7.3v-5ZM102.2,28.7v5c1.03.29,1.56.74,1.8,1.8h5l-1.22-5.48-5.58-1.32ZM47.7,47.6v-6.55c0-.41-.28-1.45-.45-1.85-.34-.79-.85-1.25-1.65-1.55-.7-.26-.83-.28-1.53-.03-1.89.69-2.15,2.47-2.17,4.28-1.79-.02-3.61.29-4.28,2.17-.42,1.2.29,2.5,1.39,3.07,1.47.75,6.37.71,8.14.57.19-.02.36-.06.55-.1ZM90.1,40.55v7l.15.15h6.3c.13,0,.78-.11.96-.14,1.21-.24,2.22-.86,2.62-2.08.24-.74.18-1.02-.14-1.71-.76-1.66-2.46-1.8-4.09-1.91-.18-.13-.06-.84-.1-1.1-.13-1.09-.5-2.23-1.47-2.83-2.1-1.31-3.99.51-4.23,2.63ZM54,38v12.9l.99-.21c-.3-2.77,2.91-4.28,4.86-2.3.66-.35,3.84-3.46,3.82-3.93-1.04-1.46-2.3-2.78-3.74-3.84-.22-.05-.61.42-.9.56-2.09.99-4.33-.7-4.03-2.96l-.99-.21ZM83.7,38l-1,.2c.44,2.77-2.8,4.27-4.77,2.41-.72.17-3.83,3.4-3.83,3.84.96,1.56,2.35,2.8,3.75,3.95h.14c0-.08.02-.14.08-.19,2.11-1.68,4.95-.2,4.64,2.48l.99.21v-12.9ZM31.7,41.9h-4.3c-.02.91-.51,2.07-.5,2.94s.5,1.95.5,2.86h4.3v-5.8ZM110.3,41.9h-4.3v5.8h4.3c.13-.93.51-2.02.51-2.95s-.38-1.96-.51-2.85ZM65.6,47.9c-.15-.04-.17.04-.25.1-.78.54-1.73,1.6-2.56,2.24-2.41,1.87-5.08,3.37-7.84,4.66-1.65,3.5-3.63,6.8-6.2,9.7-.13.15-.97.87-.85,1,.3-.04.63.3.91.25.41-.07,1.45-.63,1.99-.8,2.09-.66,4.53-1.17,6.7-.79l1.64-5.17c1.85-.56,3.77-.92,5.51-1.79-.28-1.88.08-3.8.58-5.63.19-.71.85-2.19.73-2.78-.07-.32-.33-.65-.36-.99ZM89.8,65.6c.05-.17-.07-.2-.15-.3-.6-.79-1.36-1.51-1.99-2.31-1.96-2.49-3.53-5.26-4.86-8.14-2.89-1.26-5.61-2.87-8.09-4.81l-2.51-2.09c-.16.11-.5,1.15-.48,1.38.03.34.5,1.32.63,1.77.37,1.3.79,2.91.85,4.25.03.66-.07,1.3-.06,1.96,1.72.9,3.69,1.25,5.53,1.82l1.52,5.18c1.83-.43,3.83-.04,5.62.43.69.18,2.98,1.11,3.4,1.05.19-.03.38-.18.58-.18ZM33.7,54h-5c.8,3.44,1.43,6.98,2.79,10.25,1.97-.35,4.1.06,6.01.6.58.16,2.47.98,2.85.96.13,0,.71-.16.64-.35-3.06-3.37-5.64-7.2-7.29-11.46ZM50.9,54h-12.9l.11.59c2.37-.35,4.09,1.83,3.06,4.03-.2.42-.56.62-.76,1.01.68.91,1.41,1.8,2.23,2.57.28.26,1.62,1.43,1.9,1.4.68-.25,4.09-3.69,4.05-4.06-1.9-1.35-1.19-4.63,1.16-4.94.35-.05.7.05,1.05-.05l.09-.56ZM99.7,54h-12.9l.11.59c2.12-.25,3.57,1.22,3.28,3.35-.09.69-.61,1.15-.98,1.69,1.09,1.58,2.49,2.91,4.04,4.04,1.61-1.12,2.99-2.55,4.15-4.12-2.35-1.75-.75-5.45,2.19-4.96l.11-.59ZM109,54h-5c-1.59,4.27-4.19,8.15-7.3,11.45-.09.21.69.36.85.36.33-.01,1.84-.7,2.35-.86,1.99-.6,4.34-1.1,6.39-.65,1.21-3.34,2.04-6.81,2.71-10.3ZM74.38,63.32l-5.51-1.8-5.47,1.83-1.76,5.3,1.76,5.3,5.47,1.83,5.51-1.8,1.73-5.33-1.73-5.33ZM28.7,83.3h5c1.65-4.26,4.23-8.1,7.29-11.46.07-.2-.59-.34-.74-.4-2.72,1.12-5.8,2.07-8.76,1.61-1.36,3.27-1.99,6.81-2.79,10.25ZM65.6,89.4c.03-.35.29-.67.36-.99.12-.59-.54-2.08-.73-2.78-.49-1.83-.85-3.74-.58-5.63-1.73-.88-3.67-1.22-5.51-1.79l-1.64-5.17c-2.18.37-4.61-.13-6.7-.79-.54-.17-1.58-.73-1.99-.8-.28-.05-.61.29-.91.25-.12.13.72.85.85,1,2.56,2.91,4.55,6.2,6.2,9.7,2.76,1.29,5.43,2.78,7.84,4.66.83.65,1.78,1.7,2.56,2.24.08.06.1.14.25.1ZM89.8,71.7c-.82-.51-1.36.03-2.15.3-2.32.78-5.01,1.51-7.45,1l-1.52,5.18c-1.85.57-3.81.92-5.53,1.82-.01.65.09,1.3.06,1.96-.07,1.34-.48,2.95-.85,4.25-.13.45-.6,1.43-.63,1.77-.02.23.32,1.27.48,1.38l3.01-2.49c2.35-1.76,4.9-3.24,7.59-4.41,1.33-2.88,2.91-5.64,4.86-8.14.6-.77,1.52-1.61,2.04-2.36.06-.08.14-.1.1-.25ZM104.15,83.3h4.85c-.67-3.49-1.5-6.96-2.71-10.3-2.06.44-4.47-.07-6.47-.68-.5-.15-1.95-.82-2.27-.83-.16,0-.94.14-.85.36,2.3,2.43,4.3,5.18,5.85,8.15.57,1.09.99,2.24,1.6,3.3ZM86.8,83.3h12.9l-.11-.59c-2.94.49-4.54-3.22-2.19-4.96-1.16-1.58-2.54-3-4.15-4.12-1.55,1.12-2.95,2.46-4.04,4.04.36.54.88,1,.98,1.69.29,2.13-1.16,3.6-3.28,3.35l-.11.59ZM50.9,83.3l-.09-.56c-.34-.1-.7,0-1.05-.05-2.34-.31-3.08-3.59-1.16-4.94.04-.36-3.37-3.82-4.05-4.06-.28-.03-1.62,1.14-1.9,1.4-.83.77-1.56,1.66-2.23,2.57.2.39.56.58.76,1.01,1.03,2.2-.7,4.38-3.06,4.03l-.11.59h12.9ZM54,86.4v12.9l.99-.21c-.13-2.05,1.17-3.42,3.26-3.19.24.03.72.17.92.28.26.14.5.58.76.51,1.43-1.09,2.71-2.37,3.74-3.84.02-.47-3.12-3.56-3.76-3.91-.09-.02-.63.48-.84.58-2.11,1-4.32-.62-4.08-2.9l-.99-.21ZM83.7,86.4l-.99.21c.31,2.69-2.53,4.16-4.64,2.48-.06-.05-.08-.12-.08-.19h-.14c-1.41,1.14-2.8,2.38-3.76,3.95.3.69,3.37,3.93,3.84,3.83,1.97-1.85,5.22-.38,4.77,2.41l1,.2v-12.9ZM31.7,89.6h-4.3c0,.9-.49,1.99-.5,2.86s.48,2.03.5,2.94h4.3v-5.8ZM47.7,96.25c.18-2.08-.13-4.39,0-6.5l-.15-.15h-6.4c-.23,0-1,.16-1.27.23-1.19.29-1.98.99-2.32,2.17-.16.57-.11.74.1,1.29.68,1.82,2.5,2.12,4.25,2.1.02,1.78.29,3.61,2.17,4.28.69.25.92.21,1.6-.06,1.41-.57,1.91-1.93,2.03-3.37ZM96.65,89.6c-2.05-.17-4.33.13-6.4,0l-.15.15v7c0,.16.27,1.04.35,1.25.38.96,1.25,1.66,2.27,1.84.83.15,2.03-.61,2.46-1.31.6-.96.55-2.04.71-3.09,1.61-.09,3.36-.27,4.09-1.91.31-.7.39-.96.14-1.71-.49-1.52-2-2.1-3.48-2.22ZM110.3,89.6h-4.3v5.8h4.3c.11-.9.51-1.96.51-2.85s-.38-2.02-.51-2.95ZM54,103.6v5c3.61-.78,7.25-1.56,10.7-2.9-.39-1.96.1-4.1.63-6.02.14-.5.66-1.64.68-2.03.02-.46-.34-1.01-.46-1.45-3.33,3.17-7.26,5.73-11.55,7.4ZM83.7,103.6c-4.2-1.68-8.1-4.15-11.37-7.29h-.23c0,.41-.42.93-.4,1.33.02.28.42,1.03.53,1.38.65,2.14,1.17,4.41.89,6.66,3.37,1.43,7.03,2.1,10.59,2.91v-5ZM35.5,108.6v-4.95c-.31-.31-.96-.34-1.24-.66-.26-.29-.28-.91-.61-1.19h-4.95l1.32,5.48,5.48,1.32ZM109,101.8h-5c-.25,1.14-.8,1.42-1.8,1.85v4.95l5.58-1.32,1.22-5.48ZM47.7,105.6h-5.8v4.3c.92.03,2.06.52,2.95.51s1.96-.49,2.85-.51v-4.3ZM95.8,105.6h-5.7v4.3c.9.03,1.98.51,2.85.51s1.95-.48,2.85-.51v-4.3Z"/>
  <path d="M11.47,101.92c4.31-.73,4.48,5.95.08,5.37-2.89-.38-2.79-4.91-.08-5.37Z"/>
  <path d="M11.47,30.02c4.35-.7,4.41,5.87.19,5.36-2.91-.35-3.02-4.91-.19-5.36Z"/>
  <path d="M125.07,101.92c4.26-.73,4.43,6.11,0,5.35-2.83-.48-2.82-4.87,0-5.35Z"/>
  <path d="M125.07,30.02c2.49-.42,4.24,2.09,2.81,4.21-1.74,2.58-5.73.59-4.86-2.36.25-.84,1.18-1.71,2.05-1.85Z"/>
  <path d="M56.37,122.52c3.75-.59,4.29,4.85,1.15,5.35-3.94.63-4.47-4.83-1.15-5.35Z"/>
  <path d="M80.27,122.52c2.35-.4,4.27,2.16,2.87,4.17s-4.34,1.57-4.92-.77c-.34-1.4.54-3.14,2.05-3.4Z"/>
  <path d="M56.27,9.42c4.43-.74,4.3,5.91.18,5.37-3-.39-2.98-4.9-.18-5.37Z"/>
  <path d="M80.17,9.42c3.11-.52,4.72,3.28,2.16,4.96-2.17,1.42-4.78-.72-4.07-3.16.24-.82,1.04-1.65,1.91-1.79Z"/>
  <path d="M11.88,54.13c3.55-.29,4.07,5.34.27,5.48-3.55.13-3.65-5.2-.27-5.48Z"/>
  <path d="M11.68,77.73c3.13-.42,4.32,3.79,1.71,5.11-3.84,1.95-5.8-4.57-1.71-5.11Z"/>
  <path d="M125.28,77.73c2.4-.31,4.04,2.36,2.58,4.28-1.97,2.59-5.73.44-4.78-2.48.3-.93,1.23-1.67,2.2-1.8Z"/>
  <path d="M125.48,54.12c3.44-.24,4.05,5.35.27,5.48-3.57.13-3.78-5.24-.27-5.48Z"/>
</svg>