<?xml version="1.0" encoding="UTF-8"?>
<svg id="Layer_1" data-name="Layer 1" xmlns="http://www.w3.org/2000/svg" viewBox="0 0 133.1 133.1">
  <path d="M15.6,0c.18.17.36.21.54.41.87.95,2.18,3.6,3.03,4.87.31.47,2.33,3.42,2.57,3.53,1.76-3.55,6.49-4.12,9-1s.46,7.71-3.25,8.45c.55.68,1.13,1.33,1.75,1.95,1.34,1.34,3.19,3.22,5,3.8.54.17,2.2.53,2.68.38.21-.06.92-1.73,1.12-2.08,2.21-4.05,6.07-10.15,10.95-11.05,2.83-.52,6.07.87,8.7,1.81,1.3-.91,2.83-.87,2.32,1.13l6.45,3.31,6.61-3.44c-.65-1.87,1.14-1.91,2.26-.97,2.77-1.07,6.17-2.47,9.17-1.73,5.32,1.3,9.2,8.47,11.5,13,.35.21,2.06-.15,2.52-.28,1.88-.53,3.27-1.95,4.63-3.27.81-.79,1.59-1.61,2.35-2.45.03-.19-.02-.12-.12-.17-.37-.17-.84-.23-1.26-.44-1.11-.55-2.22-1.81-2.62-2.98-2.02-6.02,6.24-10,9.68-4.08.05.08-.03.17.17.13,1.04-1.43,2.08-2.87,3.05-4.35.77-1.17,1.51-2.71,2.32-3.78.2-.27.43-.46.68-.67h.6c.32.24.69.4,1.03.62.83.54,3.16,2.58,3.8,2.81.19.07.46-.06.71-.02,1.01.14,2.39,2.26,3.09,2.96.78.78,2.96,2.15,3.06,3.3.02.22-.12.37-.02.61.26.66,1.98,2.61,2.51,3.4.36.53.72,1.01.92,1.63v.2c-.11.12-.14.28-.25.4-.58.7-2.8,1.8-3.71,2.39-1.68,1.1-3.34,2.25-4.95,3.45,3.1,1.48,4.14,5.48,1.9,8.2-2.85,3.45-8.48,1.9-9.25-2.45-.37.29-.76.59-1.1.9-1.14,1.04-3.32,3.25-4.06,4.54s-1.12,2.73-.94,4.17c3.04,1.46,6.2,3.24,8.76,5.44,4.18,3.6,5.22,6.56,3.65,11.95-.15.51-1.16,3.06-1.14,3.26,0,.14.47.66.55,1.04.26,1.28-.58,1.49-1.65,1.21l-3.39,6.53,3.39,6.57c.57-.12,1.34-.32,1.6.34.37.95-.54,1.61-.49,1.98,1.03,2.72,2.37,6.02,1.72,8.96-1.04,4.75-7.34,8.7-11.37,10.83-.42.23-1.18.44-1.51.69-.26.2-.18.99-.15,1.33.24,2.72,2.26,4.7,4.08,6.52.62.62,1.26,1.22,1.95,1.75.22.03.12-.03.15-.14.64-2.1,1.92-3.59,4.18-4.03,4.52-.87,7.86,4.13,5.4,8-.57.9-1.42,1.48-2.28,2.07,1.73,1.15,3.41,2.37,5.15,3.5.9.59,2.65,1.41,3.35,2.05.24.22.24.4.41.64v.2c-.2.51-.42.88-.72,1.33-.59.9-2.42,2.93-2.73,3.67-.09.22.06.35.05.54-.09,1.21-2.24,2.55-3.04,3.36-.73.73-2.1,2.82-3.13,2.98-.27.04-.57-.09-.72-.03-.63.25-2.86,2.19-3.67,2.73-.4.27-.79.52-1.23.72h-.4c-.12-.11-.28-.14-.4-.25-.61-.51-1.57-2.5-2.09-3.31-1.16-1.79-2.36-3.55-3.65-5.25l-.75,1.05c-3.74,4.47-10.96.7-9.1-5,.66-2.01,2.05-2.76,3.87-3.44.11-.04.17.05.14-.16-.46-.45-.86-1.04-1.3-1.5-1-1.04-2.68-2.7-3.87-3.43-1.27-.77-2.83-1.26-4.33-1.07-2.1,4.03-4.66,8.87-8.47,11.53-4.14,2.9-7.91,1.34-12.2-.26-.65.36-1.02.72-1.84.53-.96-.22-.31-1.38-.6-1.7l-6.35-3.31-6.54,3.38c.22,1.06.06,1.93-1.24,1.66-.33-.07-.88-.57-1.1-.55-.26.02-1.34.55-1.72.68-1.98.66-4.7,1.5-6.78,1.17-4.57-.72-8.25-6.08-10.39-9.81-.62-1.07-1.23-2.15-1.67-3.31l-.16-.07c-.83-.01-1.69.09-2.5.32-1.86.53-3.47,2.16-4.81,3.49-.76.75-1.51,1.49-2.15,2.35,4.42.88,5.91,6.55,2.29,9.39-2.1,1.64-5.29,1.35-7.09-.59-.34-.37-.59-.96-.85-1.25-.08-.09-.1-.14-.24-.1-1.16,1.75-2.4,3.45-3.54,5.21-.78,1.21-1.38,2.66-2.46,3.59h-.4c-.54-.21-.96-.5-1.43-.82-.71-.48-3.06-2.46-3.57-2.63-.18-.06-.44.08-.72.03-.91-.17-2.32-2.15-2.97-2.83s-2.91-2.33-3.08-3.12c-.07-.34.04-.65-.1-1-.31-.77-2.2-2.86-2.81-3.79-.2-.3-.35-.61-.52-.93v-.6c.2-.22.37-.46.61-.64.99-.74,2.45-1.44,3.55-2.15,1.58-1.04,3.13-2.12,4.65-3.25-3.42-1.7-4.17-6.38-1.2-8.9,3.15-2.67,7.84-.75,8.65,3.15.86-.8,1.73-1.6,2.55-2.45,1.85-1.92,3.64-3.81,3.61-6.7,0-.21-.01-.38-.21-.5-4.79-2.43-12.81-6.81-13.1-12.9-.09-1.95.85-4.74,1.5-6.61.07-.2.47-1.04.47-1.1-.01-.2-.66-.77-.63-1.49.05-1.39,1.53-.66,1.71-.86l3.34-6.46-3.34-6.45c-.18-.17-.65.04-.99,0-1.17-.14-.66-1.74-.09-2.34-1.01-2.68-2.41-6.04-1.8-8.93,1.01-4.8,7.14-8.63,11.17-10.83.35-.19,1.67-.72,1.81-.89.33-.39-.03-1.99-.17-2.52-.56-2.06-2.7-4.21-4.22-5.68-.49-.47-1.13-.89-1.6-1.4-.49,2.14-2.34,4.09-4.6,4.3-6.17.57-8.12-7.35-2.85-10.05-1.34-1.04-2.73-2.02-4.15-2.95-1.27-.83-2.92-1.65-4.08-2.52-.23-.18-.39-.36-.57-.58v-.7c.25-.37.47-.76.72-1.13.59-.88,2.26-2.74,2.59-3.51.16-.38.04-.64.11-.99.17-.8,2.31-2.34,2.93-2.97.69-.69,2.12-2.75,3.04-2.96.31-.07.69.04.81,0,.48-.17,2.95-2.25,3.66-2.72.4-.27.79-.52,1.23-.72h.5ZM57.7,32.5c-.04.15.04.17.1.25.94,1.36,3.14,2.82,4.21,4.19l4.45,1.55,4.68-1.61,4.26-4.24-8.86-5.55-8.84,5.4ZM42.63,42.63c-.76.76-1.43,2.41-2.21,3.24-.02.85-.09,1.72.1,2.55l4.72,4.77c.79-.87,1.53-1.8,2.35-2.65.92-.95,2-2.03,2.95-2.95.71-.69,1.75-1.41,2.4-2.1.07-.07.17-.11.14-.24l-4.76-4.74c-.85.05-1.73-.28-2.55,0-.25.09-2.94,1.89-3.15,2.1ZM87.61,53.09l.34-.08,4.59-4.61.03-2.53c-.04-.19-1.91-2.92-2.14-3.16-.27-.29-2.7-1.97-3.07-2.13-.88-.38-1.78-.01-2.7-.06l-4.67,4.63-.1.25c.09,0,.18.04.25.1,1.98,1.89,4.03,3.71,5.9,5.7.55.59,1.1,1.23,1.56,1.89ZM32.5,75.4c.15.04.17-.04.25-.1.42-.29,3.84-3.71,4.09-4.11.71-1.1.94-3.41,1.64-4.64-.68-1.23-.95-3.56-1.64-4.65-.35-.55-3.44-3.59-4.04-4.06-.08-.06-.12-.18-.25-.15l-5.52,8.85,5.47,8.85ZM100.45,57.7l-4.34,4.36-1.57,4.49,1.57,4.48,4.34,4.36,5.53-8.87-5.53-8.83ZM66.46,58.71l-7.76,7.76,7.84,7.93,7.75-7.85-7.84-7.84ZM45.25,79.9l-4.69,4.7c-.19.38-.23,2.1-.13,2.52.04.18,1.85,2.86,2.08,3.12.78.88,2.37,1.53,3.27,2.33h2.56s4.76-4.81,4.76-4.81l-7.84-7.86ZM90.37,90.47c.2-.19,2.16-3.05,2.21-3.24.06-.24.07-2.23,0-2.46l-4.83-4.87c-1.22,1.61-2.73,2.94-4.15,4.35-.45.44-.86.99-1.34,1.46-.65.63-1.61,1.28-2.2,1.9-.07.07-.17.11-.14.24l4.76,4.74c.23.07,2.31.06,2.56,0,.18-.05,2.93-1.91,3.14-2.11ZM57.7,100.6l8.76,5.38,8.93-5.53-4.31-4.29-4.54-1.56-4.55,1.56c-1.08,1.38-3.26,2.83-4.21,4.19-.06.08-.14.1-.1.25Z"/>
  <path d="M126.38,33.83c5.75-.53,7.99,7.27,2.82,9.82-7.38,3.65-10.97-9.07-2.82-9.82Z"/>
  <path d="M125.98,88.93c5.72-.69,8.49,6.52,3.71,9.51-2.73,1.71-6.51.65-7.67-2.42s.68-6.7,3.95-7.1Z"/>
  <path d="M38.18,121.73c5.39-.65,8.18,5.79,4.02,9.22-3.59,2.97-8.72.01-8.4-4.5.17-2.36,2-4.44,4.38-4.72Z"/>
  <path d="M93.38,121.73c6.77-.77,7.8,8.68,2.2,10.2-7.29,1.98-9.41-9.38-2.2-10.2Z"/>
  <path d="M38.58.93c6.13-.53,7.93,8.89,1.62,10.32-7.41,1.68-8.79-9.71-1.62-10.32Z"/>
  <path d="M93.58.93c6.8-.64,7.77,10.04.87,10.47s-7.38-9.86-.87-10.47Z"/>
  <path d="M5.68,33.83c7.57-.7,7.42,11.1-.02,10.36-6.21-.62-6.31-9.77.02-10.36Z"/>
  <path d="M5.48,88.93c8-.92,7.6,11.68-.3,10.25-5.89-1.07-5.43-9.59.3-10.25Z"/>
</svg>