<?xml version="1.0" encoding="UTF-8"?>
<svg id="Layer_1" data-name="Layer 1" xmlns="http://www.w3.org/2000/svg" viewBox="0 0 132.03 131.9">
  <path d="M0,65.2c.3-.74,1.04-.59,1.6-.95.19-.12,1.54-1.29,1.66-1.44.07-.08.14-.15.14-.26v-24.2c.77-7.93,10.45-6.2,15.8-4.6,7.33,2.19,15.23,6.29,19.28,13.02,1.01,1.68,3.88,7.24,4.02,8.98.03.39.04,1.05-.45,1.15-.76.15-2.14-.69-2.85-1.05-.95-.48-3.78-1.87-4.22-2.68-.47-.86-.9-2.87-1.28-3.92-.82-2.27-1.65-4.32-3.2-6.2-1.7-2.06-4.04-3.19-6.6-3.85v14.85c.2,3.46,1.97,6.18,5.06,7.73,1.97.99,2.64.63,4.68.61,3.64-.05,7.28.05,10.9.11,2.61.04,5.54-.41,7.92.68.7.32,1.67,1.04,2.33,1.27.88.3,2.1-.28,2.24.86.03.27-.09.43-.09.64,0,.15.13.3.12.48-.03,1.32-1.32.69-2.09.89-.67.17-2.02,1.17-2.81,1.49-1.1.45-2.13.54-3.31.59-5.97.25-12.11-.19-18.11,0-3.87,1.09-6.75,4.34-6.85,8.45v14.75c2.45-.49,4.8-1.71,6.46-3.6,2.6-2.97,3.41-7.01,4.8-10.6,1.46-1.06,3.11-1.97,4.74-2.76.99-.48,2.8-1.56,2.59.49-.19,1.81-2.85,7-3.87,8.73-4.02,6.8-11.78,10.91-19.14,13.16-5.43,1.66-15.33,3.55-16.08-4.57v-24.1c-.04-.23-1.58-1.6-1.85-1.75-.54-.31-1.2-.25-1.55-.9v-1.5ZM21.6,38.7c-2.93-.49-6-.99-8.92-.17-1.56.44-2.5,1.08-2.68,2.82.3,5.96-.39,12.29,0,18.21.05.7.36,2.97,1.1,3.2l8.4-.26c-.47-.69-.93-1.42-1.25-2.2-1.59-3.86-.54-8.28-.85-12.35-.03-.4-.13-1.11-.4-1.4-.68-.71-3.14-.35-3.05-1.76.04-.66.82-1.18,1.3-1.58,1.99-1.65,4.29-2.94,6.35-4.5ZM19.5,69.3l-8.35-.2c-.79.15-1.11,2.58-1.16,3.24-.38,5.95.29,12.31,0,18.3.35,3.59,6.28,3.22,8.85,2.95.89-.09,1.76-.32,2.65-.4.04-.19-.06-.19-.17-.28-1.79-1.55-4.37-2.77-6.28-4.42-.78-.67-1.92-1.82-.33-2.43s2.52-.01,2.68-2.12c.33-4.41-.87-9.08,1.21-13.19.26-.51.62-.96.89-1.46Z"/>
  <path d="M66.6,0c.7.35.61,1.06.95,1.6.16.25,1.17,1.42,1.39,1.61.1.08.16.19.31.19,8.39.09,16.8-.16,25.17.13,7.04,1.7,5.06,10.97,3.5,16.05-1.88,6.14-5.38,13.18-10.48,17.22-2.58,2.04-6.8,4.2-9.92,5.28-3.82,1.32-2.7-.65-1.58-2.88.46-.91,1.9-3.81,2.68-4.22.99-.52,3.04-.95,4.22-1.38,2.11-.77,4.02-1.58,5.8-3,2.11-1.7,3.28-4.11,3.95-6.7h-14.65c-3.51.09-6.38,1.95-7.93,5.06-1.08,2.15-.63,3.34-.61,5.58.03,2.87-.07,5.74-.11,8.6s.46,6.77-.68,9.32c-.3.67-1.22,1.95-1.37,2.53-.17.65.24,1.59-.38,1.92-.58.32-.64.03-1.02.02-.16,0-.3.14-.55.12-1.22-.1-.63-1.25-.84-2.06-.2-.76-1.12-1.99-1.47-2.83s-.53-1.66-.59-2.61c-.36-6.1.28-12.56,0-18.7-1.03-4-4.45-6.91-8.65-6.95h-14.55c.22,1.24.68,2.48,1.28,3.57,1.88,3.44,5.13,4.97,8.67,6.23,1.07.38,3.04.8,3.92,1.28.21.11.42.34.58.52.75.82,2.61,4.45,3.02,5.58.86,2.32-1.89,1.23-3,.8-9.48-3.58-14.64-8.8-18.42-18.18-2.25-5.58-6.59-19.68,3.19-20.3h24c.22-.04,1.25-1.19,1.45-1.45.56-.71.49-1.44,1.2-1.95h1.5ZM62.5,19.5l.2-8.35c-.15-.81-2.66-1.11-3.34-1.16-5.9-.36-12.17.28-18.1,0-3.43.31-3.35,5.41-3.15,7.95.1,1.22.38,2.43.5,3.65,1.04-1.25,1.86-2.7,2.82-4.03.59-.82,1.24-1.76,1.88-2.52.55-.64,1.48-1.73,2.24-.65.88,1.26-.07,2.82,2.2,3,4.4.35,9.11-.86,13.22,1.18.18.09,1.47.98,1.53.92ZM93.1,21.6c.47-2.94.99-5.99.17-8.92-.45-1.62-1.12-2.54-2.92-2.68-5.91.28-12.14-.36-18.01,0-.71.04-2.95.33-3.27,1.03l.23,8.48c.69-.47,1.42-.93,2.2-1.25,3.92-1.59,8.34-.53,12.45-.85.35-.03.99-.12,1.25-.35.65-.55.52-2.79,1.36-3.04.93-.27,1.42.54,1.93,1.13,1.71,2.01,3,4.36,4.6,6.45Z"/>
  <path d="M65.4,131.9c-.89-.22-.72-1.07-1.1-1.65-.11-.17-1.36-1.6-1.49-1.71-.08-.07-.15-.14-.26-.14h-24.6c-8.48-1.46-5.22-13.01-3.22-18.53,3.66-10.12,9.4-16.75,19.82-20.18.99-.33,2.92-.88,2.33.93-.31.95-2.49,5.1-3.13,5.77-.72.77-3.18,1.29-4.3,1.7-2.24.81-4.44,1.67-6.3,3.2-2.03,1.68-3.34,4.11-3.85,6.7.22,0,.42-.1.64-.1,4.81-.17,9.96.33,14.71,0,3.83-.26,6.83-3.16,7.85-6.75.13-6.09-.22-12.24.1-18.3.07-1.33-.05-1.82.48-3.12.35-.84,1.27-2.07,1.47-2.83s-.36-1.97.83-2.08c.2-.02.88-.03,1.07-.02,1.4.07.76,1.29,1,2.2.2.78,1.15,2.01,1.5,2.9.69,1.77.4,3.4.45,5.25.12,4.84.19,9.74.11,14.6-.02,1.42-.13,1.53.51,2.88,1.31,2.78,3.91,4.96,7.05,5.25,4.69.43,10.09-.18,14.89,0,.25,0,.49.12.75.1-.58-2.47-1.72-4.81-3.65-6.5-2.14-1.86-4.76-2.78-7.4-3.7-1.66-.58-2.92-.48-3.93-2.07-.58-.9-2.46-4.33-2.67-5.23-.42-1.83,1.68-1.02,2.6-.7,10.41,3.56,16,10.05,19.65,20.25,1.96,5.47,5.11,16.9-3.25,18.36h-24.6c-.12,0-.18.09-.26.14-.2.13-1.5,1.65-1.61,1.89-.29.57-.2,1.2-.98,1.47h-1.2ZM62.6,112.3c-1.06.83-2.3,1.4-3.6,1.75-3.62.98-7.66.13-11.35.45-1.92.16-1.22,1.8-1.96,2.94-.91,1.4-2.22-.6-2.78-1.29-1.48-1.85-2.73-3.89-4.05-5.85-.17.07-.4,1.67-.44,1.96-.4,2.87-.97,9.49,3.24,9.63,5.77-.28,11.88.37,17.6,0,.7-.04,3.39-.38,3.54-1.16l-.2-8.45ZM69.4,112.4l-.28,8.33c.3.48.86.68,1.39.82.62.16,1.6.32,2.24.36,5.73.35,11.83-.27,17.6,0,1.78-.15,2.52-.97,3-2.6.64-2.15.52-4.53.24-6.74-.1-.76-.26-1.51-.39-2.26-1.63,2.12-2.95,4.51-4.7,6.55-.5.58-.96,1.33-1.86.96-.99-.41-.49-3.14-1.94-3.26-4.78-.39-9.83.89-14.21-1.49-.13-.07-1.06-.7-1.1-.65Z"/>
  <path d="M108.2,92.6c-.07-.15-.1-.27-.11-.44-.12-4.75.31-9.82,0-14.51-.26-4.14-2.96-7.1-6.85-8.25-5.99-.19-12.13.25-18.11,0-1.32-.05-2.3-.15-3.51-.69-.72-.32-1.89-1.18-2.53-1.37-.78-.24-2.05.42-2.11-.8-.01-.23.09-.41.09-.6,0-.29-.14-.5-.06-.88.15-.7.83-.41,1.33-.47,1.58-.2,2.68-1.33,4.2-1.8,1.89-.58,4.75-.26,6.81-.29,3.65-.06,7.33-.15,11-.11,1.89.02,2.56.37,4.41-.48,3.12-1.44,5.12-4.2,5.34-7.66.3-4.72-.14-9.83,0-14.61,0-.17.03-.29.11-.44-3.28.72-5.96,2.46-7.74,5.31-1.69,2.69-2.4,5.84-3.52,8.78-.31.36-.67.67-1.07.93-.76.48-4.76,2.63-5.42,2.69-1.91.17-.36-3.01,0-3.9,4.02-9.93,9.71-14.78,19.72-18.38,5.59-2.01,17.34-5.21,18.43,3.62v24.3s.09.21.09.21c.61.34,1.16,1.13,1.71,1.49.57.37,1.49.18,1.6,1.1.03.28.03.92,0,1.2-.13.8-1.02.73-1.55,1.05-.24.15-1.47,1.23-1.65,1.45-.08.1-.19.16-.19.31v24.3c-1.11,8.74-12.68,5.62-18.25,3.65-6.47-2.29-13.06-6.11-16.73-12.07-1.07-1.74-3.96-7.36-4.11-9.19-.07-.86.29-1.28,1.15-1.04.91.25,5.49,2.68,6.09,3.31.53.55,1.3,3.6,1.65,4.55,1.78,4.88,4.28,8.79,9.8,9.75ZM112.5,62.5c2.49.1,4.97.14,7.45.2.6.01.87.38,1.33-.26.48-.68.77-2.53.82-3.38.38-5.81-.2-12.15-.11-17.99-.65-3.55-6.54-3.08-9.23-2.75-.79.1-1.57.3-2.36.39l6.85,4.9c2.66,2.51-1.62,2.14-2.3,3-.22.28-.33,1.17-.35,1.55-.27,3.88.65,8.18-.72,11.88-.33.89-.79,1.73-1.37,2.47ZM110.5,93.2c2.82.4,5.84.93,8.64.19,1.43-.37,2.51-.9,2.83-2.47-.07-5.87.51-12.24.13-18.08-.05-.77-.34-2.74-.76-3.34-.08-.12-.28-.35-.41-.39l-8.43.18c.44.72.92,1.41,1.25,2.2,1.55,3.73.58,8.28.85,12.25.03.4.15,1.43.48,1.65.84.58,3.88.42,2.81,2.23-.32.54-2.52,2.08-3.15,2.55-1.31.95-2.86,1.81-4.11,2.79-.08.06-.18,0-.13.23Z"/>
  <path d="M68.81,62.99c3.71.17,3.81,5.55.11,5.93-.41,3.42-5.49,3.43-5.83,0-2.77-.18-3.71-3.94-1.48-5.46.35-.24,1.16-.36,1.3-.5.11-.11.15-.61.25-.85,1.11-2.72,5.43-2.09,5.66.89Z"/>
  <path d="M47.58,46.43c4.28-.47,4.11,6.2-.18,5.53-3.06-.48-3.1-5.16.18-5.53Z"/>
  <path d="M83.38,46.43c3.91-.51,4.39,5.17.76,5.56s-4.33-5.09-.76-5.56Z"/>
  <path d="M57.08,45.23c4.06-.59,4.55,5.08,1.05,5.55-3.93.53-4.22-5.09-1.05-5.55Z"/>
  <path d="M47.47,71.42c2.25-.35,3.66,1.31,3.28,3.48s-3.3,2.72-4.76,1.25-.69-4.39,1.48-4.73Z"/>
  <path d="M83.28,54.93c4.09-.6,4.5,5.36.67,5.57-3.54.2-4.01-5.08-.67-5.57Z"/>
  <path d="M73.78,45.23c4.53-.66,4.34,6.29.02,5.53-3.07-.54-2.88-5.11-.02-5.53Z"/>
  <path d="M47.48,54.93c4.32-.58,4.19,5.96.19,5.56-3.33-.33-3.4-5.13-.19-5.56Z"/>
  <path d="M47.37,79.92c2.15-.36,3.64,1.07,3.43,3.23-.33,3.28-5.73,2.97-5.61-.6.04-1.14,1.04-2.43,2.18-2.63Z"/>
  <path d="M83.27,79.92c2.16-.34,3.71,1.14,3.42,3.32-.26,1.95-2.8,2.76-4.36,1.78-2.02-1.27-1.39-4.73.94-5.1Z"/>
  <path d="M57.08,81.13c4.11-.6,4.49,5.05,1.05,5.55-3.76.55-4.36-5.07-1.05-5.55Z"/>
  <path d="M83.27,71.42c4.17-.71,4.68,5.37.76,5.57-3.57.18-3.85-5.04-.76-5.57Z"/>
  <path d="M76.26,85.96c-2.84,2.7-6.71-2.08-3.61-4.36,2.87-2.12,6.15,1.96,3.61,4.36Z"/>
</svg>