<?xml version="1.0" encoding="UTF-8"?>
<svg id="Layer_1" data-name="Layer 1" xmlns="http://www.w3.org/2000/svg" viewBox="0 0 132.81 132.65">
  <path d="M28.9.01c3.7.45,3.12,5.74-.25,5.81S24.63.41,28.4.01c.14-.01.36-.02.5,0Z"/>
  <path d="M104.4.01c3.67.45,3.21,5.79-.25,5.81s-3.97-5.36-.35-5.81c.16-.02.44-.02.6,0Z"/>
  <path d="M0,104.51v-1.1c.62-2.08,2.95-3.04,4.7-1.55,1.54,1.31,1.29,3.66-.45,4.65s-3.76-.11-4.25-2Z"/>
  <path d="M132.8,103.81c0,.1,0,.2,0,.3-.34,4.32-6.83,3.12-5.65-.9.87-2.96,5.4-2.6,5.65.6Z"/>
  <path d="M132.8,28.61c0,.07,0,.13,0,.2-.2,3.69-5.81,3.45-5.81-.15s5.68-3.79,5.81-.05Z"/>
  <path d="M0,29.31v-1.2c.32-.81.65-1.46,1.43-1.92,2.62-1.52,5.53,1.67,3.77,4.07-1.54,2.1-4.46,1.47-5.2-.95Z"/>
  <path d="M73.6,20.82c-.07.26.15.2.3.34,3.35,3.31,6.76,7.16,10.25,10.26,3.3,2.93,7.21,3.27,11.1,1.2,3.18-3.36,6.5-6.58,9.8-9.8,1.94-1.88,3.82-4.39,6.39-5.31.78-.28,1.99-.45,2.68-.82s1.17-1.83,2.13-.78c.28.31.3.33.6.6,1.11,1.01-.39,1.49-.77,2.23-.43.83-.62,2.25-1,3.2-.48,1.18-1.22,1.91-2.07,2.83-4.08,4.38-8.67,8.44-12.8,12.8-2.12,3.87-1.72,7.82,1.2,11.1,3.13,3.52,6.97,6.81,10.26,10.25.08.08.13.18.15.3l.2-.06c.5-1,1.08-1.98,1.42-3.06,1.3-4.05.07-7.46-1.64-11.11-.38-.82-1.91-3.39-1.98-4.03-.1-.93,1.26-5.03,1.67-6.12.52-1.4,1.12-2.14,2.17-.51,1.26,1.94,2.84,6.88,3.39,9.21,1.85,7.89-.9,15.85-4.42,22.83,2.44,4.8,4.54,10.17,4.99,15.6.39,4.72-1.43,11.9-3.75,16.05-1.73,3.09-2.43-.35-2.95-1.95-.33-1-1.09-3.15-1.1-4.11-.01-.75,1.95-4.14,2.39-5.11,1.32-2.9,2.22-5.81,1.57-9.04-.31-1.54-1.05-2.92-1.76-4.3l-.24.11c-3.22,3.77-7.45,7.02-10.66,10.74-2.2,2.55-2.75,5.71-1.73,8.93.55,1.73.9,1.85,2.08,3.02,3.32,3.28,6.61,6.6,9.84,9.96,1.72,1.78,3.17,2.71,4.03,5.17.26.73.4,1.8.73,2.47.36.73,1.56,1.1,1.02,1.94-.07.12-.99,1.05-1.09,1.11-.92.59-1.3-.67-1.9-.99s-1.84-.5-2.55-.75c-1.78-.62-2.47-1.36-3.8-2.6-4.31-4.04-8.26-8.49-12.55-12.55-3.45-1.93-7.59-1.76-10.64.85-3.58,3.06-7.03,7.19-10.5,10.5-.14.13-.31.21-.45.35,4.47,3.16,9.09,2.27,13.73.14,1.28-.59,2.72-1.54,3.96-2.04,1.07-.43,3.42.46,4.58.82.8.25,1.79.53,2.55.85,2.7,1.14-1.04,2.57-2.13,3.02-2.16.91-5,1.91-7.28,2.42-7.78,1.74-15.81-1.02-22.65-4.55-6.7,3.46-14.64,6.21-22.27,4.63-2.43-.5-7.68-2.18-9.73-3.47-1.53-.97-1.25-1.58.28-2.18,1.11-.44,5.31-1.81,6.29-1.69.71.09,2.98,1.48,3.82,1.88,4.7,2.23,8.86,3.4,13.7.63l.63-.47-10.15-10.15c-3.01-3.2-7.74-3.67-11.5-1.5-3.31,3.39-6.6,6.8-10,10.1-1.49,1.45-3.78,4.03-5.63,4.77-.96.39-2.36.55-3.2,1-.7.38-1.19,1.8-2.13.77-.3-.33-.33-.35-.65-.65-1.04-.97.49-1.49.83-2.18.36-.73.58-2.06.9-2.9.55-1.48,1.28-2.15,2.32-3.28,4.03-4.31,8.54-8.31,12.6-12.6,1.95-3.27,1.87-7.52-.6-10.5l-11.05-11.15c-.7,1-1.28,2.2-1.62,3.38-1.24,4.27.28,7.79,2.09,11.56.56,1.17,1.69,2.63,1.57,3.9s-1.12,4.17-1.59,5.41c-.43,1.14-.92,2.27-2.04.84-1.28-1.63-3.3-8.1-3.73-10.27-1.47-7.57,1.18-15.33,4.63-21.97-3.51-6.82-6.26-14.81-4.51-22.55.54-2.39,1.54-5.24,2.5-7.5.31-.71,1.59-4.1,2.69-2.5.46.67,1.7,4.82,1.9,5.8.17.79.27,1.26-.06,2.04-.87,2.05-2.17,3.97-2.96,6.14-1.44,3.95-1.29,7.9,1.12,11.42.13-.14.21-.31.35-.45,3.31-3.46,7.3-6.84,10.41-10.39,2.71-3.1,2.92-7.03,1.04-10.65l-14.04-14.16c-1.24-1.25-1.2-3.41-1.93-4.77-.28-.53-1.38-1.06-1.12-1.77.06-.16.87-1.01,1.04-1.16,1.01-.88,1.38.48,2.13.87.7.36,2.01.57,2.82.88,1.74.65,2.69,1.75,4,3,4.09,3.9,7.92,8.08,12,12,3.51,1.99,7.62,1.76,10.7-.9l10.85-10.85c-2.38-1.57-5.08-2.29-7.94-1.94-2.6.32-4.97,1.48-7.3,2.6-.76.36-2.45,1.49-3.2,1.48-.96-.01-5.69-1.49-6.63-1.97-2.24-1.15,1.7-2.6,2.57-2.96,2.5-1.04,5.81-2.21,8.48-2.62,7.31-1.15,14.89,1.46,21.27,4.84,6.76-3.5,14.67-6.26,22.37-4.63,2.55.54,6.15,1.77,8.52,2.88.75.35,3.04,1.35,1.76,2.33-.67.52-4,1.44-4.99,1.71-.57.15-1.47.47-2.04.44-.66-.03-3.47-1.68-4.33-2.08-4.08-1.89-7.61-3.01-12-1.13-.7.3-1.33.73-2.03,1.02ZM61.4,23.41l.7-.55c-.11-.16-.87-.75-1-.65l.3,1.2ZM71.6,22.22l-1,.65.65.55c.22.03.12-.03.15-.15.08-.34.13-.7.2-1.05ZM66.3,26.51c-1.27,1.93-2.91,3.64-1.14,5.89.14.18,1.15,1.22,1.28,1.2.88-.81,2-1.94,1.97-3.24-.02-1.21-1.28-2.99-2.11-3.85ZM87.2,40.72c-1.94-.23-3.73-1.13-5.29-2.26l-5.96-5.94c-.87,2.44-3.22,3.86-4.84,5.76l6.89,6.99c.68.49,2.38,1.99,3.23,1.73l5.97-6.28ZM56.9,32.61l-.25.1c-3.36,3.08-6.13,7.41-11.05,8l5.89,6.26c.92.31,2.61-1.27,3.35-1.76l6.85-6.85c-1.61-1.85-4.01-3.34-4.8-5.75ZM75.66,57.15c-.28-.28-.65-.37-.67-.89-.02-.45.52-1.14.59-1.81.03-.29.13-1.99.06-2.14l-9.3-9.3-9.14,9.16c-.11.15-.1.31-.12.48-.05.49.03,1.7.11,2.2.09.61.93,1.27.3,2.01-.08.1-.61.62-.71.69-.84.68-1.36-.23-2.15-.34-.4-.05-.87,0-1.29,0-.37-.01-.8-.26-1.19.01l-9.06,9.12,9.2,9.22c.8-.1,1.76,0,2.54-.16.6-.12.92-.68,1.66-.45.1.03.97.85,1.04.96.54.82-.24,1.31-.34,1.95-.05.33-.1,1.03-.11,1.39-.01.29-.05.92.06,1.15l9.28,9.19,9.15-9.16c.25-.33.02-.67.01-.99-.02-.64.05-1.23-.15-1.85-.22-.68-.83-1.06-.15-1.85.08-.09.57-.56.67-.63.84-.67,1.3.17,1.89.28.75.14,1.66.02,2.42.17l.26-.08,9.16-9.14-9.2-9.2c-.35-.18-.72.04-1.05.05-.42.01-.89-.04-1.29,0-.75.1-1.33.92-2.11.39-.19-.13-.25-.33-.38-.47ZM100.1,56.81l-.1-.25c-2.62-2.91-6.15-5.18-7.48-9.02-.21-.6-.37-1.29-.43-1.93l-6.28,5.97c-.25.83,1.14,2.4,1.58,3.08l6.96,6.94c1.97-1.47,3.31-3.98,5.74-4.79ZM32.6,56.81c2.47.78,3.87,3.28,5.84,4.79l6.76-6.74c.52-.86,2.01-2.28,1.68-3.38l-6.28-5.77c-.51,4.95-5.01,7.66-8,11.1ZM23.3,61.42l-1.2-.2.65.9.55-.7ZM110.6,61.22s-.84.14-.96.19c-.11.04-.17-.05-.14.16l.39.49.21.06.5-.9ZM30.18,64.24c-1.22.09-2.88,1.33-3.78,2.13,2.21,1.74,3.97,3.13,6.45.85.19-.17.8-.7.74-.93-.02-.08-.94-1-1.09-1.12-.63-.51-1.48-.99-2.32-.93ZM102.28,64.24c-1.21.05-2.39,1.2-3.18,2.04,1.08,1.38,2.4,2.59,4.29,1.98.44-.14,2.82-1.55,2.9-1.9-.09-.22-.41-.44-.6-.58-.83-.64-2.35-1.58-3.41-1.54ZM23.2,71.31c.05-.33-.26-.49-.45-.7l-.65.9,1.1-.2ZM110.6,71.51l-.55-.9c-.13-.03-.51.45-.55.55-.07.19.06.13.15.15.31.07.64.1.95.2ZM92.1,87.01c.57-4.91,4.94-7.69,8-11.05-2.37-1.04-3.87-3.26-5.75-4.95l-6.7,6.7c-.69,1.07-1.88,2.05-1.83,3.43,1.2,1.22,2.54,2.34,3.78,3.52.64.61,1.6,1.81,2.25,2.25.08.06.1.14.25.1ZM32.6,75.92c2.5,2.94,6.14,5.2,7.5,8.95.26.71.37,1.47.65,2.15l6.13-5.87c.31-1.02-1.15-2.49-1.68-3.28l-6.77-6.74-.28.08c-1.81,1.59-3.21,3.87-5.55,4.71ZM56.9,100.11c.7-2.34,3.06-3.77,4.61-5.55l.08-.28-6.84-6.87c-.75-.52-2.32-1.97-3.28-1.68l-5.87,6.28c4.92.5,7.68,4.96,11.05,8l.25.1ZM87.1,92.01l-.1-.25-5.6-5.9c-.07-.08-.15-.12-.26-.14-1-.19-2.54,1.33-3.35,1.85l-6.69,6.79c1.67,1.87,3.88,3.36,4.84,5.76,3.41-3.08,6.19-7.54,11.15-8.1ZM66.5,106.11c.64-1.1,1.93-2.5,1.91-3.85-.02-1.25-1.1-2.45-2.06-3.15-.3,0-1.39,1.42-1.57,1.74-.84,1.5-.26,2.65.58,3.96.12.19.92,1.46,1.14,1.31ZM61.1,110.51l1-.65-.65-.65-.35,1.3ZM71.6,110.51l-.25-1.3-.69.49-.06.21,1,.6Z"/>
  <path d="M120.68,117.94c4.03-.53,4.3,5.57.47,5.87s-4.22-5.38-.47-5.87Z"/>
  <path d="M11.17,117.94c4.23-.67,4.86,6.15.48,5.87-3.46-.22-3.8-5.34-.48-5.87Z"/>
  <path d="M11.28,8.94c5.08-.75,4,7.17-.53,5.68-2.91-.96-2.26-5.27.53-5.68Z"/>
  <path d="M120.27,8.94c3.16-.5,5.01,3.36,2.43,5.33-1.94,1.48-4.84-.4-4.7-2.7.07-1.19,1.09-2.44,2.28-2.63Z"/>
  <path d="M123.68,95.04c2.71-.19,4.1,3.46,1.85,5.16-2.68,2.02-6.06-1.44-3.98-3.98.5-.61,1.34-1.12,2.13-1.18Z"/>
  <path d="M34.48,6.14c3.21-.29,4.28,4.17,1.39,5.49-3.96,1.81-5.89-5.08-1.39-5.49Z"/>
  <path d="M34.17,120.84c2.58-.41,4.49,2.67,2.72,4.72-1.99,2.31-5.88.2-4.93-2.73.3-.93,1.23-1.84,2.2-2Z"/>
  <path d="M97.68,6.14c1.22-.15,2.68.71,3.07,1.88.93,2.76-2.32,5.11-4.55,3.15-1.88-1.66-.99-4.72,1.48-5.02Z"/>
  <path d="M28.07,126.94c2.59-.41,4.44,2.61,2.77,4.67-1.96,2.4-5.97.26-4.95-2.75.3-.88,1.25-1.78,2.18-1.92Z"/>
  <path d="M123.28,31.94c3.08-.45,4.68,3.43,2.12,5.22s-5.84-1.47-3.93-4.03c.4-.54,1.13-1.08,1.82-1.18Z"/>
  <path d="M8.68,95.04c2.3-.16,4.05,2.58,2.62,4.53-1.89,2.58-5.69.82-5.16-2.26.2-1.13,1.4-2.19,2.54-2.27Z"/>
  <path d="M8.37,31.94c3.22-.5,4.83,3.68,1.92,5.32-2.71,1.53-5.5-1.79-3.58-4.28.37-.48,1.05-.95,1.66-1.04Z"/>
  <path d="M97.57,120.84c2.68-.43,4.49,2.91,2.48,4.88-2.24,2.19-5.94-.29-4.6-3.2.34-.75,1.3-1.55,2.12-1.68Z"/>
  <path d="M103.68,126.94c2.99-.43,4.63,3.52,2.02,5.21-2.14,1.39-4.73-.36-4.37-2.87.16-1.07,1.28-2.2,2.35-2.35Z"/>
</svg>