<?xml version="1.0" encoding="UTF-8"?>
<svg id="Layer_1" data-name="Layer 1" xmlns="http://www.w3.org/2000/svg" viewBox="0 0 109.81 150.43">
  <path d="M109.81,39.3v2.9l-.31,3.44c-.46,3.63-1.43,7.17-2.56,10.64-2.39,7.33-5.8,14.31-10.43,20.47,6.47,8.74,10.76,19.03,12.78,29.72l.52,4.83v2.9l-.35,2.1c-1.12,4.65-3.8,8.26-8.9,8.6h-40.1s-2.8,3-2.8,3c-.48.9-.44,2.41-1.71,2.59-.36.05-1.28.03-1.69.02-1.81-.05-1.37-1.49-2-2.5-.35-.55-1.68-1.97-2.19-2.51-.17-.17-.48-.55-.7-.6H9.35c-5.43-.34-8.18-4.41-9.12-9.38l-.23-2.02v-1l.3-4.25c.59-4.67,1.93-9.26,3.52-13.68,2.3-6.37,5.48-12.41,9.54-17.82-5.24-6.91-8.92-14.92-11.32-23.25-.77-2.68-1.41-5.39-1.74-8.16L0,41c.01-.33-.02-.67,0-1,.31-5.46,3.36-11.32,9.55-11.4h39.9s.2-.1.2-.1l2.6-3c.5-1.09.42-2.5,2-2.5.23,0,.44.1.61.1.73,0,1.03-.32,1.74.26.75.61.56,1.52,1.05,2.25.45.66,1.7,2,2.29,2.61.15.15.29.36.5.4h39.9c5.93.38,8.83,5.06,9.35,10.54l.09.16ZM49.31,54.8c.03-2.69-.13-5.4.3-8.05l.2-5.49c-.12-.77-1.83-1.35-2.5-1.51-1-.24-2.04-.26-3.05-.45H14.76c-1.98.23-3.38,1.1-4.17,2.94-1.51,3.51-1.31,8.17-.87,11.91.17,1.43.48,2.84.69,4.26l4.52-6.63c1.25-1.54,2.28-3.32,3.63-4.77,1.19-1.28,2.68-1.98,3.46.15s.21,4.05,3.04,4.26c7.36.55,15.35-1.47,22.16,2.14.72.38,1.36.9,2.1,1.25ZM99.4,58.3c.88-4.66,1.65-9.96.35-14.6-.72-2.57-1.86-4.12-4.7-4.4h-29.51c-1.8.35-4.17.22-5.43,1.77,0,2.09.09,4.19.18,6.28.08,1.88.22,3.81.3,5.7.02.58-.03,1.17,0,1.75.81-.45,1.56-1.04,2.39-1.45,6.72-3.33,14.56-1.4,21.76-1.94.65-.05,1.71-.23,2.07-.83.86-1.45.65-5.84,3.4-4.54.63.3,1.59,1.63,2.07,2.23,2.58,3.2,4.71,6.72,7.1,10.05ZM34.91,62.1l-23.7-.1c1,3.94,2.74,7.91,5.95,10.5,1.07-.86,2.07-1.81,3.16-2.64,3.11-2.37,6.57-4.03,10.05-5.75l4.54-2.01ZM98.61,62l-23.6.15c4.91,2.17,10.09,4.36,14.39,7.61,1.14.86,2.18,1.82,3.26,2.74.33,0,1.58-1.43,1.85-1.76,2.06-2.48,3.39-5.62,4.1-8.75ZM40.02,90.49c.35.22,2.83-1.27,3.26-1.56,2.4-1.67,5.1-5.21,5.83-8.07.25-.97.24-6.66.09-7.8-.06-.43-.37-1.13-.54-1.56-1.51-3.8-4.64-7.23-8.59-8.51-.28.54-.47,1.13-.74,1.68-1.04,2.1-2.29,4.62-3.5,6.6-.44.71-1.13,1.76-1.89,2.11-1.45.67-3.77,1.16-5.38,1.72-1.46.51-2.9,1.07-4.35,1.6,0,.14.15.15.25.2,2.75,1.4,6.41,1.98,9.25,3.15,1.01.42,1.67,1.47,2.22,2.38.77,1.28,1.54,2.82,2.23,4.17.66,1.27,1.31,2.56,1.86,3.89ZM85.61,76.7c-1.24-.48-2.49-.96-3.75-1.4-1.81-.64-3.86-1.12-5.61-1.79-1.04-.4-1.6-1.22-2.16-2.14-1.06-1.72-2.1-3.85-3.04-5.66-.43-.83-.84-1.66-1.17-2.53-.04-.12-.1-.17-.23-.17-.24,0-1.87.84-2.19,1.02-2.72,1.58-6.44,5.96-6.86,9.14-.18,1.34-.18,5.95,0,7.28.04.32.31.92.44,1.26,1.56,4.04,4.63,7.41,8.75,8.9.22-.69.53-1.36.85-2,1.02-2.04,2.25-4.54,3.44-6.46.46-.74,1.08-1.65,1.89-2.01,2.79-1.26,6.45-1.81,9.33-3.17.08-.04.36-.17.3-.25ZM34.81,91.3c-5.13-2.15-10.49-4.51-14.89-7.96-.95-.75-1.83-1.57-2.76-2.34-3.19,2.6-4.94,6.57-5.95,10.5l23.6-.2ZM98.61,91.5c-.92-3.98-2.75-7.8-5.86-10.49-.16-.03-2.15,1.82-2.49,2.09-4.54,3.61-9.95,5.97-15.25,8.25l23.6.15ZM49.31,98.7c-.67.31-1.25.79-1.9,1.15-6.8,3.75-14.85,1.7-22.26,2.24-.54.04-1.37.18-1.8.5-1.33,1.03-.77,6.32-3.72,4.92-.63-.3-1.93-2.04-2.43-2.67-2.36-2.99-4.24-6.45-6.52-9.38-.08-.1-.15-.24-.28-.27-.8,4.66-1.62,9.77-.37,14.42.93,3.46,2.32,4.51,5.92,4.68,9.18.43,18.69-.34,27.91,0,1.25-.27,2.54-.28,3.77-.63.64-.18,2.09-.67,2.18-1.43-.23-2.8-.14-5.61-.5-8.39v-5.15ZM60.61,98.7c-.02.58.03,1.17,0,1.75-.1,2.33-.12,4.67-.31,6.99l-.2,4.9c1.24,1.79,3.92,1.48,5.84,1.96,9.21-.34,18.73.43,27.91,0,3.06-.14,4.72-.85,5.72-3.88,1.22-3.71.94-8.23.41-12.06-.15-1.06-.37-2.12-.59-3.16-2.34,3.31-4.48,6.77-7,9.95-.85,1.06-2.18,3.22-3.77,2.37-1.2-.64-1.05-3.79-1.99-4.81-.34-.37-1.49-.57-1.99-.61-7.34-.54-15.28,1.47-22.06-2.14-.69-.37-1.33-.84-2-1.25Z"/>
  <path d="M85.01,150.4c-.35.04-1.25.04-1.6,0-5.24-.67-4.94-9.69,1.34-9.09,5.5.52,5.29,8.45.26,9.09Z"/>
  <path d="M26.51,150.4h-1.7c-3.12-.6-4.85-4.06-3.22-6.87s6.14-3.02,7.9-.16c1.65,2.69.16,6.39-2.98,7.03Z"/>
  <path d="M84.41,0c6.63.53,5.44,10.26-1.12,9.07-5.14-.93-4.57-8.82.72-9.07h.4Z"/>
  <path d="M25.81,0c6.39.52,5.43,10.22-1.12,9.07-5.34-.94-4.62-8.82.72-9.07h.4Z"/>
  <path d="M54.39,9.33c6.84-.67,7.12,9.6.27,9.24-5.94-.31-5.97-8.68-.27-9.24Z"/>
  <path d="M25.08,13.93c6.12-.67,6.81,8.47,1.26,9.06-6.66.7-7.12-8.42-1.26-9.06Z"/>
  <path d="M83.68,13.93c6.12-.67,7.08,8.41,1.26,9.06-6.52.73-6.98-8.43-1.26-9.06Z"/>
  <path d="M54.18,131.93c3.64-.44,6.64,2.83,5.17,6.37-1.39,3.35-6.08,3.82-8.29.99s-.37-6.94,3.12-7.36Z"/>
  <path d="M83.99,127.43c6.21-.22,6.32,8.45,1.06,9.06-6.76.79-7.1-8.85-1.06-9.06Z"/>
  <path d="M25.39,127.43c6.11-.27,6.13,8.47,1.06,9.06-6.77.79-7.32-8.78-1.06-9.06Z"/>
</svg>