<?xml version="1.0" encoding="UTF-8"?>
<svg id="Layer_1" data-name="Layer 1" xmlns="http://www.w3.org/2000/svg" viewBox="0 0 109.3 109.3">
  <path fill="#FFFFFF" d="M55.2,0c1.34.27,1.17,1.61,1.66,2.49.53.95,2.02,1.99,2.59,3.01l.9.2h39.8c5.09.26,8.13,4.61,8.92,9.28.09.53.07,1.12.23,1.62v2.3l-.31,3.74c-2.57,14.68-9.62,31.88-22.7,40.1-3.43,2.16-10.97,6.06-14.81,6.89-.63.14-1.15.22-1.78.07.28,1.25-.3,2.64-.73,3.82-2.39,6.66-6.71,14.76-11.82,19.68-7.95,7.64-23.03,14.25-33.92,15.68l-4.94.41h-1.3c-.63-.15-1.28-.13-1.92-.23-4.71-.73-9.16-3.91-9.38-9.02v-40.2c-.03-.24-.18-.4-.34-.56-.48-.5-2.12-1.97-2.66-2.34-.94-.64-2.43-.34-2.69-1.86v-1.8c.27-1.47,1.57-1.25,2.55-1.8.36-.2,2.66-2.2,2.95-2.55.1-.12.17-.25.19-.41V8.35s.43-2.22.43-2.22l2.12-.43h39.8s.91-.19.91-.19l2.58-3.02c.42-1.02.42-2.13,1.66-2.49h2ZM48.6,32l.2-8.55c-.03-1.53.41-3.63.21-5.1-.06-.46-.67-.84-1.07-1.03-1.35-.64-2.93-.67-4.38-.92h-27.15s0,27.06,0,27.06c.34,1.86.26,4.09,1.71,5.49l14-.35c-2.04-2.69-3.12-6-3.5-9.34v-10.65s10.86,0,10.86,0c2.37.28,4.67.96,6.81,1.99l2.33,1.42ZM98.9,35.5c.77-4.73,1.61-9.78.35-14.5-.72-2.68-1.84-4.32-4.8-4.6h-29.61c-1.47.27-3.25.27-4.58,1.02-1.11.62-.91,1.16-.87,2.33.03,1.05.18,2.14.21,3.19.09,3.02.05,6.05.2,9.05l2.53-1.52c6.36-3.15,14.21-1.48,21.12-1.88.68-.04,1.97-.16,2.5-.6,1.2-1.01.69-5.18,2.9-5.11.87.03,1.54.87,2.05,1.46,2.95,3.39,5.01,7.46,7.72,10.88.08.1.15.24.28.27ZM59.9,50.25v9.65h-9.75c-.11,0-1.73.7-1.99.81-5.09,2.31-8.56,6.85-8.87,12.53-.43,7.78.27,15.97,0,23.81-.01.33-.12.62-.1.94,5.14-1.06,9.22-3.66,12.18-7.97,3.24-4.72,3.9-9.5,5.94-14.56.38-.94,1.11-1.43,1.95-1.95,1.53-.96,7.41-4.23,8.9-4.5.27-.05.55-.02.83-.02-.01-1.53.96-3.05,1.65-4.4.73-1.44,3.07-6.16,4.16-6.94.21-.15.5-.26.74-.36,1.86-.77,4.15-1.3,6.1-2,3.45-1.23,6.62-2.49,9.54-4.76,3.64-2.83,5.9-6.83,6.81-11.34-.39-.05-.76.09-1.15.1-7.81.25-15.96-.43-23.71,0-5.52.3-9.92,3.65-12.26,8.54-.25.52-.91,1.93-.98,2.42ZM47,47c-1.3-2.68-3.51-4.92-6.2-6.2,1.32,2.67,3.57,4.83,6.2,6.2ZM35.5,98.7c-3.47-2.26-7.03-4.49-10.25-7.11-.96-.78-2.94-2.09-2.14-3.53s4.53-.91,5.19-2.61c.17-.43.27-1.23.3-1.7.47-7.39-1.46-15.36,2.28-22.12.15-.27,1.14-1.68,1.12-1.78-.02-.12-.24-.14-.35-.16-1.45-.17-3.38.05-4.91,0-2.18-.05-4.41-.26-6.59-.31-.44,0-1.64-.07-1.98.02-1.22.36-1.64,4.44-1.77,5.53v29.41c.23,3.17,2.2,4.31,5.02,4.98,4.01.95,9.91.52,13.93-.43.15-.04.18.07.15-.2Z"/>
  <path fill="#FFFFFF" d="M80.28,75.82c1.73-.03,3.57,1.23,4.27,2.78,2.2,4.87-4.42,9.03-7.9,4.7-2.37-2.94.08-7.41,3.63-7.48Z"/>
  <path fill="#FFFFFF" d="M89.68,85.73c3.87-.45,6.69,4.22,4.17,7.37-1.95,2.44-5.39,2.51-7.35.05-2.21-2.77-.23-7.03,3.18-7.42Z"/>
</svg>