<?xml version="1.0" encoding="UTF-8"?>
<svg id="Layer_1" data-name="Layer 1" xmlns="http://www.w3.org/2000/svg" viewBox="0 0 126.11 126.12">
  <path d="M55.81,126.12c-.14-.15-.34-.21-.5-.35-2.68-2.23-5.08-5.43-7.75-7.75-.45-.53-.69-1.24-.64-1.94.09-1.24,1.75-7.04,2.44-7.96.49-.64.9-.35,1.44.05,1.9,1.44,2.36,3.56,5.25,3.13.63-.09,1.32-.3,1.86-.64-3.1-4.7-5.09-10.13-6.27-15.63-.23-1.07-.31-2.39-.59-3.41-.13-.46-.27-.75-.78-.82-.46-.06-4.3.14-4.44.31-.21,4.7-.31,9.42-.74,14.11-.11,1.1-1.07,1.45-1.94,1.86-1.73.82-4.53,1.92-6.36,2.44-.84.24-1.5.23-1.48-.87.02-1.21.38-2.75.5-4.01.34-3.6.61-7.22.79-10.84-.99-.46-2.72-.76-3.31-1.74-.22-.38-1.01-2.62-1.14-2.66-2.79.23-5.59.35-8.38.59-1.97.17-4.28.66-6.2.7-1.08.03-1.34-.32-1.09-1.39.32-1.36,2.3-6.46,3.05-7.55.85-1.24,2.75-.77,4.03-1.07l11.45-.5.31-3.85c.01-.92-.23-1.21-1.1-1.41-1.22-.28-2.57-.41-3.82-.68-5.31-1.14-10.42-3.23-15.03-6.07-.51.85-.76,2.16-.66,3.15.14,1.29,2.18,2.72,3,3.7.39.47.9,1,.33,1.54-.79.75-5.96,2.13-7.23,2.37s-1.82.3-2.85-.55c-2.66-2.2-5.05-5.41-7.7-7.7-.35-.33-.35-.88.08-1.12,1.81-.59,3.69-1.11,5.26-2.24l4.1-4.29c-1.78-1.79-3.23-4.12-5.56-5.24-.52-.25-1.17-.49-1.71-.69-.71-.26-2.95-.51-2.33-1.58l8.37-8.33c1.17-.68,3.22.06,4.48.39s2.78.75,3.96,1.24c.98.41,1.87.73,1.04,1.84s-3.08,2.58-3.24,3.96c-.13,1.11.21,2.23.6,3.25,4.92-3.17,10.44-5.2,16.18-6.37.93-.19,2.04-.25,2.92-.48.75-.19.9-.7.9-1.41l-.31-3.85-11.85-.5c-1.35-.26-2.86.16-3.73-1.17-.82-1.24-2.36-5.54-2.82-7.08-.27-.91-.49-1.66.75-1.76,4.91.65,9.84,1.04,14.79,1.29.19-.07.9-2.27,1.14-2.66.55-.91,2.35-1.26,3.28-1.72.09-.14.06-.56.04-.75-.29-4.71-.71-9.42-1.3-14.1.09-.92.43-1.07,1.3-.9,1.13.22,6.5,2.31,7.46,2.93,1.4.9.96,2.25,1.23,3.67l.5,11.95,3.85.31c.72,0,1.22-.17,1.41-.9.42-1.65.58-3.58.99-5.31,1.16-4.83,3.21-9.61,5.85-13.8-1.03-.4-2.13-.72-3.25-.6-1.38.15-2.86,2.43-3.96,3.24-1.25.92-1.56-.39-1.97-1.42-.48-1.22-.89-2.7-1.22-3.98-.3-1.19-.94-2.96-.29-4.08L55.56.11c1.08-.62,1.3,1.57,1.55,2.26.73,1.98,1.28,3.03,2.8,4.5,1.01.98,2.15,1.86,3.15,2.85,1.25-1.43,3.16-2.62,4.29-4.11s1.63-3.52,2.24-5.26c.15-.3.52-.4.83-.28l8.15,8.05c.72.93.59,1.63.4,2.7-.23,1.27-1.62,6.44-2.37,7.23-.54.57-1.07.06-1.54-.33-.85-.71-2.36-2.7-3.34-2.96s-2.63.08-3.5.61c2.85,4.6,4.93,9.72,6.07,15.03.27,1.25.4,2.61.68,3.82.21.9.47,1.05,1.41,1.1l3.85-.31.6-12.85c.16-.71.04-1.5.45-2.15s2.35-1.36,3.12-1.68c1.25-.52,3.8-1.63,5.02-1.88,1.03-.21,1.35.07,1.31,1.11-.09,2.34-.6,5-.8,7.4s-.32,4.84-.46,7.25c.8.35,1.81.61,2.56,1.04,1.12.64,1.28,2.3,1.86,3.36,4.94-.29,9.88-.65,14.78-1.31,1.18.11,1.13.61.85,1.56-.54,1.82-1.93,5.65-2.89,7.21-.88,1.44-2.22.94-3.67,1.23l-11.84.51c-.17.14-.37,3.98-.31,4.44.07.56.48.7.98.82,1.16.28,2.53.39,3.74.66,5.28,1.14,10.63,3.18,15.13,6.17.31-.02.76-2.49.76-2.85,0-1.65-2.33-3.05-3.25-4.26-.79-1.04-.42-1.28.61-1.78,1.28-.61,6.62-2.23,7.87-2.1.51.05.97.32,1.36.64,2.35,2.67,5.48,5.06,7.75,7.75.14.17.19.36.35.5v.2c-.42.74-1.2.68-1.92.93-1.66.58-3.42,1.24-4.63,2.57l-3.14,3.54c.95,1.01,1.82,2.12,2.79,3.12,1.34,1.38,2.27,1.95,4.08,2.62.66.24,1.76.44,2.3.7.25.12.35.34.53.52v.3l-8.2,8.25c-.61.53-1.34.62-2.13.52-1.49-.18-6.11-1.5-7.38-2.22-.62-.35-.85-.71-.44-1.35.73-1.12,2.8-2.36,3.3-3.7.39-1.03-.14-2.71-.55-3.7-4.34,2.85-9.5,4.93-14.58,6.07-1.41.32-2.96.45-4.32.78-.46.11-.9.28-.99.81-.07.45.13,4.29.3,4.43l12.84.61c1.1.17,1.94.05,2.63,1.07.81,1.19,2.55,5.93,2.96,7.44.29,1.07.08,1.44-1.1,1.4-2.27-.07-4.97-.6-7.3-.8s-4.9-.3-7.34-.49l-1.14,2.86-.44.43-2.84,1.16c.24,2.38.31,4.79.51,7.19s.74,5.1.8,7.4c.03,1.17-.33,1.39-1.4,1.1-1.49-.4-6.27-2.16-7.44-2.96-.97-.66-.96-1.66-1.07-2.73-.23-2.42-.29-5.06-.41-7.49-.08-1.74-.02-3.51-.21-5.24-.07-.12-2.4-.3-2.73-.32-1.11-.05-2.24-.3-2.51,1-.3,1.43-.46,2.89-.78,4.32-1.14,5.09-3.21,10.24-6.07,14.58.64.27,1.27.49,1.96.59,1.69.24,2.13-.17,3.34-1.24.57-.51,1.97-2.22,2.6-2.31.29-.04.53.2.7.41.67.84,2.31,6.62,2.4,7.8.06.72-.06,1.4-.55,1.95l-8.25,8.2h-.3c-.71-.44-.69-1.35-.95-2.1-1.23-3.41-2.78-4.99-5.55-7.25-.11-.09-.42-.36-.54-.34l-3.52,3.19c-.99.91-1.61,2.17-2.1,3.4-.28.71-.52,2.04-.81,2.59-.11.21-.39.33-.54.51h-.2ZM63.11,20.02c-2.71,3.1-4.62,6.98-6.15,10.8-.33.82-1.4,3.35-1.45,4.06-.04.6.46,1.06.99,1.19.37.09,1.29.12,1.75.15,3.2.21,6.41.21,9.61,0,.45-.03,1.39-.06,1.75-.15,1.46-.38.71-1.88.4-2.8-1.04-3.14-2.65-6.72-4.36-9.54-.78-1.29-1.7-2.47-2.54-3.71ZM67.21,46.11c-.04-.18-.2-.19-.35-.2-1.53-.17-3.26,0-4.8,0-.9,0-2.05-.1-2.91,0-.15.02-.31.02-.35.2,1.49.34,2.77,1.22,4.16,1.8,1.43-.53,2.73-1.43,4.24-1.8ZM51.21,54.62l1.45,1.9c.6-.67,1.48-1.17,2.1-1.79s1.09-1.47,1.74-2.05l-1.55-1.25c-.26.44-.36.9-.65,1.35-.69,1.05-1.86,1.73-3.1,1.85ZM71.21,51.42l-1.54,1.09-.05.24c.63.54,1.08,1.4,1.63,1.97.6.62,1.56,1.07,2.1,1.79l1.45-1.9c-1.77-.21-3.28-1.42-3.6-3.2ZM20.01,63.11c2.38,1.77,4.87,3.32,7.56,4.59,1.77.83,3.83,1.7,5.68,2.32.93.31,2.43,1.06,2.8-.4.09-.34.12-1.23.15-1.65.21-3.27.2-6.54,0-9.81-.03-.41-.06-1.45-.15-1.75-.45-1.5-2.09-.61-3.08-.27-4.57,1.58-9.31,3.83-12.98,6.97ZM106.01,62.92c-1.15-.75-2.24-1.61-3.41-2.34-2.84-1.77-6.18-3.23-9.34-4.36-1.04-.37-2.63-1.32-3.2.1-.31.78-.2,3.08-.25,4.05-.04.92-.21,1.88-.21,2.8.01,2.1.38,4.24.35,6.35.53,1.66,1.94.8,3.1.4,3.99-1.38,8.5-3.48,11.88-6.02.28-.21.73-.51.96-.74.08-.08.14-.09.11-.24ZM80.11,67.31l-.05-8.6c-.52,1.5-1.28,2.89-1.93,4.33l1.98,4.27ZM46.11,67.21l1.8-4.24-1.85-4.16c-.23,0-.14,3.03-.15,3.36-.01,1.46-.12,3.03,0,4.49,0,.12.04.53.2.55ZM62.75,62.75c-.08.08-.14.22-.21.31l.44.44.53-.46-.44-.51c-.1.07-.23.13-.31.21ZM74.41,70.81l-1.05-1.3c-.55.73-1.48,1.2-2.09,1.81-.32.33-.69.91-1.01,1.29-.16.19-.72.58-.65.84l1.49,1.16c.03-1.86,1.45-3.51,3.3-3.8ZM51.71,70.81c1.25.23,2.42,1.16,2.92,2.33.2.47.22.93.43,1.37l1.45-1.15c-.69-.55-1.15-1.45-1.74-2.05-.56-.57-1.42-1.01-1.95-1.65l-.29-.04-.81,1.19ZM48.41,78.22l-.7-.5-.1.8c.22-.15.69-.04.8-.3ZM78.51,78.51s-.15-.79-.3-.8c0,.29-.42.32-.5.6l.8.2ZM67.31,80.02l-4.33-1.88-4.27,1.93c2.75.16,5.5.15,8.25.05.12,0,.37.08.35-.1ZM62.49,89.64c-1.96.04-3.94.31-5.91.29-1.09.45-1.2.85-.88,1.93.41,1.38,1.1,3,1.66,4.34,1.45,3.5,3.22,6.92,5.7,9.8,2.72-3.36,4.67-7.25,6.22-11.27.28-.74,1.25-3.05,1.23-3.68s-.6-1.05-1.16-1.14c-.99-.16-2.54-.05-3.6-.1s-2.17-.19-3.27-.17Z"/>
  <path d="M30.79,11.04c.29-.03.74.21.98.38.36.26,2.2,2.16,2.3,2.49s.07.74-.05,1.06c-2.44,2.87-5.04,5.7-7.7,8.4s-5.94,5.91-8.9,8.5c-.75.66-1.62,1.66-2.7.99-.21-.13-2.16-2.1-2.29-2.31-.3-.51-.32-1.16.04-1.63,4.67-5.25,9.58-10.1,14.74-14.86.81-.74,1.92-2.06,2.75-2.65.19-.14.6-.36.82-.38Z"/>
  <path d="M14.49,91.54c.21-.04.44-.05.66,0,.52.12,2.97,2.68,3.57,3.23,5.06,4.67,9.85,9.41,14.44,14.56.35.48.34,1.06.1,1.58-.16.34-1.8,2.01-2.15,2.25-1.14.8-1.84.05-2.7-.69-5.05-4.37-10.36-9.8-14.85-14.75-.83-.91-2.62-2.37-1.83-3.63.18-.29,1.98-2.11,2.28-2.32.16-.11.28-.19.48-.22Z"/>
  <path d="M95.18,11.05c.25,0,.58.11.79.26,6.18,5.62,12.13,11.47,17.69,17.71.34.47.24.99,0,1.49s-2.06,2.25-2.54,2.46c-.71.3-1.24-.05-1.8-.5-3.05-2.44-5.77-5.78-8.8-8.3-2.37-2.97-5.9-5.66-8.14-8.66-.44-.58-.64-1.15-.24-1.83.14-.24,2.07-2.19,2.33-2.37.2-.14.48-.26.72-.26Z"/>
  <path d="M105.88,104.68c-2.36,2.35-4.99,4.86-7.46,7.09-.85.77-2.02,2.25-3.24,1.53-.25-.15-2.26-2.17-2.38-2.42-.48-.92,0-1.41.57-2.07,2.49-2.91,5.66-6.2,8.4-8.9,2.88-2.85,6-5.47,8.93-8.27.72-.31,1.13-.08,1.68.37.38.32,1.7,1.6,1.93,1.97.8,1.29-.54,2.34-1.33,3.24-2.2,2.47-4.74,5.12-7.09,7.46Z"/>
</svg>