<?xml version="1.0" encoding="UTF-8"?>
<svg id="Layer_1" data-name="Layer 1" xmlns="http://www.w3.org/2000/svg" viewBox="0 0 139.6 139.6">
  <path d="M46.5,0l5.45,5.4c.76.98.03,2.88-.3,4-.15.52-.73,2.74-1.3,2.76-.89-.4-1.48-1.37-2.3-1.96-1.42-1.02-3.19-.04-4.35.95-2.62,2.23-4.56,5.7-5.85,8.85-.28.68-1.21,2.82-1.03,3.43.05.17.26.3.4.39l10.62.68h5.15s.4-9.55.4-9.55c.18-1.2-.03-1.67,1.13-2.27.88-.46,3.53-1.52,4.47-1.73.71-.16,1.02-.08,1.01.7-.02,1.65-.47,3.78-.61,5.5-.18,2.2-.21,4.4-.3,6.6,0,.19-.12.36-.1.55,2.69.06,5.36-.24,8.04-.39.3-.95,1.97-.3,2.81-.3s2.42-.65,2.71.3l5.69.4h2.35s-.3-6.15-.3-6.15c0-2.08-.71-4.59-.7-6.6,0-1.19,1.35-.45,2.03-.22.81.28,3.56,1.25,4.07,1.73.26.24.32.46.4.8.28,3.54.41,7.09.51,10.64h5.06c2.5-.12,5-.34,7.5-.5.92-.06,2.1.03,2.99-.11.32-.05.73-.4.74-.74-1.15-3.59-2.75-7.3-5.19-10.2-1.28-1.51-3.19-3.42-5.35-3.16-1.02.12-2.42,2.52-3.16,2.35-.45-.1-.99-1.97-1.14-2.45-.39-1.24-1.25-3.43-.25-4.45l5.3-5.25h.2c.52.32.48.99.7,1.55,1.22,3.19,3.37,4.08,5.55,6.45,3.19,3.46,4.92,8.03,5.92,12.58.1.47.33,2.43.57,2.63.11.09.45.17.61.17l4.16-.42c.31-.62-.03-2.48.85-2.56.47-.04,1.93.38,2.46.53.68.19,3.03.93,3.38,1.42.37.52.82,1.92,1.03,2.57s.73,2.44.68,3.03c-.08.93-1.99.47-2.56.95-.03.83-.64,4.12-.26,4.66.08.11.26.18.38.22.77.23,1.88.28,2.73.47,4.37.99,8.78,2.74,12.1,5.8,1.58,1.45,3.36,4.13,5.16,5.04.92.46,1.96.63,2.84,1.11v.4l-5.4,5.35c-.99.76-2.95.02-4.08-.33-.43-.13-2.5-.76-2.61-1.09-.21-.62,1.28-1.7,1.68-2.19.7-.85.79-1.16.58-2.27-.65-3.39-6.72-6.76-9.68-8.02-.73-.31-3.09-1.33-3.75-1.26-.37.04-.59.42-.64.76-.15.97-.04,2.37-.11,3.39-.07,1.16-.24,2.34-.3,3.5-.14,2.85-.24,5.69-.2,8.55l7.85.3c.86.19,1.82.06,2.69.21.94.16.99.43,1.38,1.22.72,1.47,1.19,3.18,1.77,4.72-.06.47-.42.57-.84.56-1.69-.04-3.75-.47-5.5-.61-1.52-.12-3.08-.24-4.6-.3-.84-.03-1.75.11-2.55-.1-.05,2.69.3,5.36.39,8.04.03.1.3.06.42.2.31.37-.12,2.06-.11,2.61,0,.58.39,1.98.16,2.46-.09.18-.45.19-.45.45-.13,2.62-.42,5.23-.4,7.85,4.26-.16,8.53-.42,12.75-1,.36.03.71.14.74.55-.53,1.48-1.01,3.1-1.67,4.52-.58,1.23-.67,1.36-2.08,1.52l-9.94.41.1,6.95.57,8.83c.18.29.47.58.85.51,3.8-1.33,7.69-2.96,10.68-5.73,1.29-1.19,3.42-3.63,2.24-5.45-.32-.49-1.95-1.93-2.03-2.18-.08-.28,0-.4.18-.58.43-.46,4.32-1.54,5.08-1.62.43-.05.72-.06,1.12.12l5.7,5.55v.4c-.72.48-1.65.62-2.47.98-2.18.98-3.99,3.82-5.83,5.47-3.16,2.83-7.6,4.57-11.7,5.5-.52.12-2.99.47-3.18.67-.41.43.17,4.05.26,4.82.5.19,2.14.11,2.4.52.29.47-.25,2.27-.42,2.86-.23.8-.86,2.87-1.48,3.32-.68.5-4.63,1.72-5.44,1.66-1-.06-.66-1.83-.91-2.52-.77-.09-4.38-.67-4.82-.26-.2.19-.55,2.65-.67,3.17-.94,4.08-2.69,8.56-5.5,11.7-1.65,1.84-4.49,3.65-5.47,5.83-.37.82-.5,1.75-.98,2.47h-.4l-5.35-5.4c-.21-.22-.32-.55-.35-.85-.08-.85.95-4.39,1.38-5.22.19-.36.34-.74.82-.59.73.23,1.87,2.29,3.05,2.37,2.78.18,5.68-3.7,6.99-5.82,1.46-2.36,2.5-5,3.36-7.64-.02-.39-.5-.7-.85-.75-.96-.15-2.37-.04-3.39-.11-4.02-.26-8.02-.62-12.05-.5l-.3,8.25c-.26.93.13,2.66-.7,3.3-.21.16-.66.35-.93.47-1.42.66-3.04,1.14-4.52,1.67-.95,0-.31-2.31-.25-2.94.34-3.51.57-7.03.7-10.55l-7.85.4c-.25,0-.27.36-.45.45-.5.25-1.87-.15-2.46-.16s-2.05.41-2.55.16c-.18-.09-.19-.45-.45-.45l-7.85-.4c.19.87.06,1.77.1,2.65.07,1.49.19,3.01.3,4.5.14,1.74.6,3.93.61,5.6,0,.38-.15.69-.56.74-1.48-.54-3.1-1.01-4.52-1.67-.73-.34-1.37-.55-1.42-1.48l-.51-10.54c-1.45.03-2.91-.04-4.35,0-2.52.07-5.07.34-7.6.5-1.06.07-2.37-.03-3.4.1-.73.09-.94.43-.82,1.13.15.94,1.16,3.15,1.59,4.11,1.33,2.93,4.88,8.97,8.54,8.97.53,0,1.01-.39,1.4-.71.46-.38,1.66-2.02,2.25-1.65.39.24,1.42,3.9,1.55,4.55.14.72.36,1.5-.2,2.1l-5.35,5.4h-.4c-.51-.86-.66-1.92-1.11-2.84-.88-1.76-3.7-3.68-5.14-5.26-3.01-3.3-4.72-7.68-5.7-12-.11-.5-.46-2.87-.65-3.05-.42-.23-1.07-.18-1.55-.16-1.02.04-2.12.28-3.15.35-.48.58-.01,2.47-.95,2.56-.75.08-3.13-.69-3.93-.98-.5-.18-1.64-.58-1.92-.98-.41-.59-.91-2.23-1.13-2.97-.16-.56-.63-2.12-.57-2.62.1-.88,1.91-.53,2.56-.85l.4-4.07c-.03-.21-.02-.52-.16-.68-.2-.23-2.66-.57-3.2-.7-4.25-.97-8.66-2.75-11.9-5.7-1.93-1.76-3.49-4.41-5.9-5.4-.72-.3-1.58-.39-2.2-.85v-.3l5.25-5.3c.52-.52,1.05-.55,1.76-.45.66.1,4.81,1.26,5.05,1.65.19.42-.06.7-.3,1-1.04,1.3-2.3,1.48-1.93,3.52.74,4.07,9.03,8.04,12.62,9.18.63.2,1.3.35,1.45-.56s.05-2.15.11-3.09c.16-2.5.38-5,.5-7.5v-4.96s-9.94-.41-9.94-.41c-1.25-.14-1.45-.2-1.98-1.32-.35-.73-1.71-4.11-1.69-4.72.01-.43.23-.55.66-.55,1.51,0,3.69.47,5.3.6,2.48.2,4.97.29,7.45.4.05-2.69-.26-5.36-.39-8.04-.96-.31-.3-1.9-.3-2.71,0-.55-.41-2.3-.08-2.63.09-.09.35-.06.38-.19l.4-5.78v-2.25c-.81.21-1.72.06-2.56.1-1.49.06-3.01.19-4.5.3-1.79.14-3.87.57-5.6.61-.78.02-.86-.31-.7-1.01.22-.95,1.26-3.57,1.73-4.47.63-1.21,1.14-.94,2.37-1.13l9.45-.4v-5.05s-.68-10.72-.68-10.72c-.26-.51-.62-.48-1.13-.38-1.44.27-4.73,1.85-6.1,2.6-2.2,1.21-7.77,5.07-6.75,8.05.31.9,2.09,2.1,2.23,2.57.22.72-.62.9-1.16,1.1-.98.38-2.89.97-3.9,1.1-.58.07-1.18.1-1.63-.32l-5.4-5.45v-.2c.1-.11.18-.25.33-.32.61-.29,1.54-.44,2.24-.76,2.04-.93,3.58-3.41,5.23-4.97,3.51-3.31,8.13-5.09,12.8-6.1.49-.11,2.41-.31,2.61-.59.44-.62-.26-3.84-.22-4.75-.66-.28-2.51.02-2.59-.87-.04-.48.39-2,.55-2.54.21-.72.73-2.42,1.11-2.99.28-.42,1.2-.72,1.69-.91.53-.21,1.18-.42,1.73-.57.5-.14,2.04-.57,2.46-.53.91.09.56,1.94.87,2.59l4.14.39c.43-.05.69-.11.82-.56.23-.76.28-1.88.47-2.73,1.02-4.48,2.82-8.93,6-12.3,1.57-1.66,4.03-3.18,4.97-5.23.33-.72.46-1.59.76-2.24.07-.15.22-.22.32-.33h.2ZM44.5,30.4l-7.15-.2-7.75-.6c.45,4.95.74,9.93.8,14.9l1.35-2.9c.88-2.38,2.85-3.71,4.51-5.39,2.43-2.47,3.11-3.42,6.41-4.99l1.84-.81ZM110,29.6c-4.92.46-9.86.75-14.8.8l3,1.45c2.35.92,3.56,2.76,5.21,4.39.45.45,1.16.88,1.64,1.36,1.85,1.85,3.2,4.45,4.05,6.9l.9-14.9ZM80.8,30.4c-2.55-.15-5.1-.18-7.65-.3-1.04-.05-2.31-.3-3.31-.3s-2.33.25-3.4.3c-2.49.12-4.99.15-7.49.29-.38.1.04,3.21-.06,3.71,1.06-.71,2.42-2.97,3.69-3.05.77-.05,4.88,1.14,5.5,1.61.54.41.21.71-.14,1.14-.54.68-1.82,1.48-1.94,2.36-.32,2.24,2.15,4.58,3.82,5.73,1.43-1.11,3.55-2.94,3.76-4.85.13-1.21-.2-1.5-.94-2.34-.8-.92-2.34-1.57-.55-2.35.87-.38,4.06-1.36,4.9-1.31,1.27.08,2.63,2.35,3.69,3.05l.1-3.7ZM51.9,31.5c-2.04.44-4.04,1.79-5.65,3.1s-3.01,2.96-3.84,4.86c-.29.67-.48,1.78-1.01,2.19-.45.35-1.24.46-1.8.7-1.97.84-3.65,2.26-5,3.9s-2.66,3.6-3.1,5.65c1.34-.27,2.54-.94,3.67-1.68,2.23-1.46,4.44-3.46,5.61-5.89.44-.9.61-2.34,1.51-2.79,1.44-.72,2.44-.84,3.89-1.91,2.49-1.82,4.89-5.16,5.71-8.14ZM108.1,51.9c-.22-1.44-1.01-2.75-1.82-3.93-1.59-2.34-3.57-4.44-6.21-5.59-.54-.24-1.55-.44-1.92-.78-.48-.44-.8-1.89-1.13-2.57-1-2.08-2.85-3.87-4.69-5.21-1.38-1-2.94-1.99-4.63-2.32,1.1,3.6,4.18,7.68,7.63,9.32.68.32,1.77.54,2.33.92.51.34.64,1.4.89,1.96,1.04,2.37,2.62,4.1,4.66,5.64,1.46,1.1,3.09,2.15,4.89,2.56ZM65.6,44.6c.04-.15-.02-.16-.11-.24-.95-.94-2.03-1.81-3-2.8-1.09-1.12-1.96-2.54-3.4-3.25,0,1.65.2,3.3.3,4.95.05.86-.07,1.94.12,2.78.25,1.16,2.28.12,3-.15,1.04-.39,2.03-.92,3.07-1.28ZM80.5,38.4c-1.38.49-2.22,1.94-3.2,2.95-1.05,1.08-2.11,2.19-3.3,3.1.14.28,3.7,1.68,4.25,1.85,1.26.41,1.8.65,1.95-.95.05-.55-.04-1.15,0-1.7.11-1.75.31-3.5.3-5.25ZM53.8,53.8c-.48-4.95-.78-9.93-.8-14.9l-2.46,4.79c-1.23,1.66-2.76,3.04-4.19,4.51-2.15,2.21-4.53,3.67-7.45,4.7l14.9.9ZM100.7,52.9c-2.82-1.03-5.26-2.44-7.35-4.6-1.92-1.99-4.1-3.83-5.3-6.4l-1.35-2.9-.9,14.8,14.9-.9ZM79.47,49.83c-.24-.26-2.45-.53-2.99-.66-2.31-.52-4.46-1.23-6.63-2.17-3.01,1.24-6.11,2.21-9.35,2.65-.35.13-.52.44-.51.8l.42,4.14c.71.29,2.55-.09,2.57.96.02.84-1.17,4.6-1.64,5.34-.43.67-2.55,1.3-3.36,1.54-.61.18-2.75.92-3.05.2-.14-.34-.25-2.14-.33-2.22l-4.14-.41c-.32.04-.63.12-.78.43-.25.53-.36,2.07-.53,2.77-.52,2.31-1.24,4.49-2.21,6.65,1.41,2.95,2.23,6.12,2.71,9.35.17.47.71.42,1.11.4,1.25-.04,2.58-.28,3.83-.42.2-.44.15-2.25.52-2.43.53-.26,2.82.42,3.48.62s2.22.71,2.63,1.17,1.02,2.4,1.22,3.08c.15.51.59,2.07.55,2.5-.09.95-1.87.68-2.58.87l-.41,4.15c.02.28.05.64.33.77,3.25.56,6.46,1.32,9.44,2.75,2.1-.91,4.18-1.63,6.41-2.15.8-.18,2.38-.3,3.02-.58.45-.2.42-.57.4-1-.04-1.29-.31-2.65-.41-3.94-.45-.09-2.17-.15-2.41-.44s-.03-1.11.04-1.48c.16-.89,1.08-4.08,1.66-4.64.28-.26.91-.47,1.28-.62.8-.32,4.07-1.4,4.73-1.08.36.18.4,2,.51,2.44,1.5.18,3.01.41,4.52.39.19-.04.3-.13.39-.31.22-.41.3-1.72.42-2.28.54-2.48,1.25-4.86,2.33-7.16-.99-2.19-1.73-4.46-2.25-6.81-.1-.46-.39-2.69-.6-2.83-.1-.07-.55-.19-.69-.2l-4.15.41c-.17.64,0,2.54-.86,2.6-.41.03-1.88-.39-2.37-.52-.77-.21-3.01-.9-3.43-1.47-.23-.31-.47-.99-.62-1.38-.28-.74-1.37-4.05-.94-4.59.25-.31,1.94-.26,2.39-.46l.42-3.73-.12-1.02ZM34.1,58.9h-3.7c-.16,3.08-.27,6.17-.4,9.25-.08,1.91.01,3.21.1,5.1.11,2.52.14,5.04.3,7.55h3.25s.34-.13.45-.15c-.73-.96-3.05-2.5-3.09-3.71-.02-.77.97-3.95,1.31-4.77.81-1.91,1.5-.27,2.47.58.23.2.78.69,1.03.77,2.26.74,4.94-2.06,6.06-3.76-1.26-1.61-3.46-4.08-5.73-3.76-1.08.15-2.48,2.56-3.19,2.38-.14-.06-.23-.18-.31-.29-.46-.6-1.66-4.67-1.63-5.42.05-1.33,2.35-2.69,3.07-3.78ZM109.2,58.9h-3.7c.66,1,2.99,2.5,3.1,3.66.07.75-.89,3.84-1.22,4.66-.14.35-.37,1.18-.82,1.17-.52-.02-2.05-2.11-2.85-2.34-2.17-.65-4.89,2.18-6,3.79,1.34,1.66,3.44,4.13,5.84,3.76,1.04-.16,1.99-1.97,2.8-2.3.63-.26.91.78,1.08,1.23.29.75.55,1.67.74,2.46.23.89.7,2.04.13,2.87l-2.8,2.8c.11.02.4.15.45.15h3.25c.18-.87.06-1.77.1-2.65.15-3.51.46-6.78.31-10.3-.09-2.14-.22-4.27-.31-6.39-.03-.85.09-1.72-.1-2.55ZM44.6,65.6c.27-1.19,2.2-4.48,2-5.55-.04-.23-.34-.48-.57-.53-.84-.18-2.01-.06-2.88-.12-1.61-.1-3.23-.3-4.85-.3.74,1.47,2.2,2.38,3.35,3.5.63.61,1.31,1.26,1.9,1.9.14.15.89,1.24,1.05,1.1ZM101.3,59.1l-7.55.4c-.36.03-.72.27-.76.65-.04.5.82,2.56,1.06,3.15.32.76.64,1.53,1.05,2.25.07.09.14-.05.2-.1.29-.25.66-.85.95-1.15.48-.51.99-1.01,1.5-1.5,1.22-1.18,2.78-2.15,3.55-3.7ZM46.47,79.87c.34-.36-.04-1.22-.17-1.63-.35-1.07-.89-2.4-1.38-3.42-.06-.12-.41-.91-.52-.83-.83,1.19-1.99,2.27-3.05,3.3s-2.47,1.85-3.05,3.3l3.55-.3c.86-.13,4.12.1,4.62-.43ZM101.3,80.6c.33-.39-2.83-3.21-3.25-3.5l-2.95-3.05c-.15.1-.81,1.74-.95,2.05-.25.59-1.2,2.88-1.16,3.35.09,1.03,2.32.71,3.06.75,1.26.07,2.54.23,3.8.3.48.02,1-.09,1.45.1ZM53.8,85.8c-.47.05-.98.16-1.45.2-3.28.28-6.61.48-9.9.6-1.15.04-2.31-.08-3.45.1l2.7,1.25c1.65.85,3.18,1.89,4.45,3.25.85.92,1.34,1.4,2.25,2.25,2.11,1.97,3.48,4.58,4.5,7.25l.9-14.9ZM100.6,86.7c-4.93-.23-9.89-.31-14.8-.9l.9,14.8,1.92-3.93c.88-1.84,2.51-2.87,3.85-4.2s2.43-3.04,4.33-3.92l3.8-1.85ZM41.74,97.66c-.35-.47-.47-1.25-.72-1.83-1.53-3.48-5.72-7.13-9.42-8.09-.12-.03-.13-.12-.1.1.4,3.1,4.91,8,7.73,9.27.9.41,2.14.47,2.59,1.41.89,1.86,1.06,2.98,2.53,4.67,1.8,2.08,4.85,4.28,7.55,4.9-1.12-3.73-4.33-7.83-7.93-9.42-.65-.29-1.83-.5-2.23-1.02ZM103.86,94.66c1.79-1.76,3.69-4.5,4.23-6.96-3.69,1.16-7.78,4.28-9.38,7.86-.27.61-.54,1.85-.96,2.24s-1.53.62-2.12.88c-3.62,1.59-6.76,5.7-7.93,9.42,1.28-.15,2.52-.87,3.59-1.56,2.26-1.45,4.66-3.64,5.79-6.11.3-.66.62-2.14,1.15-2.5.46-.31,1.54-.55,2.13-.82,1.19-.55,2.56-1.53,3.5-2.45ZM59.1,101.3c1.56-.76,2.52-2.33,3.7-3.55.49-.5.99-1.02,1.5-1.5.31-.29.9-.65,1.15-.95.05-.06.19-.13.1-.2-.47-.28-.98-.5-1.48-.72-.93-.41-2.44-1.08-3.39-1.31-.51-.13-1.03-.11-1.16.5-.18.84-.06,1.92-.12,2.78-.1,1.65-.3,3.3-.3,4.95ZM80.5,101.3c.02-1.75-.19-3.5-.3-5.25-.04-.65.2-2.81-.57-3.04-.47-.14-2.92.88-3.53,1.13-.69.29-1.39.6-2.05.95-.09.07.05.15.1.2,1.01.88,1.92,1.68,2.85,2.65,1.11,1.15,2.02,2.62,3.5,3.35ZM36.26,103.44c-1.57-1.58-3.42-2.76-4.32-5.03l-1.55-3.2-.2,6.95-.6,7.85,14.8-.8-3.6-1.75c-2.02-.88-3.11-2.58-4.53-4.02ZM110,110l-.8-14.8-2.46,4.79c-1.27,1.68-2.83,3.1-4.29,4.61-2.06,2.13-4.48,3.5-7.25,4.5l14.8.9ZM80.7,105.5c-.99.68-1.91,2.16-2.85,2.8-.86.59-2.4,0-3.35-.25-.62-.17-3.04-.84-3.25-1.35-.2-.47,1.37-1.7,1.7-2.1.22-.27.59-.72.64-1.06.36-2.31-2.12-4.63-3.83-5.84-1.5,1.15-4.49,3.92-3.69,6.07.3.79,2.29,2.28,2.31,2.78,0,.11-.05.24-.12.32-.4.47-4,1.44-4.77,1.58-.66.12-1.13.28-1.75-.15-.94-.64-1.86-2.12-2.85-2.8.14.66-.35,3.3.02,3.68.12.09.28.11.42.12,2,.21,4.44.11,6.51.2,2.66.12,5.21.46,7.89,0,2.12-.2,4.62.05,6.7-.21.1-.01.34-.05.36-.16l-.11-3.63Z"/>
  <path d="M9.27,60.82c.51-.12.79.09,1.18.38l6.02,5.69.23-.04,2.35-2.25c.38-.32.77-.37,1.2-.1.13.08,1.4,1.36,1.49,1.51.12.19.17.32.16.54-.04.79-2.17,2.52-2.7,3.22-.04.24,2.53,2.47,2.67,3.11.18.8-1.64,2.77-2.56,2.35l-2.86-2.52-5.16,4.94c-.65.4-1.3,1.57-2.19,1.09-.13-.07-1.5-1.44-1.61-1.59-.27-.41-.17-.72.1-1.1l5.9-6.2-6.07-6.52c-.19-.39-.09-.59.13-.92.18-.26,1.47-1.53,1.71-1.59Z"/>
  <path d="M69.7,14c.19.13.58-.52.71-.64,1.33-1.26,2.64-2.58,3.99-3.81.5-.46,1.96-1.93,2.55-1.93.37,0,1.94,1.47,2.07,1.81.11.26.14.59-.02.83l-6.3,6.71c-.05.28,2.26,2.16,2.34,2.92.08.7-1.63,2.39-2.35,2.27-.63-.11-2.58-2.51-2.93-2.45-.66.4-2.33,2.5-3,2.46-.45-.02-1.63-1.19-1.92-1.57-.97-1.31,1.57-2.53,2.05-3.64l-6.37-6.94c-.26-.6,1.48-2.21,1.91-2.35.54-.18.98.25,1.37.57,1.73,1.43,3.48,3.29,5.15,4.85.27.25.64.56.75.9Z"/>
  <path d="M129.77,60.82c.28-.06.52-.04.77.09.14.07,1.39,1.31,1.52,1.48.2.27.31.53.15.86l-6.11,6.6,6.07,6.42c.52.68-1.25,2.3-1.76,2.5-.45.17-.79-.01-1.17-.27l-6.11-5.79c-.2-.03-2.27,2.1-2.69,2.39-.32.22-.45.25-.83.13-.25-.08-1.53-1.32-1.72-1.58-.46-.66-.01-1.09.4-1.6.26-.32,2.06-2.07,2.09-2.22-.46-.81-2.72-2.5-2.69-3.38.02-.41,1.24-1.67,1.6-1.9.37-.24.77-.34,1.15-.05l2.7,2.5c.2-.41.56-.57.85-.85,1.25-1.18,2.43-2.44,3.7-3.6.35-.32,1.76-1.66,2.07-1.73Z"/>
  <path d="M72.71,122.79s.21.08.29.16c.22.21.44.43.65.65,1.8,1.93,3.58,3.89,5.37,5.83.37.75-.64,1.63-1.17,2.08-.71.59-1.02.69-1.8.1l-6.22-5.89c-1.82,1.53-3.46,3.35-5.23,4.94-.59.53-1.53,1.65-2.34,1.24-.14-.07-1.58-1.51-1.65-1.65-.18-.34-.17-.69.09-.99,1.36-1.31,2.56-2.78,3.85-4.15.31-.33,2.3-2.2,2.34-2.37.03-.12,0-.2-.08-.28-.57-.8-2.42-2.03-2.19-3.07.05-.23,1.41-1.64,1.64-1.76.31-.16.67-.18.97,0l2.61,2.38,2.51-2.38c.34-.19.71-.16,1.03.04.15.09,1.42,1.36,1.51,1.49.68,1.09-1.57,2.49-2.11,3.3-.07.1-.15.22-.08.34Z"/>
  <path d="M49.08,47.03c1.83-.27,3.44,1.25,3.2,3.1s-2.4,2.98-4.1,2.06c-2.28-1.23-1.67-4.78.91-5.15Z"/>
  <path d="M32.77,30.92c4.53-.72,4.35,6.21.04,5.41-2.99-.56-2.78-4.97-.04-5.41Z"/>
  <path d="M89.68,87.13c2.46-.32,4.12,2.36,2.67,4.37-1.16,1.61-3.65,1.49-4.64-.24s.06-3.88,1.98-4.13Z"/>
  <path d="M49.08,87.13c2.92-.42,4.44,3.33,2.02,5.02-1.59,1.11-3.82.26-4.27-1.62-.37-1.55.63-3.16,2.25-3.4Z"/>
  <path d="M105.57,30.92c4.06-.68,4.58,4.98,1.05,5.45-3.71.49-4.17-4.92-1.05-5.45Z"/>
  <path d="M105.98,103.23c3.06-.29,4.22,4.02,1.46,5.26-4.05,1.83-5.64-4.86-1.46-5.26Z"/>
  <path d="M89.57,47.02c2.46-.39,4.21,2.24,2.81,4.31-1.32,1.96-4.41,1.4-4.97-.89-.37-1.49.61-3.17,2.16-3.41Z"/>
  <path d="M35.36,104.04c2.53,2.6-1.34,6.48-3.92,3.97s1.37-6.59,3.92-3.97Z"/>
</svg>