<?xml version="1.0" encoding="UTF-8"?>
<svg id="Layer_1" data-name="Layer 1" xmlns="http://www.w3.org/2000/svg" viewBox="0 0 123.9 122.4">
  <path fill="#FFFFFF" d="M29.5,0c1.07.55,2.22.99,3.27,1.58.46.26,2.13,1.23,2.22,1.69.11.63-1.49,1.89-1.37,2.35.76.9,1.43,1.91,2.23,2.77.37.39.93,1.15,1.51.81,3.45-2.55,7.47-4.74,11.64-5.86,3.52-.94,7.02-.51,10.6-.45.06-.31-.16-1.38.16-1.49.62-.22,1.74.85,2.19.85.37,0,2.1-1.4,2.34-.7v1.34c.63-.02,1.25.02,1.87,0,.91-.03,1.99-.2,2.89-.21,6.46-.05,12.42,2.73,17.48,6.53.6.29,1.05-.33,1.43-.72.85-.89,1.51-1.96,2.34-2.87.12-.44-1.4-1.7-1.39-2.28,0-.38.64-.76.94-.97,1.4-.99,3.05-1.61,4.57-2.38h.7c.92.44,1.87.8,2.77,1.28.53.28,2.65,1.47,2.73,1.97.12.67-1.48,1.92-1.36,2.35.84.98,1.62,2.18,2.51,3.1.42.43.63.77,1.29.48.62-.27,1.79-1.29,2.47-1.73,4.05-2.56,8.99-4.63,13.84-4.76.6-.02,1.17.11,1.75.05v3.01c-.21,3.9-2.31,8.84-4.36,12.14-.56.9-1.51,1.98-1.96,2.84-.39.73-.08.93.42,1.42.32.31,2.97,2.51,3.17,2.54.7-.27,1.74-1.72,2.49-1.29.49.28,1.82,2.74,2.13,3.37.32.66.53,1.4.91,2.04v.6c-.48,1.06-.92,2.15-1.48,3.17-.29.52-1.32,2.4-1.87,2.43-.46.03-1.71-1.24-2.19-1.48l-3.44,2.84c-.32.36-.43.61-.2,1.08.38.75,1.38,1.9,1.89,2.71,1.59,2.55,3.08,5.72,3.87,8.63.84,3.06.69,6.18.53,9.32,3.1-.37.43,1.85.33,3.06-.05.61,1.25,2.24,1.18,2.78-.08.58-1.1.29-1.5.36.13,3.02.33,6.15-.45,9.1s-2.2,6-3.71,8.49c-.6.99-1.57,2.1-2.06,3.04-.31.59-.22.78.22,1.22.33.33,3.14,2.7,3.35,2.72.49-.18,1.76-1.49,2.18-1.45.55.05,1.79,2.27,2.08,2.81.48.9.84,1.85,1.28,2.77v.6c-.47.98-.86,2.01-1.38,2.97-.29.53-1.13,2.03-1.52,2.38-.08.07-.36.23-.46.23-.43.04-1.69-1.26-2.18-1.45-1.25,1.02-2.64,1.97-3.69,3.18-.12.24-.06.42.04.65.25.57,1.21,1.66,1.61,2.29,2.98,4.67,5.22,10.19,4.8,15.85-3,.13-5.74-.3-8.55-1.3-2.58-.92-4.93-2.1-7.24-3.56-.49-.31-2.35-1.78-2.75-1.74l-.61.4-2.73,3.37c.18.75,1.76,1.79,1.27,2.57-.19.3-1.81,1.25-2.22,1.48-.99.55-2.06.97-3.07,1.48h-.8c-1-.44-2.01-.86-2.97-1.38-.49-.27-2.47-1.41-2.54-1.87-.08-.57,1.45-1.86,1.39-2.27-.03-.2-2.22-2.85-2.54-3.17-.51-.53-.65-.79-1.38-.38-1.25.7-2.51,1.8-3.84,2.56-2.19,1.25-5.09,2.51-7.53,3.17-3.54.96-7.09.58-10.7.45.28,3.1-1.26.69-2.35.69s-2.63,2.4-2.35-.69c-1.08.02-2.17.06-3.25.1-5.59.2-9.28-.64-14.21-3.28-1.64-.88-3.08-2.15-4.6-3-.78-.44-.95-.07-1.48.48-.31.32-2.41,2.87-2.44,3.07-.06.41,1.47,1.7,1.39,2.27-.06.46-2.05,1.61-2.54,1.87-.96.53-1.98.93-2.97,1.38h-.8c-1.07-.55-2.22-.99-3.27-1.58-.36-.2-1.81-1.07-1.98-1.32-.62-.89,1.02-1.8,1.23-2.63l-2.73-3.37c-.16-.15-.5-.39-.7-.39-.29,0-2.93,1.91-3.46,2.23-2,1.23-4.22,2.27-6.44,3.06-2.82,1-5.55,1.43-8.55,1.3.07-.49-.11-.96-.11-1.45.01-4.8,2.14-10.03,4.67-14.04.51-.81,1.35-1.76,1.76-2.54.28-.52.23-.74-.17-1.17l-3.4-2.78c-.49.19-1.75,1.49-2.18,1.45-.57-.05-1.59-1.88-1.88-2.41-.57-1.02-1-2.11-1.48-3.17v-.6c.46-.99.86-2,1.38-2.97.29-.53,1.13-2.04,1.52-2.37.09-.08.36-.23.46-.23.46-.04,1.96,1.51,2.17,1.47l3.37-2.74c.42-.45.52-.66.22-1.22-.42-.78-1.25-1.73-1.76-2.54-1.66-2.64-3.22-5.96-4.01-8.99s-.65-6.06-.45-9.1c-2.98.37-.57-1.75-.32-3.13l-1.15-2.34c-.22-1.02.81-.68,1.48-.72-.11-.98-.08-1.96-.1-2.95-.1-5.53,1.43-10.02,4.3-14.7.56-.92,1.66-2.16,2.09-3.01.36-.72-.29-1.13-.78-1.59-.86-.81-1.87-1.47-2.77-2.23-.46-.12-1.73,1.48-2.35,1.37-.49-.09-1.51-1.92-1.79-2.42-.57-1.02-1.01-2.1-1.48-3.17v-.6c.44-.92.8-1.87,1.28-2.77.27-.51,1.36-2.41,1.76-2.64.75-.43,1.79,1.02,2.49,1.29.2-.03,2.85-2.23,3.17-2.54.53-.52.82-.73.38-1.48-.51-.87-1.32-1.81-1.89-2.71-2.47-3.97-4.45-8.97-4.5-13.7l.11-1.5c.58.06,1.15-.06,1.75-.05,4.84.13,9.81,2.2,13.84,4.76.69.43,1.85,1.45,2.47,1.73.65.29.86-.05,1.29-.48.31-.32,2.5-2.97,2.53-3.17-.24-.73-1.72-1.73-1.29-2.49.23-.4,2.13-1.49,2.64-1.76.9-.48,1.85-.84,2.77-1.28h.7ZM65.87,13.67c-.21.21-.74,0-1-.1-1-.33-1.95-1.05-2.92-1.47-.69.26-3.25,1.9-3.82,1.62-.23-.11-.28-.36-.32-.59-.28-1.9.7-3.24-1.32-4.48-3.73-2.3-11.92.46-15.63,2.26-.4.2-1.6.69-1.67,1.14-.11.77,1.62,2.24,2.15,2.84,3.03,3.42,5.94,6.96,9.3,10.08.18.01,2.31-2.12,2.65-2.43,1.64-1.5,3.39-3.22,5.1-4.6.37-.3,1.08-.93,1.55-.93.6,0,1.61.68,2,.68.36,0,1.36-.64,1.93-.67s1.22.6,1.63.93c.92.74,1.9,1.69,2.8,2.5,1.63,1.46,3.21,3,4.8,4.51h.2c2.99-2.83,5.63-5.97,8.35-9.06.77-.87,2.14-2.08,2.75-2.95.45-.65.42-1.04-.23-1.47-1.06-.69-3.28-1.53-4.52-1.98-3.05-1.11-10.78-3.09-13.14-.13-.87,1.09-.04,3.72-.64,4.31ZM8,8c.42,3.78,1.92,7.31,3.56,10.69.21.37.68.38,1.05.26s3.28-2.88,3.75-3.35c.55-.56,2.16-2.23,2.49-2.81.55-.95-.07-1.21-.81-1.58-3.08-1.56-6.6-2.77-10.04-3.21ZM115.9,8c-3.35.44-6.83,1.59-9.84,3.11-1.06.54-1.72.75-.81,1.98,1.15,1.54,3.92,4.26,5.44,5.46.45.35.96.69,1.51.3,1.78-3.39,3.21-7.02,3.69-10.85ZM39.7,23l-10.65-11.8c-2.98,3.63-6.08,7.18-9.4,10.5l-8.45,7.44,11.8,10.56c-1.26-3.08-2.09-5.88-2-9.25.03-1.01.03-1.59,0-2.6-.06-2.09.14-4.05.82-6.03,1.98-.69,3.94-.88,6.03-.83.99.03,1.6.02,2.59,0,3.37-.08,6.18.72,9.25,2ZM94.9,11.2l-10.7,11.8c3.08-1.29,5.87-2.08,9.25-2,.99.02,1.6.03,2.59,0,2.11-.05,4.04.15,6.04.82.61,1.96.89,3.87.82,5.93-.04,1.09-.04,1.62,0,2.7.05,1.51-.05,3.02-.41,4.49l-1.54,4.76,11.75-10.65c-1.72-1.4-3.44-2.83-5.1-4.3-4.47-3.97-8.36-8.22-12.2-12.8-.18-.21-.42-.49-.5-.75ZM61.95,23.63l-6.55,5.82,6.55,5.83,6.55-5.83-6.55-5.82ZM29.21,29.21c-.17.83-.69,1.55-.99,2.36-.89,2.44-.87,5.11-.51,7.66.25,1.79.68,3.77,1.73,5.26,1.06-1.49,1.48-3.48,1.73-5.26.36-2.52.39-5.16-.48-7.59l-.8-1.8,1.6.8c2.64,1,5.68.9,8.42.42,1.59-.28,3.26-.67,4.58-1.62-1.12-.84-2.61-1.25-3.98-1.52-2.92-.58-6.12-.74-8.94.29-.82.3-1.53.82-2.36.99ZM94.69,29.21c-.83-.17-1.55-.69-2.36-.99-3.88-1.41-9.45-.8-13.03,1.22,1.6,1.02,3.5,1.47,5.37,1.73,2.84.4,5.78.38,8.43-.84l.9-.5-.8,1.8c-.89,2.46-.85,5.21-.47,7.77.26,1.73.7,3.66,1.72,5.08.84-1.16,1.25-2.68,1.52-4.08.56-2.88.72-6.05-.29-8.84-.29-.8-.83-1.54-.99-2.36ZM84.87,66.13c-.08-.08-.23-.12-.32-.23-.51-.58-2.13-2.35-2.39-2.92-.38-.85.24-1.24.21-1.82-.01-.28-.3-.73-.33-1.06-.07-.66.46-1.12.81-1.6l7.13-7.85c-1.03-1.02-2.03-2.1-3.08-3.1-1.71-1.63-3.68-3.12-5.35-4.75-1.8-1.75-3.44-3.96-5.2-5.8-1.01-1.06-2.08-2.06-3.12-3.09-2.95,2.57-5.69,5.39-8.76,7.81-.79.49-1.96-.51-2.52-.51-.29,0-1.1.5-1.52.57-1.19.19-1.99-.8-2.83-1.52-2.37-2.05-4.55-4.31-6.93-6.34-1.06,1.07-2.18,2.1-3.22,3.19-1.62,1.71-3.12,3.7-4.75,5.35s-3.75,3.24-5.5,4.9c-1.12,1.06-2.18,2.21-3.27,3.3,1.75,2.08,3.72,4.01,5.53,6.05.53.6,2.41,2.56,2.41,3.23,0,.43-.36,1.01-.36,1.32,0,.29.39.82.36,1.29-.03.41-.47.94-.72,1.26-.64.83-1.46,1.58-2.15,2.35-1.69,1.9-3.46,3.74-5.09,5.69,1.22,1.21,2.44,2.44,3.69,3.62,1.57,1.47,3.46,2.87,4.95,4.35s2.92,3.42,4.4,5c1.17,1.26,2.41,2.47,3.62,3.69l.28-.08c2.8-2.57,5.52-5.25,8.48-7.62.83-.66,1.93.42,2.62.42.6,0,1.32-.73,2.19-.6.55.08,2.05,1.5,2.56,1.94,2.18,1.91,4.25,3.96,6.4,5.91.18.09.5-.23.65-.35,2.68-2.26,5.02-5.72,7.49-8.21,1.54-1.55,3.52-3.01,5.16-4.54,1.23-1.15,2.46-2.35,3.58-3.6-1.7-1.87-3.43-3.72-5.12-5.61ZM39.7,35.9l-2.78,1.02-1.02,2.78,3.8-3.8ZM86.98,36.92c-.83-.24-1.62-.64-2.43-.92-.1-.03-.29-.19-.35-.05l3.8,3.75-1.02-2.78ZM11.97,39.22c-.37.11-.78,1.09-.96,1.44-1.88,3.77-3.65,9.35-3.1,13.57.21,1.6.94,3.4,2.74,3.56.65.06,2.82-.23,3.08.33.03,1.12-.84,2.08-1.21,3.11.25.61.64,1.19.89,1.8.16.38.55,1.1.18,1.41-.55.46-3.13-.22-4.2.6-2.7,2.06-1.27,8.9-.4,11.7.46,1.46,1.73,4.95,2.58,6.12.33.46.83.43,1.27.13.84-.58,1.84-1.74,2.65-2.45,3.22-2.84,6.51-5.61,9.49-8.71.04-.21-2.4-2.66-2.74-3.04-1.44-1.58-3.22-3.34-4.5-5-.25-.32-.69-.85-.72-1.26-.03-.46.35-.99.36-1.29,0-.31-.36-.89-.36-1.32,0-.67,1.89-2.64,2.41-3.23,1.8-2.04,3.78-3.97,5.53-6.05-3.15-3.39-6.72-6.33-10.18-9.4-.49-.43-1.85-1.93-2.37-2.03-.16-.03-.3-.05-.45,0ZM111.47,39.22c-.17.03-.38.18-.52.28-.9.66-1.87,1.78-2.75,2.55-3.17,2.79-6.42,5.5-9.29,8.61,1.77,2.08,3.74,3.99,5.54,6.03.45.51,2.26,2.46,2.34,2.96.13.75-.31,1.16-.29,1.58.02.62.55.91.19,1.8-.19.47-1.89,2.33-2.35,2.85-.89,1.01-1.87,2.01-2.79,3.01-.34.37-2.68,2.71-2.64,2.93,2.72,2.86,5.74,5.41,8.69,8.01,1.05.92,2.36,2.4,3.45,3.15s1.54-.64,1.94-1.46c1.91-3.95,3.37-8.75,3.01-13.18-.1-1.22-.84-3.33-2.17-3.63-.22-.05-.73-.11-.98-.12-.62-.04-2.42.22-2.68-.33-.27-.59,1.05-2.42,1.21-3.11-.25-.51-.57-.98-.79-1.5-.3-.68-.91-1.7.18-1.86,1.6-.23,3.05.56,4.24-.96,1.87-2.38.84-7.97.03-10.72-.48-1.61-1.74-5.13-2.64-6.46-.25-.37-.43-.54-.91-.44ZM29.45,55.4l-5.23,5.85,5.23,5.75,5.23-5.75-5.23-5.85ZM94.59,66.99l5.09-5.74-5.23-5.85-5.23,5.85,5.14,5.73h.22ZM29.8,92.6c1.89-2.98,1.86-6.74,1.27-10.12-.28-1.6-.69-3.23-1.62-4.58-1.86,3.19-2.45,8.03-1.62,11.62.31,1.35.93,2.39,1.39,3.66.79.23,1.47.71,2.25,1,3.05,1.14,6.6.92,9.73.17,1.19-.28,2.2-.72,3.3-1.25.04-.21-.1-.23-.23-.32-3.04-2.06-9.92-2.23-13.24-.8-.42.18-.8.45-1.23.62ZM94.68,93.18c.18-.83.69-1.54.99-2.36,1.02-2.79.86-5.96.29-8.84-.28-1.43-.71-2.85-1.52-4.08-.64.86-1.04,1.97-1.3,3-.95,3.7-1.16,8.38.95,11.7-.63-.29-1.22-.64-1.88-.87-3.29-1.17-8.48-.84-11.66.59-.22.1-1.17.5-1.17.73,3.22,1.76,7.81,2.37,11.4,1.6,1.42-.3,2.56-.97,3.88-1.47ZM21.82,100.58c-.69-1.97-.88-3.94-.82-6.03.03-.99.03-1.52,0-2.5-.09-3.06.48-5.17,1.5-8,.15-.43.48-.91.45-1.35l-11.75,10.64c2.14,1.82,4.32,3.62,6.4,5.51,3.23,2.94,6.09,6.05,8.95,9.35.78.9,1.64,2.15,2.45,2.95.05.05.14.19.2.1l10.5-11.85c-1.85.71-3.91,1.58-5.88,1.87-1.74.26-3.97.14-5.77.13-2.17-.01-4.18.02-6.23-.83ZM39.7,86.6c.04-.19-.1-.24-.2-.35-.47-.57-1.15-1.01-1.55-1.65l-2.05-1.9.99,2.76,2.8,1.14ZM84.1,86.6l2.85-1.1,1.05-2.8-3.9,3.9ZM84.3,99.5l10.45,11.8c3.66-4.42,7.39-8.69,11.65-12.55,1.54-1.39,3.13-2.75,4.7-4.1.24-.21,1.63-1.23,1.6-1.39l-11.8-10.46c1.26,3.01,2.1,5.84,2,9.15-.03,1.06-.03,1.65,0,2.7.06,2.05-.16,3.99-.82,5.93-2.05.84-4.06.82-6.23.83-2.38.01-4.83.15-7.17-.43-1.49-.37-2.92-1-4.38-1.47ZM68.5,93.1c.04-.15-.04-.17-.1-.25-.28-.4-1.37-1.3-1.8-1.7-1.51-1.39-3.12-2.68-4.65-4.05l-6.55,5.94,6.55,5.76,6.55-5.71ZM50.65,97.4c-3.25,3.1-6.13,6.54-9.1,9.9-.49.55-2.01,1.94-2.22,2.47-.17.43-.21.75.18,1.07,3.82,1.85,7.94,3.56,12.24,3.76,2.04.09,5.81-.12,6.05-2.76.06-.62-.22-2.85.3-3.1,1.38-.08,2.59,1.08,3.85,1.54.89-.35,1.69-.96,2.58-1.31.4-.16.93-.42,1.33-.19.66.51-.33,3.31.84,4.46,3.07,3.04,11.46.37,14.97-1.13.52-.22,2.55-1.08,2.82-1.38.53-.57-.07-1.2-.44-1.64-.53-.63-1.25-1.27-1.8-1.9-2.94-3.32-5.79-6.73-9-9.8-2.13,1.86-4.13,3.88-6.25,5.75-.54.48-2.3,2.13-2.88,2.23-.79.13-1.63-.62-2.17-.64-.39-.01-1.34.64-1.9.66s-1.01-.45-1.45-.75l-7.95-7.25ZM8,114.4c2.85-.27,5.66-1.23,8.27-2.38.61-.27,2.03-.84,2.48-1.22.42-.35.35-.6.17-1.07-1.63-1.91-3.33-3.73-5.22-5.38-.5-.44-1.1-1.14-1.81-.91-.32.11-.93,1.5-1.11,1.89-1.34,2.85-2.38,5.94-2.78,9.07ZM115.9,114.4c-.48-3.81-1.93-7.4-3.65-10.79-.23-.25-.64-.25-.95-.16-1.19,1.06-2.54,2.12-3.65,3.25-.59.6-2.21,2.29-2.59,2.91-.73,1.17.75,1.57,1.61,1.98,2.85,1.38,6.07,2.48,9.24,2.81Z"/>
  <path fill="#FFFFFF" d="M51.15,71.4s-.12.15-.25.1c.3-1.94.33-4.46-1-6.05-.63-.75-1.19-.8-2.14-.86-.61-.04-2.33.23-2.58-.32-.01-1.1.87-2.07,1.21-3.11-.22-.6-1.46-2.5-1.21-3.04.11-.23.36-.28.59-.32,1.23-.18,2.95.38,3.94-.59,1.47-1.45,1.5-4.21,1.24-6.11l.11-.2c1.92.29,4.77.28,6.22-1.24,1.06-1.11.12-3.98.8-4.46.32-.23,1.17.19,1.54.35.82.35,1.55.88,2.35,1.24.76-.35,1.45-.84,2.21-1.18.39-.18,1.4-.69,1.73-.36.58.57-.28,3.25.66,4.34,1.38,1.59,4.33,1.58,6.23,1.35l.2.11c-.4,1.83-.2,4.98,1.31,6.29,1.06.92,3.68.11,4.29.61s-.89,2.61-1.08,3.21c.17.62,1.43,2.57,1.21,3.11s-1.99.28-2.58.32c-.97.06-1.49.11-2.14.86-1.39,1.6-1.21,4.07-1.1,6.05-.04.05-.13-.1-.15-.1h-2.9c-.84,0-2.18.53-2.84,1.06-1.52,1.23-.65,2.66-.93,4.27-.16.9-.84.53-1.44.29-.91-.36-1.79-.98-2.68-1.38-.91.41-1.82,1.05-2.75,1.41-.65.25-1.26.55-1.39-.41-.16-1.12.29-2.65-.37-3.63-.57-.86-2.4-1.61-3.39-1.61-.92,0-2-.07-2.9,0ZM59.6,56l-3.5.1-.1,2c.66.05,1.7-.29,1.48.72l-1.15,2.34c.1.79,1.35,2.28,1.18,2.97-.06.26-1.26.14-1.5.17l.1,2,3.5.2c-.26-2.72.93-1.22,2.35-.71,1.43-.52,2.61-2,2.35.71l3.5-.2.1-2h-1.34s-.15-.16-.15-.16c-.03-1.01.9-1.89,1.14-2.89-.2-1.39-2.66-3.52.34-3.15l-.1-2-3.5-.1c.26,3.01-1.37.64-2.35.64-.55,0-1.73,1.19-2.26.82l-.09-1.46Z"/>
  <path fill="#FFFFFF" d="M28.67,102.42c4.71-.74,4.94,6.52-.02,5.87-3.07-.4-3.1-5.38.02-5.87Z"/>
  <path fill="#FFFFFF" d="M16.27,90.22c2.37-.4,3.97,1.02,3.73,3.42-.36,3.52-6.38,3.28-5.89-.99.12-1.07,1.08-2.25,2.16-2.44Z"/>
  <path fill="#FFFFFF" d="M106.07,90.22c4.9-.76,4.88,6.17.47,5.88-3.49-.23-3.48-5.41-.47-5.88Z"/>
  <path fill="#FFFFFF" d="M93.98,102.43c2.36-.34,3.82,1.31,3.52,3.62-.27,2.03-2.83,2.84-4.49,1.9-2.25-1.27-1.69-5.13.97-5.52Z"/>
  <path fill="#FFFFFF" d="M106.48,26.33c4.14-.4,4.47,5.72.57,5.97s-4.32-5.61-.57-5.97Z"/>
  <path fill="#FFFFFF" d="M93.97,14.12c2.36-.37,3.82,1.34,3.52,3.62-.13,1.02-1.15,2.07-2.17,2.23-4.51.71-4.87-5.3-1.35-5.85Z"/>
  <path fill="#FFFFFF" d="M28.67,14.12c4.69-.74,4.94,6.52-.02,5.87-3.07-.4-3.1-5.38.02-5.87Z"/>
  <path fill="#FFFFFF" d="M16.78,26.33c4.11-.4,4.42,5.86.37,5.98-3.83.11-4.17-5.61-.37-5.98Z"/>
</svg>