<?xml version="1.0" encoding="UTF-8"?>
<svg id="Layer_1" data-name="Layer 1" xmlns="http://www.w3.org/2000/svg" viewBox="0 0 136.21 136.2">
  <path d="M34.41,0c.53.81.65,1.85,1.11,2.74.78,1.51,3,2.99,4.24,4.26,2.71,2.8,4.44,6.5,5.44,10.26.16.61.79,4.1.95,4.24.44.4,3.7-.19,4.45-.21.09-.45.14-2.08.47-2.28.44-.28,2.24.29,2.81.46.69.2,2.6.78,2.96,1.34.19.29.42.98.56,1.34.27.72,1.03,3.11.94,3.77-.11.79-1.72.58-2.33.8l-.42,3.74c0,.18.05.5.16.64.23.3,2.23.51,2.76.64,3.36.77,6.62,2.01,9.53,3.87,2.78-1.68,5.79-2.99,8.97-3.73.86-.2,2.31-.31,3.03-.57.14-.05.28-.11.36-.24.39-.6-.31-3.49-.21-4.36-.68-.2-2.35.05-2.41-.85-.04-.65.55-2.53.78-3.22.17-.49.65-1.91,1.04-2.16.46-.3,1.74-.71,2.32-.88s2.32-.7,2.82-.67c.84.05.56,1.78.85,2.35.5.13,1.04.19,1.55.25.56.06,2.5.3,2.86-.04.09-.09.13-.21.17-.33.36-1.19.48-2.76.83-4.07.9-3.28,2.47-6.81,4.74-9.36,1.34-1.5,4.08-3.38,4.9-5,.44-.87.57-1.88,1.05-2.7h.3l5.25,5.3c.05.15.12.3.14.46.09.76-.79,3.65-1.12,4.46-.15.37-.28.85-.66,1.03-.43.1-1.85-1.65-2.44-1.98-.96-.54-2.19-.06-3.05.5-3.13,2.05-5.81,7.27-6.93,10.77-.26.81-.55,1.52.65,1.65,1.06.12,2.4.03,3.5.1,3.11.19,6.19.4,9.3.5.41.01.86.02,1.26-.05.07-.05.18-1.11.19-1.31.15-2.58.02-5.22.3-7.8.05-.49.12-1.28.5-1.6.46-.38,3.91-1.71,4.61-1.89s1-.1.99.68c-.02,1.33-.39,3.02-.51,4.4-.2,2.44-.3,4.9-.4,7.35,2.38-.14,4.77-.21,7.15-.4,1.45-.12,3.08-.46,4.5-.5.64-.02.94,0,.83.73-.08.58-1.49,4.19-1.83,4.67-.64.89-2.01.64-2.99.71-2.61.18-5.23.27-7.85.4l.1,5.45c.12,1.8.29,3.6.4,5.4.07,1.06-.02,2.38.1,3.4.15,1.24,1.39.61,2.15.35,3.34-1.15,7.4-3.28,9.7-6,.81-.95,1.43-2.05,1.25-3.36-.13-.94-1.96-1.99-2.17-2.64-.13-.42.37-.61.66-.75.79-.38,3.96-1.32,4.75-1.25.3.02.63.15.85.35l5,5.05v.2c-.1.13-.18.24-.34.31-.65.27-1.4.38-2.1.71-1.86.87-3.41,3.3-4.96,4.74-2.54,2.35-5.75,3.86-9.05,4.85-1.66.5-3.37.75-5.05,1.15l-.2.69.4,3.68c.58.44,2.3-.01,2.37.94.06.77-1.08,4.33-1.53,5.03s-2.96,1.4-3.8,1.6c-.45.11-1.64.45-1.99.2-.31-.22-.38-1.84-.46-2.29-.75.04-4.05-.6-4.48-.18-.17.17-.54,2.6-.65,3.1-.76,3.26-2.01,6.44-3.84,9.23,1.58,2.35,2.81,5.18,3.55,7.93.34,1.25.44,2.65.77,3.83.05.19.11.41.26.54.52.35,3.6-.25,4.39-.25.09-.45.14-2.08.47-2.28.08-.05.29-.1.39-.11.76-.03,4.35,1.11,5.03,1.55.54.35,1.16,2.36,1.36,3.04.15.54.7,2.38.36,2.76-.29.32-1.72.3-2.19.46l-.42,3.74c0,.2.06.55.2.69.25.24,2.26.48,2.8.6,4.54,1.04,8.68,2.78,12,6.1,1.23,1.23,2.45,3.14,3.98,3.92.89.46,1.91.6,2.72,1.13v.2l-5.34,5.31c-.77.3-2.44-.22-3.26-.46-.51-.15-2.48-.72-2.65-1.15-.25-.61,2.04-1.99,2.16-2.94.17-1.42-.47-2.44-1.35-3.45-2.23-2.59-6.14-4.62-9.33-5.77-.88-.32-2.25-1.14-2.43.32-.12,1-.03,2.27-.1,3.3-.12,1.8-.29,3.6-.4,5.4l-.1,5.55c.75.02,1.51-.03,2.25,0,2.24.08,5.22.09,7.4.4,1.14.17,1.24.67,1.67,1.63.25.56,1.41,3.51,1.39,3.92-.03.59-.7.47-1.16.45-1.85-.08-3.91-.47-5.8-.6s-3.7-.2-5.55-.2c.11,2.01.15,4.04.3,6.05.14,1.8.58,3.97.61,5.7,0,.27-.07.66-.38.73-.26.06-3.34-1.13-3.83-1.33s-1.45-.53-1.68-1.02c-.5-3.4-.4-6.89-.62-10.33l-6.65.1c-1.76.15-3.53.29-5.3.4-.7.04-2.88-.21-3.11.6-.1.36.9,2.78,1.11,3.3,1.18,2.82,4.23,8.44,7.43,9.17,1.06.24,1.34.2,2.17-.47.45-.36,1.57-1.91,2.15-1.55.28.17.92,2.31,1.05,2.75.23.82.72,2.26.43,3.03l-5.18,5.37h-.4c-.41-.69-.55-1.51-.88-2.27-.92-2.06-3.7-3.86-5.27-5.63-2.26-2.56-3.9-6.47-4.72-9.78-.27-1.08-.36-2.46-.65-3.45-.04-.13-.11-.31-.22-.38-.54-.38-3.53.25-4.34.22-.29.56-.05,2.26-.77,2.39-.48.09-2.38-.47-2.94-.65-.6-.19-2.28-.73-2.59-1.21-.5-.79-1.55-4.18-1.52-5.08,0-.11.04-.3.1-.39.17-.26,1.9-.31,2.3-.48.02-1.07.28-2.18.31-3.24.02-.6.16-1.12-.48-1.33-.82-.27-2.11-.36-3.02-.58-3.16-.74-6.21-2.02-8.95-3.75-2.46,1.59-5.36,2.86-8.21,3.59-1.2.31-2.66.41-3.77.73-.42.12-.46.42-.48.82l.43,3.73c.58.33,2.18,0,2.28.77.12.88-.96,4.36-1.46,5.15-.39.61-2.22,1.15-2.94,1.36-.55.16-2.43.74-2.84.44-.31-.22-.38-1.84-.46-2.29-.75.04-4.05-.6-4.48-.18-.17.17-.56,2.68-.67,3.18-.92,3.93-2.54,7.91-5.3,10.9-1.59,1.72-3.98,3.15-4.9,5.3-.29.69-.44,1.42-.75,2.1h-.4l-4.95-4.9c-.59-.77-.4-1.25-.22-2.12.14-.64,1.02-3.8,1.41-4.09.15-.11.31-.13.49-.08.39.12,1.64,1.81,2.42,2.09,2.2.78,5.02-2.6,6.14-4.17,1.34-1.89,2.5-4.32,3.29-6.51.49-1.36,1.17-2.26-.83-2.42-3.08-.25-6.21-.18-9.29-.51h-4.45c.08.86-.07,1.71-.1,2.55-.08,1.93-.04,3.88-.2,5.8-.13,1.56.06,2.05-1.43,2.77-.94.45-2.31.96-3.32,1.28-.63.2-1.31.63-1.43-.35.5-3.93.83-7.9.88-11.85-2.99.01-5.98.24-8.95.5-.64.06-3.02.53-3.41.21-.11-.09-.15-.21-.15-.35.56-1.45,1-3.14,1.69-4.52.59-1.19,1.24-1.03,2.47-1.13,2.01-.17,4.27-.24,6.29-.31.75-.03,1.51.03,2.25,0-.03-1.35.04-2.71,0-4.05-.08-3.01-.29-6.28-.51-9.29-.12-1.77-.12-2.01-1.85-1.45-3.45,1.12-8.54,3.76-10.59,6.81-.64.94-1.11,2.28-.4,3.28.29.4,1.77,1.8,1.82,1.98.22.72-1.36,1.08-1.91,1.26-.93.3-2.98.96-3.88.73-.17-.04-.36-.19-.5-.3-1.62-1.25-3.12-3.42-4.75-4.75-.18-.16-.2-.41-.1-.61.08-.15,1.94-.71,2.32-.88,1.88-.86,3.61-3.51,5.23-4.97,4.08-3.67,8.2-4.38,13.31-5.59.86-.2.73-.62.7-1.41-.04-1.06-.31-2.18-.3-3.25-.68-.2-2.35.05-2.41-.85-.04-.6.48-2.28.68-2.92s.7-2.19,1.2-2.5c.69-.42,2.36-.91,3.18-1.12.49-.12,1.9-.56,2.24-.25.39.34.26,1.7.5,2.2.14.11,2.21.32,2.55.35.41.03,1.51.13,1.8-.09.12-.09.18-.24.22-.38.22-.73.28-1.82.47-2.63.68-2.93,1.72-5.61,3.17-8.23.14-.26.58-.75.64-.97.05-.2-.72-1.24-.88-1.53-1.09-2-2.1-4.51-2.68-6.72-.31-1.19-.41-2.67-.73-3.77-.04-.13-.11-.31-.22-.38-.54-.38-3.53.25-4.34.22-.32.61,0,2.33-.86,2.4-.61.05-2.63-.58-3.3-.81-.56-.19-1.83-.61-2.13-1.07-.34-.51-.75-1.83-.94-2.46-.18-.58-.77-2.56-.48-3.01.17-.26,1.9-.31,2.3-.48-.06-.81.59-3.83.22-4.35-.21-.3-2.02-.48-2.51-.59-3.93-.87-8.17-2.4-11.2-5.1-1.87-1.67-3.53-4.35-5.8-5.3-.54-.23-2.35-.46-1.9-1.21l5.25-5.15c.53-.21,1.03-.05,1.56.06.62.12,4.02,1.07,4.25,1.45.39.63-1.47,1.92-1.84,2.47-.52.76-.34,1.66,0,2.47,1.39,3.3,7.86,6.63,11.16,7.64.65.2,1.49.58,1.63-.42.19-1.38.11-2.99.2-4.4.12-1.96.35-3.94.4-5.9.04-1.35-.04-2.71,0-4.05l-8.95-.4c-1.33-.13-1.59-.11-2.17-1.33-.63-1.31-1.04-2.86-1.58-4.23-.04-.59.5-.56.95-.55,1.81.07,3.85.47,5.7.6,1.95.15,3.9.16,5.85.3-.04-3.99-.39-7.99-.88-11.95.06-.64.34-.61.89-.5.83.16,2.66.94,3.49,1.31.49.22,1.3.46,1.53.97.19.41.24,1.52.28,2.02.17,2.12.2,4.28.31,6.39.02.33-.09,1.78.09,1.91l5.16-.05c1.83-.11,3.67-.29,5.5-.4,1.09-.07,2.46.03,3.5-.1,1.33-.16.72-1.24.45-2.05-.52-1.55-1.36-3.42-2.15-4.85-1.22-2.21-4.18-6.4-6.99-6.29-.89.04-1.79,1.43-2.46,1.95-.59.46-.79.42-1.15-.25s-1.33-4.03-1.31-4.73c0-.18.08-.39.11-.57l5.25-5.4h.3ZM49.81,27.5l-13.7.8c2.14.81,4.38,1.91,6.05,3.5.57.54.97,1.17,1.49,1.71,1.53,1.55,3.23,2.72,4.11,4.89l1.35,2.8.7-13.7ZM100.11,28.2l-13.8-.7.8,13.6,1.38-2.87c1.07-2.15,2.89-3.79,4.57-5.43,1.06-1.04,2.04-2.11,3.38-2.82l3.67-1.78ZM48.11,48.1c-1.14-3.68-4.05-7.26-7.6-8.85-.53-.24-1.35-.32-1.75-.75-.54-.98-.79-2.05-1.36-3.04-.8-1.37-2.06-2.63-3.29-3.61-1.43-1.13-3.17-2.33-4.99-2.66,1.23,3.67,3.97,7.19,7.53,8.82.56.26,1.48.42,1.87.83s.69,1.75,1.01,2.39c.94,1.9,2.75,3.62,4.46,4.84,1.22.87,2.63,1.78,4.13,2.02ZM107.01,29.2c-2.94.79-6.33,3.3-7.98,5.87-.68,1.06-.88,2.13-1.4,3.1-.41.76-1.53.88-2.29,1.21-2.23,1-4.04,2.91-5.41,4.89-.79,1.14-1.61,2.44-1.82,3.83,1.44-.22,2.76-1.09,3.93-1.92,2.17-1.53,3.79-3.16,4.89-5.61.22-.49.34-1.34.68-1.72.36-.41,1.66-.7,2.24-.96,2.24-1.03,4.1-3.04,5.45-5.05.74-1.11,1.44-2.31,1.72-3.63ZM80.79,34.23c-.19-.18-.54-.13-.78-.08-1,.18-3.17,1.17-4.16,1.64-1.61.75-3.14,1.67-4.53,2.77,1.21,1.44,2.12,2.74,3.9,3.49.41.17,2.12.58,2.08.99l-5.08,5.22c-.39.32-.96.28-1.43.22-.79-.1-1.91-.64-2.63-.68-1.3-.07-3,1.4-4.35.36-.91-.7-3.96-3.74-4.65-4.65-.2-.26-.44-.63-.04-.85.45-.25,1.5-.44,2.09-.71,1.29-.58,2.25-1.69,3.15-2.75.7-.82.39-.75-.38-1.32-1.6-1.18-5.86-3.34-7.77-3.73-.69-.14-1.02.08-1.11.8-.12,1-.03,2.27-.1,3.3-.19,2.9-.43,5.8-.5,8.7-.02.71-.02,1.45.05,2.16.13.18,1.84.07,2.21.09,2.07.08,4.34.13,6.39.31,1.63.14,1.87.03,2.57,1.53.44.95.98,2.32,1.28,3.32.32,1.06.39,1.3-.86,1.26-2.99-.12-6.14-.71-9.19-.81-.75-.02-1.51.03-2.25,0,.11,2.01.15,4.04.3,6.05.14,1.8.59,3.97.61,5.7.01.82-.38.78-1,.6-.88-.26-3.86-1.33-4.5-1.8-.75-.56-.56-1.85-.61-2.69l-.4-8.05h-4.45c-2.5.13-5,.34-7.5.5-.7.04-2.88-.21-3.11.6-.09.31.53,1.81.69,2.23.92,2.46,2.14,4.95,3.83,6.97,1.41-1.28,2.77-2.16,3.5-4,.2-.5.32-1.24.53-1.67.24-.49.48-.35.82-.08.88.67,4.11,3.88,4.75,4.75.57.77.31,1.38.12,2.22-.11.51-.56,1.61-.56,2.03.01.69.74,2.15.79,3,.02.39-.06.78-.3,1.1l-4.95,4.95-.3.1c-.19-.02-.3-.18-.38-.33-.25-.51-.39-1.34-.66-1.94-.76-1.7-2.08-2.48-3.37-3.73-1.55,1.93-2.71,4.18-3.63,6.47-.19.48-.99,2.44-.85,2.8s.53.49.88.53c2.24.25,4.74.01,7,.4l7.15.2.41-9.24c.13-.51.04-1.14.49-1.51s3.92-1.71,4.61-1.89,1-.11.99.68c-.02,1.69-.47,3.84-.61,5.6-.16,2.04-.2,4.1-.3,6.15,1.98-.14,3.97-.15,5.95-.3,1.85-.14,3.89-.54,5.7-.6.7-.02.96.03.81.81-.14.7-1.43,4.05-1.81,4.59-.54.76-1.09.53-1.89.71l-8.95.4.1,5.45c.11,1.8.29,3.6.4,5.4.07,1.06-.02,2.38.1,3.4.08.72.56.85,1.2.7,1.07-.25,3.08-1.17,4.13-1.67,1.58-.75,3.08-1.67,4.46-2.74-1.33-1.39-2.15-2.74-4-3.5-.41-.17-1.96-.47-2-.91l.1-.3,5-5c.56-.44,1.26-.2,1.89-.08.59.12,1.7.59,2.19.6.64.01,2.16-.71,2.98-.77.43-.03.85.04,1.2.3,1.34,1.64,3.55,3.16,4.8,4.8.1.13.24.25.23.44l-.25.35c-1.22.32-2.45.73-3.45,1.52l-2.18,2.35c-.23.34.74.87,1.03,1.08,1.57,1.09,5.65,3.19,7.47,3.53.59.11,1.01.1,1.11-.6.19-1.38.11-2.99.2-4.4.12-1.96.35-3.94.4-5.9.04-1.35-.04-2.71,0-4.05l-8.95-.4c-1.33-.13-1.59-.11-2.17-1.33-.63-1.31-1.04-2.86-1.58-4.23-.04-.59.5-.56.95-.55,1.81.07,3.85.46,5.7.6,1.95.15,3.9.17,5.85.3-.04-3.99-.39-7.99-.88-11.95.06-.64.34-.61.89-.5.83.16,2.66.94,3.49,1.31.49.22,1.3.46,1.53.97.19.41.24,1.52.28,2.02.17,2.12.2,4.28.31,6.39.02.33-.09,1.78.09,1.91l5.16-.05c1.83-.11,3.67-.29,5.5-.4,1.09-.07,2.46.03,3.5-.1,1.33-.16.72-1.24.45-2.05-.9-2.69-2.34-5.57-4.15-7.75-.78.92-2.11,1.74-2.79,2.7-.2.28-.46.86-.6,1.2-.22.52-.41,1.49-.63,1.87-.25.42-.52.21-.82-.02-.89-.67-3.97-3.76-4.65-4.65-.24-.31-.4-.67-.41-1.07-.02-.93.74-2.33.77-3.19.03-.8-.76-2.24-.77-3.21,0-.21.07-.43.11-.64l5.4-5.4c.14,0,.33.19.39.31.31.58.48,1.65.84,2.36.45.89,2.23,2.66,3.07,3.23.08.06.1.14.25.1,1.12-1.6,2.12-3.25,2.92-5.03.41-.91,1.25-2.75,1.44-3.66.06-.28.09-.54-.08-.78-.93-.49-2.02-.26-3.02-.33-1.73-.11-3.47-.26-5.2-.4l-6.75-.1c.08.85-.07,1.71-.1,2.55-.08,1.93-.04,3.88-.2,5.8-.13,1.56.06,2.05-1.43,2.77-1.31.63-2.85,1.06-4.22,1.57-.36-.02-.51-.31-.53-.64.49-3.93.83-7.9.88-11.85-2.99.02-5.98.23-8.95.5-.6.05-2.9.48-3.28.28-.28-.15-.29-.4-.23-.68.16-.83,1.23-3.44,1.64-4.27.37-.74.53-.91,1.37-1.03,2.17-.32,5.15-.33,7.4-.4.75-.03,1.51.03,2.25,0,0-2.19,0-4.37-.1-6.55-.08-1.73-.29-3.47-.4-5.2-.04-.62.07-2.85-.33-3.22ZM108.71,49.9l-.8-13.8c-.77,2.06-1.81,4.21-3.3,5.85-.65.72-1.44,1.21-2.06,1.84-1.21,1.22-2.15,2.67-3.82,3.48l-3.73,1.82,8.05.3,5.65.5ZM41.11,49c-2.17-.81-4.49-1.96-6.15-3.6-1.57-1.54-3.12-3.18-4.53-4.87l-2.22-4.33-.8,13.7,13.7-.9ZM68.01,44.2c.39-.35.19-1.23.1-1.7l-.2.85.11.85ZM44.11,68c-.12-.1-1.48-.12-1.6.2.49,0,.99.23,1.48.03.14-.06.15-.03.12-.23ZM93.71,68.2c-.04-.19-.2-.18-.35-.2-.43-.07-1.01-.18-1.35.15.55.31,1.12.04,1.7.05ZM41.21,87.1l-13.8-.7.8,13.6,1.38-2.87c1.07-2.15,2.89-3.79,4.57-5.43,1.06-1.04,2.04-2.11,3.38-2.82l3.67-1.78ZM108.71,86.4l-13.8.8c2.16.73,4.49,1.92,6.15,3.5.57.54.97,1.17,1.49,1.71,1.53,1.55,3.23,2.72,4.11,4.89l1.35,2.8.7-13.7ZM48.11,88.1c-2.94.79-6.33,3.3-7.98,5.87-.68,1.06-.88,2.13-1.4,3.1-.41.76-1.53.88-2.29,1.21-2.23,1-4.04,2.91-5.41,4.89-.79,1.14-1.61,2.44-1.82,3.83,1.44-.22,2.76-1.09,3.93-1.92,2.17-1.53,3.79-3.16,4.89-5.61.22-.49.34-1.34.68-1.72.36-.41,1.66-.7,2.24-.96,2.24-1.03,4.1-3.04,5.45-5.05.74-1.11,1.44-2.31,1.72-3.63ZM107.01,107c-.92-3.1-3.48-6.53-6.27-8.18-.99-.59-2.04-.83-3.04-1.36-.46-.57-.58-1.35-.88-2.02-.73-1.63-1.92-3.07-3.27-4.23-1.52-1.31-3.49-2.62-5.45-3.1.22,1.5,1.15,2.92,2.02,4.13,1.47,2.05,3.09,3.63,5.41,4.69.54.25,1.43.41,1.82.78.43.4.72,1.74,1.03,2.37.95,1.94,2.75,3.67,4.49,4.91,1.22.87,2.63,1.78,4.13,2.02ZM68.11,93.8c.09-.44.14-.9.1-1.35,0-.12-.03-.45-.2-.45l-.11.95.2.85ZM49.81,108.8l-.8-13.8c-.77,2.06-1.81,4.21-3.3,5.85-.65.72-1.44,1.21-2.06,1.84-1.21,1.22-2.15,2.67-3.82,3.48l-3.73,1.82,13.7.8ZM100.01,107.9c-2.17-.81-4.49-1.96-6.15-3.6-1.57-1.54-3.12-3.18-4.53-4.87l-2.22-4.33-.8,13.7,13.7-.9Z"/>
  <path d="M18.79,6.82c.5-.08,1.71,1.08,1.97,1.49.22.34.24.75,0,1.09-3.21,3.44-6.49,7.07-10.04,10.16-.41.36-.84.84-1.43.73s-2.41-1.85-1.62-2.57c3.36-3.72,6.91-7.22,10.6-10.6.13-.1.37-.26.53-.28Z"/>
  <path d="M9.39,115.92c.31-.04.53.11.77.28,1.34.96,3.36,3.08,4.6,4.3s2.59,2.6,3.8,3.9c.56.61,1.81,1.79,2.19,2.41.2.31.22.63.08.97-.06.14-1.26,1.37-1.43,1.47-.35.22-.72.23-1.05-.05-3.76-3.41-7.34-6.99-10.76-10.74-.17-.29-.13-.7.02-.99s1.43-1.5,1.76-1.55Z"/>
  <path d="M117.09,6.82c.23-.05.44-.01.62.14,3.8,3.44,7.44,7.02,10.85,10.85.61.62-.87,2.04-1.35,2.34-.82.52-1.7-.55-2.3-1.09-1.67-1.52-3.24-3.17-4.9-4.7-1.19-1.66-3.44-3.22-4.54-4.86-.24-.36-.36-.62-.14-1.03.12-.23,1.54-1.6,1.76-1.65Z"/>
  <path d="M126.59,115.92c.61-.08,2.64,1.7,1.97,2.48-3.28,3.56-6.57,7.2-10.24,10.36-.41.35-.76.78-1.33.62-.34-.09-1.64-1.42-1.73-1.77-.1-.4.09-.68.32-.99,1.3-1.81,3.62-3.48,4.99-5.31,1.83-1.45,3.44-3.52,5.25-4.95.21-.17.51-.4.78-.43Z"/>
  <path d="M70.24,78.23c-.09.09-.11.3-.23.42-.27.28-1.11,1.2-1.36,1.34-1.3.67-2.34-1.34-3.08-2.09-.56-.57-1.34-1.13-1.91-1.69-2.29-2.28-4.51-4.62-6.7-7-.42-.58-.07-.61-.06-1.05,0-.51-.34-.57.11-1.2,2.54-2.93,5.38-5.55,8.15-8.25.53-.51,2.14-2.51,2.7-2.6.84-.13,1.59.87,2.14,1.44,2.79,2.92,5.85,5.7,8.55,8.75.21.24.82.91.85,1.16.03.29-.17.51-.16.69,0,.16.19.29.16.59-.02.19-.19.45-.3.61-1.11,1.55-3.25,3.08-4.4,4.7-1.38,1.5-3.04,2.74-4.47,4.18ZM68.08,60.91l-7.26,7.16,7.24,7.33,7.35-7.25-7.33-7.24Z"/>
  <path d="M30.69,87.72c2.74-.44,4.32,3.19,1.8,4.8-2.01,1.29-4.54-.83-3.82-3.02.25-.76,1.22-1.65,2.02-1.78Z"/>
  <path d="M45.49,102.72c3.06-.52,4.47,3.34,1.9,4.8-2.74,1.55-5.46-2.35-2.76-4.36.25-.18.56-.38.87-.43Z"/>
  <path d="M104.69,43.33c2.17-.26,3.76,2.22,2.47,4.07-1.63,2.32-5.21.76-4.7-2,.19-1,1.22-1.95,2.23-2.07Z"/>
  <path d="M46.08,28.34c1.96-.03,3.4,2.34,2.23,4.01-2.13,3.05-6.36-.25-4.25-2.95.47-.61,1.24-1.05,2.02-1.06Z"/>
  <path d="M89.99,28.33c.99-.04,2.06.7,2.44,1.6,1.13,2.69-2.31,4.99-4.32,2.72-1.5-1.69-.27-4.25,1.88-4.33Z"/>
  <path d="M30.79,43.33c2.06-.29,3.76,2.08,2.61,3.91-1.7,2.68-5.65.77-4.71-2.11.28-.87,1.19-1.67,2.1-1.8Z"/>
  <path d="M89.49,102.72c2.45-.42,4.15,2.25,2.58,4.18-1.9,2.32-5.45.11-4.46-2.56.27-.72,1.11-1.49,1.88-1.62Z"/>
  <path d="M104.59,87.73c4.01-.57,3.94,5.83-.08,5.13-2.81-.49-2.72-4.73.08-5.13Z"/>
</svg>