<?xml version="1.0" encoding="UTF-8"?>
<svg id="Layer_1" data-name="Layer 1" xmlns="http://www.w3.org/2000/svg" viewBox="0 0 121.92 122">
  <path d="M9.31,0c6.48,3.98,14.25,4.84,21.55,6.5,7.29-1.65,15.09-2.51,21.55-6.5h.5c1.19.79,2.48,1.54,3.55,2.5,1.34,1.21,1.19,1.48-.38,2.21-.71.33-1.57.62-2.32.88-4.85,1.71-9.88,2.8-14.93,3.77-.89.29-.33,1.23-.03,1.8.88,1.73,2.67,3.49,4.61,3.89,1.43.29,3.98.15,5.41-.2.83-.21,2.54-1.14,3.22-1.03.42.07,1.29.76,1.66,1.04.92.68,2.56,1.98,3.31,2.79,1.09,1.16-.82,1.39-1.7,1.61-4.45,1.1-9.39,1.19-13.47-1.13-1.36-.77-2.48-1.88-3.63-2.92-.46,3.13-2,5.88-3.91,8.35-.2.26-1.12,1.18-1.08,1.39.09.45,2.9,2.21,3.45,2.45,3.1,1.36,8.49.87,11.76.08,1.04-.25,3.22-1.23,4.11-1.05.41.09,1.35.88,1.72,1.18.77.62,2.17,1.79,2.79,2.51s.28,1.32-.29,1.89c-.83.83-2.6,2.44-3.56,3.04-1.39.86-2.97-.22-4.39-.59-3.37-.88-9.06-1.42-12.27.03-1.24.56-1.67,1.05-2.18,2.32-1.41,3.46-.7,9.24.3,12.8.36,1.29,1.2,2.3.39,3.59-.59.95-2.22,2.75-3.04,3.56-.65.64-1.08.93-1.9.3-.69-.53-2.21-2.35-2.79-3.11-.2-.26-.82-1.05-.88-1.32-.22-.97.7-2.92.97-3.99.73-2.9,1.13-7.12.56-10.05-.39-2.04-1.59-3.97-3.1-5.37-2.76,2.39-5.95,4.46-9.65,4.98-.04.15.04.17.1.25.37.53,1.22,1.2,1.7,1.8,3.38,4.27,3.48,9.84,2.25,14.95-.13.54-.4,2.38-1.15,2.16-.38-.11-2.65-2.86-3.04-3.37-.29-.38-1.15-1.46-1.24-1.86-.16-.77.7-2.2.93-3.03.46-1.65.62-5.11-.03-6.67-.55-1.32-2.02-2.75-3.25-3.45-.52-.3-1.8-1.05-2.12-.18-1.03,5.32-2.14,10.67-4.05,15.75-.23.61-.95,2.85-1.65,2.84-1-.46-1.79-1.66-2.43-2.56-.43-.6-1.38-1.67-1.17-2.43,3.88-6.54,4.8-14.24,6.43-21.55-1.49-6.74-2.43-13.62-5.53-19.85-.33-.66-1.14-1.55-.91-2.3.1-.32.83-1.28,1.07-1.63.36-.51,1.79-2.47,2.28-2.63.77-.24,1.06.71,1.32,1.29,1.34,2.92,2.49,7.21,3.23,10.37.49,2.1.74,4.84,1.4,6.8.26.77.69.51,1.29.28,1.64-.63,4.46-3.17,4.46-5.04v-3.05c2.62.42,4.82-.17,6.6-2.15.52-.57,1.94-2.6,1.63-3.33-.08-.19-.42-.24-.61-.29-1.98-.56-4.28-.81-6.32-1.28-3.22-.74-7.82-1.95-10.77-3.33-1.55-.73-1.71-1.01-.38-2.21,1.06-.96,2.36-1.71,3.55-2.5h.5ZM30.79,11.12c-.81.08-1.93,1.15-2.18,1.92-.55,1.71.48,4.89,1.16,6.55.11.26.97,2.2,1.1,2.2.8-1.35,1.45-2.91,1.88-4.42.45-1.6,1.06-3.92-.17-5.28-.31-.35-1.31-1.02-1.78-.98ZM26.55,26.54c.35-.35,1.76-1.19,1.92-1.54.03-.08.07-.14.04-.23-2.51-2.67-4.36-5.94-5.04-9.57-1.05,1.11-2.23,2.07-3.52,2.88-.34.21-.99.41-1.23.67-.38.41-.99,1.81-1.46,2.44-.61.82-1.37,1.54-2.04,2.31,3.68.66,6.95,2.58,9.65,5.1.21,0,1.43-1.81,1.69-2.06ZM37.41,31c-.01-.12-.14-.17-.23-.22-.72-.39-1.58-.67-2.34-1.06-1.42-.75-2.77-1.67-3.98-2.72-.37.37-.8.67-1.22.98-.25.19-.83.48-1,.65-.49.47-.98,1.74-1.61,2.22,1.57,2,2.9,4.18,3.83,6.55l1.5-3c.74-1.31.95-1.43,2.25-2.15.87-.48,1.85-.96,2.8-1.25ZM21.81,30.8c-2.46-1.12-5.47-2.55-8.25-2.31-1.02.09-2.49,1.4-2.44,2.45.04.81,1.22,2.01,1.97,2.23,1.98.58,6.22-.93,8.06-1.88.22-.12.52-.27.66-.49Z"/>
  <path d="M69.11,122c-.72-.37-1.38-.85-2.03-1.32-.54-.39-2.56-1.8-2.56-2.43s2.09-1.34,2.64-1.55c5.16-1.96,10.65-3.09,16.05-4.15.8-.3,0-1.63-.29-2.12-1.92-3.36-4.4-3.88-8.07-3.63-1.75.12-2.67.76-4.2,1.2-.72.21-.83.16-1.48-.22-1.1-.64-2.91-2.22-3.87-3.13-.58-.55-1.29-1.05-.23-1.53,2.02-.92,6.77-1.32,8.98-1.12,3.85.35,7.05,1.99,9.65,4.8.49-3.73,2.6-6.95,4.99-9.74-1.49-1.56-3.4-2.77-5.57-3.13-3.05-.52-7.26-.11-10.24.7-.86.23-2.59,1.04-3.36.91-.82-.14-3.38-2.45-4.07-3.14-1.55-1.54-.99-1.78.4-3.11.64-.61,2.97-2.71,3.71-2.79s2.24.62,3.04.84c3.5.97,9.54,1.63,12.87.07,1.17-.55,1.55-1.08,2.05-2.25,1.39-3.26.77-9.08-.17-12.47-.25-.91-.98-2.36-.84-3.24.1-.66,2.18-2.96,2.74-3.56.73-.78,1.54-1.93,2.62-.96.72.65,1.8,1.94,2.43,2.72.3.37,1.09,1.31,1.18,1.72.2.95-.73,2.92-.99,3.96-.82,3.28-1.32,8.69,0,11.83.56,1.34,1.59,2.58,2.57,3.63,2.66-2.53,5.98-4.48,9.65-5.1-1.11-1.2-2.23-2.39-3.02-3.83-2.2-4.02-2.1-8.82-1.03-13.17.19-.78.48-2.87,1.6-1.8.81.77,3.19,3.61,3.65,4.55.52,1.06-.45,2.28-.75,3.35-.48,1.69-.67,5.15.03,6.77.5,1.15,1.74,2.43,2.79,3.11.5.33,2.18,1.42,2.54.58,1.04-5.27,2.14-10.56,3.99-15.61.19-.53,1.04-2.9,1.47-3.03.77-.24,1.83,1.32,2.27,1.89.32.41,1.5,2.01,1.61,2.39.22.72-.4,1.3-.71,1.9-3.23,6.39-4.25,13.3-5.73,20.25,1.62,7.31,2.56,15.01,6.43,21.55.19.69-.58,1.57-.97,2.13s-1.95,2.66-2.48,2.83-.92-.69-1.12-1.09c-.82-1.69-1.46-3.97-2.01-5.79-1.15-3.81-1.98-7.69-2.7-11.6-.23-.65-.58-.6-1.14-.4-1.68.61-3.91,2.62-4.44,4.36-.38,1.25-.24,2.47-.2,3.75h-2.95c-1.23,0-3.13,1.59-3.9,2.5-.49.58-2.16,2.86-.97,3.27,1.85.64,4.7.9,6.72,1.38,3.26.76,7.66,1.93,10.67,3.33,1.68.78,1.37,1.15.13,2.27-1.03.93-2.4,1.76-3.6,2.45h-.2c-6.51-4.02-14.31-4.9-21.65-6.55-7.38,1.63-15.18,2.58-21.75,6.55h-.2ZM84.51,91.1c2.39.85,4.54,2.24,6.55,3.77.56-.58,1.67-1.05,2.19-1.58.56-.57,1.03-1.64,1.64-2.24-1.59-1.95-2.97-4.15-3.78-6.55-.51.68-.78,1.59-1.18,2.37-.87,1.66-1.06,1.98-2.72,2.88-.8.44-1.66.74-2.46,1.14-.09.05-.24.06-.25.2ZM106.59,88.73c-2.13.22-4.6,1.33-6.48,2.32,1.43.85,3.05,1.52,4.66,1.94,2.09.55,4.6,1.16,5.78-1.2.36-.71.29-.91-.09-1.59-.86-1.58-2.23-1.64-3.88-1.47ZM106.71,98.4c-3.13-.44-5.89-2.01-8.35-3.9-.27-.21-1.18-1.12-1.4-1.1l-1.6,2.01-1.95,1.66c2.36,2.82,4.46,6.01,4.99,9.74,1.44-1.47,2.95-2.74,4.85-3.6.4-.89.92-1.82,1.51-2.59.52-.68,1.43-1.36,1.84-1.96.06-.08.14-.1.1-.25ZM91.11,100.1c-.11-.08-.75,1.29-.82,1.43-.8,1.76-2.11,5.51-1.51,7.35.25.77,1.43,1.92,2.28,1.92,1,0,2.26-1.38,2.36-2.35.28-2.81-1.15-5.87-2.31-8.35Z"/>
  <path d="M69.51,0c6.46,3.99,14.26,4.85,21.55,6.5,7.3-1.66,15.07-2.52,21.55-6.5h.5c.81.53,4.2,2.66,4.38,3.47s-1.15,1.21-1.78,1.48c-2.9,1.22-6.71,2.28-9.8,3-2.15.51-4.85.77-6.88,1.42-.98.32-.33,1.27.03,1.93,1.58,2.97,4.39,4.42,7.75,3.8-.05,1.43-.22,2.75.32,4.13.63,1.6,2.54,3.35,4.14,3.96.61.23,1.03.49,1.29-.28.64-1.94.91-4.72,1.4-6.8.69-2.95,2.13-8.61,3.57-11.13.76-1.34,1.7.08,2.28.79.42.51,2.05,2.69,2.1,3.21.06.58-.58,1.31-.85,1.84-3.2,6.29-4.15,13.31-5.64,20.14,1.67,7.27,2.55,14.95,6.44,21.46.09.21.06.4,0,.61-.11.4-1.16,1.81-1.47,2.23-.35.47-1.59,2.16-2.13,2.16-.7,0-1.42-2.23-1.65-2.84-1.91-5.11-3.01-10.47-4.09-15.81-.36-.81-1.62-.02-2.14.28-1.24.72-2.79,2.25-3.29,3.61-.58,1.58-.39,4.85.07,6.47.23.81,1.08,2.3.93,3.03-.08.4-.94,1.48-1.24,1.86-.38.5-2.67,3.26-3.04,3.37-.53.15-.7-.48-.83-.88-1.74-5.17-1.55-11.83,1.93-16.23.47-.6,1.33-1.27,1.7-1.8.06-.08.14-.1.1-.25-3.7-.51-6.9-2.57-9.65-4.98-1.35,1.28-2.53,2.97-2.98,4.8-.77,3.15-.31,7.89.54,11.02.27,1.01,1.08,2.57.85,3.57-.15.64-2.52,3.3-3.11,3.89s-1.08,1.24-1.98.68c-.53-.33-2.87-3.07-3.31-3.69-1.12-1.6-.25-2.3.19-3.89,1.01-3.63,1.75-9.58.17-13.07-.52-1.15-.9-1.53-2.05-2.05-3.2-1.45-8.83-.91-12.19-.05-.99.25-2.82,1.11-3.72.96-.51-.08-1.25-.71-1.66-1.04-.78-.62-1.85-1.55-2.55-2.25-.65-.65-1.12-1.2-.35-2.05s2.45-2.29,3.35-2.95c.26-.19.84-.62,1.12-.68.88-.18,2.86.74,3.86.99,3.01.75,7.58,1.18,10.58.46,1.88-.45,3.5-1.62,4.87-2.94.03-.16-1.35-1.71-1.57-2-1.68-2.27-3-4.91-3.42-7.73-1.2,1.1-2.39,2.22-3.83,3.02-4.05,2.23-8.89,2.11-13.27,1.03-.88-.22-2.8-.44-1.7-1.61.77-.81,2.39-2.1,3.31-2.79.38-.28,1.24-.97,1.66-1.04.68-.11,2.39.82,3.22,1.03,1.42.35,3.98.49,5.41.2,1.93-.39,3.74-2.17,4.61-3.89.28-.55.84-1.53-.03-1.8-5.15-1-10.3-2.08-15.23-3.87-.65-.23-1.4-.5-2.02-.78-.37-.17-1.26-.53-1.31-.98-.06-.54,1.54-1.73,1.98-2.08.79-.61,1.64-1.15,2.49-1.66h.5ZM90.99,11.12c-.84.08-1.97,1.19-2.22,1.98-.56,1.73.68,5.41,1.43,7.07.1.21.78,1.63.87,1.63,1.27-2.37,2.6-5.51,2.35-8.25-.09-.98-1.42-2.52-2.43-2.43ZM106.71,23.5c-.67-.77-1.43-1.48-2.04-2.31-.46-.63-1.07-2.03-1.46-2.44-.24-.26-.9-.45-1.23-.67-1.31-.83-2.46-1.8-3.57-2.88-.59,3.69-2.57,6.9-5,9.65,0,.39,1.66,1.38,1.97,1.68.27.26,1.44,2.06,1.68,2.06,2.68-2.52,5.99-4.44,9.65-5.1ZM91.11,37.4c.05-.05.41-1.12.52-1.34.88-1.87,1.98-3.6,3.27-5.22-.65-.58-1.08-1.63-1.68-2.2-.56-.53-1.53-1.03-2.15-1.55-1.46,1.04-2.91,2.08-4.52,2.89-.17.08-2.15.87-2.04,1.01.97.33,1.97.78,2.87,1.28,1.27.71,1.46.84,2.18,2.12.52.92.87,1.94,1.34,2.86.04.08.03.31.21.14ZM100.11,30.8c-.1.13.75.53.86.58,1.81.91,5.93,2.38,7.86,1.79.76-.23,1.92-1.42,1.98-2.23.05-.71-1.03-1.95-1.66-2.23-1.52-.69-4.62.24-6.16.81-.99.37-1.91.87-2.88,1.28Z"/>
  <path d="M15.11,103.75c-.23-1.95-2.68-4.37-4.46-5.04-.57-.21-1.06-.44-1.29.28-.64,1.97-.89,4.62-1.38,6.72-.66,2.84-2.2,8.91-3.63,11.27-.24.4-.35.6-.87.49-.6-.13-2.29-2.5-2.69-3.11-1.23-1.87-.81-1.49.07-3.27,3.15-6.31,4.12-13.15,5.62-19.98-1.61-7.36-2.55-15.12-6.47-21.68-.04-.28,0-.44.11-.68.3-.77,2.46-3.58,3.14-4.06s.95.12,1.24.66c1.41,2.64,2.74,7.85,3.44,10.86.22.93,1.31,7.02,1.59,7.25.4.32,1.67-.38,2.07-.62,1.2-.7,2.73-2.27,3.22-3.58.54-1.46.35-4.94-.07-6.47-.23-.83-1.09-2.25-.93-3.03.08-.4.94-1.48,1.24-1.86.66-.86,1.63-2.05,2.39-2.81.2-.2.58-.64.89-.58.47.09.81,1.73.91,2.18,1.24,5.1,1.13,10.61-2.21,14.89-.5.64-1.36,1.3-1.74,1.86-.06.08-.14.1-.1.25,3.63.56,6.91,2.53,9.56,4.99.45.08,2.29-2.76,2.52-3.26,1.47-3.19.95-8.81.11-12.18-.26-1.03-1.16-2.95-.97-3.88.04-.18.23-.49.34-.66.4-.66,2.82-3.5,3.39-3.91s1-.42,1.54.06c.81.71,2.35,2.51,3,3.4.21.29.64.87.7,1.2.13.87-.5,2-.74,2.84-.97,3.4-1.64,8.94-.5,12.3.52,1.55,1.06,2.29,2.58,2.92,3.32,1.39,9.03.78,12.47-.17.89-.25,2.37-.98,3.24-.84.57.09,1.96,1.32,2.46,1.74.6.51,1.59,1.34,2.1,1.9.58.64.41,1.28-.14,1.85-.7.73-1.9,1.75-2.71,2.39-.39.31-1.17.99-1.62,1.08-.93.19-2.92-.73-3.96-.99-4.72-1.17-10.58-1.59-14.51,1.72-.21.18-.9.71-.84.93,2.46,2.67,4.42,5.93,4.99,9.57.74-.6,1.4-1.31,2.15-1.9,4.02-3.12,9.12-3.34,13.95-2.36.5.1,3.13.6,3.08,1.18-.09.26-.24.47-.43.67-.55.58-1.6,1.42-2.25,1.95-.47.38-2.11,1.73-2.57,1.83-.77.16-2.21-.69-3.03-.93-1.53-.43-4.48-.59-6.02-.22-1.71.41-3.56,2.33-4.33,3.87-.3.61-.82,1.47.05,1.75,2.04.65,4.75.9,6.9,1.4,3.01.71,8.1,2.04,10.77,3.43.44.23,1.06.49.84,1.07-.24.62-2.49,2.24-3.14,2.67-.53.35-1.19.98-1.84.7-6.52-3.85-14.2-4.78-21.48-6.4-7.25,1.65-15,2.5-21.44,6.43-.24.08-.47.06-.71,0-.47-.13-2.31-1.53-2.79-1.91-.55-.45-2.07-1.46-1.31-2.19.43-.41,2.13-.99,2.77-1.23,2.54-.94,5.5-1.82,8.14-2.46s5.21-.96,7.73-1.67c.3-.31.02-.91-.13-1.27-.68-1.6-2.56-3.64-4.26-4.14-1.27-.37-2.46-.24-3.75-.2-.08-.97.11-2.11,0-3.05ZM37.41,91.1c-.57-.47-1.41-.72-2.09-1.06-.54-.28-1.77-.86-2.16-1.24-.35-.34-1.05-1.69-1.31-2.19-.08-.16-.9-2.22-1.04-2.1-.84,2.4-2.2,4.58-3.78,6.55.61.54,1.09,1.69,1.61,2.22s1.68,1,2.22,1.63c1.95-1.61,4.16-2.96,6.55-3.79ZM13.69,88.63c-1.08.12-2.46,1.22-2.58,2.33-.09.85,1.26,2.22,2.09,2.4,2.57.53,6.35-1.11,8.6-2.31,0-.13-1.94-.99-2.2-1.1-1.57-.64-4.25-1.51-5.92-1.33ZM23.51,106.7c.57-3.7,2.6-6.88,5-9.65-.42-.68-1.41-1.12-1.95-1.65-.31-.3-1.36-2-1.7-2-2.8,2.4-5.94,4.41-9.65,5,1.32,1.47,2.73,2.92,3.45,4.8,1.88.78,3.37,2.15,4.85,3.5ZM30.86,100.1c-.99,1.77-1.86,3.87-2.22,5.88-.31,1.75-.47,3.44,1.3,4.44.9.51,1.17.45,2.02-.11,1.44-.96,1.44-2.25,1.22-3.83-.3-2.16-1.26-4.48-2.32-6.38Z"/>
  <path d="M75.21,46.7c-.11-.11-1.8.2-2.08.27-.89.22-2.58,1.17-3.34,1.01-.41-.08-1.53-.98-1.92-1.28-.84-.65-2.01-1.61-2.75-2.35-1.18-1.18-.29-1.29.88-1.62,3.6-1.01,7.9-1.33,11.5-.15,1.15.38,1.29.32,1.73,1.47,1.32,3.5,1.02,7.76.13,11.33-.12.47-.39,1.92-.9,2-.08.02-.15,0-.23-.02-.3-.09-1.64-1.7-1.95-2.06-.52-.61-2.17-2.55-2.3-3.2-.16-.77.81-2.47,1.03-3.38.16-.66.26-1.34.23-2.02Z"/>
  <path d="M46.71,46.7c-.04.9.13,1.8.4,2.65.24.77,1.01,1.99.86,2.75-.13.69-2.41,3.34-3.01,4-1.74,1.92-1.79,1.69-2.4-.8-.85-3.45-1.23-8.4.3-11.7.35-.76,1.1-.9,1.87-1.13,3.52-1.03,7.62-.74,11.12.23.72.2,2.04.41,1.26,1.35-.35.43-1.38,1.24-1.86,1.64-.54.46-2.58,2.17-3.12,2.28-.83.17-2.41-.78-3.34-1.01-.28-.07-1.97-.38-2.08-.27Z"/>
  <path d="M46.71,75.2c.68.03,1.36-.07,2.02-.23.91-.21,2.62-1.2,3.39-1.03.72.16,3.41,2.49,4.09,3.11.33.3,1.58,1.22,1.03,1.66-.6.47-3.8,1.06-4.69,1.18-3.19.44-6.57.27-9.51-1.11-1.66-3.99-1.51-8.78-.3-12.9.11-.36.3-1.24.67-1.34.27-.04.56.18.76.36.88.82,2.43,2.76,3.13,3.77.34.5.8,1.01.7,1.66-.13.81-.83,1.91-1.05,2.86-.15.66-.26,1.34-.23,2.02Z"/>
  <path d="M64.85,77.83c.67-.77,2.41-2.12,3.28-2.77.43-.32,1.38-1.09,1.87-1.14.58-.07,2.28.84,3.02,1.03s1.46.29,2.2.25c.03-.98-.19-1.93-.5-2.85-.25-.77-.97-1.84-.73-2.63.13-.44,1.1-1.64,1.44-2.06.58-.73,1.71-2.16,2.36-2.74,1.22-1.09,1.5,1.33,1.69,2.19.87,3.87,1.04,8.08-.65,11.75-3.42,1.54-7.27,1.5-10.9.8-.63-.12-2.8-.55-3.19-.91-.33-.3-.12-.63.13-.91Z"/>
  <path d="M109.49,15.63c3.2-.41,3.55,4.41.46,4.57-2.87.15-3.16-4.22-.46-4.57Z"/>
  <path d="M11.79,15.63c3.14-.42,3.43,4.59.27,4.57-2.75-.01-3.11-4.19-.27-4.57Z"/>
  <path d="M77.68,9.82c3.32-.51,3.7,5-.11,4.47-2.38-.33-2.35-4.09.11-4.47Z"/>
  <path d="M43.49,9.83c3.35-.46,3.65,4.99-.12,4.46-2.4-.33-2.33-4.13.12-4.46Z"/>
  <path d="M109.38,75.82c3.25-.55,3.74,4.48.48,4.52-2.86.03-2.98-4.09-.48-4.52Z"/>
  <path d="M77.68,107.62c3.16-.48,3.42,4.03.95,4.45-3.31.57-3.82-4.02-.95-4.45Z"/>
  <path d="M109.29,101.82c1.64-.28,3.04.92,2.8,2.6-.27,1.9-2.93,2.62-4.06,1.01-.88-1.24-.32-3.34,1.26-3.61Z"/>
  <path d="M11.49,101.82c3.83-.65,3.6,4.99.2,4.45-2.47-.39-2.44-4.07-.2-4.45Z"/>
  <path d="M11.69,41.63c3.14-.45,3.45,4.03.95,4.45-3.35.57-3.77-4.05-.95-4.45Z"/>
  <path d="M43.39,107.63c3.32-.48,3.61,4.05.85,4.45-3.04.43-3.6-4.05-.85-4.45Z"/>
  <path d="M17.38,107.62c3.64-.62,3.59,4.95.1,4.45-2.39-.34-2.55-4.03-.1-4.45Z"/>
  <path d="M11.58,75.82c3.56-.6,3.66,4.96.08,4.47-2.41-.33-2.46-4.06-.08-4.47Z"/>
  <path d="M17.59,9.83c3.26-.4,3.54,4.99-.22,4.47-2.37-.33-2.36-4.15.22-4.47Z"/>
  <path d="M103.69,107.63c1.9-.25,3.34,1.74,2.31,3.41-.27.44-.94.95-1.46,1.04-3.22.55-3.76-4.06-.85-4.45Z"/>
  <path d="M109.39,41.62c2.45-.39,3.8,2.67,1.72,4.12-1,.7-2.52.44-3.16-.63-.79-1.32-.18-3.23,1.44-3.49Z"/>
  <path d="M81.59,41.63c3.15-.45,3.41,4.03.95,4.45-3.39.57-3.72-4.06-.95-4.45Z"/>
  <path d="M43.49,37.73c3.46-.44,3.48,4.92-.02,4.46-2.49-.32-2.53-4.14.02-4.46Z"/>
  <path d="M39.48,41.62c1.98-.34,3.38,1.66,2.41,3.41-.78,1.42-3.01,1.48-3.85.08-.79-1.32-.15-3.22,1.44-3.49Z"/>
  <path d="M77.89,79.72c3.17-.23,3.37,4.9-.22,4.47-2.61-.31-2.45-4.28.22-4.47Z"/>
  <path d="M77.68,19.62c3.02-.46,3.64,4.09.77,4.47-3.2.42-3.54-4.05-.77-4.47Z"/>
  <path d="M81.59,75.83c3.44-.49,3.5,5.03-.02,4.47-2.54-.4-2.37-4.13.02-4.47Z"/>
  <path d="M99.69,75.83c2.96-.4,3.6,3.84.95,4.45-3.27.74-3.77-4.06-.95-4.45Z"/>
  <path d="M43.49,79.73c3.08-.42,3.62,4.13.66,4.46s-3.44-4.08-.66-4.46Z"/>
  <path d="M21.38,41.62c3.45-.59,3.72,4.99-.01,4.47-2.28-.32-2.38-4.06.01-4.47Z"/>
  <path d="M77.79,37.73c3.02-.37,3.44,4.08.67,4.46-3.11.43-3.67-4.09-.67-4.46Z"/>
  <path d="M103.69,9.83c3.02-.39,3.6,4.09.77,4.47-3.33.44-3.44-4.12-.77-4.47Z"/>
  <path d="M43.49,97.83c3.12-.43,3.56,4.14.66,4.46-3.07.34-3.49-4.07-.66-4.46Z"/>
  <path d="M77.89,97.82c3.22-.23,3.33,4.98-.32,4.47-2.41-.34-2.38-4.28.32-4.47Z"/>
  <path d="M39.39,75.82c1.36-.23,2.63.55,2.8,1.95.23,1.84-1.73,3.16-3.37,2.27-1.75-.95-1.31-3.9.57-4.22Z"/>
  <path d="M21.39,75.82c3.54-.56,3.61,4.93.08,4.47-2.47-.32-2.44-4.09-.08-4.47Z"/>
  <path d="M43.49,19.63c3.1-.4,3.62,4.13.66,4.46-3.16.35-3.37-4.12-.66-4.46Z"/>
  <path d="M99.58,41.62c3.47-.59,3.75,4.99-.01,4.47-2.3-.32-2.31-4.07.01-4.47Z"/>
  <path d="M60.48,84.52c1.98-.34,3.46,1.89,2.33,3.53-1.78,2.56-5.35-.2-3.64-2.64.28-.4.84-.8,1.32-.88Z"/>
  <path d="M60.48,93.02c3.26-.56,3.62,4.43.55,4.55-2.68.11-3.12-4.11-.55-4.55Z"/>
  <path d="M60.38,32.92c2.54-.52,3.82,2.72,1.82,4.12s-4.46-1.07-3.08-3.18c.23-.35.84-.86,1.26-.94Z"/>
  <path d="M60.48,24.42c2.47-.42,3.7,2.73,1.72,4.12-1.73,1.21-3.92-.5-3.39-2.49.2-.74.89-1.5,1.67-1.63Z"/>
  <path d="M94.69,58.82c3.76-.64,3.62,4.65.38,4.38-2.59-.22-2.73-3.98-.38-4.38Z"/>
  <path d="M86.19,58.82c3.75-.64,3.64,4.65.38,4.38-2.59-.22-2.71-3.98-.38-4.38Z"/>
  <path d="M26.08,58.82c3.66-.62,3.66,4.48.49,4.37-2.66-.09-2.91-3.96-.49-4.37Z"/>
  <path d="M34.58,58.82c3.71-.63,3.63,4.59.39,4.37-2.56-.18-2.79-3.96-.39-4.37Z"/>
</svg>