<?xml version="1.0" encoding="UTF-8"?>
<svg id="Layer_1" data-name="Layer 1" xmlns="http://www.w3.org/2000/svg" viewBox="0 0 118.4 118.4">
  <path d="M17.1,118.4c-1.09-.44-2.06-1.15-3.03-1.82-1.45-.99-3.26-2.28-4.52-3.48-2.24-2.14-1.22-2.67,1.08-3.72,2.91-1.33,6.32-2.35,9.39-3.31,7.94-2.47,15.9-4.16,24.06-5.74,1.36-.53.38-2.3-.06-3.2-1.48-2.98-4.66-6.39-7.9-7.4-2.89-.9-8.8-.61-11.74.2-1.57.43-3.87,1.78-5.26,1.95-1.09.13-3.04-1.47-3.91-2.14-1.92-1.46-4.16-3.34-5.91-4.99-.49-.46-1.32-1.17-.9-1.91.3-.53,2.66-1.11,3.32-1.28,10.19-2.59,21.27-2.47,29.73,4.43,1.25,1.02,2.36,2.21,3.55,3.3,1.07-7.12,4.95-13.39,9.68-18.65-1.82-1.85-4.08-3.64-6.45-4.73-6.58-3.04-18.66-1.62-25.49.48-1.99.61-4.02,1.96-6.04.84-1.61-.89-6.62-5.24-7.81-6.69s-.66-2.34.45-3.45c1.44-1.45,6.16-5.77,7.83-6.47s4.57.8,6.32,1.32c6.53,1.94,18.18,3.14,24.47.37,1.89-.83,2.75-1.32,3.75-3.15,3.44-6.29,2.29-18.02.45-24.79-.48-1.76-2.03-5.06-1.75-6.7.19-1.12,2.86-4.09,3.72-5.08.73-.84,3.13-3.67,3.92-4.08.96-.51,1.9-.17,2.64.53,1.66,1.57,3.98,4.28,5.39,6.11,1.06,1.38,1.84,2.22,1.47,4.07-.33,1.64-1.21,3.45-1.66,5.14-1.68,6.2-2.7,16.64-.51,22.69,1.04,2.87,3.07,5.47,5.17,7.64.21.04,1.51-1.26,1.79-1.49,4.91-4.04,10.57-7.21,16.95-8.2-4.55-4.21-7.67-9.31-8.77-15.48s-.44-14.13,1.56-19.77c.52-1.45,1.06-2.02,2.36-.75,1.62,1.59,3.68,4.19,5.09,6.01.83,1.08,2.56,3.02,2.23,4.41-.38,1.62-1.38,3.27-1.84,4.96-.78,2.82-1.09,8.32-.4,11.14.91,3.71,4.87,7.44,8.33,8.87.93.38,2.02.87,2.49-.39,1.5-7.92,3.15-15.67,5.52-23.38.99-3.21,2.02-6.66,3.38-9.72.72-1.63,1.38-3.67,3.35-1.86,1.46,1.35,4.26,5.19,5.24,6.96.29.52.61,1.08.41,1.69-7.5,12.53-9.23,27.34-12.42,41.36,2.94,13.15,4.66,26.9,11.01,38.94.51.97,1.17,1.86,1.55,2.9v.1c-.34,1.05-1.01,1.93-1.62,2.83-1.04,1.54-2.41,3.48-3.68,4.82-.89.93-1.85,1.98-2.89.58-.88-1.19-1.79-3.91-2.32-5.38-3.45-9.59-5.64-19.55-7.55-29.55-.45-1.73-2.93-.26-3.92.28-2.46,1.36-5.21,3.95-6.35,6.55s-.95,5.42-.78,8.17c-2.43-.08-4.86-.31-7.22.43-3.23,1.01-6.47,4.48-7.93,7.47-.4.81-1.3,2.52-.18,3.08,10.2,2.02,20.37,4.19,30.15,7.75,1.23.45,4.7,1.66,5.48,2.52.31.34.38.6.25,1.06-.33,1.18-4.55,4.18-5.72,4.98-.97.66-1.94,1.37-3.03,1.82h-.3c-1.38-.62-2.65-1.47-4-2.15-11.57-5.89-25.18-7.54-37.75-10.36-12.54,2.85-26.1,4.47-37.65,10.36-1.35.69-2.62,1.53-4,2.15h-.3ZM46.4,59.1c4.58,1.78,8.88,4.26,12.66,7.39l4.28-3.09,3.12-4.25c-3.1-3.85-5.62-8.14-7.42-12.75-.66,1.46-1.27,2.97-2,4.4-.42.83-1.74,3.41-2.29,3.96-.71.72-2.51,1.33-3.36,1.99l-5,2.35ZM76.4,59c-.04.18.05.2.17.28.93.71,3.81,1.83,5.01,2.29,4.51,1.72,12.87,4.6,15.17-1.58.4-1.07.18-1.56-.37-2.53-2.07-3.65-5.56-3.27-9.18-2.52s-7.34,2.38-10.8,4.05ZM89.3,73.2c-7.1-1.02-13.46-4.91-18.65-9.7-.58.56-1.13,1.13-1.65,1.75s-1.15,1.75-1.64,2.21-1.5,1.03-2.11,1.54-1.19,1.06-1.73,1.65c4.74,5.27,8.61,11.52,9.68,18.65,2.72-2.71,5.66-5.28,9.25-6.8,1.56-3.59,4.1-6.57,6.85-9.3ZM59.2,76.4c-.23-.05-.16.03-.22.13-1.56,2.41-3.26,7.27-3.91,10.09-.86,3.74-1.43,7.84,2.56,9.9.21.11,1.27.54,1.43.55.51.03,2.15-.92,2.58-1.27,2.31-1.88,2.28-4.06,1.94-6.83-.53-4.35-2.52-8.65-4.39-12.56Z"/>
  <path d="M35.68,35.68c-2.16.92-4.42,1.62-6.76,1.99-5.72.91-13.61.27-19.1-1.64-1.58-.55-2.14-1.05-.77-2.43,1.87-1.9,5.12-4.56,7.32-6.08.93-.64,1.88-1.46,3.05-1.19,1.37.32,2.81,1.17,4.18,1.62,1.67.54,3.43.83,5.2.85-.06-1.79-.35-3.55-.9-5.25-.41-1.27-1.53-3.22-1.68-4.43-.11-.92.8-2.04,1.3-2.75,1.55-2.23,4.07-5.29,5.98-7.22.44-.45,1.27-1.27,1.9-.6.57.61,1.12,3.16,1.33,4.07,1.77,7.66,2.14,15.72-1.06,23.06Z"/>
  <path d="M33.48,90.93c4.69-.57,6.86,4.9,3.32,7.72-2.02,1.61-4.94.9-6.3-1.2-1.66-2.55-.04-6.16,2.98-6.52Z"/>
  <path d="M94.28,29.93c4.6-.62,7.13,4.84,3.57,7.67-2.21,1.76-5.77.96-6.73-1.77-.84-2.39.5-5.54,3.15-5.9Z"/>
  <path d="M33.68,37.43c6.28-.69,6.47,9.02.18,8.56-5.31-.39-5.31-8-.18-8.56Z"/>
  <path d="M33.88,72.13c6.18-.46,6.14,9.12-.13,8.57-5.15-.45-5.27-8.17.13-8.57Z"/>
  <path d="M75.58,29.93c6.16-.83,6.72,7.86,1.65,8.55-6.33.86-6.6-7.88-1.65-8.55Z"/>
  <path d="M40.88,29.93c6.71-.91,6.8,9.47,0,8.55-4.63-.62-4.56-7.93,0-8.55Z"/>
  <path d="M71.3,0c1.1,3.46-2.11,6.53-5.55,5.4-2.12-.69-3.63-3.31-2.6-5.4h8.15Z"/>
  <path d="M55,0c1.1,3.46-2.02,6.43-5.48,5.43-2.22-.65-3.6-3.26-2.67-5.43h8.15Z"/>
  <path d="M0,46.8c3.78-1.22,6.93,2.75,5.08,6.23-.92,1.74-3.25,2.84-5.08,1.92v-8.15Z"/>
  <path d="M0,63.15c2.95-1.11,5.81,1.31,5.6,4.4-.18,2.77-2.98,4.74-5.6,3.7v-8.1Z"/>
  <path d="M94.48,79.73c5.69-.69,6.82,7.29,1.73,8.53-6.03,1.46-7.33-7.85-1.73-8.53Z"/>
  <path d="M83.28,90.93c4.65-.56,6.94,4.83,3.32,7.72-1.82,1.45-4.52,1.03-5.95-.75-2.05-2.55-.68-6.57,2.63-6.97Z"/>
</svg>