<?xml version="1.0" encoding="UTF-8"?>
<svg id="Layer_1" data-name="Layer 1" xmlns="http://www.w3.org/2000/svg" viewBox="0 0 123.84 123.8">
  <path fill="#FFFFFF" d="M34.94,0c.11.13.33.19.38.37.18.58-.89,2.82-1.2,3.47-.96,2.05-2.24,4.36-3.41,6.29-1.08,1.79-3.19,4.29-3.96,6.03-.33.74.16.87.76,1.11,3.97,1.61,7.38-.59,9.38-3.97.4-.67.99-2.57,1.51-2.89.61-.37,2.7-.55,3.49-.61.7-.06,1.96-.19,2.6-.11.42.05.48.24.43.63-.11.74-1.99,3.36-2.54,4.07-2.98,3.8-7.16,6.34-12.14,6.01.32.72.84,1.36,1.19,2.06,1.17,2.39,1.66,5.09,1.81,7.74,1.29-.08,2.6-.18,3.83-.62,2.99-1.09,6.51-5.3,8.09-8.01.4-.69,1.3-2.85,1.85-3.15.27-.15.88-.25,1.2-.3.77-.12,1.9-.19,2.68-.22,1.01-.03,2.54-.29,2.66,1.06.04.51-.06,1.72-.1,2.3-.04.68-.1,1.63-.22,2.28-.32,1.61-1.43,1.58-2.64,2.26-2.99,1.68-7.32,5.02-8.65,8.25-.53,1.3-.72,2.77-.68,4.17,3.43.04,6.91,1,9.7,3,0-1.55.12-3.11.55-4.6,1.14-3.98,4.41-7.13,7.86-9.24.62-.38,2.39-1.74,2.39-.21,0,1.3-.24,3.91-.55,5.15-.32,1.31-.97,1.1-1.99,1.61-1.54.76-2.78,1.64-3.86,2.98.43,0,.78.37,1.17.48.88.24,1.52.12,2.09,1.11l3.29,1.78c.98-.63,2.36-1.12,3.28-1.78.35-.25.57-.63.96-.84.51-.28.83-.17,1.31-.29.31-.08.64-.42,1-.45.09-.13-.48-.63-.6-.75-.79-.75-1.79-1.55-2.77-2.03-.61-.3-1.95-.64-2.28-1.22-.23-.41-.4-1.9-.46-2.44-.09-.79-.18-1.81-.2-2.6,0-.33-.06-1.14.15-1.36.05-.07.12-.09.2-.1.66-.08,3.85,2.18,4.5,2.71,3.71,2.99,6.21,7.17,5.85,12.1,2.84-1.99,6.34-2.97,9.8-3-.05-1.29-.18-2.71-.62-3.93-1.15-3.14-5.55-6.66-8.41-8.29-.7-.4-2.4-1-2.75-1.65-.26-.48-.36-1.71-.41-2.29-.08-.91-.19-2.32-.11-3.2.12-1.28,1.67-.98,2.66-.95.47.02,1.13.06,1.59.11.55.05,1.74.17,2.19.41.64.35,1.5,2.5,1.95,3.25,1.62,2.74,5.14,6.96,8.22,7.98,1.16.38,2.48.48,3.7.55.03-3.47,1.02-6.96,3-9.8-4.89.34-9-2.08-12-5.75-.57-.7-2.77-3.77-2.8-4.51-.02-.59,1.11-.46,1.55-.44,1.02.03,2.37.16,3.38.32,1.06.16,1.67.1,2.18,1.12,1.1,2.19,1.6,3.46,3.53,5.16s4.96,1.94,7.15.85c.57-.28.69-.47.42-1.02-1.04-2.08-3.04-4.47-4.3-6.6s-3.35-5.71-4.1-8.1c-.19-.59-.47-1.13.28-1.43h1.3l3.73.72.22.18c.76,2.64,1.72,5.15,3.03,7.57,2.08,3.83,4.73,7.45,7.07,11.13,5.96,3.74,11.65,8.24,18.61,9.99.6.48.67,3.49.95,4.3v.8c-.15.3-.2.68-.63.67-.47,0-1.9-.66-2.41-.89-4.68-2.08-9.03-4.99-13.27-7.83-.67-.28-.93.6-1.1,1.09-.5,1.49-.58,3.52.03,4.98.56,1.35,2.84,3.45,4.11,4.19.6.35,2.46.97,2.75,1.35.42.54.65,3.29.71,4.09.03.48.18,1.99.03,2.32-.29.65-1.44-.15-1.86-.39-5.05-2.93-9.3-7.87-8.77-14.08-.76.36-1.44.89-2.2,1.25-2.32,1.12-5.04,1.64-7.6,1.75,0,1.29.16,2.71.62,3.93,1.27,3.35,5.75,6.77,8.81,8.49.65.37,1.92.71,2.31,1.39.19.33.31,1.14.36,1.54.11.86.18,2.03.21,2.89.04,1.68-.08,2.1-1.86,2.06-.91-.02-2.09-.1-2.99-.2-.43-.05-1.28-.15-1.64-.36-.6-.34-1.46-2.48-1.89-3.21-1.49-2.51-4.7-6.4-7.35-7.65-1.38-.65-3.05-.9-4.57-.88-.1,3.45-1.04,6.89-3,9.75,2.94-.12,5.72.57,8.17,2.23,2.33,1.57,5.03,4.7,6.28,7.22.45.9.55,1.36-.71,1.31-1.11-.04-2.48-.17-3.58-.32-.49-.07-1.49-.18-1.9-.4-.58-.32-.71-1.18-.98-1.72-.78-1.56-1.66-2.82-2.98-3.96-.04.36-.36.68-.45,1-.28.98-.17,1.71-1.23,2.37l-1.71,3.18c0,.18,1.5,2.9,1.71,3.19.25.35.72.64.9,1,.36.69.22,1.74.83,2.37.92-.91,1.88-1.86,2.5-3,.51-.94.73-2.49,1.81-2.79s3.21-.48,4.38-.52c.49-.02,1.75-.19,1.73.44-.03.76-2.38,3.99-2.98,4.71-2.95,3.57-7.05,5.83-11.8,5.55,1.95,2.88,2.93,6.32,3,9.8,1.29-.11,2.6-.19,3.83-.62,3.07-1.08,6.7-5.53,8.29-8.31.8-1.41.85-2.81,2.66-3.14,1.07-.19,3.62-.35,4.68-.23,1,.12.87,1.21.85,1.96-.02.87-.1,2.03-.2,2.9-.06.5-.14,1.27-.42,1.68-.37.56-2.33,1.33-3.05,1.75-2.77,1.61-7.14,5.26-8.14,8.36-.35,1.09-.51,2.39-.49,3.54,1.14.16,2.28.22,3.41.44,2.3.45,4.46,1.35,6.38,2.67-.51-6.09,3.41-10.85,8.31-13.84.44-.27,1.47-.97,1.95-.97.52,0,.46.66.45,1.06-.03,1.09-.17,2.49-.32,3.58-.07.48-.18,1.51-.4,1.9-.29.52-1.31.72-1.82.98-3.83,1.92-6.63,4.99-5.19,9.56.18.56.43,1.5,1.2,1.15,4.27-2.84,8.58-5.72,13.29-7.81.75-.33,2.68-1.45,2.94-.21v.8l-.72,4.03-.28.32c-6.9,1.84-12.66,6.22-18.55,10.05-3.85,5.92-8.32,11.71-10.07,18.68l-.6.25-4.18.67h-.1c-.97-.2-1.01-.4-.75-1.3.44-1.5,1.55-3.49,2.29-4.91,1.84-3.53,4.03-6.84,6.28-10.13.39-.97-2.15-1.4-2.79-1.46-3.17-.29-5,1.14-6.84,3.54-.88,1.15-1.1,2.4-1.78,3.42-.44.65-1.62.72-2.38.82-1.09.15-2.6.3-3.69.32-1.44.03-.62-1.14-.23-1.84,1.76-3.14,4.77-6.44,8.11-7.89,1.94-.84,3.96-1.08,6.07-1.08-2-2.79-2.94-6.28-3-9.7-4.69-.38-8.22,3.23-10.74,6.71-1.06,1.46-1.59,2.89-2.48,4.32-.59.94-1.29.95-2.33,1.07-.97.11-2.22.17-3.19.21-1.84.06-1.6-1.11-1.56-2.56.03-.79.1-1.9.22-2.68.14-.95.18-1.36,1.02-1.88s1.83-.88,2.7-1.4c2.37-1.43,5.94-4.42,7.25-6.85.82-1.53,1.06-3.22,1.12-4.93-3.45-.15-6.9-1.04-9.75-3,.13,3.95-1.24,7.34-3.9,10.2-1.09,1.17-4.53,3.96-5.98,4.42-1.1.35-.9-.6-.88-1.38.04-1.03.16-2.36.32-3.38.07-.44.18-1.36.4-1.7.32-.5,1.76-.89,2.32-1.18,1.22-.62,2.26-1.62,3.21-2.59.1-.08-.05-.15-.12-.19-1.05-.7-2.33-.29-3.01-1.52l-3.38-1.79c-.96.62-2.26,1.08-3.18,1.71-1.25.85-.47.68-2.17,1.13-.1.03-1.19.54-1.19.6,1.15,1.21,2.27,2.08,3.76,2.84,1.02.51,1.79.36,2.11,1.69s.5,3.71.53,5.08c.02.97-.5.87-1.17.56-2.47-1.12-5.78-4.06-7.31-6.29-1.7-2.48-2.39-5.22-2.32-8.23-2.86,1.94-6.25,2.86-9.7,3-.04,1.22.11,2.49.5,3.65,1.04,3.15,5.41,6.74,8.24,8.36.71.41,2.6,1.14,2.95,1.75.26.45.36,1.35.41,1.89.11.96.21,2.34.21,3.3,0,1.02-.5,1.36-1.46,1.36-.61,0-1.47-.06-2.1-.11-.67-.05-2.42-.16-2.94-.46-.7-.4-1.36-2.25-1.79-3.01-1.57-2.75-5.18-7.11-8.22-8.18-1.18-.42-2.55-.58-3.8-.55-.18,3.45-1.03,6.83-3,9.7,1.5.02,2.98.13,4.42.53,4.02,1.12,7.33,4.48,9.42,7.98.23.38,1.17,1.79.76,2.14-.2.09-.42.16-.65.16-1.26,0-4.15-.24-5.31-.59-.73-.22-.7-.34-1.02-.98-.63-1.26-.88-2.13-1.82-3.28-1.86-2.27-3.45-3.51-6.55-3.25-.58.05-2.76.49-2.86,1.15l.06.34c2.23,3.32,4.45,6.65,6.3,10.2.54,1.03,2.33,4.39,2.35,5.35.02.73-.29.51-.81.75-.07,0-.13,0-.2,0-.02,0-.08-.09-.16-.09-.78-.06-4.12-.33-4.55-.85-.22-.27-.81-2.59-1.02-3.18-2.03-5.55-5.96-10.55-9.08-15.52-5.19-3.27-10.29-7.21-16.14-9.26-.56-.2-2.09-.49-2.45-.75-.24-.17-.26-.41-.33-.67-.27-.94-.74-3.73-.55-4.61.04-.16.15-.32.28-.42.41-.2,1.55.33,2,.5,4.89,1.94,9.5,5.27,13.91,8.09.74.33,1-.59,1.17-1.12.44-1.38.51-3.38,0-4.75-.55-1.5-3.01-3.72-4.41-4.49-.52-.28-2.31-.89-2.56-1.24-.22-.31-.33-1.2-.4-1.6-.16-.98-.28-2.19-.32-3.18-.08-1.77-.22-2.33,1.63-1.33,2.41,1.29,5.2,3.7,6.75,5.95,1.71,2.48,2.43,5.32,2.32,8.33,2.83-2.08,6.33-2.88,9.8-3.1-.19-.45-.06-.95-.11-1.44-.5-4.65-5.07-8.51-8.92-10.68-1.4-.79-2.74-.83-3.06-2.64-.19-1.08-.33-3.28-.3-4.38.01-.43.33-.92.75-1.06.3-.1,1.78-.03,2.19,0,.45.02,1.05.06,1.49.11.56.05,1.62.14,2.09.41.67.39,1.33,2.22,1.75,2.95,1.55,2.73,5.04,6.94,7.99,8.11,1.31.52,2.64.61,4.03.72.22-3.47,1.01-6.98,3.1-9.8-3.69.2-7.06-1.04-9.8-3.45-1.4-1.24-4.38-4.75-4.92-6.48-.33-1.07.96-.8,1.68-.78.99.03,2.3.17,3.28.32.4.06,1.12.15,1.46.34.56.32.84,1.51,1.12,2.08.58,1.18,1.28,2.07,2.18,3.02.11.12.57.64.7.55.02-.42.39-.81.48-1.17.22-.91.12-1.49,1.11-2.09l1.78-3.29c-.65-.91-1.07-2.19-1.68-3.08-.25-.37-.68-.61-.9-1-.32-.54-.19-.87-.33-1.37-.08-.31-.42-.64-.45-1-.15-.04-.17.04-.25.1-1.15.79-2.23,2.63-2.83,3.87-.47.95-.28,1.5-1.49,1.81s-3.63.5-4.97.53c-1.7.05-.7-1.25-.19-2.1,2.57-4.34,6.55-8.1,11.79-8.61.69-.07,1.58-.09,2.25,0-2.05-2.86-2.89-6.31-3.1-9.79-1.26-.02-2.66.16-3.85.59-3.24,1.19-6.68,5.6-8.37,8.53-.37.64-.91,2.17-1.47,2.53-.4.26-1.18.37-1.67.43-.89.11-3.18.31-3.99.19-.6-.08-.93-.56-.95-1.15-.03-1.13.14-3.8.42-4.86.31-1.17,1.85-1.5,2.84-2.06,2.86-1.64,7.2-5.07,8.41-8.19.52-1.33.59-2.63.72-4.03-3.48-.1-6.91-1.04-9.8-3,.06,2.1-.25,4.14-1.08,6.07-1.42,3.29-4.5,6.07-7.53,7.87-.63.38-2.13,1.51-2.15.13s.2-3.8.49-5.09c.19-.82.23-.92.98-1.32,1.2-.63,2.04-.8,3.19-1.71,2.8-2.22,4.22-4.5,3.1-8.2-.16-.54-.44-1.63-1.17-1.27-4.12,2.75-8.27,5.53-12.79,7.61-.63.29-2.22,1.05-2.82,1.06-.83.01-.65-1.18-.61-1.79s.51-3.63.82-3.93c6.98-1.82,12.8-6.25,18.73-10.12,3.82-5.92,8.25-11.69,10.04-18.63.13-.17.52-.25.72-.31.94-.27,2.21-.49,3.18-.57h1.4ZM29.74,29.7c-.63-1.99-1.5-4.11-2.76-5.79-.97-1.29-1.72-1.98-3.47-1.69-1.32.22-1.58,1.88-1.19,2.95.61,1.69,4.17,3.38,5.8,4,.21.08,1.56.59,1.62.52ZM94.14,29.7c1.97-.61,4.07-1.49,5.73-2.72,1.23-.91,2.01-1.73,1.72-3.39-.15-.86-.55-1.27-1.41-1.39-1.62-.21-2.36.39-3.28,1.6-1.25,1.64-2.21,3.91-2.76,5.89ZM31.34,40c2.19-.83,4.44-1.55,6.8-1.74.19-.12.26-1.34.33-1.67.35-1.82.88-3.56,1.57-5.28-2.18.97-4.51,1.6-6.9,1.8-.22,2.38-.86,4.71-1.8,6.9ZM92.44,40c-.84-2.19-1.55-4.45-1.74-6.81-2.37-.32-4.63-.96-6.86-1.79.87,2.21,1.45,4.5,1.79,6.86,2.36.17,4.62.89,6.81,1.74ZM41.64,41.7c.8,2.13,1.88,5.1,3.55,6.7,1.04,1,3.39,1.27,3.9-.31.7-2.15-1.02-3.4-2.62-4.38-.58-.35-4.49-2.28-4.83-2.02ZM82.14,41.7c-.26-.23-3.79,1.46-4.3,1.75-1.76.99-3.57,2.07-3.17,4.38.15.91.68,1.23,1.55,1.35,2.12.29,3.28-1.67,4.18-3.27.74-1.32,1.32-2.75,1.75-4.2ZM57.44,43.1l-3.8-1.2c.09.62.44,2.68,1.1,2.86.36.1,2.28-1.38,2.7-1.66ZM70.14,41.9l-3.7,1.25c0,.14,2.13,1.49,2.33,1.57.1.04.17.1.3.06.61-.16,1.11-2.28,1.07-2.89ZM72.01,71.97c2.13-3.37,4.45-6.63,6.39-10.12-2-3.44-4.22-6.73-6.42-10.05-3.32-2.2-6.62-4.45-10.1-6.4-3.47,1.99-6.78,4.23-10.12,6.43l-6.32,10.02c1.94,3.51,4.21,6.82,6.44,10.15l10,6.36,10.12-6.4ZM43.24,57.4c.18-.67,1.66-2.12,1.48-2.73s-2.21-.93-2.78-1.07l.8,2.75.5,1.05ZM81.94,53.6c-.58.11-2.72.46-2.89,1.07-.08.28,1.34,2.53,1.54,2.63.17.08.16-.12.19-.2.5-1.1.77-2.35,1.16-3.5ZM41.94,70.1c.54-.01,2.63-.47,2.78-.97.06-.18.03-.35-.04-.53-.23-.61-1.18-1.56-1.5-2.2-.2,0-1.2,3.29-1.25,3.7ZM80.74,66.4c-.23-.06-.16.05-.23.13-.25.32-1.28,1.8-1.4,2.1-.08.2-.09.27-.04.48.14.51,2.31,1,2.86.99l-1.2-3.7ZM41.64,82.1c2.04-.62,4.23-1.51,5.93-2.82,1.26-.97,2-1.9,1.52-3.58-.19-.68-.43-.9-1.13-1.07-1.35-.33-2.25.14-3.13,1.12-1.52,1.71-2.45,4.21-3.2,6.35ZM82.14,82.1c-.51-1.81-1.31-3.73-2.36-5.29-.97-1.45-2.02-2.67-3.95-2.16-1.19.31-1.31,1.42-1.19,2.51.19,1.7,3.6,3.44,5.03,4.07.8.35,1.63.64,2.47.88ZM57.34,80.7c.04-.18-.06-.19-.17-.28-.28-.24-1.67-1.19-1.98-1.32-.18-.08-.27-.14-.49-.08-.61.18-1.03,2.28-1.07,2.88l3.7-1.2ZM70.14,81.8c.03-.53-.49-2.64-.97-2.78-.6-.18-2.07,1.31-2.73,1.49-.16.18.53.36.65.4.36.13,2.94,1.01,3.05.9ZM90.73,90.59c.08-2.4.94-4.65,1.71-6.89-2.18.97-4.51,1.6-6.9,1.8-.11,2.4-.93,4.66-1.7,6.9,2.19-.94,4.51-1.54,6.89-1.81ZM38.23,85.51c-2.35-.21-4.59-.92-6.79-1.71.79,2.2,1.49,4.43,1.72,6.78,2.37.31,4.67.92,6.88,1.82-.94-2.2-1.53-4.51-1.81-6.89ZM29.74,94c-2.13.75-4.64,1.67-6.35,3.2-1.05.93-1.51,1.86-1.08,3.28.2.67.45.82,1.11.99,1.67.44,2.55-.29,3.5-1.54,1.3-1.7,2.18-3.91,2.82-5.93ZM94.14,94.1c.56,1.95,1.44,4.06,2.66,5.69.97,1.3,1.99,2.22,3.74,1.66,1.03-.33,1.21-1.41,1.09-2.39-.17-1.4-2.04-2.57-3.19-3.21-.5-.28-4.06-1.98-4.3-1.75Z"/>
  <path fill="#FFFFFF" d="M14.32,29.73c2.53-.35,3.5,3.06,1.22,4.02-3.05,1.29-4.17-3.61-1.22-4.02Z"/>
  <path fill="#FFFFFF" d="M14.22,89.82c2.21-.38,3.64,2.47,1.72,3.82-1.32.92-3.13.17-3.35-1.44-.14-1.02.57-2.2,1.63-2.38Z"/>
  <path fill="#FFFFFF" d="M32.72,48.12c1.95-.33,3.31,1.93,1.98,3.48-1.55,1.81-4.47.08-3.55-2.15.24-.59.94-1.22,1.58-1.32Z"/>
  <path fill="#FFFFFF" d="M32.62,71.42c2.21-.38,3.6,2.37,1.77,3.77s-4.25-.69-3.15-2.75c.24-.45.87-.93,1.38-1.02Z"/>
  <path fill="#FFFFFF" d="M20.92,83.32c2.75-.27,3.24,4.12.37,4.28s-3.07-4.01-.37-4.28Z"/>
  <path fill="#FFFFFF" d="M20.62,36.22c2.24-.41,3.55,2.06,1.98,3.58-1.47,1.43-3.81.16-3.55-1.85.09-.7.86-1.6,1.56-1.74Z"/>
  <path fill="#FFFFFF" d="M12.52,68.92c3.47-.59,3.33,4.55.18,4.17-2.38-.29-2.3-3.81-.18-4.17Z"/>
  <path fill="#FFFFFF" d="M12.91,50.64c2.78-.08,2.97,4.2.18,4.27s-2.94-4.18-.18-4.27Z"/>
  <path fill="#FFFFFF" d="M18.12,63.32c.97-.17,1.78.11,2.31.94,1.25,1.96-1.37,4.29-3.22,2.72-1.24-1.06-.7-3.39.91-3.66Z"/>
  <path fill="#FFFFFF" d="M18.02,56.32c3.04-.62,3.72,3.73.95,4.15s-3.3-3.67-.95-4.15Z"/>
  <path fill="#FFFFFF" d="M91.92,106.92c.79-.04,1.67.54,1.99,1.25.96,2.13-1.65,4.01-3.38,2.48-1.43-1.27-.46-3.64,1.38-3.73Z"/>
  <path fill="#FFFFFF" d="M73.42,88.52c2.16-.21,3.25,2.92,1.11,4.02-3.08,1.58-4.41-3.7-1.11-4.02Z"/>
  <path fill="#FFFFFF" d="M31.72,106.92c2.72-.14,3.08,4.23.17,4.28s-2.86-4.15-.17-4.28Z"/>
  <path fill="#FFFFFF" d="M50.12,88.52c1.71-.09,2.89,1.93,1.86,3.37-1.38,1.94-4.29.52-3.8-1.8.18-.82,1.12-1.53,1.94-1.57Z"/>
  <path fill="#FFFFFF" d="M37.82,100.52c2.15-.37,3.64,2.34,1.77,3.77-1.75,1.34-4.2-.61-3.17-2.67.26-.51.81-1.01,1.39-1.11Z"/>
  <path fill="#FFFFFF" d="M85.12,100.52c2.27-.39,3.5,2.5,1.62,3.82-.9.63-2.28.46-2.94-.45-.86-1.2-.16-3.12,1.32-3.37Z"/>
  <path fill="#FFFFFF" d="M58.22,103.02c2.38-.21,3.19,3.23.98,4.08-3.15,1.22-4.07-3.81-.98-4.08Z"/>
  <path fill="#FFFFFF" d="M66.91,103.64c2.01,1.99-.89,4.92-2.91,3.06s.91-5.06,2.91-3.06Z"/>
  <path fill="#FFFFFF" d="M72.51,109.24c1.99,1.97-.88,4.96-2.91,3.06s.96-5,2.91-3.06Z"/>
  <path fill="#FFFFFF" d="M52.81,108.64c2.83,0,2.66,4.33-.11,4.26s-2.68-4.26.11-4.26Z"/>
  <path fill="#FFFFFF" d="M108.82,29.73c3.01-.41,3.24,4.14.45,4.25-2.63.1-3.1-3.88-.45-4.25Z"/>
  <path fill="#FFFFFF" d="M102.62,83.32c1.82-.09,2.86,2.11,1.62,3.53-1.59,1.81-4.39.02-3.55-2.15.28-.72,1.16-1.34,1.93-1.38Z"/>
  <path fill="#FFFFFF" d="M108.82,89.83c3.13-.44,3.36,4.65-.12,4.16-2.24-.31-2.22-3.84.12-4.16Z"/>
  <path fill="#FFFFFF" d="M102.12,36.22c2.24-.41,3.6,2.11,2.03,3.63-1.72,1.66-4.58-.66-3.29-2.69.23-.36.83-.86,1.26-.94Z"/>
  <path fill="#FFFFFF" d="M90.32,48.12c1.93-.32,3.36,2.05,2.03,3.53-1.47,1.63-4.09.28-3.68-1.98.12-.67.99-1.44,1.65-1.55Z"/>
  <path fill="#FFFFFF" d="M90.32,71.42c1.83-.31,3.22,1.63,2.21,3.21-1.22,1.92-4.28.89-3.88-1.58.11-.71.96-1.51,1.67-1.63Z"/>
  <path fill="#FFFFFF" d="M110.32,68.92c3.39-.58,3.44,4.6.2,4.15-2.29-.32-2.38-3.78-.2-4.15Z"/>
  <path fill="#FFFFFF" d="M110.81,50.64c1.58-.05,2.67,1.75,1.86,3.13-.59,1-1.86,1.44-2.89.85-1.87-1.06-1.11-3.92,1.04-3.98Z"/>
  <path fill="#FFFFFF" d="M104.62,63.32c3.38-.69,3.57,4.41.48,4.18-2.45-.18-2.59-3.75-.48-4.18Z"/>
  <path fill="#FFFFFF" d="M106.71,59.86c-1.99,1.99-4.9-1.02-3.02-2.97s5.04.94,3.02,2.97Z"/>
  <path fill="#FFFFFF" d="M31.81,12.54c2.96,0,2.75,4.39-.12,4.27-2.59-.11-2.62-4.26.12-4.27Z"/>
  <path fill="#FFFFFF" d="M38.02,19.03c1.96-.25,3.17,1.96,1.87,3.47-1.58,1.84-4.43.04-3.56-2.16.26-.65.97-1.23,1.68-1.32Z"/>
  <path fill="#FFFFFF" d="M91.99,12.56c2.83,0,2.74,4.25,0,4.25s-2.92-4.25,0-4.25Z"/>
  <path fill="#FFFFFF" d="M73.51,30.94c1.88-.04,2.99,2.37,1.52,3.7-1.38,1.26-3.57.23-3.6-1.59-.02-1.08,1.01-2.09,2.07-2.11Z"/>
  <path fill="#FFFFFF" d="M50.31,30.94c2.81-.01,2.68,4.55-.32,4.26-2.58-.25-2.39-4.25.32-4.26Z"/>
  <path fill="#FFFFFF" d="M85.12,19.02c1.09-.18,2.37.6,2.52,1.73.31,2.34-2.61,3.47-3.94,1.44-.77-1.18.05-2.94,1.42-3.17Z"/>
  <path fill="#FFFFFF" d="M52.32,10.92c3.2-.54,3.46,4.31.38,4.18-2.45-.1-2.76-3.78-.38-4.18Z"/>
  <path fill="#FFFFFF" d="M65.02,16.52c2.24-.38,3.42,2.27,1.77,3.67-1.02.87-2.48.59-3.19-.5-.75-1.15.08-2.94,1.42-3.17Z"/>
  <path fill="#FFFFFF" d="M56.88,20.06c-.85-.86-.78-2.35.16-3.12,1.09-.88,2.83-.42,3.32.88.82,2.17-1.86,3.88-3.49,2.24Z"/>
  <path fill="#FFFFFF" d="M70.62,10.92c3.03-.52,3.42,3.83.67,4.17s-3.19-3.74-.67-4.17Z"/>
</svg>