<?xml version="1.0" encoding="UTF-8"?>
<svg id="Layer_1" data-name="Layer 1" xmlns="http://www.w3.org/2000/svg" viewBox="0 0 125.8 125.73">
  <path d="M38.3,0c.7.25,3.77.4,4.15.9.21.28.77,2.53.98,3.12,2.05,5.69,6.06,10.73,9.21,15.84,3.37,2.23,6.73,4.48,10.23,6.51,3.58-1.94,6.92-4.31,10.34-6.53,3.81-6.03,8.31-11.82,10.15-18.85.21-.32.53-.34.86-.44,1.1-.3,2.27-.32,3.38-.57h1.1c.5.24.57.36.48.93-.12.75-1.02,2.54-1.39,3.31-2.08,4.32-4.73,8.33-7.41,12.29-.35.75.94,1.1,1.5,1.24,1.4.37,3.19.43,4.55-.1,1.51-.58,3.84-3.17,4.59-4.61.45-.86.67-2.32,1.66-2.64,1.13-.36,4.24-.61,5.48-.62.33,0,.83.1.81.52-.03.73-2.39,4-2.98,4.71-3.01,3.65-7.25,6.09-12.1,5.65,2.06,2.89,3.03,6.47,3.1,10,1.24-.09,2.51-.16,3.7-.55,3.38-1.11,7.03-5.72,8.76-8.74.4-.69.96-2.33,1.61-2.69.48-.26,1.71-.36,2.29-.41.89-.08,2.67-.23,3.49-.1.42.07.71.43.76.84.1.89-.02,2.47-.1,3.4-.05.58-.15,1.81-.41,2.29-.36.65-2.05,1.25-2.75,1.65-2.86,1.63-7.3,5.19-8.51,8.29-.51,1.31-.65,2.73-.72,4.13,3.53.07,7.11,1.04,10,3.1-.55-6.32,3.61-11.2,8.71-14.24.6-.36,2.18-1.53,2.19-.11,0,1.04-.18,2.72-.31,3.79-.09.74-.18,2.06-.8,2.5-.94.66-2.3.91-3.44,1.76-2.58,1.95-4.04,3.85-3.65,7.25.08.69.51,2.94,1.47,2.57,3.23-2.18,6.47-4.35,9.93-6.17,1.14-.6,4.9-2.62,5.96-2.65.46-.01.44.17.64.5v1.2c-.25,1.08-.28,2.21-.57,3.28-.09.34-.11.65-.44.86-7.03,1.86-12.87,6.35-18.89,10.21-2.21,3.38-4.48,6.71-6.49,10.21,2.04,3.52,4.28,6.93,6.58,10.29,6.01,3.83,11.82,8.32,18.84,10.16.63.48.7,3.37.96,4.19v1.1c-.32.83-.89.52-1.55.3-1.5-.49-3.33-1.51-4.75-2.25-3.55-1.86-6.88-4.07-10.2-6.3-1-.43-1.41,1.8-1.49,2.5-.41,3.29.9,5.1,3.35,7.05,1.17.92,2.08,1.15,3.31,1.79.75.38.8.5.99,1.31.3,1.31.55,3.81.55,5.15,0,.31-.16.76-.54.75-.65-.03-3.31-1.87-3.95-2.36-3.99-3.05-6.86-7.4-6.41-12.64l-2.46,1.39c-2.37,1.08-4.95,1.54-7.54,1.71.09,1.29.2,2.6.62,3.83,1.15,3.32,5.73,6.89,8.71,8.59,1.07.61,2.52.83,2.84,2.16.26,1.05.46,4.01.33,5.07-.06.5-.46.87-.96.94-1.24-.1-2.56-.06-3.79-.19s-1.87-.12-2.53-1.27c-.89-1.55-1.43-2.86-2.54-4.36-2.6-3.52-6-7.01-10.78-6.67-.06,2.62-.66,5.48-1.81,7.84-.35.71-.86,1.34-1.19,2.06,4.72-.31,8.82,1.95,11.8,5.45.61.71,3.21,4.27,3.2,5,0,.52-1,.46-1.35.45-1.31-.04-3.62-.21-4.86-.54-.72-.2-.78-.39-1.08-1.02-.59-1.22-.84-2.06-1.72-3.18-1.86-2.37-3.57-3.71-6.75-3.45-.59.05-2.95.5-2.94,1.25,1.2,2.19,2.77,4.18,4.07,6.32s2.77,4.79,3.81,7.09c.26.57,1.2,2.54.96,3.04-.38.43-1.25.34-1.8.3-.59-.04-3.66-.51-3.96-.84-.19-.22-.82-2.64-1.02-3.18-2.06-5.69-6.06-10.67-9.17-15.8l-10.26-6.54c-3.54,2.06-6.99,4.27-10.35,6.61-3.12,5.02-7.06,10.01-9.1,15.6-.21.59-.86,3.05-1.1,3.3-.3.32-2.52.67-3.07.73s-2.54.37-2.72-.26c-.15-.51.92-2.77,1.2-3.36,2.11-4.5,4.87-8.66,7.63-12.77.28-.71-.65-.96-1.17-1.12-3.77-1.2-6.07.12-8.37,2.98-.89,1.11-1.13,1.85-1.72,3.08-.53,1.12-.63,1.12-1.85,1.35s-2.95.37-4.18.41c-.37.01-.93.08-1.2-.2-.06-.07-.11-.15-.11-.24-.01-.31.72-1.5.92-1.84,2.09-3.49,5.42-6.91,9.42-8.08,1.53-.45,3.13-.58,4.72-.53-2.05-2.86-2.98-6.4-3.1-9.9-4.56-.32-7.77,2.8-10.34,6.11-1.36,1.76-1.97,3.35-3.08,5.12-.61.97-1.36.95-2.43,1.07-.93.1-2.72.26-3.6.2-1.42-.09-1.18-1.38-1.15-2.46.02-.81.1-1.89.21-2.69.06-.45.16-1.22.41-1.59.36-.52,2.11-1.18,2.75-1.55,2.82-1.6,7.2-5.14,8.41-8.19.52-1.3.69-2.73.72-4.13-3.5-.22-7.01-1.03-9.9-3.1.06,3.16-.68,6.06-2.52,8.63-1.49,2.09-4.97,5.2-7.35,6.15-1.36.55-1.08-.42-1.04-1.54.03-1,.17-2.28.32-3.28.19-1.24.08-1.67,1.26-2.24s1.97-.77,3.07-1.63c2.86-2.25,4.31-4.53,3.2-8.3-.17-.58-.46-1.7-1.25-1.35-4.39,2.88-8.95,6.05-13.81,8.09-.74.31-2.47,1.26-2.7.05v-.8l.55-3.4.36-.94c2.72-.8,5.27-1.78,7.76-3.14,3.84-2.08,7.52-4.73,11.19-7.11,2.3-3.34,4.52-6.74,6.54-10.25-2.06-3.5-4.27-6.9-6.55-10.25-5.29-3.31-10.45-7.32-16.4-9.4-.56-.2-2.08-.48-2.45-.75-.68-.48-.74-3.59-1-4.45v-.8c.27-1.17,1.84-.26,2.6.05,4.93,2.03,9.55,5.31,14.01,8.2.49.17.66-.17.84-.55.69-1.42.83-3.76.36-5.25-.5-1.59-3.03-3.91-4.47-4.73-.6-.34-2.43-.93-2.72-1.38-.22-.35-.33-1.17-.4-1.6-.15-.97-.28-2.3-.32-3.28-.02-.55-.06-1.23.13-1.73.28-.29,1.29.32,1.61.5,2.83,1.56,5.97,4.33,7.52,7.18,1.23,2.24,1.68,4.64,1.65,7.2l2.46-1.39c2.34-1.02,4.88-1.57,7.44-1.61-.03-1.28-.18-2.64-.6-3.85-1.1-3.18-5.55-6.83-8.43-8.47-.67-.38-2.57-1.11-2.91-1.69-.17-.3-.31-1.08-.36-1.44-.11-.81-.18-1.98-.21-2.79-.02-.73-.21-2.19.76-2.35.82-.13,2.6.01,3.49.1.58.05,1.81.15,2.29.41.68.37,1.49,2.48,1.95,3.25,1.59,2.69,5.06,6.85,7.99,8.01,1.31.52,2.73.64,4.13.72.09-3.55,1.07-7.08,3.1-10-6.17.55-11.01-3.44-14.04-8.41-.43-.7-1.82-2.49-.22-2.48,1.06,0,2.63.17,3.7.3.86.11,2.09.15,2.58.92.69,1.08.87,2.23,1.78,3.42,2.24,2.9,4.43,4.3,8.22,3.32.58-.15,1.87-.45,1.5-1.24-2.3-3.43-4.57-6.86-6.48-10.53-.55-1.06-2.27-4.26-2.34-5.26-.03-.43.15-.56.5-.74h1.2ZM42.3,30.2c.22.18,3.87-1.5,4.37-1.78,1.23-.69,3.23-1.94,3.34-3.46.07-1.04-.12-2-1.2-2.31-1.82-.52-2.81.47-3.78,1.82-1.25,1.73-2.03,3.73-2.72,5.73ZM83.5,30.2c-.64-1.94-1.44-3.95-2.62-5.63-.99-1.41-2-2.46-3.88-1.92-.62.18-.89.39-1.07,1.03-.52,1.78.36,2.77,1.68,3.76,1.7,1.26,3.87,2.16,5.89,2.76ZM54.5,29.9c.15.13,3.8-1.05,3.8-1.25-.71-.37-1.64-1.29-2.33-1.57-.15-.06-.2-.09-.37-.04-.62.19-1,2.25-1.1,2.86ZM71.3,29.9c-.09-.63-.45-2.79-1.17-2.89l-2.62,1.64c0,.2,3.65,1.39,3.8,1.25ZM51.8,30.7l-2.46,1.39c-2.33,1.02-4.88,1.62-7.44,1.61-.03,1.47.18,3.12.78,4.47,1.31,2.95,5.57,6.37,8.35,7.95,1.34.76,2.71.84,3.04,2.56.22,1.14.32,3.09.33,4.27.01.85-.35,1.44-1.26,1.45-1.16,0-3.13-.12-4.29-.31-1.88-.31-1.66-1.16-2.45-2.55-1.73-3.09-5.26-7.78-8.66-9.04-1.22-.45-2.65-.65-3.94-.59-.22,2.49-.61,4.93-1.62,7.22l-1.49,2.66c6.31-.49,11.22,3.7,14.24,8.81.23.38,1.05,1.61.63,1.97-.26.1-.54.14-.83.13-1.11-.03-2.58-.17-3.69-.32-.5-.07-1.66-.21-2.06-.44-.45-.27-.68-1.3-.92-1.78-.81-1.62-1.66-2.69-2.94-3.96-.06,0-.57.96-.6,1.09-.25.97-.06,1.6-1.13,2.27l-1.79,3.37c.65.92,1.08,2.19,1.7,3.1.36.53,1.02.86,1.16,1.54.06.27,0,.54.07.83.04.16.51,1.11.65,1.05.94-.96,1.92-1.95,2.55-3.15.28-.54.79-2.15,1.17-2.44.36-.27,1.27-.38,1.74-.45.96-.15,2.22-.27,3.19-.31,1.85-.07,2.28-.17,1.33,1.63-1.29,2.42-3.62,5.16-5.85,6.75-2.56,1.83-5.48,2.59-8.63,2.52,2.06,2.9,2.88,6.38,3.11,9.89,1.21-.02,2.54-.16,3.69-.55,3.27-1.09,6.95-5.64,8.62-8.58.37-.64,1.03-2.39,1.55-2.75.36-.25,1.14-.36,1.59-.41.83-.1,1.96-.18,2.79-.21,1.13-.03,2.32-.24,2.36,1.25.03.94-.1,2.53-.21,3.5-.12,1.07-.1,1.82-1.07,2.43-1.77,1.11-3.36,1.72-5.12,3.08-3.32,2.57-6.43,5.78-6.11,10.34,3.5.13,7.04,1.04,9.9,3.1-.35-5.04,2.16-9.23,5.95-12.3.63-.51,3.88-2.79,4.5-2.76.09,0,.17.05.24.11.29.26.22.82.2,1.2-.03,1.06-.16,2.43-.31,3.49-.07.5-.21,1.63-.5,2-.3.39-1.93.92-2.49,1.21-1.21.64-2.26,1.67-3.2,2.65.4.02.75.34,1.1.45.43.13.93.1,1.37.33.37.19.64.66,1,.9.92.63,2.23,1.1,3.19,1.72.15.02.26-.06.38-.11.43-.17,2.75-1.43,3.09-1.69.14-.11.27-.39.47-.55.75-.63,1.93-.55,2.8-1.05-1.03-1.18-2.25-2.19-3.66-2.88-.51-.25-1.78-.6-2.06-1.04-.24-.37-.4-1.55-.46-2.04-.15-1.12-.3-2.67-.32-3.79-.03-1.57,1.24-.64,2-.19,5.17,3.02,9.42,7.97,8.91,14.34,2.87-2.03,6.4-2.98,9.9-3.1.41-4.72-3.14-8.17-6.61-10.74-1.55-1.15-3.04-1.68-4.56-2.64-.72-.45-.88-.85-1.02-1.68-.17-.99-.36-3.5-.29-4.46.1-1.3,1.38-1.11,2.33-1.08.83.02,1.97.1,2.79.21.45.06,1.13.15,1.52.38.61.35,1.39,2.35,1.81,3.09,1.57,2.73,5.09,7,8.06,8.14,1.32.5,2.75.67,4.15.7.01-3.5,1.05-7,3-9.9-2.98.08-5.8-.63-8.27-2.28-2.32-1.55-5.14-4.81-6.38-7.32-.78-1.57.01-1.35,1.41-1.31,1.23.04,3.31.21,4.47.53,1.08.3.96,1.04,1.39,1.91.65,1.31,1.27,2.25,2.28,3.32.12.13.67.74.8.65.06-.4.38-.81.48-1.17.24-.87.08-1.54,1.13-2.1l1.79-3.38-1.71-3.18c-1.04-.76-.95-1.31-1.23-2.37-.08-.31-.42-.64-.45-1-.15-.04-.17.04-.25.1-.71.49-1.98,2.13-2.4,2.9-.33.6-.88,2.34-1.36,2.64-.41.25-1.54.37-2.06.44-1.13.15-2.55.28-3.68.32-.31.01-.93-.05-.95-.45-.04-.74,2.41-4.09,3-4.8,3.01-3.63,7.14-6,12-5.65l-1.29-2.26c-1.07-2.39-1.72-5-1.71-7.64-1.34-.04-2.79.13-4.05.6-2.85,1.06-6.32,5.14-7.89,7.71-.5.81-1.47,3.2-2.12,3.58-.85.49-3.81.51-4.88.52-.16,0-.33.1-.5.1-.65,0-1.22-.5-1.24-1.16-.02-.95.09-2.42.19-3.39.12-1.21.07-2.03,1.17-2.73,1.81-1.15,3.41-1.75,5.22-3.18,3.24-2.57,6.29-5.75,5.91-10.24-2.63,0-5.25-.63-7.64-1.71l-2.26-1.29c.52,6.28-3.88,11.5-9.07,14.38-.8.44-1.89,1.2-1.84-.33.04-1.12.17-2.57.32-3.69.07-.5.21-1.66.44-2.06.27-.45,2.05-1.03,2.64-1.36.79-.44,2.4-1.67,2.9-2.4.06-.08.14-.1.1-.25-.68-.44-1.67-.4-2.3-.75-.39-.21-.61-.59-.96-.84-.3-.22-3.18-1.81-3.37-1.79l-3.3,1.79c-.64.99-1.14.88-2.09,1.11-.36.09-.75.46-1.17.48-.04.15.04.17.1.25.59.85,2.42,2.16,3.37,2.63.59.29,1.91.63,2.22,1.18.22.39.33,1.42.4,1.9.15,1.08.29,2.5.32,3.58,0,.33,0,.66-.1.98-.28.51-1.74-.47-2.09-.68-5.1-3.03-9.13-7.86-8.71-14.14ZM40.7,40.7c-.97-2.26-1.53-4.63-1.89-7.06-2.4-.15-4.67-.94-6.91-1.74.89,2.25,1.55,4.57,1.81,6.99,2.42.17,4.77.88,6.99,1.81ZM93.9,31.9c-2.25.89-4.58,1.5-6.99,1.81-.14,2.39-.93,4.65-1.71,6.89,2.26-.84,4.56-1.48,6.96-1.79.17-2.4.93-4.67,1.74-6.91ZM30.2,42.3c-.69.26-1.41.47-2.1.75-1.49.61-4.89,2.32-5.43,3.87-.3.86-.2,2.42.72,2.82,2.48,1.07,3.97-1.22,5.02-3.08.29-.51,1.98-4.11,1.78-4.37ZM95.6,42.3c.62,2.02,1.48,4.19,2.76,5.89.99,1.32,1.98,2.19,3.76,1.68.64-.18.85-.45,1.03-1.07.54-1.89-.5-2.89-1.92-3.88-1.68-1.18-3.69-1.98-5.63-2.62ZM29.9,54.5c-.51.03-2.62.5-2.78.97-.24.68,1.29,2.12,1.49,2.83.07.04.18-.16.22-.23.19-.37,1.21-3.43,1.08-3.57ZM95.9,54.5c-.14.14.98,3.39,1.25,3.8.37-.71,1.29-1.63,1.57-2.33.41-1.02-2.19-1.36-2.82-1.47ZM29.9,71.2c.11-.11-.67-2.41-.8-2.75-.05-.12-.39-1.14-.5-1.05-.18,1.02-2.48,2.56-.93,3.28.28.13,2.09.66,2.23.52ZM95.9,71.2c.17.16,2.78-.48,2.89-1.07.11-.42-1.45-2.18-1.59-2.73l-.6,1.35-.7,2.45ZM30.2,83.4c-.55-1.87-1.37-3.86-2.48-5.47-1-1.46-2.07-2.61-4-2.06-1.3.37-1.42,2.13-.94,3.2.84,1.85,5.48,3.82,7.42,4.33ZM102.88,76.22c-.07-.07-.73-.34-.87-.38-1.84-.46-2.82.54-3.79,1.92-1.17,1.66-2.02,3.7-2.62,5.63,1.72-.47,3.48-1.22,4.99-2.16,1.32-.82,2.8-1.84,2.71-3.59-.01-.25-.28-1.27-.42-1.43ZM40.7,85.1c-2.25.88-4.57,1.52-6.98,1.82-.23,1.28-.41,2.54-.75,3.8-.29,1.08-.73,2.11-1.07,3.18,2.23-.94,4.58-1.62,7-1.8.15-2.42.88-4.77,1.8-7ZM94,93.9c-.99-2.17-1.61-4.52-1.85-6.9-.12-.19-1.34-.26-1.67-.33-1.86-.36-3.6-.92-5.38-1.57.96,2.21,1.68,4.58,1.8,7,2.46.14,4.82.93,7.1,1.8ZM49.57,102.77c.59-.59.51-2.29.11-3-1.08-1.92-5.21-3.58-7.28-4.17.57,2.06,2.26,6.21,4.17,7.28.72.41,2.4.5,3-.11ZM83.5,95.6c-1.89.44-3.97,1.37-5.57,2.48-1.31.9-2.36,1.79-2.1,3.55.14.95.48,1.4,1.45,1.55,1.85.29,2.76-.76,3.71-2.14,1.12-1.64,1.87-3.56,2.52-5.43ZM58.3,97l-3.8-1.2c.06.58.48,2.71,1.07,2.88.15.06.28.02.42-.04.34-.13,1.76-1.14,2.17-1.42.09-.06.18.02.13-.22ZM71.3,95.8l-3.8,1.25c.63.36,1.68,1.37,2.3,1.6.16.06.26.09.42.04.61-.18,1.03-2.28,1.07-2.88Z"/>
  <path d="M14.58,83.43c2.45-.33,3.48,2.87,1.41,4.01-3.06,1.69-4.59-3.59-1.41-4.01Z"/>
  <path d="M39.67,108.72c2.07-.38,3.47,1.79,2.22,3.42-1.32,1.73-4.14.55-3.85-1.55.1-.77.85-1.73,1.63-1.87Z"/>
  <path d="M20.97,90.02c2.73-.5,3.71,3.05,1.37,4.07s-4.22-2.17-2.03-3.73c.2-.14.41-.29.66-.34Z"/>
  <path d="M85.07,108.72c2.51-.43,3.75,2.66,1.66,3.96-1.91,1.19-4.17-1.13-2.92-3.02.26-.39.78-.86,1.26-.94Z"/>
  <path d="M110.58,83.43c2.36-.3,3.37,2.74,1.42,4.02-1.24.81-3.09-.2-3.27-1.62-.14-1.12.73-2.25,1.85-2.4Z"/>
  <path d="M103.77,90.02c2.44-.45,3.74,2.54,1.72,3.92-2.17,1.48-4.77-1.89-2.39-3.59.2-.14.41-.29.66-.34Z"/>
  <path d="M91.77,102.12c2.22-.37,3.56,2.56,1.62,3.92s-4.32-1.04-3.04-2.94c.28-.42.91-.9,1.42-.98Z"/>
  <path d="M33.27,102.12c1.97-.33,3.33,2.01,1.97,3.57s-4.1.37-3.72-1.82c.13-.75.99-1.62,1.75-1.75Z"/>
  <path d="M106.47,110.42c3.17-.54,3.4,4.16.47,4.28-2.64.11-2.95-3.86-.47-4.28Z"/>
  <path d="M12.77,104.72c2.99-.51,3.57,4.03.66,4.27-2.75.22-3.17-3.84-.66-4.27Z"/>
  <path d="M20.46,114.06c-2.15,2.15-5.26-1.48-2.81-3.26,2.1-1.54,4.64,1.44,2.81,3.26Z"/>
  <path d="M112.17,104.72c3.09-.53,3.45,4.16.47,4.28-2.65.11-2.92-3.86-.47-4.28Z"/>
  <path d="M39.67,12.82c3.52-.61,3.41,4.5.38,4.28-2.43-.18-2.74-3.87-.38-4.28Z"/>
  <path d="M14.57,38.02c1.06-.16,2.32.68,2.5,1.75.39,2.31-2.62,3.53-3.92,1.62-.87-1.27-.13-3.13,1.42-3.37Z"/>
  <path d="M20.97,31.52c2.02-.34,3.54,1.86,2.18,3.48-1.56,1.85-4.44.14-3.7-2.1.22-.66.83-1.26,1.52-1.38Z"/>
  <path d="M33.38,19.32c1.13-.12,2.3.79,2.41,1.94.21,2.18-2.59,3.25-3.87,1.47-.97-1.34-.2-3.23,1.46-3.41Z"/>
  <path d="M12.77,16.82c3.3-.56,3.37,4.21.47,4.27-2.61.05-2.88-3.85-.47-4.27Z"/>
  <path d="M18.47,11.12c3.21-.55,3.48,4.15.46,4.24-2.64.08-2.85-3.83-.46-4.24Z"/>
  <path d="M85.07,12.82c2.08-.36,3.57,1.73,2.22,3.42-1.43,1.8-4.11.55-3.79-1.79.1-.7.87-1.52,1.57-1.63Z"/>
  <path d="M110.68,38.02c2.76-.33,3.16,3.92.66,4.27-3.18.45-3.5-3.93-.66-4.27Z"/>
  <path d="M103.87,31.52c3.18-.54,3.43,3.98.67,4.27s-3.19-3.84-.67-4.27Z"/>
  <path d="M91.98,19.32c1.79-.19,2.97,1.8,2.01,3.31-.65,1.02-2.1,1.32-3.08.61-1.61-1.16-.86-3.72,1.07-3.92Z"/>
  <path d="M112.07,16.82c2.86-.49,3.64,3.42,1.15,4.15-2.9.85-3.84-3.69-1.15-4.15Z"/>
  <path d="M106.37,11.12c3.26-.56,3.51,4.26.58,4.26-2.64,0-2.94-3.85-.58-4.26Z"/>
  <path d="M50.98,36.73c1.85-.07,3,2.31,1.68,3.68-1.56,1.62-4.22.06-3.68-2.09.21-.83,1.16-1.56,2.01-1.59Z"/>
  <path d="M86.78,72.53c1.85-.07,2.99,2.11,1.78,3.58-1.59,1.92-4.63-.09-3.63-2.33.3-.66,1.13-1.22,1.85-1.25Z"/>
  <path d="M38.88,72.53c.52-.02,1.03.2,1.42.52,1.94,1.59-.05,4.59-2.24,3.64s-1.42-4.08.81-4.16Z"/>
  <path d="M74.27,84.72c2.98-.51,3.62,3.83.85,4.25s-3.47-3.8-.85-4.25Z"/>
  <path d="M74.68,36.73c1.05-.04,2.14.88,2.23,1.92.19,2.31-2.89,3.42-4.06,1.26-.73-1.35.31-3.12,1.83-3.18Z"/>
  <path d="M38.47,48.92c2.91-.5,3.58,3.84.85,4.25-2.92.45-3.43-3.81-.85-4.25Z"/>
  <path d="M86.47,48.92c1.94-.33,3.36,1.82,2.13,3.43-1.47,1.91-4.49.31-3.75-1.95.22-.67.91-1.36,1.62-1.48Z"/>
  <path d="M53.17,57.22c3.22-.55,3.44,4.07.56,4.27-2.63.18-3.06-3.84-.56-4.27Z"/>
  <path d="M50.67,84.72c3.43-.58,3.21,4.92-.08,4.23-2.33-.49-2.12-3.86.08-4.23Z"/>
  <path d="M66.07,70.02c2.67-.45,3.5,3.1,1.27,4.06-2.39,1.03-4.21-2.25-2.03-3.73.19-.13.54-.29.77-.33Z"/>
  <path d="M58.87,51.52c3.27-.56,3.42,4.21.47,4.27-2.63.05-2.87-3.86-.47-4.27Z"/>
  <path d="M71.67,57.22c3.21-.55,3.51,4.13.66,4.27-2.67.13-3.11-3.85-.66-4.27Z"/>
  <path d="M65.97,51.52c3.2-.54,3.52,4.12.66,4.27-2.68.14-3.1-3.86-.66-4.27Z"/>
  <path d="M60.86,73.66c-1.85,1.85-4.79-.73-3.26-2.81,1.78-2.44,5.41.66,3.26,2.81Z"/>
  <path d="M71.77,64.32c2.02-.35,3.39,2.01,2.03,3.53-1.57,1.75-4.4.13-3.63-2.13.21-.62.94-1.28,1.6-1.4Z"/>
  <path d="M53.17,64.32c3.35-.57,3.42,4.66.22,4.23-2.44-.33-2.49-3.84-.22-4.23Z"/>
</svg>