<?xml version="1.0" encoding="UTF-8"?>
<svg id="Layer_1" data-name="Layer 1" xmlns="http://www.w3.org/2000/svg" viewBox="0 0 122.61 128.35">
  <path fill="#FFFFFF" d="M122.61,107.62c-.47,1.22-1.28,2.26-2.02,3.33-1.03,1.48-2.33,3.34-3.58,4.62-2.04,2.08-2.61,1.09-3.62-1.09-.6-1.29-1.1-2.68-1.58-4.02-3.59-9.98-5.86-20.34-7.85-30.75-.57-1.66-3.47.12-4.42.68-3.4,2.03-6.73,5.76-7.03,9.87-.28,3.82-.01,8.09,1.32,11.67.38,1.02,1.5,3.1,1.35,4.1-.14.95-1.88,3.12-2.54,3.96-1.34,1.72-3.63,4.67-5.17,6.08-1.45,1.32-1.9.45-2.39-.99-2.06-5.97-2.7-14.31-1.54-20.5s4.32-11.48,8.97-15.73c-.07-.11-.14-.12-.25-.15-.85-.19-1.72-.31-2.57-.53-6.24-1.63-11.71-5.16-16.43-9.47-2.29,2.33-4.51,5.21-5.55,8.34-2.06,6.18-1.04,16.58.63,22.88.48,1.79,2.03,5.2,1.87,6.83-.1,1.05-1.25,2.38-1.9,3.2-1.02,1.28-2.24,2.65-3.35,3.85-1.88,2.06-3.17,4.36-5.8,1.7-1.55-1.57-3.36-3.63-4.75-5.35-.68-.85-1.95-2.35-2.08-3.42-.17-1.46,1.5-5.3,1.95-7,1.69-6.49,2.78-17.64.11-23.86-.86-2.02-2.39-4.21-3.83-5.87-.17-.2-1.18-1.31-1.29-1.29-5.38,5.01-11.92,8.85-19.26,10.09,1.24,1.22,2.5,2.49,3.6,3.85,6.87,8.57,7,19.56,4.55,29.85-.19.79-.86,3.95-1.62,4.18-.68.2-1.25-.44-1.68-.88-1.83-1.86-6.08-6.73-7.17-8.93-.82-1.66.61-3.73,1.19-5.34,1.33-3.69,1.89-10.86.34-14.49-1.17-2.76-4.02-5.45-6.62-6.88-.85-.47-3.12-1.81-3.85-.74-1.65,7.24-2.94,14.53-5.03,21.67-1.22,4.15-2.55,8.77-4.28,12.72-.53,1.21-1.3,3.72-2.98,2.59-1.4-.95-3.64-4.18-4.65-5.65-.58-.84-1.96-2.58-1.81-3.57.09-.61,1.29-2.37,1.65-3.05,6.42-12.42,8.24-26.42,11.24-39.94-2.93-12.66-4.54-26.34-10.3-38.1-.69-1.41-1.79-2.97-2.37-4.33-.53-1.23.14-1.92.76-2.91,1.15-1.82,2.95-4.33,4.42-5.88.55-.57,1.54-1.68,2.39-1.19.99.56,2.57,5.05,3.01,6.29,3.55,9.94,5.81,20.24,7.8,30.6.4,1.12,1.6.68,2.43.34,3.01-1.22,6.74-4.44,8.08-7.42,1.57-3.49,1.15-10.5-.01-14.12-.39-1.2-1.75-3.73-1.75-4.8s1.79-3.31,2.51-4.24c1.38-1.78,3.65-4.68,5.24-6.16,1.23-1.15,1.76-.64,2.28.72,2.18,5.79,2.77,15.01,1.59,21.05s-4.42,11.3-8.97,15.58c6.32.92,12.04,4.06,16.95,8,.32.26,2.24,2.02,2.39,1.99,2.45-2.47,4.66-5.47,5.67-8.84,1.84-6.2.86-16.15-.81-22.39-.49-1.82-1.37-3.69-1.74-5.46-.42-1.98.61-3,1.75-4.45,1.4-1.78,3.79-4.65,5.43-6.12,1-.9,2.04-.97,3.11-.13,1.29,1.01,3.7,3.98,4.85,5.35,1.2,1.44,2.85,3.06,2.58,5.07-.25,1.82-1.53,4.49-2.02,6.48-1.52,6.07-2.4,15.79-.58,21.78.8,2.64,2.56,5.37,4.38,7.42.19.21,1.16,1.3,1.3,1.3,5.43-4.88,11.9-8.89,19.25-10,.04-.16-.02-.16-.11-.24-5.51-5.47-8.52-10.57-9.29-18.51-.49-5.04.25-13.1,2.05-17.85.69-1.81,1.34-1.72,2.6-.4,1.68,1.76,3.6,4.07,5.09,6.01.75.97,2.54,3.09,2.34,4.32-.18,1.11-1.04,2.63-1.45,3.75-1.24,3.41-1.5,7.85-1.22,11.47.33,4.38,4.16,8.37,7.9,10.3,1.02.53,3.03,1.71,3.57.07,1.57-8.17,3.26-16.15,5.7-24.1,1.02-3.32,2.1-6.92,3.51-10.09.39-.87,1.12-3.02,2.37-2.64.92.28,2.65,2.5,3.29,3.32,1.37,1.75,2.76,3.72,3.76,5.69v.5c-3.26,5.47-5.63,11.31-7.29,17.46-2.27,8.37-3.87,17-5.62,25.49,1.77,8.62,3.38,17.4,5.72,25.89,1.67,6.05,4.03,11.74,7.19,17.16v.4ZM61.21,77.32c.14,0,.15-.15.2-.25.37-.73.65-1.63,1.01-2.39,1.77-3.78,3.91-7.29,6.57-10.52-3.31-3.91-5.8-8.42-7.73-13.15-1.82,4.77-4.46,9.18-7.64,13.17,3.14,3.98,5.82,8.35,7.59,13.13ZM43.41,64.12c-4.77-2.27-10.84-5.08-16.25-4.71-2.1.15-4,1.82-4.79,3.71-.36.86-.44,1.01-.1,1.9.58,1.51,2.08,3.26,3.67,3.73,3.77,1.13,11.09-1.48,14.65-3.11.23-.1,2.93-1.39,2.83-1.52ZM79.21,64.12c-.13.19,2.99,1.61,3.23,1.72,3.56,1.58,10.27,3.93,14.07,2.93,1.28-.34,2.62-1.59,3.28-2.72.86-1.45.93-2.07.1-3.56-1.88-3.36-4.85-3.38-8.3-2.84-4.29.67-8.53,2.54-12.38,4.47Z"/>
  <path fill="#FFFFFF" d="M70.11.02c5.69.64,5.24,8.91-.45,8.91S63.65.67,69.21.02c.23-.03.67-.03.9,0Z"/>
  <path fill="#FFFFFF" d="M53.61,128.32c-.33.04-1.17.04-1.5,0-3.29-.42-4.84-4.61-2.8-7.15,2.88-3.58,8.77-1.08,7.97,3.57-.29,1.68-1.97,3.36-3.67,3.58Z"/>
  <path fill="#FFFFFF" d="M70.51,128.32h-1.6c-2.89-.64-4.7-3.83-3.18-6.53,1.8-3.2,6.79-3.03,8.13.43,1.07,2.78-.55,5.4-3.35,6.1Z"/>
  <path fill="#FFFFFF" d="M53.31.02c5.58.58,5.19,8.91-.45,8.91S46.82.54,52.51.02c.22-.02.58-.02.8,0Z"/>
  <path fill="#FFFFFF" d="M23.58,33.95c5.82-.54,6.53,8.49.87,8.97-6.1.51-6.74-8.42-.87-8.97Z"/>
  <path fill="#FFFFFF" d="M98.39,85.44c5.88-.22,6.24,8.42.77,8.97-6.22.63-6.69-8.75-.77-8.97Z"/>
  <path fill="#FFFFFF" d="M98.18,33.95c5.26-.44,6.88,7.15,1.84,8.74-6.49,2.06-8.15-8.22-1.84-8.74Z"/>
  <path fill="#FFFFFF" d="M20.74,93.08c-3.98-3.98,1.76-10.1,5.97-6.72,4.84,3.9-1.41,11.28-5.97,6.72Z"/>
  <path fill="#FFFFFF" d="M42.98,33.95c5.85-.49,6.45,8.48.87,8.97-6.16.53-6.66-8.48-.87-8.97Z"/>
  <path fill="#FFFFFF" d="M78.99,85.44c6.31-.24,6.13,9.55-.33,8.97-5.14-.46-5.18-8.77.33-8.97Z"/>
  <path fill="#FFFFFF" d="M78.78,33.95c5.91-.55,6.62,8.49.87,8.97s-6.53-8.44-.87-8.97Z"/>
  <path fill="#FFFFFF" d="M43.19,85.44c6.22-.19,6.01,9.63-.43,8.97-5.2-.53-5.12-8.81.43-8.97Z"/>
</svg>