<?xml version="1.0" encoding="UTF-8"?>
<svg id="Layer_1" data-name="Layer 1" xmlns="http://www.w3.org/2000/svg" viewBox="0 0 125.67 125.73">
  <g>
    <path d="M13.81,75.22c4.26-.72,3.65,6.01-.33,4.58-2.28-.82-1.8-4.22.33-4.58Z"/>
    <path d="M48.1,108.94c2.82-.04,3.38,3.93.76,4.73-3.49,1.06-4.32-4.68-.76-4.73Z"/>
    <g>
      <path d="M56.21,69.07c-.3.36-2.09,1.03-2.62,1.23-5.47,2.08-11.27,3.27-17,4.4-.95.32-.13,1.61.2,2.2.76,1.38,2.34,3.01,3.83,3.57,1.39.52,2.87.44,4.33.32-.1,1.47-.21,2.92.32,4.33.57,1.5,2.19,3.06,3.57,3.83.59.33,1.88,1.14,2.2.2,1.13-5.73,2.33-11.53,4.4-17,.21-.55.95-2.58,1.47-2.73.63-.18,1.59,1.13,1.97,1.59.42.51,2.09,2.77,2.14,3.26.01.11,0,.2-.04.3-4.12,6.97-5.18,15.17-6.84,22.97,1.52,7.35,2.61,14.82,6.06,21.55.22.43.87,1.27.83,1.72-.05.51-1.72,2.74-2.14,3.26-.62.76-1.71,2.44-2.52,1.04-.52-.88-1-2.36-1.35-3.35-1.8-5.15-2.95-10.47-3.98-15.82l-.3-.4c-.48-.22-1.52.38-1.97.63-1.5.85-3.29,2.68-3.7,4.4-.39,1.61-.23,4.64.2,6.24.22.82,1.16,2.51,1.05,3.2-.08.53-.89,1.5-1.24,1.97-.75.99-2.01,2.58-2.89,3.41-1.11,1.06-1.41-.94-1.6-1.7-1.38-5.4-1.32-11.35,2.16-15.95.63-.84,1.4-1.57,2.1-2.35-3.9-.69-7.37-2.73-10.25-5.4-.99.99-2.04,2.28-2.64,3.56-1.56,3.37-.95,9.63,0,13.18.28,1.03,1.18,2.91.95,3.87-.12.49-.83,1.33-1.16,1.74-.69.85-1.86,2.24-2.64,2.96-.64.58-1.25.56-1.89-.01-.73-.66-1.81-1.95-2.46-2.74-.39-.48-1.31-1.53-1.4-2.1-.12-.81.7-2.57.94-3.44.96-3.46,1.93-11.97-.75-14.75s-11.42-1.73-14.8-.8c-.88.24-2.63,1.06-3.44.94-.68-.1-2.28-1.54-2.86-2.04s-1.57-1.32-2.04-1.86c-.56-.65-.49-1.3.09-1.89.68-.7,3.9-3.57,4.65-3.75.95-.23,2.83.67,3.87.95,3.59.96,9.85,1.57,13.25-.04,1.27-.6,2.52-1.6,3.5-2.6-2.66-2.88-4.7-6.35-5.4-10.25-1.66,1.63-3.41,3.09-5.6,3.95-4.09,1.61-9.25,1.39-13.42.12-2.01-.61-1.37-1.03-.18-2.12.75-.69,3.77-3.3,4.58-3.43.69-.11,2.38.83,3.2,1.05,1.61.43,4.62.59,6.24.2,1.72-.42,3.49-2.15,4.36-3.64.26-.46.89-1.54.67-2.03-.12-.2-.27-.25-.48-.32-1.96-.66-4.87-.92-6.99-1.41-3.18-.74-9.31-2.3-12.05-3.85-.46-.26-.8-.53-.55-1.1.22-.51,1.88-1.73,2.39-2.11.48-.35,2.05-1.54,2.56-1.5,1.42.68,2.76,1.47,4.21,2.1,5.9,2.54,12.75,3.45,19.02,4.79,7.23-1.54,14.61-2.59,21.25-5.95.43-.22,1.45-.94,1.85-.94.21,0,.46.15.64.24.85.43,2.58,1.73,3.31,2.39.41.37,1.36,1.14.87,1.72ZM28.23,88c.99-2.14,2.06-4.4,2.38-6.77.24-1.74.29-3.19-1.35-4.21-.8-.49-1.07-.6-1.92-.16-3,1.57-1.38,5.51-.61,7.99l1.5,3.15ZM36.09,80.9c-.14,0-.3,1.12-.36,1.34-.89,3.39-2.74,6.35-5.09,8.91.55.75,1.49,1.18,2.1,1.8s1.08,1.59,1.85,2.15c2.56-2.35,5.52-4.2,8.91-5.09.22-.06,1.34-.22,1.34-.36-1.54-1.45-2.85-3.12-3.74-5.06-1.93-.84-3.57-2.18-5.01-3.69ZM28.23,104.5c.05-.05.41-1.12.52-1.34.95-2.01,2.1-3.88,3.49-5.61-.61-.65-1.11-1.7-1.7-2.3s-1.7-1.13-2.35-1.75c-2,1.76-4.37,2.83-6.75,3.96-.12.06-.24-.01-.2.19.72.29,1.47.58,2.17.93.55.28,1.95.99,2.34,1.36.87.84,1.71,3.28,2.29,4.41.04.08.04.31.21.14ZM37.74,97.6c1.56.74,3.13,1.49,4.8,1.95,2.2.61,4.98,1.31,6.3-1.1.47-.86.4-1.16-.12-1.98-1.86-2.97-6.72-.71-9.25.21l-1.73.92Z"/>
      <path d="M15.21,110.52c1.47,3.42,1.59,7.15,1,10.8-.14.87-.61,3.41-1.03,4.07-.5.78-1.13-.1-1.54-.54-.75-.79-3.49-3.96-3.66-4.85-.12-.62.91-2.59,1.11-3.4.18-.72.28-1.46.25-2.2-.74-.03-1.49.07-2.2.25-.78.19-2.86,1.24-3.42,1.13s-2.1-1.37-2.62-1.78c-.7-.56-1.56-1.28-2.21-1.89-.44-.42-1.32-1.04-.54-1.54.63-.41,2.75-.78,3.57-.93,3.82-.69,7.69-.66,11.29.89Z"/>
      <path d="M41.41,75.22c3.75-.63,3.99,4.87.48,4.78-2.93-.07-2.98-4.36-.48-4.78Z"/>
      <path d="M47.91,81.32c3.25-.34,3.6,4.8.27,4.88-2.97.07-3.31-4.56-.27-4.88Z"/>
      <path d="M13.91,85.63c3.62-.52,3.83,4.75.47,4.75-3.07,0-3.19-4.36-.47-4.75Z"/>
      <path d="M14.11,104.82c3.25-.39,3.65,4.56.47,4.78s-3.63-4.4-.47-4.78Z"/>
      <path d="M37.7,108.94c3.24-.05,3.2,4.81.08,4.87s-3.27-4.82-.08-4.87Z"/>
      <path d="M18.5,108.94c3.2-.05,3.14,4.81.08,4.87s-3.32-4.82-.08-4.87Z"/>
    </g>
  </g>
  <g>
    <path d="M111.14,0c1.28,1.35,2.72,2.84,3.78,4.37.67.97.98,1.15.59,2.35-.49,1.53-1.38,2.93-1.17,4.68.97-.07,1.93-.2,2.85-.5s2.02-1.08,2.95-.86c.52.12,2.14,1.45,2.64,1.86.42.34,2.71,2.29,2.81,2.59.23.7-.51.81-1.03.98-2.57.83-6.3,1.27-8.97,1.03-1.76-.16-3.58-.58-5.16-1.37-1.71-4.06-1.55-8.51-.54-12.73.2-.82.36-1.71.85-2.4h.4Z"/>
    <path d="M125.51,69.07c-.29.36-2.01,1-2.54,1.2-5.48,2.1-11.32,3.3-17.07,4.43l-.4.3c-.22.49.4,1.57.67,2.03.86,1.48,2.66,3.23,4.36,3.64s4.63.24,6.24-.2c.82-.22,2.51-1.16,3.2-1.05.81.13,3.82,2.74,4.58,3.43,1.2,1.1,1.83,1.5-.18,2.12-3.65,1.13-8.32,1.41-12,.35-2.81-.81-4.99-2.37-7.02-4.43-.69,3.9-2.74,7.37-5.4,10.25.97,1.01,2.23,2,3.5,2.6,3.39,1.6,9.66,1,13.25.04,1.03-.28,2.91-1.18,3.87-.95.75.18,3.86,2.96,4.55,3.65.63.63.83,1.26.19,1.99-.47.54-1.46,1.36-2.04,1.86s-2.18,1.94-2.86,2.04c-.81.12-2.57-.7-3.44-.94-3.39-.93-12.18-1.94-14.8.8s-1.7,11.29-.75,14.75c.24.88,1.06,2.63.94,3.44-.06.43-.62,1.14-.9,1.5-.7.91-2.17,2.67-3.01,3.39-.57.49-1.15.51-1.74.06-.74-.58-2.54-2.73-3.15-3.55-.24-.32-.67-.87-.76-1.24-.23-.95.67-2.83.95-3.87.95-3.56,1.55-9.8,0-13.18-.6-1.3-1.63-2.56-2.64-3.56-2.88,2.66-6.35,4.71-10.25,5.4.7.78,1.46,1.51,2.1,2.35,3.42,4.54,3.51,10.28,2.24,15.63-.21.86-.5,3.15-1.73,1.97-.87-.84-2.09-2.37-2.84-3.36-.35-.46-1.15-1.43-1.24-1.97-.11-.69.83-2.38,1.05-3.2.43-1.61.59-4.62.2-6.24-.42-1.74-2.24-3.58-3.77-4.43-.58-.33-1.88-1.14-2.2-.2-1.27,6-2.4,12.5-4.86,18.14-.73,1.68-.97,2.27-2.45.66-.68-.74-2-2.49-2.44-3.36-.11-.22-.26-.45-.24-.72.69-1.41,1.48-2.76,2.1-4.21,2.54-5.9,3.45-12.75,4.79-19.02-1.54-7.23-2.59-14.61-5.95-21.25-.22-.43-.94-1.45-.94-1.85,0-.51,1.73-2.82,2.15-3.34.38-.47,1.34-1.78,1.97-1.59.55.16,1.29,2.24,1.5,2.81,2.05,5.46,3.26,11.2,4.38,16.92.32.95,1.61.13,2.2-.2,1.39-.77,3.01-2.32,3.57-3.83.52-1.39.44-2.87.32-4.33,1.46.12,2.93.2,4.33-.32,1.5-.57,3.06-2.19,3.83-3.57.32-.59,1.14-1.88.2-2.2-5.97-1.28-12.53-2.39-18.14-4.86-1.69-.74-2.26-.98-.66-2.45.74-.68,2.49-2,3.36-2.44.22-.11.45-.26.72-.24,1.42.68,2.76,1.48,4.21,2.1,5.92,2.53,12.74,3.45,19.02,4.79,7.32-1.54,14.74-2.62,21.45-6.05.88-.45,1.27-1.11,2.29-.6.85.43,2.58,1.73,3.31,2.39.42.38,1.35,1.13.87,1.72ZM97.53,88c.73-1.57,1.48-3.12,1.95-4.8.62-2.22,1.31-5.05-1.16-6.34-.84-.44-1.13-.34-1.92.16-2.97,1.85-.72,6.73.21,9.25l.92,1.73ZM89.59,80.9c-1.45,1.54-3.12,2.86-5.06,3.74-.82,1.93-2.19,3.57-3.69,5.01,0,.14,1.12.3,1.34.36,3.39.89,6.35,2.74,8.91,5.09.25,0,1.55-1.87,1.85-2.15s2.1-1.55,2.1-1.8c-2.35-2.56-4.2-5.51-5.09-8.91-.06-.22-.22-1.34-.36-1.34ZM104.44,97.5c-.05-.05-1.12-.41-1.34-.52-2.01-.95-3.88-2.1-5.61-3.49-.66.62-1.75,1.13-2.35,1.75-.19.19-1.67,2.18-1.68,2.32,1.74,2.01,2.82,4.36,3.94,6.73.05.1,0,.26.19.2.05-.01.29-.79.37-.94.41-.87,1.34-2.93,1.93-3.57.75-.81,3.35-1.75,4.41-2.29.08-.04.31-.04.14-.21ZM87.94,97.5c-2.13-.98-4.32-2.03-6.68-2.37-1.8-.26-3.3-.32-4.34,1.4-.47.78-.55,1.04-.12,1.86,1.12,2.15,3.17,1.87,5.22,1.44,1.79-.38,3.49-1.11,5.16-1.84l.76-.49Z"/>
    <path d="M114.34,114.4c-.03.74.07,1.49.25,2.2.19.78,1.24,2.86,1.13,3.42-.14.74-2.32,3.29-2.93,3.98-.28.32-1.34,1.59-1.62,1.68-.77.23-1.01-1.25-1.16-1.8-1.15-4.34-1.32-9.17.46-13.36,3.61-1.56,7.47-1.58,11.29-.89.67.12,3.39.64,3.74,1.06.14.17.19.31.12.54-.08.28-2.61,2.43-3.04,2.77-.52.41-2.06,1.68-2.62,1.78s-2.64-.94-3.42-1.13c-.72-.18-1.46-.28-2.2-.25Z"/>
    <path d="M109.57,46.44c2.2-2.2,5.78,1.18,3.42,3.47s-5.6-1.28-3.42-3.47Z"/>
    <path d="M83.11,75.22c4.26-.72,3.67,6.02-.33,4.58-2.27-.82-1.79-4.22.33-4.58Z"/>
    <path d="M110.71,75.22c1.06-.18,2.02.14,2.61,1.04,1.53,2.34-1.45,4.87-3.57,3.17-1.5-1.2-.89-3.9.96-4.22Z"/>
    <path d="M77.31,81.32c3.2-.34,3.53,4.8.27,4.88-2.99.07-3.42-4.55-.27-4.88Z"/>
    <path d="M77.01,39.62c2.16-.37,3.65,1.78,2.55,3.65-1.32,2.24-4.81,1.03-4.41-1.81.12-.83,1.05-1.7,1.86-1.84Z"/>
    <path d="M77.5,108.94c3.66-.05,2.81,5.92-.76,4.71-2.52-.86-1.98-4.67.76-4.71Z"/>
    <path d="M106.51,12.02c3.53-.66,4.05,4.28,1.05,4.75-3.25.51-3.72-4.25-1.05-4.75Z"/>
    <path d="M110.81,85.63c3.64-.52,3.87,4.75.47,4.75-3.04,0-3.14-4.37-.47-4.75Z"/>
    <path d="M110.81,35.42c3.6-.56,3.86,4.65.56,4.77-3.03.11-3.34-4.34-.56-4.77Z"/>
    <path d="M111.01,104.82c3.28-.39,3.68,4.56.47,4.78s-3.57-4.41-.47-4.78Z"/>
    <path d="M87.9,108.94c3.18-.05,3.11,4.81.08,4.87s-3.34-4.82-.08-4.87Z"/>
    <path d="M107.1,108.94c3.21-.05,3.17,4.81.08,4.87s-3.29-4.82-.08-4.87Z"/>
    <path d="M111.21,16.13c3.1-.09,3.38,4.52.37,4.77-3.46.29-3.57-4.68-.37-4.77Z"/>
    <g>
      <path d="M68.74,0c.82.71,1.22,2.03,1.6,3.05,1.05,2.81,2.03,6.15,2.73,9.07.55,2.31.84,5.6,1.6,7.7.3.84,1.53.12,2.08-.17,1.78-.96,3.6-2.88,3.97-4.93.27-1.48.09-4.28-.3-5.75-.22-.81-1.18-2.64-1.05-3.3.11-.57,1.45-2.19,1.88-2.72.82-1.02,1.76-2.06,2.7-2.95h.3c.35.23.47.67.59,1.06,1.79,5.52,1.64,12.51-2.1,17.19-.5.63-1.41,1.34-1.8,1.9-.06.08-.14.1-.1.25,2.78.39,5.36,1.63,7.63,3.22.41.29,2.47,2.05,2.64,2.07.32.03,1.99-2.35,2.21-2.76,2.01-3.53,1.48-9.72.51-13.57-.27-1.06-1.26-3.26-1.07-4.18.15-.72,2.45-3.26,3.07-3.92.42-.45.88-.94,1.4-1.25h.6c1.04.81,2.04,1.93,2.9,2.95.47.56,1.51,1.72,1.59,2.41.1.84-.6,2.18-.84,3.04-1.06,3.73-1.8,10.36-.1,13.9.58,1.21,1.06,1.59,2.28,2.12,3.69,1.6,9.96.81,13.77-.27,1.34-.38,2.36-1.24,3.73-.43.81.48,3.6,2.9,4.17,3.63.82,1.04-.03,1.66-.75,2.35s-3.4,3.13-4.25,3.26c-.76.11-2.54-.7-3.38-.93-3.64-1.01-9.78-1.66-13.29-.15-1.35.58-2.6,1.64-3.69,2.62-.08.18.97,1.22,1.15,1.45,2.06,2.64,3.65,5.59,4.2,8.95,2.48-2.71,5.67-4.52,9.36-4.99,2.94-.37,7.04,0,9.86.92,1.38.45,1.41.73.38,1.72-.88.85-2.17,1.91-3.16,2.64-.32.24-1.31,1.01-1.62,1.08-.89.2-2.61-.81-3.61-1.05-4.45-1.09-8.9-.25-10.84,4.3-.25.6-.57,1.27.21,1.52,1.84.59,4.37.84,6.32,1.28,3.45.78,9.49,2.26,12.52,3.88.47.25,1,.5.84,1.11-.14.51-2.12,1.98-2.65,2.36-.56.4-1.82,1.4-2.47,1.32-7-4.16-15.25-5.19-23.1-6.89-7.26,1.62-14.69,2.6-21.37,6.04-.62.32-1.28.97-2,.81-.43-.1-1.98-1.24-2.43-1.58-.49-.37-2.01-1.5-2.21-1.99-.22-.54.09-.74.49-1,2.29-1.46,9.01-3.18,11.85-3.85,2.28-.54,5.16-.81,7.3-1.5,1.13-.36-.05-2.12-.46-2.74-.87-1.32-3.12-3.41-4.79-3.41h-3.05c.12-1.4.19-2.74-.25-4.1-.55-1.69-2.58-3.59-4.18-4.32-.4-.18-1.19-.57-1.51-.18-.71,2.41-1.03,4.95-1.6,7.4-.78,3.36-2.12,8.54-3.63,11.57-.33.65-.55,1.37-1.37.93-.65-.35-2.89-3.39-3.27-4.13-.53-1.07,0-1.26.47-2.17,2.47-4.85,3.53-9.22,4.7-14.5.35-1.61,1.58-6.29,1.42-7.63-.21-1.77-.83-4.08-1.22-5.88-.92-4.27-1.88-8.88-3.63-12.87-.6-1.37-1.38-2.64-2.02-3.99-.03-.46,1.58-2.65,1.96-3.13.54-.69,1.08-1.44,1.84-1.91h.3ZM99.87,25.77c-.84-.86-1.61-3.22-2.21-4.34-.05-.09-.1-.22-.22-.23-.85,2.56-2.34,4.86-3.99,6.97.57.64,1.12,1.8,1.69,2.38s1.77,1.05,2.35,1.74c2.07-1.77,4.47-3.04,6.95-4.14-1.09-.54-2.24-1-3.3-1.6-.3-.17-1.06-.58-1.26-.79ZM87.84,28.1c-1.95-.95-4.03-1.88-6.18-2.27-1.88-.34-3.42-.53-4.64,1.2-.61.87-.67,1.24-.12,2.16.37.62,1.06,1.24,1.76,1.44,2.05.58,7.24-1.13,9.05-2.31.1-.06.18.01.13-.22ZM84.56,41.17c.09.07.72.28.94.41.89.52,1.74,1.11,2.53,1.77.43.36,1,1.06,1.45,1.35.1.07.07.16.2,0,.69-3.83,2.7-7.27,5.34-10.07.06-.34-1.8-1.52-2.08-1.8s-1.62-2.24-1.86-2.24c-2.82,2.7-6.36,4.77-10.25,5.4,1.17,1.26,2.23,2.45,3.12,3.93.13.23.52,1.17.61,1.24ZM97.49,37.8c-1.25,2.38-2.92,6.19-2.52,8.92.14.96,1.53,2.46,2.52,2.46s2.38-1.48,2.52-2.46c.4-2.75-1.24-6.53-2.52-8.92Z"/>
      <path d="M83.21,45.83c3.89-.57,3.64,5.08.29,4.76-2.83-.27-2.99-4.37-.29-4.76Z"/>
      <path d="M87.31,12.02c3.97-.68,3.86,5.38.12,4.73-2.59-.45-2.4-4.34-.12-4.73Z"/>
    </g>
    <path d="M77.01,12.02c3.41-.59,3.86,4.29.95,4.75-3.25.51-3.87-4.25-.95-4.75Z"/>
  </g>
  <g>
    <path d="M28.44,0c.52.31.98.8,1.4,1.25.63.67,2.93,3.2,3.07,3.92.19.93-.8,3.13-1.07,4.18-.96,3.85-1.49,10.04.51,13.57.23.4,1.9,2.78,2.21,2.76.17-.01,2.23-1.78,2.64-2.07,2.27-1.59,4.85-2.83,7.63-3.22.04-.15-.04-.17-.1-.25-.39-.56-1.3-1.27-1.8-1.9-3.73-4.69-3.9-11.66-2.1-17.19.12-.38.24-.82.59-1.06h.3c.95.89,1.87,1.93,2.7,2.95.44.55,1.76,2.12,1.88,2.72.13.66-.83,2.49-1.05,3.3-.39,1.46-.57,4.26-.3,5.75.37,2.05,2.19,3.97,3.97,4.93.55.3,1.77,1.01,2.08.17.76-2.11,1.04-5.4,1.6-7.7.77-3.23,2.02-7.82,3.41-10.79.24-.51.44-1.02.92-1.33h.3c.61.36,1.05.91,1.5,1.45.42.51,2.33,3.11,2.3,3.59-.63,1.35-1.41,2.63-2.02,3.99-1.76,3.98-2.72,8.61-3.63,12.87-.39,1.8-1.02,4.1-1.22,5.88-.17,1.42,1.23,6.79,1.62,8.53,1.13,5,2.16,9.01,4.5,13.6.46.91,1,1.1.47,2.17-.37.75-2.62,3.79-3.27,4.13-.82.44-1.04-.28-1.37-.93-1.51-3.01-2.86-8.22-3.63-11.57-.57-2.45-.89-4.99-1.6-7.4-.33-.39-1.12,0-1.51.18-1.59.73-3.63,2.63-4.18,4.32-.44,1.35-.35,2.7-.25,4.1h-3.05c-1.66,0-3.92,2.1-4.79,3.41-.41.62-1.59,2.38-.46,2.74,2.15.69,5.02.96,7.3,1.5,2.84.67,9.56,2.39,11.85,3.85.39.25.66.4.52.93-.13.49-1.77,1.7-2.24,2.06-.45.33-1.99,1.48-2.43,1.58-.72.17-1.38-.49-2-.81-6.67-3.44-14.11-4.42-21.37-6.04-7.84,1.7-16.09,2.73-23.09,6.89-.68.09-2.28-1.18-2.87-1.62-.48-.36-2.12-1.57-2.24-2.06-.16-.61.37-.86.84-1.11,3.18-1.7,9.4-3.17,13.02-3.98,1.8-.4,4.14-.63,5.82-1.18.83-.27.45-.99.18-1.59-2.02-4.5-6.32-5.34-10.81-4.24-1,.24-2.72,1.25-3.61,1.05-.31-.07-1.3-.85-1.62-1.08-1.02-.76-2.35-1.86-3.26-2.74-.3-.29-.7-.6-.59-1.08.09-.28,1.17-.55,1.47-.64,3.68-1.07,8.3-1.36,12-.25,2.71.81,4.91,2.39,6.82,4.43.55-3.35,2.14-6.31,4.2-8.95.18-.23,1.23-1.27,1.15-1.45-1.07-.98-2.34-2.03-3.69-2.62-3.51-1.51-9.65-.86-13.29.15-.84.23-2.62,1.04-3.38.93-.85-.12-3.52-2.55-4.25-3.26s-1.57-1.31-.75-2.35c.5-.64,1.88-1.78,2.55-2.35.6-.5,1.79-1.59,2.54-1.66s2.63.77,3.51,1c3.57.96,9.64,1.55,13.07.07,1.18-.51,1.68-.89,2.25-2.05,1.76-3.57,1-10.19-.07-13.97-.24-.85-.94-2.22-.84-3.04.08-.68,1.13-1.85,1.59-2.41.85-1.02,1.87-2.14,2.9-2.95h.6ZM21.24,28.1c-.09.12,1.12.56,1.24.61,2.05.98,3.98,2.1,5.71,3.58.58-.69,1.78-1.16,2.35-1.74s1.05-1.71,1.69-2.31c-1.58-2.18-3.15-4.45-3.99-7.04-.12.01-.17.14-.22.23-.44.82-.76,1.81-1.23,2.67-.74,1.37-.88,1.67-2.25,2.45-1.05.59-2.19,1.09-3.3,1.55ZM37.84,28.3c1.99.91,4.1,1.9,6.28,2.27,1.84.32,3.59.43,4.66-1.38.56-.94.48-1.35-.16-2.22-.37-.5-.97-1.04-1.58-1.22-2.1-.62-6.55,1.01-8.5,2-.11.06-.85.38-.7.55ZM44.84,36c-3.9-.63-7.43-2.71-10.25-5.4-.23,0-1.57,1.96-1.86,2.24-.32.31-2.03,1.4-2.08,1.72,2.27,2.52,3.99,5.24,4.96,8.51.07.24.36,1.72.48,1.72,1.49-1.43,3.07-2.86,5.02-3.62.82-2.03,2.27-3.59,3.73-5.17ZM28.19,37.8c-1.28,2.39-2.92,6.17-2.52,8.92.14.99,1.52,2.46,2.52,2.46s2.39-1.5,2.52-2.46c.39-2.72-1.26-6.55-2.52-8.92Z"/>
    <path d="M14.94,0c.5.69.66,1.58.85,2.4,1.01,4.22,1.16,8.67-.54,12.73-2.93,1.42-6.54,1.66-9.74,1.26-.78-.1-5.03-.89-5.37-1.33-.14-.17-.11-.36-.05-.56.11-.34,2.83-2.61,3.31-2.99.44-.34,1.69-1.35,2.14-1.46.94-.22,2.06.58,2.95.86s1.89.42,2.85.5c.22-1.74-.68-3.15-1.17-4.68-.39-1.2-.08-1.39.59-2.35,1.06-1.53,2.5-3.02,3.78-4.37h.4Z"/>
    <path d="M41.41,45.82c3.63-.62,4.02,4.48.76,4.77-3.02.27-3.54-4.29-.76-4.77Z"/>
    <path d="M13.81,45.82c4.09-.69,3.72,5.4.12,4.73-2.61-.49-2.57-4.32-.12-4.73Z"/>
    <path d="M47.61,39.62c3.47-.59,3.9,4.27,1.05,4.75-3.33.57-3.88-4.27-1.05-4.75Z"/>
    <path d="M18.01,12.02c3.9-.62,3.74,5.21.18,4.77-2.68-.33-2.7-4.36-.18-4.77Z"/>
    <path d="M13.91,35.42c3.54-.55,3.87,4.65.56,4.77-3.01.11-3.4-4.33-.56-4.77Z"/>
    <path d="M16.1,20.26c-2.12,2.13-5.69-1.05-3.52-3.37s5.82,1.05,3.52,3.37Z"/>
    <path d="M36.07,12.64c2.25-2.25,5.66,1.3,3.37,3.52s-5.57-1.32-3.37-3.52Z"/>
    <path d="M47.61,12.02c3.49-.56,3.96,4.28.95,4.75-3.26.51-3.72-4.31-.95-4.75Z"/>
  </g>
</svg>