<?xml version="1.0" encoding="UTF-8"?>
<svg id="Layer_1" data-name="Layer 1" xmlns="http://www.w3.org/2000/svg" viewBox="0 0 125.46 125.5">
  <path fill="#FFFFFF" d="M60.71,0c.28.18.6.07.93.22.76.36.47,1.29.28,1.93-.61,2.06-1.89,4.18-2.75,6.15l-5.05,9.3c1.08.16,3.14.18,4,.85.74.58,1.65,3.44,2.22,4.48.63,1.16,1.46,2.19,2.34,3.17,1.45-1.2,2.35-2.95,3.16-4.63.35-.73.83-2.41,1.38-2.92.79-.75,3.03-.79,4.1-.95l-4.55-8.4c-.85-1.68-3.41-6.52-3.45-8.16-.02-.89.76-.88,1.4-1.04h.5c.68.16,1.44.13,2.14.21,1.34.16,2.97.42,4.28.72.49.11,1.48.3,1.78.72,1.36,4.97,3.25,9.64,5.78,14.12,3.03,5.38,6.6,10.56,9.96,15.74.35.25.83,0,1.2-.01.72-.02,2.22-.12,2.79.22,1.55.91.55,3.24.86,4.64,8.33,5.3,16.55,11.46,26.03,14.57,1.03.34,2.2.56,3.2.9s.99.65,1.23,1.57c.49,1.87,1.16,5.9.95,7.75-.13,1.2-.83,1.11-1.78.88-1.49-.37-3.02-1.29-4.46-1.84l-11.26-5.99c-.17,1.06-.21,3.31-.96,4.09-.65.68-3.36,1.52-4.41,2.09-.6.33-2.82,1.8-3.09,2.32-.04.08-.07.13,0,.2,1.14.99,2.36,1.91,3.72,2.58.95.47,3.31,1.17,3.89,1.91.66.86.68,2.93.85,4,3.76-2.06,7.48-4.27,11.36-6.09,1.18-.55,2.63-1.26,3.86-1.64.8-.25,2.04-.68,2.25.5.3,1.63-.36,5.31-.72,7.03-.12.58-.3,1.68-.65,2.13-.25.33-2.6.86-3.18,1.04-9.9,3.21-18.16,9.22-26.82,14.78-.28.33,0,1.1,0,1.5.02.65.1,2.15-.26,2.66-.02.03-.53.5-.57.52-1.06.64-2.85-.05-4.06.2-1.68,2.6-3.41,5.17-5.06,7.79-3.37,5.34-6.81,10.77-8.96,16.74-.57,1.58-.92,3.3-1.47,4.83-.22.6-.32.74-.93.97l-6.7,1.15h-1.7c-1.82-.37-.6-2.58-.15-3.7.94-2.34,2.22-4.53,3.29-6.81l3.85-7c-1.11-.28-2.86-.2-3.83-.82-.82-.52-1.33-2.45-1.75-3.35-.77-1.66-1.71-3.1-2.97-4.43-1.36,1.28-2.27,2.86-3.07,4.53-.38.79-.84,2.42-1.38,3.02-.71.8-3.18.8-4.2,1.05,1.44,2.55,2.91,5.09,4.25,7.7,1.07,2.07,2.27,4.34,3.1,6.5.39,1.02,1.38,2.97-.25,3.3h-1.8l-6.22-1.03c-1.59-.18-1.57-2.07-1.98-3.32-1.41-4.38-3.13-8.2-5.42-12.18-2.93-5.08-6.24-9.95-9.43-14.87-1.48-.47-3.68.73-4.7-.9-.67-1.08.15-2.88-.25-4.05-8.37-5.3-16.54-11.4-26.06-14.54-1.04-.34-2.28-.56-3.27-.93-.88-.33-.92-.84-1.13-1.67L.01,66.2v-1.9c.34-1.75,2.75-.47,3.8-.05,4.7,1.89,9.25,4.74,13.7,7.15.25-1.06.22-3.3.95-4.1.55-.6,2.51-1.2,3.32-1.58,1.59-.75,3.1-1.71,4.33-2.97-1.34-1.26-2.77-2.19-4.43-2.97-.89-.42-2.85-.96-3.35-1.75-.61-.96-.56-2.73-.82-3.83-2.55,1.35-5.03,2.83-7.6,4.15-2.23,1.15-5.67,3.06-8.02,3.68-.96.25-1.48.3-1.88-.73.03-.63-.04-1.27,0-1.9.11-1.66.57-4.62,1.03-6.22.08-.28.27-.84.48-1.02.36-.33,2.62-.82,3.27-1.03,9.84-3.19,18.07-9.27,26.7-14.75.24-1.4-.72-3.78.79-4.67.91-.53,2.95-.05,4.02-.14,5.05-8.08,11.07-16.03,14.25-25.1.56-1.61.95-3.27,1.52-4.88.37-.49,2.11-.73,2.75-.85,1.73-.34,3.68-.65,5.4-.75h.5ZM50.11,24c-.18-.04-.25.09-.34.21-.62.76-2.5,3.56-2.9,4.4-.57,1.22,1.08,1.69,1.99,1.99,2.47.81,5.13.88,7.65.3-.51-.4-1.1-1.09-1.61-1.44-.62-.43-1.17-.48-1.74-1.16-.38-.45-.56-1.01-.91-1.49-.66-.92-1.66-1.74-2.14-2.81ZM75.61,24l-.25.1c-.67,1.04-1.56,1.93-2.29,2.91-.28.38-.4.82-.75,1.25-.59.7-1,.72-1.65,1.15-.59.39-1.17,1.06-1.75,1.5,2.72.61,5.88.53,8.47-.58.68-.29,1.63-.68,1.25-1.59l-3.02-4.73ZM64.31,34.9c-.47.02-1.17-.46-1.57-.48-.35-.01-1.17.57-1.63.48-.08.07.38.65.45.8,1.43,3.14-2.05,6.49-5.14,4.74-.51-.29-.93-.71-1.31-1.14.42,1.14.97,2.22,1.37,3.37.94,2.71,1.47,5.55,1.74,8.41.75.32,1.46.74,2.23,1.02.49.17,1.84.59,2.3.58.53,0,2.02-.5,2.58-.7.64-.24,1.26-.56,1.85-.9.36-2.81.82-5.62,1.75-8.3.37-1.07,1.06-2.24,1.37-3.23.02-.05.03-.16-.05-.15-2.44,3.07-7.16,1.08-6.62-2.82.09-.66.45-1.09.67-1.68ZM54.61,35.9h-1.6l1.55,2.5c-.11-.89-.25-1.61.05-2.5ZM72.41,35.9h-1.6c.37.88.15,1.71.05,2.6l1.55-2.6ZM30.91,56.5c.47-2.56.46-5.27-.4-7.75-.25-.74-.75-2.18-1.73-1.93l-4.87,3.28c.5.26,1,.65,1.45,1.01s1.13,1.06,1.56,1.34c1.08.71,1.33.51,2.14,1.76.49.76.89,1.46,1.56,2.14.1.1.13.19.3.15ZM101.51,49.9l-4.73-3.02c-1.09-.42-1.55,1.03-1.82,1.83-.87,2.53-.98,5.3-.35,7.9l1.5-1.75c.38-1.41,1.42-1.71,2.39-2.41s1.85-1.68,2.9-2.3l.11-.24ZM38.41,54.7l-2.6-1.7c0,.6.16,1.1,0,1.7.84-.31,1.74-.26,2.6,0ZM89.61,54.7v-1.7l-2.6,1.65c.86-.09,1.76-.34,2.6.05ZM39.11,70.5c2.69-1.31,5.53-2.24,8.48-2.77,1.15-.21,2.32-.3,3.47-.53.33-.68.69-1.34.95-2.05.67-1.85.72-2.63.1-4.51-.18-.55-.83-2.31-1.37-2.43-.83-.18-1.95-.19-2.85-.35-3.02-.53-5.92-1.43-8.68-2.77.32.39.76.67,1.04,1.11,2.3,3.48-2.13,7.49-5.34,4.89,0,.48-.5,1.24-.51,1.65,0,.45.46,1.17.51,1.65,4.28-2.89,8.4,3.07,4.2,6.1ZM86.11,55.2c-2.57,1.13-5.21,2.05-7.98,2.57-1.1.2-2.28.25-3.34.46-.14.03-.31.07-.42.18-.22.21-.87,1.82-1,2.2-.64,1.89-.61,2.57.04,4.45.27.77.68,1.49,1.02,2.23,4.09.32,8.07,1.4,11.78,3.11-3.98-3.05.18-8.87,4.25-6,.09,0,.61-1.5.61-1.65,0-.39-.55-1.07-.46-1.55-1.22.64-2.26.98-3.63.48-2.8-1.03-3.15-4.67-.87-6.48ZM67.2,58.21l-4.44-.62-4.46.65-.79,4.51.7,4.55c.88.07,1.76.19,2.63.32.55.08,1.41.38,1.91.37.61-.01,1.83-.36,2.53-.47.63-.1,1.28-.12,1.92-.23l.73-4.43-.72-4.64ZM30.91,69c-.23-.06-.17.06-.23.13-.82.92-1.25,1.76-1.93,2.66-.61.8-1.07.79-1.74,1.26-1.05.75-2.02,1.76-3.1,2.5l5.07,3.23c.94.09,1.47-1.79,1.67-2.48.71-2.42.7-4.83.25-7.3ZM101.51,75.4c-1.06-.48-1.89-1.49-2.81-2.14-.48-.34-1.04-.53-1.49-.91-.68-.58-.74-1.11-1.15-1.75-.32-.49-1.07-1.11-1.44-1.6-.61,2.48-.51,5.14.27,7.58.26.8.76,2.55,1.87,2.11l4.65-3.04.1-.24ZM38.31,70.9c-.88.21-1.62.25-2.5,0,.15.54,0,1.05,0,1.6l2.5-1.6ZM89.61,70.9c-.9.3-1.61.12-2.5.05l2.5,1.55v-1.6ZM70.41,86.3c-1.23-2.57-2.14-5.27-2.67-8.08-.21-1.11-.26-2.28-.45-3.35-.03-.17-.1-.36-.22-.48-.26-.26-1.78-.86-2.2-1-2-.67-2.94-.54-4.88.23-.22.09-1.68.79-1.73.87-.43,4.05-1.38,8.03-3.15,11.7,3.23-3.9,8.79.23,6,4.4.46.04,1.13.48,1.56.5s1.17-.45,1.64-.5c-.2-.51-.59-1.02-.68-1.57-.5-3.19,2.91-5.6,5.67-3.77.43.29.72.72,1.11,1.04ZM54.61,89.6c-.31-.91-.21-1.72.1-2.6l-1.7,2.55c-.03.31.11.05.15.05h1.45ZM70.81,89.6h1.45s.18.21.25.05l-1.7-2.55c.19.83.36,1.68,0,2.5ZM56.51,94.6c-2.77-.5-5.8-.48-8.43.62-.62.26-1.42.59-1.36,1.4l3.23,4.97c.69-1.07,1.73-2.04,2.45-3.05.24-.33.32-.75.65-1.15.72-.9,2.34-1.69,3.32-2.57.07-.06.19,0,.13-.23ZM69.01,94.6c-.04.17.05.2.15.3,1.29,1.25,2.61,1.52,3.63,3.07.32.48.44.7.81,1.19.62.81,1.28,1.6,1.85,2.45l3.23-4.87c.21-.92-.95-1.37-1.63-1.63-2.56-.96-5.39-1-8.05-.5Z"/>
  <path fill="#FFFFFF" d="M102.19,89.13c4.85-.66,5.7,6.8.86,7.36s-5.61-6.72-.86-7.36Z"/>
  <path fill="#FFFFFF" d="M92.19,99.03c5.33-.73,5.66,7.07.77,7.37-4.72.29-5.2-6.77-.77-7.37Z"/>
  <path fill="#FFFFFF" d="M105.28,35.36c-3.38,3.45-8.68-1.84-5.32-5.27s8.76,1.75,5.32,5.27Z"/>
  <path fill="#FFFFFF" d="M91.99,19.22c2-.31,3.97.86,4.38,2.87.83,4-4.17,6.13-6.6,2.9-1.53-2.05-.35-5.37,2.22-5.77Z"/>
  <path fill="#FFFFFF" d="M31.99,19.22c5.51-.86,5.85,7.31.67,7.38-4.54.06-4.84-6.73-.67-7.38Z"/>
  <path fill="#FFFFFF" d="M22.7,29.03c4.75-.28,5.11,6.92.57,7.37-5.18.51-5.53-7.08-.57-7.37Z"/>
  <path fill="#FFFFFF" d="M22.29,89.13c4.91-.61,5.81,6.86,1.06,7.36-4.98.52-5.73-6.78-1.06-7.36Z"/>
  <path fill="#FFFFFF" d="M31.99,99.03c5.25-.72,5.93,6.98,1.06,7.36s-5.51-6.75-1.06-7.36Z"/>
</svg>