<?xml version="1.0" encoding="UTF-8"?>
<svg id="Layer_2" data-name="Layer 2" xmlns="http://www.w3.org/2000/svg" viewBox="0 0 69.1 6.78">
  <defs>
    <style>
      .cls-1 {
        fill: #020302;
      }
    </style>
  </defs>
  <g id="Layer_1-2" data-name="Layer 1">
    <g>
      <path class="cls-1" d="M1.28,6.27c-.06,0-.12-.07-.17-.2-.09-.27-.19-.55-.29-.82-.1-.28-.19-.53-.26-.76-.07-.23-.12-.4-.15-.53-.01-.05-.02-.11-.02-.17s0-.11.02-.15c.01-.04.03-.08.05-.15.05-.14.1-.27.15-.39.05-.12.07-.2.07-.26,0-.05-.02-.09-.07-.11-.06-.04-.14-.08-.26-.13s-.19-.08-.24-.1c-.05-.02-.09-.05-.1-.09-.01-.03-.02-.07-.02-.09,0-.04.02-.1.07-.18.05-.09.11-.18.18-.28.07-.1.14-.2.21-.28.07-.09.12-.15.15-.18.02-.03.05-.05.09-.06s.06-.02.09-.02c.02,0,.04,0,.07,0s.06.02.09.03c.26.13.5.27.71.42.21.15.42.34.63.55.06.06.08.12.08.17,0,.01,0,.03,0,.04l-.02.04c-.02.06-.05.14-.1.25-.05.11-.1.23-.16.35-.06.12-.12.23-.18.32-.02.03-.04.04-.07.04-.03,0-.06-.01-.09-.04-.03-.03-.08-.08-.14-.13-.06-.06-.13-.11-.19-.15-.06-.05-.1-.07-.13-.07-.04,0-.06.03-.06.09,0,.02,0,.04,0,.05s0,.04,0,.07c.03.16.07.33.14.51.06.19.13.37.2.56.07.18.13.35.18.5.02.05.03.09.04.12.01.03.02.06.02.08,0,.03,0,.05-.01.07,0,.02-.02.05-.02.08-.06.21-.12.4-.21.57-.08.17-.15.29-.19.35,0,.01-.02.03-.04.04s-.03.03-.05.03Z"/>
      <path class="cls-1" d="M4.58,6.27s-.08-.03-.1-.08-.03-.11-.04-.17c0-.17-.02-.36-.03-.59s-.04-.46-.06-.7c-.02-.24-.04-.46-.07-.66-.02-.2-.04-.35-.06-.45-.01-.08-.05-.18-.11-.3-.06-.12-.14-.22-.24-.31-.14-.12-.26-.22-.36-.29-.1-.07-.18-.12-.22-.16-.04-.03-.06-.07-.06-.11,0-.03.01-.06.03-.11.1-.18.22-.37.35-.55.13-.18.26-.34.4-.46.03-.02.06-.03.1-.03.02,0,.04,0,.08.02.07.04.16.11.27.22s.21.22.3.33c.1.11.16.2.2.26.04.06.09.17.16.31.07.14.11.36.13.65.02.21.03.42.04.65,0,.22,0,.44,0,.64v.34c0,.11,0,.21,0,.3,0,.06,0,.13-.01.18,0,.06-.02.13-.06.21-.05.11-.12.25-.23.41s-.2.28-.27.37c-.05.05-.09.08-.14.08Z"/>
      <path class="cls-1" d="M10.35,6.27c-.06,0-.09-.07-.1-.22,0-.07-.01-.19-.02-.36-.01-.17-.02-.35-.04-.56-.02-.2-.03-.4-.05-.6-.02-.2-.04-.36-.06-.49-.03-.18-.1-.35-.21-.5-.11-.15-.25-.28-.42-.37-.17-.09-.35-.14-.55-.14h-.93c-.1,0-.15.05-.15.14,0,.29,0,.57.03.84s.03.55.03.83c0,.08,0,.18,0,.28s-.02.19-.05.24c-.04.09-.1.19-.17.31-.07.12-.14.23-.22.34-.08.11-.15.18-.23.23-.04.02-.06.03-.08.03-.06,0-.09-.03-.09-.1-.04-.6-.08-1.18-.12-1.76-.04-.57-.12-1.13-.25-1.69,0-.02,0-.04,0-.06,0-.02,0-.03,0-.05,0-.02,0-.05.03-.09.04-.09.1-.21.19-.35.08-.14.18-.28.28-.43.11-.15.21-.27.31-.39.04-.05.07-.07.12-.07.05,0,.08.02.11.06.02.04.04.1.06.17.01.07.05.12.1.14.05.02.11.03.18.03h1.21c.35,0,.65.09.91.26.26.17.46.4.62.69s.24.6.27.96c.02.32.04.58.04.79,0,.21,0,.43,0,.67,0,.12-.01.21-.04.28-.03.09-.08.19-.15.31-.07.12-.14.23-.21.33-.08.1-.14.18-.19.24-.04.04-.09.06-.15.06Z"/>
      <path class="cls-1" d="M16.42,6.27s-.03,0-.04-.02-.02-.02-.03-.02c-.16-.19-.36-.41-.61-.67-.24-.26-.52-.54-.82-.84-.25-.24-.48-.45-.68-.63-.2-.18-.35-.31-.46-.41-.02-.02-.04-.04-.06-.06s-.03-.02-.05-.02c-.03,0-.06.04-.1.13-.01.05-.04.14-.06.27s-.04.26-.04.38c0,.17.02.29.06.34.01.02.04.03.07.04.03,0,.05.01.07.01h.48c.07,0,.11.04.11.13,0,.04-.03.13-.08.26-.05.13-.11.28-.19.43-.07.15-.14.27-.2.36-.04.08-.11.12-.2.12h-1.16c-.06,0-.09-.02-.09-.07,0-.02,0-.05.03-.09.02-.05.05-.13.09-.24s.06-.19.06-.25c0-.1,0-.21.02-.34.01-.13.03-.25.05-.37s.04-.21.05-.28c.05-.22.12-.42.21-.6.09-.18.2-.36.33-.53.02-.02.03-.04.03-.05,0,0-.01-.02-.03-.05-.02-.02-.04-.04-.05-.05-.07-.07-.16-.15-.26-.23-.11-.09-.21-.17-.31-.26-.1-.08-.17-.15-.23-.19-.04-.04-.07-.08-.07-.11,0-.03,0-.05.01-.06.06-.11.15-.25.26-.44.12-.18.24-.34.36-.48.05-.04.09-.06.12-.06.02,0,.03,0,.05.01s.03.01.05.02c.13.08.3.21.5.38.2.17.42.35.65.56.23.21.46.42.69.64s.44.43.63.62c.01.01.02.02.04.04s.03.02.04.02c.05,0,.07-.05.07-.15,0-.13,0-.26-.03-.41-.02-.14-.05-.26-.09-.37-.02-.05-.05-.1-.07-.14-.02-.04-.03-.08-.03-.1,0-.04.01-.08.04-.12.08-.13.19-.28.32-.46s.28-.34.43-.49c.01-.01.03-.02.04-.03s.03-.02.05-.02c.02,0,.04,0,.06.03s.03.04.04.06c.08.14.15.28.2.45.05.16.08.35.08.56,0,.17-.02.31-.05.43-.03.12-.08.23-.13.35-.05.13-.12.26-.21.4-.09.14-.18.28-.27.41,0,.01,0,.03,0,.04,0,.02,0,.04.02.05.08.08.17.18.28.29.1.11.2.22.29.33s.17.2.24.27c.06.08.1.12.11.13.02.03.03.05.03.07,0,.02,0,.04-.01.06s-.01.03-.02.06c-.04.11-.1.24-.18.38-.08.14-.15.26-.21.37-.07.11-.11.17-.13.2-.01.01-.02.02-.04.03-.01.01-.03.02-.04.02Z"/>
      <path class="cls-1" d="M21.62,6.27c-.07,0-.11-.07-.11-.22,0-.31-.02-.62-.03-.94-.02-.32-.03-.62-.06-.91s-.04-.54-.07-.75c0-.05-.02-.11-.05-.18-.03-.07-.08-.14-.15-.19-.07-.05-.17-.08-.3-.08h-2.77c-.15,0-.22-.05-.22-.14,0-.04.02-.1.05-.18.03-.08.07-.17.11-.26.09-.19.19-.38.31-.57.12-.19.23-.35.33-.48.04-.05.09-.07.17-.07.06,0,.1.03.13.1.02.06.05.13.07.2.02.07.07.11.15.11h2.21c.28,0,.48.09.62.26.14.18.22.38.25.62.03.22.06.56.07,1.02.01.46.02.97.02,1.52,0,.06,0,.11-.02.17-.02.06-.06.16-.13.28-.07.12-.14.24-.22.35-.08.12-.16.2-.23.26-.06.05-.11.07-.14.07ZM18.72,6.27s-.06-.02-.07-.05c0-.03-.01-.06-.02-.09-.02-.09-.03-.22-.05-.37s-.03-.32-.05-.48-.03-.32-.04-.46c-.01-.14-.02-.24-.02-.3,0-.05,0-.09.02-.12.01-.03.03-.07.04-.11.04-.08.11-.2.2-.34.09-.14.18-.26.26-.35.05-.05.09-.09.12-.12.04-.03.07-.05.11-.05.05,0,.08.01.08.04s.01.05.02.08c.01.05.02.14.04.29s.03.31.04.48c.01.18.02.34.03.49s.01.26.01.32c0,.07-.02.16-.05.25-.03.08-.08.19-.16.31-.08.12-.16.23-.25.33-.09.1-.16.18-.21.22-.03.02-.06.03-.09.03Z"/>
      <path class="cls-1" d="M25.55,6.21c-.13,0-.27-.05-.41-.15-.14-.1-.24-.26-.3-.48-.06-.22-.13-.45-.2-.68-.07-.23-.17-.52-.29-.88-.08-.23-.17-.47-.27-.71-.1-.24-.21-.47-.33-.68-.02-.04-.04-.08-.06-.12-.02-.05-.03-.09-.03-.12,0-.02,0-.05.02-.08s.02-.06.03-.08c.04-.08.1-.17.17-.28.07-.11.15-.21.23-.32.08-.1.15-.19.22-.25l.06-.06s.04-.02.07-.02c.04,0,.07.01.09.03.02.02.05.05.08.09.03.04.07.12.12.25s.1.26.15.42c.05.15.1.3.14.43.06.21.11.4.16.58.05.18.08.33.1.44,0,0,0,.02.01.04,0,.02.02.04.04.04.08,0,.16-.07.23-.21.08-.14.11-.29.11-.47,0-.11-.01-.21-.04-.3-.02-.09-.05-.17-.07-.22-.02-.05-.04-.08-.04-.11,0-.03,0-.06.02-.08s.02-.04.04-.07c.08-.13.18-.27.29-.41s.21-.27.32-.38c.01-.01.03-.03.06-.05s.05-.03.07-.03c.07,0,.13.04.17.11.04.05.07.13.1.25.03.11.06.23.08.36.02.12.03.23.03.31,0,.16-.02.29-.07.37-.05.09-.09.17-.13.24-.08.15-.21.32-.39.52-.18.2-.38.41-.61.62,0,0-.02.02-.04.04-.03.02-.04.04-.04.07,0,.03,0,.05,0,.06.02.08.04.16.07.25.02.09.05.15.07.2.03.06.07.1.1.13.04.03.1.05.21.05.15,0,.3-.03.47-.09.17-.06.32-.13.46-.21.14-.08.25-.15.32-.21.12-.1.21-.19.28-.28.07-.09.1-.21.1-.37,0-.13-.02-.28-.07-.45-.04-.18-.09-.34-.14-.48-.05-.15-.08-.24-.09-.27-.03-.07-.04-.12-.04-.15,0-.03,0-.06.03-.08.07-.11.17-.26.3-.43.13-.18.27-.33.43-.47.01-.01.04-.02.06-.04.03-.01.05-.02.07-.02.05,0,.09.02.11.05.03.03.05.07.06.1.03.08.07.19.1.33s.07.3.09.47c.02.16.04.31.04.43,0,.19-.02.36-.06.52s-.07.3-.1.41c-.09.36-.19.64-.29.84-.1.2-.17.34-.22.43-.06.12-.16.26-.29.41s-.25.27-.38.35c-.1.06-.25.13-.45.22-.2.09-.41.17-.62.23-.21.07-.39.1-.53.1Z"/>
      <path class="cls-1" d="M30.83,6.27s-.08-.03-.1-.08-.03-.11-.04-.17c0-.17-.02-.36-.03-.59s-.04-.46-.06-.7c-.02-.24-.04-.46-.07-.66-.02-.2-.04-.35-.06-.45-.01-.08-.05-.18-.11-.3-.06-.12-.14-.22-.24-.31-.14-.12-.26-.22-.36-.29-.1-.07-.18-.12-.22-.16-.04-.03-.06-.07-.06-.11,0-.03.01-.06.03-.11.1-.18.22-.37.35-.55.13-.18.26-.34.4-.46.03-.02.06-.03.1-.03.02,0,.04,0,.08.02.07.04.16.11.27.22s.21.22.3.33c.1.11.16.2.2.26.04.06.09.17.16.31.07.14.11.36.13.65.02.21.03.42.04.65,0,.22,0,.44,0,.64v.34c0,.11,0,.21,0,.3,0,.06,0,.13-.01.18,0,.06-.02.13-.06.21-.05.11-.12.25-.23.41s-.2.28-.27.37c-.05.05-.09.08-.14.08Z"/>
      <path class="cls-1" d="M33.23,6.27c-.07,0-.11-.04-.11-.12,0-.09.03-.22.09-.39.06-.17.12-.34.2-.5.08-.16.14-.28.2-.36.05-.06.1-.09.15-.1.13-.03.27-.07.42-.13.16-.06.3-.12.44-.2.14-.07.24-.15.3-.22.16-.19.24-.44.24-.75,0-.15-.03-.26-.08-.35-.05-.08-.15-.13-.29-.13h-1.43c-.26,0-.43-.04-.5-.13-.07-.09-.1-.25-.1-.49,0-.02,0-.06,0-.14,0-.07,0-.14,0-.19,0-.08,0-.16,0-.24,0-.08-.01-.16-.02-.23-.02-.1-.04-.2-.07-.28-.03-.08-.06-.16-.11-.24-.01-.04-.02-.06-.02-.09,0-.02,0-.05.02-.08.04-.08.1-.17.19-.28.09-.11.18-.22.28-.33.1-.11.18-.19.24-.25.04-.04.07-.05.09-.05.11,0,.18.08.22.23.03.08.05.2.06.36s.02.32.02.47,0,.27,0,.33c0,.11.04.19.11.24.08.05.19.07.33.07h1.61c.19,0,.33.05.42.15s.13.24.13.42c0,.31-.03.6-.1.89-.07.28-.14.54-.22.78-.14.44-.36.83-.66,1.2s-.64.63-1.05.81c-.1.04-.23.09-.37.14-.14.05-.27.09-.4.13-.12.03-.21.05-.26.05Z"/>
      <path class="cls-1" d="M39.11,6.21c-.13,0-.27-.05-.41-.15-.14-.1-.24-.26-.3-.48-.06-.22-.13-.45-.2-.68-.07-.23-.17-.52-.29-.88-.08-.23-.17-.47-.27-.71-.1-.24-.21-.47-.33-.68-.02-.04-.04-.08-.06-.12-.02-.05-.03-.09-.03-.12,0-.02,0-.05.02-.08s.02-.06.03-.08c.04-.08.1-.17.17-.28.07-.11.15-.21.23-.32.08-.1.15-.19.22-.25l.06-.06s.04-.02.07-.02c.04,0,.07.01.09.03.02.02.05.05.08.09.03.04.07.12.12.25s.1.26.15.42c.05.15.1.3.14.43.06.21.11.4.16.58.05.18.08.33.1.44,0,0,0,.02.01.04,0,.02.02.04.04.04.08,0,.16-.07.23-.21.08-.14.11-.29.11-.47,0-.11-.01-.21-.04-.3-.02-.09-.05-.17-.07-.22-.02-.05-.04-.08-.04-.11,0-.03,0-.06.02-.08s.02-.04.04-.07c.08-.13.18-.27.29-.41s.21-.27.32-.38c.01-.01.03-.03.06-.05s.05-.03.07-.03c.07,0,.13.04.17.11.04.05.07.13.1.25.03.11.06.23.08.36.02.12.03.23.03.31,0,.16-.02.29-.07.37-.05.09-.09.17-.13.24-.08.15-.21.32-.39.52-.18.2-.38.41-.61.62,0,0-.02.02-.04.04-.03.02-.04.04-.04.07,0,.03,0,.05,0,.06.02.08.04.16.07.25.02.09.05.15.07.2.03.06.07.1.1.13.04.03.1.05.21.05.15,0,.3-.03.47-.09.17-.06.32-.13.46-.21.14-.08.25-.15.32-.21.12-.1.21-.19.28-.28.07-.09.1-.21.1-.37,0-.13-.02-.28-.07-.45-.04-.18-.09-.34-.14-.48-.05-.15-.08-.24-.09-.27-.03-.07-.04-.12-.04-.15,0-.03,0-.06.03-.08.07-.11.17-.26.3-.43.13-.18.27-.33.43-.47.01-.01.04-.02.06-.04.03-.01.05-.02.07-.02.05,0,.09.02.11.05.03.03.05.07.06.1.03.08.07.19.1.33s.07.3.09.47c.02.16.04.31.04.43,0,.19-.02.36-.06.52s-.07.3-.1.41c-.09.36-.19.64-.29.84-.1.2-.17.34-.22.43-.06.12-.16.26-.29.41s-.25.27-.38.35c-.1.06-.25.13-.45.22-.2.09-.41.17-.62.23-.21.07-.39.1-.53.1Z"/>
      <path class="cls-1" d="M44.39,6.27s-.08-.03-.1-.08-.03-.11-.04-.17c0-.17-.02-.36-.03-.59s-.04-.46-.06-.7c-.02-.24-.04-.46-.07-.66-.02-.2-.04-.35-.06-.45-.01-.08-.05-.18-.11-.3-.06-.12-.14-.22-.24-.31-.14-.12-.26-.22-.36-.29-.1-.07-.18-.12-.22-.16-.04-.03-.06-.07-.06-.11,0-.03.01-.06.03-.11.1-.18.22-.37.35-.55.13-.18.26-.34.4-.46.03-.02.06-.03.1-.03.02,0,.04,0,.08.02.07.04.16.11.27.22s.21.22.3.33c.1.11.16.2.2.26.04.06.09.17.16.31.07.14.11.36.13.65.02.21.03.42.04.65,0,.22,0,.44,0,.64v.34c0,.11,0,.21,0,.3,0,.06,0,.13-.01.18,0,.06-.02.13-.06.21-.05.11-.12.25-.23.41s-.2.28-.27.37c-.05.05-.09.08-.14.08Z"/>
      <path class="cls-1" d="M47.3,6.07c-.21,0-.38-.1-.51-.31-.04-.07-.08-.17-.1-.29-.02-.12-.04-.24-.05-.36s-.01-.22-.01-.3,0-.2,0-.35-.01-.31-.02-.49c0-.17-.02-.32-.03-.46-.01-.14-.02-.23-.03-.28-.01-.09-.07-.15-.17-.18-.02,0-.06,0-.11-.01-.05,0-.09,0-.12-.02-.06-.01-.09-.05-.09-.12,0-.02.01-.05.03-.11.02-.05.04-.09.05-.12.05-.12.12-.25.2-.4.08-.15.16-.29.25-.43.09-.14.16-.26.23-.35.04-.06.09-.1.13-.14.04-.03.08-.05.13-.05.08,0,.13.05.15.15.03.11.07.18.12.21.05.03.11.04.19.04h2.27c.26,0,.45.06.58.19.13.12.22.28.27.45s.08.34.09.49c.02.19.03.35.04.49s.01.28.02.43,0,.32.01.52c0,.12,0,.23-.01.33s-.03.21-.06.32c-.05.2-.11.39-.17.57-.06.18-.14.34-.24.49-.04.06-.11.1-.21.1h-2.83ZM47.94,4.74h1.8c.06,0,.1-.03.11-.08.02-.06.02-.09.02-.11,0-.09,0-.21,0-.35,0-.14-.02-.29-.03-.43s-.03-.27-.06-.36c-.03-.11-.1-.2-.2-.27-.1-.07-.21-.1-.32-.1h-1.55c-.14,0-.21.08-.21.23,0,.07,0,.19.01.34,0,.15.02.31.04.47s.04.29.06.39c.04.19.15.29.33.29Z"/>
      <path class="cls-1" d="M52.69,5.03s-.07-.02-.07-.07c0-.02,0-.03,0-.04.06-.12.13-.24.21-.38.08-.13.15-.26.21-.39.06-.12.09-.22.09-.3,0-.09-.01-.19-.04-.29-.03-.1-.08-.19-.16-.27-.16-.17-.34-.32-.54-.45-.2-.13-.34-.24-.43-.33-.04-.05-.06-.09-.06-.11,0-.03.02-.07.05-.13.04-.07.1-.17.19-.29s.18-.24.28-.35c.1-.11.17-.2.23-.25.04-.04.07-.06.09-.07.02,0,.04-.01.05-.01.02,0,.03,0,.05,0,.02,0,.02.01.03.01.1.06.23.15.38.26.15.12.3.24.45.38.15.13.26.25.34.37.07.09.13.2.19.31s.08.25.08.4c0,.19-.04.39-.13.58-.09.2-.17.35-.24.47-.12.2-.29.37-.5.53-.21.15-.42.27-.63.36-.05.02-.09.04-.11.04Z"/>
      <path class="cls-1" d="M57.8,6.27s-.06-.02-.08-.06c-.02-.04-.04-.11-.04-.21-.02-.36-.03-.7-.04-1.02-.01-.32-.04-.62-.09-.88-.05-.31-.18-.57-.38-.76-.2-.19-.46-.29-.79-.29h-1.18c-.11,0-.17-.04-.17-.11s.03-.18.08-.32c.05-.14.12-.29.2-.45.08-.16.17-.31.26-.45.09-.14.18-.25.26-.33.01-.01.03-.03.05-.05s.04-.03.07-.03c.06,0,.1.03.11.09.04.21.11.32.21.32h.86c.28,0,.53.08.75.23s.37.34.46.57c.05.13.09.29.12.47.03.18.05.37.07.56.02.19.03.37.04.52,0,.16,0,.28,0,.37,0,.22,0,.38-.01.46s-.01.14-.02.18c-.04.15-.12.33-.23.53-.11.2-.23.4-.35.58-.05.06-.1.1-.15.1Z"/>
      <path class="cls-1" d="M61.55,6.21c-.13,0-.27-.05-.41-.15-.14-.1-.24-.26-.3-.48-.06-.22-.13-.45-.2-.68-.07-.23-.17-.52-.29-.88-.08-.23-.17-.47-.27-.71-.1-.24-.21-.47-.33-.68-.02-.04-.04-.08-.06-.12-.02-.05-.03-.09-.03-.12,0-.02,0-.05.02-.08s.02-.06.03-.08c.04-.08.1-.17.17-.28.07-.11.15-.21.23-.32.08-.1.15-.19.22-.25l.06-.06s.04-.02.07-.02c.04,0,.07.01.09.03.02.02.05.05.08.09.03.04.07.12.12.25s.1.26.15.42c.05.15.1.3.14.43.06.21.11.4.16.58.05.18.08.33.1.44,0,0,0,.02.01.04,0,.02.02.04.04.04.08,0,.16-.07.23-.21.08-.14.11-.29.11-.47,0-.11-.01-.21-.04-.3-.02-.09-.05-.17-.07-.22-.02-.05-.04-.08-.04-.11,0-.03,0-.06.02-.08s.02-.04.04-.07c.08-.13.18-.27.29-.41s.21-.27.32-.38c.01-.01.03-.03.06-.05s.05-.03.07-.03c.07,0,.13.04.17.11.04.05.07.13.1.25.03.11.06.23.08.36.02.12.03.23.03.31,0,.16-.02.29-.07.37-.05.09-.09.17-.13.24-.08.15-.21.32-.39.52-.18.2-.38.41-.61.62,0,0-.02.02-.04.04-.03.02-.04.04-.04.07,0,.03,0,.05,0,.06.02.08.04.16.07.25.02.09.05.15.07.2.03.06.07.1.1.13.04.03.1.05.21.05.15,0,.3-.03.47-.09.17-.06.32-.13.46-.21.14-.08.25-.15.32-.21.12-.1.21-.19.28-.28.07-.09.1-.21.1-.37,0-.13-.02-.28-.07-.45-.04-.18-.09-.34-.14-.48-.05-.15-.08-.24-.09-.27-.03-.07-.04-.12-.04-.15,0-.03,0-.06.03-.08.07-.11.17-.26.3-.43.13-.18.27-.33.43-.47.01-.01.04-.02.06-.04.03-.01.05-.02.07-.02.05,0,.09.02.11.05.03.03.05.07.06.1.03.08.07.19.1.33s.07.3.09.47c.02.16.04.31.04.43,0,.19-.02.36-.06.52s-.07.3-.1.41c-.09.36-.19.64-.29.84-.1.2-.17.34-.22.43-.06.12-.16.26-.29.41s-.25.27-.38.35c-.1.06-.25.13-.45.22-.2.09-.41.17-.62.23-.21.07-.39.1-.53.1Z"/>
      <path class="cls-1" d="M65.61,6.78c-.07,0-.11-.04-.11-.11,0-.03.02-.09.05-.19.03-.1.07-.22.12-.35.05-.13.1-.26.15-.39.05-.12.1-.22.13-.29.01-.02.03-.04.05-.06.02-.02.05-.04.09-.06.08-.04.16-.08.24-.12.08-.04.14-.07.17-.09.02-.01.03-.03.03-.05,0-.03-.03-.14-.08-.32-.06-.18-.13-.4-.23-.65-.09-.25-.2-.49-.32-.74-.12-.24-.25-.44-.38-.59-.06-.07-.1-.13-.1-.19,0-.05.03-.13.09-.25.06-.12.14-.25.23-.39.09-.14.17-.26.25-.37.08-.11.14-.17.17-.2.01-.02.03-.03.06-.05.02-.02.06-.02.09-.02s.06.01.09.04c.02.03.04.06.06.11.14.32.27.68.38,1.07.11.39.21.77.3,1.14.08.37.15.68.2.93,0,.04.02.06.05.06,0,0,.04-.01.09-.04.04-.02.09-.06.18-.11.08-.05.17-.11.25-.16.09-.06.15-.1.18-.13.04-.04.08-.08.1-.12.03-.04.04-.11.04-.19,0-.07-.02-.17-.06-.32-.04-.15-.08-.3-.13-.45-.05-.15-.1-.27-.14-.36-.02-.04-.05-.09-.08-.15-.03-.06-.05-.11-.05-.17,0-.04.03-.12.09-.22.06-.1.13-.21.22-.34s.16-.23.24-.33c.08-.1.13-.17.16-.21.02-.04.06-.05.13-.05.06,0,.11.03.15.09.05.08.1.21.15.39.05.18.09.37.13.58.04.21.05.39.05.54,0,.19,0,.32-.02.4-.02.08-.03.14-.03.18-.01.07-.04.18-.08.32-.04.14-.09.29-.15.45-.06.16-.12.32-.19.47-.06.15-.13.27-.19.36-.08.13-.17.24-.27.33-.1.09-.22.18-.36.28-.04.03-.13.08-.27.16-.14.08-.31.17-.5.27-.19.1-.39.2-.59.3-.2.1-.38.18-.54.25-.15.06-.25.09-.3.09Z"/>
    </g>
  </g>
</svg>