<?xml version="1.0" encoding="UTF-8"?>
<svg id="Layer_1" data-name="Layer 1" xmlns="http://www.w3.org/2000/svg" viewBox="0 0 89.7 173.93">
  <path fill="#FFFFFF" d="M0,75.53c.42-1.2,1.43-.69,2.32-.37,2.12.75,4.56,2,6.61,2.99,2.24,1.08,4.45,2.25,6.66,3.39-.39-1.6-.88-3.2-1.37-4.78-2.23-7.06-4.92-13.98-8.37-20.53-1.02-1.93-2.76-4.38-3.5-6.3-.47-1.22,0-1.53.71-2.49,1.14-1.54,4.23-5.4,5.65-6.45s1.8-.34,2.41.88c.98,1.97,1.9,4.22,2.73,6.27,5.06,12.49,7.62,25.75,11.33,38.67l3.72,2.38h.4c2.36-1.59,4.85-3,7.18-4.64,3.86-2.71,4.33-3.67,4.42-8.48.11-5.5-.58-10.88-1.73-16.26-.64-3.01-1.64-6-2.22-8.98-.52-2.64.01-2.89,1.6-4.8.97-1.16,2.1-2.46,3.15-3.55.47-.49,1.66-1.8,2.28-1.92.51-.11.75.18.96.16.23-.02.38-.25.81-.18.56.1,2.32,1.98,2.81,2.5.99,1.04,2.04,2.24,2.95,3.35,1.5,1.86,1.76,2.07,1.27,4.57s-1.27,4.8-1.82,7.18c-1.37,5.97-2.48,12.91-2.15,19.05.27,4.98,2.19,5.83,5.95,8.35,1.94,1.3,3.95,2.49,5.9,3.77l3.89-2.48c3.84-13.33,6.47-26.94,11.81-39.79.7-1.68,1.45-3.52,2.26-5.14.21-.41.49-1.24.96-1.34.92-.21,1.7.58,2.28,1.18,1.53,1.57,3.73,4.13,4.99,5.91.34.49.82,1.02.75,1.63-.12,1.09-2.36,4.49-3.01,5.69-4.54,8.45-7.91,17.31-10.48,26.57l7.96-3.99c1.87-.73,3.72-1.86,5.61-2.49.78-.26,1.51-.58,2.02.27v.9c-.85,2.19-1.85,4.33-2.95,6.4-1.03,1.94-1.28,3.02-3.32,4.08-3.38,1.76-7.04,3.15-10.4,5-.68.37-2.5,1.21-2.44,2.07.05.73,1.72,1.53,2.34,1.87,3.42,1.88,7.16,3.3,10.6,5.1,1.28.67,1.45.89,2.18,2.12s1.53,2.8,2.17,4.13,1.31,2.79,1.81,4.24v.8c-.44,1.06-1.7.44-2.5.15-2.49-.92-5.33-2.38-7.74-3.56-1.81-.89-3.59-1.84-5.36-2.79,2.4,8.49,5.36,16.87,9.45,24.7,1.01,1.93,2.19,3.77,3.2,5.7.23.43.79,1.43.84,1.86.08.7-.55,1.39-.95,1.93-1.22,1.66-2.97,3.71-4.39,5.21-.8.85-2.37,2.66-3.31,1s-1.78-3.89-2.49-5.61c-5.4-12.94-8.08-26.64-11.91-40.09l-3.97-2.39c-1.69,1.13-3.44,2.16-5.13,3.28-4.05,2.69-6.39,3.54-6.65,8.95-.31,6.42.88,13.52,2.35,19.76.51,2.18,1.34,4.52,1.71,6.69.41,2.48-.19,2.79-1.66,4.55-.97,1.17-2.1,2.46-3.15,3.55-.51.53-1.73,1.89-2.43,1.98-.34.05-.52-.17-.77-.17s-.44.23-.77.17c-.88-.15-3.89-3.63-4.63-4.48-.81-.93-2.65-2.86-2.75-4.05-.05-.61.22-1.62.35-2.25.56-2.69,1.43-5.37,2.02-8.08,1.1-5.1,1.78-9.94,1.83-15.17.03-3.45.31-6.22-2.55-8.64-2.69-2.28-6.21-3.96-9.08-6.03l-.27-.03-3.8,2.33c-4.04,14.25-6.83,28.81-12.88,42.39-.43.96-1.1,2.76-1.63,3.57-.77,1.17-2.23-.2-2.84-.84-1.26-1.3-4.84-5.31-5.55-6.75-.31-.62-.16-.81.08-1.42.71-1.8,2.19-3.89,3.14-5.66,4.38-8.18,7.61-16.92,10.08-25.87-2.28,1.08-4.49,2.29-6.76,3.39-2.02.97-4.53,2.27-6.61,2.99-.85.29-1.77.7-2.22-.37v-.5c.69-2.07,1.65-4.06,2.65-6,.5-.97,1.26-2.6,1.87-3.43.91-1.23,5.32-2.9,6.92-3.68,1.33-.65,6.9-3.21,7.51-4.09.74-1.08-.87-1.75-1.68-2.21-3.62-2.04-7.75-3.49-11.33-5.47-1.54-.84-1.96-2.06-2.75-3.55-1.2-2.25-2.33-4.57-3.18-6.97v-.5ZM54.1,93.83c.03-.14-.02-.16-.1-.25-.46-.52-1.57-1.21-2.16-1.74-2.99-2.73-5.24-5.86-7-9.5-2.06,4.51-5.23,8.44-9.25,11.35,3.92,3.02,7.2,6.78,9.2,11.35.1.08,1.17-2.07,1.28-2.27,2.02-3.5,4.68-6.64,8.02-8.93Z"/>
  <path fill="#FFFFFF" d="M45.9,173.93h-2c-5.19-1.26-4.26-8.96,1.35-8.6,2.71.18,4.44,2.61,3.94,5.24-.33,1.74-1.62,2.91-3.29,3.36Z"/>
  <path fill="#FFFFFF" d="M45.3.03c4.67.59,5.17,7.38.42,8.47-6.05,1.39-7.05-7.79-1.72-8.47.3-.04,1-.04,1.3,0Z"/>
  <path fill="#FFFFFF" d="M12.33,32.69c-.59-.59-.58-3.87-.21-4.59.48-.95,2.55-.99,3.53-1.07,4.11-.33,8.48-.25,12.59-.1,1.77.07,4.06.03,5.78.32.64.11,1.36.54,1.47,1.23.09.58.09,2.91-.02,3.47-.17.92-1.04,1.09-1.83,1.17-6,.59-13.83.72-19.8,0-.44-.05-1.2-.12-1.52-.43Z"/>
  <path fill="#FFFFFF" d="M61.88,26.86l8.07-.03c2.03.33,4.71-.06,6.67.53.63.19,1.04.57,1.15,1.25.1.61.09,2.83-.04,3.41s-.43.85-1.01.99c-1.32.32-3.37.25-4.77.33-5.13.28-10.67.33-15.8-.2-.61-.06-1.34-.14-1.7-.7s-.34-3.05-.25-3.74c.13-.95.78-1.31,1.65-1.45,1.91-.3,4.08-.14,6.02-.38Z"/>
  <path fill="#FFFFFF" d="M43.98,12.95c3.28-.44,5.78,1.77,5.21,5.11-.87,5.08-9.2,4.53-8.69-1.39.16-1.81,1.65-3.48,3.47-3.73Z"/>
  <path fill="#FFFFFF" d="M44.18,25.85c5.55-.76,7.02,7.16,1.83,8.43-6.09,1.49-7.61-7.64-1.83-8.43Z"/>
  <path fill="#FFFFFF" d="M63.08,153.36l6.07-.03c1.82.2,3.66.16,5.49.31.63.05,2.36.13,2.75.55.14.15.34.62.37.83.1.61.09,2.83-.04,3.41-.27,1.14-1.51,1.21-2.48,1.32-5.47.61-12.8.51-18.3,0-1.23-.12-2.58-.11-2.75-1.65-.08-.67-.08-3.06.21-3.59.34-.61,1.11-.7,1.74-.76,2.29-.24,4.64-.14,6.93-.37Z"/>
  <path fill="#FFFFFF" d="M12.33,154.16c.31-.31,1.08-.38,1.52-.43,5.68-.69,12.48-.51,18.2-.1.68.05,1.76.07,2.38.22.53.13.95.49,1.05,1.05s.11,2.89.02,3.47c-.11.69-.83,1.12-1.47,1.23-1.73.3-4,.25-5.78.32-4.12.15-8.48.23-12.59-.1-.98-.08-3.05-.12-3.53-1.07-.37-.73-.38-4,.21-4.59Z"/>
  <path fill="#FFFFFF" d="M44.48,152.46c5.13-.48,6.65,6.82,1.78,8.38-6.09,1.95-8.24-7.77-1.78-8.38Z"/>
</svg>