<?xml version="1.0" encoding="UTF-8"?>
<svg id="Layer_1" data-name="Layer 1" xmlns="http://www.w3.org/2000/svg" viewBox="0 0 152.12 145.16">
  <path fill="#FFFFFF" d="M35.92,145.14h-1.1c-3.22-.61-4.01-5.11-.97-6.52,4.1-1.9,6.86,3.81,3.2,6.1l-1.13.42Z"/>
  <path fill="#FFFFFF" d="M117.22,145.14h-1.1c-1.94-.43-2.99-1.97-2.8-3.95.3-3.02,4.31-3.93,6.08-1.58,1.62,2.14.32,4.96-2.18,5.53Z"/>
  <path fill="#FFFFFF" d="M152.12,109.64v.1c-.27,4.67-7.13,4.45-6.9-.25.2-4.26,6.82-4.05,6.9.15Z"/>
  <path fill="#FFFFFF" d="M102.92,145.14c-.23.03-.77.03-1,0-3.62-.49-4.06-5.92-.32-6.77,4.81-1.1,5.67,6.18,1.32,6.77Z"/>
  <path fill="#FFFFFF" d="M152.12,95.44v.1c-.32,4.67-7.44,4.22-6.89-.54.48-4.15,6.8-3.79,6.89.44Z"/>
  <path fill="#FFFFFF" d="M50.12,145.14c-.23.03-.77.03-1,0-4.33-.59-3.49-7.87,1.32-6.77,3.74.85,3.3,6.28-.32,6.77Z"/>
  <path fill="#FFFFFF" d="M152.12,49.54c0,.07,0,.13,0,.2-.15,4.31-6.73,4.53-6.9.05-.18-4.55,6.75-4.59,6.9-.25Z"/>
  <path fill="#FFFFFF" d="M152.12,35.34v.1c-.43,5.5-8.81,3.51-6.57-1.52,1.47-3.3,6.47-2.09,6.57,1.42Z"/>
  <path fill="#FFFFFF" d="M35.02,26.24h15c.07-1.68.04-3.37.1-5.05.08-2.32.22-4.67.31-6.99.03-.71-.18-2.65.29-3.11.7-.68,1.46.26,1.85.76.67.88,3.56,5.79,3.56,6.64v7.75h7.5c-.1-1.82-.08-3.63-.1-5.45,0-.74-.17-1.5-.1-2.29.14-1.64,1.73-4.14,2.68-5.52.7-1.02,2.35-3.61,2.92-.98l.82,12.08c2.13,2.54,4.36,5.07,6.07,7.91l.21.06c.52-1.14,1.4-2.19,2.16-3.19,1.25-1.64,2.58-3.22,3.92-4.78l.83-12.17c.58-2.31,1.98-.27,2.67.71,1,1.41,2.77,4.19,2.92,5.88.07.8-.1,1.56-.1,2.29-.02,1.83,0,3.64-.1,5.45h7.5v-7.75c0-.86,2.89-5.76,3.56-6.64.38-.5,1.15-1.44,1.85-.76.47.46.26,2.4.29,3.11.09,2.32.23,4.67.31,6.99.06,1.68.04,3.37.1,5.05h15c.02-.35-.03-.7,0-1.05.32-4.18.14-8.42.4-12.6.02-.4.07-1.34.36-1.54.44-.31.85-.17,1.24.13.78.61,3.62,5.63,3.93,6.67.74,2.53-.05,5.75.17,8.38h2.8v2.7h7.65c.9,0,6.22,3.12,7.04,3.86.95.85.82,1.73-.54,1.84-1.66.14-3.53.04-5.21.09l-8.95.3v15c.53-.08,1.05.08,1.55.1,3.99.18,8.02.05,12,.3.28.02,1.13.09,1.33.17.93.39.22,1.35-.27,1.78-1.03.9-5.42,3.43-6.7,3.7-2.41.53-5.43-.14-7.91.04v7.5c.75-.02,1.5.02,2.25,0,2.75-.07,5.39-.59,7.91.68.95.48,4.27,2.45,4.84,3.16,1.02,1.28-.51,1.56-1.45,1.65-3.77.38-7.6.38-11.38.72-.88.87-2.09,1.59-2.97,2.43-.08.07-.32.26-.25.35l3.12,2.58,12.17.83c.88.13,1.41.65.81,1.5-.64.9-5.25,3.62-6.38,3.92-1.44.38-2.97.09-4.42.07s-2.84.07-4.25-.1v7.5h7.55c.97,0,6.59,3.25,7.35,4.05.64.66.51,1.52-.46,1.65-.56.07-1.22-.02-1.8,0-2.29.1-4.6.24-6.89.31-1.91.06-3.84.06-5.75.1v15c1.14.17,2.3.06,3.45.1,2.32.07,4.67.22,6.99.31,1.31.05,2.69-.05,4,.1.93.1,1.09.91.52,1.57-.73.83-5.77,3.67-6.89,3.96-1.5.39-5.23.23-6.93.17-.37-.01-.75-.18-1.15-.1v2.8h-2.8c-.21,2.49.48,5.48-.04,7.91-.25,1.14-3.14,6.31-3.99,7.06-.42.37-1.14.54-1.45-.03-.11-.2-.19-1.01-.21-1.29-.13-2.03-.14-4.25-.21-6.29-.08-2.45-.05-4.91-.2-7.35h-15l-.6,14.95c-.68.7-1.18.28-1.7-.31-.69-.77-3.8-6.09-3.8-6.9v-7.75h-7.5c.11,1.78.08,3.56.1,5.35,0,.77.18,1.57.1,2.39-.15,1.63-1.86,4.31-2.82,5.68-.67.96-2.1,3.19-2.77.91l-.83-12.17c-1.83-2.48-4.44-4.98-5.96-7.64-.08-.14-.12-.28-.12-.43l-.2.07c-.05.36-.32.67-.52.97-1.67,2.46-3.71,4.72-5.56,7.04l-.82,12.08c-.47,1.96-1.51.88-2.28-.12-1.08-1.38-3.16-4.69-3.32-6.38-.07-.79.09-1.56.1-2.29.02-1.83,0-3.64.1-5.45h-7.5v7.75c0,.81-3.12,6.12-3.8,6.9-.52.58-1.03,1-1.7.31l-.6-14.95h-15c-.02.35.03.7,0,1.05-.32,4.18-.12,8.42-.4,12.6-.02.28-.1,1.09-.21,1.29-.32.57-1.03.4-1.45.03-.84-.74-3.74-5.93-3.99-7.06-.53-2.42.18-5.41-.04-7.91h-2.8v-2.8c-.4-.07-.78.09-1.15.1-1.7.06-5.43.22-6.93-.17-1.12-.29-6.16-3.14-6.89-3.96-.58-.66-.42-1.46.52-1.57,2.41-.26,5.33-.22,7.8-.3,2.22-.07,4.44-.01,6.65-.2v-15c-1.91-.04-3.84-.03-5.75-.1-2.29-.07-4.6-.2-6.89-.31-.63-.03-1.82.16-2.31-.19-.56-.4-.36-1.03.05-1.46.76-.79,6.39-4.05,7.35-4.05h7.55v-7.5c-1.41.17-2.83.07-4.25.1s-2.99.32-4.42-.07c-1.12-.3-5.74-3.03-6.38-3.92s-.06-1.36.81-1.5l12.17-.83,3.12-2.58c.07-.1-.17-.28-.25-.35-.88-.84-2.08-1.56-2.97-2.43-3.78-.34-7.61-.34-11.38-.72-.5-.05-1.31-.07-1.6-.5-.57-.86.69-1.59,1.27-2.02,1.15-.84,4.16-2.8,5.47-3.03,1.66-.3,4.41.01,6.15.06.75.02,1.51-.02,2.25,0v-7.5c-2.21-.08-4.44.24-6.65.1-1.29-.08-2.02-.39-3.15-.95-1-.5-4.89-2.67-5.34-3.46-.71-1.23.77-1.34,1.59-1.39,2.04-.13,4.24-.14,6.29-.21,2.42-.08,4.84-.04,7.25-.2v-15l-8.95-.3c-1.68-.06-3.55.05-5.21-.09-1.36-.11-1.48-.99-.54-1.84.82-.74,6.14-3.86,7.04-3.86h7.65v-2.7h2.8c.24-2.61-.57-5.87.17-8.38.31-1.05,3.14-6.06,3.93-6.67.39-.31,1.07-.49,1.39.01.1.16.19,1.04.21,1.29.2,3.08.2,6.39.31,9.49.05,1.42,0,2.84.1,4.25ZM76.12,32.94c-.28-.08-.2.22-.35.4-1.02,1.15-3.84.71-5.25.8.05,1.28-.16,2.19-.75,3.3-.97,1.84-2.34,3.47-3.56,5.15.57.77,1.18,1.5,1.73,2.28.77,1.1,2.24,3.16,2.47,4.43.09.53.1,1.2.11,1.74,1.45.11,4.27-.41,5.3.85.1.12.06.32.15.35.17.06.28-.6.56-.64,1.49-.89,3.34-.46,4.99-.56.01-.54.02-1.21.11-1.74.22-1.27,1.7-3.33,2.47-4.43.55-.78,1.17-1.51,1.73-2.28-1.21-1.68-2.58-3.31-3.56-5.15-.59-1.11-.8-2.02-.75-3.3-1.29-.05-2.64.13-3.91-.14-.6-.13-1.38-.36-1.5-1.05ZM41.9,34.16c-1.56.14-2.9.8-3.88,2.02-.25.31-.51.93-.75,1.15-.25.24-.86.52-1.2.8-2.42,2.02-2.69,6.11-.49,8.39,2.69,2.78,8.28,2.94,11.67,1.49.16-.07.41-.14.52-.28.25-.3.68-1.86.79-2.31,1.1-4.74-.49-11.82-6.65-11.25ZM63.92,34.14h-8c-.04,1.35-.03,2.71-.1,4.05s-.31,3.02-.31,4.4.24,2.99.31,4.4.06,2.71.1,4.05h8c.14-2.41.26-4.83.51-7.24.04-.37.24-.9.24-1.21,0-.84-.37-2.25-.45-3.2-.15-1.74-.15-3.51-.3-5.25ZM96.12,34.14h-8c-.14,2.41-.26,4.83-.51,7.24-.04.36-.24.9-.24,1.21,0,.78.37,2.19.45,3.1.15,1.78.15,3.57.3,5.35h8c.04-1.35.03-2.71.1-4.05.07-1.41.31-3.01.31-4.4s-.24-3.05-.31-4.5c-.06-1.31-.05-2.64-.1-3.95ZM108.9,34.16c-3.54.32-4.95,3.1-5.55,6.25-.36,1.87-.3,3.14.14,5,.11.46.53,2.02.79,2.31.23.27,1.99.77,2.43.87,4.79,1.1,11.64-.49,11.22-6.62-.11-1.56-.77-2.85-1.96-3.84-.34-.28-1.02-.61-1.25-.85s-.45-.79-.7-1.1c-1.25-1.56-3.14-2.2-5.12-2.02ZM76.12,53.04l-.2.07c-.1.45-.45.88-.72,1.27-1.62,2.34-3.57,4.53-5.36,6.74l-.52,8.23-8.13.52-3.37,2.78,3.27,2.58,8.21.63.54,8.12c2.06,2.67,4.43,5.15,6.13,8.07l2.21-3.09,4.02-4.98.54-8.12,8.22-.63,3.27-2.63-3.37-2.73-8.13-.52-.52-8.23c-1.87-2.45-4.37-4.93-5.92-7.58-.09-.16-.17-.3-.16-.49ZM51.02,55.94c-2.22.02-4.43-.13-6.65-.2-2.79-.09-5.24.11-8,.21-.75.03-1.51-.03-2.25,0v8c1.96.2,3.97.23,5.95.4.72.06,1.85.38,2.48.36.99-.02,2.43-.38,3.52-.46,1.64-.13,3.32-.1,4.95-.3v-8ZM117.92,55.94l-6.55-.2c-2.79-.09-5.24.11-8,.21-.78.03-1.57-.03-2.35,0v8c1.63.2,3.31.17,4.95.3,1.04.08,2.68.48,3.59.46.67-.01,1.68-.3,2.42-.36,1.98-.17,3.99-.2,5.95-.4v-8ZM63.62,58.94h-4.7v4.7l4.6-.1.1-4.6ZM93.12,58.94h-4.7l.1,4.6,4.6.1v-4.7ZM34.12,74.64h1.65c.88,0,3.92,2.11,4.78,2.72.34.24,1.8,1.49,2.02,1.48,1.3-.98,2.57-1.99,3.96-2.84.53-.33,2.21-1.36,2.74-1.36h1.75v-4.1c-2.19.27-3.96-1.01-5.67-2.18-.98-.67-1.89-1.44-2.86-2.12-.78.67-1.59,1.29-2.43,1.88-1.76,1.22-3.66,2.67-5.93,2.42v4.1ZM101.02,74.64h1.75c.54,0,2.21,1.03,2.74,1.36,1.39.85,2.66,1.86,3.96,2.84.22,0,1.68-1.24,2.02-1.48.86-.6,3.9-2.72,4.78-2.72h1.65v-4.1c-2.27.25-4.17-1.2-5.93-2.42-.84-.58-1.66-1.21-2.43-1.88-.97.68-1.88,1.45-2.86,2.12-1.72,1.17-3.48,2.45-5.67,2.18v4.1ZM51.02,81.14c-2.85-.14-5.72-.23-8.54-.7-2.75.49-5.57.56-8.36.7v8l8.75.4,8.15-.4v-8ZM117.92,81.14c-1.81-.11-3.64-.15-5.45-.3-.89-.07-2.19-.41-3-.4s-2.02.33-2.91.4c-1.84.15-3.7.2-5.55.3v8c1.89.09,3.77.12,5.65.2,2.1.08,3.59.08,5.69,0,1.85-.07,3.71-.1,5.55-.2v-8ZM58.92,81.44v4.7h4.7l-.1-4.6-4.6-.1ZM93.12,81.44l-4.6.1-.1,4.6h4.7v-4.7ZM76.12,92.94c-.28-.07-.22.25-.4.45-.88.98-3.96.69-5.2.75.04,1.17-.13,2.07-.65,3.1-.96,1.91-2.43,3.58-3.64,5.33,1.23,1.75,2.86,3.6,3.77,5.53.44.92.52,1.92.51,2.94,1.73.18,4.33-.6,5.45,1.1h.15c.28-1.69,5.17-.87,5.4-1.1.01-.54.02-1.21.11-1.74.21-1.19,1.46-3,2.17-4.03.63-.93,1.36-1.78,2.01-2.7-1.69-2.58-4.45-5.12-4.29-8.43-1.22-.05-4.43.23-5.25-.8-.09-.11-.13-.26-.15-.4ZM63.92,94.14h-8c-.04,1.31-.03,2.64-.1,3.95-.07,1.44-.32,3.08-.31,4.5s.24,2.99.31,4.4.06,2.71.1,4.05h8c.15-1.78.15-3.57.3-5.35.08-.9.45-2.32.45-3.1,0-.84-.37-2.25-.45-3.2-.15-1.74-.14-3.51-.3-5.25ZM96.12,94.14h-8c-.15,1.74-.15,3.51-.3,5.25-.08.95-.45,2.36-.45,3.2,0,.78.37,2.2.45,3.1.15,1.78.15,3.57.3,5.35h8c.04-1.35.03-2.71.1-4.05.07-1.41.31-3.01.31-4.4s-.24-3.05-.31-4.5c-.06-1.31-.05-2.64-.1-3.95ZM41.8,96.17c-4.77.39-9.31,3.31-7.28,8.72.66,1.77,1.56,1.83,2.71,2.89.46.43.83,1.28,1.39,1.81,1.85,1.73,5.49,1.86,7.45.25,3.11-2.56,3.51-8.53,1.9-12-.31-.67-.54-.66-1.2-.9-1.39-.52-3.5-.89-4.97-.77ZM108.8,96.17c-.84.07-3.96.66-4.48,1.22-.14.15-.22.41-.3.6-1.49,3.56-1.17,9.43,2.05,11.95,2.06,1.61,5.8,1.31,7.6-.6.41-.43.77-1.21,1.14-1.56.53-.49,1.23-.75,1.8-1.4,1.73-1.96,1.75-5.5.11-7.5s-5.48-2.91-7.92-2.72Z"/>
  <path fill="#FFFFFF" d="M21.52,123.54c0,.82,0,1.64,0,2.45-.04,2.45-1.57,4.81-3.01,6.78-.39.53-1.44,2.15-2.23,1.27-.54-.6-.32-4.47-.56-4.69l-4.22-.33c-.89-.23-.82-1.04-.26-1.61.73-.76,5.75-3.86,6.64-3.86h3.65Z"/>
  <path fill="#FFFFFF" d="M21.52,21.54c-1.04,0-2.1.19-3.15.1-1.6-.15-5.8-2.66-7-3.8-.81-.77-.77-1.55.41-1.79l3.94-.21c.25-.95,0-4.14.6-4.75.32-.33.77-.21,1.11,0,.78.47,3.33,4.75,3.74,5.76.64,1.57.27,3.04.35,4.7Z"/>
  <path fill="#FFFFFF" d="M134.17,123.54c1.16.16,5.69,2.93,6.58,3.82,1.23,1.22.06,1.65-1.08,1.78-1.08.12-2.26.05-3.34.21-.24.86-.04,4.25-.61,4.74-.48.42-1.09.03-1.45-.35-.74-.77-3.75-5.57-3.75-6.45v-3.75c1.14.11,2.55-.15,3.65,0Z"/>
  <path fill="#FFFFFF" d="M130.52,17.79c.16-1.03,3.03-5.77,3.83-6.52,2.24-2.08,1.7,3.64,1.97,4.56l4.03.22c1.92.67.3,1.8-.59,2.46-1.39,1.02-4.41,2.96-6.08,3.12-1.05.1-2.1-.09-3.15-.1.13-1.14-.17-2.65,0-3.75Z"/>
  <path fill="#FFFFFF" d="M2.79,92.06c4.71-.68,5.53,6.26,1.06,6.76-4.69.53-5.13-6.17-1.06-6.76Z"/>
  <path fill="#FFFFFF" d="M3,106.36c4.73-.51,5.02,6.29.96,6.76-4.73.55-5.43-6.28-.96-6.76Z"/>
  <path fill="#FFFFFF" d="M101.69.06c5.36-.83,5.4,7.41.19,6.76-3.81-.47-3.79-6.2-.19-6.76Z"/>
  <path fill="#FFFFFF" d="M48.89.06c4.91-.77,5.58,6.14,1.35,6.75-4.81.7-5.19-6.15-1.35-6.75Z"/>
  <path fill="#FFFFFF" d="M2.69,46.36c5.91-.8,5.01,7.92-.18,6.63-3.42-.85-3.32-6.15.18-6.63Z"/>
  <path fill="#FFFFFF" d="M34.69.06c5.38-.78,5.31,7.46.1,6.75-3.8-.52-3.68-6.23-.1-6.75Z"/>
  <path fill="#FFFFFF" d="M115.89.06c4.04-.63,5.82,4.48,2.46,6.36-3.18,1.77-6.41-1.87-4.51-4.91.39-.62,1.32-1.33,2.06-1.44Z"/>
  <path fill="#FFFFFF" d="M3.1,31.96c4.79-.47,5.14,7.43-.32,6.76-3.8-.47-3.68-6.37.32-6.76Z"/>
</svg>