<?xml version="1.0" encoding="UTF-8"?>
<svg id="Layer_1" data-name="Layer 1" xmlns="http://www.w3.org/2000/svg" viewBox="0 0 129.38 130.7">
  <path fill="#FFFFFF" d="M38.5,130.7h-1c-2.98-.72-2.68-5.1.45-5.11,2.93,0,3.33,4.31.55,5.11Z"/>
  <path fill="#FFFFFF" d="M92,130.7h-1.1c-2.74-.83-2.34-5.1.55-5.11,3.12,0,3.43,4.26.55,5.11Z"/>
  <path fill="#FFFFFF" d="M0,38.2v-1.1c.56-2.43,3.92-2.93,4.8-.45,1.21,3.39-3.71,4.95-4.8,1.55Z"/>
  <path fill="#FFFFFF" d="M38.5,0c1.19.39,1.99,1.46,1.9,2.75-.13,1.95-2.35,3.06-3.95,1.85-1.86-1.41-1.1-3.92.95-4.6h1.1Z"/>
  <path fill="#FFFFFF" d="M0,93.6v-1.1c1.09-3.47,6.14-1.74,4.78,1.63-.97,2.39-4.19,1.85-4.78-.53Z"/>
  <path fill="#FFFFFF" d="M92,0c2.26.63,2.81,3.81.6,4.85-3.28,1.55-5.18-3.73-1.7-4.85h1.1Z"/>
  <path fill="#FFFFFF" d="M42,20.1l1.23.42c.64.38,0,2.24-.03,2.88.44-.12,1-.27,1.45-.3.39-.03,1.15-.13,1.33.27l.42,1.33c-.2-1.93,1.45-3.13,2.55-4.4,1.41-1.64,3.1-3.56,4.17-5.43.22-.39.72-1.68.93-1.87.4-.37,2.58-.7,3.22-.78s1.68-.22,2.29-.22c1.09,0,.32,1.9.06,2.47-1.42,3.19-4.3,4.83-6.06,7.44-.72,1.07-.73,1.6.09,2.59,2.74,3.31,6.6,6.7,9.65,9.85.21.22,1.2,1.49,1.43,1.45l11.21-11.5c.92-1.04.26-1.94-.44-2.84-1.93-2.47-4.64-4.24-5.85-7.35-.2-.53-.79-2.12.2-2.1,1.26.03,3.36.28,4.57.63,1.44.41,1.11.9,1.76,2.04,1.54,2.7,3.54,4.52,5.47,6.83.76.91,1.52,1.94,1.35,3.2l.45-1.4c.17-.3.95-.23,1.29-.2.46.03,1.01.18,1.45.3.12-.16-.55-2.12-.18-2.73.15-.26,1.15-.42,1.48-.47l-.98-.17c-3.18-1.8-5.33-4.83-8.53-6.77-.4-.24-1.72-.81-1.89-1.01-.44-.49-.87-3.81-.9-4.6s-.26-1.73.73-1.63c3.04.3,6.15,4.41,8.33,6.28.87.75,1.88,1.52,2.9.5l11.25-11.45c3.99-3.3,8.94,2.13,11,5.3,1.77,2.72,3.1,5.68,4,8.8,5.02,1.62,11.28,4.78,13.92,9.58,2.25,4.09.01,5.68-2.61,8.42s-5.4,5.24-7.85,7.95c-1.2,1.32-1.89,1.81-.69,3.49,1.88,2.63,5.18,4.67,6.21,7.99.16.52.38,1.15.14,1.68-.45.31-5.46-.4-5.96-.85-.21-.2-.71-1.48-.93-1.87-.85-1.52-2.18-3.15-3.32-4.48-1.51-1.76-4.51-3.91-3-6.5l11.75-12.05c1.12-1.35.27-2.91-.55-4.16-1.45-2.21-3.91-3.87-6.05-5.35.05,1.4.46,2.83.55,4.25.27,4.5-1.55,9.06-3.65,12.95-.66,1.22-1.47,2.87-2.55,3.67-.23.52-.51,2.57-.8,2.88-.39.41-2.14-.1-2.7-.15,0,.64.62,2.39.05,2.8-.49.36-2.14.46-2.69.79-.09.06-.33.46-.52.61-2.94,2.44-10,5.62-13.8,5.8-1.99.09-4.11-.38-6.05-.7-.16.15,1.92,3,2.16,3.29.89,1.12,1.93,2.28,3.13,3.07.96.64,2.31,1.42,3.44.82,4.28-3.71,7.83-8.29,11.96-12.14,2.39-2.22,4.99,1.36,6.6,2.81,1.34,1.21,3.03,2.61,4.57,3.53,1.42.85,1.69.32,2.1,2.2.32,1.46.38,2.97.5,4.46-.08.71-1.31.31-1.72.17-3.29-1.14-5.23-4.36-7.75-6.35-.68-.54-1.47-.98-2.28-.4l-11.5,11.69,11.25,11.45c.94.95,1.84.4,2.7-.31,2.28-1.88,3.99-4.53,6.82-5.88.48-.23,2.5-1.11,2.51-.08,0,.72-.1,1.68-.18,2.41-.07.61-.39,2.8-.68,3.22-.21.29-1.82,1.01-2.29,1.31-1.3.82-2.76,2.06-3.91,3.09-1.66,1.49-3.64,4.45-6.19,3.3l-11.95-12.15c-1.13-1.08-2.39-.52-3.54.16-2.42,1.42-4.23,4.17-5.71,6.49-.03.24.06.13.21.11,2.06-.28,4.01-.8,6.14-.66,3.66.25,10.26,3.26,13.18,5.52.28.22.78.85.84.89.51.32,2.21.41,2.68.79.57.45-.05,2.13-.05,2.8.56-.08,2.31-.56,2.7-.15.29.3.5,2.22.78,2.72.12.22.37.28.52.48,2.25,2.78,5.44,10.07,5.7,13.6.17,2.3-.25,4.59-.6,6.85.12.14,2.07-1.29,2.29-1.46,1.7-1.31,3.84-3.23,4.63-5.27s-.31-2.72-1.57-4.07c-3.38-3.63-7.06-7.02-10.45-10.65-1.74-2.41,2.09-5.41,3.5-7.1.95-1.14,2.09-2.6,2.82-3.88.22-.39.72-1.68.93-1.87.79-.72,4.56-.82,5.69-.97.8.08.08,1.99-.12,2.44-.99,2.27-2.95,3.97-4.57,5.73-.68.74-2.17,2.18-2.03,3.22.09.63,1.35,1.86,1.83,2.38,3.21,3.44,6.71,6.63,9.89,10.11,2.96,3.76-1.6,8.57-4.55,10.73s-5.98,3.56-9.29,4.61c-1.54,5.03-4.66,11.61-9.43,14.27-3.69,2.05-5.12.31-7.57-2.16-2.94-2.96-5.73-6.18-8.74-9.06-1.25-1.19-1.87-1.19-3.2-.09-2.45,2.02-4.69,5.46-7.98,6.33-1.52.4-1.34-.13-1.28-1.48.04-.81.44-4.08.9-4.6.24-.27,1.72-.91,2.19-1.21,2.92-1.83,5.01-4.58,7.84-6.46l1.37-.28-1.38-.32c-.51-.87.05-1.94.08-2.88-.58.11-2.46.64-2.78.03l-.42-1.33c.15,2.22-1.99,3.72-3.3,5.25s-2.58,3.12-3.52,4.78c-.23.4-.58,1.45-.83,1.67-.52.47-5.58,1.19-5.93.87-.36-1.05.37-2.4.89-3.31,1.15-1.98,2.63-3.24,4.13-4.87.9-.98,2.65-2.54,1.59-3.9l-11.31-11.6c-.24-.04-1.77,1.77-2.03,2.05-2.59,2.66-5.33,5.24-7.85,7.95-.54.58-1.77,1.74-1.83,2.48-.08.97,1.57,2.61,2.23,3.32,1.34,1.46,2.61,2.57,3.69,4.31.61.98,1.39,2.37,1.06,3.55-.47.33-5.44-.38-5.96-.85-.21-.2-.71-1.48-.93-1.87-.85-1.52-2.18-3.15-3.32-4.48-1.34-1.56-3.5-3.09-3.4-5.35l-.42,1.33c-.17.39-.85.3-1.23.27-.5-.04-1.05-.21-1.55-.3-.09.1.53,2.05.23,2.68-.13.28-1.18.48-1.53.52l1.3.25c3.06,1.99,5.21,4.86,8.41,6.79.64.38,1.64.59,1.92,1.28.61,1.51.51,3.72.77,5.33-.05.86-1.26.43-1.75.26-3.34-1.17-5.2-4.33-7.75-6.35-.94-.74-1.56-.98-2.54-.16-4.12,3.43-7.62,8.44-11.82,11.88-3,1.87-6.58-1.05-8.53-3.23-2.82-3.16-4.66-7.36-5.95-11.35-4.95-1.53-11.68-5.01-14.04-9.86-1.96-4.03.46-5.66,2.98-8.28s5.54-5.31,7.95-8.05c.5-.57,1.16-1.2,1.03-2.03-.2-1.24-2.82-3.47-3.73-4.47-1.17-1.3-3.34-4.09-3.36-5.85,0-.14.04-.44.13-.53.36-.32,5.4.4,5.93.87.25.22.6,1.27.83,1.67.82,1.45,1.99,2.96,3.07,4.23,1.38,1.64,5.13,4.6,3.35,6.95l-11.65,11.95c-.75.93-.78,1.57-.37,2.67,1.11,2.93,4.27,5.13,6.77,6.83.22.04.15-.1.15-.25-.04-1.24-.52-2.77-.6-4.1-.26-4.72,2.79-12.56,5.8-16.2.12-.15.35-.18.45-.35.28-.47.48-2.48.78-2.77.83-.31,1.82.03,2.68.18.04-.66-.59-2.34-.05-2.81.4-.35,2.19-.48,2.69-.79.1-.06.33-.45.52-.61,2.89-2.4,9.86-5.57,13.6-5.8,2.09-.13,4.31.36,6.35.7-.96-1.57-2-3.14-3.25-4.5-1.17-1.27-3.77-3.57-5.58-2.68-4.17,3.91-8.06,8.14-12.07,12.23-2.4,2.02-5.16-1.75-6.8-3.2-1.19-1.05-2.72-2.32-4.07-3.13-.41-.25-1.61-.72-1.83-.97s-.37-1-.45-1.35c-.16-.72-.67-4.25-.4-4.7.2-.34.92-.11,1.23-.03,1.48.37,3.29,1.76,4.42,2.78,1.05.94,3.64,4.03,4.79,4.31s1.72-.73,2.4-1.41c3.5-3.44,6.84-7.02,10.3-10.5l-10.85-11.15c-1.27-1.12-1.81-1.06-3.1,0-2.29,1.89-4.04,4.59-6.89,5.91-.41.19-2.03.81-2.32.39-.31-.46.38-5.44.81-6,.21-.27,1.78-.97,2.24-1.26,1.3-.82,2.75-2.06,3.91-3.09,1.59-1.42,4.1-4.88,6.49-3.09l11.71,11.99c1.89,1.55,4.66-.86,5.95-2.25.35-.38,3.53-4.34,3.25-4.6-.92.16-1.84.37-2.76.49-3.49.44-5.64.04-8.89-1.18-2.38-.9-6.08-2.68-8.04-4.26-.27-.22-.5-.63-.74-.76-.55-.32-2.22-.44-2.63-.77-.53-.42.08-2.18.06-2.81-.62.05-2.29.62-2.7.05-.38-.52-.47-2.29-.79-2.79-.03-.05-.6-.48-.83-.79-2.8-3.79-5.64-10.9-5.38-15.62.07-1.34.55-2.86.6-4.1,0-.11.07-.31-.15-.25-.3.09-1.35.88-1.68,1.12-1.81,1.31-4.09,3.33-4.99,5.41-.5,1.17-.56,1.95.27,2.97l11.75,12.05c1.29,2.61-1.51,4.55-3,6.3-1.24,1.46-2.58,3.12-3.52,4.78-.23.4-.58,1.45-.83,1.67-.54.48-5.25,1.14-5.85.85-.48-.24,0-1.55.15-1.95,1.3-3.4,4.33-5.09,6.19-7.81.89-1.3.67-1.78-.29-2.89-2.25-2.62-5.22-5.22-7.65-7.75-2.66-2.75-5.53-4.55-3.49-8.79,2.36-4.89,9.14-8.31,14.09-9.91.89-3.05,2.15-5.87,3.86-8.54,1.97-3.08,7.02-8.85,10.99-5.71l11.4,11.6c.95.93,1.85.4,2.7-.31,2.33-1.92,4.15-4.75,7.09-6.01.52-.23,2.21-.91,2.26.07-.21,1.14-.24,4.83-.94,5.65-.27.32-1.44.75-1.89,1.01-1.41.84-3.04,2.22-4.27,3.33-1.5,1.34-3,3.58-5.2,3.55ZM40.9,19.8l-11.95-12.2c-1.81-1.48-4.55.87-5.8,2.2s-2.37,2.95-3.35,4.55c-.03.24.06.13.21.11,1.5-.2,2.99-.6,4.54-.66,3.93-.17,8.65,1.87,12.02,3.79.91.52,2.22,1.57,3.06,1.94.36.16.88.24,1.27.28ZM109.6,14.5c.26-.26-2.79-4.11-3.15-4.5-1.3-1.41-4.22-4.03-6.1-2.3l-11.95,12.2c1.52-.23,2.64-1.28,3.93-2.02,3.62-2.07,8.37-4.28,12.62-4.09,1.55.07,3.12.41,4.65.7ZM26.5,18.5c-2.6-.84-5.46-1.4-8.15-.6-.71,2.86-.22,5.87.75,8.6l1.54-2.3c.41-.71,2.44-1.25,2.76-1.64.3-.36.64-1.56,1.05-2.15.57-.82,1.32-1.25,2.04-1.91ZM110.2,26.5c.14-.01.16-.15.2-.25.22-.48.4-1.24.53-1.77.5-2.13.7-4.45.12-6.58-2.68-.81-5.55-.24-8.15.6.93.75,1.69,1.28,2.32,2.33.22.36.67,1.6.84,1.76.2.2,1.35.62,1.74.86,1.07.67,2.05,1.82,2.41,3.04ZM29.07,25.62c-2.39.38-2.9,2.91-2.77,4.92.17,2.71,1.06,5.73,1.75,8.35,1.65.5,3.34.94,5.03,1.27,4.54.88,8.49,1.22,7.92-4.82-.25-2.65-1.05-5.37-1.65-7.95-.19-.26-5.23-1.35-5.93-1.47-1.3-.22-3.05-.51-4.34-.31ZM51.9,47.3c.1.1,1.69-1.01,1.89-1.16,1.42-1.03,3.2-2.57,4.17-4.03.76-1.14,1.68-2.78.72-4.05l-12.08-12.47c.2,1.58,1.27,2.77,2.02,4.13,1.43,2.6,2.85,5.79,3.51,8.69s.32,5.88-.23,8.88ZM77.5,47.3c-.44-2.78-.9-5.49-.35-8.3s2.05-6.28,3.44-8.86c.52-.97,1.43-2.14,1.86-3.04.19-.4.25-1.05.36-1.49l-11.95,12.3c-.66.86-.66,1.52-.3,2.5.7,1.91,2.45,3.63,4,4.9.27.22,2.8,2.16,2.95,2ZM90.12,27.32c-.16.13-.89,3.47-.99,3.96-.81,3.94-2.25,9.75,3.82,9.42,2.73-.15,5.77-1.09,8.41-1.79.21-.19,1-3.81,1.11-4.39.35-1.76,1.04-5.02.42-6.66-1.28-3.39-5.69-2.19-8.41-1.63-1.47.3-2.92.7-4.36,1.09ZM48.58,48.78c.69-2.78.23-5.71-.68-8.38l-1.19,1.65c-.46.73-2.36,1.23-2.75,1.65-.24.26-.61,1.38-.88,1.82-.65,1.06-1.71,1.94-2.88,2.37-.04.23.01.16.13.22.23.12.7.24.97.33,1.8.56,3.98.85,5.85.65.24-.03,1.33-.2,1.43-.32ZM85.48,43.62c-.11-.1-.94-.34-1.18-.47-.84-.45-1.46-1-2.09-1.71l-.7-1.05c-.9,2.69-1.33,5.58-.68,8.38,1.96.57,4.2.42,6.18-.03.78-.18,1.52-.48,2.3-.65-.44-.39-1.01-.59-1.49-.96-.62-.47-1.24-1.2-1.63-1.87-.17-.29-.64-1.58-.71-1.64ZM87.7,65.3c-4.83-3.03-7.54-8.77-9.19-14.06-5.01-1.65-10.12-4.27-13.29-8.61-.13-.18-.35-.73-.57-.73-3,4.81-8.52,7.62-13.76,9.34-1.6,5.38-4.38,10.85-9.09,14.11,4.75,3.23,7.46,8.77,9.12,14.13,4.53,1.39,8.89,3.72,12.18,7.17l1.65,2.15c3.01-4.81,8.51-7.61,13.75-9.35,1.44-4.8,3.79-9.47,7.5-12.9l1.7-1.25ZM40.1,82.6c.41.32.9.52,1.33.82,1.36.95,1.9,2.17,2.57,3.63,1.02.43,2.08.94,2.85,1.75.37.4.6.93.9,1.3.09.11.11.13.2,0,.21-.31.53-1.74.62-2.18.39-1.95.56-4.17-.07-6.07-2.83-.73-5.69-.13-8.4.75ZM89.3,82.6c-2.7-.91-5.58-1.47-8.4-.75-.82,2.79-.25,5.75.6,8.45l1.25-1.7c.81-.67,1.7-1.24,2.72-1.52.49-1.44,1.16-2.65,2.39-3.56.46-.34.98-.58,1.43-.92ZM46.7,104.9l11.94-12.21c.98-1.34.14-2.85-.64-4.05-1.45-2.21-3.91-3.87-6.05-5.35.06,1.4.47,2.83.55,4.25.26,4.61-1.62,9.24-3.79,13.22-.73,1.33-1.87,2.62-2.02,4.13ZM77.5,83.4c-.19-.21-3.21,2.2-3.5,2.45-1.7,1.47-4.97,4.76-3.05,7.05l11.85,12.2c-.11-.46-.18-1.07-.36-1.49-.39-.9-1.43-2.25-1.96-3.24-1.31-2.46-2.6-5.46-3.21-8.19-.68-3.02-.29-5.78.23-8.78ZM36.08,90.03c-1.56.12-3.45.56-4.98.92-.48.11-2.93.67-3.09.91-.18.27-.46,1.62-.56,2.04-1.08,4.34-3.28,11.67,3.7,11.2.91-.06,7.93-1.42,8.2-1.8.35-1.42.73-2.84,1.02-4.28.85-4.27,2-9.48-4.29-8.99ZM101.38,91.72c-2.64-.56-5.53-1.54-8.23-1.72-6.26-.41-4.87,5.29-4.02,9.42.28,1.33.6,2.66.99,3.96,1.31.34,2.63.71,3.96.99,4.54.97,9.46,2.11,9.02-4.42-.06-.87-1.38-7.99-1.72-8.23ZM23.38,108.02c-1.94-.53-3.47-1.98-4.23-3.82-1.09,2.69-1.46,5.73-.83,8.58,2.7.81,5.56.23,8.18-.58.06-.24-.04-.16-.13-.22-1.56-1.09-2.43-2.08-2.99-3.95ZM111.08,112.78c.48-2.01.38-4.07-.03-6.08-.13-.64-.38-1.67-.65-2.25-.05-.1-.07-.23-.2-.24-.43,1.25-1.34,2.39-2.47,3.08-.38.23-1.48.62-1.69.81-.16.16-.61,1.4-.83,1.77-.62,1.05-1.4,1.57-2.32,2.33,2.62.81,5.48,1.39,8.18.58ZM41,110.8c-1.51.21-2.65,1.28-3.93,2.02-3.47,2-8.35,4.25-12.42,4.09-.87-.04-1.91-.2-2.78-.32-.64-.09-1.31-.31-1.92-.38-.16-.02-.16-.02-.14.14,1.42,2.19,3.08,4.75,5.29,6.22,1.19.78,2.73,1.65,3.97.44l11.95-12.2ZM109.6,116.2c-2.6.5-5.18.97-7.82.47-3.03-.57-6.58-2.21-9.25-3.75-.81-.47-2.01-1.43-2.74-1.76-.4-.18-.96-.22-1.39-.36l11.95,12.2c1.82,1.71,4.73-.82,6-2.2.35-.38,3.52-4.34,3.25-4.6Z"/>
  <path fill="#FFFFFF" d="M47.08,124.52c3.35-.18,3.37,5.16.17,5.18s-3.5-5-.17-5.18Z"/>
  <path fill="#FFFFFF" d="M3.07,44.52c3.36-.58,4.04,4.71.77,5.06s-3.72-4.56-.77-5.06Z"/>
  <path fill="#FFFFFF" d="M2.97,81.12c2.29-.39,3.89,2.07,2.57,3.97-1.73,2.48-5.27.38-4.42-2.32.24-.75,1.07-1.52,1.85-1.65Z"/>
  <path fill="#FFFFFF" d="M125.37,81.12c3.66-.62,4.03,4.73.77,5.06s-3.72-4.56-.77-5.06Z"/>
  <path fill="#FFFFFF" d="M126.37,90.62c3.74-.64,4,4.76.76,5.07s-3.66-4.57-.76-5.07Z"/>
  <path fill="#FFFFFF" d="M125.48,44.53c3.64-.52,3.99,5.37.18,5.07-2.94-.23-2.88-4.69-.18-5.07Z"/>
  <path fill="#FFFFFF" d="M99.98,62.53c3.83-.52,3.69,5.82-.18,5.03-2.63-.54-2.58-4.65.18-5.03Z"/>
  <path fill="#FFFFFF" d="M28.57,62.52c3.27-.5,4.03,4.52.95,5.05-3.53.61-3.99-4.59-.95-5.05Z"/>
  <path fill="#FFFFFF" d="M109.28,62.53c3.34-.44,3.78,4.67.77,5.06-3.39.44-4.02-4.64-.77-5.06Z"/>
  <path fill="#FFFFFF" d="M64.58,108.83c3.15-.39,3.9,4.65.76,5.07-3.62.48-3.86-4.68-.76-5.07Z"/>
  <path fill="#FFFFFF" d="M64.27,16.74c3.44-.05,3.16,5.18-.02,5.16s-3.34-5.11.02-5.16Z"/>
  <path fill="#FFFFFF" d="M46.98,1.02c1.79-.21,3.12,1.71,2.57,3.37s-2.4,2.26-3.78,1.28c-1.96-1.39-1.08-4.39,1.21-4.66Z"/>
  <path fill="#FFFFFF" d="M126.47,35.02c3.3-.52,4.07,4.65.87,5.07-3.44.45-3.87-4.59-.87-5.07Z"/>
  <path fill="#FFFFFF" d="M64.68,99.32c1.29-.09,2.58,1.07,2.71,2.34.27,2.68-3.28,3.85-4.65,1.55-.93-1.55.14-3.76,1.95-3.89Z"/>
  <path fill="#FFFFFF" d="M19.27,62.52c2.13-.36,3.84,2.22,2.53,4.03-1.05,1.45-3.13,1.43-4.14-.06-.96-1.39-.09-3.68,1.62-3.97Z"/>
  <path fill="#FFFFFF" d="M64.08,26.22c.9-.08,1.87.45,2.34,1.21,1.49,2.42-1.72,5.27-3.82,3.22-1.57-1.53-.66-4.24,1.48-4.43Z"/>
  <path fill="#FFFFFF" d="M82.08,124.52c3.41-.19,3.49,5.11.16,5.17-3.13.06-3.31-4.99-.16-5.17Z"/>
  <path fill="#FFFFFF" d="M81.98,1.02c1.19-.12,2.48.86,2.71,2.04.46,2.33-2.2,4.02-4.02,2.52-1.66-1.36-.9-4.33,1.31-4.56Z"/>
  <g>
    <path fill="#FFFFFF" d="M31.58,96.73c3.24-.07,3.21,5.03.07,5.08-3.34.05-3.36-5.01-.07-5.08Z"/>
    <path fill="#FFFFFF" d="M35.07,92.72c3.17-.5,4.04,4.14,1.13,4.93-3.57.97-4.23-4.44-1.13-4.93Z"/>
  </g>
  <g>
    <path fill="#FFFFFF" d="M35.28,32.93c2.11-.18,3.52,2.3,2.22,4.02-1.8,2.38-5.13.35-4.33-2.33.27-.89,1.19-1.61,2.11-1.69Z"/>
    <path fill="#FFFFFF" d="M31.07,28.92c3.73-.63,4.05,5.5.08,4.97-2.7-.36-2.7-4.52-.08-4.97Z"/>
  </g>
  <g>
    <path fill="#FFFFFF" d="M97.68,96.72c3.15-.17,3.55,4.66.56,5.07-3.46.47-3.88-4.89-.56-5.07Z"/>
    <path fill="#FFFFFF" d="M93.47,92.72c3.56-.56,3.88,5.15.4,5.05-3.12-.09-3.21-4.61-.4-5.05Z"/>
  </g>
  <g>
    <path fill="#FFFFFF" d="M93.68,32.92c3.31-.34,3.59,4.78.47,5.08s-3.8-4.73-.47-5.08Z"/>
    <path fill="#FFFFFF" d="M97.27,28.92c2.72-.47,4.16,2.9,2.02,4.52-1.9,1.43-4.26-.24-3.87-2.57.14-.8,1.03-1.81,1.85-1.95Z"/>
  </g>
</svg>