<?xml version="1.0" encoding="UTF-8"?>
<svg id="Layer_1" data-name="Layer 1" xmlns="http://www.w3.org/2000/svg" viewBox="0 0 128 128">
  <path fill="#FFFFFF" d="M46.7,0l3.85,2.5c.49.44.48,1,.45,1.6,1.8-1.59,3.73-3.06,5.9-4.1h.6c.38.13.8.65.8,1.05v8.25l.5-.85c1.46-1.59,3.8-.53,3.7,1.6-.09,1.98-2.71,2.62-3.85,1.04l-.36-.69v4.25c0,.2.58,1.15.75,1.35.64.73,1.55,1.11,2.5,1.2,1.5.13,5.14.24,6.42-.38.63-.31,1.83-1.56,1.83-2.27v-4.25l-.34.71c-.9,1.42-3.19,1.24-3.79-.34-.94-2.49,2.6-4.26,3.88-1.78.11.22.09.51.25.6V.85c0-.31.53-.73.8-.85h.5c2.24.98,4.15,2.54,6,4.1-.01-.74-.12-1.07.45-1.6,1-.93,2.71-1.71,3.85-2.5h.3l.26.29.03,21.95c-.12.87-1.95,1.93-2.7,2.4-.48.3-.97.61-1.49.81.76.32,4.2,2.35,4.2,3.1v17.45h17.35c.64,0,1.75,1.78,2.09,2.31.4.61.77,1.25,1.11,1.89.61-1.1,1.32-2.51,2.15-3.45.33-.38.63-.67,1.16-.74l21.75.04.39.25v.3c-.68.95-2.01,3.81-3,4.25-.36.16-.71.17-1.1.15,1.6,1.78,3.06,3.73,4.1,5.9v.5c-.09.21-.54.8-.75.8h-8.95l1.03.42c1.45.99,1.23,3.11-.43,3.73-2.55.96-4.06-2.57-1.77-3.87l.77-.28h-4.15c-1.4,0-2.8,1.73-2.94,3.06-.16,1.5-.28,5.43.37,6.7.37.72,1.63,1.83,2.47,1.83h4.25c-.04-.17-.37-.09-.57-.18-1.73-.73-1.79-3.32-.02-3.97,2.41-.89,4.16,2.24,2.03,3.73l-1.03.42h8.95c.21,0,.66.59.75.8v.5c-1.03,2.2-2.55,4.1-4.1,5.95,0,.08.91.03,1.11.1.79.24,2.45,3.47,2.99,4.26v.3l-.39.25-21.75.04c-1-.14-1.98-1.87-2.5-2.7-.3-.47-.61-.97-.81-1.49-.45.8-2.3,4.2-3.2,4.2h-17.35v17.45c0,.75-3.43,2.78-4.2,3.1.52.22,1.01.51,1.49.81.73.45,2.57,1.55,2.7,2.4l-.04,21.95-.26.29h-.4c-.73-.61-4-2.27-4.18-3.07-.07-.32,0-.7-.02-1.03-1.83,1.56-3.72,3.05-5.9,4.1h-.6c-.27-.12-.8-.54-.8-.85v-8.65c-.16.09-.13.39-.25.6-1.28,2.49-4.83.74-3.88-1.78.62-1.62,2.94-1.74,3.82-.28l.3.65v-4.25c0-.71-1.2-1.96-1.83-2.27-1.25-.61-4.94-.51-6.42-.38-.94.08-1.87.48-2.5,1.2-.17.2-.75,1.15-.75,1.35v4.25l.36-.69c1.14-1.56,3.76-.94,3.85,1.04.1,2.13-2.25,3.19-3.7,1.6l-.5-.85v8.25c0,.4-.42.92-.8,1.05h-.6c-2.18-1.03-4.11-2.51-5.9-4.1.03.61.05,1.17-.45,1.6l-3.85,2.5h-.4l-.3-.95.02-20.89c.04-1.17,1.13-1.72,2-2.3.7-.47,1.45-.91,2.19-1.31-.64-.33-1.29-.71-1.89-1.11-.77-.51-2.31-1.37-2.31-2.39v-17.05h-17.35c-.94,0-2.66-3.48-3.25-4.2,0,.21-.09.39-.18.57-.37.7-1.84,3-2.42,3.38-.08.05-.5.25-.55.25H.45c-.11,0-.36-.3-.45-.4v-.1c.45-.79,2.28-4.14,2.99-4.36.2-.06,1.11-.01,1.11-.1-1.54-1.89-3.14-3.78-4.1-6.05v-.3c.09-.32.49-.9.85-.9h8.85l-.97-.38c-2.13-1.4-.56-4.51,1.82-3.82,1.65.47,2,2.91.51,3.82l-.97.38h4.25c.74,0,1.95-.95,2.33-1.57.83-1.35.71-5.53.49-7.16-.17-1.27-1.59-2.88-2.92-2.88h-4.15l.97.38c2.03,1.42.52,4.6-1.9,3.8-1.8-.6-1.96-3.06-.24-3.89l.77-.28H.75c-.25,0-.69-.65-.75-.9v-.3c.98-2.24,2.52-4.16,4.1-6-.72.06-1.18-.07-1.65-.6-.92-1.02-1.73-2.72-2.45-3.9v-.1c.09-.1.34-.4.45-.4h21.8s.47.2.55.25c.58.38,2.06,2.68,2.42,3.38.1.18.19.35.18.57.63-.79,2.28-4.2,3.35-4.2h17.25v-17.05c0-.31.32-.92.55-1.15.5-.51,1.9-1.35,2.56-1.74.39-.23.76-.48,1.19-.61-.7-.27-1.36-.7-1.99-1.11-.93-.61-2.24-1.27-2.3-2.5l-.02-20.89.3-.95h.4ZM53.8,17.6c-.22-.63-.45-1.27-.5-1.95-.23-2.89.2-6.06-.02-8.98-.18-1.07-1.41-1.22-2.28-1.47v12.05s.4.35.45.35h2.35ZM77.1,5.2c-.76.19-2.09.47-2.28,1.37-.19,2.87.18,5.93-.02,8.78-.05.77-.27,1.52-.5,2.25h2.35c.1,0,.45-.35.45-.45V5.2ZM76.67,22.03c-.22-.25-.89-.46-1.23-.52-1.53-.27-3.42-.16-4.99-.21-4.29-.13-8.61-.13-12.9,0-1.46.04-4.31-.11-5.59.41-1.4.58-.73,2.21-.98,3.32-.08.37-.29.29-.38.37s.18.12.24.2c.58.7-.48,2.93,1.12,3.58,1.25.51,3.88.36,5.29.41,4.49.15,9.01.15,13.5,0,1.47-.05,3.26.05,4.69-.21.36-.07,1.02-.27,1.26-.54.47-.53.3-2.21.41-2.89.04-.23.28-.48.28-.51,0-.06-.24-.18-.28-.4-.11-.55,0-1.45-.11-2.09-.04-.25-.16-.75-.32-.93ZM53.8,33.3h-2.35c-.05,0-.45.31-.45.35v12.05c.86-.23,2.1-.42,2.28-1.47.22-2.92-.21-6.09.02-8.98.05-.67.28-1.32.5-1.95ZM77.1,45.7v-11.95c0-.16-.41-.45-.55-.45h-2.25c.23.73.45,1.47.5,2.25.2,2.85-.17,5.91.02,8.78.16.91,1.51,1.18,2.28,1.37ZM58.3,36.25v4.25l.36-.69c1.14-1.56,3.76-.94,3.85,1.04.1,2.13-2.25,3.19-3.7,1.6l-.5-.85v8.25c0,.57-.56,1.07-1.15,1.05-.7-.02-2.55-1.28-3.18-1.72-1.04-.72-2.02-1.54-2.97-2.38.33,1.61-.91,1.7-1.69,2.46s-.84,2-2.41,1.74c.83,1.04,1.73,2.06,2.48,3.17.53.78,1.76,2.51,1.47,3.44-.07.22-.49.59-.7.59h-8.95l.87.28c2.43,1.4.67,4.92-1.92,3.82-1.54-.65-1.57-3.03-.1-3.8l.85-.3h-4.25c-1.11,0-2.43,1.35-2.72,2.38-.36,1.29-.4,5.95.09,7.15.36.88,1.65,2.07,2.63,2.07h4.15l-.75-.3c-1.84-1.06-1.21-4,1-4.01s3.01,2.98,1.02,4.03l-.77.28h8.85c.21,0,.64.37.7.59.29.93-.94,2.65-1.47,3.44-.78,1.14-1.69,2.21-2.58,3.27.36.03.78-.06,1.13.02.61.14.94,1.17,1.33,1.57.76.79,2.09.88,1.74,2.51.95-.83,1.93-1.66,2.97-2.38.63-.44,2.51-1.7,3.18-1.72.58-.02,1.15.48,1.15,1.05v8.25l.5-.85c1.46-1.59,3.8-.53,3.7,1.6-.09,1.98-2.71,2.62-3.85,1.04l-.36-.69v4.25c0,.2.58,1.15.75,1.35.64.73,1.55,1.12,2.5,1.2,1.5.13,5.14.24,6.42-.38.63-.31,1.83-1.56,1.83-2.27v-4.25l-.34.71c-.9,1.42-3.19,1.24-3.79-.34-.94-2.49,2.6-4.26,3.88-1.78.11.22.09.51.25.6v-8.65c0-.3.49-.74.79-.81.74-.17,2.34.88,3,1.32,1.24.81,2.36,1.81,3.51,2.74-.35-1.59.79-1.61,1.55-2.4.43-.44.84-1.58,1.5-1.7.32-.06.71.03,1.05,0-1.24-1.61-2.94-3.4-3.79-5.26-.23-.5-.53-1.2-.12-1.69.05-.07.52-.35.55-.35h8.85l-.9-.35c-1.44-.94-1.36-3.07.24-3.75,2.53-1.08,4.2,2.32,1.99,3.79l-.84.31h4.15c1.15,0,2.48-1.37,2.77-2.43.34-1.26.34-5.29.04-6.57-.27-1.14-1.56-2.6-2.8-2.6h-4.25l.94.31c1.78,1.16,1.12,3.99-1.09,3.99s-2.99-2.84-1.09-3.99l.94-.31h-8.95s-.5-.28-.55-.35c-.39-.48-.13-1.13.09-1.62.84-1.86,2.5-3.61,3.72-5.23-1.52.25-1.67-1-2.4-1.75s-1.95-.87-1.6-2.45c-1.07.88-2.12,1.81-3.27,2.58-.56.38-2.21,1.45-2.79,1.52-.47.06-1.24-.36-1.24-.85v-8.65c-.16.09-.13.39-.25.6-1.29,2.5-4.83.73-3.88-1.78.62-1.62,2.94-1.74,3.82-.28l.3.65v-4.25c0-.7-1.21-1.96-1.83-2.27-1.22-.6-4.96-.51-6.42-.38-1.33.12-3.02,1.14-3.25,2.55ZM102.63,50.76c-.06-.05,0-.2-.08-.16-.91.93-2.86-.17-3.63,1.07-.59.94-.47,3.8-.51,4.99-.18,4.87-.18,9.82,0,14.69.05,1.33-.08,3.6.41,4.79.63,1.53,2.74.34,3.74,1.26.4-.56,1.54-.33,2.2-.4,1.78-.18,1.71-1.33,1.85-2.85.46-5.03.23-10.81.1-15.89-.05-1.71.14-4.5-.32-6.08-.58-2-2.78-.65-3.74-1.42ZM25.47,50.72c-.12.02-.34.23-.63.27-1.88.28-2.97-.62-3.34,1.96-.54,3.78-.22,8.82-.2,12.69.01,2.96-.22,6.51.2,9.4.32,2.27,1.09,1.79,2.94,1.96.34.03.83.25,1.03.27.05,0,.74-.24,1-.27,1.3-.13,2.47.34,2.89-1.31.29-1.11.31-3.33.35-4.55.15-4.9.09-10.21-.11-15.1-.05-1.11.07-3.75-.61-4.59-.54-.67-2.08-.36-2.83-.47-.25-.04-.6-.29-.69-.27ZM17.35,51H5.3c.22,1.33.46,2.19,1.95,2.3,2.77.22,5.84-.23,8.61,0,.59.05,1.12.27,1.7.4.08-.89.38-1.93-.2-2.7ZM45.7,51h-12.05c-.15.09-.35.51-.35.65v2.15c.56-.21,1.15-.44,1.75-.5,2.77-.25,5.91.22,8.7,0,1.5-.12,1.65-1,1.95-2.3ZM94.7,53.8v-2.25c0-.08-.27-.55-.35-.55h-12.05c.3,1.07.38,2.09,1.68,2.27,2.74.39,6.25-.25,9.07.03.55.05,1.14.29,1.65.5ZM122.7,51h-12.05s-.25.31-.25.35v2.45c.51-.25,1.08-.45,1.65-.5,2.77-.25,5.91.22,8.7,0,1.45-.11,1.78-.98,1.95-2.3ZM45.7,77.1c-.03-.68-.5-2.16-1.25-2.3-2.73-.12-5.58.15-8.29,0-.97-.05-1.96-.18-2.85-.6v2.15c0,.28.34.75.65.75h11.75ZM82.3,77.1h11.75c.24,0,.65-.41.65-.65v-2.25c-.83.41-1.83.55-2.75.6-2.74.16-5.62-.14-8.38.02-.86.17-1.13,1.53-1.27,2.28ZM122.8,77.1c-.24-.82-.39-1.9-1.27-2.28-2.76-.15-5.63.13-8.38-.02-.93-.05-1.92-.17-2.75-.6v2.45c0,.16.41.45.55.45h11.85ZM5.3,77.1h11.75c.91,0,.6-2.24.5-2.8-.9.29-1.84.46-2.79.51-2.72.14-5.55-.13-8.28.02-.71.16-1.18,1.62-1.17,2.28ZM53.8,94.7c-.22-.63-.45-1.27-.5-1.95-.23-2.89.2-6.06-.02-8.98-.18-1.07-1.41-1.22-2.28-1.47v12.05s.4.35.45.35h2.35ZM77.1,82.3c-.76.2-2.11.46-2.28,1.37-.19,2.87.18,5.93-.02,8.78-.05.77-.27,1.52-.5,2.25h2.35c.1,0,.45-.35.45-.45v-11.95ZM76.67,99.13c-.22-.25-.89-.46-1.23-.52-1.49-.26-3.36-.16-4.89-.21-4.33-.13-8.68-.13-13,0-1.46.04-4.31-.11-5.59.41-1.4.58-.73,2.21-.98,3.32-.08.37-.29.29-.38.37s.18.12.24.2c.58.7-.48,2.93,1.12,3.58,1.12.46,4.7.48,6.08.52,4.18.11,8.44.03,12.61-.1,1.44-.05,4.14.1,5.42-.38,1.38-.52.82-2.28,1.03-3.37.04-.22.3-.37.3-.4s-.25-.18-.3-.4c-.14-.72.1-2.42-.43-3.02ZM53.8,110.4h-2.35c-.05,0-.45.31-.45.35v12.05c.86-.25,2.1-.4,2.28-1.47.22-2.92-.21-6.09.02-8.98.05-.67.28-1.32.5-1.95ZM77.1,122.8v-11.95c0-.16-.41-.45-.55-.45h-2.25c.23.73.45,1.47.5,2.25.2,2.85-.17,5.91.02,8.78.16.91,1.51,1.18,2.28,1.37Z"/>
  <path fill="#FFFFFF" d="M33.38,9.32c2.88-.34,3.27,3.91.66,4.27-3.06.42-3.44-3.94-.66-4.27Z"/>
  <path fill="#FFFFFF" d="M38.87,31.52c3.86-.78,3.38,5.23-.09,4.15-2.03-.63-1.89-3.75.09-4.15Z"/>
  <path fill="#FFFFFF" d="M10.97,31.52c3.33-.57,3.57,4.06.66,4.27-2.65.19-3.07-3.86-.66-4.27Z"/>
  <path fill="#FFFFFF" d="M39.57,4.72c3.19-.54,3.52,4.17.56,4.27-2.77.1-2.97-3.86-.56-4.27Z"/>
  <path fill="#FFFFFF" d="M6.78,37.83c2.87-.11,2.95,4.32.16,4.36s-2.92-4.26-.16-4.36Z"/>
  <path fill="#FFFFFF" d="M14.64,38.44c1.77-1.76,4.59.55,3.35,2.7-1.57,2.7-5.7-.36-3.35-2.7Z"/>
  <path fill="#FFFFFF" d="M34.78,37.83c2.79-.1,2.97,4.31.06,4.36-2.72.05-2.86-4.26-.06-4.36Z"/>
  <path fill="#FFFFFF" d="M38.44,14.64c1.74-1.91,4.95.5,3.36,2.71-1.7,2.37-5.44-.44-3.36-2.71Z"/>
  <path fill="#FFFFFF" d="M33.07,114.42c3.53-.72,3.59,4.77.2,4.25-2.34-.35-2.29-3.83-.2-4.25Z"/>
  <path fill="#FFFFFF" d="M33.38,86.42c2.88-.34,3.27,3.91.66,4.27-3.04.42-3.45-3.94-.66-4.27Z"/>
  <path fill="#FFFFFF" d="M11.28,92.22c2.76-.29,3.27,3.91.66,4.27-3.22.45-3.36-3.99-.66-4.27Z"/>
  <path fill="#FFFFFF" d="M39.88,119.02c2.84-.2,3.05,3.93.56,4.27-3.08.42-3.48-4.06-.56-4.27Z"/>
  <path fill="#FFFFFF" d="M6.87,85.84c3.25-.05,2.5,5.25-.67,4.21-2.34-.77-1.77-4.17.67-4.21Z"/>
  <path fill="#FFFFFF" d="M16.08,85.83c2.88-.11,2.82,4.37.07,4.37s-2.94-4.27-.07-4.37Z"/>
  <path fill="#FFFFFF" d="M39.57,109.82c1.82-.31,3.24,1.41,2.38,3.08-1.06,2.05-4.41,1.2-4.05-1.45.1-.73.95-1.51,1.66-1.63Z"/>
  <path fill="#FFFFFF" d="M38.44,94.66c-1.68-1.69.52-4.57,2.68-3.33,2.83,1.64-.36,5.66-2.68,3.33Z"/>
  <path fill="#FFFFFF" d="M94.18,9.32c2.84-.34,3.23,3.91.66,4.27-3.12.43-3.44-3.94-.66-4.27Z"/>
  <path fill="#FFFFFF" d="M115.97,31.52c3.32-.57,3.57,4.06.66,4.27-2.64.19-3.1-3.85-.66-4.27Z"/>
  <path fill="#FFFFFF" d="M87.97,31.52c2.83-.48,3.69,3.03,1.53,4.03-1.67.77-3.38-.6-3.08-2.38.11-.67.87-1.53,1.55-1.65Z"/>
  <path fill="#FFFFFF" d="M87.57,4.72c3.13-.53,3.57,4.12.56,4.27-2.73.14-2.99-3.86-.56-4.27Z"/>
  <path fill="#FFFFFF" d="M121.08,37.83c2.91-.11,2.92,4.46-.02,4.36-2.7-.09-2.69-4.26.02-4.36Z"/>
  <path fill="#FFFFFF" d="M87.47,14.02c3.46-.6,3.65,4.46.28,4.17-2.46-.21-2.42-3.81-.28-4.17Z"/>
  <path fill="#FFFFFF" d="M93.08,37.83c2.86-.12,2.96,4.32.16,4.36s-2.91-4.25-.16-4.36Z"/>
  <path fill="#FFFFFF" d="M111.78,37.83c2.89-.11,2.96,4.32.16,4.36s-2.86-4.26-.16-4.36Z"/>
  <path fill="#FFFFFF" d="M116.28,92.22c3.07-.32,3.31,4.76-.22,4.27-2.32-.32-2.26-4.01.22-4.27Z"/>
  <path fill="#FFFFFF" d="M93.87,114.42c2.84-.48,3.66,3.12,1.46,4.06-1.72.74-3.28-.61-3.03-2.43.09-.66.91-1.52,1.57-1.63Z"/>
  <path fill="#FFFFFF" d="M87.04,95.96c-1.08-1.07-.74-3.04.69-3.59,1.88-.71,3.59,1.14,2.78,2.98-.56,1.27-2.5,1.58-3.47.61Z"/>
  <path fill="#FFFFFF" d="M87.88,119.02c2.87-.16,3.02,3.93.56,4.27-3.11.42-3.44-4.11-.56-4.27Z"/>
  <path fill="#FFFFFF" d="M121.08,85.83c2.36-.09,3.11,3.31.88,4.18-3.14,1.22-4.19-4.06-.88-4.18Z"/>
  <path fill="#FFFFFF" d="M93.08,85.83c2.94-.12,2.88,4.32.16,4.36s-2.94-4.25-.16-4.36Z"/>
  <path fill="#FFFFFF" d="M87.57,109.82c3.43-.55,3.51,4.66-.02,4.17-2.18-.3-2.28-3.8.02-4.17Z"/>
  <path fill="#FFFFFF" d="M111.78,85.83c2.95-.11,2.92,4.32.16,4.36s-2.88-4.26-.16-4.36Z"/>
</svg>