<?xml version="1.0" encoding="UTF-8"?>
<svg id="Layer_1" data-name="Layer 1" xmlns="http://www.w3.org/2000/svg" viewBox="0 0 130.3 130.3">
  <path fill="#FFFFFF" d="M0,43.33v-1.5c.41-1.4,1.3-2.62,2.7-3.15,4.09-1.54,7.47,3.44,4.6,6.7-2.37,2.67-6.53,1.28-7.3-2.05Z"/>
  <path fill="#FFFFFF" d="M0,88.43v-1.5c.76-3.29,4.85-4.69,7.25-2.1,1.77,1.9,1.36,5.09-.88,6.42-2.61,1.55-5.65,0-6.37-2.82Z"/>
  <path fill="#FFFFFF" d="M130.3,42.33v.5c-.78,6.09-9.76,4.56-8.25-1.4,1.14-4.5,7.91-3.67,8.25.9Z"/>
  <path fill="#FFFFFF" d="M130.3,87.43v.5c-.64,5.48-8.7,5.03-8.4-.55.27-5.13,8.02-5.07,8.4.05Z"/>
  <path fill="#FFFFFF" d="M76.5,17.93c3.57.21,7.26.61,10.72,1.53,2.22.59,5.59,1.44,3.33,4.37l-8.65,8.65c.93,1.07,2.2,2.02,3.1,3.1,1.21,1.47.84,2.71.56,4.45-.34,2.06-.84,4.24-1.55,6.2,1.87-.64,3.84-1.11,5.8-1.45,1.02-.18,2.22-.46,3.24-.34,1.77.22,3.37,2.94,4.8,3.88l8.86-8.85c2.47-1.6,3.3.8,3.87,2.73,1.09,3.69,1.53,7.78,1.73,11.62.93-.77,1.36-1.71,2.74-1.7,1.51.01,5.22.97,6.84,1.37,1.3.33,3.42.55,1.97,2.33l-9.24,9.34,9.24,9.26c.74.88.69,1.56-.45,1.95-1.56.54-6.7,1.71-8.26,1.75-1.46.04-1.87-.89-2.84-1.7-.12,3.09-.5,6.28-1.15,9.3-.43,2-1.27,7.08-4.34,5.14l-9.06-8.94c-1.07.93-2.02,2.2-3.1,3.1-1.44,1.18-2.65.83-4.35.56-2.12-.35-4.26-.87-6.3-1.55.72,1.95,1.21,4.14,1.55,6.2.29,1.74.66,2.98-.56,4.45-.89,1.08-2.16,2.03-3.1,3.1l8.7,8.7c2.05,2.74-.83,3.62-2.98,4.22-3.57,1-7.43,1.41-11.12,1.63.62.78,1.43,1.18,1.57,2.27.17,1.28-1.07,6.47-1.48,7.97-.31,1.11-.56,2.43-2,1.41l-9.45-9.45-9.35,9.35c-.47.42-1.18.75-1.64.14-.42-.55-.85-2.87-1.03-3.67-.33-1.48-1.09-4.47-.93-5.87.11-.99,1.08-1.4,1.6-2.15-3.6-.2-7.33-.61-10.82-1.53-2.08-.55-5.41-1.36-3.43-4.17l8.74-8.77-.08-.28c-.83-1.09-3.04-2.57-3.56-3.75-.61-1.39.15-4.3.48-5.82.29-1.34.6-2.69,1.07-3.98-2,.69-4.2,1.21-6.3,1.55-.9.15-1.82.35-2.74.24-1.67-.2-3.3-2.99-4.7-3.88l-8.72,8.69c-2.82,2.03-3.62-.9-4.22-3.08-.99-3.56-1.36-7.35-1.63-11.02-.89.79-1.42,1.63-2.75,1.61-1.16-.02-3.62-.67-4.87-.94-.97-.21-2.06-.41-3-.7-1.06-.32-1.91-.63-1.03-1.87l9.45-9.53-9.45-9.46c-1.05-1.44.42-1.69,1.51-2,1.63-.45,5.85-1.5,7.4-1.51,1.34-.01,1.85.81,2.74,1.6.27-3.67.64-7.47,1.63-11.02.61-2.2,1.45-5.15,4.27-3.03l8.66,8.64c.27.05,3.12-3.27,3.94-3.64,1.09-.5,2.37-.19,3.5,0,2.12.34,4.28.86,6.3,1.55-.47-1.29-.78-2.64-1.07-3.98-.33-1.52-1.09-4.43-.48-5.82.56-1.27,2.88-2.69,3.64-3.94l-8.94-9.07c-1.37-2.51,1.03-3.21,2.92-3.77,3.68-1.08,7.7-1.49,11.52-1.73-1.14-1.24-1.74-1.39-1.6-3.25s1.05-5.88,1.63-7.67c.44-1.35,1.02-1.4,2.07-.53l9.25,9.25,9.45-9.45c1.52-1.1,1.75.53,2.05,1.65.4,1.5,1.59,6.44,1.42,7.73-.14,1.09-.95,1.49-1.57,2.27ZM55.25,19.43c-.8,1.19-1.99,3.03-1.5,4.5.11.33,1.09,1.7,1.4,1.7l3.15-3.15-3.05-3.05ZM75.1,19.43l-3.2,3.05,3.23,3.14c2.53-1.83,1.18-4.06-.04-6.19ZM65.15,29.24l-3.25,3.25,3.16,3.14,3.23-3.16-3.14-3.23ZM47.32,58.72c1.21-.12,2.28-.89,3.18-1.63,1.96-1.61,6.82-6.24,7.82-8.38.18-.39.51-1.04.29-1.42-1.63-1.23-4.23-4.45-6.45-4.14-.56.08-1.63.91-2.11,1.29-.65.53-2.06,2.17-2.71,2.29-.21.04-.43,0-.64,0-.02.15.08.29.06.43-.06.77-1.69,2.12-2.26,2.82-.39.48-1.21,1.48-1.36,2.04-.41,1.58,1.49,3.64,2.46,4.75.57.65,1.21,1.25,1.72,1.93ZM83.5,46.73c-1.19.17-2.02-1.19-2.85-1.9-.88-.76-1.98-1.81-3.2-1.7-1.39.12-3.7,2.18-4.75,3.15-.17.16-1.16,1.12-1.18,1.21.06.38.2.76.36,1.11.79,1.77,3.93,4.87,5.42,6.28.99.95,2.66,2.55,3.8,3.2.41.23,1.44.79,1.86.55.12-.07,1.1-1.19,1.3-1.4.78-.87,2.34-2.66,2.7-3.7.42-1.26.11-1.78-.61-2.79-.59-.83-2.71-2.73-2.83-3.47-.03-.18,0-.36,0-.54ZM65.06,53.54l-11.56,11.63,11.63,11.56,11.56-11.63-11.63-11.56ZM22.78,53.66c-1.11.15-2.46,1-3.37,1.62l3.06,3.04,3.14-3.14c-.62-.92-1.68-1.68-2.83-1.52ZM110.9,55.24c-1.3-.68-2.98-1.94-4.52-1.47-.77.24-1.21.89-1.78,1.42l3.16,3.14,3.14-3.09ZM32.45,61.94l-3.14,3.23,3.14,3.16,3.14-3.23-3.14-3.16ZM97.85,61.94l-3.25,3.25,3.16,3.14,3.23-3.16-3.14-3.23ZM46.7,83.53c.24,0,.49-.03.73.02.52.11,2.01,1.77,2.57,2.23,1.91,1.56,2.74,1.91,4.89.39,1.07-.76,2.46-1.97,3.41-2.89.09-.09.31-.26.35-.35.32-.69-1.13-2.63-1.6-3.2-1.68-2.04-6.32-6.92-8.62-7.88-.29-.12-.59-.23-.89-.31-.18,0-1.1.98-1.3,1.19-1.02,1.1-3.04,3.37-3.15,4.85-.08,1.12,1.32,2.62,2.05,3.45.65.74,1.86,1.38,1.55,2.5ZM83.5,83.53c-.14-1.2,1.23-2.06,1.95-2.9.54-.63,1.71-2.01,1.71-2.83,0-1.54-1.99-3.74-3.01-4.87-.17-.19-1.12-1.26-1.2-1.3-.4-.24-1.44.32-1.86.55-1.16.66-2.89,2.34-3.9,3.3-1.46,1.4-4.54,4.44-5.32,6.18-.17.38-.31.79-.39,1.2,1.37,1.1,2.7,2.59,4.18,3.55,2.25,1.46,3.23.5,4.98-.98.46-.39,1.74-1.82,2.21-1.89.21-.03.43,0,.65,0ZM22.46,71.94l-3.06,3.04c1.27.89,3.23,2.14,4.79,1.39.32-.15,1.48-1.05,1.4-1.37l-3.13-3.06ZM107.76,71.94l-3.16,3.16c.39.6,1.35,1.39,2.07,1.51,1.35.23,3.13-.92,4.22-1.63l-3.13-3.04ZM65.15,94.64l-3.14,3.23,3.14,3.16,3.14-3.23-3.14-3.16ZM55.16,104.64c-1.14,1-1.84,1.77-1.39,3.37.11.39,1.22,2.76,1.48,2.82l3.05-3.05-3.14-3.14ZM75.1,110.83c1.22-2.14,2.56-4.35.04-6.19l-3.23,3.14,3.2,3.05Z"/>
  <path fill="#FFFFFF" d="M41.77.06c4.54-.71,6.93,5.2,3.06,7.66-3.21,2.04-7.24-.89-6.3-4.6.35-1.39,1.81-2.83,3.24-3.06Z"/>
  <path fill="#FFFFFF" d="M41.78,121.96c4.57-.62,6.86,4.84,3.16,7.56-3.37,2.48-7.93-1.36-6.15-5.25.48-1.05,1.84-2.15,3-2.3Z"/>
  <path fill="#FFFFFF" d="M86.88,121.96c4.62-.63,6.81,4.97,3.1,7.6-3.31,2.34-7.68-1.25-6.22-5.02.45-1.17,1.86-2.4,3.12-2.58Z"/>
  <path fill="#FFFFFF" d="M86.88.06c4.61-.66,6.81,5.21,3.12,7.62s-7.88-1.41-6.14-5.24c.48-1.06,1.86-2.21,3.03-2.37Z"/>
</svg>