<?xml version="1.0" encoding="UTF-8"?>
<svg id="Layer_1" data-name="Layer 1" xmlns="http://www.w3.org/2000/svg" viewBox="0 0 152.1 153.41">
  <path fill="#FFFFFF" d="M0,39.4v-1.3c1.09-4.15,7.27-2.76,6.13,1.58-.83,3.18-5.43,2.86-6.13-.28Z"/>
  <path fill="#FFFFFF" d="M39.3,153.4c-.35-.03-.76.05-1.1,0-3.08-.42-3.55-5.13-.56-6.11,4.36-1.43,6.12,5.06,1.66,6.11Z"/>
  <path fill="#FFFFFF" d="M39.4,0c3.14.7,3.46,5.3.28,6.13-4.34,1.14-5.73-5.04-1.58-6.13h1.3Z"/>
  <path fill="#FFFFFF" d="M0,115.3v-1.3c.82-3.7,6.3-3.18,6.3.65s-5.48,4.23-6.3.65Z"/>
  <path fill="#FFFFFF" d="M152.1,114v1.3c-1.25,4.45-7.83,2.33-5.98-2.03,1.19-2.79,5.37-2.19,5.98.73Z"/>
  <path fill="#FFFFFF" d="M114,0c3.59.82,3.17,6.3-.65,6.3s-4.33-5.47-.65-6.3h1.3Z"/>
  <path fill="#FFFFFF" d="M152.1,38.1v1.3c-.64,2.88-4.81,3.52-5.98.73-1.85-4.39,4.72-6.5,5.98-2.03Z"/>
  <path fill="#FFFFFF" d="M113.9,153.4h-1.1c-2.69-.56-3.63-4.02-1.35-5.7,1.66-1.22,4.27-.49,4.88,1.52s-.5,3.7-2.43,4.18Z"/>
  <path fill="#FFFFFF" d="M48.1,29.5v-2.65c0-.93,3.1-6.02,3.85-6.85.8-.88,1.3-.5,1.44.56l.53,7.57,1.38,1.52h12.7c1.77-.4,1.17-3.53,2.16-3.83.66-.2,1.03.19,1.43.63l4.5,6.45c1.13-1.86,2.33-3.76,3.66-5.49.51-.66,1.2-1.88,2.17-1.59s.38,3.54,2.24,3.85l12.62-.03,1.38-1.52.53-7.67c.19-1.04.69-1.26,1.44-.46s3.85,5.99,3.85,6.85v2.65c.36.1.67.18,1.05.2,1,.07,2.82.1,3.8,0,.27-.03.49-.15.75-.2v-2.35c0-1.12,1.8-4,2.46-5.04.35-.55,1.09-1.81,1.49-2.21,1.14-1.13,1.35.37,1.45,1.25.28,2.34.2,4.74.52,7.08l1.43,1.47h5.3l.15.15v5.3l1.47,1.43c2.37.33,4.91.21,7.27.53,1.62.22,1.96.7.6,1.77-.93.72-2.33,1.55-3.37,2.13-1.87,1.06-3.41,1.83-5.67,1.43-.08.05-.2.36-.23.47-.18.71-.15,3.62-.07,4.43.03.27.15.49.2.75h2.65c.91,0,6.71,3.44,7.17,4.23.27.46.22.61-.25.89-2.69.47-5.47.49-8.2.7l-1.52,1.38-.03,12.73c.34,1.67,3.57,1.18,3.86,2.14.31,1.02-1.24,1.88-1.95,2.41-1.96,1.46-4.06,2.77-6.13,4.07,2.01,1.39,4.12,2.65,6.09,4.11.71.53,2.29,1.42,1.97,2.44s-3.48.42-3.83,2.17l.03,12.72,1.62,1.38c.89.06,1.79.06,2.68.12,1.47.11,3.5.14,4.89.41,2.64.51-1.13,2.53-1.95,3.03-.86.53-3.68,2.26-4.54,2.26h-2.55c-.11.34-.18.58-.2.95-.07,1.01-.1,2.91,0,3.9.03.27.15.49.2.75h2.45c.98,0,3.71,1.68,4.64,2.26.6.38,2.08,1.25,2.51,1.69.2.2.44.56.36.86-.15.47-1.27.55-1.71.6-2.25.26-4.56.2-6.82.48-.47.14-1.26,1.09-1.63,1.47v5.3l-.15.15h-5.4l-1.33,1.47c-.32,2.34-.24,4.74-.52,7.08-.06.53-.09,1.36-.6,1.61-.69.19-1.8-1.74-2.15-2.27-.67-1.04-2.66-4.24-2.66-5.34v-2.35c-.27-.08-.44-.18-.74-.21-.99-.09-3.12-.1-4.11,0-.27.03-.49.15-.75.2v2.55c0,.92-1.97,4.13-2.56,5.04-.38.59-1.39,2.38-2.11,2.39-.2,0-.31-.22-.42-.34-.53-2.69-.52-5.52-.73-8.27l-1.38-1.52-12.73-.03c-1.44.48-1.23,1.98-1.6,3.1-.24.72-.75,1.02-1.46.62-.54-.3-2.22-2.84-2.69-3.51-.78-1.11-1.53-2.26-2.22-3.43-1.44,1.94-2.63,4.11-4.16,5.99-.43.53-.93,1.33-1.74,1.07-1.02-.33-.47-3.49-2.17-3.83l-12.73.03-1.39,1.41-.53,7.67c-.13,1.02-.69,1.37-1.44.56s-3.85-5.99-3.85-6.85v-2.65c-.26-.05-.47-.17-.75-.2-.73-.08-3.95-.1-4.53.07-.12.04-.23.09-.33.18.03,1.26.09,2.42-.37,3.62-.38,1.01-3.1,5.62-3.87,6.13-.92.62-1.05-.64-1.14-1.26-.32-2.35-.2-4.9-.53-7.27l-1.33-1.47h-5.4l-.15-.15v-5.3c-.37-.38-1.16-1.32-1.63-1.47l-7.71-.59c-2.1-.45.21-1.83.95-2.33,1.05-.71,4.64-2.96,5.74-2.96h2.45c.11-.34.18-.58.2-.95.07-1.01.1-2.91,0-3.9-.03-.27-.15-.49-.2-.75h-2.55c-.95,0-6.72-3.37-7.23-4.17s.03-.98.74-1.12c1.78-.35,4.4-.37,6.29-.51.42-.03.85.04,1.28-.02.54-.43,1.61-1.13,1.68-1.82l-.03-12.28c-.35-1.7-3.58-1.21-3.86-2.14-.31-1.05,1.32-1.96,2.05-2.51,1.94-1.45,4.04-2.69,6.03-4.07-1.95-1.18-3.89-2.42-5.73-3.77-.5-.36-2.23-1.54-2.35-2.05-.34-1.44,1.5-1.26,2.4-1.56.67-.22,1.29-.62,1.45-1.35l-.03-12.62-1.52-1.38-7.57-.53c-1.06-.14-1.45-.64-.56-1.44.83-.75,5.92-3.85,6.85-3.85h2.65c.07-.32.18-.61.2-.95.07-.86.11-3.49-.07-4.23-.03-.11-.14-.42-.23-.47-.9.07-1.94.12-2.83-.07-1.1-.24-5.95-3.06-6.72-3.88-.96-1.04.24-1.26,1.1-1.38,2.35-.32,4.9-.2,7.27-.53l1.47-1.43v-5.3l.15-.15h5.3l1.43-1.47c.33-2.37.21-4.91.53-7.27.12-.86.34-2.06,1.38-1.1.82.75,3.65,5.63,3.88,6.72.19.89.14,1.93.07,2.83.05.08.36.2.47.23.74.18,3.38.14,4.23.07.34-.03.62-.13.95-.2ZM41.8,41.8c-1.25.22-2.63-.21-3.69.56-.57.41-.97,1.03-1.08,1.72-.26,1.56-.12,4,1.77,4.48,1.42.36,4.19.2,5.76.24,1.28.03,2.71.26,4,.11.11-.01.23,0,.3-.1.06-1.18.08-2.38.05-3.56-.03-1.08-.15-2.21-.2-3.3-.07-1.47.28-3.27-.95-4.35-.84-.74-2.62-.74-3.68-.57s-1.77.96-2.15,1.95l-.12,2.83ZM110.3,41.8c-.24-1.58.33-3.27-1.21-4.34-.87-.61-2.92-.63-3.92-.33-1.23.37-1.69,1.55-1.78,2.72-.12,1.65-.17,3.54-.21,5.19-.03,1.25,0,2.51.05,3.76.07.1.19.09.3.1,1.29.16,2.72-.07,4-.11,1.48-.04,3.03,0,4.5-.1,1.63-.11,2.75-.6,3.04-2.36s-.02-3.77-1.96-4.42l-2.83-.12ZM97,55.1c.08-2.52.17-5.03.2-7.55.02-2.3,0-4.68-.09-7-.03-.67-.05-1.89-.21-2.49-.1-.39-.32-.85-.72-.98l-40.18-.03c-1.07.45-.84,1.67-.9,2.6-.3,4.81-.28,9.59,0,14.4.02.35-.01.7,0,1.05-.35-.01-.7.02-1.05,0-4.6-.27-9.2-.29-13.81-.1-.54.02-1.49.05-1.97.13-.59.1-1.32.53-1.28,1.22,0,7.06,0,14.17,0,21.2l.02,19.78c.24.62.9.91,1.53.97,3.65.37,7.92.18,11.59.1,1.65-.04,3.3-.03,4.95-.1-.01.35.02.7,0,1.05-.27,4.56-.29,9.13-.1,13.71.02.59.06,1.59.17,2.13.14.71.6,1.27,1.38,1.22l39.54-.07c1.14-.52.85-1.79.91-2.79.26-4.5.23-8.89.11-13.4-.02-.58-.2-1.23-.1-1.85,1.65.06,3.3.06,4.95.1,3.33.08,6.56.06,9.89-.1,1.07-.05,3.12.31,3.26-1.24,0-7.03,0-14.1,0-21.1s.05-13.31-.04-19.96c-.44-1.05-1.69-.84-2.6-.9-4.79-.32-9.61-.28-14.4,0-.35.02-.7-.01-1.05,0ZM41.79,111.61c.27,1.39-.26,2.59.67,3.78.68.88,1.71,1.09,2.79,1.09,2.28,0,3.31-.87,3.45-3.13.1-1.7.17-3.59.21-5.29,0-.45.05-3.32-.05-3.46-.08-.1-.19-.09-.3-.1-1.47-.18-3.13.07-4.6.11s-3-.02-4.4.1c-1.05.09-2.05.66-2.4,1.7-.33.97-.3,3.06.26,3.93,1.05,1.61,2.79.98,4.37,1.28ZM110.31,111.61c1.69-.22,4.03.26,4.66-1.89.47-1.59.28-4.24-1.57-4.88-1.49-.51-4.33.04-5.95-.35h-4.25c.03,1.29-.04,2.58,0,3.86.04,1.65.09,3.55.21,5.19.08,1.18.51,2.27,1.72,2.68,1,.34,3.08.33,3.97-.28,1.54-1.05.95-2.78,1.22-4.33Z"/>
  <path fill="#FFFFFF" d="M112.78,137.63c4.74-.65,4.88,6.14.67,6.28-3.92.13-4.5-5.75-.67-6.28Z"/>
  <path fill="#FFFFFF" d="M12.28,35.63c4.73-.51,4.68,6.91-.2,6.25-3.34-.46-3.51-5.84.2-6.25Z"/>
  <path fill="#FFFFFF" d="M138.98,35.63c4.44-.48,4.73,5.8.96,6.26-4.42.54-4.89-5.83-.96-6.26Z"/>
  <path fill="#FFFFFF" d="M38.28,9.53c4.27-.56,5.04,5.81.86,6.26s-4.71-5.76-.86-6.26Z"/>
  <path fill="#FFFFFF" d="M38.18,137.63c4.74-.65,4.92,6.14.67,6.28-3.9.13-4.43-5.76-.67-6.28Z"/>
  <path fill="#FFFFFF" d="M138.67,111.52c4.37-.68,5.31,5.18,1.63,6.13-4.61,1.18-5.28-5.56-1.63-6.13Z"/>
  <path fill="#FFFFFF" d="M112.98,9.53c4.18-.46,4.84,5.81.76,6.26-4.31.48-4.84-5.81-.76-6.26Z"/>
  <path fill="#FFFFFF" d="M11.98,111.53c5-.72,4.93,6.46.58,6.28-3.96-.17-3.87-5.8-.58-6.28Z"/>
  <path fill="#FFFFFF" d="M95.3,56.8v39.8h-38.5v-39.8h38.5ZM88.1,64h-3.85c-.22,0-.82.43-.98.62-.81,1-.43,4-2.16,3.21-.57-.26-2.03-2.46-2.49-3.11-.89-1.25-1.71-2.56-2.57-3.83-1.33,1.84-2.47,3.84-3.87,5.63-.46.58-1.43,2.06-2.29,1.22-.46-.45-.43-2.07-.88-2.82-.18-.3-.84-.93-1.17-.93h-3.85v3.85c0,.33.63,1,.93,1.17.76.45,2.38.42,2.82.88.92.93-.99,2.11-1.62,2.59-1.92,1.44-4.22,2.63-6.07,4.03-.09.06-.2.09-.17.23,1.74,1.07,3.47,2.18,5.13,3.37.55.39,2.56,1.74,2.79,2.21.79,1.61-1.5,1.49-2.42,1.82-.52.18-1.4.79-1.4,1.4v3.85h3.65c.38,0,1.07-.49,1.29-.81.66-.96.33-3.95,2.13-3.01.52.27,1.98,2.47,2.41,3.09.89,1.25,1.72,2.55,2.57,3.83,1.26-1.86,2.44-3.8,3.81-5.59.46-.6,1.45-2.14,2.34-1.26.68.66.18,2.65,1.46,3.44.13.08.68.32.78.32h3.65v-3.85c0-.62-.95-1.24-1.48-1.42-.89-.31-3.18-.2-2.34-1.8.26-.5,1.94-1.62,2.49-2.01,1.75-1.27,3.6-2.43,5.43-3.57.03-.14-.08-.17-.17-.23-1.85-1.4-4.15-2.58-6.07-4.03-.64-.48-2.56-1.63-1.62-2.59.45-.46,2.07-.43,2.82-.88.36-.21.93-.84.93-1.27v-3.75Z"/>
  <path fill="#FFFFFF" d="M42.68,60.33c3.75-.08,4.36,5.19,1,6.2-4.49,1.36-5.75-6.1-1-6.2Z"/>
  <path fill="#FFFFFF" d="M63.08,39.63c3.75-.4,5,4.79,1.55,6.05-4.59,1.68-5.97-5.58-1.55-6.05Z"/>
  <path fill="#FFFFFF" d="M108.98,86.73c1.1-.12,2.15.36,2.82,1.22,2.06,2.64-.78,6.16-3.87,4.77-2.81-1.27-2-5.67,1.05-5.99Z"/>
  <path fill="#FFFFFF" d="M62.88,107.53c3.85-.56,5.31,4.59,1.79,5.99-4.44,1.77-6.05-5.37-1.79-5.99Z"/>
  <path fill="#FFFFFF" d="M109.28,60.33c4.27-.09,4.09,6.38.07,6.38s-4.33-6.29-.07-6.38Z"/>
  <path fill="#FFFFFF" d="M50.58,86.73c4.09-.54,4.85,5.78.96,6.26-4.55.56-4.83-5.76-.96-6.26Z"/>
  <path fill="#FFFFFF" d="M87.98,99.33c4.98-.72,4.96,6.81.08,6.17-3.46-.46-3.44-5.68-.08-6.17Z"/>
  <path fill="#FFFFFF" d="M88.08,107.53c4.65-.63,4.8,6.24.57,6.28-3.88.04-4.36-5.76-.57-6.28Z"/>
  <path fill="#FFFFFF" d="M100.98,60.32c4.26-.16,4.25,6.31.16,6.38s-4.37-6.22-.16-6.38Z"/>
  <path fill="#FFFFFF" d="M90.76,40.44c2.8,2.62-.78,7.24-4.01,4.86-3.65-2.68.89-7.78,4.01-4.86Z"/>
  <path fill="#FFFFFF" d="M42.38,86.73c4-.52,4.85,5.75.97,6.27-4.52.6-4.94-5.75-.97-6.27Z"/>
  <path fill="#FFFFFF" d="M100.68,86.73c4.11-.54,4.87,5.81.96,6.26-4.56.53-4.77-5.76-.96-6.26Z"/>
  <path fill="#FFFFFF" d="M50.88,60.32c3.71-.14,4.42,5.17,1,6.21-4.45,1.35-5.69-6.03-1-6.21Z"/>
  <path fill="#FFFFFF" d="M62.78,47.93c1.66-.24,3.37.53,3.8,2.25.82,3.29-3.59,5.44-5.61,2.71-1.29-1.74-.4-4.64,1.82-4.97Z"/>
  <path fill="#FFFFFF" d="M62.77,99.32c1.74-.27,3.38.61,3.8,2.36.79,3.31-3.63,5.28-5.61,2.61-1.29-1.74-.38-4.63,1.82-4.97Z"/>
  <path fill="#FFFFFF" d="M87.87,47.92c5.12-.86,5.05,6.93.1,6.15-3.28-.51-3.36-5.6-.1-6.15Z"/>
</svg>