<?xml version="1.0" encoding="UTF-8"?>
<svg id="Layer_1" data-name="Layer 1" xmlns="http://www.w3.org/2000/svg" viewBox="0 0 154 154.03">
  <path fill="#FFFFFF" d="M71.5,154.03h-1.2c-3.02-.86-2.64-5.4.65-5.41s3.73,4.66.55,5.41Z"/>
  <path fill="#FFFFFF" d="M0,83.73v-1.2c.37-1.37,1.48-2.31,2.95-2.2,2.8.22,3.36,4.3.85,5.25-1.67.63-3.27-.18-3.8-1.85Z"/>
  <path fill="#FFFFFF" d="M0,72.43v-1.2c.54-2.22,3.51-2.93,4.9-1.05,1.13,1.52.26,4.07-1.66,4.34-1.62.23-2.73-.59-3.24-2.09Z"/>
  <path fill="#FFFFFF" d="M82.8,154.03h-1.2c-3.13-.86-2.69-5.4.65-5.41s3.63,4.65.55,5.41Z"/>
  <path fill="#FFFFFF" d="M75,25.43c.26.05.47.17.75.2.82.09,2.47.07,3.3,0,.3-.03.55-.11.83-.22-.08-.86-.13-1.64.06-2.49.26-1.15,2.28-4.46,3.07-5.43.96-1.18,1.31-.68,1.47.6.27,2.06.18,4.2.43,6.27l1.25,1.25h10.86c1.45-.3,1.06-2.86,1.74-3.26.87-.51,1.67.86,2.11,1.45.99,1.3,2.06,2.88,2.92,4.28.74,1.2,2.67,3.63.05,3.86h-16.91c-.74.06-.98.69-1.05,1.35-.15,1.52-.07,3.26-.1,4.8-.06,3.03-.21,6.48.1,9.49.05.52.27,1.26.85,1.35,5.53-.05,11.07.09,16.6.01.64,0,1.09-.32,1.6.39.42.59.15.79.14,1.35-.08,5.5.07,11.01,0,16.51.14,1.21,2.01.9,2.86.94,4.02.21,8.8.41,12.79,0,.68-.07,1.36-.36,1.36-1.14v-16.81c.06-.84.36-1.48,1.32-1.32.9.15,4.18,2.45,5.11,3.09.75.52,2.45,1.59,2.97,2.23,1.57,1.92-2.74,1.14-3.08,2.83v10.86s1.25,1.25,1.25,1.25c2.07.24,4.2.17,6.27.43,2.89.37-.12,1.98-1.15,2.63-1.3.82-3.11,1.98-4.64,2.06-.55.03-1.01-.09-1.54-.08-.11.28-.19.53-.22.83-.07.84-.08,2.48,0,3.3.03.27.15.49.2.75h2.25c.77,0,5.49,2.79,6.06,3.44.68.79-.04,1.03-.77,1.15-2.01.32-4.33.2-6.37.43l-1.32,1.18-.03,10.92c.32,1.58,3.04,1,3.34,1.97.23.77-1.03,1.54-1.57,1.94-1.59,1.2-3.78,2.75-5.52,3.68-1.1.59-2.25,1.18-2.56-.58l-.06-17.34c-.34-1.1-2.9-.76-3.81-.79-3.75-.14-7.85-.33-11.6,0-.51.04-1.44.27-1.54.86v17.09c-.1.9-.26.88-.81,1.4-.09.09-.14.25-.25.35-.34.29-1.05.37-1.5.4-5.34.37-11.12-.28-16.51,0-.8-.05-.99,1.03-1.04,1.66-.16,1.83-.08,4.03-.1,5.9-.03,2.42-.12,5.4.1,7.79.05.56.21,1.4.81,1.59l17.33.07c1.85.31,1.18,1.44.57,2.57-.68,1.25-1.62,2.59-2.44,3.76-.5.72-1.81,2.76-2.43,3.17-1.79,1.18-.99-2.82-2.62-3.18l-11.03.03-1.18,1.42c-.22,2.05-.11,4.35-.43,6.37-.24,1.51-.93.93-1.57.09-.87-1.14-2.9-4.44-3.02-5.78-.04-.48.1-1.53-.02-1.88-.05-.15-.25-.19-.38-.22-.58-.14-3.2-.12-3.86-.05-.25.03-.41.15-.65.21.17.75.14,1.76-.03,2.52-.2.92-2.75,5.29-3.47,5.83-.56.42-.89.1-.99-.51l-.53-6.77-1.1-1.2-11-.05c-1.15.36-1.07,1.56-1.32,2.48s-.88,1.19-1.61.5c-1.14-1.09-3.43-4.73-4.29-6.21-.66-1.13-1.86-2.81.29-3.1l17.33-.07c.46-.15.68-.72.73-1.17.36-3.19.19-6.98.1-10.2-.04-1.41.06-2.9-.1-4.3-.06-.5-.28-1.15-.86-1.24-5.53.07-11.07-.11-16.6,0-.77.01-.99.32-1.6-.49-.44-.59-.15-.67-.14-1.25.1-5.5-.08-11.01,0-16.51-.02-.59-.65-.87-1.16-.94-.43-.06-1.13-.09-1.59-.11-2.9-.13-5.82-.07-8.7,0-1.41.04-3-.08-4.4.1-.45.06-.99.32-1.11.79l-.05,17.35c-.08.68-.46,1.24-1.22,1.13-.92-.13-4.36-2.53-5.31-3.2-.68-.47-2.35-1.54-2.82-2.08-.65-.74-.3-1.33.55-1.56.92-.25,2.13-.17,2.48-1.32l-.02-10.93-1.23-1.17-6.77-.53c-2.16-.45,1.32-2.35,1.95-2.73,1.81-1.11,3.67-2.31,5.89-1.76.02-.2.17-.36.2-.55.11-.78.09-2.89,0-3.69-.02-.15-.08-.53-.2-.6-.64-.13-1.31,0-1.95-.05-1.35-.12-4.57-2.11-5.72-2.98-.83-.62-1.55-1.36.03-1.61,2.01-.32,4.32-.21,6.37-.43l1.45-1.25v-10.96c-.41-1.18-1.71-1.03-2.66-1.34-1.82-.59.26-1.99.95-2.51,1.5-1.14,4.65-3.43,6.31-4.09,1.08-.43,1.63-.03,1.73,1.12l.06,17.24c.04.12.09.23.18.32.63.73,3.24.45,4.21.49,3.48.13,7.42.3,10.89,0,.65-.06,1.67-.23,1.66-1.04.29-5.4-.41-11.26-.01-16.61.03-.43.12-1.07.4-1.4.1-.11.26-.15.35-.25.52-.55.5-.71,1.4-.8h17.09c.59-.1.81-1.03.86-1.55.15-1.69.06-3.69.09-5.41.04-2.13-.02-4.06-.1-6.19-.03-.9.29-3.48-.79-3.81l-17.34-.06c-1.75-.31-1.17-1.45-.58-2.56.93-1.74,2.48-3.94,3.68-5.52.41-.54,1.17-1.8,1.94-1.57.97.29.39,3.02,1.97,3.34l10.92-.03,1.18-1.32c.23-2.04.11-4.36.43-6.37.12-.73.36-1.45,1.15-.77.66.57,3.44,5.28,3.44,6.06v2.25ZM75.23,48.39c.84.78,3.38.8,4.27.09.81-.66.84-1.52.9-2.5.19-3.1.13-6.21,0-9.31-.06-1.47.34-3.69-1.21-4.49-.76-.39-2.57-.41-3.36-.08-.86.36-1.26,1.28-1.33,2.17-.28,3.59-.16,7.22,0,10.8.05,1.17-.24,2.42.73,3.32ZM75,55.43v2.35c0,.73-2.69,5.15-3.3,5.8-.75.8-1.16.47-1.29-.51-.29-2.12-.21-4.34-.43-6.47l-1.33-1.37h-10.15c.59,1.48-1.17,1.13-1.7,1.45-.42.26-.09,2.55-1.6,1.85v10.15c.48.37.97,1.22,1.57,1.33,2.02.25,4.4.08,6.37.43.61.11,1.09.26.75.93s-5.44,3.66-6.24,3.66h-2.25c-.26.68-.38,4.58.09,4.85,2.19-.42,3.86.6,5.64,1.67.51.31,2.55,1.54,2.76,1.94.35.68-.07.8-.65.93l-6.67.53c-.5.56-1.3.81-1.38,1.62-.25,2.76.2,5.91,0,8.71,0,.28.25.39.36.64.18.43.24,1.79.55,2.05.34.29,1.54.31,2,.5.25.11.36.36.64.36l9.13-.08,1.2-1.3.53-6.67c.13-.58.25-1,.93-.65.4.21,1.64,2.24,1.94,2.76,1.06,1.78,2.08,3.45,1.67,5.64,1.42.53,3.36.35,4.85.09v-2.25c0-.79,2.97-5.88,3.66-6.24s.82.14.93.75c.35,1.97.18,4.35.43,6.37.11.6.95,1.1,1.33,1.57h10.15c-.73-1.55,1.57-1.16,1.85-1.6.35-.57-.07-2.31,1.45-1.7v-10.15l-1.37-1.33c-2.13-.22-4.35-.14-6.47-.43-1.06-.15-1.29-.6-.46-1.34.67-.61,5.02-3.25,5.75-3.25h2.35c.26-1.16.29-2.65.2-3.85-.11-1.56-.59-.9-1.75-.95-1.56-.07-3.46-1.28-4.78-2.12-1.05-.66-3.88-2.21-1.01-2.57,2.03-.25,4.13-.19,6.17-.43.5-.57,1.3-.81,1.37-1.63.25-2.76-.2-5.91,0-8.71-.02-.3-.26-.47-.35-.75-.31-.96.01-1.84-1.13-2.17-.72-.21-1.39-.2-2.07-.63l-9.13.08-1.21,1.29c-.25,2.04-.18,4.13-.43,6.17-.19,1.49-.61,1.72-1.57.49-1.06-1.36-3.04-4.61-3.12-6.28-.05-1.16.61-1.64-.95-1.75-.51-.04-3.69-.05-3.85.2ZM113.48,73.45c-2.15.25-4.6-.05-6.73.28-.41.06-1.12.61-1.34.96-.51.79-.48,2.81-.07,3.64.39.79,1.16,1.13,2.01,1.19,3.82.31,8.57.3,12.4,0,1.29-.1,2.15-.74,2.35-2.05s-.02-3.49-1.65-3.74c-2.2-.34-4.73-.03-6.96-.28ZM38.38,74.36c-1.45.24-3.3-.05-4.71.19-2.38.4-2.49,5.14-.18,5.73.9.23,3.3.22,4.35.25,2,.05,4.01-.04,6-.11.89-.03,2.96.08,3.69-.21,1.58-.62,1.64-2.76,1.29-4.17-.07-.3-.26-.6-.48-.82-.92-.92-1.75-.64-2.9-.7-2.35-.12-4.71-.29-7.07-.17ZM76.18,105.06c-1.01.05-2.22.52-2.46,1.64-.08.39-.1,1.3-.13,1.77-.17,2.82-.09,5.68,0,8.5.09,2.59-.53,5.27,3.03,5.22,1.17-.02,2.55-.45,2.82-1.76.12-.57.12-1.79.15-2.45.11-2.28.06-4.53,0-6.8-.03-1.06.09-3.74-.21-4.59-.51-1.45-1.85-1.6-3.21-1.53Z"/>
  <path fill="#FFFFFF" d="M142.78,68.26c3.85-.37,3.99,5.27.47,5.47s-3.93-5.14-.47-5.47Z"/>
  <path fill="#FFFFFF" d="M82.58,8.25c4.12-.6,4.31,5.76.17,5.37-3.25-.3-3.14-4.94-.17-5.37Z"/>
  <path fill="#FFFFFF" d="M70.38,140.45c4.1-.6,4.39,5,.86,5.36s-4.07-4.89-.86-5.36Z"/>
  <path fill="#FFFFFF" d="M81.57,140.45c4.06-.69,4.43,4.91,1.05,5.35-3.66.48-4.24-4.81-1.05-5.35Z"/>
  <path fill="#FFFFFF" d="M10.48,80.35c3.86-.56,4.29,5.41.46,5.46-3.39.04-3.65-5-.46-5.46Z"/>
  <path fill="#FFFFFF" d="M143.07,79.47c3.39,0,3.74,5.08.37,5.45-3.91.43-4.04-5.45-.37-5.45Z"/>
  <path fill="#FFFFFF" d="M150.98,68.25c3.81-.46,4.08,5.32.47,5.48-3.4.14-3.93-5.06-.47-5.48Z"/>
  <path fill="#FFFFFF" d="M82.47.05c4.29-.67,4.34,5.64.38,5.38-3.22-.21-3.33-4.92-.38-5.38Z"/>
  <path fill="#FFFFFF" d="M10.38,69.15c2.09-.3,3.5,1.11,3.2,3.2s-2.74,2.86-4.31,1.66c-1.82-1.39-1.18-4.52,1.11-4.86Z"/>
  <path fill="#FFFFFF" d="M71.28,8.25c3.8-.56,4.42,4.82,1.05,5.35-3.84.61-4.3-4.87-1.05-5.35Z"/>
  <path fill="#FFFFFF" d="M151.27,79.47c3.38-.08,3.77,5.1.38,5.46-3.85.41-4.07-5.38-.38-5.46Z"/>
  <path fill="#FFFFFF" d="M71.17.05c4.26-.68,4.5,5.52.48,5.38-3.26-.11-3.32-4.93-.48-5.38Z"/>
  <path fill="#FFFFFF" d="M36.48,90.45c3.97-.51,4.05,5.42.47,5.48-3.3.05-3.82-5.05-.47-5.48Z"/>
  <path fill="#FFFFFF" d="M109.68,58.15c3.73-.46,4.15,5.36.47,5.48s-3.75-5.07-.47-5.48Z"/>
  <path fill="#FFFFFF" d="M92.47,41.35c4.18-.67,4.5,5.08.86,5.37-3.44.27-3.89-4.89-.86-5.37Z"/>
  <path fill="#FFFFFF" d="M60.48,114.45c3.66-.52,4.12,4.83,1.05,5.35-3.9.66-4.62-4.84-1.05-5.35Z"/>
  <path fill="#FFFFFF" d="M116.47,89.65c4.5-.76,4.32,5.95.2,5.35-2.87-.42-2.99-4.88-.2-5.35Z"/>
  <path fill="#FFFFFF" d="M43.58,90.45c3.29-.43,4.33,4.21,1.3,5.29-3.67,1.31-5.16-4.79-1.3-5.29Z"/>
  <path fill="#FFFFFF" d="M60.48,107.35c3.57-.51,4.2,4.82,1.05,5.35-3.94.67-4.58-4.85-1.05-5.35Z"/>
  <path fill="#FFFFFF" d="M109.37,89.65c4.11-.69,4.35,4.88,1.15,5.35-3.68.54-4.27-4.83-1.15-5.35Z"/>
  <path fill="#FFFFFF" d="M61.07,41.35c4.39-.74,4.34,5.6.49,5.37-3.21-.19-3.38-4.88-.49-5.37Z"/>
  <path fill="#FFFFFF" d="M36.27,59.05c3.84-.65,4.44,4.87,1.15,5.35-3.93.57-4.19-4.84-1.15-5.35Z"/>
  <path fill="#FFFFFF" d="M61.07,34.25c4.32-.73,4.36,5.5.58,5.38-3.28-.1-3.5-4.89-.58-5.38Z"/>
  <path fill="#FFFFFF" d="M91.88,114.45c3.72-.46,4.23,4.92.87,5.37-3.79.5-4.24-4.95-.87-5.37Z"/>
  <path fill="#FFFFFF" d="M43.37,59.05c3.76-.64,4.51,4.83,1.15,5.35-3.87.61-4.25-4.82-1.15-5.35Z"/>
  <path fill="#FFFFFF" d="M116.78,58.15c3.63-.45,4.21,5.32.47,5.48-3.47.14-3.78-5.07-.47-5.48Z"/>
  <path fill="#FFFFFF" d="M92.47,34.25c4.04-.69,4.61,5.07.86,5.37-3.46.28-3.86-4.86-.86-5.37Z"/>
  <path fill="#FFFFFF" d="M91.88,107.35c3.64-.45,4.28,4.91.87,5.37-3.8.5-4.22-4.95-.87-5.37Z"/>
  <path fill="#FFFFFF" d="M82.68,69.05c4.11-.54,4.17,5.93-.12,5.37-2.9-.38-3.08-4.94.12-5.37Z"/>
  <path fill="#FFFFFF" d="M70.68,77.25c3.83-.3,4.04,5.46.27,5.45-3.55,0-3.53-5.2-.27-5.45Z"/>
  <path fill="#FFFFFF" d="M82.88,77.25c3.68-.29,3.92,5.45.17,5.45-3.41,0-3.76-5.17-.17-5.45Z"/>
  <path fill="#FFFFFF" d="M70.58,69.05c3.64-.48,4.24,4.95.86,5.36-3.97.48-4.2-4.93-.86-5.36Z"/>
</svg>