<?xml version="1.0" encoding="UTF-8"?>
<svg id="Layer_1" data-name="Layer 1" xmlns="http://www.w3.org/2000/svg" viewBox="0 0 129.26 129.26">
  <path fill="#FFFFFF" d="M.03,105.43c-.03-.3-.03-.9,0-1.2.74-6.54,10.76-5.63,10.3.95-.42,6.04-9.6,6.51-10.3.25Z"/>
  <path fill="#FFFFFF" d="M.03,25.03c-.03-.29-.03-.9,0-1.2.72-6.37,9.94-5.76,10.3.25.4,6.6-9.54,7.41-10.3.95Z"/>
  <path fill="#FFFFFF" d="M129.23,23.53c.05.37.05,1.33,0,1.7-.54,4.22-6.05,5.75-8.95,2.6-3.72-4.03.94-10.29,5.89-8.19,1.43.61,2.86,2.32,3.06,3.89Z"/>
  <path fill="#FFFFFF" d="M105.43,129.23c-.3.03-.91.03-1.2,0-6.13-.73-5.8-9.96.25-10.3,6.57-.38,7.65,9.55.95,10.3Z"/>
  <path fill="#FFFFFF" d="M105.63.03c3.99.48,5.76,5.37,3.1,8.45-3.42,3.94-9.51,1.04-8.98-3.98.22-2.11,2.17-4.19,4.29-4.46.36-.05,1.24-.04,1.6,0Z"/>
  <path fill="#FFFFFF" d="M25.03,129.23c-.3.03-.9.03-1.2,0-6.29-.71-5.8-9.95.35-10.3,6.49-.37,7.37,9.57.85,10.3Z"/>
  <path fill="#FFFFFF" d="M129.23,103.93v1.7c-.92,4.47-6.1,5.96-9.1,2.35-3.45-4.14,1.13-9.87,6-7.9,1.61.65,2.71,2.18,3.1,3.85Z"/>
  <path fill="#FFFFFF" d="M25.33.03c4.33.9,5.77,6.29,2.3,9.15-5.55,4.57-12.2-4.96-5.67-8.57l1.67-.58h1.7Z"/>
  <path fill="#FFFFFF" d="M48.92,39.33c-.05-.97.82-2.47.8-3.35,0-.36-.43-1.16-.49-1.71-.53-5.11,6.12-7.68,9.27-3.57,1.58,2.06,1.23,4.76-.38,6.67l6.54,6.56,6.51-6.5c-.24-.5-.67-.89-.91-1.4-.71-1.49-.69-3.26.1-4.71,2.68-4.89,10.31-2.62,9.64,3.14-.05.46-.47,1.23-.48,1.51,0,.24.71,2.77.84,3.15.03.1.01.23.15.2,4.04-7.29,1.34-15.83-.63-23.32-.54-2.05-1.45-4.44-1.85-6.45-.19-.98-.27-1.86.86-2.2,2.01-.6,5.24-.94,7.39-1.21,1.21-.16,4.21-.66,5.24-.37,1.2.34,1.77,3.14,2.06,4.23,1.03,3.82,1.92,8,2.6,11.9.56,3.2,1.24,6.71.53,9.92,2.16-.48,4.27-.25,6.44.02,5.14.64,11.41,1.98,16.39,3.41,1.21.35,3.19.76,3.37,2.23.21,1.71-.61,5.98-.91,7.87-.19,1.21-.42,3.42-.81,4.49s-1.49.81-2.38.63c-2.16-.45-4.59-1.35-6.78-1.92-5.55-1.46-12.08-3.36-17.83-2.28-2.01.38-3.8,1.23-5.6,2.16-.03.13.1.12.2.15.38.11,3.08.83,3.25.81.06,0,.68-.38.9-.46,2.03-.72,3.95-.45,5.49,1.11,3.78,3.83-.11,10.32-5.39,8.49-.33-.11-.97-.58-1.24-.46l-6.5,6.5,6.56,6.54c2.93-2.6,7.66-1.38,8.57,2.52,1.1,4.76-4.16,8.27-8.08,5.29l-3.46.99c.95.46,1.85,1.02,2.83,1.42,8.83,3.64,19.11-1.43,27.76-3.27,1.02-.22,2.05-.41,2.39.81.64,2.26,1,5.71,1.3,8.1.13,1.07.54,3.53.29,4.46-.3,1.09-2.28,1.57-3.25,1.85-3.95,1.14-8.45,2.07-12.5,2.8-3.34.6-6.96,1.31-10.32.63.57,2.58.17,5.25-.22,7.83-.72,4.85-1.94,11.13-3.43,15.77-.41,1.28-.81,2.6-2.4,2.6-2.07,0-5.17-.59-7.29-.92-.91-.14-4.54-.63-5.07-1.03-.63-.48-.39-1.48-.25-2.16.37-1.81,1.14-3.85,1.62-5.68,1.59-5.99,3.81-13.17,2.5-19.34-.47-2.2-1.5-4.31-2.72-6.18l-.93,3.64c3.05,3.17,1.08,8.3-3.28,8.65s-7.02-4.29-4.75-7.86l-.03-.22-6.59-6.5-6.52,6.5c.11.58.48,1.05.63,1.68.54,2.34-.35,4.61-2.47,5.77-4.37,2.4-9.4-2.2-7.12-6.72.18-.36.9-1.12.91-1.38-.34-1.05-.47-2.26-.8-3.29-.04-.11-.03-.24-.19-.26-1,1.8-2,3.62-2.51,5.64-1.6,6.33.89,14.3,2.54,20.48.45,1.7,1.22,3.69,1.55,5.35.24,1.24.11,1.86-1.17,2.18-1.91.48-4.3.76-6.27,1.03-1.52.21-3.72.62-5.19.62-1.84,0-2.19-1.74-2.62-3.18-1.45-4.84-2.75-11.07-3.41-16.09-.31-2.31-.57-4.63-.11-6.94-2.57.6-5.25.17-7.83-.22-3.37-.5-6.85-1.26-10.17-2.03-1.7-.4-6.33-1.29-7.5-2.3-.93-.81-.6-2.06-.5-3.2.21-2.33.62-4.96,1.03-7.27.12-.71.42-2.86.77-3.33.51-.69,1.38-.45,2.1-.3,2.28.46,4.86,1.42,7.18,2.02,5.85,1.54,12.66,3.51,18.66,1.92,1.75-.46,3.25-1.31,4.86-2.09l-3.45-.99c-4.12,2.95-9.25-.48-8.12-5.43.72-3.15,4.43-4.64,7.27-3.23.28.14,1.08.82,1.17.84s.16.02.23-.04l6.39-6.42-6.5-6.59c-.25-.11-.6.23-.87.33-2.3.88-4.57.42-6.12-1.53-3.1-3.87.73-9.68,5.58-8.08.35.12.73.4,1.02.48.44.12,2.75-.5,3.32-.68.1-.03.3-.03.28-.17-1.66-.88-3.32-1.66-5.18-2.07-5.6-1.23-12,.58-17.44,2-2.47.64-5.22,1.65-7.66,2.14-.9.18-1.92.41-2.27-.67-.46-1.37-.7-3.86-.93-5.37-.28-1.89-.84-4.75-.82-6.58.02-1.93,2.27-2.3,3.78-2.72,3.88-1.09,8.23-1.99,12.2-2.7,3.32-.59,6.88-1.29,10.22-.63-.59-2.58-.16-5.25.22-7.83.71-4.79,1.88-10.34,3.21-14.99.29-1,.77-3,1.93-3.27.42-.1,1.34-.04,1.79,0,2.91.19,7.54.84,10.35,1.55.57.14,1.13.24,1.27.93.23,1.12-1.37,5.77-1.75,7.21-1.8,6.78-4.51,15.32-1.65,22.09.25.6.62,1.34,1.02,1.83Z"/>
</svg>