<?xml version="1.0" encoding="UTF-8"?>
<svg id="Layer_1" data-name="Layer 1" xmlns="http://www.w3.org/2000/svg" viewBox="0 0 71.31 168.86">
  <path fill="#FFFFFF" d="M0,69.13c.28-.68.6-.94,1.35-1h27.01c.73.06,1.42.32,2.05.7.05-3.62.02-7.24-.41-10.84-1.48-12.39-7.25-16.34-17.22-22.28-3-1.79-6.55-3.43-9.4-5.3-2.12-1.39-1.38-2.01-.25-3.72,1.26-1.9,2.74-3.85,4.14-5.66.66-.85,2.98-4.02,3.77-4.33,1.25-.5,3.55.99,4.64,1.61,3.39,1.93,6.88,4.2,10.1,6.4,2.68,1.82,6.47,4.32,8.58,6.72.24.27,1.19,1.7,1.4,1.7,1.69-2.65,4.44-4.61,6.96-6.44s5.18-3.55,7.8-5.2c1.79-1.13,7.14-4.74,8.94-4.86,1.22-.08,1.82.91,2.55,1.75,1.67,1.95,3.39,4.31,4.88,6.42.45.64,2.33,3.14,2.41,3.69.14.96-.61,1.43-1.3,1.89-2.99,1.96-6.63,3.67-9.76,5.54-10.12,6.05-15.53,10.05-16.93,22.57-.38,3.44-.46,6.89-.4,10.35.31-.09.53-.28.85-.4.38-.14.79-.26,1.2-.3h27.1c2.41.42.72,3.09.07,4.37-.87,1.69-1.96,3.51-2.98,5.12-.7,1.12-1.94,3.42-3.26,3.74l-21.12.08c-2.58.35-2.54,5.93.29,5.99h20.5c1.23.11,1.79,1.06,2.43,1.97,1.59,2.27,3.85,5.97,4.9,8.5.55,1.32.85,2.68-1.03,2.84h-26.71c-.83-.06-1.51-.36-2.25-.7-.06,3.46.01,6.91.4,10.35.47,4.18,1.49,8.59,3.92,12.08,3.31,4.76,9,8.07,13.91,10.99,2.82,1.67,6.25,3.24,8.9,5,.84.56,1.59,1.2,1.12,2.29s-2.41,3.48-3.22,4.58c-1.35,1.85-3.04,4.28-4.59,5.91-.23.25-.67.7-.96.84-1.16.57-3.12-.65-4.16-1.22-3.76-2.09-7.72-4.69-11.26-7.14-3.35-2.3-6.96-4.73-9.32-8.08-1.14,1.92-2.88,3.33-4.6,4.7-3.2,2.53-6.8,4.86-10.25,7.05-2.12,1.34-4.89,3.27-7.12,4.28-.72.33-1.93.8-2.67.44-.9-.44-2.91-3.23-3.63-4.17-1.58-2.04-3.79-4.77-5.04-6.96-.74-1.3.01-1.82,1.05-2.51,3.1-2.06,6.94-3.84,10.2-5.8,9.68-5.83,15.02-9.9,16.43-21.87.42-3.57.45-7.15.4-10.75-.42.18-.76.4-1.22.53-.3.08-.61.14-.92.18l-27.24-.07c-.56-.15-.8-.4-1.02-.93v-.8c1.32-2.86,2.85-5.65,4.56-8.29.79-1.23,1.68-3.07,3.29-3.21h20.59c2.8-.35,2.54-5.67.2-5.99H7.95c-1.52-.08-2.24-1.5-2.99-2.62-1.87-2.82-3.51-5.83-4.96-8.89v-.8Z"/>
  <path fill="#FFFFFF" d="M51.1,168.83c-.38.05-1.22.04-1.6,0-7.15-.81-6.04-12.92,1.92-11.37,6.56,1.28,5.85,10.63-.32,11.37Z"/>
  <path fill="#FFFFFF" d="M20.8,168.83c-.38.04-1.22.04-1.6,0-6.16-.74-6.87-10.11-.32-11.37,7.96-1.53,9.09,10.56,1.92,11.37Z"/>
  <path fill="#FFFFFF" d="M19.38,46.25c7.62-.81,8.52,10.94,1.07,11.47s-8.46-10.68-1.07-11.47Z"/>
  <path fill="#FFFFFF" d="M55.47,47.96c5.33,5.33-2.76,13.26-8.02,8.27s2.37-13.92,8.02-8.27Z"/>
  <path fill="#FFFFFF" d="M19.18,111.15c9.28-1.05,7.96,13.79-.93,11.18-5.77-1.7-5.11-10.49.93-11.18Z"/>
  <path fill="#FFFFFF" d="M50.48,111.15c7.72-.88,9.01,9.93,2.03,11.33-7.82,1.57-9.29-10.5-2.03-11.33Z"/>
  <path fill="#FFFFFF" d="M49.38.05c4.28-.51,7.66,3.16,6.47,7.37s-6.68,5.44-9.6,2.4c-3.07-3.19-1.41-9.23,3.13-9.77Z"/>
  <path fill="#FFFFFF" d="M19.08.05c7.18-.86,8.86,8.86,3.05,11.05-3.84,1.45-8.04-1.38-7.93-5.53.07-2.59,2.28-5.21,4.88-5.52Z"/>
</svg>