<?xml version="1.0" encoding="UTF-8"?>
<svg id="Layer_1" data-name="Layer 1" xmlns="http://www.w3.org/2000/svg" viewBox="0 0 134.53 134.51">
  <path fill="#FFFFFF" d="M31,0c.67.58.76,1.66.95,2.5.23,1,.83,3.62.6,4.5-.04.17-.19.36-.3.5l-7.05,7.1,2.2.95c3.03,2,5.27,5.03,7.85,7.55l-.75-5.15c.07-.35,1.3-.97,1.66-1.14,3.25-1.49,7.58-1.39,10.39.98,3.41,2.88,4.56,7.31,4.89,11.61.08.11,1.4.17,1.69.21,3.09.45,6.15,1.3,8.57,3.33,3.5,2.95,4.29,7.57,2.42,11.72-.22.5-.81,1.75-1.36,1.78-.69.04-2.5-.33-3.27-.48-.56-.11-1.14-.34-1.68-.32l9.45,9.05,9.45-9.05c-.74.04-1.45.3-2.18.42-.58.1-2.82.5-3.19.2-.08-.07-.46-.74-.55-.9-1.2-2.15-1.55-4.56-1.15-6.99,1.02-6.16,7.95-8.69,13.47-8.88.27-3.8,1.16-7.69,3.75-10.6,2.84-3.2,7.34-3.87,11.22-2.22.54.23,1.98.87,2.03,1.48l-.85,4.94,6.5-6.6c1.03-.88,2.31-1.39,3.55-1.9l-6.9-6.95c-.38-.38-.52-.86-.5-1.4.03-.82.88-5.15,1.22-5.78.12-.23.3-.31.48-.47h.4l30.46,30.49c.32.98-.87,1.08-1.55,1.26-1.13.29-4.01.96-5.05.85-.17-.02-.32-.06-.48-.12-2.53-2.2-4.8-4.74-7.22-7.08l-.25-.1c-.5,1.36-1.1,2.6-2.05,3.7-1.11,1.28-2.66,2.7-3.9,3.9-.86.83-1.78,1.63-2.65,2.45l1.78-.42c.98-.01,2.42-.56,3.34-.47.1,0,.39.11.46.17.05.05.66,1.15.74,1.31,1.86,3.88,1.43,8.64-1.82,11.62-2.87,2.64-6.89,3.64-10.7,3.85-.32,3.87-1.23,7.81-3.9,10.75-2.84,3.11-7.35,3.68-11.13,2.04-.64-.28-2.09-.83-1.97-1.63l.85-4.85c-.61.81-1.43,1.45-2.1,2.2-.35.39-.64.87-.95,1.25-.18.22-.77.68-.85.85-.13.29-.07.91-.25,1.35-.24.6-.92,1.33-1.53,1.57-.48.19-1.07.1-1.37.23-.14.06-2.07,1.97-2.09,2.11l9.14,9.54c-.07-.67-.3-1.32-.42-1.98-.14-.76-.44-2.16-.44-2.87,0-.54.24-.62.62-.89,3.02-2.17,8.44-2.12,11.34.24,3.53,2.88,4.69,7.43,5.05,11.8,4.02.3,8.28,1.34,11.16,4.34,2.68,2.79,3.08,7.18,1.58,10.66-.22.51-.86,1.92-1.42,1.98l-5.02-.83,3.55,3.35c2,2,4.18,3.85,4.95,6.7l.25-.1,7.25-7.15c.15-.06.3-.12.46-.14.84-.1,3.41.5,4.36.72.71.16,2.85.38,2.19,1.52l-30.46,30.35c-1.03.18-1.25-2.03-1.41-2.78-.21-.97-.56-2.43-.62-3.38-.03-.46.02-.88.34-1.24l6.95-6.95.1-.25c-2.71-.75-4.51-2.71-6.4-4.65l-3.65-3.85.84,4.94c-.02.61-1.14,1.1-1.66,1.34-3.27,1.53-7.66,1.43-10.49-.98-3.4-2.9-4.51-7.3-4.85-11.6-4.32-.4-8.81-1.48-11.69-4.96-2.35-2.84-2.44-7.32-.86-10.55.28-.58.75-1.62,1.5-1.5l4.75.85c-.93-.82-1.77-1.78-2.7-2.6-.18-.16-.39-.21-.55-.35-.23-.2-.77-.87-.95-.95-.25-.11-.6-.02-.9-.1-1.16-.28-2-1.19-2.27-2.33-.06-.27.04-.57-.08-.82-.06-.13-1.87-1.97-2.01-1.99-.09-.03-.13.05-.19.09-.17.11-1.94,1.88-2,2.01-.13.29-.04.89-.23,1.37-.27.68-1.04,1.35-1.72,1.58-.4.13-.94.09-1.2.2-.17.08-.63.67-.85.85-.38.31-.86.6-1.25.95-.75.67-1.38,1.49-2.2,2.1l4.75-.85c.36-.02.59-.03.83.27,1.17,1.41,1.91,4.58,1.81,6.38-.37,7.2-7.46,9.97-13.7,10.35-.2,4.06-1.42,8.61-4.55,11.4s-8.33,2.88-11.74.64c-.61-.4-.64-.42-.61-1.19l.85-4.65c-.82.88-1.62,1.79-2.45,2.65-1.2,1.24-2.62,2.79-3.9,3.9-1.11.96-2.34,1.53-3.7,2.05l.1.25,6.85,6.85c.11.14.26.33.3.5.23.9-.38,3.49-.6,4.5-.2.9-.41,3.28-1.75,2.25L.3,104.36l-.3-.46v-.3c.38-.62,1.15-.69,1.8-.85,1.22-.31,3.14-.75,4.36-.84.72-.05.95.05,1.49.48l6.95,6.9c.53-1.23,1.01-2.52,1.9-3.55l6.6-6.5-4.94.85c-.58-.05-1.25-1.51-1.48-2.03-1.64-3.89-.99-8.38,2.22-11.22,2.92-2.59,6.79-3.47,10.6-3.75.18-5.83,3.06-13.12,9.75-13.6,2-.14,5.3.39,6.89,1.72.21.18.31.42.31.7l-.79,4.79,9.05-9.45c0-.09-.05-.14-.1-.2-.11-.16-1.79-1.84-1.91-1.89-.26-.12-.57-.01-.84-.06-.94-.16-1.93-1.08-2.21-1.99-.11-.36-.07-.99-.11-1.1-.05-.13-.82-.79-1-.99-.13-.16-.16-.36-.29-.51-.83-.92-1.78-1.76-2.6-2.7.04.74.3,1.45.42,2.18.11.66.41,2.2.38,2.77-.03.44-.31.51-.62.73-1.54,1.06-4.12,1.71-5.98,1.62-5.8-.27-8.81-4.89-9.9-10.1-.25-1.18-.37-2.37-.54-3.56-4.27-.33-8.82-1.52-11.66-4.94-2.37-2.87-2.41-7.29-.83-10.54.2-.42.71-1.45,1.17-1.51.42-.06,2.28.28,2.84.38.73.13,1.47.4,2.18.42l-3.85-3.65c-1.95-1.88-3.85-3.72-4.65-6.4l-7.1,7.05c-.14.11-.33.26-.5.3-.88.23-3.88-.46-4.9-.7-.71-.17-1.76-.26-2.1-.95v-.3L30.6,0h.4ZM35.58,35.58c.22-.19.06-1.57.01-1.91-.78-5.56-8.52-11.62-11.88-15.92-.56-.5-1.12-.39-1.7.01-.54.37-3.88,3.71-4.25,4.25s-.49,1.08-.04,1.63c4.23,3.45,8.79,9.21,13.85,11.35.68.29,3.51,1.02,4.01.59ZM98.9,35.6c3.77.46,6.99-2.18,9.7-4.45,1.48-1.23,2.98-2.6,4.4-3.9s2.77-2.59,4.05-3.95c.14-.42,0-.9-.25-1.26-.46-.66-3.51-3.68-4.2-4.2-.42-.32-.99-.61-1.49-.29-2.68,2.81-5.43,5.6-7.91,8.59-1.5,1.81-4.3,5.39-4.3,7.8v1.65ZM48.2,29.3c-.27-2.76-2.72-6.54-5.66-6.89-1.96-.23-4.73.69-6.44,1.64,2.24,2.58,4.97,5.23,5.8,8.65l1.5-3.14c1.54-.46,3.21-.18,4.79-.26ZM98.4,23.9c-1.91-.73-4.25-1.71-6.34-1.49-3.01.32-5.39,4.1-5.76,6.89,1.62.09,3.38-.23,4.93.3l1.32,3c.36-.65.5-1.4.83-2.07,1.11-2.2,3.06-4.11,4.62-5.98.08-.1.47-.56.4-.65ZM57,44.8c.94-2.57,2.38-5.74.78-8.33-1.25-2.02-3.85-3.46-6.18-3.77-.09,1.58.22,3.26-.26,4.79l-3.14,1.5c2.52.55,4.66,2.34,6.6,3.95.6.49,1.37,1.35,1.95,1.75.08.06.1.14.25.1ZM83,32.7c-2.7.23-6.19,2.47-6.85,5.2-.51,2.09.58,5.02,1.5,6.9,2.62-2.18,5.23-4.96,8.65-5.8-.05-.15-.38-.25-.53-.32-.62-.28-1.93-.66-2.41-.99-.14-.1-.36-.6-.36-.74v-4.25ZM32.7,41.9c-3.37-.82-5.99-3.52-8.55-5.7-.1-.13-.1-.11-.2,0-.22.27-.52,1.08-.65,1.45-1.49,4.02-1.34,7.06,2.61,9.39,1.01.6,2.23.98,3.39,1.16.06-1.59-.17-3.25.26-4.79l3.14-1.5ZM105.2,48.2c1.81-.23,3.55-1.03,4.9-2.25,2.37-2.13,2.36-4.12,1.55-7.05-.27-.96-.65-1.91-1.1-2.8-2.65,2.16-5.22,4.94-8.65,5.8l2.94,1.31c.13.09.36.73.36.84v4.15ZM54.4,49.4c.1-.12-2.2-1.87-2.43-2.02-1.92-1.29-4.29-2.43-6.65-2.06-.34,2.28.68,4.53,1.9,6.41.15.24,2.04,2.77,2.18,2.67.08-.55.66-.98,1.15-.6l8.89,8.79,3.16-3.23-8.8-8.81c-.31-.54.03-1.07.6-1.16ZM89.3,45.3c-2.34-.34-4.59.69-6.51,1.94-.23.15-2.79,2.02-2.69,2.16.85.2,1.01.64.5,1.35l-8.7,8.7,3.05,3.06.25.05,8.65-8.66c.54-.45,1.13-.25,1.25.44l.2.02c1.09-1.34,2.17-2.69,2.95-4.25.46-.92,1.05-2.32,1.05-3.35v-1.45ZM32.7,51.6c.25,2.74,2.76,6.55,5.66,6.89,1.96.23,4.73-.69,6.44-1.64-2.23-2.58-4.95-5.24-5.8-8.65l-1.5,3.14c-1.55.45-3.2.19-4.79.26ZM95.7,48.3c-.26-.04-.16.02-.21.14-.19.42-.28.98-.47,1.43-.66,1.55-2.14,3.36-3.22,4.68-.51.63-1.44,1.45-1.84,2.06-.08.12-.17.23-.16.39,1.6.63,3.42,1.37,5.15,1.5,3.84.28,6.33-3.52,6.95-6.9-1.63-.07-3.31.19-4.9-.26l-1.31-3.05ZM67.26,64.11l-3.16,3.16,3.14,3.23,3.25-3.25-3.23-3.14ZM45.3,89.3h1.45c.92,0,2.32-.54,3.15-.95,1.63-.79,3.05-1.91,4.45-3.05l-.02-.2c-.58-.12-.84-.7-.48-1.2l8.7-8.71-.05-.25-3.06-3.05-8.7,8.7c-.59.54-1.19.21-1.35-.5-2.24,2.48-4.52,5.67-4.1,9.2ZM87.75,89.3c.5.04,1.05-.03,1.55,0v-1.55c0-1.52-1.36-4.02-2.22-5.28-.56-.81-1.29-1.53-1.78-2.37l-.2.06c-.03.55-.62.96-1.1.58l-8.85-8.84-3.2,3.2,8.8,8.9c.39.51-.06,1.1-.64,1.1,1.93,1.86,4.89,3.95,7.65,4.2ZM32.7,83h4.35c.08,0,.57.24.64.36l1.31,2.94c.85-3.42,3.62-6.02,5.8-8.65-1.87-.93-4.82-2.01-6.9-1.5-2.74.66-4.96,4.15-5.2,6.85ZM101.9,83c-.42-2.72-2.38-6.13-5.22-6.83-2.17-.54-5.03.56-6.98,1.48,2.21,2.54,4.95,5.19,5.8,8.55.23.04.16-.01.22-.13.31-.57.93-2.61,1.32-2.88.06-.04.46-.2.5-.2h4.35ZM29.3,86.3c-2.78.37-6.57,2.75-6.89,5.76-.22,2.09.78,4.41,1.49,6.34.08.06.55-.32.65-.4,2.5-2.07,4.89-4.59,8.15-5.4l-3.11-1.37c-.48-1.58-.23-3.29-.29-4.93ZM105.2,86.3v4.15c0,.18-.21.79-.41.89l-2.89,1.2c.55.28,1.17.41,1.74.66,2.44,1.1,4.78,3.47,6.82,5.18.15.06.37-.52.43-.66.73-1.54,1.52-4.39,1.17-6.04-.61-2.89-4.07-5.03-6.86-5.39ZM83,101.8v-4.25s.15-.44.2-.5c.27-.4,2.31-1.01,2.88-1.32.11-.06.17,0,.13-.22-3.37-.86-5.99-3.6-8.55-5.8-.91,1.95-2.01,4.83-1.48,6.98.65,2.64,4.19,4.97,6.84,5.11ZM57,89.8c-.16-.01-.27.08-.39.16-.61.4-1.43,1.33-2.06,1.84-1.85,1.51-3.87,3.19-6.25,3.7-.05.26.04.15.14.21.5.26,2.72,1.02,2.9,1.3.46,1.57.17,3.27.26,4.9,2.39-.48,4.89-1.72,6.18-3.87,1.57-2.62.23-5.66-.78-8.23ZM35.6,98.9h-1.75c-2.3,0-5.96,2.86-7.7,4.3-2.99,2.48-5.78,5.23-8.59,7.91-.32.5-.03,1.08.29,1.49.52.69,3.54,3.74,4.2,4.2.35.25.83.39,1.26.25,1.35-1.29,2.67-2.67,3.95-4.05s2.67-2.92,3.9-4.4c2.26-2.7,4.92-5.94,4.45-9.7ZM98.9,98.9v1.75c0,2.11,2.4,5.38,3.7,7,2.6,3.23,5.57,6.18,8.36,9.24.55.38,1.12.22,1.63-.14.73-.51,3.41-3.24,4.01-3.99.49-.61.74-1.22.2-1.9-2.46-2.2-4.8-4.55-7.3-6.7-1.99-1.71-6.17-5.25-8.85-5.25h-1.75ZM48.2,105.2h-4.15s-.52-.17-.59-.21c-.45-.26-1.05-2.24-1.36-2.84-.05-.09-.05-.24-.2-.25-.86,3.43-3.63,6-5.8,8.65,2.26,1.04,5.6,2.29,7.97,1.07,2.21-1.14,3.87-3.98,4.13-6.42ZM90.45,105.2c-1.28.16-2.84-.12-4.15,0,.35,2.57,2.24,5.79,4.77,6.68,2.28.8,5.32-.42,7.43-1.33-1.5-1.64-3.05-3.37-4.28-5.22-.76-1.14-1.21-2.14-1.67-3.43l-1.2,2.89c-.14.22-.65.38-.89.41Z"/>
  <path fill="#FFFFFF" d="M129.58,11.82c2.49-.16,4.05,2.77,2.37,4.68-2.44,2.77-6.41-.78-4.45-3.45.47-.64,1.26-1.17,2.08-1.23Z"/>
  <path fill="#FFFFFF" d="M119.48,127.03c4.71-.68,3.84,7.14-.65,5.4-2.69-1.04-2.13-5,.65-5.4Z"/>
  <path fill="#FFFFFF" d="M14.07,127.02c2.78-.48,4.71,3.02,2.37,4.97s-5.65-.79-4.33-3.43c.32-.63,1.25-1.42,1.96-1.54Z"/>
  <path fill="#FFFFFF" d="M129.68,117.02c1.04-.07,2.19.68,2.66,1.59,1.39,2.73-2.04,5.41-4.39,3.39-1.94-1.66-.68-4.8,1.73-4.97Z"/>
  <path fill="#FFFFFF" d="M119.37,1.92c3.01-.47,4.61,3.43,2.06,5.16-2.12,1.44-4.99-.73-4.26-3.16.28-.94,1.22-1.84,2.2-2Z"/>
  <path fill="#FFFFFF" d="M4.48,117.03c2.29-.2,3.99,2.67,2.47,4.58-1.88,2.34-5.54.6-5.01-2.31.21-1.12,1.41-2.17,2.54-2.27Z"/>
  <path fill="#FFFFFF" d="M4.58,11.82c1.07-.08,2.27.66,2.71,1.64,1.34,3.02-2.94,5.77-4.97,2.67-1.18-1.8.2-4.16,2.26-4.31Z"/>
  <path fill="#FFFFFF" d="M14.18,1.93c2.32-.34,4.27,2.25,2.87,4.27-1.87,2.68-5.84.93-5.12-2.12.24-1.02,1.19-2,2.25-2.15Z"/>
</svg>