<?xml version="1.0" encoding="UTF-8"?>
<svg id="Layer_1" data-name="Layer 1" xmlns="http://www.w3.org/2000/svg" viewBox="0 0 132.6 132.7">
  <path fill="#FFFFFF" d="M66.7,0c.58.29,1.14.62,1.69.96.9.56,4.13,2.6,4.59,3.31.06.09.32.64.32.68v11.75c1.45-.45,2.82-1.14,4.35-1.3,1.31-.13,2.61,0,3.89,0,2.39,0,4.77,0,7.15.09l-1.93-1.22-2.97-2.23c-.35-.48.06-1.52.23-2.07.67-2.12,1.99-4.08,3.67-5.53,6.19-5.34,14.05-1.68,19.37,2.94,2.5-1.94,5.11-3.95,8.18-4.89,4.99-1.52,9.17-.53,12.65,3.35,5.68,6.32,2.18,14.13-2.6,19.7,2.21,2.87,4.34,5.74,5.15,9.35,1.3,5.76-1.24,11.01-6.68,13.32-.67.28-2.57,1.05-3.17.63-.28-.19-1.69-2.19-1.98-2.62l-1.42-2.23c.02,1.12-.03,2.24,0,3.35.04,2.36.26,4.82.1,7.19-.11,1.71-.8,3.27-1.4,4.85h11.95c.08,0,.48.24.58.32.68.47,2.33,3.09,2.87,3.93.89,1.39,1.83,2.26.94,3.94-.66,1.26-2.29,3.71-3.2,4.8-.31.37-.98,1.01-1.49,1.01h-11.65c.64,1.51,1.28,3.09,1.4,4.75.16,2.37-.06,4.83-.1,7.19-.02,1.12.02,2.24,0,3.35l1.22-1.93c.53-.48,1.86-2.86,2.38-3.02.57-.18,2.55.57,3.17.84,3.35,1.47,6.56,5.22,6.84,8.96.39,5.31-2.3,9.68-5.51,13.6,3.23,3.95,5.98,8.43,5.49,13.79-.38,4.1-4.58,8.56-8.49,9.61-5.59,1.51-11.13-1.8-15.25-5.23-3.3,2.81-7.23,5.31-11.7,5.57-5.36.32-9.95-3.45-11.42-8.48-.17-.58-.49-1.32-.07-1.81.53-.63,1.89-1.25,2.51-1.89l2.43-1.52c-1.78.14-3.57.07-5.35.09-2.41.04-4.95.36-7.32-.27-.97-.26-1.86-.75-2.82-1.03v11.75c0,.07-.29.64-.36.74-.5.73-3.39,2.54-4.29,3.11-.6.38-1.23.74-1.85,1.1h-.9c-1.71-1.05-3.61-2.12-5.19-3.36-.37-.29-1.31-1-1.31-1.49v-11.85c-.86.24-1.67.67-2.52.93-2.48.74-5.08.41-7.62.37-1.79-.03-3.57.05-5.35-.09l2.13,1.32c.65.66,2.28,1.43,2.81,2.09.38.47.14.98,0,1.49-1.34,5.12-5.97,9.09-11.4,8.8-4.51-.24-8.48-2.72-11.79-5.58-4.12,3.42-9.68,6.75-15.25,5.23-3.93-1.07-8.11-5.47-8.49-9.61-.49-5.38,2.23-9.83,5.49-13.79-3.32-4.01-6.34-9.02-5.37-14.47.73-4.12,4.51-7.67,8.47-8.73.51-.14,1.18-.43,1.64-.04l2.38,3.22.98,1.57c-.02-.95.03-1.9,0-2.85-.06-2.55-.28-5.23-.1-7.79.12-1.7.83-3.06,1.3-4.65H5.15c-.1,0-.66-.24-.78-.32-.73-.45-2.56-3.32-3.11-4.19-.46-.74-.95-1.47-1.26-2.29v-.5c.24-.64.6-1.21.96-1.79.71-1.16,1.63-2.58,2.46-3.64.27-.35.97-1.27,1.43-1.27h11.85c-.16-.99-.72-1.89-.97-2.88-.7-2.72-.29-6.81-.22-9.67.02-.95-.02-1.9,0-2.85l-1.22,1.93c-.7.7-1.43,2.28-2.13,2.87-.49.41-1.35.06-1.9-.1-3.96-1.15-7.87-4.95-8.32-9.18-.57-5.37,2.16-9.95,5.46-13.89.04-.21-.75-1.01-.92-1.25C2.53,19.18-.44,12.49,4.16,6.61,7.67,2.12,12.21.81,17.68,2.57c2.94.95,5.56,2.94,7.96,4.82,5.32-4.68,13.21-8.27,19.42-2.9,1.78,1.54,3.08,3.61,3.72,5.88.17.6.48,1.26.03,1.77-.64.72-2.15,1.38-2.87,2.13l-1.93,1.22c2.35-.09,4.69-.09,7.05-.09,1.29,0,2.59-.14,3.89,0,1.62.17,2.93.82,4.45,1.3V4.85c0-.47.92-1.16,1.27-1.43,1.62-1.27,3.54-2.41,5.33-3.42h.7ZM20.4,17.8l-1.25-3.2c-.21-.54.18-1.01.5-1.4.38-.46,3.18-3.01,3.15-3.24-2.59-2.11-7.56-3.13-10.34-.96-.72.56-1.14,1.39-1.75,1.95-1.54,1.4-2.62,2.01-2.8,4.4-.22,2.82.47,5.13,2.01,7.45.15.04.17-.04.25-.1.96-.66,2.07-2.24,3.05-3.05.3-.25.62-.5,1-.61l3.7,1.36c-.61-1.25-1.38-2.57-1.4-4,1.39.2,2.63.84,3.9,1.4ZM42.7,15.6c-.66-1.98-1.94-4.74-3.45-6.2-2.79-2.68-8.06-1.67-10.85.55-.08.32,3.56,3.23,3.73,4.17.1.53-1.47,3.54-1.33,3.68.7-.26,1.34-.65,2.05-.9.75-.27,1.46-.42,2.23-.57,2.48-.47,5.1-.67,7.62-.73ZM101.9,17.8c.14-.14-1.44-3.16-1.38-3.63.03-.21.38-.69.53-.87.56-.7,1.63-1.75,2.3-2.4.17-.17,1.01-.73.95-.94-2.68-2.07-7.3-3.11-10.23-1.03-1.39.98-2.76,3.39-3.45,4.95-.16.36-.57,1.25-.61,1.59-.03.2,0,.13.15.15,3.11.21,6.76.25,9.7,1.3.71.25,1.34.65,2.05.9ZM121.83,10.87c-.21-.21-.44-.7-.68-.97-1.79-1.98-3.9-2.34-6.49-1.99-1.84.25-3.31,1.06-4.86,1.99.91,1.14,2.24,2.09,3.15,3.2.37.45.77.89.6,1.5-.11.4-1.38,3.06-1.25,3.2,1.28-.61,2.58-1.22,4-1.4-.28,1.42-.8,2.74-1.5,4l3.35-1.31c.53-.15,1.07.34,1.45.66,1.06.88,2,2.14,3.05,3.05.19.05.12-.05.17-.12,1.92-2.68,3.01-7.4.86-10.21-.6-.78-1.3-1.05-1.85-1.6ZM57.48,20.63c-4.72.13-9.75.22-14.43.77-3.54.42-7.14,1.21-9.55,4.05,2.58,3.25,6.96,3.87,10.85,4.25,3.52.34,7.07.41,10.6.5,1,.03,2.5.28,3.47.08.59-.12.8-.73.97-1.23-.17-2.22.25-4.83,0-6.99-.14-1.24-.83-1.45-1.92-1.42ZM74.37,20.62c-.56.16-.82.57-1.03,1.07.13,2.25-.34,5.15-.04,7.34.06.45.46,1.17.95,1.25.62.11,1.99.02,2.7,0,1.28-.02,2.61-.16,3.89-.21,5.14-.21,14.14-.05,17.85-4.05.68-.74.25-.91-.4-1.5-3.91-3.55-11.61-3.41-16.66-3.64-1.12-.05-2.27-.18-3.39-.21-1.29-.04-2.59.04-3.88-.07ZM17.8,30.8l-3.2,1.25c-.69.22-1.41-.56-1.9-1-.37-.33-2.56-2.7-2.75-2.65-1.65,2.19-2.35,4.9-2.04,7.64.4,3.65,4.66,5.48,7.64,6.66.21-2.51.32-5.04.78-7.52.29-1.57.76-2.95,1.47-4.38ZM117.1,42.7c3.17-1.25,7.4-3.03,7.7-6.95.21-2.71-.46-5.18-2.06-7.35-.27-.07-3.38,3.52-4.12,3.68l-.53-.03-3.3-1.35c.3.65.66,1.28.9,1.95,1.12,3.07,1.12,6.81,1.4,10.05ZM25.46,33.51c-3.15,2.63-3.78,6.88-4.16,10.74-.35,3.52-.41,7.08-.5,10.6-.03,1.11-.27,2.38-.1,3.49.1.61.89.98,1.46,1.04,1.41.17,5.27.17,6.68,0,.82-.1,1.55-.54,1.56-1.44.02-1.2-.17-2.67-.21-3.89-.12-4.14-.17-8.59-.81-12.69-.46-2.93-1.47-6.02-3.92-7.86ZM107.15,33.52c-3.07,2.49-3.76,6.6-4.15,10.33-.49,4.74-.47,9.53-.69,14.29.06.79.86,1.16,1.55,1.25,1.41.17,5.27.17,6.68,0,.63-.08,1.38-.44,1.46-1.14.12-1.02-.08-2.09-.11-3.1-.09-3.6-.15-7.22-.5-10.8-.37-3.85-1-8.33-4.25-10.83ZM73.3,34.2v11.85c0,.21-.52.92-.71,1.09-.98.9-3.68,2.62-4.9,3.3-.93.52-1.28.75-2.32.24-.88-.43-4.89-3.09-5.47-3.73-.12-.13-.5-.77-.5-.9v-11.85c-1.54.62-3.07,1.29-4.75,1.4-2.53.17-5.17-.05-7.69-.1-.98-.02-1.97.02-2.95,0l1.77,1.08c.52.35,2.95,2.07,3.17,2.43.26.44-.15,1.56-.32,2.07-1.02,3.13-3.3,5.74-6.33,7.07-.65.29-2.77,1.1-3.34.74-.71-.95-1.47-1.88-2.14-2.86-.46-.67-.83-1.39-1.32-2.03.02.55-.03,1.1,0,1.65.11,2.9.32,6.42.1,9.29-.12,1.6-.88,2.94-1.3,4.45h11.95c.57,0,2.01,2.2,2.37,2.73.5.72,2.22,3.16,2.35,3.85.16.85-.24,1.35-.63,2.02-.69,1.17-2.31,3.79-3.2,4.7-.23.24-.98.71-1.29.71h-11.55c.44,1.42,1.18,2.84,1.3,4.35.23,2.87,0,6.39-.1,9.29-.02.58.02,1.17,0,1.75l1.08-1.77c.34-.51,2.19-3.1,2.55-3.25.15-.07.24-.08.41-.07.62.03,2.12.61,2.73.88,2.54,1.11,4.76,3.27,5.88,5.82.27.61.87,2.19.91,2.79.02.24-.07.42-.15.63l-3.11,2.31-1.89,1.16c1.45-.15,2.9-.06,4.35-.09,2.65-.06,5.57-.42,8.17.22,1.02.25,1.98.75,2.98,1.07v-11.85c0-.73,2.15-2.1,2.77-2.53.71-.5,3.03-2.13,3.73-2.27.55-.11.84-.05,1.34.17,1.12.5,2.97,1.84,4,2.6.57.42,2.07,1.36,2.07,2.13v11.75c1.31-.45,2.57-1.1,3.96-1.29,2.31-.32,4.77-.06,7.08,0,1.49.03,2.97-.06,4.45.09l-2.13-1.32-2.87-2.16c-.36-.47.01-1.37.18-1.9,1-3.35,3.42-6.1,6.66-7.44.54-.23,2-.75,2.53-.78.17,0,.26,0,.41.07.36.15,1.88,2.32,2.21,2.79l1.42,2.23c-.11-2.45-.09-4.89-.09-7.35,0-1.25-.12-2.52,0-3.79.13-1.5.86-2.84,1.3-4.25h-11.55c-.44,0-1.1-.48-1.39-.81-.94-1.07-2.38-3.33-3.1-4.6-.4-.7-.78-1.13-.63-2.02.12-.69,2.21-3.69,2.75-4.45.32-.44,1.46-2.13,1.97-2.13h11.95c-.23-1.01-.77-1.92-1.03-2.92-.45-1.75-.27-3.46-.27-5.22,0-2.46-.02-4.91.09-7.35l-1.32,2.13c-.29.42-2.03,2.8-2.28,2.92-.52.24-2.61-.55-3.2-.8-2.66-1.16-4.77-3.32-5.92-5.98-.25-.58-.86-2.17-.88-2.73,0-.13.02-.2.07-.31.15-.36,2.69-2.17,3.19-2.51l1.83-1.12c-.98.02-1.97-.03-2.95,0-2.52.06-5.16.27-7.69.1-1.67-.11-3.22-.78-4.75-1.4ZM42.7,35.4c-2.71-.13-5.44-.31-8.1-.9.38,2.72.79,5.45.8,8.2.11.13,2.84-1.2,3.17-1.38,1.47-.81,1.82-1.08,2.65-2.55.2-.35,1.63-3.24,1.48-3.37ZM97.3,42.7c-.02-2.76.41-5.48.8-8.2-2.65.59-5.39.77-8.1.9-.09.08.7,1.89.81,2.14.29.61,1.2,2.31,1.62,2.73.22.22,1.17.76,1.5.95s3.24,1.62,3.37,1.48ZM21.77,73.42c-.61.2-1.02.46-1.08,1.12-.1,1.13.08,2.29.11,3.4.11,4.3.16,8.93.81,13.19.46,2.98,1.42,6.18,3.92,8.06,2.88-2.28,3.67-6.05,4.06-9.54.57-4.97.53-10,.79-14.99-.04-.64-.55-1.1-1.15-1.26l-7.47.02ZM102.63,73.83c-.56.58-.24,1.28-.23,1.91.08,5.13.06,11.38,1.02,16.38.5,2.59,1.59,5.51,3.81,7.07,3.18-2.64,3.79-6.95,4.16-10.84.34-3.55.41-7.14.5-10.7.03-1.05.26-2.24.1-3.29-.08-.51-.77-.9-1.24-.96-2.2-.27-4.94.21-7.2,0-.25.03-.74.26-.91.44ZM17.9,102c-2.06-3.62-1.96-7.96-2.35-12-3.02,1.31-7.26,2.97-7.64,6.76-.29,2.87.45,5.26,1.99,7.64.19.13.57-.52.7-.65.78-.82,1.94-2.01,2.8-2.7.33-.26.73-.56,1.18-.38l3.32,1.33ZM42.7,97.3c-.31-1.01-.75-1.98-1.25-2.9-.99-1.84-1.49-2.29-3.35-3.25-.87-.45-1.79-.79-2.7-1.15,0,2.75-.42,5.48-.8,8.2,2.67-.54,5.39-.73,8.1-.9ZM98.1,98.2c-.43-2.71-.76-5.45-.85-8.2-.89.37-1.8.7-2.65,1.15-1.62.84-2.24,1.25-3.15,2.85-.19.33-1.59,3.18-1.45,3.3,2.71.18,5.43.36,8.1.9ZM114.8,102c.15.13,3.19-1.47,3.72-1.38.95.16,3.84,3.78,4.13,3.78,1.72-2.18,2.41-4.87,2.14-7.64-.38-3.77-4.63-5.45-7.64-6.76-.42,4.04-.31,8.37-2.35,12ZM56.38,102.43c-4.45.09-9.32.23-13.73.77-3.41.42-6.88,1.29-9.15,4.05,2.09,2.5,5.22,3.49,8.36,3.94,3.88.55,7.89.52,11.78.82,1.42-.23,3.34.32,4.68.07.59-.11.99-.77,1.06-1.34.29-2.13-.18-4.88-.02-7.07-.36-1.66-1.68-1.27-3-1.24ZM74.27,102.42c-.68.14-.93.92-.98,1.52-.17,2.22.13,4.65.01,6.9.16.5.43,1.04.96,1.24,4.89-.15,9.8-.17,14.68-.68,3.2-.34,6.72-.89,9.2-3.1.15-.14.91-.86.94-.97.06-.23-.77-.99-.99-1.18-2.7-2.37-6.6-2.83-10.05-3.15-3.75-.35-7.55-.43-11.3-.5-.78-.01-1.68-.24-2.47-.08ZM17.9,112.3c-.16-.13-3.18,1.47-3.72,1.38-.22-.04-.68-.38-.88-.53-.68-.54-1.66-1.56-2.3-2.2-.16-.16-.89-1.2-1.1-1.05-.34.75-.85,1.41-1.19,2.16-1.14,2.54-1.36,6.46.63,8.64.44.48,1.1.78,1.5,1.2.43.45.72,1.08,1.25,1.55,2.77,2.51,8.02,1.52,10.7-.71.04-.22-.69-.68-.85-.84-.48-.47-2.73-2.73-2.83-3.17-.05-.21-.04-.43.03-.63l1.25-3.2c-1.25.62-2.59,1.28-4,1.4.28-1.42.8-2.73,1.5-4ZM112.2,114.9c.37,1.01,1.01,2.13,1.3,3.14.06.22.12.34.08.58-.19.98-3.79,3.84-3.78,4.13,2.81,2.19,8.1,3.27,10.9.6.44-.42.74-1.06,1.14-1.46.37-.36.97-.65,1.36-1.04.9-.91,1.51-2.32,1.6-3.6.19-2.7-.46-5.24-2.15-7.35-1.38,1.22-2.51,2.88-4.13,3.78l-3.72-1.38c.62,1.24,1.31,2.59,1.4,4-1.44-.14-2.7-.86-4-1.4ZM42.7,117.2c-3.11-.33-6.67-.31-9.65-1.3-.78-.26-1.51-.66-2.25-1-.14.14,1.43,3.19,1.33,3.68-.05.27-.31.61-.48.82l-3.25,3.34c2.33,1.89,6.26,2.84,9.09,1.71,2.67-1.06,4.25-4.73,5.2-7.25ZM101.9,114.9c-1.03.49-2.06.99-3.18,1.27-2.69.66-5.43.67-8.16.94-.15.01-.59.04-.55.22.08.36.35.94.5,1.3.64,1.47,2.05,4.02,3.29,5.01,2.86,2.27,7.82,1.26,10.49-.89l-3.4-3.5-.38-.72,1.38-3.63Z"/>
</svg>