<?xml version="1.0" encoding="UTF-8"?>
<svg id="Layer_1" data-name="Layer 1" xmlns="http://www.w3.org/2000/svg" viewBox="0 0 130.73 131">
  <path fill="#FFFFFF" d="M130.72,20.71v.7c-.17.75-.34,1.51-.62,2.23-.27.68-.71,1.49-1.06,2.14-3.57,6.73-8.89,13.27-11.42,20.48-.23.67-.82,3.4-1.05,3.65-.22.23-1.14.34-1.51.39-1.93.28-3.36.14-5.29.81-6.64,2.29-10.13,8.45-13.13,14.37,2.94,5.97,6.57,12.26,13.28,14.48,1.29.43,1.97.41,3.25.55.64.07,3.14.26,3.45.65.19.24.77,2.95.99,3.61,2.29,6.54,7.12,12.98,10.58,19.02.82,1.43,1.78,2.99,2.22,4.58.12.42.17.84.3,1.25-.02.23.02.47,0,.7-.23,2.28-1.88,4.01-3.55,5.4-2.3,1.9-4.97,3.2-7.85,3.95-.77,2.92-2.08,5.58-4,7.9-3.35,4.03-5.71,4.32-10.3,1.9-6.77-3.57-13-8.71-20.25-11.35-1.3-.47-2.64-.72-3.95-1.15-.28-.22-.32-.77-.39-1.11-.39-2.2-.2-3.89-1.01-6.09-2.36-6.36-8.27-9.71-13.98-12.63-.37-.06-2.04.92-2.49,1.17-5.15,2.82-9.9,6.1-11.88,11.92-.69,2.04-.48,3.8-.88,5.82-.07.33-.08.71-.37.93-8.89,2.1-16.06,8.09-23.93,12.37-4.96,2.7-7.44,2.22-10.91-2.23-1.72-2.2-2.92-4.68-3.61-7.39-2.95-.87-5.64-2.12-8-4.1-4.78-4.02-3.85-6.67-1.07-11.56,3.47-6.1,8.18-12.33,10.59-18.91.43-1.18.6-2.31.95-3.45.31-.98.8-.83,1.74-.96,1.78-.26,3.21-.15,4.99-.71,3.15-1,6.09-3.21,8.15-5.75s3.74-5.74,5.3-8.71c.01-.23-.89-1.86-1.08-2.21-2.76-5.12-6-9.98-11.69-12.11-2.36-.88-4.23-.52-6.43-1.07-.3-.08-.6-.13-.8-.4-.29-.4-.56-2.27-.77-2.93-2.34-7.43-8.24-14.52-11.85-21.45-2.47-4.76-1.6-7.16,2.47-10.36,2.22-1.75,4.7-2.94,7.44-3.66.83-2.99,2.15-5.67,4.15-8.05,4.15-4.92,6.91-3.63,11.82-.82,6.16,3.54,13.54,9.1,20.31,10.99.77.21,2.21.16,2.49,1.01.4,1.17.28,3.02.44,4.26.18,1.46,1.06,3.44,1.77,4.73,2.84,5.12,7.96,7.83,12.97,10.43.31.02,2-.96,2.41-1.18,5.1-2.79,9.83-6.02,11.83-11.77.72-2.07.55-3.72.91-5.79.06-.34.11-.9.39-1.11,1.24-.41,2.49-.63,3.72-1.08,7.71-2.78,14.14-8.41,21.37-11.93,3.69-1.8,6.01-1.32,8.76,1.65,2.22,2.41,3.83,5.41,4.6,8.6,2.93.82,5.55,2.07,7.9,4,1.68,1.38,3.32,3.12,3.55,5.4ZM37.93,25c1.48.11,2.85.24,4.31.54,1.92.41,3.84,1.04,5.68,1.73.11.09.29-.02.3-.11.02-.1-1.15-1.32-1.34-1.56-1.61-2.05-2.77-4.65-3.58-7.12l-.14-.16c-5.29-2.82-9.87-6.81-14.95-9.95-1.39-.86-4.21-2.56-5.83-2.35-1.25.16-2.83,1.64-3.66,2.54-.28.3-1.49,1.73-1.6,2-.07.17.04.13.15.15.57.07,1.31.03,1.9.1,3.94.46,8.74,1.92,11.98,4.22s6.13,5.77,6.78,9.97ZM113.52,10.71c.09-.08-.8-1.22-.9-1.35-1.19-1.48-3.25-3.66-5.32-3.33s-5.41,2.69-7.15,3.85c-4.21,2.82-8.18,6.01-12.63,8.47-1.09,2.72-2.21,5.41-4.1,7.7-.14.17-1.51,1.36-.69,1.21.59-.11,1.56-.58,2.22-.78,1.62-.5,3.47-1.05,5.14-1.26.88-.11,1.75-.07,2.62-.23,1.01-5.88,6-10.35,11.39-12.36,2.97-1.11,6.25-1.85,9.42-1.93ZM17.6,13.94c-.96.1-1.88.49-2.78.82-1.8,3.77-.9,7.67,1.26,11.04,2.3,3.61,5.94,6.66,10.48,6.39.55-.75,1.13-1.45,1.82-2.08.8-.73,1.07-1,1.8-1.8.61-.67,1.31-1.22,2.03-1.77.25-4.85-3.26-8.69-7.22-10.95-2.4-1.37-4.58-1.94-7.39-1.65ZM104.04,32.19c4.22.27,7.67-2.33,10-5.61,2.2-3.09,3.46-6.52,2.38-10.32-.08-.28-.43-1.35-.61-1.49-6.84-3.45-17.13,3.61-17.39,10.9-.04,1.22.4,1.05,1.1,1.7s1.17,1.45,1.73,2.02c.21.21.7.43.97.68.67.62,1.36,1.33,1.82,2.13ZM10.72,17.11l-1.45,1c-1.5,1.34-3.59,3.07-3.23,5.32.29,1.84,2.67,5.32,3.75,6.95,2.85,4.28,6.1,8.3,8.57,12.83,2.41.88,4.8,1.89,6.88,3.42.6.44,1.11,1,1.67,1.43.1.08.13.19.3.15,0-.11.07-.19.05-.31-.14-.73-.73-1.98-.98-2.81-.69-2.35-1.25-4.71-1.27-7.18-6.02-.89-10.47-6.12-12.47-11.58-1.06-2.9-1.77-6.13-1.83-9.22ZM103.42,48.21c.17.04.2-.07.3-.15.67-.51,1.25-1.13,1.97-1.63,2.06-1.45,4.3-2.35,6.64-3.26,2.27-4.2,5.25-7.94,7.92-11.88,1.25-1.84,4.47-6.41,4.46-8.52-.01-1.46-1.74-3.27-2.78-4.2-.3-.26-1.59-1.34-1.85-1.45-.17-.07-.13.04-.15.15-.05.37.03.81,0,1.2-.31,3.78-1.79,8.95-3.88,12.12-2.35,3.57-6.06,6.76-10.42,7.33,0,2.45-.56,4.86-1.25,7.2-.13.43-1.07,2.96-.95,3.1ZM61.12,36.01c-3.06-1.44-5.92-3.27-8.9-4.85-1.84-.98-3.46-1.89-5.52-2.38-2.46-.59-5.02-.69-7.48-.07.01.15.15.15.25.2.76.39,1.62.66,2.42,1.08,2.59,1.38,5.44,3.71,7.63,5.67,2.37,2.12,4.89,4.57,6.1,7.55.84-.94,1.33-.97,2.55-.9,1.01.06,3.44.35,4.37.63.38.11.73.46.52.87l-19.25,19.25c-.53.17-.69.03-.85-.44-.29-.88-.59-3.37-.65-4.35-.03-.53,0-1.13.05-1.66l.86-.99c-3.05-1.21-5.6-3.87-7.75-6.3-2.28-2.57-4.75-5.7-6.17-8.83-.18-.41-.27-.97-.58-1.27-.65,2.34-.55,4.56-.07,6.92.41,2.02,1.09,3.39,2.02,5.18,1.73,3.38,3.82,6.57,5.45,10l1.06-1.59c1.15-.73.87,1.82.84,2.44-.06,1.1-.42,2.33-.41,3.4.02,1.7.59,3.4.41,5.2-.04.45-.2.82-.7.59l-1.2-1.65c-1.38,2.9-3.1,5.61-4.62,8.43-2.02,3.76-3.73,7.23-3.17,11.7.08.66.28,1.31.39,1.96.31-.3.4-.86.58-1.27,1.42-3.15,3.87-6.25,6.17-8.83,2.15-2.42,4.69-5.12,7.75-6.3l-.88-1.07c-.02-.55-.06-1.13-.02-1.67.06-.9.38-3.56.67-4.33.22-.59.7-.53,1.13-.17l18.95,19.05c.17.5-.12.72-.55.86-.92.3-3.43.6-4.45.65-1.18.06-1.65-.01-2.45-.9-1.2,2.95-3.66,5.36-6,7.45s-5.28,4.51-8,5.9c-.68.35-1.58.6-2.17.92-.12.06-.17,0-.13.22,2.27.6,4.6.52,6.88.03s3.85-1.34,5.89-2.41c3.03-1.6,5.92-3.47,9.03-4.92.09-.12-2.9-1.4-1.6-1.95.29-.12,2.1-.08,2.55-.05.99.06,2.12.38,3.1.4,1.13.02,2.28-.34,3.41-.4.81-.05,4.18-.3,2.34,1.14-.14.11-1.47.76-1.39.86l7.03,3.82c2.58,1.4,4.98,2.9,7.89,3.51,2.32.49,4.67.56,6.98-.03.04-.26-.02-.16-.14-.21-.56-.25-1.23-.43-1.8-.7-2.2-1.07-4.52-2.83-6.41-4.39-3.11-2.56-6.37-5.5-8.1-9.2-.74.96-1.25.96-2.4.9-.95-.05-3.61-.37-4.45-.65-.8-.27-.7-.67-.25-1.26l18.96-18.84c.47-.17.72-.03.87.42.31.95.71,4.12.73,5.17.02.95-.42,1.12-.91,1.8,3.1,1.42,5.63,4.02,7.85,6.55,2.06,2.35,3.99,4.86,5.5,7.6l1.05,2.3c.33-1.34.57-2.76.5-4.15-.28-5.55-3.92-10.54-6.52-15.28-.12-.22-1.36-2.76-1.48-2.67-.12.82-1.64,2.77-1.81.95s.51-3.82.4-5.6c-.09-1.42-.68-3.61-.38-4.98s1.74.63,1.78,1.23l6.72-12.23c1.16-3.14,1.74-6.59.78-9.87l-1.05,2.3c-1.53,2.76-3.51,5.35-5.6,7.7s-4.76,5.21-7.85,6.4c.56.65,1.03.89,1.01,1.85-.03,1.05-.42,4.22-.73,5.17-.15.45-.41.6-.87.42-6.48-6.33-12.97-12.73-19.23-19.27l-.08-.32c.07-.31.33-.42.6-.51.91-.29,3.34-.6,4.35-.65,1.17-.06,1.76-.09,2.5.9,1.31-2.91,3.61-5.24,5.95-7.35s5.33-4.57,8.1-6c.7-.36,1.54-.59,2.17-.93.09-.05.22-.1.23-.22-2.54-.65-5.19-.5-7.72.13-2.22.56-4.24,1.77-6.25,2.85-2.65,1.43-5.2,3.06-7.93,4.32l1.33.82c.51.29.94,1.04.11,1.18-1.88.3-3.99-.44-5.8-.4-1.01.02-2.16.35-3.2.4-.54.03-1.82.09-2.3,0-.15-.03-.34-.17-.4-.3-.35-.76,1.99-1.52,1.85-1.7ZM35.39,34.23c-.19.06-1.09.96-1.15,1.15-.08.27-.05,1.53-.02,1.88.29,3.83,4.87,9.53,7.35,12.45.74.87,2.17,2.65,3,3.3.42.32.54.41,1.05.16l7.35-7.25c.58-.64.3-1.06-.2-1.6-.96-1.03-2.5-2.28-3.6-3.2-2.84-2.37-8.21-6.61-11.9-6.9-.36-.03-1.6-.06-1.88.02ZM95.4,34.24c-3.56-.45-6.73,1.56-9.51,3.49-2.32,1.61-4.92,3.69-6.97,5.63-.29.27-1.41,1.32-1.52,1.58-.2.46.13.72.37,1.07,2.34,2.04,4.44,4.84,6.8,6.8.64.53.85.71,1.55.15,1.83-1.47,4.74-5.33,6.18-7.32,2.19-3.01,4.58-6.44,4.12-10.36l-1.02-1.05ZM34.75,96.28c.11.11.59.51.72.53,3.48.34,6.56-1.63,9.28-3.52,1.98-1.37,4.07-3.03,5.87-4.63.46-.41,2.45-2.18,2.62-2.58s-.04-.67-.27-.98l-7.22-7.18c-.51-.32-.66-.28-1.12.04-.65.46-1.97,2.06-2.56,2.74-2.53,2.9-7.5,9.06-7.84,12.86-.06.66.01,1.33-.01,1.98.02.13.42.61.53.72ZM85.3,77.73c-.19.04-.42.21-.58.33-2.01,2.38-5.05,4.56-6.95,6.95-.26.33-.56.64-.37,1.07.17.4,1.98,1.98,2.42,2.38,3.13,2.81,9.54,8.07,13.75,8.35.33.02,1.53.05,1.75-.06.2-.09,1.02-.91,1.08-1.12.09-.31.05-1.78.02-2.18-.36-3.98-6.58-11.56-9.4-14.5-.4-.42-1.13-1.34-1.73-1.23ZM25.02,93.11c.03-2.32.51-4.58,1.15-6.8.27-.96.92-2.35,1.08-3.23.02-.09.12-.23-.08-.27-.12-.02-1.58,1.33-1.86,1.54-2.03,1.51-4.44,2.56-6.82,3.38l-.16.14c-2.07,3.82-4.75,7.24-7.19,10.81-1.45,2.12-4.63,6.42-5.07,8.83-.5,2.72,2.68,4.92,4.51,6.4.23.04.14-.1.15-.25.42-5.84,1.96-11.51,6-15.9,2.16-2.35,5.08-4.25,8.3-4.65ZM119.92,113.91c.07.08.4-.2.49-.26,1.45-.98,4.28-3.54,4.29-5.39.02-2.17-3.37-6.93-4.66-8.82-2.6-3.84-5.5-7.49-7.72-11.58-2.3-.92-4.58-1.82-6.63-3.27-.7-.5-1.29-1.11-1.97-1.63-.1-.08-.13-.19-.3-.15-.13.14.8,2.6.93,3.02.69,2.36,1.22,4.72,1.32,7.18,6.26,1.21,10.63,6.36,12.63,12.17.95,2.76,1.62,5.8,1.63,8.72ZM14.75,116.19c3.4,1.65,7.06,1.06,10.24-.76,3.91-2.23,7.56-6.2,7.18-11.02-.75-.49-1.45-1.08-2.05-1.75-.76-.86-1-1.09-1.85-1.85-.66-.59-1.19-1.28-1.72-1.98-3.95-.25-7.28,2.1-9.57,5.09-2.75,3.6-4.14,7.88-2.23,12.26ZM98.55,104.34c-.45.68.3,3.48.62,4.27,2.27,5.64,10.86,10.78,16.74,7.54,1.54-3.41.99-6.84-.77-10.01-2.23-4.02-6.15-7.61-11.05-7.33-.51.75-1.1,1.44-1.77,2.05-.3.27-.81.52-1.07.78-.57.59-.98,1.33-1.68,1.97-.18.17-.99.67-1.03.72ZM48.22,103.71c-3.34,1.04-6.73,2.35-10.3,2.2-.55,4.21-3.4,7.69-6.77,10.08-3.84,2.73-9.13,4.01-13.78,4.32-.15,0-.29-.08-.25.15,1.21,1.53,3.35,4.39,5.44,4.56s6.42-2.86,8.23-4.08c4.13-2.77,8.02-5.92,12.43-8.27.9-2.52,2-5.12,3.66-7.24.33-.42,1.02-1.01,1.24-1.36.08-.12.12-.2.09-.35ZM92.72,105.92c-2.39.12-4.72-.5-7-1.16-.9-.26-2.18-.86-3-1.01-.17-.03-.18-.06-.3.11,2.32,2.4,3.88,5.42,4.92,8.58,1.23.97,2.7,1.7,4.03,2.57,4.15,2.71,11.02,8.56,15.47,9.83,2.16.61,3.83-.99,5.18-2.48.27-.3,1.39-1.62,1.5-1.9.07-.17-.04-.14-.15-.15-4.13-.53-7.49-.92-11.32-2.78-4.42-2.15-8.65-6.59-9.34-11.61Z"/>
  <path fill="#FFFFFF" d="M77.1,8.84c3.64-.52,3.84,4.55.76,4.86s-3.67-4.45-.76-4.86Z"/>
  <path fill="#FFFFFF" d="M52.6,8.84c4.03-.59,3.65,5.5.02,4.83-2.67-.49-2.61-4.45-.02-4.83Z"/>
  <path fill="#FFFFFF" d="M52.7,117.34c3.31-.47,3.82,4.51.76,4.86-3.44.4-3.78-4.43-.76-4.86Z"/>
  <path fill="#FFFFFF" d="M10.8,50.64c1.03-.15,1.94.28,2.51,1.14,1.53,2.33-1.5,4.94-3.67,3.17-1.55-1.26-.8-4.03,1.17-4.31Z"/>
  <path fill="#FFFFFF" d="M10.69,75.54c2.91-.5,4.17,3.25,1.68,4.58-3.36,1.8-5.14-3.99-1.68-4.58Z"/>
  <path fill="#FFFFFF" d="M77.2,117.34c3.28-.45,3.9,4.46.77,4.86-3.36.44-3.8-4.45-.77-4.86Z"/>
  <path fill="#FFFFFF" d="M119.1,50.64c3.52-.46,3.75,5.19.08,4.87-2.91-.25-2.89-4.51-.08-4.87Z"/>
  <path fill="#FFFFFF" d="M119,75.54c4.06-.59,3.53,5.78-.22,4.77-2.5-.67-2.36-4.39.22-4.77Z"/>
  <path fill="#FFFFFF" d="M62.62,51.61c-.32-.86-2.06-1.45-1.34-2.59.1-.16,1.23-1.3,1.39-1.41,1.07-.7,1.87.83,2.69,1.29.68-.47,1.51-1.8,2.44-1.42.15.06,1.39,1.29,1.53,1.47.81,1.13-.77,1.66-1.2,2.5l11.1,11.31c.24.12.68-.54.9-.71.73-.58,1.07-.78,1.85-.15,1.77,1.41,1.35,2.12-.15,3.57-.05.29,1.93,1.44,1.14,2.63-.22.33-1.31,1.38-1.7,1.4-.7.04-1.43-.87-1.91-1.29l-11.19,11.2c-.23.46,1.48,1.32,1.4,2.11-.05.49-1.61,2.05-2.11,2.08-.73.05-1.5-1.1-2.1-1.49-.66.35-1.46,1.63-2.26,1.47-.35-.07-1.62-1.27-1.82-1.59-.67-1.07.77-1.65,1.25-2.34.06-.09.15-.14.05-.26l-11.06-11.15c-.3-.19-.88.63-1.17.84-.53.39-.85.61-1.43.17-.22-.16-1.36-1.33-1.4-1.5-.18-.91.75-1.61,1.29-2.21.05-.26-1.8-1.44-1.2-2.49.06-.1,1.22-1.25,1.36-1.34.48-.34.82-.19,1.28.12.28.19.93,1.06,1.17.94l11.2-11.16ZM65.42,54.41l-11.29,11.06,11.16,11.03,11.23-10.96-11.09-11.14Z"/>
</svg>