<?xml version="1.0" encoding="UTF-8"?>
<svg id="Layer_1" data-name="Layer 1" xmlns="http://www.w3.org/2000/svg" viewBox="0 0 137.9 137.65">
  <path fill="#FFFFFF" d="M137.9,103.23v.9c-.78,3.06-5.27,2.68-5.21-.55s4.58-3.36,5.21-.35Z"/>
  <path fill="#FFFFFF" d="M137.9,33.53v.9c-.65,3-5.14,2.8-5.21-.35s4.45-3.6,5.21-.55Z"/>
  <path fill="#FFFFFF" d="M0,34.43v-.9c.61-2.5,4.17-2.98,5.05-.4,1.2,3.54-4.22,4.93-5.05,1.3Z"/>
  <path fill="#FFFFFF" d="M0,104.13v-1c.59-2.35,4.02-2.9,4.98-.53,1.44,3.55-4,5.25-4.98,1.53Z"/>
  <path fill="#FFFFFF" d="M36.8,26.02c.95-.32,1.86-.74,2.82-1.03,4.62-1.39,13.76-2.21,18.4-1.04.6.15,1.17.43,1.78.57-.3-1.92,1.61-2.61,2.75-3.7.12-.53-.05-1.57.38-1.97.34-.32,1.82-.28,2.32-.24.87.08,1.16.4,1.24,1.26.17,1.69.06,3.6.1,5.3.15,6.37.08,12.73-.1,19.09-.03,1.09.21,3.5-.35,4.35-.43.65-1.78.6-2.49.5-1.13-.16-.92-1.43-1.08-2.27-1.19-.92-3.05-1.84-2.78-3.62-.93.25-1.82.6-2.78.77-2.37.43-5.15.38-7.57.23-1.96-.12-3.9-.41-5.85-.6l.6,5.15c.02.4-.02.8,0,1.2.13,2.68.25,5.44-.43,8.07-.15.6-.43,1.17-.57,1.78,1.24-.17,1.7.25,2.45,1.1.24.27.94,1.35,1.15,1.45.56.25,2.11-.26,2.29.91.06.35.05,1.85-.04,2.15-.3.99-2.33.75-3.11.79-7.27.37-14.9.31-22.19.1-1.31-.04-3,.12-4.26-.14-1.06-.22-.98-1.75-.89-2.6.16-1.56,1.13-1.06,2.33-1.17,1.11-1.15,1.71-2.99,3.67-2.58-.49-1.19-.85-2.47-1-3.75-.6-5.24.19-11.14,1.35-16.25l1.1-3.1c-3.59,1.99-6,5.59-7.28,9.42s-2.13,7.74-3.35,11.55c-.43,1.35-.89,3.08-1.65,4.25-.82,1.29-2.29,3.15-3.33,4.27-1.24,1.34-2.5,2.29-1.82-.52.58-2.43,1.71-5.02,2.42-7.48,1.74-6,3.1-11.81.54-17.84-.98-2.29-2.13-3.21-3.53-5.07-.53-.71-1.18-1.22-.74-2.12.51-1.05,1.33-2.05,1.87-3.23,2.32-5.05,3.39-10.65,4.73-16.02,5.46-1.45,11.3-2.46,16.42-4.93.67-.33,3-1.88,3.42-1.89.29,0,.6.21.84.37,2.11,1.38,3.14,2.93,5.67,4.03,6.29,2.73,12.28,1.22,18.54-.64,2.23-.66,4.56-1.66,6.78-2.22,2.89-.73,2.06.5.62,1.82-2.85,2.64-4.94,3.81-8.62,4.98-4,1.26-8.22,2.16-12.15,3.55-3.41,1.2-6.93,3.79-8.62,7.03ZM42.3,18.13c-2.55-.08-4.95-.64-7.32-1.53-1.03-.38-2-.88-3.02-1.28-4.53,1.3-9.22,1.88-13.83,2.83-.88,4.62-1.51,9.3-2.81,13.83,1.56,3.22,2.8,6.71,2.79,10.35.17.03.26-.08.34-.21.49-.74.94-2.05,1.41-2.89,1.2-2.21,2.55-4.38,4.34-6.16-1.56-2.38-2.56-5.21-2.69-8.08-.05-1.13.15-2.24.1-3.35,4.02-.44,8.13.19,11.45,2.58,1.97-1.97,4.39-3.44,6.85-4.74.61-.32,1.78-.71,2.24-1.06.11-.09.21-.1.17-.28ZM56.18,27.66c-4.7.19-14.85,1.12-17.93,4.97-.39.48-.5,1.45-.33,2.03.13.43,1.62,1.66,2.05,1.95,3.62,2.48,12.45,3.38,16.88,3.52.83.03,2.9.33,2.96-.75l-.05-11.26c-.08-.31-.19-.44-.51-.49-.78-.12-2.22-.01-3.06.02ZM29.8,29.83c.17-.19-.69-.96-.85-1.1-.17-.14-.43-.37-.65-.4-.08.07,1.02,1.19,1.15,1.3.11.09.16.24.35.2ZM33.07,37.95c-.52.13-1.79,1.78-2.12,2.28-2.34,3.67-3.21,12.34-3.36,16.74-.02.59-.08,1.72.04,2.26s.52.56,1,.6c3.46.29,7.36-.19,10.86-.05.55-.11.67-.62.69-1.11.06-1.14-.11-2.91-.2-4.1-.29-3.97-1.07-11.07-3.22-14.38-.25-.38-1.72-2.15-2.05-2.25-.21-.06-1.42-.05-1.66,0Z"/>
  <path fill="#FFFFFF" d="M26.1,100.93c-1.2-2.67-1.83-5.56-2.19-8.46-.39-3.12-.68-6.87-.41-9.99.13-1.59.47-3.18,1.1-4.65-1.41.2-1.88-.4-2.7-1.35-.19-.22-.76-1.13-.9-1.2-.5-.24-1.66.23-2.15-.35-.38-.46-.34-2.62,0-3.1.11-.15.44-.34.62-.38.34-.07,1.17-.11,1.57-.13,8.03-.39,17.08-.31,25.1.11.78.04,2.4-.2,2.84.66.16.31.17,1.88.11,2.28-.18,1.13-1.73.67-2.29.91-.23.1-.98,1.26-1.25,1.55-.73.8-1.18,1.15-2.35,1,1.85,5.14,1.04,10.89.4,16.2l5.65-.6,4.5-.11c.21,0,.4.09.6.1.36.02.74-.03,1.1,0,1.49.14,2.94.52,4.35,1-.28-1.82,1.58-2.69,2.78-3.62.15-.7-.02-1.95.84-2.21.46-.14,2.2-.16,2.55.16.77.69.5,3.57.53,4.62.18,6.36.25,12.72.1,19.09-.04,1.71.07,3.62-.1,5.3-.03.33-.13.79-.4,1-.43.33-1.9.32-2.45.25-1.27-.14-.96-1.25-1.1-2.2-1.14-1.09-3.05-1.8-2.75-3.7-.73.22-1.45.48-2.2.65-3.72.84-8.84.42-12.64-.06-2.76-.35-5.64-.91-8.11-2.19-.26-.08.56,1.17.63,1.27,5.08,7.46,15.92,7.14,23.46,10.54,1.52.68,4.01,2.67,5.27,3.83,1.43,1.33,2.27,2.56-.62,1.82-2.52-.64-5.15-1.76-7.7-2.5-5.94-1.71-11.6-2.97-17.54-.39-2.55,1.11-3.57,2.65-5.7,4-.29.19-.6.45-.97.42-.45-.04-1.7-1.04-2.19-1.32-1.39-.78-3.11-1.44-4.62-1.98-4.21-1.52-8.6-2.42-12.93-3.52-1.53-5.9-2.62-12.45-5.64-17.81-.27-.48-1.18-1.54-1.17-2.02,0-.37.71-1.21.95-1.54,1.34-1.8,2.46-2.7,3.43-4.87,2.72-6.1,1.32-12.01-.46-18.11-.71-2.43-1.81-5-2.4-7.4-.13-.54-.37-1.11-.14-1.65.42-.66,1.76.9,2.06,1.23,1.01,1.11,2.48,2.96,3.27,4.23.72,1.15,1.18,2.88,1.6,4.2,1.22,3.82,2.08,7.75,3.35,11.55s3.71,7.48,7.33,9.42ZM39.98,78.05c-.26-.13-.53-.2-.82-.23-3.39-.28-7.17.22-10.61,0-1.32-.1-.98,1.93-.95,2.85.15,4.4,1.01,13.07,3.36,16.74.32.5,1.59,2.14,2.11,2.29.2.06,1.46.06,1.66,0,.12-.04,1.17-1.1,1.32-1.28,3.21-3.8,3.98-13.64,4.05-18.55,0-.59.23-1.2-.12-1.83ZM21.71,116.01c-.67-3.96.25-8.1,2.48-11.42-1.76-1.78-3.11-3.91-4.31-6.1-.47-.87-.94-2.2-1.44-2.96-.08-.12-.17-.24-.34-.21,0,3.63-1.24,7.12-2.79,10.35,1.3,4.53,1.94,9.21,2.81,13.83,4.61.93,9.3,1.53,13.83,2.83,2.3-1.02,4.63-2.03,7.13-2.47,1.01-.18,1.97-.2,2.97-.34.14-.02.29.09.25-.14-3.25-1.69-6.64-3.29-9.25-5.93-3.29,2.31-7.37,3.05-11.34,2.57ZM59.57,109.9c.14-.13.21-.52.23-.72.31-3.43-.25-7.33,0-10.81.04-.28-.21-.75-.48-.82-.4-.12-2.15-.04-2.68-.02-4.4.16-13.08,1.05-16.68,3.52-.43.3-1.92,1.52-2.05,1.95-.06.19-.06,1.36,0,1.56.17.6,2.12,2.05,2.71,2.39,3.68,2.07,11.64,2.94,15.91,3.09.47.02,2.81.07,3.03-.13ZM29.8,107.83c-.19-.04-.24.11-.35.2-.14.11-1.23,1.22-1.15,1.3.25-.06.55-.33.75-.5.15-.13.92-.81.75-1Z"/>
  <path fill="#FFFFFF" d="M123.98,13.94c1.5,5.88,2.63,12.4,5.6,17.75.27.49,1.22,1.6,1.21,2.08,0,.25-.48.9-.65,1.14-1.17,1.65-2.52,2.74-3.46,4.64-2.89,5.86-1.81,11.67-.13,17.67.79,2.82,2.07,5.78,2.74,8.56.71,2.93-.86,1.53-1.94.34-1.64-1.79-3.44-4.17-4.25-6.45-1.61-4.5-2.52-9.31-4.07-13.83-1.26-3.68-3.73-7.2-7.18-9.12l1,2.8c1.43,4.68,2.27,13.93,1.02,18.62-.15.57-.36,1.13-.57,1.68.68,0,1.23-.1,1.79.36.44.36,1.6,2.09,1.81,2.19.93.46,2.21-.76,2.4,1.3.08.84.13,2.29-.89,2.5-1.23.26-2.97.1-4.26.14-7.3.21-14.91.25-22.19-.1-1.02-.05-3.03.31-3.16-1.14-.05-.53-.1-1.89.25-2.26.6-.64,1.53-.21,2.05-.45.18-.08.91-1.19,1.15-1.45.76-.84,1.21-1.27,2.45-1.1-.29-.85-.6-1.69-.77-2.58-.47-2.45-.35-5-.23-7.47.1-2.06.25-4.11.6-6.15-5.35.54-11.02,1.43-16.2-.4.14,1.19-.39,1.73-1.2,2.45-.26.23-1.59,1.13-1.65,1.25-.23.42.2,1.4-.44,1.96-.42.36-2.51.38-2.91-.03-.71-.72-.46-3.26-.49-4.28-.24-7.72-.43-15.58,0-23.29.04-.66-.17-1.96.4-2.4.42-.32,2.11-.33,2.64-.25,1.04.16.66,1.48.91,2.19,1.15,1.1,3.02,1.78,2.75,3.7,1.38-.48,2.79-.85,4.25-1,3.49-.35,7.9.01,11.38.51,2.48.36,5.09.91,7.31,2.09.26.08-.56-1.17-.63-1.27-5.05-7.42-15.86-7.18-23.39-10.51-1.55-.69-4.05-2.68-5.33-3.87-.37-.34-1.62-1.4-1.28-1.94.64-.27,1.28-.04,1.91.11,7.88,1.99,14.73,6.08,23.25,3.6,3.6-1.05,4.55-2.45,7.33-4.47.83-.6.92-.91,1.96-.38.91.46,1.7,1.12,2.7,1.6,5.13,2.46,10.94,3.49,16.42,4.93ZM119.78,18.15c-4.61-.94-9.3-1.53-13.83-2.83-2.49,1.07-5.1,2.21-7.81,2.59-.85.12-1.71.06-2.54.26-.02.16.13.2.23.27.58.37,1.4.63,2.04.96,2.5,1.31,4.97,2.8,6.98,4.8,3.26-2.37,7.38-3.04,11.34-2.57.67,3.98-.26,8.08-2.48,11.42,1.75,1.78,3.12,3.91,4.31,6.1.57,1.04,1,2.18,1.63,3.17.23,0,.13-.94.15-1.15.31-3.23,1.36-6.31,2.79-9.2-1.3-4.53-1.95-9.2-2.81-13.83ZM78.57,27.65c-.41.09-.45.46-.48.82-.29,3.46.23,7.31,0,10.81-.02.33.17.7.5.8.43.13,1.92.07,2.46.05,4.61-.15,13.76-1.06,17.39-3.91.26-.21,1.46-1.34,1.53-1.57.06-.2.06-1.36,0-1.56-.18-.63-2.16-2.08-2.78-2.42-3.63-2.04-11.53-2.9-15.75-3.05-.68-.02-2.3-.1-2.88.03ZM109.6,28.33c-.12-.11-1.59,1.24-1.6,1.35,0,.06.14.18.3.1.12-.06,1.37-1.38,1.3-1.45ZM97.92,59.6c.26.13.53.2.82.23,3.36.28,7.11-.22,10.51,0,1.39.06,1.08-1.57,1.05-2.56-.11-4.44-1.01-13.25-3.32-16.98-.32-.52-1.62-2.2-2.15-2.35-.2-.06-1.46-.06-1.66,0-.12.03-1.26,1.19-1.42,1.38-3.08,3.66-3.93,13.97-4.05,18.75-.01.52,0,1.05.23,1.53Z"/>
  <path fill="#FFFFFF" d="M129.38,70.25c.29.29,0,1.31-.1,1.7-.63,2.51-1.77,5.16-2.5,7.7-1.71,5.92-3.01,11.69-.46,17.61,1.06,2.47,2.4,3.43,3.83,5.47.68.97.84.96.24,2.02s-1.24,1.97-1.76,3.14c-2.25,4.98-3.34,10.53-4.63,15.82-5.41,1.38-11.06,2.44-16.15,4.8-.46.21-.96.46-1.4.7-.47.26-1.81,1.28-2.19,1.32s-.68-.23-.97-.42c-2.13-1.35-3.16-2.91-5.7-4-6.17-2.65-12.03-1.24-18.17.57-2.34.69-4.76,1.73-7.08,2.32-3.05.77-1.92-.66-.52-1.92,3.01-2.74,4.97-3.76,8.82-4.98,6.65-2.09,15.61-3.14,19.8-9.3.07-.1.88-1.35.63-1.27-2.77,1.41-5.94,1.94-9.01,2.29-3.61.41-8.21.76-11.74-.04-.75-.17-1.46-.43-2.2-.65.15,1.21-.47,1.82-1.3,2.55-.3.26-1.33.89-1.45,1.15-.34.78.26,2.01-1.01,2.19-.55.08-2.11.08-2.54-.24-.57-.44-.36-1.75-.4-2.4-.43-7.71-.24-15.57,0-23.29.03-1-.2-3.53.45-4.25.41-.45,2.51-.44,2.95-.06.65.56.21,1.53.44,1.96.06.11,1.39,1.02,1.65,1.25.81.72,1.34,1.26,1.2,2.45.05.06,1.28-.42,1.48-.47,2.89-.8,5.99-.64,8.97-.53l5.75.6c-.63-5.3-1.47-11.07.4-16.2-1.2.17-1.71-.28-2.45-1.1-.24-.27-.94-1.35-1.15-1.45-.5-.23-1.45.17-2.05-.45-.34-.35-.3-1.74-.25-2.26.13-1.42,1.96-1.09,2.96-1.14,8.01-.42,17.08-.5,25.1-.11.4.02,1.23.06,1.57.13.98.2.94,1.73.87,2.53-.18,2.03-1.5.86-2.4,1.3-.12.06-.85,1.13-1.05,1.35-.78.89-1.23,1.38-2.55,1.2.24.62.49,1.25.65,1.9,1.15,4.6.3,13.82-1.1,18.4l-1,2.8c3.29-1.86,5.84-5.28,7.08-8.82,1.35-3.87,2.21-7.94,3.45-11.85s2.28-5.78,4.98-8.72c.36-.39,1.51-1.79,2.03-1.27ZM97.92,78.05c-.23.48-.24,1.01-.23,1.53.12,4.76.98,15.1,4.05,18.75.16.19,1.3,1.34,1.42,1.38.19.06,1.47.06,1.66,0,.49-.15,1.84-1.85,2.15-2.35,2.31-3.74,3.21-12.53,3.32-16.98.02-.88.32-2.64-.95-2.56-3.43.22-7.22-.28-10.61,0-.29.02-.56.1-.82.23ZM119.8,95.33c-.19-.03-.3.13-.39.26-.45.72-.86,1.89-1.3,2.7-1.23,2.26-2.6,4.45-4.41,6.3,2.23,3.33,3.13,7.45,2.48,11.43-3.97.47-8.06-.24-11.34-2.57-1.71,1.71-3.77,3.04-5.88,4.2-.88.48-2.49,1.06-3.2,1.6-.11.09-.21.1-.17.28,3.66.05,7.08,1.3,10.35,2.8,4.53-1.31,9.22-1.91,13.83-2.83.85-4.63,1.5-9.3,2.81-13.83-1.56-3.22-2.82-6.71-2.79-10.35ZM78.57,97.55c-.41.09-.45.46-.48.82-.29,3.46.23,7.31,0,10.81.03.31.05.69.4.8.43.14,2.29.07,2.86.05,4.7-.16,14.15-1.11,17.65-4.35.18-.17.93-.95.98-1.12.06-.19.06-1.37,0-1.56-.12-.4-1.63-1.67-2.05-1.95-3.57-2.45-12.22-3.36-16.58-3.52-.67-.02-2.2-.11-2.78.02ZM109.6,109.32c-.14-.25-1.36-1.72-1.6-1.5-.04.19.11.24.2.35.14.17,1.26,1.27,1.4,1.15Z"/>
  <path fill="#FFFFFF" d="M87.7,87.53c-2.67-.87-5.41-1.5-8.08-2.37-3.09-1.01-4.61-1.94-7.07-4.03-.4-.34-1.91-1.65-2.08-2.02-.18-.41-.09-.72.37-.78,1.13-.15,6.03,1.78,7.48,2.23,1.15.36,2.31.68,3.48.97-.49-1.62-.96-3.26-1.47-4.88-.37-1.18-1.89-5.01-1.8-5.95.14-1.56,2.06.71,2.43,1.13.9,1,2.1,2.55,2.83,3.67.92,1.4,1.34,3.06,1.85,4.65.77,2.43,1.42,4.91,2.07,7.38Z"/>
  <path fill="#FFFFFF" d="M56.1,81.52c1.27-.32,2.53-.68,3.78-1.07,1.86-.58,4.7-1.85,6.5-2.1,2.76-.38-.28,2.11-.93,2.67-2.49,2.13-4.03,3.11-7.17,4.13-2.65.86-5.38,1.58-8.08,2.27.98-3.23,1.71-6.7,2.9-9.85.76-2,3.18-5.26,4.75-6.75,1.73-1.63,1.59-.08,1.22,1.32-.83,3.11-2.24,6.21-2.97,9.38Z"/>
  <path fill="#FFFFFF" d="M56.1,56.13c.45,1.53.89,3.06,1.37,4.58.44,1.39,1.91,4.95,1.87,6.17-.05,1.69-1.99-.59-2.4-1.05-2.12-2.37-3.38-4.3-4.38-7.32-.9-2.75-1.62-5.58-2.37-8.38,2.57.83,5.21,1.45,7.78,2.27,2.13.69,3.22,1.03,5.06,2.34.75.54,4.31,3.27,4.45,3.95.19.92-.95.62-1.5.5-2.1-.45-4.58-1.55-6.7-2.2-1.05-.32-2.11-.63-3.18-.87Z"/>
  <path fill="#FFFFFF" d="M81.7,56.13c-2.94.69-5.74,1.86-8.62,2.73-.6.18-3.07,1.09-2.66-.26.08-.26,1.8-1.78,2.13-2.07,2.63-2.23,4.08-3.07,7.37-4.13,2.57-.83,5.2-1.46,7.78-2.27-.88,3.09-1.63,6.33-2.7,9.35-.7,1.99-1.48,3.1-2.76,4.74-.63.8-2.06,2.65-2.84,3.16-.16.11-.32.2-.52.14-.52-.31-.31-.98-.2-1.47.47-2.18,1.6-4.73,2.26-6.94.11-.37.88-2.86.77-2.98Z"/>
  <path fill="#FFFFFF" d="M33.88,132.45c3.41-.13,3.55,4.77.56,5.17-3.69.49-4.09-5.03-.56-5.17Z"/>
  <path fill="#FFFFFF" d="M33.47.05c3.88-.62,4.2,5.29.42,5.13-3.23-.14-3.18-4.69-.42-5.13Z"/>
  <path fill="#FFFFFF" d="M103.78,132.45c3.35-.12,3.55,4.75.56,5.17-3.68.51-4.12-5.04-.56-5.17Z"/>
  <path fill="#FFFFFF" d="M103.27.05c3.46-.59,4.43,4.2,1.33,5.03-1.81.48-3.5-.9-3.29-2.79.1-.93,1.03-2.08,1.96-2.24Z"/>
</svg>