<?xml version="1.0" encoding="UTF-8"?>
<svg id="Layer_1" data-name="Layer 1" xmlns="http://www.w3.org/2000/svg" viewBox="0 0 122.71 123.07">
  <path fill="#FFFFFF" d="M14.69.08c5.13-.15,10.57-.12,15.67.37,1.35.13,3.37.62,4.6.61.99-.01,2.44-.4,3.5-.51C44.15-.02,49.85-.04,55.56.16c2.04.07,4.04-.2,5.8,1.06,1.77-1.26,3.77-.99,5.8-1.06,5.34-.19,10.77-.22,16.1.3,1.36.13,3.23.59,4.5.61s3.25-.48,4.6-.61c5.33-.52,10.75-.48,16.1-.3,3.95.14,4.3.03,7.61,2.19,2.06,1.34,2.68,1.9,4.05,3.95,1.28,1.92,2.27,3.3,2.4,5.7.33,5.8.26,12.52-.3,18.3-.13,1.35-.62,3.37-.61,4.6,0,.74.31,1.82.4,2.61.69,6.52.89,13.64.52,20.19-.08,1.46-.39,2.59-1.19,3.81,1.37,1.82,1.11,3.85,1.18,5.98.17,4.97.22,10.04-.2,15-.14,1.68-.73,4.16-.71,5.7.01,1.01.4,2.51.51,3.6.61,6.16.77,13.11.4,19.3-.15,2.45-1.69,4.74-3.12,6.68-1.58,2.15-5.84,4.89-8.53,5.07-5.81.37-12.8.28-18.6-.3-1.32-.13-3.18-.59-4.4-.61s-3.19.48-4.5.61c-5.45.54-11.04.5-16.5.3-1.94-.07-3.82.16-5.5-1.07-1.72,1.23-3.62.99-5.6,1.07-5.43.2-10.98.24-16.4-.3-1.31-.13-3.32-.62-4.5-.61s-3.08.48-4.4.61c-5.81.58-12.68.65-18.5.3-2.46-.15-5.1-1.87-7.04-3.36S.37,113.63.21,111.2c-.44-6.85-.17-14.46.61-21.28.06-.53.29-1.21.29-1.71,0-.73-.31-1.82-.4-2.61C.01,79.05-.18,71.76.21,65.2c.08-1.43.41-2.48,1.17-3.7-1.3-1.79-1.09-3.63-1.16-5.7-.2-5.43-.23-10.99.3-16.4.13-1.36.59-3.25.61-4.5,0-.73-.31-1.82-.4-2.61C.02,25.76-.21,18.35.21,11.8c.15-2.35,1.71-4.65,3.08-6.52,1.06-1.45,1.95-2.01,3.43-2.97C10.03.16,10.72.2,14.69.08ZM5.71,5.65c.33,5.35.52,10.72,1.1,16.06.02.15,0,.25.15.34,2.38-2.8,5.41-5.04,8.95-6.15,1.15-3.55,3.37-6.6,6.2-9-.09-.14-.19-.14-.34-.16-1.86-.19-3.75-.35-5.61-.49-3.48-.26-6.97-.34-10.45-.6ZM117.01,5.65c-5.35.36-10.72.52-16.06,1.1-.15.02-.25,0-.34.15,2.77,2.4,5.15,5.43,6.12,9.03,3.59.98,6.63,3.35,9.03,6.12.11-.1.13-.31.15-.45.29-2.21.44-4.66.6-6.9.21-3.01.28-6.04.5-9.05ZM59.79,5.88c-3.81.13-7.94.46-11.73.87-.15.02-.25,0-.34.15,3.08,2.64,5.6,6.11,6.45,10.15.5,2.36.29,4.62.39,7.01l5.5.3,8.06-.25c.1-.07.09-.19.1-.3.16-1.36-.1-3.09,0-4.51.3-4.89,3.16-9.31,6.8-12.4-.1-.15-.19-.14-.34-.15-4.68-.5-10.21-1.02-14.88-.87ZM23.81,20.85c1.77.5,3.57.94,5.38,1.27,1.61.29,4.18.81,5.75.79,2.13-.02,5.55-.72,7.69-1.19.69-.15,2.59-.52,3.11-.79.37-.19-.07-1.42-.18-1.78-1.21-3.77-6.35-9.36-10.34-10.06-.64-.11-1.66.36-2.27.64-4.28,1.91-8.2,6.49-9.13,11.12ZM76.71,20.85c1.78.49,3.57.94,5.38,1.27,1.61.29,4.18.81,5.75.79,2.13-.02,5.55-.72,7.69-1.19.69-.15,2.59-.52,3.11-.79.37-.19-.07-1.42-.18-1.78-1.21-3.77-6.34-9.35-10.34-10.06-.64-.11-1.66.36-2.27.64-4.29,1.93-8.19,6.47-9.13,11.12ZM20.9,23.86c-4.12.61-8.06,3.93-10.23,7.4-.43.69-1.59,2.91-1.56,3.64.02.67.99,2.6,1.36,3.25,2.16,3.69,6.2,6.97,10.44,7.81.44-1.61.86-3.24,1.17-4.88.88-4.66.94-7.16.1-11.84-.33-1.81-.72-3.62-1.28-5.37ZM101.81,45.95c4.18-.83,8.01-3.94,10.24-7.51.41-.66,1.55-2.84,1.56-3.54,0-.39-.5-1.61-.68-2.02-1.56-3.5-5.45-7.23-9.07-8.53-.35-.13-1.82-.63-2.06-.46-.76,2.54-1.31,5.19-1.68,7.82-.47,3.38-.19,5.53.42,8.85.33,1.81.76,3.61,1.27,5.38ZM67.59,39.13c.13-.39.29-.78.37-1.18.32-1.61.4-5.33-.18-6.83-.07-.18-.15-.37-.28-.52-1.1-.14-2.22-.16-3.28-.52-.96-.33-1.95-.96-2.87-1.39-1.49.73-2.73,1.48-4.41,1.75-.39.06-1.64.02-1.84.26-.54.62-.64,4.19-.6,5.11.02.5.29,3.11.62,3.33.76.15,1.54.11,2.3.25,1.42.25,2.64,1.05,3.93,1.64,1.29-.59,2.51-1.39,3.93-1.64.76-.13,1.54-.1,2.31-.24ZM45.89,38.93c.07-.15.14-.3.19-.46.29-.94.22-5.21.13-6.37-.02-.22-.15-1.1-.3-1.2l-5.86-.14-4.69-.31-4.65.2-.2,4.85.31,4.69c.14,1.69-.1,3.77.09,5.41.05.48.66.52,1.05.55,1.56.13,4.24.11,5.81,0,.38-.03,1.15-.06,1.15-.55l.19-6.56,6.78-.12ZM92.01,30.65l-4.65-.2-4.69.31c-1.75.16-3.91-.1-5.61.09-.49.06-.52.74-.55,1.15-.12,1.54-.13,4.28,0,5.81.03.39.14.73.29,1.08l6.81.16.11,6.79c.42.19.78.28,1.24.31,1.55.12,4.27.13,5.81,0,.23-.02.89-.12,1-.3l.14-5.86.31-4.59-.2-4.75ZM68.21,45.65c-3.35-.17-6.7-.34-10.05-.2-.21,0-.4.09-.6.1-1.02.04-2.03-.03-3.05.1-.02,2.72.21,5.48-.65,8.1-2.6.93-5.42.79-8.15.8-.21,3.48-.35,6.96-.2,10.45,0,.21.09.4.1.6.04.99-.04,1.97.1,2.95,2.72.06,5.55-.29,8.15.7.86,2.62.63,5.38.65,8.1,3.41.21,6.83.35,10.25.2.21,0,.41-.1.6-.1.95-.04,1.9.05,2.85-.1.06-2.72-.29-5.55.7-8.15,2.61-.9,5.38-.61,8.1-.65.18-3.46.35-6.9.2-10.35,0-.21-.09-.4-.1-.6-.04-1.02.03-2.03-.1-3.05-2.72-.02-5.55.14-8.15-.8-.9-2.61-.61-5.38-.65-8.1ZM24.1,54.56c-3.17.06-6.32-.02-9.31-1.14-3.22-1.2-5.44-3.2-7.75-5.65-.07-.07.02-.23-.18-.03-.2,2.38-.48,4.77-.65,7.15-.47,6.81-.13,13.32.59,20.1.02.15,0,.25.15.34,2.64-3.11,6.09-5.59,10.15-6.45,2.34-.5,4.61-.32,6.99-.36.19-.16.19-4.33.21-4.94.04-1.45.04-2.74,0-4.19-.01-.59-.02-4.69-.21-4.84ZM115.81,75.35c.47-3.93.75-7.89.9-11.85.14-3.69-.1-7.41-.4-11.1-.13-1.58-.31-3.18-.5-4.75-2.62,2.96-5.78,5.39-9.7,6.35-2.48.61-4.97.53-7.51.59l-.3,5.3c.12,2.67-.05,5.56.2,8.21.01.15.05.3.11.44,2.38.04,4.64-.14,6.99.36,4.11.88,7.46,3.37,10.2,6.45ZM39.2,67.94c.1-.99.12-2,.39-2.96.33-1.23,1.1-2.3,1.59-3.47-.49-1.17-1.26-2.24-1.59-3.47-.26-.95-.24-1.92-.42-2.88-.31-.23-.7-.35-1.07-.43-1.36-.31-5.36-.31-6.69.08-.25.07-.48.17-.7.3-.24,1.09-.21,2.24-.57,3.33-.35,1.03-1.09,2.05-1.49,3.07.4,1.02,1.15,2.04,1.49,3.07s.36,2.18.52,3.28c.15.13.34.2.52.28,1.5.58,5.31.5,6.91.16.38-.08.74-.23,1.1-.35ZM83.53,67.93c.36.12.72.27,1.1.35,1.59.34,5.42.42,6.91-.16.13-.05.46-.18.52-.28,0-2.38.88-4.34,2.01-6.35-.81-1.49-1.59-2.91-1.85-4.61-.05-.36-.06-1.62-.21-1.79-.22-.13-.45-.23-.7-.3-1.36-.38-5.3-.4-6.69-.08-1.57.36-1.04.71-1.23,1.97-.28,1.83-1.03,3.2-1.85,4.81.45,1.07,1.14,2.06,1.49,3.17s.35,2.14.49,3.26ZM39.11,83.95l-.3-6.85c-.14-.14-.82-.23-1.05-.25-1.55-.12-4.05-.11-5.61,0-.25.02-.99.09-1.15.25l-.19,5.81-.31,4.59.2,4.85,4.85.2,10.4-.5c.15-.15.24-.99.25-1.25.1-1.55.12-3.97,0-5.51-.02-.23-.11-.91-.25-1.05l-6.85-.3ZM92.01,92.35l.2-4.65-.31-4.69-.14-5.86c-.11-.18-.86-.28-1.1-.3-1.55-.12-4.16-.12-5.71,0-.46.03-.82.13-1.24.31l-.11,6.79-6.65.2c-.37.07-.43.83-.45,1.15-.12,1.55-.11,4.05,0,5.61.03.42.03,1.19.55,1.25,1.62.18,3.65-.03,5.31.09l4.79.31,4.85-.2ZM20.91,99.25c.68-2.42,1.22-4.88,1.58-7.37.54-3.65.33-5.75-.31-9.35-.33-1.85-.76-3.68-1.27-5.48-4.25.86-8.26,4.11-10.44,7.81-.38.64-1.39,2.67-1.36,3.34.02.76,1.12,2.84,1.56,3.54,2.26,3.6,6.03,6.64,10.24,7.51ZM101.81,99.25c4.18-.86,8-3.93,10.24-7.51.43-.69,1.59-2.91,1.56-3.64s-1.14-2.86-1.56-3.54c-2.24-3.58-6.04-6.65-10.24-7.51-.79,2.84-1.42,5.74-1.79,8.66-.24,1.91-.24,2.96,0,4.87.37,2.93,1,5.83,1.79,8.66ZM67.6,83.86c-.99-.1-2-.12-2.96-.39-1.16-.31-2.17-1.02-3.27-1.49-1.1.47-2.11,1.18-3.27,1.49-.97.26-1.97.28-2.96.39-.87,2.65-.85,5.92,0,8.57.97.06,1.95.12,2.89.36,1.19.31,2.23,1.03,3.35,1.51,1.1-.48,2.11-1.17,3.27-1.49.95-.26,1.91-.29,2.88-.42.13-.15.2-.34.28-.52.58-1.5.49-5.22.18-6.83-.08-.4-.25-.79-.37-1.18ZM68.2,98.96c-.21-.05-.42-.1-.64-.11-2.63-.18-5.38-.16-8-.09-1.68.04-3.38.01-5.04.21.16,4.16-.02,7.8-2.06,11.49-1.26,2.28-2.8,3.71-4.58,5.52-.09.09-.22.08-.17.28,2.39.11,4.77.44,7.15.6,3.84.26,7.66.41,11.5.1l8.65-.7c.06-.23-.06-.17-.13-.23-3.04-2.68-5.47-6.04-6.32-10.07-.5-2.34-.32-4.61-.36-6.99ZM45.9,102.16c-2.36-.73-4.81-1.23-7.25-1.6-3.65-.54-5.75-.33-9.35.31-1.85.33-3.67.77-5.48,1.27.83,4.1,3.87,7.96,7.37,10.18.71.45,2.92,1.6,3.68,1.62.67.02,2.7-.99,3.34-1.36,3.58-2.11,7.1-6.24,7.7-10.43ZM98.8,102.16c-2.36-.73-4.81-1.23-7.25-1.6-3.65-.54-5.75-.33-9.35.31-1.85.33-3.67.77-5.48,1.27.77,3.74,3.18,7,6.15,9.3.98.75,3.72,2.47,4.9,2.51.4.01,1.33-.39,1.74-.56,2.59-1.08,5.38-3.53,6.98-5.82,1.09-1.56,2.15-3.5,2.3-5.42ZM22.11,116.05c-.12-.01-.22-.06-.3-.15-2.64-2.53-4.8-5.25-5.9-8.81-3.59-1.06-6.33-3.29-8.82-5.98-.09-.1-.09-.25-.23-.07l-1.15,16.3c3.51-.24,7.04-.33,10.55-.6,1.93-.15,3.87-.43,5.8-.5l.05-.2ZM117.01,117.35c-.23-3.01-.29-6.04-.5-9.05-.16-2.24-.31-4.69-.6-6.9-.02-.14-.04-.35-.15-.45-1.84,2.12-4.14,4.12-6.71,5.29-.75.34-1.54.55-2.28.92-1.07,3.55-3.28,6.36-5.98,8.82-.1.09-.22.09-.17.28l16.4,1.1Z"/>
</svg>