<?xml version="1.0" encoding="UTF-8"?>
<svg id="Layer_1" data-name="Layer 1" xmlns="http://www.w3.org/2000/svg" viewBox="0 0 141.13 141.15">
  <path fill="#FFFFFF" d="M61.83,141.13c-.94-.11-.99-.59-1.34-.72-.92-.35-2.89-.39-3.98-.61-.69-.14-1.49-.23-1.66-1.04,1.12-4.7,2.03-9.47,2.57-14.29.32-2.88.86-8.26-.35-10.83-1.81-3.82-8.91-5.25-12.74-6.16-3.01-.72-6.43-1.08-9.32-1.88-2.18-.6-1.01-1.76.39-2.35,2.47-1.03,5.51-1.41,8.13-1.92l-.31-1.29c-4.77-1.07-9.51-2.3-14.17-3.78-3.79-1.21-10.21-3.16-11.94-7.06-1.61-3.62-.44-8.99.67-12.67,1.26-4.2,3.38-7.95,6.25-11.25-3.68-4.1-5.92-9.05-7.07-14.43-.94-4.4-1.46-9.48,2.64-12.4s8.99-3.88,13.51-5.34c1.49-4.49,2.54-9.53,5.3-13.45,2.95-4.19,8.06-3.64,12.54-2.7,5.38,1.13,10.16,3.4,14.33,6.97,1.75-1.31,3.46-2.66,5.38-3.72,4.55-2.51,13.97-5.38,18.83-3,3.1,1.52,4.96,6.47,6.03,9.57,1.85,5.33,3.21,10.84,4.52,16.33l1.28.42c.33-1.96.68-3.93,1.21-5.84.25-.91.81-3.01,1.49-3.61.75-.66,1.37.1,1.57.83.76,2.74,1.11,6.06,1.78,8.92.73,3.16,2.33,10.06,4.7,12.2,2.09,1.88,4.38,1.71,7,1.7,6.6-.03,12.53-1.5,18.93-2.77.45-.09.94-.26,1.32.12.65.64.79,4.44,1.1,5.47.4.24.63.61.7,1.08v1.8c-.21.83-.21,1.77,0,2.6v1.9c-.16.22-.15.5-.31.74-.13.2-.33.21-.4.4-.43,1.11-.35,3.31-.75,4.64-.1.34-.27.84-.68.92-.66.13-2.9-.59-3.73-.77-5.94-1.24-13.23-2.49-19.27-2.03-4.21.31-5.73,3.93-6.87,7.43-1.34,4.09-2.17,8.45-3.03,12.67-.16.81-.36,3.02-.9,3.5-1.11,1.01-1.91-1.24-2.18-2.02-.82-2.38-1.24-5-1.67-7.48-.4.22-.82.43-1.29.41-.8,3.66-1.71,7.3-2.83,10.87l-10.81,2.82-.36,1.31c2.01.33,4.04.69,6,1.25.87.25,3.35.89,3.63,1.78.22.71-.52,1.09-1.1,1.24-2.81.76-6.09,1.11-9,1.8-4.71,1.1-13.19,2.57-13.72,8.48s.88,13.88,2.13,19.77c.18.83.81,2.6.67,3.33-.08.4-.58.58-.92.68-1.33.38-3.48.31-4.64.75-.18.07-.22.3-.47.44-.32.19-.58.12-.87.28h-1.5l-1.45-.2-1.45.2c-.48-.04-1.03.05-1.5,0ZM59.53,29.33c-2.36-.99-4.89-1.66-7.45-1.9-4.26-.39-7.2-.11-9.07,4.13-1.19,2.7-1.86,5.89-2.6,8.75-2.86.88-6.04,1.45-8.78,2.67-4.6,2.05-4.66,5.32-4.09,9.88.29,2.29.9,4.54,1.79,6.66,4.29-4,9.07-7.46,14.3-10.15,1.29-.66,2.63-1.2,3.9-1.9,2.97-6.66,6.98-12.85,12-18.15ZM92.23,49.03c-.91-4.23-1.83-8.47-3.03-12.62-.89-3.06-1.86-7.31-5.1-8.6-2.87-1.14-8.61-.14-11.52.92-.26.09-1.5.51-1.44.75.03.12,1.51,1.58,1.75,1.86,3.79,4.35,6.96,9.25,9.43,14.47.51,1.07.9,2.2,1.46,3.24h8.45ZM76.33,49.03c-.75-4.4-2.87-8.59-5.85-11.9-.58-.65-4.65-4.63-5.19-4.58-5.58,3.88-9.83,9.7-11.07,16.48h22.1ZM49.03,54.23c-6.77,1.19-12.61,5.49-16.47,11.05,2.74,3.96,6.74,7.55,11.2,9.47,1.7.73,3.49,1.18,5.27,1.68v-22.2ZM69.73,69.73c2.91-.09,5.96-.45,7.18-3.47.45-1.11.53-1.55.13-2.68-.97-2.73-3.16-3.46-5.85-3.75h-11.35s0,11.05,0,11.05c.26,2.55.78,4.87,3.33,5.97,1.33.57,1.91.57,3.24,0,2.89-1.24,3.27-4.3,3.33-7.12ZM94.43,59.83h-7.4c.09.59.18,1.34.2,1.95.09,2.61.04,5.37-.2,7.95h7.4l.9-5.04-.9-4.86ZM49.03,83.63c-7.3-2.82-14.01-7.2-19.65-12.6-.95,2.1-1.55,4.37-1.84,6.66-.33,2.63-.61,6.12,1.39,8.19,1.81,1.87,6.45,3.02,8.98,3.72,3.67,1.01,7.4,1.81,11.12,2.63v-8.6ZM92.23,80.53h-8.6c-.16.45-.62,1.85-.9,2.15-.31.31-1.73.77-2.2.95v8.6l9.48-2.22,2.22-9.48ZM69.73,87.03c-3.28.31-6.62.31-9.9,0v7.4l4.95.9,4.95-.9v-7.4Z"/>
  <path fill="#FFFFFF" d="M.03,56.13c-.03-.29-.04-.92,0-1.2.72-5.75,9.47-5.28,9.41.65S.67,61.56.03,56.13Z"/>
  <path fill="#FFFFFF" d="M.03,75.63c-.03-.29-.04-.92,0-1.2.68-5.45,9.35-5.19,9.41.55S.7,81.35.03,75.63Z"/>
  <path fill="#FFFFFF" d="M56.23.03c3.45.44,5.09,4.94,2.95,7.6-3.16,3.92-9.51.8-8.18-4.18.44-1.65,2.11-3.2,3.83-3.42.32-.04,1.08-.04,1.4,0Z"/>
  <path fill="#FFFFFF" d="M75.73.03c5,.6,5.56,8.2.33,9.28-6.51,1.33-7.48-8.54-1.73-9.28.32-.04,1.08-.04,1.4,0Z"/>
  <path fill="#FFFFFF" d="M43.4,115.96c6.59-.8,7.29,8.98.77,9.27-5.71.26-6.25-8.61-.77-9.27Z"/>
  <path fill="#FFFFFF" d="M119.8,39.56c4.84-.65,7.29,5,3.77,8.07-3.75,3.26-9.24-.94-7.23-5.43.58-1.29,2.05-2.45,3.46-2.64Z"/>
  <path fill="#FFFFFF" d="M120,80.76c6.15-.73,7.23,9.05.77,9.27-6.01.2-6.48-8.59-.77-9.27Z"/>
  <path fill="#FFFFFF" d="M80.9,115.96c6.02-.73,7.39,7.9,1.63,9.13-6.41,1.36-7.52-8.42-1.63-9.13Z"/>
</svg>