<?xml version="1.0" encoding="UTF-8"?>
<svg id="Layer_1" data-name="Layer 1" xmlns="http://www.w3.org/2000/svg" viewBox="0 0 139.21 139.11">
  <path fill="#FFFFFF" d="M0,77.91c.34-.74,1.42-1.68,1.71-2.35.09-.21,0-.32.03-.45.11-.37,2.78-3.04,3.16-3.16,1.1-.35,1.35-.84,2.28-1.41.59-.36.86-.58,1.36.07.84,1.11,1.62,2.62,2.47,3.83,1.26,1.77,4.68,6.41,6.61,7.09,2.51.88,6.23-1.65,8.36-2.98,1.28-.8,2.93-2.2,4.17-2.83.42-.21.97-.25.99.33.04,1.28-2.08,3.87-2.75,5l.67.33c2.55-1.52,5.08-3.1,7.73-4.43,1.73-.87,4.6-2.26,6.54-2.04,3.3.38,6.34,6.05,7.19,8.91.38,1.29.58,2.61.76,3.94.18.23.58.11.85.15,3.56.56,6.59,1.73,9.41,3.99,3.57,2.85,3.02,5.25,1.27,9.06-1.42,3.09-3.33,6.1-5.1,9l.33.73c1.23-.78,2.48-1.8,3.82-2.38.63-.28,1.9-.81,1.61.42-1.57,2.79-6.22,8.32-6.15,11.49.05,2.55,4.25,5.57,6.18,7.02,1.59,1.19,3.48,2.18,4.98,3.32.65.49.43.76.07,1.36-.55.92-1.07,1.23-1.41,2.28-.12.38-2.78,3.04-3.16,3.15-.14.04-.25-.05-.45.03-.67.29-1.61,1.37-2.35,1.71h-.5c-1.92-2.98-3.86-6.06-6.25-8.7-1.08-1.19-2.53-2.76-4.21-2.89-1.95-.14-5.63,2.19-7.33,3.25-1.25.78-2.93,2.19-4.12,2.78-1.46.73-.92-.94-.58-1.68.58-1.25,1.58-2.43,2.28-3.61l-.65-.34c-3.18,1.82-6.4,3.97-9.78,5.41s-5.4,1.72-7.97-1.16-4.22-6.97-4.4-10.75c-3.77-.17-7.88-1.86-10.7-4.35s-2.67-4.58-1.25-7.95,3.61-6.65,5.44-9.85l-.34-.65c-.94.59-1.82,1.27-2.78,1.81-.47.27-2.89,1.7-2.65.26,1.52-2.47,3.28-4.8,4.64-7.37,2.21-4.19,2.21-5.44-1.35-8.65-2.64-2.39-5.72-4.33-8.7-6.25v-.5ZM46.6,87.71c-.46-1.54-1.57-3.2-2.65-4.4-2.56-2.83-4.17-2.01-7.15-.45-2.38,1.25-4.63,2.77-6.9,4.2l3.54,3.44c4.19-1.64,8.63-2.76,13.15-2.8ZM22.13,92.25c-.57.55-.98,1.69-1.59,2.27l-.04.23,2.94,2.97,4.05-4.05-2.97-2.94c-.09-.03-.15,0-.22.04-.17.06-2.01,1.33-2.17,1.49ZM45.6,102.71c.28-.73.76-1.36,1.09-2.06,1.32-2.87,1.55-6.14,1.07-9.24-3.83-.74-7.96-.08-11.21,2.1l9.05,9.2ZM51.4,92.51c-.03,4.53-1.16,8.97-2.8,13.15l3.44,3.54c1.43-2.27,2.96-4.51,4.2-6.9,1.56-2.99,2.38-4.6-.45-7.15-1.2-1.08-2.86-2.18-4.4-2.65ZM30.97,99.04c-2.07.33-2.59,2.45-1.69,4.14.68,1.27,5.31,5.91,6.59,6.61,2.6,1.43,5.12-.65,3.92-3.42-.18-.41-.5-.87-.79-1.21-.95-1.15-4.66-4.92-5.81-5.59-.67-.39-1.42-.66-2.22-.53ZM17.5,116.81c.11-4.56,1.15-9.05,2.87-13.25l-3.56-3.45c-1.56,2.76-3.6,5.46-4.89,8.36-1.22,2.74-.68,4.03,1.48,5.89,1.18,1.01,2.63,1.94,4.1,2.45ZM21.22,117.89c3.88.67,8.05.12,11.27-2.23l-9.05-9.05c-2.34,3.22-2.89,7.41-2.23,11.27ZM45.45,111.62l-4.05,4.05,3.05,2.95c.14,0,2.18-1.4,2.34-1.56.18-.17,1.61-2.25,1.61-2.39l-2.95-3.05ZM39,122.31l-3.45-3.56c-4.2,1.72-8.69,2.76-13.25,2.87.51,1.47,1.43,2.92,2.45,4.1,3.13,3.64,5.34,1.88,8.82-.08,1.85-1.05,3.6-2.25,5.43-3.32Z"/>
  <path fill="#FFFFFF" d="M78.5,139.11h-.5c-.74-.39-1.65-1.39-2.35-1.71-.19-.09-.34-.02-.5-.08-.37-.14-2.99-2.76-3.11-3.11-.38-1.19-.97-1.46-1.53-2.47-.15-.26-.32-.53-.17-.83,1.46-1.04,3.02-1.97,4.48-3.02,1.82-1.31,6.4-4.67,6.92-6.78.44-1.75-.61-3.6-1.4-5.11-1.36-2.57-3.11-4.9-4.63-7.37v-.35c.24-.81,1.97.21,2.41.45,1.05.56,2.04,1.31,3.02,1.98l.35-.65c-1.24-2.12-2.56-4.21-3.72-6.38-1.03-1.95-2.89-5.43-2.79-7.62.12-2.62,3.35-4.82,5.44-5.96,2.32-1.27,4.82-2.06,7.47-2.23.21-1.19.33-2.39.64-3.56.8-2.96,3.86-8.91,7.23-9.37,2.43-.33,6.44,1.89,8.59,3.06,1.97,1.07,3.86,2.27,5.8,3.4.12-.08.7-.26.63-.43-.64-.84-1.3-1.76-1.82-2.68-.31-.55-1.73-3.01-.15-2.65,2.54,1.63,4.98,3.46,7.67,4.83,2.08,1.06,4.11,2.07,6.2.4,2.43-1.94,5.05-5.68,6.8-8.3.27-.4,1.23-2.18,1.5-2.3.25-.12.42-.06.66.04.67.29,1.72,1.46,2.24,1.65.11.04.26-.04.4,0,.36.1,3.06,2.79,3.16,3.16.27,1.03.86,1.39,1.4,2.29.18.31.46.63.29,1.01-.11.24-1.37.89-1.7,1.1-2.29,1.5-8.57,5.81-9.53,8.17-.75,1.85.19,3.59,1.03,5.23,1.38,2.69,3.2,5.14,4.83,7.67.36,1.58-2.11.15-2.65-.15-.92-.51-1.84-1.18-2.69-1.82-.2-.05-.37.49-.43.63,1.46,2.51,3.02,4.97,4.33,7.56,2.23,4.42,3.68,7.36-.86,10.84-2.83,2.17-6.34,3.52-9.9,3.8-.19,1.19-.33,2.39-.64,3.56-.82,3.04-3.93,9-7.43,9.37-2.14.23-5.67-1.65-7.59-2.65-2.25-1.18-4.39-2.54-6.58-3.81l-.65.34c.59.85,1.2,1.69,1.71,2.58.27.48,1.87,3.14.36,2.85-2.76-1.69-5.36-3.71-8.29-5.12-3.75-1.8-4.96-1.21-7.64,1.74-2.43,2.67-4.39,5.79-6.35,8.8ZM92.6,87.71c4.57.02,9.01,1.2,13.25,2.8l3.45-3.45c-2.2-1.41-4.39-2.88-6.7-4.11-2.82-1.49-4.63-2.55-7.15.15-1.19,1.28-2.29,2.96-2.85,4.6ZM114.67,90.72l-2.97,2.94,4.05,4.05,2.95-3.05c0-.14-1.42-2.21-1.61-2.39-.2-.2-1.97-1.42-2.2-1.51-.08-.03-.14-.07-.22-.04ZM102.8,93.52c-1-.47-1.93-1.09-2.97-1.48-2.66-.99-5.52-1.06-8.31-.71-.43,2.29-.37,4.84.21,7.11.39,1.49,1.12,2.88,1.92,4.18l9.15-9.1ZM87.8,92.51c-1.64.53-3.34,1.67-4.6,2.85-2.45,2.29-1.81,3.88-.45,6.55,1.28,2.52,2.94,4.85,4.35,7.3l3.56-3.45c-1.72-4.2-2.77-8.69-2.87-13.25ZM107.38,99.04c-.73.1-1.62.66-2.18,1.12-1.22,1.01-4.48,4.23-5.32,5.48-1.1,1.64-1.12,3.84,1.02,4.52,1.39.44,2.64-.36,3.65-1.25,1.26-1.1,5.2-4.95,5.67-6.33.67-1.98-.74-3.82-2.85-3.54ZM121.7,116.81c1.68-.61,3.52-1.79,4.8-3.05,2.41-2.37,1.4-4.17.05-6.75-1.25-2.38-2.76-4.64-4.21-6.9l-3.45,3.45c1.6,4.24,2.77,8.68,2.8,13.25ZM115.9,106.61l-9.1,9.15c2.01,1.28,4.34,2.2,6.75,2.35.65.04,4.15.07,4.46-.25.55-2.97.28-6.28-.96-9.05-.34-.76-.84-1.43-1.15-2.2ZM95.76,113.65c-.67-.67-1.42-1.27-2.01-2.03l-2.94,3.03c.02.17,1.41,2.16,1.63,2.37s2.23,1.61,2.39,1.58l2.96-2.94c-.76-.59-1.36-1.34-2.03-2.01ZM116.9,121.61c-4.55-.11-9.05-1.14-13.24-2.88l-3.46,3.58c2.7,1.52,5.34,3.5,8.16,4.79,2.22,1.01,3.69,1.14,5.49-.68,1.27-1.29,2.44-3.1,3.05-4.8Z"/>
  <path fill="#FFFFFF" d="M0,60.71c3.02-1.97,6.23-4.02,8.9-6.45,2.87-2.61,3.43-3.9,1.65-7.55-1.41-2.9-3.44-5.53-5.13-8.27-.26-1.35,1.87-.2,2.35.06,1.07.56,2.08,1.34,3.08,2.01l.34-.65c-1.05-1.84-2.2-3.62-3.21-5.48-1.14-2.09-3.45-6.26-3.27-8.6.26-3.34,5.76-6.38,8.61-7.29,1.41-.45,2.87-.66,4.34-.86.28-3.57,1.62-6.99,3.76-9.84,2.85-3.79,5.04-3.61,9.15-1.78,3.2,1.42,6.27,3.45,9.3,5.2l.62-.42c-.67-.93-1.36-1.88-1.91-2.89-.26-.49-1.07-1.85-.69-2.33l.64-.12c2.6,1.67,5.11,3.54,7.87,4.93,1.52.77,3.08,1.55,4.8,1,2.44-.78,6.91-7.32,8.4-9.6.45-.7.86-2.13,1.83-1.64.57.29,1.73,1.48,2.16,1.63.12.04.28-.06.43-.03.24.05,3.11,2.91,3.16,3.16.03.15-.07.31-.03.43.15.43,1.34,1.59,1.63,2.16.12.24.18.48.06.73-3.41,2.35-7.35,4.65-10.09,7.81-2.1,2.41-1.57,3.79-.21,6.5s3.27,5.27,4.93,7.87l-.12.64c-.48.38-1.84-.43-2.33-.69-1.01-.55-1.96-1.24-2.89-1.91l-.42.62c1.11,1.86,2.27,3.7,3.3,5.6,1.19,2.19,3.5,6.31,3.16,8.79-.45,3.28-6.2,6.3-9.07,7.13-1.27.36-2.56.53-3.86.74-.21,3.41-1.5,6.67-3.46,9.44-2.77,3.9-4.82,4.16-9.15,2.29-3.31-1.43-6.45-3.54-9.58-5.31l-.65.35c.59.85,2.97,4.17,2.76,5.05-.14.59-.7.39-1.09.18-2.74-1.53-8.3-6.21-11.41-5.97-1.53.12-3.01,1.61-4.01,2.69-1.73,1.86-3.53,4.43-4.95,6.55-.27.4-1.23,2.18-1.5,2.3-.43.2-.82-.2-1.17-.43-.96-.62-1.16-.9-2.25-1.34-.53-.21-3.16-2.83-3.09-3.61l-1.69-2.27v-.5ZM22.3,17.51c4.56.03,9.02,1.18,13.25,2.8l3.45-3.45c-2.17-1.42-4.4-2.9-6.7-4.11-2.72-1.43-4.57-2.55-7.05.05-1.23,1.28-2.36,3.02-2.95,4.7ZM44.37,20.52l-2.97,2.94,4.05,4.05,2.95-3.05c0-.14-1.41-2.19-1.61-2.39-.22-.22-1.94-1.41-2.19-1.51-.08-.03-.14-.07-.22-.04ZM32.5,23.32c-1.01-.47-1.92-1.09-2.98-1.48-2.24-.83-5-1.1-7.37-.82-.28.03-.65.08-.9.2-.31.3-.29,3.82-.25,4.46.15,2.42,1.08,4.79,2.4,6.8l9.1-9.15ZM17.5,22.31c-1.68.58-3.41,1.71-4.7,2.95-2.01,1.92-1.79,3.42-.68,5.79,1.3,2.78,3.19,5.29,4.69,7.96l3.58-3.46c-1.73-4.2-2.77-8.68-2.88-13.24ZM37.08,28.84c-.75.11-1.7.74-2.28,1.22-1.25,1.06-5.31,5.07-5.78,6.42-.28.81-.26,1.23.03,2.03s.73,1.19,1.55,1.45c1.32.42,2.57-.31,3.55-1.15,1.19-1.01,5.13-4.89,5.67-6.13.88-2.03-.48-4.17-2.74-3.84ZM51.4,46.61c1.69-.59,3.41-1.71,4.7-2.95,2.61-2.49,1.48-4.33.05-7.05-1.22-2.31-2.68-4.51-4.11-6.7l-3.45,3.45c1.61,4.23,2.78,8.69,2.8,13.25ZM45.6,36.41l-9.15,9.1c3.31,2.31,7.42,2.83,11.34,2.19.36-2.8.28-5.65-.71-8.31-.39-1.05-.99-1.98-1.48-2.98ZM23.45,41.42l-2.94,3.03c.01.16,1.42,2.17,1.63,2.37.22.22,2.24,1.61,2.39,1.58l2.96-2.94-4.05-4.05ZM46.6,51.41c-4.55-.11-9.05-1.14-13.24-2.88l-3.46,3.58c2.71,1.52,5.34,3.49,8.16,4.79,2.42,1.11,3.82,1.1,5.69-.88,1.19-1.27,2.29-2.97,2.85-4.6Z"/>
  <path fill="#FFFFFF" d="M98.7,10.91l.7.26c1.96-1.19,3.91-2.39,5.93-3.48s5.93-3.25,8.31-2.97c3.2.37,6.2,5.84,7.09,8.61.45,1.41.66,2.87.87,4.33,3.52.23,6.92,1.59,9.74,3.66,5.24,3.86,2.8,7.62.28,12.35-1.12,2.11-2.41,4.13-3.62,6.18l.35.65c.84-.57,1.65-1.17,2.52-1.68.6-.35,2.07-1.29,2.73-.97.35.17.17.67.04.94-.59,1.18-2.01,2.87-2.78,4.12-1.03,1.65-3.35,5.34-3.25,7.23.08,1.53,1.53,3.01,2.59,4.02,2.64,2.5,5.99,4.48,8.95,6.55.15.3-.02.57-.17.83-.56,1-1.15,1.27-1.53,2.47-.12.37-2.79,3.04-3.16,3.16-.14.04-.25-.05-.45.03-.64.28-1.93,1.73-2.6,1.72-.49,0-1.07-1.35-1.35-1.76-1.48-2.27-5.97-8.81-8.38-9.62-1.89-.63-3.79.46-5.42,1.32-2.57,1.36-4.9,3.11-7.37,4.63-1.51.3.11-2.42.39-2.91.5-.87,1.12-1.68,1.68-2.52l-.65-.34c-3.2,1.83-6.45,4-9.85,5.44-4.37,1.85-6.39,1.19-9.04-2.66-1.88-2.72-3.13-5.96-3.26-9.29-3.71-.17-7.73-1.8-10.55-4.2-3.46-2.95-2.68-5.41-.94-9.13,1.43-3.05,3.28-5.92,4.98-8.81-.08-.14-.24-.7-.44-.65-.84.64-1.76,1.3-2.69,1.82-.51.29-2.02,1.19-2.53.79-.26-.26-.12-.61.02-.9.62-1.24,1.99-2.85,2.78-4.12.62-1,1.26-2.04,1.81-3.09.77-1.47,1.72-3.21,1.3-4.91-.53-2.14-4.81-5.26-6.62-6.58-1.56-1.13-3.18-2.15-4.78-3.22-.13-.23-.03-.42.06-.64.28-.72,1.41-1.69,1.64-2.27.05-.13-.04-.27,0-.4.12-.37,2.8-3.06,3.15-3.16,1.1-.29,1.5-1.01,2.47-1.52.56-.3.7-.38,1.11.15.93,1.17,1.81,2.88,2.74,4.16,1.29,1.79,4.55,6.2,6.56,6.84,1.73.55,3.41-.34,4.92-1.12,2.64-1.35,5.07-3.12,7.52-4.78,1.25-.37.9.76.59,1.49-.57,1.36-1.71,2.63-2.42,3.93ZM116.9,17.51c-.56-1.64-1.66-3.32-2.85-4.6-2.47-2.64-4.17-1.71-6.95-.25-2.38,1.25-4.64,2.76-6.9,4.2l3.54,3.45c4.19-1.64,8.63-2.76,13.15-2.8ZM94.67,20.53c-.14.03-2.16,1.43-2.32,1.6-.17.17-1.56,2.2-1.56,2.34l2.95,3.05,4.05-4.05-2.84-2.86-.28-.08ZM117.99,21.13c-3.96-.58-7.93.02-11.29,2.24l9.15,9.05c2.23-3.26,2.89-7.43,2.14-11.29ZM122.4,39.01c1.4-2.37,2.98-4.65,4.25-7.1,1.46-2.81,2.18-4.46-.45-6.85-1.24-1.14-2.9-2.23-4.5-2.75-.06,4.52-1.15,8.96-2.8,13.15l3.5,3.55ZM101.27,28.84c-.58.09-1.37.5-1.69,1.01-1.03,1.62-.19,3.15.92,4.42s4.91,5.18,6.35,5.65c2.52.83,4.33-1.52,3.17-3.87-.57-1.15-4.69-5.26-5.83-6.17-.81-.65-1.85-1.2-2.92-1.03ZM87.8,46.61c.08-4.55,1.14-9.06,2.87-13.25l-3.51-3.45c-1.43,2.27-2.96,4.51-4.2,6.9-1.94,3.72-2.16,5.16,1.36,7.84,1.04.79,2.24,1.56,3.49,1.96ZM93.75,36.42c-2.34,3.19-2.94,7.41-2.25,11.25.31.32,3.9.29,4.56.25,2.35-.15,4.69-1.1,6.65-2.35l-8.95-9.15ZM115.75,41.42l-4.05,4.05,2.96,2.94c1.86-.86,3.06-2.16,4.04-3.94l-2.95-3.05ZM109.3,52.11l-3.45-3.56c-4.2,1.71-8.69,2.76-13.25,2.87.47,1.4,1.37,2.81,2.3,3.95,1.85,2.25,3.22,2.89,6.03,1.64s5.6-3.33,8.36-4.89Z"/>
  <path fill="#FFFFFF" d="M133.18,11.04c4.05-.53,4,6.06-.08,5.43-3.13-.48-2.99-5.03.08-5.43Z"/>
  <path fill="#FFFFFF" d="M125.37,130.65c3.41-.05,3.8,5.1.48,5.46-4.04.44-4.07-5.41-.48-5.46Z"/>
  <path fill="#FFFFFF" d="M55.15,73.17c3.59,0,3.54,5.14.3,5.44-3.79.35-4.09-5.44-.3-5.44Z"/>
  <path fill="#FFFFFF" d="M62.88,81.24c3.7-.53,4.14,5.27.57,5.48-3.54.2-4.03-4.98-.57-5.48Z"/>
  <path fill="#FFFFFF" d="M5.28,11.04c3.03-.39,4.45,3.82,1.66,5.16-3.94,1.9-5.61-4.65-1.66-5.16Z"/>
  <path fill="#FFFFFF" d="M75.58,81.24c2.34-.29,4.1,2.4,2.62,4.32-1.82,2.36-5.34.82-4.87-2.17.17-1.08,1.18-2.01,2.25-2.15Z"/>
  <path fill="#FFFFFF" d="M124.77,3.04c4.14-.7,4.4,4.88,1.15,5.35-3.73.54-4.26-4.83-1.15-5.35Z"/>
  <path fill="#FFFFFF" d="M133.08,122.64c3.87-.56,4.19,5.22.66,5.47s-4.12-4.97-.66-5.47Z"/>
  <path fill="#FFFFFF" d="M83.47,60.54c4.29-.72,4.44,5.95.08,5.37-2.96-.39-2.86-4.9-.08-5.37Z"/>
  <path fill="#FFFFFF" d="M74.04,57.08c-2.45-2.53,1.23-6.39,3.87-3.92s-1.35,6.52-3.87,3.92Z"/>
  <path fill="#FFFFFF" d="M84.05,73.17c3.98,0,3.39,6.12-.55,5.4-3-.55-2.87-5.4.55-5.4Z"/>
  <path fill="#FFFFFF" d="M62.78,52.44c4.64-.67,3.77,6.97-.57,5.22-2.57-1.04-2.08-4.84.57-5.22Z"/>
  <path fill="#FFFFFF" d="M13.18,3.04c4.49-.65,4.24,5.9.18,5.37-2.94-.39-3.09-4.95-.18-5.37Z"/>
  <path fill="#FFFFFF" d="M54.47,60.54c3.21-.54,4.69,3.54,2.12,5.02s-5.24-1.28-3.81-3.71c.29-.5,1.11-1.21,1.69-1.31Z"/>
  <path fill="#FFFFFF" d="M73.08,116.24c3.7-.54,4.26,5,.76,5.36s-4.17-4.87-.76-5.36Z"/>
  <path fill="#FFFFFF" d="M135.47,46.04c3.76-.6,4.46,4.97.87,5.36s-4.01-4.87-.87-5.36Z"/>
  <path fill="#FFFFFF" d="M19.67,63.04c4.32-.68,4.2,6.08-.08,5.33-2.74-.48-2.8-4.88.08-5.33Z"/>
  <path fill="#FFFFFF" d="M65.17,17.54c3.9-.61,4.44,5.02.76,5.37-3.36.32-4.04-4.85-.76-5.37Z"/>
  <path fill="#FFFFFF" d="M65.17,116.24c3.78-.6,4.49,4.97.87,5.36s-4.01-4.87-.87-5.36Z"/>
  <path fill="#FFFFFF" d="M2.78,46.04c3.73-.54,4.26,5,.76,5.36-3.68.38-4.07-4.88-.76-5.36Z"/>
  <path fill="#FFFFFF" d="M20.08,70.64c3.47-.19,3.89,5.41.17,5.49s-3.62-5.3-.17-5.49Z"/>
  <path fill="#FFFFFF" d="M90.48.44c2.87-.06,3.83,4.25.98,5.28-4.09,1.46-5.1-5.19-.98-5.28Z"/>
  <path fill="#FFFFFF" d="M118.88,70.64c3.48-.19,3.86,5.36.27,5.48s-3.71-5.3-.27-5.48Z"/>
  <path fill="#FFFFFF" d="M48.68.44c4-.08,3.38,6.67-.86,5.3-2.89-.94-2.02-5.24.86-5.3Z"/>
  <path fill="#FFFFFF" d="M118.58,63.04c4.2-.57,4.08,6.02-.1,5.35-2.76-.44-2.96-4.93.1-5.35Z"/>
  <path fill="#FFFFFF" d="M89.97,133.24c1.83-.29,3.44,1.13,3.2,3-.26,2.02-2.65,3.12-4.31,1.86-1.81-1.38-1.21-4.49,1.11-4.86Z"/>
  <path fill="#FFFFFF" d="M72.97,17.54c4.33-.68,4.11,5.95.12,5.33-3.02-.47-3.05-4.87-.12-5.33Z"/>
  <path fill="#FFFFFF" d="M135.48,87.74c3.94-.58,4.34,5.03.76,5.36-3.38.32-4.03-4.89-.76-5.36Z"/>
  <path fill="#FFFFFF" d="M5.17,122.64c3.31-.53,4.54,3.96,1.6,5.19-3.86,1.62-5.31-4.61-1.6-5.19Z"/>
  <path fill="#FFFFFF" d="M13.77,130.65c3.76-.05,3.62,6.15-.57,5.42-3.17-.55-2.64-5.37.57-5.42Z"/>
  <path fill="#FFFFFF" d="M2.67,87.74c4.04-.63,4.25,5.26.67,5.38-3.38.11-3.88-4.87-.67-5.38Z"/>
  <path fill="#FFFFFF" d="M48.28,133.24c3.75-.54,4.11,4.83,1.05,5.35-3.75.64-4.52-4.85-1.05-5.35Z"/>
</svg>