<?xml version="1.0" encoding="UTF-8"?>
<svg id="Layer_1" data-name="Layer 1" xmlns="http://www.w3.org/2000/svg" viewBox="0 0 123.21 123.95">
  <path fill="#FFFFFF" d="M0,57.05c.38-7.94,5.03-19.27,10.85-24.8,2.9-2.76,7.59-5.25,11.35-6.65.83-.31,1.95-.81,2.8-.55-.09-1.35.55-2.67,1.05-3.9,1.46-3.53,3.51-7.48,6.14-10.26C37.77,5.02,50.86-.61,58.96.05c.69.06,2.4.72,2.69.7.2-.01.74-.3,1.04-.37,6.39-1.62,17.14,2.61,22.61,6.03,6.12,3.82,9.08,8.07,11.83,14.67.52,1.25,1.17,2.6,1.08,3.97.82-.26,1.92.23,2.73.52,3.38,1.24,7.74,3.5,10.47,5.83,6.42,5.46,11.4,17.34,11.8,25.65v1.5c-.13.57-.19,1.15-.33,1.72-.08.34-.63,1.62-.63,1.73,0,.22.55.98.53,1.33l.43,2.12v1.5l-.21,2.34c-1.06,6.44-3.5,12.92-7.21,18.29s-8.42,8.28-14.38,10.62c-.96.38-2.19.95-3.2.75.1,1.18-.42,2.32-.85,3.4-.85,2.13-2.08,4.67-3.27,6.63-5.02,8.35-15.38,12.71-24.56,14.64l-2.62.33h-2.6c-.9-.19-1.79-.37-2.65-.71l-2.75.71h-2.5l-2.72-.33c-9.18-1.94-19.53-6.28-24.56-14.64-1.25-2.08-2.61-4.86-3.47-7.13-.35-.93-.75-1.88-.65-2.9-1,.2-2.24-.38-3.2-.75-5.95-2.33-10.71-5.29-14.38-10.62S1.28,75.72.22,69.29l-.21-2.34v-1.5l.45-2.2.51-1.25c-.25-.55-.49-1.14-.64-1.73s-.2-1.15-.33-1.72c.02-.5-.02-1,0-1.5ZM57.71,31.45V7.3c-.43-.49-1.12-.7-1.72-.88-2.63-.78-6.12-.49-8.79.06-.14.03-.55,0-.48.22,2.23,1.51,4.57,2.93,6.65,4.65.67.55,1.95,1.58.79,2.38-1.31.9-2.95-.06-3.14,2.26-.33,4.21.74,8.75-.82,12.78-.34.89-.83,1.7-1.38,2.47l8.9.2ZM65.51,7.3v24c0,.39.78.15.95.15.87-.02,1.74-.08,2.59-.1,1.78-.05,3.57-.01,5.35-.1-.55-.78-1.03-1.58-1.38-2.47-1.56-4.03-.49-8.57-.82-12.78-.15-1.96-1.23-1.51-2.66-2.04-1.79-.67-.62-1.83.31-2.6,2.05-1.71,4.45-3.15,6.65-4.65.07-.21-.35-.19-.48-.22-2.35-.48-5.49-.76-7.84-.3-.49.1-2.55.65-2.68,1.12ZM31.21,37.4v-6.25c1.62.02,3.24-.02,4.85,0,1.02.01,1.07.14,2.11-.28,3.28-1.32,5.79-4.24,6.04-7.86.33-4.91-.18-10.23,0-15.21,0-.22.1-.42.1-.64-5.22.96-7.96,4.48-9.77,9.17-.61,1.58-1.01,3.45-1.65,4.95-.1.23-.16.38-.32.58-.59.73-3.47,2.16-4.45,2.65-.8.4-1.69.95-2.6.95.05.34-.05.59-.15.9-.29.87-1.04,2.16-1.5,3s-1.43,2.87-2.16,3.34c-4.41,1.53-9.64,2.68-12.48,6.72-.98,1.4-1.7,3.09-2.02,4.78l16.06-.05c3-.28,5.49-2.06,6.96-4.64.24-.42.91-1.72.98-2.12ZM92.01,31.15v6.25c0,.12.84,1.87.98,2.12,1.46,2.57,3.98,4.35,6.96,4.64l16.06.05c-.32-1.69-1.04-3.38-2.02-4.78-2.84-4.04-8.07-5.19-12.48-6.72-.73-.47-1.71-2.51-2.16-3.34s-1.21-2.17-1.5-3c-.11-.31-.2-.56-.15-.9-.91,0-1.8-.55-2.6-.95-.98-.49-3.86-1.92-4.45-2.65-.16-.2-.23-.35-.32-.58-.64-1.5-1.04-3.37-1.65-4.95-1.81-4.7-4.55-8.21-9.77-9.17,0,.22.1.42.1.64.17,4.98-.34,10.3,0,15.21.24,3.62,2.75,6.55,6.04,7.86,1.05.42,1.09.29,2.11.28,1.62-.02,3.24.02,4.85,0ZM57.71,58.55v-20.35c-.37-.35-.99-.06-1.45-.05-.87.03-1.74.08-2.6.1-1.62.05-3.24-.05-4.85.1.84,1.1,1.4,2.34,1.77,3.68.11.4.43,1.54.43,1.87v7.05h-7.25c-.27,0-1.22-.26-1.55-.35-1.41-.37-2.73-.99-3.9-1.85l-.18,8.73c.07.3.42.5.68.62.32.15,1.43.45,1.75.45h17.15ZM65.51,38.2v20.35h17.15c.32,0,1.43-.3,1.75-.45.26-.12.61-.32.68-.62l-.18-8.73c-1.17.86-2.49,1.48-3.9,1.85-.33.09-1.28.35-1.55.35h-7.25c.13-3-.36-6.09.45-9,.36-1.31.94-2.51,1.75-3.6l-8.73-.28-.17.13ZM43.21,43.15c-.78-1.62-2.23-2.95-3.8-3.8.75,1.6,2.16,3.1,3.8,3.8ZM80.01,43.15c1.64-.7,3.05-2.2,3.8-3.8-1.58.85-3,2.18-3.8,3.8ZM31.31,48.75c-.65.49-1.35.93-2.1,1.25-3.98,1.7-8.63.66-12.85.95-.39.03-1.25.13-1.54.36-.96.73-.48,5.3-3.2,2.29-1.87-2.06-3.27-4.76-5-6.95-.49,2.9-1,6.1-.25,9,.36,1.4.95,2.61,2.51,2.89h20c.6-.05,2.51-.38,2.64-1.04l-.2-8.75ZM91.91,48.75l-.2,8.75c.13.66,2.04,1,2.64,1.06h19.9c1.34-.21,2.01-1.07,2.42-2.28,1.01-3.02.44-6.55-.07-9.62-1.61,2.09-2.91,4.42-4.6,6.45-.37.45-1.06,1.41-1.66,1.45-1.56.11-1.11-2.61-1.94-3.24-.29-.22-1.15-.33-1.54-.36-4.21-.29-8.89.76-12.85-.95-.75-.32-1.44-.78-2.1-1.25ZM31.31,75.15l.2-8.65c-.13-.68-1.93-1.03-2.54-1.06H8.66c-1.28.39-1.83,1.29-2.21,2.51-.91,2.97-.33,6.39.15,9.4,1.66-2.2,3.02-4.64,4.8-6.75.39-.46.8-1.1,1.45-1.16,1.75-.16.89,3.26,2.54,3.46,4.68.41,9.97-.85,14.31,1.29l1.59.95ZM57.71,65.45h-17.45c-.21,0-1.14.31-1.39.41-.27.12-.7.31-.76.64l.2,8.65,2.3-1.25c3.3-1.42,6.9-.83,10.4-.95-.14,3.17.41,6.42-.57,9.48-.37,1.15-.93,2.24-1.63,3.22l8.65.26c.07-.01.25-.19.25-.21v-20.25ZM82.96,65.45h-17.45v20.25s.17.2.25.21l8.65-.26c-1.2-1.73-2.07-3.92-2.2-6.04-.1-1.6-.18-4.79,0-6.31.01-.11,0-.23.1-.3,3.45,0,7.05-.47,10.3.91l2.3,1.25.2-8.65c-.1-.54-1.66-1-2.15-1.05ZM116.61,77.35c.48-3.03,1.08-6.49.13-9.48-.36-1.13-.87-1.94-2.02-2.38l-20.56-.05c-.55.04-2.26.39-2.43.97l.18,8.73,1.59-.95c4.34-2.14,9.63-.88,14.31-1.29,1.66-.2.79-3.62,2.54-3.46.65.06,1.06.7,1.45,1.16,1.79,2.1,3.14,4.55,4.8,6.75ZM31.21,92.75v-6.15c0-.24-.92-2.06-1.12-2.38-1.59-2.66-4.22-4.27-7.33-4.47-4.88-.31-10.16.12-15.1,0-.17,0-.29-.03-.44-.11.76,4.72,4.02,7.71,8.27,9.48,1.85.77,3.85,1.21,5.68,1.92.97.38,1.25.98,1.76,1.84s1.08,1.95,1.54,2.86c.43.87,1.03,1.82,1.05,2.8.51-.16,1.28.25,1.77.48,1,.46,4.76,2.39,5.32,3.08.46.57,1.35,3.9,1.71,4.89.59,1.58,1.17,3.08,2.1,4.5,1.83,2.81,4.57,4.71,7.9,5.3,0-.24-.1-.46-.11-.69-.18-4.96.36-10.32,0-15.21-.21-2.97-2.01-5.59-4.54-7.06-.33-.19-2.17-1.08-2.42-1.08h-6.05ZM92.01,86.6v6.15h-6.05c-.24,0-1.89.8-2.22.98-2.7,1.5-4.53,4.13-4.74,7.26-.33,4.92.19,10.23,0,15.21,0,.2-.24.68.03.63.51-.1,1.12-.31,1.62-.48,4.68-1.67,6.61-4.91,8.25-9.35.37-.99,1.25-4.32,1.71-4.89.56-.7,4.32-2.62,5.32-3.08.49-.23,1.26-.64,1.77-.48.02-.98.61-1.94,1.05-2.8.46-.91,1.02-2,1.54-2.86s.79-1.46,1.76-1.84c1.83-.71,3.83-1.15,5.68-1.92,4.25-1.76,7.51-4.76,8.27-9.48-.15.07-.27.1-.44.11-4.94.12-10.23-.32-15.1,0-3.11.2-5.74,1.81-7.33,4.47-.28.46-1.04,1.92-1.12,2.38ZM39.41,84.55c1.61-.73,3.1-2.17,3.8-3.8-1.62.83-2.97,2.18-3.8,3.8ZM83.81,84.55c-.83-1.62-2.18-2.97-3.8-3.8.7,1.63,2.19,3.07,3.8,3.8ZM57.71,116.7v-24.1c-.52-.36-1.36-.06-1.95-.05-.9.02-1.81-.09-2.7.1h-4.25c.76,1.12,1.35,2.31,1.73,3.62,1.05,3.63.17,7.97.47,11.73.17,2.22,1.69,1.37,3.04,2.16,1.18.69.18,1.69-.49,2.28-2.02,1.81-4.66,3.23-6.85,4.85.09.15.21.12.34.16,1.73.49,5.2.66,6.99.48,1.24-.13,2.66-.47,3.66-1.24ZM65.51,92.6v24.1c2.25,1.55,5.52,1.41,8.15,1.15.7-.07,1.86-.21,2.51-.39.13-.04.25-.01.34-.16-2.19-1.62-4.82-3.04-6.85-4.85-.66-.59-1.67-1.59-.49-2.28,1.35-.79,2.86.06,3.04-2.16.29-3.67-.55-7.96.4-11.5.38-1.41.98-2.65,1.79-3.86-2.33.02-4.64-.04-6.95-.1-.33,0-1.84-.31-1.95.05Z"/>
  <path fill="#FFFFFF" d="M104.48,15.28c4.04-.53,4.47,5.65.57,5.88-3.48.2-4.39-5.38-.57-5.88Z"/>
  <path fill="#FFFFFF" d="M17.88,15.28c1.22-.19,2.59.52,3.11,1.64,1.31,2.8-2.38,5.74-4.74,3.34-1.68-1.71-.73-4.61,1.62-4.97Z"/>
  <path fill="#FFFFFF" d="M110.58,9.08c3.86-.56,4.72,5,1.15,5.75-3.85.8-4.92-5.2-1.15-5.75Z"/>
  <path fill="#FFFFFF" d="M11.68,9.08c3.84-.52,4.52,4.97,1.05,5.75-3.87.87-4.97-5.22-1.05-5.75Z"/>
  <path fill="#FFFFFF" d="M17.78,102.88c4.1-.65,4.73,5.74.65,5.85-3.7.1-4.01-5.32-.65-5.85Z"/>
  <path fill="#FFFFFF" d="M11.68,109.08c3.46-.47,4.71,4.69,1.32,5.72-4.07,1.24-5.33-5.17-1.32-5.72Z"/>
  <path fill="#FFFFFF" d="M104.38,102.88c4.11-.65,4.7,5.74.55,5.85-3.64.1-3.92-5.32-.55-5.85Z"/>
  <path fill="#FFFFFF" d="M110.78,109.08c3.1-.4,4.6,4.09,1.63,5.53-4.19,2.03-6.04-4.95-1.63-5.53Z"/>
</svg>