<?xml version="1.0" encoding="UTF-8"?>
<svg id="Layer_1" data-name="Layer 1" xmlns="http://www.w3.org/2000/svg" viewBox="0 0 120.52 122.3">
  <path fill="#FFFFFF" d="M31.22,0c.66.33.53.99.85,1.5.34.53,1.17,1.12,1.52,1.71h22.88c1.59.16,2.89.88,3.8,2.2.89-1.29,2.15-2,3.7-2.2h22.8c.12,0,.18-.09.26-.15.1-.06,1.32-1.38,1.4-1.5.32-.5.23-1.22.9-1.55h1.4c.63.32.53.99.85,1.5s1.07,1.04,1.39,1.61l.21.09h22.6s1.33.22,1.33.22l.22,1.23v22.6c.01.14.07.25.15.35.14.17,1.35,1.22,1.55,1.35.5.32,1.17.22,1.5.85v1.4c-.22.63-.8.55-1.27.78-.21.1-1.68,1.35-1.79,1.51-.05.08-.14.14-.14.26v22.7c-.17,2.48-1.8,3.89-4,4.7,2.25.72,3.83,2.24,4.01,4.7v22.6c.02.16.09.29.19.41.16.19,1.33,1.21,1.55,1.35.48.31,1.14.15,1.45.8v1.5c-.29.56-.83.47-1.27.68-.24.11-1.49,1.19-1.68,1.42-.12.14-.23.27-.24.46v22.7s-.26,1.05-.26,1.05l-1.5.3h-22.4c-.22.04-.36.25-.5.39-.25.26-1.05,1.14-1.19,1.41-.3.56-.12,1.17-.96,1.39h-1.1c-.79-.25-.61-.96-.95-1.5s-1.06-1.03-1.39-1.61l-.21-.09h-22.6c-1.59-.18-3.19-.85-4-2.3-.83,1.48-2.47,2.16-4.1,2.3h-22.5c-.11,0-.18.08-.26.14-.14.12-1.23,1.38-1.34,1.56-.34.55-.17,1.24-.95,1.5h-1.1c-.82-.23-.71-.9-1.05-1.5-.13-.22-1.09-1.34-1.29-1.51-.1-.08-.16-.19-.31-.19H4.97c-1.25-.21-1.64.09-1.75-1.35v-22.59c-.04-.22-.1-.39-.24-.56-.12-.16-1.38-1.24-1.56-1.34-.43-.24-1.18-.2-1.35-.75-.08-.26-.08-1.06-.04-1.35.13-.81.96-.66,1.45-.95.1-.06,1.53-1.32,1.59-1.41.09-.13.12-.3.15-.45l.04-22.96c.31-2.11,1.96-3.68,3.97-4.18l-1.93-1.02c-1.27-.87-1.95-2.19-2.07-3.73v-22.5c-.02-.13-.06-.26-.12-.39-.08-.17-1.53-1.45-1.74-1.56-.39-.21-1.05-.15-1.26-.64-.11-.27-.12-1.11-.07-1.42.12-.79,1.01-.69,1.55-1.05.49-.34.97-.97,1.49-1.31l.14-.56V4.65s.21-1.18.21-1.18l1.25-.27h22.7s.21-.09.21-.09c.31-.58,1.06-1.1,1.39-1.61s.19-1.16.85-1.5h1.4ZM16.12,22.65v-6.55h6.35c.79,0,2.9.77,3.65,1.15.16.08,1.24.81,1.3.75-.02-2.19.04-4.37.1-6.55.02-.71.43-1.06-.33-1.56-.82-.55-2.07-.47-3.01-.69h-14.95s0,15.16,0,15.16c.17.86.15,1.77.52,2.58.18.4.28.61.74.66,1.28.14,3.17-.22,4.5-.2h3.05c-.84-1.34-1.74-3.15-1.9-4.75ZM55.72,20c.38-2.78.98-6.04,0-8.75-.5-1.4-1.39-1.94-2.85-2.05-5.24.26-10.8-.33-16.01,0-.67.04-3.21.36-3.43,1.08l.18,7.73c.08.09,1.31-.76,1.49-.85,3.71-1.83,8.08-.73,12.06-1.04.29-.02.99-.13,1.2-.3.92-.74.42-4.81,2.94-1.95,1.66,1.89,2.87,4.16,4.4,6.15ZM86.82,18l.1-4.45.2-3.09c-.06-.92-2.72-1.21-3.44-1.26-5.24-.33-10.83.26-16.1,0-1.75.15-2.47.95-2.92,2.58-.72,2.61-.21,5.59.17,8.22,1.48-1.97,2.7-4.17,4.3-6.05.44-.52.97-1.33,1.77-.98s.56,2.64,1.52,2.98c.2.07.72.13.95.15,4.01.29,8.4-.79,12.12,1.08.46.23.87.59,1.33.82ZM97.97,16.1h6.45v6.55c0,.55-.6,2.27-.85,2.85l-1.05,1.9c1.99,0,3.96.05,5.95.1.53.01,1.42.28,1.9,0,.69-.39.81-2.41.95-3.15v-15.15s-15.06,0-15.06,0c-.79.17-3.21.23-3.35,1.25-.06.44.1.81.11,1.2.02.94.07,1.88.1,2.8.03,1.18-.03,2.37,0,3.55.06.06,1.13-.67,1.3-.75.87-.44,2.6-1.05,3.55-1.15ZM81.22,39.3c-1.15.04-2.34-.52-3.4-.95-8.01-3.31-12.32-7.56-15.75-15.55l-1.85-5c-1.92,6.46-5.37,13.39-11.11,17.24-1.92,1.29-4.73,2.66-6.89,3.51-.95.37-1.97.83-3,.75.26.63-.11,1.41-.33,2.02-3.42,9.89-9.59,15.04-19.32,18.38l-5.15,1.5c5.72,1.16,11.78,3.61,16.35,7.3,3.72,3.01,6.47,7.76,8.05,12.25.24.67.65,1.56.4,2.25.84-.18,1.74.23,2.52.53,8.69,3.22,13.55,8.12,17.02,16.68.53,1.31.88,2.72,1.4,4,.04.1.01.23.15.2,2.1-6.9,5.73-14.04,12.13-17.82,1.71-1.01,3.92-2.09,5.77-2.83.96-.38,2.07-.93,3.1-.75-.25-.54.02-1.21.2-1.75,1.44-4.52,4.59-9.82,8.31-12.79,4.6-3.67,10.55-6.11,16.29-7.26.03-.15-.11-.1-.22-.13-.84-.23-1.72-.37-2.58-.62-5.89-1.68-12.78-4.98-16.7-9.8-1.56-1.91-2.86-4.46-3.89-6.71-.65-1.43-1.45-3.05-1.51-4.64ZM33.72,28.35v5.45c-1.66.2-3.64-.31-5.24-.09-1.15.16-3.35,1.59-4.16,2.44-1.07,1.12-2.2,3.34-2.2,4.9v14.15c1.22-.26,2.42-.73,3.5-1.35,4.31-2.48,5.27-7.43,6.85-11.75.49-.62,3.48-2.14,4.34-2.56.58-.28,1.39-.77,2-.65-.03-.44.16-.84.31-1.24.35-.87,2.26-4.54,2.84-5.06.52-.47,2.78-1,3.6-1.3,4.78-1.73,8.53-3.78,9.65-9.2h-13.55c-3.25-.22-7.45,3.06-7.95,6.25ZM86.82,33.8v-5.45c0-.29-.9-2.03-1.12-2.38-1.6-2.55-3.95-3.72-6.93-3.87l-13.46.06c1.12,5.21,4.69,7.37,9.35,9.05.83.3,3.27.89,3.79,1.31.32.26.66.86.88,1.22.47.77,2.27,4.05,2.37,4.74.02.18-.01.27-.08.42.52-.15,1.16.19,1.64.41.92.43,4.14,2.07,4.7,2.7.45.51.88,2.47,1.16,3.24.86,2.42,1.75,4.86,3.5,6.8,1.47,1.63,3.67,2.68,5.8,3.15v-13.75c-.22-3.46-2.15-6.06-5.33-7.36-.34-.14-.75-.34-1.12-.38-.74-.08-4.97.28-5.15.1ZM26.42,26.4c-.73-1.47-1.94-2.66-3.4-3.4.67,1.44,1.96,2.74,3.4,3.4ZM97.42,23.1c-1.44.64-2.6,1.9-3.3,3.3.31.26,3.41-2.56,3.3-3.3ZM18.02,33.7l-7.75-.2c-.15,0-.21.1-.3.2-.47.57-.71,2.29-.76,3.04-.33,5.34.25,11.02,0,16.4.17,3.32,4.94,3.23,7.35,3.05,1.12-.08,2.25-.33,3.35-.5-1.4-1.11-2.99-2.04-4.43-3.12-.5-.37-2.17-1.56-2.41-1.99-.94-1.67,1.77-1.51,2.54-2.05.4-.28.48-1.13.51-1.59.26-3.76-.69-7.92.85-11.45.28-.64.67-1.22,1.05-1.8ZM100.52,55.7c2.55.41,5.46.88,8,.25,1.77-.43,2.66-1.09,2.8-3-.26-5.31.34-10.93,0-16.21-.04-.59-.37-2.94-.9-3.2l-7.9.15c.24.49.61.91.85,1.39,1.81,3.65.76,8.03,1.04,11.96.03.37.12,1.08.35,1.35.54.63,2.46.48,2.78,1.22.45,1.04-.99,1.68-1.58,2.27l-5.45,3.8ZM19.92,66.7c-.02-.15-.15-.15-.26-.19-.65-.2-1.98-.34-2.69-.41-2.56-.23-7.63-.44-7.75,3.15.26,5.34-.34,11,0,16.31.04.59.36,2.94.93,3.18l7.88-.13c-.42-.7-.87-1.41-1.18-2.17-1.35-3.4-.47-7.48-.72-11.08-.02-.29-.09-.87-.17-1.13-.39-1.25-3.15-.53-3.04-2.06.04-.58.98-1.23,1.42-1.59,1.71-1.41,3.72-2.66,5.59-3.86ZM102.52,88.6l7.65.2c.82-.16,1.11-2.55,1.16-3.24.35-5.33-.27-11.04,0-16.4-.16-1.5-.82-2.22-2.22-2.68-2.15-.7-4.9-.51-7.11-.15-.2.03-1.37.18-1.36.33,1.87,1.33,3.88,2.49,5.64,3.95.67.56,2.16,1.59.89,2.38-.68.43-2.35.35-2.58,1.21-.07.26-.13.77-.15,1.05-.24,3.5.6,7.57-.62,10.88-.32.88-.78,1.69-1.27,2.47ZM22.12,67.1v14.15c0,2.23,1.81,4.8,3.59,6.01.32.22,2.22,1.24,2.46,1.24h5.55v5.45c0,.2.88,1.95,1.06,2.24,1.27,2.1,3.52,3.67,6,3.9,4.34.4,9.35-.16,13.79,0,.23,0,.42.1.65.1-1.03-5.2-4.61-7.43-9.25-9.1-.91-.33-3.23-.88-3.85-1.35s-1.35-2.01-1.75-2.75c-.44-.81-1.08-1.96-1.4-2.8-.1-.27-.18-.5-.15-.8-.87,0-1.73-.56-2.5-.95-.84-.42-3.47-1.73-3.9-2.4-1.5-4.29-2.58-9.24-6.83-11.67-1.04-.59-2.28-1.11-3.47-1.28ZM86.82,93.95v-5.45h5.55c.06,0,1.02-.44,1.19-.51,2.84-1.31,4.71-3.98,4.87-7.13v-13.75c-3.55.63-6.19,2.91-7.79,6.06-1.06,2.09-1.46,4.39-2.34,6.46-.49,1.15-3.1,2.35-4.27,2.93-.75.37-1.54.88-2.4.85.17.31-.03.68-.15,1-.28.73-.82,1.69-1.2,2.4s-1.32,2.63-1.96,3.04c-4.4,1.52-9.44,2.64-11.81,7.09-.47.89-.97,2.15-1.17,3.13-.05.27.44.04.63.03,4.43-.17,9.24.33,13.61,0,2.62-.19,4.96-1.8,6.26-4.04.23-.39.92-1.74.98-2.12ZM9.22,113h15.65c.36,0,1.62-.28,1.98-.42.24-.1.64-.32.73-.57l-.16-7.81c-3.3,2.52-7.4,1.97-11.3,2v-6.65c0-.47.63-2.34.85-2.85.28-.64.68-1.21,1.05-1.8l-7.9-.15c-.75.88-.72,2.11-.9,3.2v15.05ZM111.32,113v-15.05c-.2-1.08-.14-2.32-.9-3.2l-7.9.15c.7,1.04,1.21,2.08,1.55,3.3.09.31.35,1.2.35,1.45v6.55c-3.9-.04-8,.53-11.3-2l-.16,7.81c.08.25.49.48.73.57.36.15,1.62.42,1.98.42h15.65ZM23.02,99.2c1.47-.61,2.74-1.96,3.4-3.4-1.45.79-2.64,1.93-3.4,3.4ZM97.52,99.2c-.77-1.47-1.96-2.59-3.4-3.4.66,1.46,1.91,2.79,3.4,3.4ZM33.62,104.3c.04,2.26-.06,4.5-.1,6.75,0,.41-.29.83.1,1.19.51.47,2.14.71,2.84.76,5.5.35,11.37-.27,16.9,0,1.59-.22,2.13-1.15,2.52-2.58.71-2.61.22-5.49-.17-8.12-1.58,1.94-2.82,4.42-4.5,6.25-.73.79-1.59,1.37-2.1,0-.32-.84-.2-2.14-1.29-2.31-4.37-.37-9.05.81-13.07-1.33-.2-.1-1-.75-1.13-.62ZM72.05,106.53c-.36.36-.46,1.85-.78,2.37-.78,1.24-1.85-.26-2.39-.91-1.48-1.8-2.65-3.84-4.06-5.69-.42,2.75-.97,6.07,0,8.75.43,1.19,1.17,1.82,2.45,1.95,5.51-.27,11.34.35,16.81,0,.66-.04,2.83-.33,3.03-1.08l-.29-7.63c-.05-.06-1.14.67-1.3.75-4.06,2.06-8.34.67-12.55,1.15-.21.02-.79.2-.92.33Z"/>
  <path fill="#FFFFFF" d="M75,42.72c1.03-.12,2.2.57,2.64,1.51,1.3,2.74-2.29,5.08-4.32,2.82-1.4-1.56-.34-4.09,1.68-4.33Z"/>
  <path fill="#FFFFFF" d="M73.46,78.76c-2.51-2.51,1.38-6.19,3.77-3.62,2.25,2.43-1.4,5.98-3.77,3.62Z"/>
  <path fill="#FFFFFF" d="M45,42.72c2.27-.27,3.78,2.63,2.18,4.38-1.78,1.94-5.04.33-4.48-2.28.22-1.04,1.25-1.97,2.31-2.1Z"/>
  <path fill="#FFFFFF" d="M69.2,48.32c2.48-.42,4.18,2.53,2.47,4.37-1.99,2.13-5.52-.19-4.29-2.89.29-.64,1.12-1.36,1.82-1.48Z"/>
  <path fill="#FFFFFF" d="M44.8,74.33c2.79-.4,4.24,3.15,1.82,4.82-1.76,1.21-4.13-.44-3.99-2.49.07-1.09,1.1-2.17,2.18-2.33Z"/>
  <path fill="#FFFFFF" d="M50.3,48.32c3.55-.61,4.27,4.72.87,5.17s-3.93-4.64-.87-5.17Z"/>
  <path fill="#FFFFFF" d="M50.2,68.82c2.98-.48,4.44,3.13,1.96,4.76-2.27,1.49-4.98-1.29-3.6-3.6.32-.54,1.01-1.06,1.64-1.16Z"/>
  <path fill="#FFFFFF" d="M69.2,68.82c4.6-.73,3.67,6.37-.27,5.02-2.55-.87-2.23-4.62.27-5.02Z"/>
</svg>