<?xml version="1.0" encoding="UTF-8"?>
<svg id="Layer_1" data-name="Layer 1" xmlns="http://www.w3.org/2000/svg" viewBox="0 0 119.31 117.36">
  <path fill="#FFFFFF" d="M119.31,17.62v3.5l-.31,3.34c-2.75,15.92-10.5,34.72-24.74,43.56-3.95,2.45-9.64,5.24-14.03,6.77-1.08.38-4.32,1.57-4.53-.32-.13-1.16,1.56-4.1,2.15-5.25.78-1.52,3.07-6.2,4.35-6.95,6.34-2.23,12.99-3.76,18.25-8.15,3.52-2.93,5.8-7.33,6.65-11.8-.35.09-.79.19-1.14.2-8.45.44-17.37-.49-25.81,0-6.41.36-11.5,4.66-13.79,10.51-1,2.56-.47,5.71-.45,8.44.06,8.48.08,17.15-.21,25.6-.08,2.3.05,3.33-.88,5.52-.63,1.49-2.32,3.78-2.67,5.13s.72,3.36-1.31,3.59c-.55.06-.92-.18-1.17-.16-.21.01-.46.18-.82.18-.47,0-1.28-.14-1.47-.63-.27-.89,0-2.24-.22-3.08-.27-1.04-1.71-3.06-2.24-4.16-1.61-3.31-1.24-5.26-1.31-8.79-.2-10.02-.07-20.07-.1-30.1-1.81-6.52-7.34-11.65-14.25-12.05-8.46-.49-17.43.46-25.91,0-.35-.02-.8-.11-1.14-.2.93,4.38,3.02,8.57,6.4,11.55s7.22,4.5,11.25,5.95c2.14.77,4.96,1.39,6.93,2.27.86.39,1.51,1.31,2,2.1,1.42,2.28,3.41,5.99,4.44,8.46.43,1.04.97,2.63-.68,2.86-1.94.27-7.51-2.38-9.48-3.31-6.86-3.22-12.66-6.64-17.56-12.54C7.54,50.08.26,32.79.11,20.27c0-.17.06-.44-.1-.55.02-.43-.02-.87,0-1.3C.33,12.62,3.6,6.3,10.15,6.12h43.4c.29-.03.47-.25.66-.44.45-.45,2.37-2.57,2.6-3,.61-1.17.28-2.62,2.15-2.66.45,0,1.39-.04,1.79.02,1.4.19,1.39,1.74,1.86,2.74l2.81,3.19.35.15h43.5c5.57.37,8.47,4.34,9.7,9.41l.35,2.1ZM53.61,34.62c.05-.18.09-.35.11-.55.18-2.61.01-5.55.09-8.21.05-1.7.17-3.39.2-5.1,0-.54.29-.74-.1-1.3-.94-1.36-4.26-1.47-5.75-1.75H16.06c-3.12.35-4.31,1.97-5.1,4.8-1,3.57-.85,7.38-.44,11.04.18,1.63.52,3.25.79,4.86,2.63-3.66,4.98-7.53,7.8-11.05.65-.81,1.8-2.46,2.85-2.55,2.76-.26,1.91,4.33,3.4,5.5.53.41,1.63.56,2.3.6,7.84.5,16.6-1.53,23.76,2.34.76.41,1.43.96,2.2,1.35ZM107.91,38.42c.15-.02.15-.15.19-.26.47-1.52.78-4.55.91-6.19.36-4.58.61-13.88-5.75-14.25h-32.01c-1.69.3-3.68.3-5.18,1.22-1.05.65-.8,1.27-.77,2.43.03,1.05.12,2.14.21,3.19l.2,10.15c1.59-1.18,3.34-2.1,5.22-2.73,6.3-2.11,14.09-.65,20.73-1.07.63-.04,1.92-.2,2.4-.6,1.38-1.16.7-6.72,3.92-5.32.75.33,1.92,1.94,2.47,2.63,2.72,3.42,5.09,7.13,7.46,10.79Z"/>
  <path fill="#FFFFFF" d="M60.51,117.32c-.38.05-1.32.05-1.7,0-3.92-.5-5.76-5.57-3-8.45,3.23-3.37,9.45-1.09,9.09,3.79-.17,2.24-2.14,4.39-4.39,4.66Z"/>
  <path fill="#FFFFFF" d="M26.88,82.55c3.95-.5,6.64,2.42,5.7,6.3s-6.06,4.68-8.57,1.83-.95-7.64,2.88-8.13Z"/>
  <path fill="#FFFFFF" d="M90.59,82.55c3.61-.43,6.57,2.06,5.9,5.8-.78,4.28-6.69,5.52-9.06,1.91-1.88-2.87-.44-7.27,3.16-7.7Z"/>
  <path fill="#FFFFFF" d="M91.09,97.55c6.81-.52,7.27,9.29,1.07,9.87-6.89.64-7.48-9.38-1.07-9.87Z"/>
  <path fill="#FFFFFF" d="M27.49,97.55c6.62-.44,6.99,9.31.97,9.87-6.96.65-7.68-9.42-.97-9.87Z"/>
</svg>