<?xml version="1.0" encoding="UTF-8"?>
<svg id="Layer_1" data-name="Layer 1" xmlns="http://www.w3.org/2000/svg" viewBox="0 0 100.2 144.31">
  <path fill="#FFFFFF" d="M0,71.9c1.03-2.52,2.18-5,3.66-7.29.49-.75,1.38-2.54,2.46-2.08.86.37,2.14,1.75,3.05,2.26.08.05.16.12.27.1l5.77-4.73c1.44-1.25-.26-2.64-1.03-3.78-5.19-7.72-9.35-16.42-9.58-25.92-.08-3.27.43-6.56.41-9.8,0-2.26-1.6-5.01-2.64-6.97-.22-.74.11-1.17.88-1.19,4.27.28,8.99-.36,13.21,0,1.63.14,2.19,1.08,2.99,2.31,1.15,1.77,2.73,4.48,3.48,6.42.42,1.08.94,2.19-.67,2.37-1.79.2-4.84-.46-6.3.7-3.82,3.02-2.7,11.52-1.82,15.72s2.61,8.74,4.48,12.62c.69,1.42,1.26,3.52,3.24,2.26,6.86-6.45,14.23-12.34,20.75-19.15-1.22-1.27-2.45-2.55-3.65-3.85-2.62-2.85-5.39-5.76-7.9-8.7-.51-.6-1.83-2.02-2-2.7-.31-1.19,1.02-3.88,1.54-5.07.61-1.41,1.62-4,2.4-5.2.36-.55.73-.86,1.37-.53.71.36,3.22,3.87,3.95,4.75,3.77,4.57,7.69,9.03,11.75,13.35,4.02-4.2,7.85-8.58,11.55-13.05,1.14-1.38,2.51-3.51,3.7-4.7,1.51-1.5,2.2.9,2.72,1.98.94,1.95,2.07,4.32,2.76,6.34.51,1.51.64,1.88-.34,3.21-.51.7-1.21,1.44-1.79,2.11-2.61,3.03-5.4,5.95-8.1,8.9-.36.4-2.98,3.02-2.94,3.23,2.65,2.65,5.32,5.29,8.09,7.82,2.95,2.69,6.03,5.24,9,7.9,1.08.96,2.2,2.22,3.3,3.1,2.06,1.67,2.6-.1,3.39-1.72,1.9-3.89,3.67-8.48,4.58-12.72s2.04-12.44-1.57-15.77c-1.47-1.36-4.69-.64-6.55-.85-.76-.09-1.15-.43-1.03-1.23.25-1.57,3.13-6.5,4.13-7.97.77-1.12,1.33-1.8,2.79-1.91,4.26-.32,8.91.25,13.21,0l.72.23c.17.18.16.77.1,1-.1.38-1.01,1.79-1.26,2.34-1.99,4.31-1.13,6.59-1.01,11.08.29,10.41-2.82,19.06-8.46,27.65-.72,1.1-1.9,2.43-2.49,3.51s.11,1.56.84,2.25c.79.74,1.8,1.55,2.65,2.25s1.76,1.38,2.65,2.07h.2s3.18-2.34,3.18-2.34c.14-.07.28-.13.45-.11.71.09,1.78,1.91,2.17,2.53,1.41,2.23,2.48,4.63,3.5,7.05v.8c-1.03,2.47-2.12,4.93-3.56,7.19-.48.76-1.5,2.71-2.55,2.36l-3.35-2.43-5.65,4.62c-.71.75-1.03,1.1-.48,2.08.68,1.21,1.92,2.63,2.72,3.88,5.48,8.46,8.43,16.95,8.16,27.15-.11,4.03-.94,6.64.75,10.54.33.77,1.33,2.28,1.5,2.9.18.66.07,1.21-.7,1.21-4.38-.31-9.29.39-13.61,0-1.13-.1-1.75-.79-2.35-1.65-.95-1.35-4.22-7.01-4.3-8.41-.05-.84.66-.98,1.36-1.05,3.38-.32,5.4,1.09,7.47-2.43,2.74-4.7.53-14.59-1.19-19.54-.82-2.35-2.5-6.91-3.81-8.89-.55-.83-1.44-1.02-2.27-.43-1.26.88-2.83,2.66-4.05,3.75-5.66,5.04-11.49,9.88-16.69,15.41,3.51,3.97,7.26,7.74,10.74,11.73.66.76,2.4,2.58,2.7,3.4.37,1.04-.4,2.58-.8,3.59-.71,1.78-2.14,5.38-3.13,6.87-.6.91-1.18.74-1.87.03-1.29-1.33-2.62-3.36-3.85-4.85-3.62-4.36-7.37-8.62-11.26-12.75-.13-.03-1.21,1.1-1.39,1.29-3.53,3.66-6.99,7.83-10.25,11.75-1.13,1.36-2.28,3.1-3.45,4.35-.5.53-1.1,1.17-1.79.49-.4-.4-1.18-2.29-1.48-2.92-.79-1.69-1.75-3.69-2.36-5.44-.38-1.09-.73-1.82-.07-2.92,4.2-5.07,8.79-9.81,13.24-14.66-3.32-3.31-6.71-6.57-10.2-9.7-1.97-1.77-4.03-3.44-6-5.2-1.39-1.24-2.93-2.95-4.35-4.05-.82-.63-1.83-.84-2.47.13-.71,1.08-1.56,3.24-2.1,4.5-1.76,4.13-3.26,8.46-3.87,12.93-.52,3.8-.92,9.8,2.09,12.69,1.43,1.37,4.39.69,6.25.85,2.13.19,1.37,1.48.77,2.87-.67,1.56-3.44,6.78-4.63,7.67-.51.38-.9.52-1.54.56-4.36.32-9.11-.26-13.51,0-.64.04-.81-.49-.73-1.03,1-2.03,2.62-4.61,2.68-6.93.09-3.31-.49-6.67-.41-10,.27-10.41,5.27-19.96,11.18-28.22.19-.8-.55-1.38-1.08-1.88-1.64-1.54-3.59-2.92-5.35-4.33l-3.28,2.4c-.67.32-1.18-.32-1.56-.79-1.29-1.6-2.75-4.49-3.6-6.4-.32-.71-.51-1.49-.91-2.14v-1.1ZM50,98.8c1.8-2.55,2.51-5.81,2.98-8.87.82-5.39.73-9.86-1.47-14.9-.37-.84-.98-1.52-1.02-2.48-.06-1.15,1.23-3.11,1.68-4.33,1.69-4.57,1.49-9.31.69-14.04-.47-2.78-1.18-5.75-2.82-8.08-1.75,2.69-2.46,5.92-2.93,9.06-.64,4.31-.69,8.81.81,12.96.54,1.49,1.83,3.18,1.68,4.73-.07.7-.7,1.54-.99,2.21-2.14,4.92-2.27,9.39-1.48,14.66.48,3.21,1.23,6.26,2.87,9.08ZM39.2,90.5c-2.09-5.04-3.8-10.09-3.5-15.65.04-.74.3-1.71.3-2.4s-.26-1.66-.3-2.4c-.14-2.68.15-5.48.83-8.07s1.68-5.17,2.67-7.68c-6.59,6.26-13.36,12.32-20.3,18.2.09,0,.18.04.25.1,4.16,3.54,8.32,7.07,12.35,10.75,2.59,2.36,5.07,4.85,7.7,7.15ZM60.9,90.6c6.59-6.24,13.29-12.38,20.3-18.15-5.64-4.78-11.19-9.66-16.6-14.7-1.2-1.12-2.32-2.34-3.6-3.35,1.41,3.85,3.18,8,3.4,12.15.11,2.09-.27,4.22-.21,6.21.05,1.83.31,3.6.21,5.5-.22,4.2-2.01,8.48-3.5,12.35Z"/>
  <path fill="#FFFFFF" d="M52.1,144.3c-.66,0-1.34,0-2,0-4.2-.02-8.95-.11-13.15-.4-1.13-.08-2.18-.38-2.33-1.67-.09-.77-.1-2.62-.01-3.39.1-.93.73-1.56,1.65-1.65,2.35-.24,5.1-.12,7.5-.2,5.73-.18,10.97-.13,16.69.1,1.68.07,3.67-.07,5.3.1.46.05,1.08.24,1.34.66.42.71.39,3.11.32,3.99-.12,1.47-.85,1.93-2.26,2.04-4.09.34-8.94.38-13.05.4Z"/>
  <path fill="#FFFFFF" d="M46.28.03l8.87-.03,10.87.43c.62.17,1.05.41,1.25,1.05.22.72.21,3.14.08,3.93-.24,1.53-1.38,1.61-2.7,1.7-1.54.1-3.16.04-4.71.09-7.46.25-15.15.36-22.6-.09-1.28-.08-2.59-.21-2.74-1.76-.08-.77-.09-2.64,0-3.39.11-.79.74-1.47,1.54-1.56,3.25-.36,6.85-.01,10.13-.37Z"/>
  <path fill="#FFFFFF" d="M74.96,75.97c-1.33,1.31-3.73,1.35-5.49,1.11s-3.21-1.95-3.37-3.73c-.45-4.85,1.8-6.88,6.62-6.22,3.87.52,4.58,6.55,2.24,8.84Z"/>
  <path fill="#FFFFFF" d="M28.08,67.13c2.65-.32,6.16.15,6.52,3.42.29,2.66-.14,6.22-3.45,6.55-5.04.5-7.05-1.34-6.55-6.45.17-1.74,1.74-3.32,3.48-3.52Z"/>
</svg>