<?xml version="1.0" encoding="UTF-8"?>
<svg id="Layer_2" data-name="Layer 2" xmlns="http://www.w3.org/2000/svg" viewBox="0 0 32.4 6.79">
  <g id="Layer_1-2" data-name="Layer 1">
    <g>
      <path d="M32.13.28s-.03-.04-.03-.04c0,0-.03.01-.06.05-.08.1-.16.2-.23.31-.08.11-.15.21-.23.32-.08.11-.08.15-.08.16,0,.02,0,.04.03.09.02.05.05.12.08.19.08.19.15.42.2.67.05.25.08.47.08.65,0,.12-.02.22-.05.31-.03.09-.1.17-.19.24-.08.06-.18.13-.29.2-.08.05-.17.1-.26.16l-.1.06s-.09.04-.13.04c-.06,0-.12-.04-.13-.14-.08-.32-.17-.67-.26-1.05-.09-.38-.2-.76-.31-1.14-.12-.38-.25-.74-.41-1.07,0-.02-.02-.03-.03-.05,0,0-.04.02-.11.11-.08.09-.16.2-.25.32-.09.12-.15.21-.19.27-.06.09-.07.12-.07.13,0,0,.01.03.06.1.19.28.36.59.51.93.14.33.26.66.36.95.09.29.17.55.22.75.01.03.02.07.02.11,0,.07-.03.12-.09.16-.16.08-.29.14-.4.19l-.24.12s-.05.03-.06.05c-.02.03-.04.05-.05.07-.04.07-.08.18-.14.29-.05.12-.1.23-.14.34-.05.13-.06.18-.06.2,0,0,.07,0,.28-.1.34-.15.67-.31.97-.48.3-.17.56-.33.78-.46.19-.12.34-.22.41-.27.23-.17.4-.38.51-.64.1-.24.19-.49.25-.72.06-.23.1-.42.11-.55,0-.05.01-.1.02-.17,0-.09.01-.17.01-.26,0-.18-.03-.4-.08-.66-.05-.25-.11-.5-.19-.73"/>
      <path d="M23.16,1.36h1.7c.15,0,.21.09.21.18,0,.11-.06.26-.18.44l-.34.54c-.17.26-.33.52-.49.77-.16.25-.27.46-.35.66-.04.11-.07.23-.1.37-.03.15-.04.32-.04.5,0,.02,0,.03,0,.03v-.02s.03-.02.04-.03c.11-.08.23-.18.35-.31.13-.12.25-.24.35-.36.02-.02.04-.05.05-.09.01-.05.02-.09.02-.13,0-.07.02-.14.05-.23.02-.09.05-.17.08-.25.07-.18.17-.4.31-.64.13-.23.26-.43.38-.6.09-.12.19-.26.31-.43.13-.17.23-.34.32-.49.06-.12.12-.24.18-.38.06-.15.07-.22.07-.26,0-.02,0-.05-.02-.07,0,0-.02-.02-.09-.02h-1.85c-.13,0-.21-.02-.26-.08-.04-.04-.08-.11-.12-.22v-.02h0s-.04.02-.06.05c-.04.06-.09.14-.16.25-.06.1-.13.22-.2.33-.07.12-.12.23-.17.32-.01.03-.02.06-.04.09,0,.03-.01.04-.02.05,0,0,0,.03.08.03"/>
      <path d="M17.78,1.98c0-.1.02-.19.03-.28.03-.2.1-.38.21-.52.11-.16.28-.24.49-.24.31,0,.55.1.72.29.16.18.27.42.33.7.06.28.09.57.09.87s-.02.52-.07.7c-.05.18-.11.31-.19.4-.08.09-.17.14-.27.17-.09.02-.17.03-.25.03-.35,0-.63-.13-.83-.39-.19-.25-.29-.67-.29-1.27,0-.22,0-.37.01-.47M17.91,4.55c.22.16.46.23.73.23.2,0,.39-.05.55-.14.17-.09.31-.22.44-.36.13-.15.23-.31.32-.48.09-.17.15-.33.19-.48.03-.11.05-.24.07-.38.02-.14.03-.28.03-.42,0-.26-.03-.52-.08-.79-.05-.27-.14-.52-.26-.74-.12-.22-.28-.4-.48-.53-.2-.13-.44-.2-.74-.2-.23,0-.43.06-.61.19-.18.13-.34.3-.48.52-.13.22-.24.47-.31.74-.07.27-.11.55-.11.83,0,.52.07.95.2,1.29.13.33.31.57.53.73"/>
      <path d="M11.86,1.98c0-.1.02-.19.03-.28.03-.2.1-.38.21-.52.11-.16.28-.24.49-.24.31,0,.55.1.72.29.16.18.27.42.33.7.06.28.09.57.09.87s-.02.52-.07.7c-.05.18-.11.31-.19.4-.08.09-.17.14-.27.17-.09.02-.17.03-.25.03-.35,0-.63-.13-.83-.39-.19-.25-.29-.67-.29-1.27,0-.22,0-.37.01-.47M11.99,4.55c.22.16.46.23.73.23.2,0,.39-.05.55-.14.17-.09.31-.22.44-.36.13-.15.24-.31.32-.48.09-.17.15-.33.19-.48.03-.11.05-.24.07-.38.02-.14.03-.28.03-.42,0-.26-.03-.52-.08-.79-.05-.27-.14-.52-.26-.74-.12-.22-.28-.4-.48-.53-.2-.13-.44-.2-.74-.2-.23,0-.43.06-.61.19-.18.13-.34.3-.48.52-.13.22-.24.47-.31.74-.07.27-.11.55-.11.83,0,.52.07.95.2,1.29.13.33.31.57.53.73"/>
      <path d="M7.87,2.99s.06-.02.09-.05c.05-.05.1-.1.15-.17.04-.06.09-.13.13-.21.04-.08.09-.17.13-.26.02-.06.02-.09.02-.09,0-.02,0-.04-.08-.04h-1.66c-.06,0-.11.03-.16.1-.07.09-.13.18-.2.28-.07.12-.12.2-.17.28-.06.11-.06.14-.06.14.02,0,.04.01.07.01h1.73Z"/>
      <path d="M31.95,6.57c0,.06.02.11.07.15.1.09.24.09.32,0,0,0,0,0,0,0,.04-.04.06-.09.06-.16s-.02-.12-.06-.16c-.04-.04-.09-.06-.15-.06s-.11.02-.16.07c-.05.04-.07.09-.07.16"/>
      <path d="M3.4,3.68c-.07.17-.13.3-.19.4-.08.12-.18.21-.29.26-.11.05-.24.07-.42.07h-.42c-.23,0-.4,0-.52-.03-.13-.02-.22-.06-.27-.11-.05-.05-.08-.12-.08-.19v-1.77s.04-.09.09-.09h.54c.23,0,.39.02.51.05.09.03.18.07.25.13.03-.03.07-.07.12-.14.05-.07.09-.14.13-.19l-.05-.05h-1.49s-.09-.04-.09-.09V.33c0-.05.04-.09.09-.09h1.33c.32,0,.38.45.4.69h.1c.02-.06.03-.13.05-.21.02-.12.04-.25.06-.38.01-.11.02-.2.03-.28l-.09-.07H0v.08c.16.04.28.07.36.12.08.04.18.1.18.19v3.88c0,.13-.16.22-.54.31v.08h3.36c.02-.07.04-.18.06-.36.03-.18.05-.38.07-.58l-.09-.03Z"/>
      <path d="M29.84,5.52v.17s0,.03.04.04c.08,0,.19.02.34.02.19,0,.35.02.51,0h0s.08,0,.12,0c.09,0,.17,0,.24,0,.07,0,.12-.01.16-.01.04,0,.06,0,.07,0,.01,0,.03,0,.03,0,.02,0,.02-.02.02-.04v-.17s0-.03-.04-.04c-.11,0-.22-.01-.33-.02h-.05c-.26-.02-.53-.02-.8,0-.14.01-.24.02-.3.02-.03,0-.04,0-.04,0h0s0,.01,0,.03"/>
      <path d="M32.16,5.4c-.06,0-.12.02-.16.06-.04.04-.07.09-.07.16s.02.11.07.16c.09.09.23.09.32,0,.04-.05.06-.1.06-.16s-.02-.12-.06-.16-.09-.06-.15-.06"/>
    </g>
  </g>
</svg>