<?xml version="1.0" encoding="UTF-8"?>
<svg id="Layer_2" data-name="Layer 2" xmlns="http://www.w3.org/2000/svg" viewBox="0 0 32.4 6.79">
  <g id="Layer_1-2" data-name="Layer 1">
    <g>
      <path d="M32.16,5.4c-.06,0-.12.02-.16.06-.05.04-.07.09-.07.16s.02.11.07.16c.1.09.23.09.32,0,.04-.04.06-.1.06-.16s-.02-.12-.06-.16c-.04-.04-.09-.06-.15-.06"/>
      <path d="M17.78,1.98c0-.1.02-.19.04-.28.03-.2.1-.37.2-.52.11-.16.28-.24.49-.24.31,0,.55.1.72.29.16.18.27.42.33.7.06.28.09.57.09.87s-.02.52-.07.7c-.05.18-.11.31-.19.4-.08.09-.17.14-.27.17-.09.02-.17.03-.25.03-.35,0-.63-.13-.82-.39-.19-.25-.29-.67-.29-1.27,0-.21,0-.36.01-.47M17.91,4.55c.22.16.46.23.73.23.21,0,.38-.04.55-.14.17-.09.31-.22.44-.36.13-.15.24-.31.32-.48.09-.17.15-.33.19-.48.03-.11.05-.24.07-.38.02-.14.03-.28.03-.42,0-.26-.03-.52-.08-.79-.05-.27-.14-.52-.26-.74-.12-.22-.28-.4-.47-.53-.2-.13-.44-.2-.74-.2-.23,0-.43.06-.61.19-.18.13-.34.3-.48.52-.13.22-.24.47-.31.74-.07.27-.11.55-.11.83,0,.52.07.95.2,1.29.13.33.31.57.53.73"/>
      <path d="M7.87,2.99s.06-.02.09-.05c.05-.05.1-.1.15-.17.05-.06.09-.14.13-.22.04-.08.09-.17.13-.26.02-.06.02-.09.02-.09,0-.02,0-.04-.08-.04h-1.66c-.06,0-.11.03-.16.1-.06.09-.13.18-.2.28-.07.12-.12.2-.16.28-.06.11-.06.14-.06.14.02,0,.04.01.07.01h1.73Z"/>
      <path d="M23.66,4.68c.11.03.22.05.34.07.11.02.21.03.29.03.22,0,.44-.06.67-.18.23-.12.44-.31.63-.57.07-.1.14-.22.21-.38.07-.15.1-.32.1-.49,0-.2-.04-.37-.11-.51-.08-.14-.18-.25-.29-.34-.12-.09-.24-.15-.36-.19-.12-.04-.23-.06-.31-.06h-.34c-.05,0-.1-.02-.15-.06-.06-.05-.09-.1-.09-.16,0-.07,0-.12,0-.17,0-.06,0-.11,0-.15,0-.12.08-.19.21-.19h.88c.07,0,.1,0,.11-.01.02,0,.03-.02.04-.03.04-.05.08-.13.14-.24.05-.1.1-.2.15-.31.06-.13.06-.18.06-.19,0,0-.01-.02-.06-.02h-1.43c-.1,0-.2-.01-.24-.09,0-.02-.04-.09-.1-.2-.01,0-.04,0-.09.06-.08.09-.15.21-.23.35-.07.14-.11.24-.12.31,0,.06-.02.11-.02.16,0,.05,0,.11,0,.19,0,.21,0,.42.01.64,0,.21.02.43.05.68,0,.06.03.13.18.13h.48c.34.02.57.09.71.21.14.12.21.28.21.47,0,.16-.05.3-.14.4-.1.1-.26.15-.49.15-.1,0-.21-.01-.33-.04-.13-.03-.22-.06-.29-.08-.04,0-.07-.02-.1-.04-.02,0-.04,0-.04,0-.02.02-.03.03-.04.04-.02.03-.05.08-.1.15-.05.08-.1.17-.14.26-.05.08-.08.16-.11.22-.01.04-.03.06-.03.08,0,0,.02.02.05.03.06.02.14.05.25.08"/>
      <path d="M11.86,1.98c0-.1.02-.19.04-.28.03-.2.1-.37.2-.52.11-.16.28-.24.49-.24.31,0,.55.1.72.29.16.18.27.42.33.7.06.28.09.57.09.87s-.02.52-.07.7c-.05.18-.11.31-.19.4-.08.09-.17.14-.27.17-.09.02-.17.03-.25.03-.35,0-.63-.13-.83-.39-.19-.25-.29-.67-.29-1.27,0-.21,0-.36.01-.47M11.99,4.55c.22.16.46.23.73.23.21,0,.38-.04.55-.14.17-.09.31-.22.44-.36.13-.15.24-.31.32-.48.09-.17.15-.33.19-.48.03-.11.05-.24.07-.38.02-.14.03-.28.03-.42,0-.26-.03-.52-.08-.79-.05-.27-.14-.52-.26-.74-.12-.22-.28-.4-.47-.53-.2-.13-.44-.2-.74-.2-.23,0-.43.06-.61.19-.18.13-.34.3-.48.52-.13.22-.24.47-.31.74-.07.27-.11.55-.11.83,0,.52.07.95.2,1.29.13.33.31.57.53.73"/>
      <path d="M3.4,3.68c-.07.17-.13.3-.19.4-.08.12-.18.21-.29.26-.11.05-.24.07-.42.07h-.42c-.23,0-.4,0-.52-.03-.13-.02-.22-.06-.27-.11-.05-.05-.08-.12-.08-.19v-1.77s.04-.09.09-.09h.54c.23,0,.39.02.51.05.09.03.18.07.25.13.03-.03.07-.08.12-.14.05-.07.09-.14.12-.19l-.04-.05h-1.49c-.05,0-.09-.04-.09-.09V.33c0-.05.04-.09.09-.09h1.33c.32,0,.38.45.4.69h.1c.01-.06.03-.13.04-.21.02-.12.04-.25.06-.38.01-.11.02-.2.03-.28l-.08-.07H0v.08c.16.04.27.07.36.12.08.04.18.1.18.19v3.88c0,.13-.16.22-.54.31v.08h3.36c.01-.07.03-.18.06-.36.03-.19.05-.38.07-.58l-.09-.03Z"/>
      <path d="M29.84,5.69s0,.03.04.04c.08,0,.19.02.34.02.19,0,.35.02.52,0h0s.08,0,.12,0c.09,0,.17,0,.24,0,.07,0,.12-.01.16-.01.04,0,.06,0,.07,0,.01,0,.03,0,.03,0,.02,0,.02-.02.02-.04v-.17s0-.03-.04-.04c-.11,0-.22-.01-.33-.02h-.04c-.26-.02-.53-.02-.8,0-.14,0-.24.02-.29.02-.03,0-.04,0-.04,0,0,0,0,.01,0,.03v.17Z"/>
      <path d="M32.02,6.41s-.07.09-.07.16.02.11.07.15c.1.09.24.09.32,0t0,0s.06-.09.06-.16-.02-.12-.06-.16c-.04-.04-.09-.06-.15-.06-.06,0-.11.02-.16.06"/>
      <path d="M32.13.28c-.03-.06-.03-.06-.09.01-.08.1-.16.2-.23.31-.08.11-.15.22-.23.32-.08.11-.08.15-.08.16,0,.01,0,.04.03.09.02.05.05.12.08.19.08.2.15.42.2.67.05.25.08.47.08.65,0,.12-.02.22-.05.31-.03.09-.1.17-.19.24-.08.06-.18.13-.29.2-.09.06-.19.12-.3.18l-.07.04s-.09.04-.13.04c-.06,0-.12-.04-.13-.14-.08-.32-.17-.67-.26-1.05-.09-.38-.2-.76-.31-1.14-.12-.38-.25-.74-.41-1.07,0-.02-.02-.03-.03-.05,0,0-.04.02-.11.11-.08.09-.16.2-.25.32-.09.12-.15.21-.19.27-.06.09-.07.12-.07.13,0,0,.01.03.06.1.19.28.36.59.51.93.14.34.26.66.36.95.1.31.17.55.22.75,0,.03.02.07.02.11,0,.07-.03.12-.09.16-.16.08-.29.14-.4.19l-.24.12s-.05.03-.06.05c-.02.03-.04.05-.05.07-.04.07-.08.18-.14.29-.05.12-.1.23-.14.34-.05.13-.06.18-.06.2,0,0,.07,0,.28-.1.34-.15.67-.31.97-.48.3-.17.56-.32.78-.46.19-.12.34-.22.4-.27.23-.17.4-.38.51-.64.1-.24.19-.49.25-.72.06-.23.1-.42.11-.55,0-.04,0-.09.01-.14v-.05c.01-.07.01-.15.01-.24,0-.18-.03-.4-.08-.66-.05-.25-.11-.5-.19-.73"/>
    </g>
  </g>
</svg>