<?xml version="1.0" encoding="UTF-8"?>
<svg id="Layer_2" data-name="Layer 2" xmlns="http://www.w3.org/2000/svg" viewBox="0 0 32.4 6.79">
  <g id="Layer_1-2" data-name="Layer 1">
    <g>
      <path d="M2.91,4.33c-.11.05-.25.07-.42.07h-.42c-.23,0-.4-.01-.52-.03-.13-.02-.22-.06-.27-.11-.05-.05-.08-.12-.08-.19v-1.77s.04-.09.09-.09h.54c.23,0,.39.02.51.05.09.03.18.07.25.13.03-.03.07-.08.12-.14.05-.07.09-.14.13-.19l-.04-.05h-1.49s-.09-.04-.09-.09V.33c0-.05.04-.09.09-.09h1.33c.32,0,.38.45.4.69h.1c.02-.06.03-.13.05-.21.02-.12.04-.25.06-.38.01-.11.02-.2.03-.28l-.08-.07H0v.08c.16.03.28.07.36.12.08.04.18.1.18.19v3.88c0,.13-.16.22-.54.31v.08h3.36c.02-.08.04-.21.06-.36.03-.18.05-.38.07-.58l-.09-.03c-.06.17-.13.3-.19.4-.08.12-.18.21-.29.26"/>
      <path d="M19.58,3.5c-.05.18-.11.31-.19.4-.08.09-.17.14-.26.17-.09.02-.17.03-.25.03-.35,0-.63-.13-.83-.39-.19-.25-.29-.67-.29-1.27,0-.21,0-.37.01-.47.01-.1.02-.19.04-.28.03-.2.1-.37.2-.52.11-.16.28-.24.49-.24.31,0,.55.1.71.29.16.18.27.42.33.7.06.28.09.57.09.87s-.02.52-.07.7M19.9.99c-.12-.22-.28-.4-.48-.53-.2-.13-.44-.2-.74-.2-.23,0-.43.06-.61.19-.18.13-.34.3-.48.52-.13.22-.24.47-.31.74-.07.27-.11.55-.11.83,0,.52.07.95.2,1.29.13.33.31.57.53.73.22.15.46.23.73.23.2,0,.39-.05.55-.14.17-.09.31-.22.44-.36.13-.15.24-.31.32-.48.09-.17.15-.33.19-.48.03-.12.05-.25.07-.38.02-.14.03-.28.03-.42,0-.26-.03-.52-.08-.79-.05-.27-.14-.52-.26-.74"/>
      <path d="M32.13.28s-.03-.04-.03-.04c0,0-.03.01-.06.05-.08.1-.16.2-.23.31-.08.11-.15.21-.23.32-.08.11-.08.15-.08.16,0,.01,0,.04.03.09.02.05.05.12.08.19.08.19.15.42.2.67.05.25.08.47.08.65,0,.12-.02.22-.05.31-.03.09-.1.17-.19.24-.08.06-.18.13-.29.2-.08.05-.18.11-.28.17l-.08.05c-.06.03-.1.04-.13.04-.06,0-.13-.05-.13-.14-.08-.31-.17-.67-.26-1.04-.09-.38-.2-.76-.31-1.14-.12-.38-.25-.74-.4-1.07,0-.02-.02-.03-.03-.05,0,0-.04.02-.11.11-.08.09-.16.2-.25.32-.09.12-.15.21-.2.27-.06.09-.07.12-.07.13,0,0,.01.03.06.1.19.28.36.59.51.93.14.33.26.65.36.95.09.3.17.55.22.75,0,.03.02.07.02.11,0,.07-.03.12-.09.16-.16.08-.29.14-.4.19-.11.05-.19.09-.24.12-.02.01-.05.03-.06.05-.02.03-.04.05-.05.07-.04.07-.08.18-.14.29-.06.12-.1.23-.14.34-.05.13-.06.18-.06.2,0,0,.07,0,.28-.1h0c.34-.15.67-.31.97-.48.3-.17.56-.33.78-.46.19-.12.34-.22.41-.27.23-.17.4-.38.51-.64.1-.24.19-.48.25-.72.06-.23.1-.42.11-.55,0-.05.01-.11.02-.17,0-.08,0-.17,0-.26,0-.18-.03-.4-.07-.66-.05-.25-.11-.5-.19-.73"/>
      <path d="M8.32,2.17h-1.66s-.1.01-.16.1c-.06.09-.13.18-.2.28-.07.11-.12.2-.17.28-.06.11-.06.14-.06.15.02,0,.04.01.07.01h1.73s.07-.02.09-.05c.05-.05.1-.1.15-.17.04-.06.09-.13.13-.21.04-.08.09-.17.13-.26.02-.06.02-.09.02-.09,0-.02,0-.04-.08-.04"/>
      <path d="M32.18,6.35c-.06,0-.11.02-.16.07-.05.04-.07.09-.07.16,0,.06.02.11.07.15.1.1.24.09.32,0,0,0,0,0,0,0,.04-.04.06-.09.06-.16,0-.07-.02-.12-.06-.16-.04-.04-.09-.06-.15-.06"/>
      <path d="M29.84,5.69s0,.03.04.04c.08,0,.19.02.34.02.19,0,.35.01.52,0,.03,0,.08,0,.13,0,.08,0,.17,0,.23,0,.07,0,.12-.01.17-.01.04,0,.05,0,.07,0,.02,0,.03,0,.03,0,.02,0,.02-.02.02-.04v-.17s0-.03-.04-.04c-.11,0-.22-.01-.33-.02h-.04c-.26-.02-.53-.02-.8,0-.14,0-.24.02-.3.02-.02,0-.03,0-.04,0,0,0,0,.01,0,.03v.17Z"/>
      <path d="M32.32,5.78s.06-.1.06-.16-.02-.11-.06-.16c-.04-.04-.09-.06-.15-.06s-.12.02-.16.06c-.05.04-.07.09-.07.16s.02.11.07.16c.09.09.23.09.32,0"/>
      <path d="M13.66,3.5c-.05.18-.11.31-.19.4-.08.09-.17.14-.26.17-.09.02-.17.03-.25.03-.35,0-.63-.13-.83-.39-.19-.25-.29-.67-.29-1.27,0-.21,0-.37.01-.47.01-.1.02-.19.04-.28.03-.2.1-.37.2-.52.11-.16.28-.24.49-.24.31,0,.55.1.71.29.16.18.27.42.33.7.06.28.09.57.09.87s-.02.52-.07.7M13.98.99c-.12-.22-.28-.4-.48-.53-.2-.13-.44-.2-.74-.2-.23,0-.43.06-.61.19-.18.13-.34.3-.48.52-.13.22-.24.47-.31.74-.07.27-.11.55-.11.83,0,.52.07.95.2,1.29.13.33.31.57.53.73.22.15.46.23.73.23.2,0,.39-.05.55-.14.17-.09.31-.22.44-.36.13-.15.24-.31.32-.48.09-.17.15-.33.19-.48.03-.12.05-.25.07-.38.02-.14.03-.28.03-.42,0-.26-.03-.52-.08-.79-.05-.27-.14-.52-.26-.74"/>
      <path d="M24.98,3.58c0-.12,0-.37-.03-.74-.02-.39-.03-.87-.03-1.43,0-.06,0-.16,0-.3s-.01-.29-.02-.45c-.01-.15-.03-.28-.06-.38h-.02s-.1,0-.21.06c-.14.09-.3.19-.47.32-.17.13-.32.24-.44.33,0,0-.01.01-.02.02l.29.02c.26.03.41.25.46.65.02.22.04.47.05.76,0,.29.01.61.01.98,0,.09,0,.18-.02.27-.03.17-.15.27-.33.27h-.48s-.07.1-.11.18c-.05.09-.09.19-.13.28-.03.06-.05.11-.07.15h2.19s.04,0,.06-.02c0,0,.03-.02.07-.08.07-.11.11-.19.14-.26.03-.07.07-.15.12-.26h-.52c-.25,0-.41-.15-.41-.39"/>
    </g>
  </g>
</svg>