<?xml version="1.0" encoding="UTF-8"?>
<svg id="Layer_2" data-name="Layer 2" xmlns="http://www.w3.org/2000/svg" viewBox="0 0 3.33 6.56">
  <g id="Layer_1-2" data-name="Layer 1-2">
    <g>
      <path d="M3.03.04l-.03-.04s-.03,0-.06.05c-.08.1-.16.2-.23.31-.08.11-.15.21-.23.32-.08.11-.08.15-.08.16s0,.04.03.09c.02.05.05.12.08.19.08.19.15.42.2.67.05.25.08.47.08.65,0,.12-.02.22-.05.31-.03.09-.1.17-.19.24-.08.06-.18.13-.29.2-.08.05-.18.11-.28.17l-.08.05c-.06.03-.1.04-.13.04-.06,0-.13-.05-.13-.14-.08-.31-.17-.67-.26-1.04-.09-.38-.2-.76-.31-1.14-.12-.38-.25-.74-.4-1.07,0-.02-.02-.03-.03-.05,0,0-.04.02-.11.11-.08.09-.16.2-.25.32s-.15.21-.2.27c-.06.09-.07.12-.07.13,0,0,.01.03.06.1.19.28.36.59.51.93.14.33.26.65.36.95.09.3.17.55.22.75,0,.03.02.07.02.11,0,.07-.03.12-.09.16-.16.08-.29.14-.4.19-.11.05-.19.09-.24.12-.02.01-.05.03-.06.05-.02.03-.04.05-.05.07-.04.07-.08.18-.14.29-.06.12-.1.23-.14.34-.05.13-.06.18-.06.2,0,0,.07,0,.28-.1H.28c.34-.15.67-.31.97-.48s.56-.33.78-.46c.19-.12.34-.22.41-.27.23-.17.4-.38.51-.64.1-.24.19-.48.25-.72.06-.23.1-.42.11-.55,0-.05,0-.11.02-.17v-.26c0-.18-.03-.4-.07-.66-.05-.25-.11-.5-.19-.73"/>
      <path d="M3.08,6.11c-.06,0-.11.02-.16.07-.05.04-.07.09-.07.16,0,.06.02.11.07.15.1.1.24.09.32,0h0s.06-.09.06-.16-.02-.12-.06-.16-.09-.06-.15-.06"/>
      <path d="M.74,5.45s0,.03.04.04c.08,0,.19.02.34.02.19,0,.35.01.52,0h.36c.07,0,.12-.01.17-.01h.1s.02-.02.02-.04v-.17s0-.03-.04-.04c-.11,0-.22-.01-.33-.02h-.04c-.26-.02-.53-.02-.8,0-.14,0-.24.02-.3.02h-.04v.2Z"/>
      <path d="M3.22,5.54s.06-.1.06-.16-.02-.11-.06-.16c-.04-.04-.09-.06-.15-.06s-.12.02-.16.06c-.05.04-.07.09-.07.16s.02.11.07.16c.09.09.23.09.32,0"/>
    </g>
  </g>
</svg>