<?xml version="1.0" encoding="UTF-8"?>
<svg id="Layer_2" data-name="Layer 2" xmlns="http://www.w3.org/2000/svg" viewBox="0 0 32.4 6.79">
  <g id="Layer_1-2" data-name="Layer 1">
    <g>
      <path d="M31.95,6.57c0,.06.02.11.07.15.1.09.24.09.32,0,0,0,0,0,0,0,.04-.04.06-.09.06-.16s-.02-.12-.06-.16c-.04-.04-.09-.06-.16-.06-.06,0-.11.02-.16.07-.05.04-.07.09-.07.16"/>
      <polygon points="30.84 3.55 30.84 3.55 30.83 3.56 30.84 3.55"/>
      <path d="M32.13.28s-.03-.04-.03-.04c0,0-.03.01-.06.05-.08.1-.16.21-.24.31-.08.11-.15.22-.23.32-.08.11-.08.16-.08.16,0,.01,0,.04.03.09.02.05.05.12.08.19.08.19.15.42.2.67.05.25.08.47.08.65,0,.12-.02.22-.05.31-.03.09-.1.17-.19.24-.08.06-.18.13-.29.2-.09.05-.18.11-.29.18l-.08.05c-.06.03-.1.04-.13.04-.06,0-.12-.04-.13-.14-.08-.32-.17-.67-.26-1.05-.09-.38-.2-.76-.31-1.14-.12-.38-.25-.74-.4-1.07,0-.02-.02-.03-.03-.05,0,0-.04.02-.11.11-.08.09-.16.2-.25.32-.09.12-.15.21-.19.27-.06.09-.07.12-.07.13,0,0,.01.03.06.1.19.29.37.6.51.93.14.33.26.65.36.95.09.29.17.55.22.75.01.03.02.07.02.11,0,.07-.03.12-.09.16-.16.08-.29.14-.4.19l-.24.12s-.05.03-.06.05c-.02.03-.04.05-.05.07-.03.06-.06.13-.1.22l-.04.08c-.05.12-.1.23-.14.34-.05.13-.06.18-.06.2,0,0,.07,0,.28-.1h0c.34-.15.67-.31.97-.48.3-.17.56-.32.78-.46.2-.13.35-.23.41-.27.22-.17.4-.38.51-.63.1-.25.19-.49.25-.72.06-.23.1-.42.11-.55,0-.04,0-.09.01-.14v-.05c.01-.07.01-.15.01-.24,0-.18-.03-.4-.08-.66-.05-.25-.11-.5-.19-.73"/>
      <path d="M30.74,5.76h0s.08,0,.12,0c.08,0,.15,0,.21,0h.17s.03-.01.03-.01c.02,0,.04,0,.05,0,.01,0,.04,0,.03,0,.02,0,.02-.02.02-.04v-.17s0-.03-.04-.04c-.13,0-.25-.02-.37-.02-.26-.01-.53-.01-.8,0-.14,0-.24.02-.3.02-.03,0-.04,0-.04,0,0,0,0,.01,0,.03v.17s0,.03.04.04c.08,0,.19.01.34.02.19,0,.35.01.51,0v.09s0-.09,0-.09Z"/>
      <path d="M32.16,5.4c-.06,0-.12.02-.16.06-.04.04-.07.09-.07.16s.02.11.07.16c.1.09.23.09.32,0,.04-.05.06-.1.06-.16s-.02-.12-.06-.16-.09-.06-.15-.06"/>
      <path d="M7.87,2.99s.06-.02.09-.05c.05-.05.1-.1.15-.17.04-.06.09-.13.13-.21.04-.08.09-.17.13-.26.02-.06.02-.09.02-.09,0-.02,0-.04-.08-.04h-1.66c-.06,0-.11.03-.16.1-.07.09-.13.18-.2.28-.07.12-.12.2-.17.28-.06.11-.06.14-.06.14.02,0,.04.01.07.01h1.73Z"/>
      <path d="M11.86,1.98c0-.1.02-.19.03-.28.04-.2.1-.37.21-.52.11-.16.28-.24.49-.24.31,0,.55.1.72.29.16.18.27.42.33.7.06.28.09.57.09.87s-.02.52-.07.7c-.05.18-.11.31-.19.4-.08.09-.17.14-.27.17-.09.02-.17.03-.25.03-.35,0-.63-.13-.82-.39-.19-.25-.29-.67-.29-1.27,0-.22,0-.37.01-.47M11.99,4.55c.22.16.46.23.73.23.2,0,.39-.05.55-.14.17-.09.31-.22.44-.36.13-.15.24-.31.32-.48.09-.17.15-.33.19-.47.03-.11.05-.24.07-.38.02-.14.03-.28.03-.42,0-.26-.03-.52-.08-.79-.05-.27-.14-.52-.26-.74-.12-.22-.28-.4-.47-.53-.2-.13-.44-.2-.74-.2-.23,0-.43.06-.61.19-.18.13-.34.3-.48.52-.13.22-.24.47-.31.74-.07.27-.11.55-.11.83,0,.52.07.95.2,1.29.13.33.31.57.53.73"/>
      <path d="M3.4,3.68c-.07.17-.13.3-.19.4-.08.12-.18.21-.29.26-.11.05-.24.07-.42.07h-.42c-.23,0-.4,0-.52-.03-.13-.03-.22-.06-.27-.11-.05-.05-.08-.12-.08-.19v-1.77s.04-.09.09-.09h.54c.23,0,.39.02.51.05.09.03.18.07.25.13.03-.03.07-.07.12-.14.05-.07.09-.14.13-.19l-.05-.05h-1.49c-.05,0-.09-.04-.09-.09V.33c0-.05.04-.09.09-.09h1.33c.32,0,.38.45.4.69h.1c.01-.06.03-.13.04-.21.02-.12.04-.25.06-.38.01-.11.02-.2.03-.28l-.08-.07H0v.08c.16.04.28.07.36.12.09.05.18.1.18.19v3.88c0,.13-.16.22-.54.31v.08h3.36c.01-.07.03-.18.06-.36.03-.18.05-.38.07-.58l-.09-.03Z"/>
      <path d="M24,2.77c.14-.16.33-.23.56-.23.17,0,.32.05.44.14.12.09.21.2.28.33.07.13.1.26.1.39,0,.21-.06.39-.16.52-.11.14-.31.2-.6.2-.19,0-.38-.07-.56-.21-.18-.14-.27-.34-.27-.58,0-.22.07-.41.21-.56M23.83,4.64c.42.21.85.19,1.21-.02.19-.11.36-.25.51-.42.14-.17.26-.35.34-.54.08-.19.12-.35.12-.5,0-.2-.04-.39-.13-.57-.08-.18-.21-.33-.36-.44-.16-.11-.35-.17-.58-.17-.16,0-.22.02-.25.03-.09.04-.11.05-.14.05-.07,0-.12-.05-.12-.11,0-.03,0-.04.06-.12.07-.12.16-.26.28-.43.11-.17.24-.35.36-.53.13-.18.25-.35.37-.49.03-.03.05-.07.07-.1.02-.03.02-.04.02-.04-.01,0-.03,0-.06.02-.04.01-.08.03-.13.04-.08.03-.18.07-.29.11-.1.04-.19.08-.26.12-.06.03-.11.07-.15.11-.04.04-.09.1-.13.16-.13.18-.29.39-.47.65-.17.25-.34.51-.49.79-.12.22-.22.44-.32.66-.1.22-.15.44-.15.64,0,.27.07.49.2.68.13.19.3.33.5.43"/>
      <path d="M17.78,1.98c0-.1.02-.19.03-.28.04-.2.1-.37.21-.52.11-.16.28-.24.49-.24.31,0,.55.1.72.29.16.18.27.42.33.7.06.28.09.57.09.87s-.02.52-.07.7c-.05.18-.11.31-.19.4-.08.09-.17.14-.27.17-.09.02-.17.03-.25.03-.35,0-.63-.13-.82-.39-.19-.25-.29-.67-.29-1.27,0-.22,0-.37.01-.47M17.91,4.55c.22.16.46.23.73.23.2,0,.39-.05.55-.14.17-.09.31-.22.44-.36.13-.15.24-.31.32-.48.09-.17.15-.33.19-.47.03-.11.05-.24.07-.38.02-.14.03-.28.03-.42,0-.26-.03-.52-.08-.79-.05-.27-.14-.52-.26-.74-.12-.22-.28-.4-.47-.53-.2-.13-.44-.2-.74-.2-.23,0-.43.06-.61.19-.18.13-.34.3-.48.52-.13.22-.24.47-.31.74-.07.27-.11.55-.11.83,0,.52.07.95.2,1.29.13.33.31.57.53.73"/>
    </g>
  </g>
</svg>