<?xml version="1.0" encoding="UTF-8"?>
<svg id="Layer_2" data-name="Layer 2" xmlns="http://www.w3.org/2000/svg" viewBox="0 0 4.16 5.62">
  <g id="Layer_1-2" data-name="Layer 1-2">
    <g>
      <path d="M2.87,1.2c.17,0,.3.04.39.11s.15.15.19.25c.03.08.05.16.07.23.03.23.05.49.07.79.02.31.03.63.05.98v.25c.02.25.03.5.04.74v.04s.03-.03.05-.06h0c.06-.07.12-.16.19-.27s.12-.21.17-.29c.03-.06.05-.11.06-.16,0-.06,0-.12,0-.18,0-.35,0-.69-.02-1,0-.31-.02-.59-.03-.84-.01-.45-.09-.8-.23-1.05-.13-.23-.33-.35-.62-.35H1.23c-.1,0-.19,0-.25-.04-.08-.04-.14-.13-.18-.3,0-.02-.01-.04-.02-.05,0,0-.01,0-.03.02-.02,0-.05.04-.07.07-.09.1-.19.25-.3.43-.11.18-.22.36-.32.54-.05.09-.06.12-.06.13,0,0,.02.03.15.03h2.72v-.02Z"/>
      <path d="M1.12,2.77c-.01-.19-.02-.35-.04-.5-.01-.14-.02-.25-.03-.31v-.02s-.05.05-.08.09c-.06.08-.13.18-.21.29-.08.12-.13.2-.17.26-.03.05-.04.11-.04.17,0,.07,0,.18.01.33,0,.15.02.31.03.49s.03.36.04.54c.02.18.03.33.05.47h0s.02,0,.03,0c.06-.08.13-.17.2-.27l.21-.31s.03-.06.03-.09c0-.04.01-.08.01-.12,0-.13,0-.28-.01-.46,0-.18-.02-.36-.03-.55"/>
      <path d="M2.29,5.17c-.06,0-.11.02-.16.06s-.07.09-.07.16.02.12.07.16c.09.09.23.09.31,0,.04-.04.06-.1.06-.16s-.02-.12-.06-.16c-.04-.04-.09-.06-.15-.06"/>
    </g>
  </g>
</svg>