<?xml version="1.0" encoding="UTF-8"?>
<svg id="Layer_2" data-name="Layer 2" xmlns="http://www.w3.org/2000/svg" viewBox="0 0 32.05 5.96">
  <g id="Layer_1-2" data-name="Layer 1">
    <g>
      <path d="M29.96,5.74c0,.06.02.12.07.16.09.09.23.09.31,0h0s.06-.1.06-.16-.02-.11-.06-.16c-.04-.04-.09-.06-.15-.06s-.11.02-.16.06c-.04.04-.07.09-.07.16"/>
      <path d="M29.01,3.12c-.01-.17-.02-.33-.03-.47v-.03c-.01-.15-.02-.25-.03-.31,0,0,0-.01,0-.02-.03.02-.05.05-.08.09-.06.08-.13.18-.21.29-.08.11-.14.2-.17.26-.03.05-.04.11-.04.17,0,.07,0,.18.01.33,0,.15.02.31.03.49.01.18.03.36.04.54.02.18.03.33.05.47,0,0,0,0,0,.01,0,0,.02-.01.02-.02.06-.07.13-.17.2-.27.08-.11.14-.21.21-.3.02-.03.03-.06.03-.09,0-.04.01-.08.01-.12,0-.13,0-.28-.01-.46,0-.18-.02-.36-.03-.55"/>
      <path d="M31.34,1.91c.03.09.06.17.06.23.03.21.05.46.07.79.02.31.03.63.05.98l.04.99s0,.03,0,.04c.01-.01.03-.03.05-.06t0,0c.06-.08.12-.17.18-.27.07-.11.13-.21.17-.29.04-.06.06-.11.06-.16,0-.06.01-.12.01-.18,0-.35,0-.69-.02-1l-.03-.84c-.01-.45-.09-.8-.23-1.05-.13-.23-.33-.35-.62-.35h-2.04c-.1,0-.18-.01-.25-.04-.08-.04-.14-.13-.18-.3,0-.01-.01-.04-.02-.05,0,0-.01,0-.03.02-.02.02-.04.04-.07.07-.09.11-.19.25-.29.43-.09.16-.18.31-.28.46l-.05.08c-.05.09-.06.12-.06.13,0,0,.02.03.15.03h2.72c.17,0,.3.04.39.11.09.07.15.15.19.25"/>
      <path d="M1.57.41c.16-.07.31-.11.46-.11.44,0,.81.19,1.08.57l.12.02s.05-.06.08-.1c.04-.07.09-.14.14-.22.04-.08.08-.15.1-.21,0-.01,0-.02.01-.03-.13-.09-.29-.17-.5-.23-.23-.07-.48-.11-.75-.11h-.01c-.42,0-.81.11-1.15.32-.35.21-.63.52-.84.91-.21.39-.31.85-.31,1.38,0,.36.05.68.16.96.11.28.26.52.44.71.18.19.39.34.61.44.48.21.99.2,1.53-.05.27-.12.56-.34.85-.64-.01-.02-.02-.04-.04-.06-.01-.02-.02-.03-.03-.04-.25.2-.49.35-.71.42-.24.08-.43.13-.58.13-.25,0-.49-.07-.73-.22-.24-.15-.45-.37-.6-.67-.16-.3-.24-.68-.24-1.13,0-.41.04-.75.13-1.03.09-.28.2-.5.33-.67.14-.17.29-.29.45-.36"/>
      <path d="M8.06,2.89c.04-.06.09-.13.13-.22.04-.08.09-.17.13-.26.02-.06.03-.09.03-.09,0-.02,0-.04-.09-.04h-1.66c-.06,0-.11.03-.16.1-.07.09-.13.18-.2.28-.07.1-.12.2-.17.28-.05.11-.06.14-.06.14.02,0,.04.01.07.01h1.72s.05-.02.09-.05c.05-.04.1-.1.15-.17"/>
      <path d="M11.52,2.09c.01-.1.02-.19.04-.28.03-.2.1-.37.21-.52.11-.16.28-.24.49-.24.31,0,.55.1.72.29.16.18.27.42.33.7.06.28.09.56.09.87s-.02.53-.07.7c-.05.18-.11.31-.19.4-.08.09-.17.14-.26.17-.09.02-.17.03-.25.03-.35,0-.63-.13-.82-.39-.19-.25-.29-.67-.29-1.27,0-.2,0-.36.01-.47M12.39,4.9c.2,0,.38-.04.55-.14.17-.09.32-.22.44-.36.13-.15.24-.31.32-.48.09-.17.15-.33.19-.47.03-.11.05-.24.07-.39.02-.15.03-.29.03-.42,0-.26-.03-.52-.08-.79-.05-.27-.14-.52-.26-.74-.12-.22-.28-.4-.48-.53-.2-.13-.44-.2-.73-.2-.23,0-.43.06-.61.19-.18.13-.35.3-.48.52-.13.22-.24.47-.31.74-.07.27-.11.55-.11.83,0,.52.07.95.2,1.29.13.33.31.57.53.73.22.15.47.23.73.23"/>
      <path d="M23.08,2.89c.14-.16.33-.23.56-.23.17,0,.32.05.44.14.12.09.21.2.28.33.07.13.11.26.11.4,0,.21-.05.39-.16.52-.11.14-.31.2-.6.2-.19,0-.38-.07-.56-.21-.18-.14-.27-.34-.27-.58,0-.22.07-.41.21-.56M22.91,4.75c.42.21.86.19,1.21-.02.19-.11.36-.25.51-.42.15-.17.26-.35.34-.54.08-.18.12-.35.12-.5,0-.2-.04-.39-.13-.57-.08-.18-.2-.33-.36-.44-.16-.11-.35-.17-.58-.17-.16,0-.22.02-.25.03-.09.04-.12.05-.14.05-.07,0-.12-.05-.12-.11,0-.03,0-.04.06-.12.07-.11.16-.26.28-.43.11-.17.23-.35.36-.53.13-.18.26-.35.37-.49.03-.03.05-.07.07-.1.02-.03.02-.04.02-.04,0,0-.02,0-.06.02-.04.01-.08.03-.13.04-.08.03-.18.07-.29.11-.1.04-.19.08-.26.12-.06.03-.11.07-.15.11-.05.04-.09.1-.14.16-.12.16-.27.37-.47.65-.18.26-.34.52-.49.79-.12.22-.23.44-.32.66-.1.22-.15.44-.15.64,0,.26.07.49.2.68.14.19.3.33.5.43"/>
      <path d="M17.15,2.09c0-.1.02-.19.03-.28.03-.2.1-.37.21-.52.11-.16.28-.24.49-.24.31,0,.55.1.71.29.16.18.27.42.33.7.06.28.09.56.09.87,0,.29-.02.53-.07.7-.05.18-.11.31-.19.4-.08.09-.17.14-.26.17-.09.02-.17.03-.25.03-.35,0-.63-.13-.83-.39-.19-.26-.29-.67-.29-1.27,0-.2,0-.36.01-.47M17.28,4.66c.22.16.46.23.73.23.2,0,.38-.04.55-.14.17-.09.31-.22.44-.36.13-.15.24-.31.32-.48.09-.17.15-.33.19-.48.03-.11.05-.24.07-.38.02-.14.03-.29.03-.42,0-.26-.03-.52-.08-.79-.05-.27-.14-.52-.26-.74-.12-.22-.28-.4-.48-.53-.2-.13-.44-.2-.73-.2-.23,0-.43.06-.61.19-.18.13-.35.3-.48.52-.13.22-.24.47-.31.74-.07.27-.11.55-.11.83,0,.52.07.95.2,1.29.13.33.31.57.53.73"/>
    </g>
  </g>
</svg>