<?xml version="1.0" encoding="UTF-8"?>
<svg id="Layer_2" data-name="Layer 2" xmlns="http://www.w3.org/2000/svg" viewBox="0 0 32.05 5.96">
  <g id="Layer_1-2" data-name="Layer 1">
    <g>
      <path d="M1.57.41c.16-.07.31-.11.46-.11.44,0,.81.19,1.08.57l.12.02s.05-.06.07-.1c.05-.07.09-.14.14-.22.04-.08.08-.15.11-.21,0-.01,0-.02,0-.03-.13-.09-.29-.17-.5-.23-.23-.07-.48-.11-.75-.11h-.01c-.42,0-.81.11-1.15.32-.35.21-.63.52-.84.91-.21.39-.31.85-.31,1.38,0,.36.05.68.16.96.11.28.26.52.43.71.18.19.39.34.61.44.48.21.99.2,1.53-.05.27-.12.56-.34.85-.64-.01-.02-.03-.04-.04-.06-.01-.02-.02-.03-.03-.04-.25.2-.49.34-.71.42-.24.08-.43.13-.58.13-.25,0-.49-.07-.74-.22-.24-.15-.45-.37-.6-.67-.16-.3-.24-.68-.24-1.13,0-.41.04-.75.13-1.03.09-.28.19-.5.33-.67.14-.17.29-.29.45-.36"/>
      <path d="M30.02,5.58s-.07.09-.07.16.02.12.07.16c.09.09.23.09.31,0,.04-.04.06-.1.06-.16s-.02-.11-.06-.16c-.04-.04-.09-.06-.15-.06-.06,0-.11.02-.16.06"/>
      <path d="M29.01,3.12c-.01-.19-.02-.35-.04-.5-.01-.14-.02-.25-.03-.31,0,0,0-.01,0-.02-.03.02-.05.05-.08.09-.06.08-.13.18-.21.29-.08.11-.13.19-.17.26-.03.05-.04.11-.04.17,0,.07,0,.18.01.33,0,.15.02.31.03.49.01.18.03.36.04.54.02.18.03.33.05.47,0,0,0,0,0,.01,0,0,.02-.01.03-.02.06-.07.13-.16.2-.27l.21-.31s.03-.06.03-.09c0-.04.01-.08.01-.12,0-.13,0-.28-.01-.46,0-.18-.02-.36-.03-.55"/>
      <path d="M8.2,2.68c.05-.08.09-.17.14-.26.02-.06.02-.09.02-.09,0-.02,0-.04-.09-.04h-1.65s-.1.01-.16.1c-.07.09-.13.18-.2.28-.07.1-.12.2-.17.28-.06.11-.06.14-.06.14.02,0,.04.01.07.01h1.73s.05-.02.09-.05c.05-.04.1-.1.15-.17.04-.06.09-.14.13-.22"/>
      <path d="M17.15,2.09c0-.1.02-.19.03-.28.03-.2.1-.37.21-.52.11-.16.28-.24.49-.24.31,0,.55.1.71.29.16.18.27.42.33.7.06.28.09.57.09.87s-.02.53-.07.7c-.05.18-.11.31-.19.4-.08.09-.17.14-.26.17-.09.02-.17.03-.25.03-.35,0-.63-.13-.83-.39-.19-.25-.29-.67-.29-1.27,0-.21,0-.37.01-.47M17.28,4.66c.22.16.46.23.73.23.2,0,.39-.05.55-.14.17-.09.31-.22.44-.36.13-.15.23-.3.32-.48.09-.17.15-.33.19-.48.03-.12.06-.25.07-.38.02-.15.03-.29.03-.42,0-.25-.03-.52-.08-.79-.06-.27-.14-.52-.26-.74-.12-.22-.28-.4-.48-.53-.2-.13-.44-.2-.74-.2-.23,0-.43.06-.61.19-.18.13-.34.3-.48.52-.13.22-.24.47-.31.74-.07.27-.11.55-.11.83,0,.52.07.95.2,1.29.13.33.3.57.53.73"/>
      <path d="M31.34,1.91c.03.08.05.16.06.23.03.23.05.49.07.79.02.31.03.63.05.98v.25c.02.26.03.5.04.74,0,.02,0,.03,0,.04.01-.01.03-.03.05-.06h0c.06-.07.12-.16.19-.28.07-.11.12-.21.17-.29.04-.06.06-.11.06-.16,0-.06.01-.12.01-.18,0-.35,0-.69-.02-1-.01-.31-.02-.59-.03-.84-.01-.45-.09-.8-.23-1.05-.13-.23-.33-.35-.62-.35h-2.03c-.1,0-.18-.01-.25-.04-.08-.03-.14-.13-.18-.3,0-.02-.01-.04-.02-.05,0,0-.01,0-.03.02-.02.01-.05.04-.07.07-.09.1-.19.25-.3.43-.11.18-.22.36-.32.54-.05.09-.05.12-.05.13,0,0,.02.03.15.03h2.72c.17,0,.3.03.39.11.09.07.15.15.19.25"/>
      <path d="M24.74,4.64c.06-.09.12-.18.18-.3.06-.12.11-.22.16-.3.02-.03.02-.04.03-.05h-1.54c-.11,0-.18-.07-.18-.19,0-.05.02-.12.14-.3.08-.12.17-.25.28-.39.1-.14.19-.24.26-.33.18-.22.34-.43.48-.64.14-.2.21-.4.21-.58,0-.29-.08-.52-.25-.69-.17-.17-.39-.3-.65-.38-.27-.08-.54-.12-.82-.12-.04,0-.09.04-.14.11-.04.06-.1.15-.17.25-.08.12-.14.21-.19.29-.03.04-.04.07-.06.09.1,0,.25,0,.43.02.16.01.32.04.48.09.16.05.3.13.42.24.12.12.18.28.18.49,0,.17-.06.36-.18.54-.11.17-.22.33-.35.49-.2.25-.38.49-.53.7-.14.2-.26.39-.35.56-.04.09-.09.18-.13.29-.04.09-.06.17-.06.22h0s.02,0,.04,0h2.19s.04,0,.12-.12"/>
      <path d="M11.52,2.09c0-.09.02-.19.03-.28.03-.2.1-.37.21-.52.11-.16.28-.24.49-.24.31,0,.55.1.71.29.16.18.27.42.33.7.06.28.09.57.09.87s-.02.53-.07.7c-.05.18-.11.31-.19.4-.08.09-.17.14-.26.17-.09.02-.17.03-.25.03-.35,0-.63-.13-.82-.39-.19-.25-.29-.67-.29-1.27,0-.21,0-.37.01-.47M12.39,4.9c.2,0,.39-.05.55-.14.17-.09.31-.22.44-.36.13-.15.24-.31.32-.48.09-.17.15-.33.19-.47.03-.11.05-.24.07-.39.02-.14.03-.29.03-.42,0-.26-.03-.53-.08-.79-.05-.27-.14-.52-.26-.74-.12-.22-.28-.4-.48-.53-.19-.13-.44-.2-.73-.2-.23,0-.43.06-.61.19-.18.13-.34.3-.48.52-.14.22-.24.47-.31.74-.07.27-.11.55-.11.83,0,.52.07.95.2,1.29.13.32.31.57.53.73.22.16.46.23.73.23"/>
    </g>
  </g>
</svg>