<?xml version="1.0" encoding="UTF-8"?>
<svg id="Layer_2" data-name="Layer 2" xmlns="http://www.w3.org/2000/svg" viewBox="0 0 32.05 5.96">
  <g id="Layer_1-2" data-name="Layer 1">
    <g>
      <path d="M29.01,3.12l-.04-.5c-.01-.15-.02-.25-.03-.31,0,0,0-.01,0-.02-.03.03-.05.05-.08.09-.06.08-.13.18-.21.29-.08.11-.13.19-.17.26-.03.05-.04.11-.04.17,0,.07,0,.18.01.33,0,.15.02.31.03.49.01.18.03.36.04.54.02.18.03.34.05.47,0,0,0,0,0,.01,0,0,.02-.01.03-.02.06-.07.13-.16.2-.27l.2-.3s.03-.06.04-.09c0-.04,0-.08,0-.12,0-.13,0-.28-.01-.46,0-.18-.02-.36-.03-.55"/>
      <path d="M17.15,2.09c.01-.1.02-.19.03-.28.04-.2.1-.37.21-.52.11-.16.28-.24.49-.24.31,0,.55.1.71.29.16.18.27.42.33.7.06.28.09.57.09.87s-.02.53-.07.7c-.05.18-.11.31-.19.4-.08.09-.17.14-.26.17-.09.02-.17.03-.25.03-.35,0-.63-.13-.83-.39-.19-.25-.29-.67-.29-1.27,0-.2,0-.36.01-.47M17.28,4.66c.22.16.46.23.73.23.2,0,.39-.05.55-.14.17-.09.32-.22.44-.36.13-.15.23-.31.32-.48.09-.17.15-.33.19-.48.03-.11.05-.24.07-.38.02-.15.03-.29.03-.42,0-.26-.03-.52-.08-.79-.05-.27-.14-.52-.26-.74-.12-.22-.28-.4-.48-.53-.2-.13-.44-.2-.73-.2-.23,0-.43.06-.61.19-.18.13-.34.3-.48.52-.13.22-.24.47-.31.74-.07.27-.11.55-.11.83,0,.52.07.95.2,1.29.13.33.31.57.53.73"/>
      <path d="M28.68.39s-.01-.04-.02-.04c0,0-.01,0-.03.02-.02.01-.05.04-.07.07-.09.11-.19.25-.29.43-.11.18-.22.36-.32.54-.05.09-.05.12-.05.13,0,0,.02.03.15.03h2.72c.17,0,.3.04.39.11.09.07.15.16.19.25.03.08.05.16.07.23.03.22.05.49.07.79.02.31.03.63.05.98l.04.99s0,.03,0,.04c.01-.01.03-.03.05-.06,0,0,0,0,0,0,.06-.07.12-.17.19-.27.07-.11.12-.21.17-.3.04-.06.05-.11.06-.16,0-.06.01-.12.01-.18,0-.34,0-.68-.02-1-.01-.31-.02-.59-.03-.84-.01-.45-.09-.8-.23-1.05-.13-.23-.33-.35-.62-.35h-2.03c-.1,0-.19-.01-.25-.04-.08-.04-.14-.13-.18-.31"/>
      <path d="M29.96,5.74c0,.06.02.12.07.16.09.09.23.09.31,0,.04-.04.06-.1.06-.16s-.02-.11-.06-.16c-.04-.04-.09-.06-.15-.06s-.11.02-.16.06c-.05.04-.07.09-.07.16"/>
      <path d="M22.85,2.14c.06-.15.13-.3.2-.42.08-.14.17-.24.26-.31.09-.07.17-.12.26-.17.05-.04.1-.05.15-.05.09,0,.13.05.14.1,0,.03,0,.05.01.08.02.11.03.25.04.41.01.16.02.31.03.46,0,.15,0,.27,0,.37,0,.12-.07.19-.17.19h-.67c-.07,0-.13,0-.2-.02,0,0,0,0,0,0-.05-.02-.14-.06-.14-.22,0-.11.03-.24.09-.41M22.49,3.53h1.22c.1,0,.21.06.21.23,0,.04,0,.13,0,.27l.02.45c0,.16,0,.3,0,.4,0,.04,0,.06,0,.07,0-.01.04-.04.09-.1.07-.09.14-.17.19-.24.05-.07.1-.14.15-.21.03-.06.06-.11.06-.15.01-.05.02-.11.02-.16v-.34c0-.21.13-.22.17-.22h.26s.07-.04.1-.11c.04-.07.08-.16.13-.26.05-.1.08-.19.11-.27,0-.02.02-.05.03-.07.01-.03.01-.04.01-.04h-.61c-.13,0-.18-.09-.18-.16,0-.03,0-.13,0-.31,0-.18,0-.39-.02-.63,0-.24-.02-.48-.03-.72-.01-.24-.03-.43-.05-.58,0-.06-.03-.06-.05-.06-.02,0-.08,0-.2.06-.1.05-.18.08-.23.11-.2.11-.39.24-.56.39-.17.15-.32.34-.45.55-.24.38-.43.73-.56,1.04-.16.38-.19.59-.19.69,0,.12.03.22.08.28.05.06.14.08.27.08"/>
      <path d="M1.57.41c.16-.07.31-.11.46-.11.44,0,.81.19,1.08.57l.12.02s.04-.05.08-.1c.04-.07.09-.14.14-.22.04-.08.08-.15.1-.2,0-.01,0-.02.01-.03-.13-.09-.29-.17-.5-.23-.23-.07-.48-.11-.75-.11h-.01c-.42,0-.81.11-1.15.32-.35.21-.63.52-.84.91-.21.39-.31.85-.31,1.38,0,.36.05.68.16.96.11.28.26.52.44.71.18.19.39.34.61.44.48.21.99.2,1.53-.05.27-.12.56-.34.85-.64-.01-.02-.02-.04-.04-.06-.01-.02-.02-.03-.03-.04-.25.2-.49.35-.71.42-.24.08-.43.13-.58.13-.25,0-.49-.07-.73-.22-.24-.15-.44-.37-.6-.67-.16-.3-.24-.68-.24-1.13,0-.41.04-.75.13-1.03.09-.28.2-.5.33-.67.14-.17.29-.29.45-.36"/>
      <path d="M11.52,2.09c.01-.1.02-.19.04-.28.03-.2.1-.37.21-.52.11-.16.28-.24.49-.24.31,0,.55.1.72.29.16.18.27.42.33.7.06.28.09.57.09.87s-.02.53-.07.7c-.05.18-.11.31-.19.4-.08.09-.17.14-.26.17-.09.02-.17.03-.25.03-.35,0-.63-.13-.82-.39-.19-.25-.29-.67-.29-1.27,0-.2,0-.36.01-.47M12.39,4.9c.2,0,.39-.05.55-.14.17-.09.32-.22.44-.36.13-.15.24-.31.32-.48.09-.17.15-.33.19-.47.03-.11.05-.23.07-.39.02-.14.03-.28.03-.42,0-.26-.03-.53-.08-.79-.05-.27-.14-.52-.26-.74-.12-.22-.28-.4-.47-.53-.2-.13-.44-.2-.73-.2-.23,0-.43.06-.61.19-.18.13-.34.3-.48.52-.13.22-.24.47-.31.74-.07.27-.11.55-.11.83,0,.52.07.95.2,1.29.13.33.31.57.53.73.22.16.46.23.73.23"/>
      <path d="M7.92,3.06s.1-.1.15-.17c.04-.06.09-.14.13-.22.05-.08.09-.17.14-.26.02-.06.02-.09.02-.09,0-.02,0-.04-.08-.04h-1.66c-.06,0-.11.03-.16.1-.07.09-.13.18-.2.28-.07.1-.12.2-.17.28-.06.11-.06.14-.06.14.02,0,.04.01.07.01h1.72s.05-.02.09-.05"/>
    </g>
  </g>
</svg>