<?xml version="1.0" encoding="UTF-8"?>
<svg id="Layer_2" data-name="Layer 2" xmlns="http://www.w3.org/2000/svg" viewBox="0 0 31.77 6.71">
  <defs>
    <style>
      .cls-1 {
        fill: none;
      }

      .cls-2 {
        fill: #231f20;
      }
    </style>
  </defs>
  <g id="Layer_1-2" data-name="Layer 1">
    <g>
      <path class="cls-1" d="M24.59,3.77c-.09-.07-.19-.1-.31-.1-.17,0-.3.05-.4.17-.11.11-.16.25-.16.42s.06.31.2.41c.14.11.28.16.42.16.22,0,.37-.04.44-.13.08-.09.12-.22.12-.38,0-.1-.03-.19-.08-.3-.06-.1-.13-.19-.22-.26Z"/>
      <path class="cls-2" d="M30.22,6.31c-.06,0-.1.02-.14.06-.04.04-.06.08-.06.14s.02.1.06.14c.08.08.21.08.28,0h0s.06-.09.06-.14-.02-.11-.05-.14c-.04-.04-.08-.06-.14-.06Z"/>
      <path class="cls-2" d="M31.31,1.61h-1.68c-.14,0-.24-.02-.31-.06-.09-.05-.14-.14-.15-.28-.01-.11-.02-.28-.02-.5,0-.14,0-.27-.03-.39-.02-.12-.04-.23-.07-.31-.02-.06-.04-.08-.04-.09,0,0-.02.02-.05.06-.05.06-.11.12-.17.2-.06.08-.12.16-.18.23-.05.07-.09.12-.11.15-.01.02-.01.04-.01.04,0,.02,0,.07.05.19.04.1.08.22.1.34.03.13.04.25.04.36,0,.25.01.44.04.57.02.1.06.17.11.19.06.04.16.05.29.05h1.56c.15,0,.27.06.36.16.08.1.12.26.12.49,0,.19-.03.38-.08.59-.06.21-.16.4-.3.55-.13.14-.32.27-.56.38-.23.11-.46.19-.67.24-.1.02-.14.04-.16.05-.02,0-.03.03-.05.05-.03.05-.07.13-.13.25-.06.12-.12.24-.16.36-.04.09-.06.14-.06.17.05,0,.12-.02.25-.05h0c.13-.04.27-.08.4-.13.14-.05.25-.09.34-.13.33-.15.63-.38.89-.7.26-.32.47-.7.62-1.12.06-.17.12-.39.17-.64.05-.24.08-.46.08-.66s-.03-.36-.1-.48c-.04-.07-.11-.16-.35-.16Z"/>
      <path d="M7.22,3.14s-.08,0-.14.09c-.06.08-.13.18-.19.28-.07.1-.12.19-.16.27-.05.1-.05.13-.05.13,0-.01.03,0,.05,0h1.69s.04-.02.07-.04c.05-.04.09-.1.14-.16.04-.06.09-.13.13-.21.04-.08.09-.17.13-.26.02-.06.02-.08.02-.08,0,0-.01-.02-.06-.02h-1.63Z"/>
      <path d="M1.85.9c-.21,0-.43.01-.67.03-.25.02-.48.05-.7.08-.18.03-.34.05-.48.09l.02.1s.09-.01.14-.02l.4-.05v4.05c0,.14-.15.23-.53.32v.04h1.98c.23,0,.48-.04.72-.13.24-.08.47-.22.68-.41.21-.19.38-.44.51-.75.13-.31.2-.69.2-1.15,0-.69-.2-1.24-.59-1.62-.4-.38-.96-.58-1.67-.58ZM3.3,4.19c-.1.27-.22.49-.38.66-.16.18-.32.31-.51.39-.18.08-.36.13-.53.13-.16,0-.31-.02-.44-.05-.24-.05-.27-.22-.27-.31V1.07h.1c.11-.01.21-.02.32-.02.6,0,1.06.2,1.38.58.32.38.47.92.47,1.61,0,.36-.05.68-.14.95Z"/>
      <path d="M14.22,1.97c-.12-.22-.27-.39-.46-.52-.19-.13-.43-.19-.71-.19-.22,0-.42.06-.59.18-.18.12-.33.29-.46.5-.13.21-.23.46-.3.72-.07.27-.11.54-.11.81,0,.51.07.93.19,1.25.13.32.3.56.51.71.21.15.45.23.71.23.19,0,.37-.04.53-.13h0c.16-.09.31-.21.43-.35.12-.14.23-.3.31-.47.08-.16.15-.32.19-.46.03-.11.05-.24.07-.37.02-.14.03-.27.03-.41,0-.25-.03-.51-.08-.77-.05-.26-.14-.5-.25-.72ZM13.94,4.43c-.05.18-.11.31-.19.4-.08.09-.17.15-.27.17-.09.02-.17.03-.25.03-.35,0-.63-.13-.83-.39-.19-.25-.29-.66-.29-1.26,0-.21,0-.36.01-.46,0-.1.02-.19.03-.28.03-.2.1-.37.2-.52.11-.16.28-.24.5-.24.31,0,.55.1.72.29.16.18.27.42.33.7.06.28.09.57.09.86s-.02.52-.07.69Z"/>
      <path d="M19.86,1.97c-.12-.22-.27-.39-.46-.52-.19-.13-.43-.19-.71-.19-.22,0-.42.06-.59.18-.18.12-.33.29-.46.5-.13.22-.23.46-.3.72-.07.26-.11.54-.11.81,0,.51.07.93.19,1.25.13.32.3.55.51.71.21.15.45.23.71.23.2,0,.37-.04.53-.13.16-.09.3-.21.43-.35.13-.15.23-.3.31-.47.08-.16.15-.32.19-.46.03-.11.05-.24.07-.37.02-.14.03-.28.03-.41,0-.25-.03-.51-.08-.77-.05-.26-.14-.5-.25-.72ZM19.57,4.43c-.05.18-.11.31-.19.4-.08.09-.17.15-.27.17-.09.02-.17.03-.25.03-.35,0-.63-.13-.83-.39h0c-.19-.25-.28-.66-.28-1.26,0-.2,0-.36.01-.46,0-.1.02-.19.04-.28.03-.19.1-.37.2-.51.11-.16.28-.24.5-.24.31,0,.55.1.72.29.16.18.27.41.33.7.06.27.09.56.09.86s-.02.52-.07.69Z"/>
      <path d="M25.21,3.11c-.15-.11-.34-.16-.56-.16-.16,0-.22.02-.24.03-.09.05-.12.05-.15.05-.08,0-.14-.06-.14-.13,0-.04.01-.05.06-.13.07-.11.16-.25.27-.42.11-.17.23-.34.36-.52.13-.18.25-.34.36-.49.02-.03.05-.06.07-.1,0,0,0,0,0,0,0,0-.01,0-.02,0-.04.01-.08.03-.12.04-.08.03-.18.06-.29.11-.11.04-.19.08-.26.12-.05.03-.1.06-.14.1-.04.04-.08.09-.13.15-.13.17-.28.38-.46.64-.17.25-.34.51-.48.78-.11.21-.22.43-.32.65-.09.22-.14.43-.14.62,0,.26.06.48.19.66.13.18.29.32.48.41.4.2.83.18,1.17-.02.18-.11.35-.24.49-.41.14-.17.25-.34.33-.52.08-.18.12-.34.12-.48,0-.19-.04-.37-.12-.55-.08-.17-.2-.31-.35-.42ZM24.94,4.85c-.12.14-.31.21-.61.21-.19,0-.38-.07-.56-.21-.18-.15-.28-.34-.28-.58,0-.22.07-.41.22-.57.14-.16.33-.24.56-.24.17,0,.32.05.44.14.12.09.21.2.28.33.07.13.1.27.1.4,0,.21-.06.39-.16.52Z"/>
    </g>
  </g>
</svg>