<?xml version="1.0" encoding="UTF-8"?>
<svg id="Layer_2" data-name="Layer 2" xmlns="http://www.w3.org/2000/svg" viewBox="0 0 31.77 6.71">
  <defs>
    <style>
      .cls-1 {
        fill: none;
      }

      .cls-2 {
        fill: #231f20;
      }
    </style>
  </defs>
  <g id="Layer_1-2" data-name="Layer 1">
    <g>
      <path class="cls-1" d="M24.35,2.62c-.01-.14-.02-.27-.04-.37,0,0,0,0,0,0-.09.05-.16.1-.23.16-.07.05-.14.14-.21.25-.07.12-.13.25-.18.38-.05.14-.08.25-.08.33,0,.01,0,.02,0,.03.04,0,.09.01.14.01h.64c0-.1,0-.21,0-.35,0-.14-.01-.29-.03-.44Z"/>
      <path class="cls-1" d="M1.59,1.27c-.07,0-.14,0-.21,0v3.75s0,.07.11.1h0c.23.05.52.08.84-.07.15-.07.3-.19.44-.34.14-.15.25-.35.34-.59.09-.24.13-.54.13-.88,0-.64-.14-1.13-.42-1.47-.28-.34-.68-.5-1.22-.5Z"/>
      <path class="cls-1" d="M19.06,2.32c-.13-.14-.31-.22-.55-.22-.14,0-.25.05-.32.15-.08.12-.14.26-.17.43-.01.08-.03.17-.03.26,0,.09-.01.24-.01.44,0,.54.08.92.24,1.13.16.2.37.3.65.3.06,0,.12,0,.19-.03.06-.02.11-.05.16-.11.06-.06.1-.16.14-.31.04-.15.06-.36.06-.64s-.03-.56-.08-.82c-.05-.25-.15-.45-.28-.6Z"/>
      <path class="cls-1" d="M13.42,2.32c-.13-.14-.31-.22-.55-.22-.14,0-.25.05-.32.15-.08.12-.14.26-.17.43-.01.08-.02.17-.03.26,0,.09-.01.24-.01.44,0,.54.08.92.24,1.13.15.21.37.3.65.3.06,0,.12,0,.19-.03.06-.02.11-.05.16-.11.06-.06.1-.17.14-.31.04-.15.06-.37.06-.64s-.03-.55-.08-.82c-.05-.25-.15-.45-.28-.6Z"/>
      <path class="cls-2" d="M19.86,1.97c-.11-.21-.27-.39-.46-.52-.19-.13-.43-.19-.71-.19-.22,0-.42.06-.59.18-.18.13-.34.29-.46.5-.13.22-.23.46-.3.72-.07.26-.11.54-.11.81,0,.51.07.93.2,1.25.13.32.3.55.51.71.21.15.45.23.71.23.2,0,.37-.04.53-.13.16-.09.31-.21.43-.35.13-.15.23-.31.31-.47.08-.16.15-.32.19-.46.03-.11.05-.24.07-.37.02-.14.03-.27.03-.41,0-.25-.03-.51-.08-.77-.05-.26-.14-.5-.26-.72ZM19.57,4.43c-.05.18-.11.31-.19.4-.08.09-.17.15-.27.17-.09.02-.17.03-.25.03-.35,0-.63-.13-.83-.39h0c-.19-.25-.28-.66-.28-1.26,0-.2,0-.36.01-.46,0-.1.02-.19.04-.28.03-.19.1-.37.2-.51.11-.16.28-.24.49-.24.31,0,.55.1.72.29.16.18.27.41.33.7.06.27.09.56.09.86s-.02.52-.07.69Z"/>
      <path class="cls-2" d="M30.22,6.31c-.06,0-.1.02-.14.06-.04.04-.06.08-.06.14s.02.1.06.14c.08.08.21.08.28,0h0s.06-.09.06-.14-.02-.11-.05-.14c-.04-.04-.08-.06-.14-.06Z"/>
      <path class="cls-2" d="M1.85.89c-.21,0-.43.01-.67.03-.25.02-.48.05-.7.08-.18.03-.34.05-.48.09l.02.1s.09-.01.14-.02l.4-.05v4.05c0,.14-.15.23-.53.32v.04h1.98c.23,0,.48-.04.72-.13.24-.08.47-.22.68-.41.21-.19.38-.44.51-.75.13-.31.2-.69.2-1.15,0-.69-.2-1.24-.59-1.62-.4-.38-.96-.58-1.67-.58ZM3.3,4.19c-.09.27-.22.49-.38.66-.16.18-.33.31-.51.39-.18.08-.36.13-.53.13-.16,0-.31-.02-.44-.05-.24-.05-.27-.22-.27-.31V1.07h.1c.11-.01.21-.02.32-.02.6,0,1.06.2,1.38.58.32.38.47.92.47,1.61,0,.36-.05.68-.14.95Z"/>
      <path class="cls-2" d="M14.22,1.97c-.12-.22-.27-.39-.46-.52-.19-.13-.43-.19-.71-.19-.22,0-.41.06-.59.18-.18.12-.33.29-.46.5-.13.21-.23.46-.3.72-.07.26-.11.54-.11.81,0,.51.07.93.19,1.25.13.32.3.56.51.71.21.15.45.23.71.23.19,0,.37-.04.53-.13h0c.16-.09.31-.21.43-.35.12-.14.23-.3.31-.47.08-.16.15-.32.19-.46.03-.11.05-.23.07-.37.02-.13.03-.27.03-.41,0-.25-.03-.51-.08-.77-.05-.26-.14-.5-.25-.72ZM13.94,4.43c-.04.17-.11.31-.19.4-.08.09-.17.15-.27.17-.09.02-.17.03-.25.03-.35,0-.63-.13-.82-.39-.19-.25-.29-.66-.29-1.26,0-.21,0-.36.01-.46,0-.1.02-.19.03-.28.03-.2.1-.37.2-.52.11-.16.28-.24.5-.24.31,0,.55.1.72.29.16.18.27.42.33.7.06.28.09.57.09.86s-.02.52-.07.69Z"/>
      <path class="cls-2" d="M7.22,3.14s-.08,0-.14.09c-.06.08-.13.18-.19.28-.06.1-.12.19-.16.27-.05.1-.05.13-.05.13,0-.01.03,0,.05,0h1.69s.04-.02.07-.04c.05-.04.09-.1.14-.16.04-.06.09-.13.13-.21.04-.08.09-.17.13-.26.02-.06.02-.08.02-.08,0,0-.01-.02-.06-.02h-1.63Z"/>
      <path class="cls-2" d="M25.09,3.45v-.3c0-.17-.01-.38-.02-.62,0-.24-.02-.47-.03-.71-.01-.24-.03-.42-.05-.56,0-.03-.01-.04-.01-.04h0s-.09.01-.19.06c-.1.04-.17.08-.23.11-.2.11-.38.24-.55.38-.17.15-.31.33-.44.53-.23.36-.41.7-.54,1.02-.13.3-.19.53-.19.67,0,.12.02.21.07.26.04.05.13.08.25.08h1.2c.11,0,.22.06.22.25,0,.04,0,.13,0,.26l.02.45c0,.16,0,.29,0,.39,0,.01,0,.02,0,.03.01-.01.03-.04.06-.07h0c.07-.09.13-.16.19-.23.05-.07.1-.14.15-.21.03-.05.05-.1.06-.14.01-.05.02-.1.02-.15v-.33c0-.22.14-.24.18-.24h.25s.04-.02.08-.09c.04-.07.08-.16.12-.26.04-.1.08-.18.11-.26.01-.03.02-.06.03-.09,0,0,0,0,0,0h-.58c-.14,0-.19-.09-.19-.17ZM24.41,3.62h-.66c-.07,0-.13,0-.2-.02h0s-.16-.06-.16-.23c0-.11.03-.24.09-.41.06-.15.13-.29.2-.42.08-.14.17-.24.26-.31.08-.06.16-.12.25-.17.05-.04.11-.06.16-.06.1,0,.15.06.16.12,0,.02,0,.05.01.08.02.11.03.25.04.4.01.15.02.3.03.45,0,.15,0,.27,0,.36,0,.15-.1.21-.19.21Z"/>
      <path class="cls-2" d="M31.31,1.61h-1.68c-.14,0-.24-.02-.31-.06-.09-.05-.14-.14-.15-.28-.01-.11-.02-.28-.02-.5,0-.13,0-.26-.03-.39-.02-.12-.04-.23-.07-.31-.02-.06-.04-.08-.04-.09,0,0-.02.02-.05.06-.05.06-.11.12-.17.2-.07.08-.13.16-.18.23l-.11.15s-.01.04-.01.04c0,.02,0,.07.05.19.04.1.07.21.1.34.03.13.04.25.04.36,0,.25.01.45.04.57.02.1.06.17.11.19.06.04.16.05.29.05h1.56c.15,0,.27.06.36.17.08.1.12.26.12.49,0,.19-.03.39-.08.59-.06.21-.16.4-.3.55-.14.14-.32.27-.56.38-.23.11-.46.19-.67.24-.1.03-.14.04-.15.05-.02.01-.04.03-.05.05-.03.05-.07.14-.13.26-.06.12-.12.24-.16.36-.04.09-.06.14-.06.17.04,0,.12-.01.25-.05h0c.13-.04.27-.08.4-.13.14-.05.25-.09.34-.13.33-.15.63-.38.89-.7.26-.32.47-.7.62-1.11.06-.17.12-.39.18-.64.05-.25.08-.47.08-.66s-.03-.35-.1-.49c-.05-.11-.17-.16-.35-.16Z"/>
    </g>
  </g>
</svg>