<?xml version="1.0" encoding="UTF-8"?>
<svg id="Layer_2" data-name="Layer 2" xmlns="http://www.w3.org/2000/svg" viewBox="0 0 3.27 6.73">
  <g id="Layer_1-2" data-name="Layer 1-2">
    <g>
      <path d="M2.82,1.63h-1.68c-.14,0-.24-.02-.31-.06-.09-.05-.14-.14-.15-.28-.01-.11-.02-.27-.02-.5,0-.13,0-.26-.03-.39-.02-.13-.04-.23-.07-.31-.02-.06-.04-.08-.04-.09,0,0-.02.02-.05.06-.05.06-.11.12-.17.2-.07.08-.12.16-.18.23L.01.64v.04s-.01.07.04.19c.04.1.08.22.1.34.03.13.04.25.04.36,0,.25.01.45.04.57.02.1.06.17.11.19.06.04.16.05.29.05h1.56c.15,0,.27.06.36.17.08.1.12.26.12.49,0,.19-.03.39-.08.59-.06.21-.16.4-.3.55-.14.14-.32.27-.56.38-.23.11-.46.19-.67.24-.1.02-.14.04-.15.05-.02.01-.04.03-.05.05-.03.05-.07.13-.13.25s-.12.24-.16.36c-.04.09-.06.14-.06.17.05,0,.12-.02.25-.05h0c.13-.04.26-.08.4-.13s.25-.09.34-.13c.33-.15.63-.38.89-.7.26-.32.47-.7.62-1.11.06-.18.12-.39.18-.64.05-.25.08-.47.08-.66s-.03-.35-.1-.49c-.05-.11-.17-.16-.35-.16v.02Z"/>
      <path d="M1.73,6.33c-.06,0-.1.02-.14.06-.04.04-.06.08-.06.14s.02.1.06.14c.08.08.21.08.28,0h0s.06-.09.06-.14-.02-.1-.05-.14c-.04-.04-.08-.06-.14-.06h-.01Z"/>
    </g>
  </g>
</svg>