<?xml version="1.0" encoding="UTF-8"?>
<svg id="Layer_2" data-name="Layer 2" xmlns="http://www.w3.org/2000/svg" viewBox="0 0 3.61 6.55">
  <g id="Layer_1-2" data-name="Layer 1-2">
    <g>
      <path d="M1.64,6.11c-.06,0-.11.02-.16.06-.05.05-.07.1-.07.16s.02.11.06.16c.08.08.23.09.32,0,.04-.04.06-.09.06-.16s-.02-.12-.07-.16c-.04-.04-.1-.07-.16-.07"/>
      <path d="M1.44,2.56s.06-.1.06-.15c0-.07-.02-.12-.06-.16-.04-.04-.09-.06-.16-.06s-.11.02-.16.06c-.04.04-.07.09-.07.16,0,.06.02.11.07.15.09.09.23.08.31,0"/>
      <path d="M.97,5.17c-.06,0-.12.02-.16.06-.05.04-.07.09-.07.16s.02.12.07.16c.09.09.23.09.31,0,.04-.04.06-.1.06-.16s-.02-.12-.06-.16c-.04-.04-.09-.06-.15-.06"/>
      <path d="M3.09,3.46c-.05-.08-.07-.21-.08-.41,0-.29-.02-.57-.02-.84v-.82c0-.17-.02-.34-.07-.5-.04-.15-.12-.27-.25-.36-.12-.09-.3-.14-.55-.14h-1.05c-.1,0-.17-.04-.22-.12-.03-.05-.06-.11-.07-.18,0-.03-.02-.06-.03-.09h-.01s-.05.07-.08.11c-.08.11-.16.24-.25.39-.08.14-.16.27-.23.38l-.03.05c-.09.15-.1.19-.1.2,0,.04.01.05.02.05.04.02.09.03.14.03h1.7c.28,0,.45.16.49.44,0,.05.01.15.02.31,0,.15.02.32.02.51s.01.37.02.54v.39s-.01.08-.04.13c-.03.05-.1.08-.18.08H.48s-.08.02-.11.06c-.07.11-.13.21-.17.3-.05.09-.11.22-.18.4-.02.05-.02.07-.02.07h3.1s.1-.02.17-.14c.06-.11.12-.22.19-.34.06-.11.1-.2.12-.26.03-.07.03-.09.03-.09h-.24c-.15,0-.23-.08-.27-.14"/>
      <path d="M2.32,5.17c-.07,0-.12.02-.16.06-.04.04-.06.09-.06.16s.02.12.06.16c.09.09.23.09.31,0,.04-.05.06-.1.06-.16s-.02-.11-.06-.16c-.04-.04-.09-.06-.15-.06"/>
    </g>
  </g>
</svg>