<?xml version="1.0" encoding="UTF-8"?>
<svg id="Layer_2" data-name="Layer 2" xmlns="http://www.w3.org/2000/svg" viewBox="0 0 32.6 6.78">
  <g id="Layer_1-2" data-name="Layer 1">
    <g>
      <path d="M13.66,3.5c-.05.18-.11.31-.19.4-.08.09-.17.14-.27.17-.09.02-.17.03-.25.03-.35,0-.63-.13-.83-.39-.19-.25-.29-.67-.29-1.27,0-.21,0-.37.01-.47.01-.1.02-.19.03-.28.03-.2.1-.37.2-.52.11-.16.28-.24.49-.24.31,0,.55.1.72.29.16.18.27.42.33.7.06.28.09.57.09.87s-.02.52-.07.7M13.51.46c-.2-.13-.44-.2-.74-.2-.23,0-.43.06-.61.19-.18.13-.34.3-.48.52-.13.22-.24.47-.31.74-.07.27-.11.55-.11.83,0,.52.07.95.2,1.29.13.33.31.57.53.73.22.16.46.23.73.23.2,0,.38-.05.55-.14.17-.09.31-.22.44-.36.13-.15.23-.31.32-.48.09-.17.15-.33.19-.47.03-.11.05-.24.07-.38.02-.14.03-.28.03-.42,0-.25-.03-.52-.08-.79-.05-.27-.14-.52-.26-.74-.12-.22-.28-.4-.48-.53"/>
      <path d="M31.49,5.78s.06-.1.06-.16-.02-.11-.06-.16c-.04-.04-.09-.06-.16-.06s-.11.02-.16.06c-.04.04-.06.09-.06.16s.02.12.06.16c.09.09.23.09.31,0"/>
      <path d="M29.97,5.4c-.06,0-.11.02-.16.06-.05.04-.07.09-.07.16s.02.12.07.16c.09.09.23.09.31,0,.04-.04.06-.1.06-.16s-.02-.12-.06-.16c-.04-.04-.09-.06-.15-.06"/>
      <path d="M32.1,3.69c-.05-.08-.07-.21-.08-.41-.01-.29-.02-.57-.02-.84,0-.27,0-.55,0-.82,0-.18-.02-.35-.07-.5-.04-.15-.12-.27-.25-.36-.12-.09-.31-.14-.55-.14h-1.05c-.1,0-.17-.04-.22-.12-.03-.05-.06-.11-.07-.18,0-.03-.02-.06-.03-.09,0,0,0,0,0,.01-.03.03-.05.06-.08.1-.08.1-.16.24-.26.4-.1.16-.18.31-.26.43-.09.15-.1.19-.1.2,0,.04.01.05.02.05.04.02.09.03.14.03h1.7c.28,0,.45.16.49.44,0,.05.01.15.02.31,0,.15.02.32.02.51,0,.19.01.37.02.54,0,.17,0,.3,0,.39,0,.04-.01.08-.03.12-.03.06-.1.08-.18.08h-1.76s-.08.02-.11.06c-.07.11-.13.21-.17.3-.05.09-.11.22-.18.4-.02.05-.02.07-.02.07h3.1s.09,0,.16-.14c.06-.11.12-.22.19-.34.06-.11.1-.2.12-.26.03-.07.03-.09.03-.09h-.24c-.15,0-.23-.08-.27-.14"/>
      <path d="M17.78,1.98c0-.1.02-.19.04-.28.03-.2.1-.37.21-.52.11-.16.28-.24.49-.24.31,0,.55.09.72.29.16.18.27.42.33.7.06.28.09.57.09.87s-.02.53-.07.7c-.05.18-.11.31-.19.4-.08.09-.17.14-.26.17-.09.02-.17.03-.25.03-.35,0-.63-.13-.83-.39-.19-.26-.29-.67-.29-1.27,0-.22,0-.37.01-.47M17.92,4.55c.22.16.46.23.73.23.2,0,.39-.05.55-.14.17-.09.31-.22.44-.36.13-.15.24-.31.32-.48.09-.17.15-.33.19-.47.03-.11.06-.24.07-.38.02-.14.03-.28.03-.42,0-.26-.03-.53-.08-.79-.05-.27-.14-.52-.26-.74-.12-.22-.28-.4-.48-.53-.2-.13-.44-.2-.74-.2-.23,0-.43.06-.61.19-.18.13-.35.3-.48.52-.14.22-.24.47-.31.74-.07.27-.11.55-.11.83,0,.52.07.95.2,1.29.13.33.31.57.53.73"/>
      <path d="M30.29,2.42c-.06,0-.11.02-.16.06-.05.04-.07.09-.07.16,0,.06.02.1.07.15.09.09.23.08.31,0,.04-.04.06-.09.06-.15,0-.07-.02-.12-.06-.16-.04-.04-.09-.06-.15-.06"/>
      <path d="M30.43,6.56c0,.06.02.12.06.16.08.09.23.08.32,0,.04-.04.06-.09.06-.16s-.02-.11-.07-.16c-.04-.04-.1-.07-.16-.07s-.11.02-.16.07c-.04.04-.06.1-.06.16"/>
      <path d="M6.5,2.27c-.07.09-.13.18-.2.29-.07.11-.12.2-.16.28-.06.11-.06.14-.06.15.02,0,.04.01.07.01h1.72s.04,0,.09-.05c.05-.05.1-.1.15-.17.05-.06.09-.14.13-.22.04-.08.09-.17.13-.26.02-.06.03-.09.03-.09,0-.02,0-.04-.09-.04h-1.66c-.06,0-.11.03-.16.1"/>
      <path d="M23.74,3.94c-.04.1-.07.23-.1.37-.03.15-.04.32-.04.51,0,.02,0,.03,0,.03,0,0,0-.02,0-.02.01,0,.03-.02.04-.03.11-.08.22-.18.35-.31.13-.12.24-.24.35-.36.02-.02.03-.05.05-.09.01-.04.02-.09.02-.13,0-.06.02-.14.05-.23.02-.09.05-.17.08-.25.07-.19.17-.4.31-.64.13-.23.26-.43.38-.6l.31-.43c.12-.17.23-.34.32-.5.06-.12.12-.25.18-.38.05-.12.07-.21.07-.26,0-.02,0-.05-.02-.07,0,0-.03-.02-.09-.02h-1.85c-.13,0-.21-.02-.26-.08-.05-.04-.08-.11-.12-.22v-.02h0s-.04.01-.06.05c-.04.06-.09.14-.16.25-.07.1-.13.22-.2.34-.07.12-.12.22-.17.32-.02.03-.03.06-.04.09-.01.03-.02.04-.02.05,0,.01,0,.03.08.03h1.7c.16,0,.21.09.21.17,0,.11-.06.25-.17.44-.11.17-.22.35-.34.54-.17.27-.33.52-.49.77-.16.24-.27.46-.35.66"/>
      <path d="M3.4,3.68c-.07.17-.13.3-.19.4-.08.12-.18.21-.3.26-.11.05-.25.07-.42.07h-.42c-.23,0-.4,0-.52-.03-.13-.02-.22-.06-.27-.11-.05-.05-.08-.12-.08-.19v-1.77s.04-.09.09-.09h.54c.23,0,.39.02.51.05.09.03.18.07.25.13.03-.03.07-.08.12-.14.05-.07.09-.14.12-.19l-.05-.05h-1.49s-.09-.04-.09-.09V.33s.04-.09.09-.09h1.33c.32,0,.38.45.4.69h.1c.02-.06.03-.13.05-.21.02-.12.04-.25.06-.38.01-.11.02-.2.03-.28l-.08-.07H0v.08c.16.04.28.07.36.12.08.04.18.1.18.19v3.88c0,.14-.15.22-.54.31v.08h3.36c.02-.07.04-.18.06-.36.03-.19.05-.38.07-.58l-.09-.03Z"/>
    </g>
  </g>
</svg>