<?xml version="1.0" encoding="UTF-8"?>
<svg id="Layer_2" data-name="Layer 2" xmlns="http://www.w3.org/2000/svg" viewBox="0 0 32.6 6.78">
  <g id="Layer_1-2" data-name="Layer 1">
    <g>
      <path d="M31.49,5.78s.06-.1.06-.16-.02-.11-.06-.16c-.04-.04-.09-.06-.16-.06s-.11.02-.16.06c-.04.05-.06.09-.06.16s.02.12.06.16c.08.09.23.09.31,0"/>
      <path d="M30.45,2.79s.06-.09.06-.15c0-.07-.02-.12-.06-.16-.04-.04-.09-.06-.15-.06s-.11.02-.16.06c-.05.04-.07.09-.07.16,0,.06.02.11.07.15.09.09.23.09.31,0"/>
      <path d="M29.98,5.4c-.06,0-.12.02-.16.06-.04.04-.07.09-.07.16s.02.12.07.16c.09.09.23.08.31,0,.04-.04.06-.1.06-.16s-.02-.11-.06-.16c-.04-.04-.09-.06-.15-.06"/>
      <path d="M30.81,6.72s.06-.09.06-.16-.02-.11-.07-.16c-.04-.04-.09-.07-.16-.07s-.11.02-.16.07c-.04.04-.06.1-.06.16s.02.11.06.16c.08.08.23.08.32,0"/>
      <path d="M32.1,3.69c-.05-.08-.07-.21-.08-.41-.01-.29-.02-.57-.02-.84,0-.27,0-.54,0-.82,0-.18-.02-.35-.07-.51-.04-.15-.12-.27-.25-.36-.12-.09-.31-.14-.55-.14h-1.05c-.1,0-.17-.04-.22-.12-.03-.06-.06-.12-.07-.18-.01-.03-.02-.06-.04-.09-.03.04-.06.08-.09.11-.08.11-.16.24-.25.39-.1.16-.18.31-.25.43-.09.15-.1.19-.1.2,0,.04.01.05.02.05.04.02.09.03.14.03h1.7c.28,0,.45.16.49.44,0,.05.01.15.02.31,0,.15.02.32.02.51,0,.19.01.37.02.54,0,.17,0,.3,0,.39,0,.05-.01.09-.04.13-.03.05-.09.08-.18.08h-1.76s-.08.02-.11.07c-.07.1-.12.2-.17.3-.05.09-.11.22-.18.4-.02.05-.02.07-.02.07h3.1s.09,0,.16-.14c.06-.11.12-.22.19-.34.06-.12.1-.2.12-.26.02-.07.03-.09.03-.09h-.24c-.15,0-.23-.08-.27-.14"/>
      <path d="M3.2,4.07c-.08.12-.18.21-.29.26-.11.05-.25.07-.42.07h-.42c-.23,0-.4,0-.52-.03-.13-.02-.22-.06-.27-.11-.05-.05-.08-.12-.08-.19v-1.77s.04-.09.09-.09h.54c.23,0,.4.02.51.05.09.03.18.07.25.13.03-.03.07-.08.12-.14.05-.07.09-.14.12-.19l-.04-.05h-1.49s-.09-.04-.09-.09V.33c0-.05.04-.09.09-.09h1.33c.32,0,.38.45.4.69h.1c.01-.06.03-.13.04-.21.02-.12.04-.25.06-.38.01-.11.02-.2.03-.28l-.08-.07H0v.08c.16.03.28.07.36.12.08.04.18.1.18.19v3.88c0,.14-.15.22-.54.31v.08h3.36c.01-.07.03-.18.06-.36.03-.19.05-.38.07-.58l-.09-.03c-.07.17-.13.3-.19.4"/>
      <path d="M24.57,2.54c.17,0,.31.05.44.14.12.09.21.2.28.33.07.13.1.26.1.39,0,.21-.05.39-.16.52-.11.14-.31.2-.61.2-.19,0-.38-.07-.56-.21-.18-.15-.27-.34-.27-.58,0-.22.07-.41.21-.56.14-.15.33-.23.56-.23M25.57.27s.02-.04.02-.04c0,0-.03,0-.06.02h-.04s-.05.03-.08.04c-.09.03-.18.07-.29.11-.1.04-.19.08-.26.12-.06.03-.11.07-.15.11-.05.04-.09.09-.14.16-.13.17-.28.37-.47.65-.18.26-.34.53-.49.79-.11.21-.22.43-.32.66-.1.22-.15.44-.15.64,0,.27.07.49.2.68.14.19.3.33.5.43.42.2.86.19,1.21-.02h0c.19-.11.36-.25.51-.42.15-.17.26-.35.34-.54.08-.18.12-.35.12-.5,0-.2-.04-.39-.12-.57-.08-.18-.21-.32-.36-.44-.16-.11-.35-.17-.58-.17-.15,0-.22.02-.25.03-.09.04-.12.05-.14.05-.07,0-.12-.05-.12-.11,0-.03,0-.05.06-.12.07-.11.16-.26.28-.43.11-.17.24-.35.36-.53.13-.18.25-.35.37-.49.03-.04.05-.07.07-.1"/>
      <path d="M13.67,3.5c-.05.18-.11.31-.19.4-.08.09-.17.14-.26.17-.09.02-.17.03-.25.03-.35,0-.63-.13-.83-.39-.19-.25-.29-.67-.29-1.27,0-.21,0-.37.01-.47.01-.1.02-.19.03-.28.03-.2.1-.37.21-.52.11-.16.28-.24.49-.24.31,0,.55.1.72.29.16.18.27.42.33.7.06.28.09.57.09.87s-.02.52-.07.7M13.51.45c-.2-.13-.44-.2-.74-.2-.23,0-.43.06-.61.19-.18.13-.34.3-.48.52-.13.22-.24.47-.31.74-.07.27-.11.55-.11.83,0,.52.07.95.2,1.29.13.33.31.57.53.73.22.16.47.23.73.23.2,0,.38-.05.55-.14.17-.09.31-.22.44-.36.13-.15.24-.31.32-.48.09-.17.15-.33.19-.47.03-.11.05-.24.07-.38.02-.14.03-.28.03-.42,0-.25-.03-.52-.08-.79-.05-.27-.14-.52-.26-.74-.12-.22-.28-.4-.48-.53"/>
      <path d="M6.5,2.27c-.07.09-.13.18-.2.29-.07.11-.12.2-.17.28-.06.11-.06.14-.06.15.02,0,.04.01.07.01h1.72s.04,0,.09-.05c.05-.05.1-.1.15-.17.05-.06.09-.14.13-.21.04-.08.09-.17.13-.26.02-.06.03-.09.03-.09,0-.02,0-.04-.09-.04h-1.66c-.06,0-.11.03-.16.1"/>
      <path d="M17.78,1.98c0-.1.02-.19.04-.28.03-.2.1-.37.2-.52.11-.16.28-.24.49-.24.31,0,.55.09.71.29.16.18.27.42.33.7.06.28.09.57.09.87s-.02.53-.07.7c-.05.18-.11.31-.19.4-.08.09-.17.14-.26.17-.09.02-.17.03-.25.03-.35,0-.63-.13-.83-.39-.19-.26-.29-.67-.29-1.27,0-.22,0-.37.01-.47M17.92,4.55c.22.16.46.23.73.23.2,0,.39-.05.55-.14.17-.09.31-.22.44-.36.13-.15.24-.31.32-.48.09-.17.15-.33.19-.47.03-.11.05-.24.07-.38.02-.14.03-.28.03-.42,0-.26-.03-.53-.08-.79-.05-.27-.14-.52-.26-.74-.12-.22-.28-.4-.48-.53-.2-.13-.44-.2-.73-.2-.23,0-.43.06-.61.19-.18.13-.35.3-.48.52-.13.22-.24.47-.31.74-.07.27-.11.55-.11.83,0,.52.07.95.2,1.29.13.33.31.57.53.73"/>
    </g>
  </g>
</svg>