<?xml version="1.0" encoding="UTF-8"?>
<svg id="Layer_2" data-name="Layer 2" xmlns="http://www.w3.org/2000/svg" viewBox="0 0 32.6 6.78">
  <g id="Layer_1-2" data-name="Layer 1">
    <g>
      <path d="M30.45,2.79s.06-.09.06-.15c0-.07-.02-.12-.06-.16-.04-.04-.09-.06-.15-.06s-.12.02-.16.06c-.04.04-.07.09-.07.16,0,.06.02.11.07.15.09.09.23.08.31,0"/>
      <path d="M30.49,6.72c.08.08.23.09.32,0,.04-.04.06-.09.06-.16s-.02-.12-.07-.16c-.04-.04-.1-.07-.16-.07s-.11.02-.16.06c-.04.05-.06.1-.06.16s.02.11.06.16"/>
      <path d="M29.98,5.4c-.06,0-.12.02-.16.06-.05.04-.07.09-.07.16s.02.12.07.16c.09.09.23.09.31,0,.04-.04.06-.1.06-.16s-.02-.12-.06-.16c-.04-.04-.09-.06-.15-.06"/>
      <path d="M31.49,5.78s.06-.1.06-.16-.02-.11-.06-.16c-.04-.04-.09-.06-.15-.06s-.12.02-.16.06c-.04.04-.06.09-.06.16s.02.12.06.16c.09.09.23.09.31,0"/>
      <path d="M32.1,3.69c-.05-.08-.07-.21-.08-.41-.01-.29-.02-.57-.02-.84,0-.27,0-.55,0-.82,0-.17-.02-.34-.07-.5-.04-.15-.12-.27-.25-.36-.12-.09-.3-.14-.55-.14h-1.05c-.1,0-.17-.04-.22-.12-.03-.05-.06-.11-.07-.18,0-.03-.02-.06-.03-.09,0,0,0,0,0,.01-.03.03-.05.06-.08.1-.08.11-.16.24-.25.39-.09.14-.16.27-.23.38l-.03.05c-.09.15-.1.19-.1.2,0,.04.01.05.02.05.04.02.09.03.14.03h1.7c.28,0,.45.16.49.44,0,.05.01.15.02.31,0,.15.02.32.02.51,0,.19.01.37.02.54,0,.17,0,.3,0,.39,0,.04-.01.08-.04.13-.03.05-.1.08-.18.08h-1.76s-.08.02-.11.06c-.07.11-.13.21-.17.3-.04.09-.1.22-.18.4-.02.05-.02.07-.02.07h3.1s.1-.02.16-.14c.06-.11.12-.22.19-.34.06-.11.1-.2.12-.26.03-.07.03-.09.03-.09h-.24c-.15,0-.23-.08-.27-.14"/>
      <path d="M24.7,2.67h-.67c-.07,0-.14,0-.2-.02h0c-.05-.02-.14-.06-.14-.22,0-.11.03-.24.09-.41.06-.16.13-.3.2-.42.08-.14.17-.24.26-.31.08-.07.17-.12.25-.17.06-.04.11-.05.15-.05.11,0,.14.08.14.1,0,.03,0,.05.01.08.02.11.03.25.04.41.01.16.02.31.02.46,0,.15,0,.27,0,.37,0,.12-.07.19-.18.19M25.42,2.5s0-.08,0-.17v-.13c0-.18,0-.39-.02-.63,0-.24-.02-.48-.03-.72-.01-.23-.03-.42-.05-.58,0-.06-.03-.06-.05-.06-.02,0-.08,0-.2.06-.1.04-.18.08-.23.11-.2.11-.39.24-.56.39-.17.15-.32.34-.45.55-.24.38-.43.73-.56,1.04-.13.31-.19.54-.19.69,0,.12.03.22.08.28.05.06.14.08.27.08h1.22c.13,0,.21.09.21.23,0,.04,0,.13,0,.26,0,.14.01.29.01.46s0,.3,0,.4c0,.04,0,.06,0,.07,0-.01.04-.04.09-.1.07-.09.14-.17.19-.24.05-.07.1-.14.15-.21.03-.05.06-.1.07-.15.01-.05.02-.11.02-.16v-.34c0-.21.13-.22.17-.22h.26s.07-.04.1-.11c.04-.07.08-.16.13-.26.05-.1.08-.19.11-.27.01-.03.02-.06.03-.09,0-.02,0-.03,0-.03h-.61c-.13,0-.18-.09-.18-.16"/>
      <path d="M3.4,3.68c-.06.17-.13.3-.19.4-.08.12-.18.21-.29.26-.11.05-.25.07-.42.07h-.42c-.23,0-.4,0-.52-.03-.13-.02-.22-.06-.27-.11-.05-.05-.08-.12-.08-.19v-1.77s.04-.09.09-.09h.54c.23,0,.4.02.51.05.09.03.18.07.25.13.03-.03.07-.07.12-.14.05-.07.09-.14.13-.19l-.04-.05h-1.49c-.05,0-.09-.04-.09-.09V.33s.04-.09.09-.09h1.33c.32,0,.38.45.4.69h.1c.01-.06.03-.13.05-.21.02-.12.04-.25.06-.38.01-.11.02-.2.03-.28l-.08-.07H0v.08c.16.04.28.07.36.12.08.04.18.1.18.19v3.88c0,.14-.15.22-.54.31v.08h3.36c.02-.08.04-.21.06-.36.03-.19.05-.38.07-.58l-.09-.03Z"/>
      <path d="M17.78,1.98c0-.1.02-.19.03-.28.03-.2.1-.37.2-.52.11-.16.28-.24.49-.24.31,0,.55.09.72.29.16.18.27.42.33.7.06.28.09.57.09.87s-.02.53-.07.7c-.05.18-.11.31-.19.4-.08.09-.17.14-.26.17-.09.02-.17.03-.25.03-.35,0-.63-.13-.82-.39-.19-.26-.29-.67-.29-1.27,0-.22,0-.37.01-.47M17.92,4.55c.22.16.46.23.73.23.2,0,.39-.05.55-.14.17-.09.31-.21.44-.36.13-.15.24-.31.32-.48.09-.17.15-.33.19-.47.03-.11.05-.24.07-.38.02-.14.03-.28.03-.42,0-.26-.03-.53-.08-.79-.05-.27-.14-.52-.26-.74-.12-.22-.28-.4-.48-.53-.2-.13-.44-.2-.74-.2-.23,0-.43.06-.61.19-.18.13-.34.3-.48.52-.13.22-.24.47-.31.74-.07.27-.11.55-.11.83,0,.52.07.95.2,1.29.13.33.31.57.53.73"/>
      <path d="M6.3,2.55c-.07.11-.12.2-.17.28-.06.11-.06.14-.06.15.02,0,.04.01.07.01h1.72s.05-.02.09-.05c.05-.05.1-.1.15-.17.04-.06.09-.14.13-.21.05-.08.09-.17.14-.26.02-.06.03-.09.03-.09,0-.01,0-.04-.09-.04h-1.66s-.09.01-.16.1c-.06.09-.13.18-.2.29"/>
      <path d="M13.67,3.5c-.05.18-.11.31-.19.4-.08.09-.17.14-.26.17-.09.02-.17.03-.25.03-.35,0-.63-.13-.83-.39-.19-.25-.29-.67-.29-1.27,0-.22,0-.37.01-.47,0-.1.02-.19.03-.28.03-.2.1-.37.21-.52.11-.16.28-.24.49-.24.31,0,.55.1.71.29.16.18.27.42.33.7.06.28.09.57.09.87s-.02.52-.07.7M13.51.46c-.2-.13-.44-.2-.74-.2-.23,0-.43.06-.61.19-.18.13-.34.3-.48.52-.13.22-.24.47-.31.74-.07.27-.11.55-.11.83,0,.52.07.95.2,1.29.13.33.31.57.53.73.22.16.46.23.73.23.2,0,.39-.05.55-.14.17-.09.31-.22.44-.36.13-.15.23-.31.32-.48.09-.17.15-.33.19-.47.03-.11.05-.24.07-.38.02-.14.03-.28.03-.42,0-.26-.03-.52-.08-.79-.05-.27-.14-.52-.26-.74-.12-.22-.28-.4-.47-.53"/>
    </g>
  </g>
</svg>