<?xml version="1.0" encoding="UTF-8"?>
<svg id="Layer_2" data-name="Layer 2" xmlns="http://www.w3.org/2000/svg" viewBox="0 0 32.39 6.57">
  <g id="Layer_1-2" data-name="Layer 1">
    <g>
      <path d="M31.93.62c-.11,0-.19-.06-.22-.17-.02-.07-.03-.13-.03-.18,0-.03-.01-.04-.01-.04-.05,0-.12.03-.19.08-.08.06-.16.13-.22.19-.09.09-.15.12-.2.12h-1.03c-.15,0-.24-.04-.27-.13-.02-.05-.04-.12-.07-.21,0-.01,0-.02-.02-.04,0,0,0,0,0,0,0,0-.03.01-.05.05-.09.14-.18.29-.28.47-.11.19-.19.35-.26.49-.05.1-.06.13-.06.14,0,.03,0,.04.01.04.03.01.05.02.08.02h1.8c.05,0,.1.02.15.05.05.04.08.1.09.19.02.29.03.62.05.97.02.36.03.72.05,1.08.02.37.04.72.06,1.05,0,.02,0,.04.02.06,0-.01.04-.04.09-.13.06-.1.12-.2.17-.3.05-.1.1-.18.14-.26.03-.07.05-.13.06-.18,0-.05,0-.12,0-.2,0-.28-.01-.57-.03-.89-.02-.31-.03-.69-.03-1.18,0-.06.01-.11.04-.16.03-.07.1-.11.18-.11h.13s.04-.05.06-.08c.05-.1.1-.21.14-.34.05-.13.08-.23.1-.3.02-.05.02-.07.02-.09-.03-.01-.05-.01-.06-.01h-.4Z"/>
      <path d="M30.15,2.41c-.06,0-.11.02-.16.06-.05.04-.07.09-.07.16,0,.06.02.11.07.15.09.09.23.09.31,0h0s.06-.09.06-.15c0-.06-.02-.12-.06-.16-.04-.04-.09-.06-.15-.06"/>
      <path d="M25.45,2.48c-.11-.08-.22-.14-.33-.2-.04-.02-.13-.05-.13-.13,0-.04.02-.07.05-.11.15-.12.26-.24.37-.39.1-.14.15-.29.15-.45,0-.18-.05-.33-.14-.44-.1-.12-.23-.22-.38-.29-.16-.07-.33-.13-.51-.16-.18-.03-.35-.05-.51-.05-.04.03-.07.06-.1.11-.05.07-.11.16-.17.28-.07.11-.12.2-.15.27-.02.03-.02.05-.02.07.08,0,.17,0,.28,0,.11,0,.22.02.33.03.11.01.2.03.28.06.3.1.45.26.45.46,0,.16-.05.28-.14.37-.08.07-.18.13-.28.17-.08.04-.15.08-.2.14-.05.05-.1.11-.14.19-.05.08-.09.16-.12.24-.03.07-.04.11-.04.13.01,0,.04.01.1.02.07,0,.15.01.23.02.09.01.17.02.24.04.23.05.38.14.48.26.09.12.14.28.14.47,0,.13-.05.23-.14.3-.08.06-.18.1-.3.12-.2.03-.42.04-.66-.02-.11-.03-.21-.07-.33-.11-.02-.01-.04-.02-.05-.02,0,0-.01,0-.03.03-.02.02-.05.07-.12.18-.05.09-.11.19-.16.28-.05.09-.09.17-.12.22-.01.03-.01.04-.01.04,0,0,0,.01.05.04.06.03.15.05.26.08.12.03.23.05.34.06.12.02.21.03.28.03.14,0,.32-.03.53-.09h0c.2-.06.39-.16.54-.31.14-.14.28-.32.41-.52.12-.2.18-.42.18-.67,0-.17-.04-.31-.11-.42-.08-.12-.17-.22-.28-.29"/>
      <path d="M13.66,3.5c-.05.18-.11.31-.19.4-.08.09-.17.15-.27.17-.08.02-.17.03-.24.03-.35,0-.63-.13-.83-.39-.19-.25-.29-.67-.29-1.27,0-.21,0-.37.01-.47,0-.1.02-.19.04-.28.03-.2.1-.37.2-.52.11-.16.28-.24.49-.24.31,0,.55.1.71.29.16.18.27.42.33.7.06.28.09.57.09.87s-.02.53-.07.7M13.99.99c-.12-.22-.28-.4-.48-.53-.2-.13-.44-.2-.74-.2-.23,0-.43.06-.61.19-.18.13-.35.3-.48.52-.13.22-.24.47-.31.74-.07.27-.11.55-.11.83,0,.52.07.95.2,1.29.13.33.31.57.53.73.22.16.47.23.73.23.2,0,.39-.05.55-.14.16-.09.31-.21.44-.36.13-.15.24-.31.32-.48.08-.17.15-.33.19-.48.03-.11.05-.24.07-.38s.03-.28.03-.42c0-.26-.03-.53-.08-.79-.05-.27-.14-.52-.26-.74"/>
      <path d="M19.58,3.5c-.05.18-.11.31-.19.4-.08.09-.17.15-.27.17-.09.02-.17.03-.24.03-.35,0-.63-.13-.83-.39-.19-.25-.29-.67-.29-1.27,0-.21,0-.36.01-.47,0-.1.02-.19.04-.28.03-.2.1-.37.2-.52.11-.16.28-.24.49-.24.31,0,.55.1.71.29.16.18.27.42.33.7.06.27.09.57.09.87s-.02.52-.07.7M19.9.99c-.12-.22-.28-.4-.48-.53-.2-.13-.44-.2-.74-.2-.23,0-.43.06-.61.19-.18.13-.35.3-.48.52-.13.22-.24.47-.31.74-.07.27-.11.55-.11.83,0,.52.07.95.2,1.29.13.33.31.57.53.73.22.16.46.23.73.23.2,0,.39-.05.55-.14.17-.09.31-.22.44-.36.13-.15.24-.31.32-.48.08-.17.15-.33.19-.48.03-.11.05-.24.07-.38.02-.14.03-.28.03-.42,0-.26-.03-.52-.08-.79-.05-.26-.14-.51-.26-.74"/>
      <path d="M8.32,2.17h-1.66c-.06,0-.11.03-.16.1-.07.09-.13.18-.2.28-.07.1-.12.2-.17.28-.05.11-.06.14-.06.14.02,0,.04.01.07.01h1.73s.05-.02.09-.05c.04-.04.09-.09.15-.17.04-.06.09-.14.13-.22.04-.08.09-.17.13-.26.02-.06.02-.09.02-.09,0-.02,0-.04-.08-.04"/>
      <path d="M2.91,4.33c-.11.05-.25.07-.42.07h-.42c-.23,0-.4,0-.52-.03-.13-.03-.22-.06-.27-.11-.05-.05-.08-.12-.08-.19v-1.77s.04-.09.09-.09h.54c.23,0,.39.02.51.05.09.03.18.07.25.13.03-.04.07-.08.11-.14.05-.07.09-.14.12-.19l-.04-.05h-1.5s-.09-.04-.09-.09V.33c0-.05.04-.09.09-.09h1.33c.32,0,.38.45.4.69h.1c.01-.06.03-.13.04-.21.02-.12.04-.25.06-.38.01-.11.02-.2.03-.28l-.08-.07H0v.08c.16.03.28.07.36.12.08.04.18.11.18.2v3.88c0,.13-.16.22-.54.31v.08h3.36c.02-.08.04-.2.06-.36.03-.19.05-.38.07-.58l-.09-.03c-.07.17-.13.3-.19.4-.08.12-.18.21-.29.26"/>
      <path d="M31.34,5.4c-.07,0-.12.02-.16.06-.04.04-.06.09-.06.16s.02.12.06.16c.08.08.23.08.32,0,.04-.04.07-.09.07-.16s-.02-.11-.06-.15c-.05-.04-.1-.06-.16-.06"/>
      <path d="M31.34,6.13c-.07,0-.12.02-.16.06-.04.04-.06.09-.06.16s.02.12.06.16c.08.08.23.08.32,0,.04-.04.07-.09.07-.16s-.02-.11-.06-.15c-.05-.04-.1-.06-.16-.06"/>
    </g>
  </g>
</svg>