<?xml version="1.0" encoding="UTF-8"?>
<svg id="Layer_2" data-name="Layer 2" xmlns="http://www.w3.org/2000/svg" viewBox="0 0 32.39 6.57">
  <g id="Layer_1-2" data-name="Layer 1">
    <g>
      <path d="M31.34,5.4c-.07,0-.12.02-.16.06-.04.04-.06.09-.06.16,0,.06.02.11.06.16.08.09.23.08.32,0h0s.07-.09.07-.16-.02-.12-.06-.16c-.04-.04-.1-.06-.16-.06"/>
      <path d="M31.93.62c-.11,0-.19-.06-.22-.17-.01-.07-.03-.13-.04-.18,0-.03,0-.04,0-.04-.05,0-.12.03-.19.08-.08.06-.16.13-.22.19-.09.09-.15.12-.2.12h-1.04c-.14,0-.24-.04-.27-.13-.02-.05-.04-.12-.07-.22,0-.02-.01-.03-.02-.04h0s-.03.01-.05.05c-.09.14-.18.29-.28.47-.09.16-.18.32-.26.49-.05.1-.06.13-.06.14,0,.03.01.04.01.04.03.02.05.02.08.02h1.8c.06,0,.11.02.15.05.05.04.08.1.08.19.02.29.03.61.05.97.01.36.03.71.05,1.08s.04.71.06,1.05c0,.02,0,.04.02.06,0-.01.04-.04.1-.13.06-.1.12-.2.17-.3.05-.1.1-.18.13-.26.04-.09.06-.15.06-.18,0-.05,0-.12,0-.19,0-.3-.01-.6-.03-.89-.02-.32-.03-.71-.03-1.18,0-.05.01-.11.04-.16.03-.08.1-.12.18-.12h.13s.05-.05.06-.08c.05-.1.1-.21.14-.34.04-.13.08-.23.1-.3.02-.05.02-.07.03-.09-.03-.01-.04-.01-.06-.01h-.4Z"/>
      <path d="M30.15,2.41c-.06,0-.11.02-.16.07-.04.04-.07.09-.07.16,0,.06.02.1.07.15.09.09.23.08.31,0,.04-.04.06-.09.06-.15,0-.07-.02-.12-.06-.16-.04-.04-.09-.06-.15-.06"/>
      <path d="M8.32,2.17h-1.66c-.06,0-.11.03-.16.1-.07.09-.13.18-.2.28-.06.1-.12.19-.17.28-.05.11-.06.14-.06.14.02,0,.04.01.07.01h1.72s.06-.02.09-.05c.04-.04.09-.09.15-.17.04-.06.09-.14.13-.22.04-.08.09-.17.13-.26.02-.06.03-.09.03-.09,0-.02,0-.04-.08-.04"/>
      <path d="M25.23,3.92c-.11.14-.31.2-.6.2-.19,0-.38-.07-.56-.21h0c-.18-.15-.27-.34-.27-.58,0-.22.07-.41.21-.56.14-.16.33-.23.56-.23.17,0,.31.05.44.14.12.09.22.2.28.33.07.13.1.26.1.39,0,.21-.06.39-.16.52M25.52,2.15c-.16-.11-.35-.17-.58-.17-.16,0-.22.02-.25.03-.09.05-.12.05-.14.05-.07,0-.12-.05-.12-.11,0-.03,0-.05.06-.12.07-.12.16-.26.28-.43.11-.17.24-.35.36-.53.12-.17.25-.34.37-.5.03-.03.05-.07.07-.1.02-.03.02-.04.02-.04-.01,0-.03,0-.06.02l-.13.04c-.09.03-.19.06-.29.11-.1.04-.19.08-.26.12-.06.03-.11.07-.15.11-.04.04-.09.09-.14.16-.12.16-.27.37-.47.65-.17.25-.34.51-.49.79-.11.21-.22.44-.32.66-.1.22-.15.44-.15.64,0,.27.07.49.2.68.13.18.3.33.5.43.43.2.86.19,1.21-.02.19-.11.36-.25.51-.42.14-.17.26-.35.34-.54.08-.18.12-.35.12-.5,0-.2-.04-.39-.13-.57-.08-.18-.21-.33-.36-.44"/>
      <path d="M2.91,4.33c-.11.05-.25.07-.42.07h-.42c-.23,0-.4,0-.52-.03-.13-.03-.22-.06-.27-.11-.06-.05-.08-.12-.08-.19v-1.77s.04-.09.09-.09h.54c.23,0,.4.02.51.05.09.03.18.07.25.13.03-.04.07-.08.12-.14.05-.07.09-.14.12-.19l-.04-.05h-1.5s-.09-.04-.09-.09V.33c0-.05.04-.09.09-.09h1.33c.32,0,.38.45.4.69h.1c.01-.06.03-.13.04-.21.02-.12.04-.25.06-.38.01-.11.02-.2.03-.28l-.08-.07H0v.08c.16.03.28.07.36.12.08.04.18.11.18.2v3.88c0,.13-.16.22-.54.31v.08h3.36c.02-.08.04-.2.06-.36.03-.19.05-.38.07-.58l-.09-.03c-.07.17-.13.3-.19.4-.08.12-.18.21-.29.26"/>
      <path d="M19.58,3.5c-.05.18-.11.31-.19.4-.08.09-.17.15-.27.17-.09.02-.17.03-.25.03-.35,0-.63-.13-.83-.39-.19-.25-.29-.67-.29-1.27,0-.21,0-.36.01-.47,0-.1.02-.19.04-.28.03-.2.1-.37.2-.52.11-.16.28-.24.49-.24.31,0,.55.1.72.29.16.18.27.42.33.7.06.28.09.57.09.87s-.02.52-.07.7M19.9.99c-.12-.22-.28-.4-.48-.53-.19-.13-.44-.2-.74-.2-.23,0-.43.06-.61.19-.18.13-.35.3-.48.52-.13.22-.24.47-.31.74-.07.27-.11.55-.11.83,0,.52.07.95.2,1.29.13.33.31.57.53.73.22.16.47.23.73.23.2,0,.38-.05.55-.14.17-.09.31-.22.44-.36.13-.15.24-.31.32-.48.09-.17.15-.33.19-.48.03-.11.05-.24.07-.38.02-.14.03-.28.03-.42,0-.26-.03-.52-.08-.79-.05-.27-.14-.52-.26-.74"/>
      <path d="M13.66,3.5c-.05.18-.11.31-.19.4-.08.09-.17.15-.27.17-.08.02-.16.03-.24.03-.35,0-.63-.13-.83-.39-.19-.25-.29-.67-.29-1.27,0-.21,0-.37.01-.47,0-.1.02-.19.03-.28.03-.2.1-.37.2-.52.11-.16.28-.24.49-.24.31,0,.55.1.72.29.16.18.27.42.33.7.06.28.09.57.09.87s-.02.53-.07.7M13.99.99c-.12-.22-.28-.4-.48-.53-.19-.13-.44-.2-.73-.2-.23,0-.43.06-.61.19-.18.13-.35.3-.48.52-.13.22-.24.47-.31.74-.07.27-.11.55-.11.83,0,.52.07.95.2,1.29.13.33.31.57.53.73.22.16.47.23.73.23.2,0,.38-.05.55-.14.16-.09.31-.21.44-.36.13-.15.24-.31.32-.48.08-.17.15-.33.19-.48.03-.11.05-.24.07-.38.02-.14.03-.28.03-.42,0-.26-.03-.52-.08-.79-.05-.27-.14-.52-.26-.74"/>
      <path d="M31.34,6.13c-.07,0-.12.02-.16.06-.04.04-.06.09-.06.16,0,.06.02.11.06.16.08.09.23.08.32,0h0s.07-.09.07-.16-.02-.12-.06-.16c-.04-.04-.1-.06-.16-.06"/>
    </g>
  </g>
</svg>