<?xml version="1.0" encoding="UTF-8"?>
<svg id="Layer_2" data-name="Layer 2" xmlns="http://www.w3.org/2000/svg" viewBox="0 0 32.39 6.57">
  <g id="Layer_1-2" data-name="Layer 1">
    <g>
      <path d="M24.31,3.68s.02-.12.13-.3c.08-.12.17-.25.28-.39.1-.14.19-.25.26-.33.18-.22.34-.43.48-.64.14-.2.21-.4.21-.58,0-.29-.08-.52-.25-.69-.17-.17-.39-.3-.65-.38-.27-.08-.54-.12-.82-.12-.04,0-.09.04-.14.11-.05.07-.11.16-.18.26-.07.11-.13.2-.18.28-.03.04-.05.07-.06.09.1,0,.25,0,.43.02.16.01.32.04.48.09.16.05.3.13.42.24.12.12.18.28.18.49,0,.17-.06.36-.18.54-.11.18-.23.34-.35.49-.22.27-.39.5-.53.69-.14.2-.26.38-.35.56-.04.09-.09.19-.13.29-.04.12-.06.18-.06.22h0s.02,0,.04,0h2.19s.04,0,.12-.12c.06-.09.12-.19.18-.3.06-.12.12-.22.16-.3.02-.03.02-.05.03-.06h-1.54c-.11,0-.18-.07-.18-.19"/>
      <path d="M2.91,4.33c-.11.05-.25.07-.42.07h-.42c-.23,0-.4-.01-.52-.03-.13-.03-.22-.06-.27-.11-.06-.05-.08-.12-.08-.19v-1.77s.04-.09.09-.09h.54c.23,0,.39.02.51.05.09.03.18.07.25.13.03-.03.07-.08.12-.14.05-.07.09-.14.13-.19l-.04-.05h-1.49c-.05,0-.09-.04-.09-.09V.33s.04-.09.09-.09h1.33c.32,0,.38.45.4.69h.1c.01-.06.03-.13.04-.21.02-.12.04-.25.06-.38.01-.11.02-.2.03-.28l-.08-.07H0v.08c.16.03.28.07.36.12.08.04.18.1.18.19v3.88c0,.13-.16.22-.54.31v.08h3.36c.02-.08.04-.21.06-.36.03-.18.05-.38.07-.58l-.09-.03c-.07.17-.13.3-.19.4-.08.12-.18.21-.29.26"/>
      <path d="M8.32,2.17h-1.66c-.06,0-.11.03-.16.1-.07.09-.13.18-.2.28-.07.1-.12.2-.17.28-.05.11-.06.14-.06.14.02,0,.04.01.07.01h1.73s.05-.02.09-.05c.04-.04.09-.1.15-.16.04-.06.09-.14.13-.22.04-.08.09-.17.13-.26.02-.06.02-.09.02-.09,0-.02,0-.04-.08-.04"/>
      <path d="M30.15,2.41c-.06,0-.11.02-.16.06-.05.04-.07.09-.07.16,0,.06.02.11.07.15.09.09.23.09.31,0h0s.06-.1.06-.15c0-.06-.02-.11-.06-.16-.04-.04-.09-.06-.15-.06"/>
      <path d="M31.93.62c-.11,0-.19-.06-.22-.17-.01-.07-.03-.13-.03-.18,0-.03-.01-.04-.01-.04-.05,0-.12.03-.19.08-.08.06-.16.13-.22.19-.09.09-.15.12-.2.12h-1.03c-.14,0-.24-.04-.27-.13-.02-.05-.04-.12-.07-.21,0-.01,0-.02-.02-.04,0,0,0,0,0,0-.01,0-.03.02-.05.05-.08.13-.18.28-.28.47-.1.18-.19.34-.26.49-.05.1-.06.13-.06.14,0,.03,0,.04.01.04.03.01.05.02.08.02h1.8c.05,0,.1.02.15.05.05.04.08.11.09.19.02.29.03.62.05.97.02.36.03.72.05,1.08.02.37.04.72.06,1.05,0,.02,0,.04.02.06,0-.01.04-.04.09-.13.06-.1.12-.2.17-.3.05-.1.1-.18.13-.26.03-.07.05-.13.06-.18,0-.05,0-.12,0-.2,0-.26-.01-.56-.03-.89-.02-.31-.03-.7-.03-1.18,0-.06.01-.11.04-.16.03-.07.1-.11.18-.11h.13s.04-.04.06-.08c.05-.1.1-.21.14-.34.05-.13.08-.23.1-.3.02-.05.02-.07.02-.09-.03-.01-.04-.01-.06-.01h-.4Z"/>
      <path d="M13.66,3.5c-.05.18-.11.31-.19.4-.08.09-.17.15-.27.17-.08.02-.17.03-.24.03-.35,0-.63-.13-.83-.39-.19-.25-.29-.67-.29-1.27,0-.22,0-.37.01-.47,0-.1.02-.19.04-.28.03-.2.1-.37.2-.52.11-.16.28-.24.49-.24.31,0,.55.1.72.29.16.18.27.42.33.7.06.28.09.57.09.87s-.02.53-.07.7M13.99.99c-.12-.22-.28-.4-.48-.53-.19-.13-.44-.2-.73-.2-.23,0-.44.06-.61.19-.18.13-.34.3-.48.52-.13.22-.24.47-.31.74-.07.27-.11.55-.11.83,0,.52.07.95.2,1.29.13.33.31.57.53.73.22.16.47.23.73.23.2,0,.38-.05.55-.14.16-.09.31-.21.44-.36.13-.15.24-.31.32-.48.09-.17.15-.33.19-.48.03-.12.06-.25.07-.38.02-.14.03-.28.03-.42,0-.26-.03-.52-.08-.79-.05-.27-.14-.52-.26-.74"/>
      <path d="M31.34,5.4c-.06,0-.12.02-.16.06-.04.04-.06.09-.06.16s.02.12.06.16c.08.08.23.08.32,0,.04-.04.06-.09.06-.16s-.02-.11-.06-.15c-.04-.04-.1-.06-.16-.06"/>
      <path d="M19.58,3.5c-.05.18-.11.31-.19.4-.08.09-.17.15-.27.17-.08.02-.17.03-.25.03-.35,0-.63-.13-.82-.39-.19-.25-.29-.67-.29-1.27,0-.22,0-.37.01-.47,0-.1.02-.19.04-.28.03-.2.1-.37.2-.52.11-.16.28-.24.49-.24.31,0,.55.1.71.29.16.18.27.42.33.7.06.27.09.57.09.87s-.02.52-.07.7M19.9.99c-.12-.22-.28-.4-.48-.53-.2-.13-.44-.2-.74-.2-.23,0-.43.06-.61.19-.18.13-.34.3-.48.52-.13.22-.24.47-.31.74-.07.27-.11.55-.11.83,0,.52.07.95.2,1.29.13.33.31.57.53.73.22.16.46.23.73.23.2,0,.38-.05.55-.14.17-.09.31-.21.44-.36.13-.15.24-.31.32-.48.09-.17.15-.33.19-.48.03-.12.05-.25.07-.38.02-.14.03-.28.03-.42,0-.26-.03-.52-.08-.79-.05-.27-.14-.52-.26-.74"/>
      <path d="M31.34,6.13c-.06,0-.12.02-.16.06-.04.04-.06.09-.06.16s.02.12.06.16c.08.08.23.08.32,0,.04-.04.06-.09.06-.16s-.02-.11-.06-.15c-.04-.04-.1-.06-.16-.06"/>
    </g>
  </g>
</svg>