<?xml version="1.0" encoding="UTF-8"?>
<svg id="Layer_2" data-name="Layer 2" xmlns="http://www.w3.org/2000/svg" viewBox="0 0 3.38 6.34">
  <g id="Layer_1-2" data-name="Layer 1-2">
    <g>
      <path d="M1.13,2.18c-.06,0-.11.02-.16.06s-.07.09-.07.16c0,.06.02.11.07.15.09.09.23.09.31,0h0s.06-.09.06-.15-.02-.12-.06-.16c-.04-.04-.09-.06-.15-.06"/>
      <path d="M2.32,5.17c-.07,0-.12.02-.16.06s-.06.09-.06.16.02.12.06.16c.08.08.23.08.32,0,.04-.04.07-.09.07-.16s-.02-.11-.06-.15c-.05-.04-.1-.06-.16-.06"/>
      <path d="M2.91.39c-.11,0-.19-.06-.22-.17-.02-.07-.03-.13-.03-.18,0-.03-.01-.04-.01-.04-.05,0-.12.03-.19.08-.08.06-.16.13-.22.19-.09.09-.15.12-.2.12h-1.03c-.15,0-.24-.04-.27-.13-.02-.05-.04-.12-.07-.21C.67.05.67.03.65.01h0s-.03,0-.05.05c-.09.14-.18.29-.28.47-.1.18-.19.34-.26.49-.05.1-.06.13-.06.14,0,.03,0,.04.01.04.02,0,.05.02.08.02h1.8s.1.02.15.05c.05.04.08.1.09.19.02.29.03.62.05.97.02.36.03.72.05,1.08.02.37.04.72.06,1.05,0,.02,0,.03.01.05.02-.01.05-.04.1-.12.06-.1.12-.2.17-.3.05-.1.1-.18.14-.26.03-.07.05-.13.06-.18v-.2c0-.27-.01-.56-.03-.89-.02-.31-.03-.69-.03-1.18,0-.06.01-.11.04-.16.03-.07.1-.11.18-.11h.13s.04-.05.06-.08c.05-.1.1-.21.14-.34.05-.13.08-.23.1-.3.02-.05.02-.07.02-.09h-.47Z"/>
      <path d="M2.32,5.9c-.07,0-.12.02-.16.06s-.06.09-.06.16.02.12.06.16c.08.08.23.08.32,0,.04-.04.07-.09.07-.16s-.02-.11-.06-.15c-.05-.04-.1-.06-.16-.06"/>
    </g>
  </g>
</svg>