<?xml version="1.0" encoding="UTF-8"?>
<svg id="Layer_2" data-name="Layer 2" xmlns="http://www.w3.org/2000/svg" viewBox="0 0 32.39 6.57">
  <g id="Layer_1-2" data-name="Layer 1">
    <g>
      <path d="M31.34,5.4c-.07,0-.12.02-.16.06-.04.04-.06.09-.06.16s.02.12.06.16c.08.08.23.08.32,0,.04-.04.07-.09.07-.16s-.02-.11-.06-.15c-.04-.04-.1-.06-.16-.06"/>
      <path d="M13.66,3.5c-.05.18-.11.31-.19.4-.08.09-.17.15-.27.17-.08.02-.16.03-.24.03-.35,0-.63-.13-.83-.39-.19-.25-.29-.67-.29-1.27,0-.21,0-.37.01-.47,0-.1.02-.19.04-.28.03-.2.1-.37.2-.52.11-.16.28-.24.49-.24.31,0,.55.1.72.29.16.18.27.42.33.7.06.28.09.57.09.87s-.02.53-.07.7M13.99.99c-.12-.22-.28-.4-.48-.53-.19-.13-.44-.2-.73-.2-.23,0-.43.06-.61.19-.18.13-.35.3-.48.52-.14.22-.24.47-.31.74-.07.27-.11.55-.11.83,0,.52.07.95.2,1.29.13.33.31.57.53.73.22.16.47.23.73.23.2,0,.38-.05.55-.14.17-.09.31-.21.44-.36.13-.15.24-.31.32-.48.08-.17.15-.33.19-.48.03-.11.05-.24.07-.38.02-.14.03-.28.03-.42,0-.26-.03-.52-.08-.79-.05-.27-.14-.52-.26-.74"/>
      <path d="M19.58,3.5c-.05.18-.11.31-.19.4-.08.09-.17.15-.27.17-.08.02-.16.03-.24.03-.35,0-.63-.13-.83-.39-.19-.25-.28-.67-.28-1.27,0-.21,0-.37.01-.47,0-.1.02-.19.04-.28.03-.2.1-.37.2-.52.11-.16.28-.24.49-.24.31,0,.55.1.72.29.16.18.27.42.33.7.06.28.09.57.09.87s-.02.52-.07.7M19.9.99c-.12-.22-.28-.4-.48-.53-.2-.13-.44-.2-.74-.2-.23,0-.43.06-.61.19-.18.13-.34.3-.48.52-.13.22-.24.47-.31.74-.07.27-.11.55-.11.83,0,.52.07.95.2,1.29.13.33.31.57.53.73.22.16.46.23.73.23.2,0,.39-.05.55-.14.17-.09.31-.22.44-.36.13-.15.24-.31.32-.48.09-.17.15-.33.19-.48.03-.11.05-.24.07-.38.02-.14.03-.28.03-.42,0-.26-.03-.52-.08-.79-.05-.27-.14-.52-.26-.74"/>
      <path d="M25.5,2.32c-.12-.09-.24-.15-.36-.19-.12-.04-.23-.06-.31-.06h-.34s-.1-.02-.15-.06c-.07-.05-.08-.12-.08-.16,0-.07,0-.13,0-.18,0-.05,0-.1,0-.15,0-.12.08-.19.21-.19h.88c.08,0,.11,0,.11-.01.02,0,.03-.02.05-.03.04-.05.08-.13.14-.24.06-.1.11-.21.15-.31.06-.13.06-.18.06-.19,0,0-.01-.02-.06-.02h-1.43c-.1,0-.2-.01-.24-.09,0-.02-.04-.09-.1-.2,0,0,0,0-.01,0-.01,0-.04.02-.07.07-.07.09-.15.21-.23.35-.09.18-.12.26-.12.31-.01.06-.02.11-.02.16,0,.05,0,.11,0,.19,0,.21,0,.42,0,.64,0,.21.02.44.05.68,0,.07.03.13.18.13h.48c.34.02.57.09.71.21.14.12.21.28.21.47,0,.16-.05.29-.14.4-.1.1-.26.15-.49.15-.1,0-.21-.01-.33-.04-.12-.03-.21-.05-.29-.08-.04-.01-.07-.02-.1-.03-.02-.01-.04-.01-.04-.01-.02.02-.03.03-.04.04-.02.03-.05.08-.1.15-.05.08-.1.17-.15.26-.05.09-.09.17-.12.23-.01.03-.02.05-.03.07,0,0,.02.02.05.03.05.02.13.05.25.08.11.03.22.05.34.07.12.02.21.03.29.03.21,0,.44-.06.67-.18h0c.23-.12.44-.31.63-.56.07-.1.14-.23.21-.38.07-.15.1-.31.1-.49,0-.2-.04-.37-.11-.51-.08-.14-.18-.25-.29-.34"/>
      <path d="M2.91,4.33c-.11.05-.25.07-.42.07h-.42c-.23,0-.4,0-.52-.03-.13-.03-.22-.06-.27-.11-.05-.05-.08-.12-.08-.19v-1.77s.04-.09.09-.09h.54c.23,0,.39.02.51.05.09.03.18.07.25.13.03-.03.07-.08.12-.14.05-.07.09-.14.12-.19l-.04-.05h-1.49s-.09-.04-.09-.09V.33c0-.05.04-.09.09-.09h1.33c.32,0,.38.45.4.69h.1c.01-.06.03-.13.04-.21.02-.12.04-.25.06-.38.01-.11.02-.2.03-.28l-.08-.07H0v.08c.16.03.28.07.36.12.08.04.18.11.18.2v3.88c0,.13-.16.22-.54.31v.08h3.36c.02-.08.04-.2.06-.36.03-.19.05-.38.07-.58l-.09-.03c-.07.17-.13.3-.19.4-.08.12-.18.21-.29.26"/>
      <path d="M8.32,2.17h-1.66c-.06,0-.11.03-.16.1-.07.09-.13.18-.2.28-.06.1-.12.19-.17.28-.05.11-.06.14-.06.14.02,0,.04.01.07.01h1.73s.05-.02.09-.05c.04-.04.09-.09.15-.16.04-.06.09-.14.13-.22.04-.08.09-.17.13-.26.02-.06.02-.09.02-.09,0-.02,0-.04-.08-.04"/>
      <path d="M30.15,2.41c-.06,0-.11.02-.16.06-.05.04-.07.09-.07.16,0,.06.02.11.07.15.09.09.23.09.31,0h0s.06-.09.06-.15c0-.06-.02-.12-.06-.16-.04-.04-.09-.06-.15-.06"/>
      <path d="M31.93.62c-.11,0-.19-.06-.22-.17-.01-.07-.03-.13-.03-.18,0-.03-.01-.04-.01-.04-.05,0-.12.03-.19.08-.08.06-.16.13-.22.19-.09.09-.15.12-.2.12h-1.03c-.15,0-.24-.04-.27-.13-.02-.05-.04-.12-.07-.21,0-.01,0-.02-.02-.04,0,0,0,0,0,0,0,0-.03.01-.05.05-.09.13-.18.29-.28.47-.1.18-.19.34-.26.49-.05.1-.06.13-.06.14,0,.03,0,.04.01.04.02.01.05.02.08.02h1.8c.05,0,.1.02.15.05.05.04.08.1.09.19.02.29.03.62.05.97.02.36.03.72.05,1.08.02.37.04.72.06,1.05,0,.02,0,.03.01.05.02-.01.05-.04.1-.12.06-.1.12-.2.17-.3.05-.1.1-.18.13-.26.03-.07.05-.13.06-.18,0-.05,0-.12,0-.2,0-.27-.01-.56-.03-.89-.02-.31-.03-.69-.03-1.18,0-.06.01-.11.04-.16.03-.07.1-.11.18-.11h.13s.04-.05.06-.08c.05-.1.1-.21.14-.34.05-.13.08-.23.1-.3.01-.05.02-.07.02-.09-.03-.01-.05-.01-.06-.01h-.4Z"/>
      <path d="M31.34,6.13c-.07,0-.12.02-.16.06-.04.04-.06.09-.06.16s.02.12.06.16c.08.08.23.08.32,0,.04-.04.07-.09.07-.16s-.02-.11-.06-.15c-.04-.04-.1-.06-.16-.06"/>
    </g>
  </g>
</svg>