<?xml version="1.0" encoding="UTF-8"?>
<svg id="Layer_2" data-name="Layer 2" xmlns="http://www.w3.org/2000/svg" viewBox="0 0 32.39 6.57">
  <g id="Layer_1-2" data-name="Layer 1">
    <g>
      <path d="M31.93.62c-.11,0-.19-.06-.22-.17-.01-.07-.03-.13-.03-.18,0-.03-.01-.04-.01-.04-.05,0-.12.03-.19.08-.08.06-.16.13-.22.19-.09.09-.15.12-.2.12h-1.03c-.14,0-.24-.04-.27-.13-.02-.05-.04-.12-.07-.21,0-.01,0-.02-.02-.04,0,0,0,0,0,0-.01,0-.03.02-.05.05-.09.14-.18.29-.28.47-.1.18-.19.34-.26.49-.05.1-.06.13-.06.14,0,.03,0,.04.01.04.03.01.05.02.08.02h1.8c.05,0,.1.02.15.05.05.04.08.11.09.19.02.29.03.62.05.97.02.36.03.72.05,1.08.02.37.04.72.06,1.05,0,.02,0,.04.02.06,0-.01.04-.04.09-.13.06-.1.12-.2.17-.3.05-.1.1-.18.13-.26.03-.07.05-.13.06-.18,0-.05,0-.12,0-.2,0-.27-.01-.56-.03-.89-.02-.31-.03-.7-.03-1.18,0-.06.01-.11.04-.16.03-.07.1-.11.18-.11h.13s.04-.05.06-.08c.05-.1.1-.21.14-.34.05-.13.08-.23.1-.3.02-.05.02-.07.02-.09-.03-.01-.04-.01-.06-.01h-.4Z"/>
      <path d="M19.58,3.5c-.05.18-.11.31-.19.4-.08.09-.17.15-.27.17-.09.02-.17.03-.24.03-.35,0-.63-.13-.83-.39-.19-.25-.29-.67-.29-1.27,0-.22,0-.37.01-.47,0-.1.02-.19.04-.28.03-.2.1-.37.2-.52.11-.16.28-.24.49-.24.31,0,.55.1.71.29.16.18.27.42.33.7.06.28.09.57.09.87s-.02.52-.07.7M19.9.99c-.12-.22-.28-.4-.48-.53-.2-.13-.44-.2-.74-.2-.23,0-.43.06-.61.19-.18.13-.34.3-.48.52-.13.22-.24.47-.31.74-.07.27-.11.55-.11.83,0,.52.07.95.2,1.29.13.33.31.57.53.73.22.16.46.23.73.23.2,0,.38-.05.55-.14.17-.09.31-.21.44-.36.13-.15.24-.31.32-.48.08-.17.15-.33.19-.48.03-.11.05-.24.07-.38.02-.14.03-.28.03-.42,0-.26-.03-.52-.08-.79-.05-.27-.14-.52-.26-.74"/>
      <path d="M2.91,4.33c-.11.05-.25.07-.42.07h-.42c-.23,0-.4,0-.52-.03-.13-.03-.22-.06-.27-.11-.05-.06-.08-.12-.08-.19v-1.77s.04-.09.09-.09h.54c.23,0,.39.02.51.05.09.03.18.07.25.13.03-.03.07-.08.12-.14.05-.07.09-.14.13-.19l-.04-.05h-1.49s-.09-.04-.09-.09V.33c0-.05.04-.09.09-.09h1.33c.32,0,.38.45.4.69h.1c.02-.06.03-.13.05-.21.02-.12.04-.25.06-.38.01-.11.02-.2.03-.28l-.08-.07H0v.08c.16.03.28.07.36.12.08.04.18.11.18.2v3.88c0,.13-.16.22-.54.31v.08h3.36c.02-.08.04-.21.06-.36.03-.18.05-.38.07-.58l-.09-.03c-.06.17-.13.3-.19.4-.08.12-.18.21-.29.26"/>
      <path d="M24.7,2.67h-.67c-.07,0-.14,0-.2-.02-.04-.01-.15-.05-.15-.22,0-.11.03-.25.09-.41.06-.16.13-.3.2-.42.08-.14.17-.24.26-.31.1-.07.18-.13.26-.17.17-.11.28-.02.29.05,0,.02,0,.05.01.08.02.11.03.24.04.41.01.16.02.31.03.46,0,.15,0,.27,0,.37,0,.12-.07.19-.18.19M25.42,2.5s0-.13,0-.31c0-.18,0-.39-.02-.63,0-.24-.02-.48-.03-.72-.01-.24-.03-.43-.05-.58,0-.06-.03-.06-.05-.06-.02,0-.08,0-.2.06-.1.04-.18.08-.23.11-.2.11-.39.24-.56.4-.17.15-.32.34-.45.55-.24.38-.43.73-.56,1.04-.13.31-.19.54-.19.69,0,.12.03.22.08.28.05.06.14.08.27.08h1.22c.1,0,.21.06.21.23,0,.04,0,.13,0,.27,0,.14.01.29.01.46,0,.16,0,.3,0,.4,0,.04,0,.06,0,.07,0-.01.04-.04.09-.1.07-.09.14-.17.19-.24.05-.07.1-.14.15-.21.03-.05.05-.11.07-.15.01-.05.02-.1.02-.16v-.34c0-.21.13-.22.17-.22h.26s.07-.04.1-.11c.04-.07.08-.16.13-.26.04-.1.08-.19.11-.27l.03-.08s.01-.03.01-.03h-.61c-.13,0-.18-.09-.18-.16"/>
      <path d="M13.66,3.5c-.05.18-.11.31-.19.4-.08.09-.17.15-.27.17-.08.02-.17.03-.24.03-.35,0-.63-.13-.83-.39-.19-.25-.29-.67-.29-1.27,0-.22,0-.37.01-.47,0-.09.02-.19.04-.28.03-.2.1-.37.2-.52.11-.16.28-.24.49-.24.31,0,.55.1.72.29.16.18.27.42.33.7.06.28.09.57.09.87s-.02.53-.07.7M13.99.99c-.12-.22-.28-.4-.48-.53-.19-.13-.44-.2-.74-.2-.23,0-.43.06-.61.19-.18.13-.34.3-.48.52-.13.22-.24.47-.31.74-.07.27-.11.55-.11.83,0,.52.07.95.2,1.29.13.33.31.57.53.73.22.16.47.23.73.23.2,0,.38-.05.55-.14.16-.09.31-.21.44-.36.13-.15.24-.31.32-.48.08-.17.15-.33.19-.48.03-.11.05-.24.07-.38.02-.14.03-.28.03-.42,0-.26-.03-.52-.08-.79-.05-.27-.14-.52-.26-.74"/>
      <path d="M31.34,5.4c-.06,0-.12.02-.16.06-.04.04-.06.09-.06.16s.02.12.06.16c.08.08.23.08.32,0,.04-.04.06-.09.06-.16s-.02-.11-.06-.15c-.04-.04-.1-.06-.16-.06"/>
      <path d="M30.15,2.41c-.06,0-.11.02-.16.06-.04.04-.07.09-.07.16,0,.06.02.11.07.15.09.09.23.09.31,0h0s.06-.09.06-.15c0-.06-.02-.12-.06-.16-.04-.04-.09-.06-.15-.06"/>
      <path d="M8.32,2.17h-1.66s-.1.01-.16.1c-.07.09-.13.18-.2.28-.07.1-.12.2-.17.28-.06.11-.06.14-.06.14.02,0,.04.01.07.01h1.73s.07-.03.09-.05c.04-.04.09-.09.15-.17.04-.06.09-.14.13-.22.04-.08.09-.17.13-.26.02-.06.02-.09.02-.09,0-.02,0-.04-.08-.04"/>
      <path d="M31.34,6.13c-.06,0-.12.02-.16.06-.04.04-.06.09-.06.16s.02.12.06.16c.08.08.23.08.32,0,.04-.04.06-.09.06-.16s-.02-.11-.06-.15c-.04-.04-.1-.06-.16-.06"/>
    </g>
  </g>
</svg>