<?xml version="1.0" encoding="UTF-8"?>
<svg id="Layer_2" data-name="Layer 2" xmlns="http://www.w3.org/2000/svg" viewBox="0 0 32.36 5.96">
  <g id="Layer_1-2" data-name="Layer 1">
    <g>
      <path d="M20.68,3.62c-.04.18-.11.31-.19.4-.08.09-.17.15-.27.17-.08.02-.17.03-.24.03-.35,0-.63-.13-.83-.39-.19-.25-.29-.68-.29-1.27,0-.21,0-.37.01-.47,0-.1.02-.19.03-.28.03-.2.1-.37.21-.52.11-.16.28-.24.49-.24.31,0,.55.1.71.29.16.18.27.42.33.7.06.28.09.57.09.87s-.02.53-.07.7M21,1.11c-.12-.22-.28-.4-.48-.53-.2-.13-.44-.2-.74-.2-.23,0-.43.06-.61.19-.18.13-.34.3-.48.52-.13.22-.24.47-.31.74-.07.27-.11.55-.11.83,0,.52.07.95.2,1.28.13.33.31.57.53.73.22.16.47.23.73.23.21,0,.38-.04.55-.14.16-.09.31-.21.44-.36.12-.15.23-.31.32-.48.09-.17.15-.33.19-.47.03-.11.05-.23.07-.38.02-.14.03-.28.03-.42,0-.25-.03-.52-.08-.79-.05-.27-.14-.52-.26-.74"/>
      <path d="M31.23,5.51c-.06,0-.11.02-.16.06-.04.04-.07.09-.07.16s.02.12.07.16c.1.09.23.09.31,0,0,0,0,0,0,0,.04-.04.06-.1.06-.16s-.02-.12-.06-.16c-.04-.04-.09-.06-.15-.06"/>
      <path d="M9.26,2.28h-1.66c-.06,0-.11.03-.16.1-.06.09-.13.18-.2.28-.08.12-.13.21-.16.28-.06.11-.06.14-.06.14.02,0,.04.01.07.01h1.72s.05-.02.09-.05c.05-.04.1-.1.14-.16.05-.06.09-.13.13-.22.04-.08.09-.17.13-.26.02-.06.03-.09.03-.09,0-.02,0-.04-.08-.04"/>
      <path d="M32.3,2.04c-.07-.53-.22-.9-.46-1.1-.1-.08-.21-.16-.33-.26-.12-.09-.25-.18-.38-.25-.06-.04-.1-.06-.13-.08-.02-.01-.04-.02-.04-.02,0,0-.02.01-.06.06-.07.08-.15.18-.23.3-.09.12-.16.23-.21.32-.05.08-.05.11-.05.11,0,0,0,.01.04.03.17.09.32.17.46.25.14.09.26.17.36.25.18.13.32.28.39.42.07.14.12.32.14.52.02.11.03.24.04.39.01.16.02.31.02.45s0,.25-.02.33c-.02.12-.09.18-.21.18h-.98s-.05.03-.1.11c-.04.08-.09.18-.14.29-.05.11-.09.2-.13.29-.04.11-.05.14-.05.14h1.45c.06,0,.11-.02.14-.03.01,0,.05-.04.12-.15.11-.19.2-.39.28-.6.04-.1.07-.21.1-.32.03-.1.04-.22.04-.33,0-.24,0-.48-.02-.72,0-.23-.02-.42-.04-.57"/>
      <path d="M14.68,3.62c-.05.18-.11.31-.19.4-.08.09-.17.15-.27.17-.08.02-.17.03-.24.03-.35,0-.63-.13-.83-.39-.19-.26-.29-.67-.29-1.27,0-.2,0-.36.01-.47,0-.1.02-.19.03-.28.03-.2.1-.37.21-.52.11-.16.28-.24.49-.24.31,0,.55.1.71.29.16.18.27.42.33.7.06.28.09.57.09.87s-.02.53-.07.7M15,1.11c-.12-.22-.28-.4-.48-.53-.2-.13-.44-.2-.74-.2-.23,0-.43.06-.61.19-.18.13-.35.3-.48.52-.13.22-.24.47-.31.74-.07.27-.11.55-.11.83,0,.52.07.95.2,1.28.13.33.31.57.53.73.22.16.46.23.73.23.2,0,.38-.04.55-.14.17-.09.32-.21.44-.36.13-.15.23-.31.32-.48.09-.17.15-.33.19-.48.03-.12.05-.24.07-.38.02-.14.03-.28.03-.42,0-.25-.03-.52-.08-.79-.05-.27-.14-.52-.26-.74"/>
      <path d="M3.37,3.37c-.1.27-.23.49-.38.67-.16.17-.33.31-.51.39-.18.09-.36.13-.53.13-.16,0-.31-.02-.45-.05h0c-.23-.05-.26-.21-.26-.29V.3s.04-.09.08-.09c.11,0,.22-.01.32-.01.6,0,1.07.2,1.39.58.32.38.48.93.48,1.63,0,.37-.05.69-.14.96M1.91,0c-.21,0-.44.01-.69.03-.23.02-.48.05-.72.08-.19.03-.36.06-.51.1l.02.14c.05,0,.11-.02.16-.03l.29-.04s.05,0,.07.02c.02.02.03.04.03.07v4c0,.13-.16.22-.54.31v.08h2.03c.24,0,.49-.04.74-.13.25-.09.49-.23.7-.42.21-.19.39-.45.52-.77.13-.31.2-.71.2-1.18,0-.71-.21-1.27-.61-1.67-.41-.4-.98-.6-1.71-.6"/>
      <path d="M25.31,4.14h-.48s-.07.1-.11.18c-.05.09-.09.19-.13.28-.03.06-.05.11-.07.15h2.19s.04,0,.06-.02c0,0,.03-.02.07-.08.07-.11.11-.19.14-.26.03-.07.07-.15.12-.26h-.52c-.25,0-.41-.15-.41-.39,0-.12,0-.37-.03-.74-.02-.39-.03-.87-.03-1.43,0-.06,0-.16,0-.3s-.01-.29-.02-.45c-.01-.15-.04-.28-.06-.38h-.02s-.1,0-.21.06c-.14.09-.3.19-.47.32-.17.13-.32.24-.44.33,0,0-.01.01-.02.02l.29.03c.26.03.41.25.46.65.03.21.04.47.05.76,0,.29.01.61.01.98,0,.09,0,.18-.02.27-.03.17-.15.27-.33.27"/>
    </g>
  </g>
</svg>