<?xml version="1.0" encoding="UTF-8"?>
<svg id="Layer_2" data-name="Layer 2" xmlns="http://www.w3.org/2000/svg" viewBox="0 0 32.36 5.96">
  <g id="Layer_1-2" data-name="Layer 1">
    <g>
      <path d="M14.68,3.62c-.05.18-.11.31-.19.4-.08.09-.17.15-.26.17-.08.02-.17.03-.24.03-.35,0-.63-.13-.83-.39-.19-.25-.29-.67-.29-1.27,0-.22,0-.37.01-.47,0-.1.02-.19.03-.28.03-.2.1-.37.21-.52.11-.16.28-.24.49-.24.31,0,.55.1.71.29.16.18.27.42.33.7.06.28.09.57.09.87s-.02.52-.07.7M15,1.11c-.12-.22-.28-.4-.48-.53-.2-.13-.44-.2-.74-.2-.23,0-.43.06-.61.19-.18.13-.34.3-.48.52-.13.22-.24.47-.31.74-.07.27-.11.55-.11.83,0,.52.07.95.2,1.28.13.33.31.57.53.73.22.16.46.23.73.23.2,0,.39-.05.55-.14.16-.09.31-.21.44-.36.13-.15.24-.31.32-.48.08-.17.15-.33.19-.48.03-.12.05-.24.07-.38.02-.15.03-.28.03-.42,0-.25-.03-.52-.08-.79-.06-.27-.14-.52-.26-.74"/>
      <path d="M9.26,2.28h-1.66c-.06,0-.11.03-.16.1-.07.09-.13.18-.2.28-.08.12-.13.21-.16.28-.05.11-.06.14-.06.14.02,0,.04.01.07.01h1.73s.05-.02.09-.05c.05-.04.1-.1.15-.16.04-.06.09-.14.13-.22.05-.08.09-.17.14-.26.02-.06.03-.09.03-.09,0-.02,0-.04-.09-.04"/>
      <path d="M20.68,3.62c-.05.18-.11.31-.19.4-.08.09-.17.15-.26.17-.08.02-.17.03-.24.03-.35,0-.63-.13-.83-.39-.19-.25-.29-.67-.29-1.27,0-.2,0-.36.01-.47.01-.1.02-.19.04-.28.03-.2.1-.37.21-.52.11-.16.28-.24.49-.24.31,0,.55.1.71.29.16.18.27.42.33.7.06.28.09.57.09.87s-.02.53-.07.7M21,1.11c-.12-.22-.28-.4-.48-.53-.2-.13-.44-.2-.74-.2-.23,0-.43.06-.61.19-.19.13-.35.3-.48.52-.13.22-.24.47-.31.74-.07.27-.11.55-.11.83,0,.52.07.95.2,1.28.13.33.31.57.53.73.22.16.47.23.73.23.2,0,.39-.05.55-.14.17-.09.31-.21.44-.36.13-.15.24-.31.32-.48.09-.17.15-.33.19-.47.03-.1.05-.23.07-.38.02-.15.03-.29.03-.42,0-.25-.03-.52-.08-.79-.06-.27-.14-.52-.26-.74"/>
      <path d="M31.23,5.51c-.06,0-.11.02-.16.07-.04.04-.07.09-.07.16s.02.12.07.16c.09.09.23.09.31,0h0s.06-.1.06-.16-.02-.12-.06-.16c-.04-.04-.09-.06-.15-.06"/>
      <path d="M32.3,2.04c-.07-.53-.22-.9-.46-1.1-.1-.08-.21-.16-.33-.26-.12-.09-.25-.18-.38-.25-.06-.04-.1-.07-.13-.08-.02-.01-.03-.02-.04-.02,0,0-.02.01-.06.06-.06.07-.14.17-.24.3-.09.12-.16.23-.21.32-.05.08-.05.11-.05.11,0,0,0,.01.04.03.17.09.33.17.46.25.13.08.25.17.36.25.18.13.32.28.39.42.07.14.12.32.14.52.02.11.03.24.04.39.01.15.02.3.02.45,0,.14,0,.25-.02.33-.02.12-.09.18-.21.18h-.98s-.05.03-.1.11c-.04.08-.09.18-.14.29-.05.11-.09.2-.13.29-.03.09-.04.12-.05.14h1.45c.06,0,.11,0,.15-.03.01,0,.05-.04.12-.15.1-.18.2-.39.28-.6.04-.1.07-.2.1-.32.03-.1.04-.21.04-.33,0-.24,0-.48-.02-.72-.01-.24-.02-.43-.04-.57"/>
      <path d="M3.37,3.37c-.1.27-.23.5-.38.67-.15.17-.33.31-.51.39-.18.09-.36.13-.53.13-.16,0-.31-.02-.45-.05h0c-.23-.05-.26-.21-.26-.29V.3s.04-.09.08-.09c.11,0,.22-.01.32-.01.6,0,1.07.2,1.39.58.32.38.48.93.48,1.63,0,.37-.05.69-.14.96M1.91,0c-.21,0-.44.01-.69.03-.24.02-.47.05-.72.08-.19.03-.36.06-.51.1l.02.14c.05,0,.11-.02.16-.03l.29-.04s.05,0,.07.02c.02.02.03.04.03.07v4c0,.13-.16.22-.54.31v.08h2.03c.24,0,.49-.04.74-.13.25-.09.49-.23.7-.42.21-.19.39-.45.52-.77.13-.32.2-.71.2-1.18,0-.71-.21-1.27-.61-1.67-.41-.4-.98-.6-1.71-.6"/>
      <path d="M26.63,2.59c-.12-.08-.23-.15-.33-.2-.05-.02-.13-.06-.13-.13,0-.04.02-.07.05-.1.15-.11.27-.24.37-.39.1-.15.15-.29.15-.45,0-.18-.05-.33-.14-.44-.1-.12-.23-.22-.38-.3-.16-.07-.33-.13-.51-.16-.18-.03-.35-.05-.51-.05,0,0-.02,0-.02.01-.02.02-.04.05-.08.1-.05.07-.1.16-.17.27-.07.12-.12.2-.15.27-.01.03-.02.05-.02.07.08,0,.17,0,.28,0,.11,0,.22.01.33.03.12.02.21.03.28.06.3.1.45.26.45.46,0,.16-.05.28-.14.37-.08.07-.18.13-.28.17-.08.04-.15.08-.2.14-.05.05-.1.11-.14.19-.05.08-.09.16-.12.24-.03.07-.04.11-.04.13.01,0,.04.01.1.02.07,0,.15,0,.23.02.09,0,.16.02.23.04.23.05.39.14.48.26s.14.28.14.47c0,.16-.08.26-.14.3-.08.06-.18.1-.3.12-.2.04-.44.04-.66-.02-.1-.03-.21-.07-.33-.11-.02-.01-.04-.02-.05-.02,0,0,0,0-.02.03-.02.02-.06.07-.12.18-.06.09-.11.19-.16.28-.05.1-.09.17-.12.22,0,.03-.01.04-.01.04,0,0,.01.01.05.04.05.03.14.05.26.08.12.03.23.05.34.06.11.02.21.03.28.03.14,0,.32-.03.54-.09.2-.06.39-.16.54-.31.14-.14.28-.32.4-.52.12-.2.18-.43.18-.67,0-.17-.04-.31-.11-.42-.08-.12-.17-.21-.28-.29"/>
    </g>
  </g>
</svg>