<?xml version="1.0" encoding="UTF-8"?>
<svg id="Layer_2" data-name="Layer 2" xmlns="http://www.w3.org/2000/svg" viewBox="0 0 32.36 5.96">
  <g id="Layer_1-2" data-name="Layer 1">
    <g>
      <path d="M9.26,2.28h-1.66c-.06,0-.11.03-.16.1-.06.09-.13.18-.2.28-.07.11-.12.2-.16.28-.06.11-.06.14-.06.14.02,0,.04.01.07.01h1.72s.07-.03.09-.05c.05-.05.1-.1.15-.16.04-.06.09-.14.13-.22.04-.08.09-.17.13-.26.02-.06.03-.09.03-.09,0-.02,0-.04-.08-.04"/>
      <path d="M14.68,3.62c-.05.18-.11.31-.19.4-.08.09-.17.15-.27.17-.08.02-.17.03-.24.03-.35,0-.63-.13-.83-.39-.19-.25-.29-.67-.29-1.27,0-.21,0-.36.01-.47.01-.1.02-.19.04-.28.03-.2.1-.37.21-.52.11-.16.28-.24.49-.24.31,0,.55.1.72.29.16.18.27.42.33.7.06.28.09.57.09.87s-.02.52-.07.7M15,1.11c-.12-.22-.28-.4-.48-.53-.2-.13-.44-.2-.74-.2-.23,0-.43.06-.61.19-.18.13-.34.3-.48.52-.13.22-.24.47-.31.74-.07.27-.11.55-.11.83,0,.52.07.95.2,1.28.13.33.31.57.53.73.22.16.46.23.73.23.21,0,.38-.04.55-.14.17-.09.31-.21.44-.36.13-.15.24-.31.32-.48.09-.17.15-.33.19-.48.03-.11.05-.24.07-.38.02-.14.03-.28.03-.42,0-.26-.03-.52-.08-.79-.05-.27-.14-.52-.26-.74"/>
      <path d="M25.88,2.78h-.67c-.08,0-.14,0-.2-.02-.04-.01-.14-.05-.14-.22,0-.11.03-.24.09-.41.06-.16.13-.3.2-.42.08-.14.17-.24.26-.31.08-.07.17-.12.25-.17.06-.04.11-.05.15-.05.09,0,.13.05.14.1,0,.03.01.06.01.08.02.11.03.24.04.41.01.16.02.31.03.46,0,.15,0,.27,0,.37,0,.14-.09.19-.17.19M26.59,2.62v-.31c0-.18-.01-.39-.02-.63,0-.24-.02-.48-.03-.72-.01-.24-.03-.43-.05-.58,0-.06-.03-.06-.05-.06-.02,0-.08,0-.2.06-.1.04-.18.08-.23.11-.2.11-.39.24-.56.39-.17.15-.32.34-.45.55-.24.38-.42.73-.56,1.04-.13.31-.19.54-.19.69,0,.13.03.22.08.28.05.06.14.08.27.08h1.22c.13,0,.21.09.21.23,0,.04,0,.13,0,.26,0,.14.01.29.01.46v.04c0,.14,0,.26,0,.36,0,.04,0,.06,0,.07,0-.01.04-.04.09-.1.07-.09.14-.17.19-.24.05-.07.1-.14.15-.21.03-.05.05-.1.07-.15.01-.05.02-.1.02-.16v-.34c0-.21.13-.22.17-.22h.26s.07-.04.1-.11c.04-.08.08-.16.13-.26.05-.1.08-.19.11-.27l.03-.08s.01-.03.01-.03h-.61c-.13,0-.18-.09-.18-.16"/>
      <path d="M31.23,5.51c-.06,0-.11.02-.16.06-.04.04-.07.09-.07.16s.02.12.07.16c.09.09.23.09.31,0h0s.06-.1.06-.16-.02-.12-.06-.16c-.04-.04-.09-.06-.15-.06"/>
      <path d="M3.37,3.37c-.1.27-.23.5-.38.67-.16.18-.33.31-.51.39-.18.09-.36.13-.53.13-.16,0-.31-.02-.45-.05h0c-.23-.05-.26-.21-.26-.29V.3s.04-.09.08-.09c.11,0,.22-.01.32-.01.6,0,1.07.2,1.39.58.32.38.48.93.48,1.63,0,.37-.05.69-.14.96M1.91,0c-.21,0-.44.01-.69.03-.23.02-.47.05-.72.08-.19.03-.36.06-.51.1l.02.14c.05,0,.1-.02.16-.03l.29-.04s.05,0,.07.02c.02.02.03.04.03.07v4c0,.13-.16.22-.54.31v.08h2.03c.24,0,.49-.04.74-.13.25-.09.49-.23.7-.42.21-.19.39-.45.52-.77.13-.32.2-.71.2-1.18,0-.71-.21-1.27-.61-1.67-.4-.4-.98-.6-1.71-.6"/>
      <path d="M32.3,2.04c-.07-.53-.22-.9-.46-1.1-.1-.08-.21-.16-.33-.26-.12-.09-.25-.18-.38-.25-.06-.04-.1-.06-.13-.08-.02-.01-.04-.02-.04-.02,0,0-.02.01-.06.06-.07.08-.15.18-.23.3-.09.13-.16.23-.21.32-.05.08-.05.1-.06.11h0s0,.01.04.03c.17.09.32.17.46.25.14.09.26.17.36.25.18.13.32.28.39.42.07.14.12.32.14.52.02.11.03.24.04.39.01.14.02.29.02.45,0,.14,0,.25-.02.33-.02.12-.1.18-.21.18h-.98s-.05.03-.09.11c-.05.08-.09.18-.14.29-.05.11-.09.2-.13.29-.04.11-.05.14-.05.14h1.45c.06,0,.11-.02.14-.03.01,0,.05-.04.12-.15.11-.19.2-.39.28-.6.04-.1.07-.21.1-.32.03-.11.04-.22.04-.33,0-.24,0-.49-.02-.72,0-.23-.02-.42-.04-.57"/>
      <path d="M20.68,3.62c-.05.18-.11.31-.19.4-.08.09-.17.15-.27.17-.08.02-.17.03-.25.03-.35,0-.63-.13-.83-.39-.19-.25-.29-.67-.29-1.27,0-.2,0-.36.01-.47.01-.1.02-.19.04-.28.03-.2.1-.37.21-.52.11-.16.28-.24.49-.24.31,0,.55.1.72.29.16.18.27.42.33.7.06.28.09.57.09.87s-.02.53-.07.7M21,1.11c-.12-.22-.28-.4-.48-.53-.2-.13-.44-.2-.74-.2-.23,0-.43.06-.61.19-.18.13-.34.3-.48.52-.13.22-.24.47-.31.74-.07.27-.11.55-.11.83,0,.52.07.95.2,1.28.13.33.31.57.53.73.22.16.47.23.73.23.2,0,.39-.05.55-.14h0c.17-.09.31-.21.44-.36.13-.15.23-.31.32-.48.09-.17.15-.33.19-.47.03-.11.05-.23.07-.38.02-.15.03-.28.03-.42,0-.26-.03-.52-.08-.79-.05-.27-.14-.52-.26-.74"/>
    </g>
  </g>
</svg>