<?xml version="1.0" encoding="UTF-8"?>
<svg id="Layer_2" data-name="Layer 2" xmlns="http://www.w3.org/2000/svg" viewBox="0 0 32.36 5.96">
  <g id="Layer_1-2" data-name="Layer 1">
    <g>
      <path d="M3.37,3.37c-.1.27-.23.49-.38.67-.16.17-.33.31-.51.39-.18.09-.36.13-.53.13-.16,0-.31-.02-.45-.05h0c-.23-.05-.26-.21-.26-.29V.3s.04-.09.08-.09c.11,0,.22-.01.32-.01.6,0,1.07.2,1.39.58.32.38.48.93.48,1.63,0,.37-.05.69-.15.96M1.91,0c-.21,0-.44.01-.69.03-.23.02-.48.05-.72.08-.19.03-.36.06-.51.1l.02.14c.05,0,.11-.02.16-.03l.29-.04s.05,0,.07.02c.02.02.03.04.03.07v4c0,.13-.16.22-.54.31v.08h2.03c.24,0,.49-.04.74-.13.25-.09.49-.23.7-.42.21-.19.39-.45.52-.77.13-.31.2-.71.2-1.18,0-.71-.21-1.27-.61-1.67-.41-.4-.98-.6-1.71-.6"/>
      <path d="M14.68,3.62c-.05.18-.11.31-.19.4-.08.09-.17.15-.27.17-.08.02-.16.03-.24.03-.35,0-.63-.13-.83-.39-.19-.25-.29-.67-.29-1.27,0-.21,0-.37.01-.47,0-.1.02-.19.03-.28.03-.2.1-.37.21-.52.11-.16.28-.24.49-.24.31,0,.55.1.72.29.16.18.27.42.33.7.06.28.09.57.09.87s-.02.53-.07.7M15,1.11c-.12-.22-.28-.4-.48-.53-.2-.13-.44-.2-.73-.2-.23,0-.43.06-.61.19-.18.13-.35.3-.48.52-.13.22-.24.46-.31.74-.07.27-.11.55-.11.83,0,.52.07.95.2,1.28.13.33.31.57.53.73.22.16.46.23.73.23.2,0,.38-.04.55-.14.17-.09.31-.21.44-.36.13-.15.24-.31.32-.48.08-.17.15-.33.19-.48.03-.12.05-.25.07-.38.02-.14.03-.28.03-.42,0-.25-.03-.52-.08-.79-.05-.27-.14-.52-.26-.74"/>
      <path d="M32.3,2.04c-.07-.53-.22-.9-.46-1.1-.1-.08-.21-.16-.33-.26-.12-.09-.25-.18-.38-.25-.06-.04-.1-.06-.13-.08-.02-.01-.04-.02-.04-.02,0,0-.02.01-.06.06-.07.08-.15.18-.23.3-.09.13-.16.23-.21.32-.05.08-.05.1-.05.11,0,0,.01.01.04.03.17.09.32.17.46.25.14.09.26.17.36.25.18.13.32.28.39.42.07.14.12.32.14.52.02.11.03.24.04.39.01.16.02.31.02.45s0,.25-.02.33c-.02.12-.09.18-.21.18h-.98s-.05.03-.09.11c-.05.08-.09.18-.14.29-.05.11-.09.2-.13.29-.04.11-.05.14-.05.14h1.45c.06,0,.11-.02.14-.03.01,0,.05-.04.12-.15.11-.19.2-.39.28-.6.04-.1.07-.21.1-.32.03-.1.04-.22.04-.33,0-.24,0-.48-.02-.72,0-.23-.02-.42-.04-.57"/>
      <path d="M9.26,2.28h-1.66c-.06,0-.11.03-.16.1-.06.09-.13.18-.2.28-.08.12-.13.21-.16.28-.06.11-.06.14-.06.14.02,0,.04.01.07.01h1.72s.05-.02.09-.05c.05-.04.1-.1.14-.16.05-.06.09-.13.13-.22.04-.08.09-.17.13-.26.02-.06.03-.09.03-.09,0-.02,0-.04-.08-.04"/>
      <path d="M25.48,3.8s.02-.12.14-.3c.08-.12.17-.26.28-.39.1-.14.19-.25.26-.33.17-.2.33-.42.48-.64.14-.2.21-.4.21-.57,0-.29-.08-.52-.25-.69-.17-.18-.38-.3-.65-.38-.27-.08-.54-.12-.82-.12-.04,0-.09.04-.14.11-.05.07-.1.15-.18.26-.07.11-.13.2-.18.28-.03.04-.04.07-.06.09.11,0,.25,0,.43.02.16.01.32.04.48.09.16.05.3.13.42.24.12.12.18.28.18.49,0,.17-.06.35-.18.54-.12.18-.24.34-.36.49-.22.28-.39.5-.53.69-.15.2-.26.39-.35.56-.04.09-.09.18-.13.29-.05.12-.06.19-.06.22h0s.02,0,.04,0h2.19s.04,0,.12-.12c.06-.09.12-.19.18-.3.06-.12.11-.22.16-.3.01-.02.02-.04.03-.05h-1.54c-.11,0-.18-.07-.18-.19"/>
      <path d="M20.68,3.62c-.04.18-.11.31-.19.4-.08.09-.17.15-.27.17-.08.02-.17.03-.25.03-.35,0-.63-.13-.83-.39-.19-.25-.29-.68-.29-1.27,0-.19,0-.36.01-.47,0-.1.02-.19.03-.28.03-.19.1-.37.21-.52.11-.16.28-.24.49-.24.31,0,.55.1.72.29.16.18.27.42.33.7.06.28.09.57.09.87s-.02.53-.07.7M21,1.11c-.12-.22-.28-.4-.48-.53-.2-.13-.44-.2-.74-.2-.23,0-.43.06-.61.19-.18.13-.34.3-.48.52-.13.22-.24.47-.31.74-.07.27-.11.55-.11.83,0,.52.07.95.2,1.28.13.33.31.57.53.73.22.16.47.23.73.23.2,0,.38-.04.55-.14.16-.09.31-.21.44-.36.13-.15.24-.31.32-.48s.15-.33.19-.47c.03-.11.05-.23.07-.38.02-.14.03-.28.03-.42,0-.25-.03-.52-.08-.79-.05-.27-.14-.52-.26-.74"/>
      <path d="M31.23,5.51c-.06,0-.11.02-.16.06-.04.04-.07.09-.07.16s.02.12.07.16c.09.09.23.09.31,0,0,0,0,0,0,0,.04-.04.06-.1.06-.16s-.02-.12-.06-.16c-.04-.04-.09-.06-.15-.06"/>
    </g>
  </g>
</svg>