<?xml version="1.0" encoding="UTF-8"?>
<svg id="Layer_2" data-name="Layer 2" xmlns="http://www.w3.org/2000/svg" viewBox="0 0 32.36 5.96">
  <g id="Layer_1-2" data-name="Layer 1">
    <g>
      <path d="M32.3,2.04c-.07-.53-.22-.9-.46-1.1-.09-.08-.21-.16-.33-.26-.13-.09-.25-.18-.38-.25-.06-.04-.1-.06-.13-.08-.03-.01-.04-.02-.04-.02,0,0-.02.01-.06.06-.07.08-.15.18-.23.3-.09.13-.16.23-.21.32-.05.08-.05.1-.06.11h0s0,.01.04.03c.17.09.32.17.46.25s.25.17.36.24c.18.13.32.28.39.42.07.14.12.32.14.52.02.11.03.25.04.39.01.16.02.3.02.45,0,.14,0,.25-.02.33-.02.12-.1.18-.21.18h-.98s-.06.03-.1.11c-.05.08-.09.18-.14.29-.05.11-.09.2-.13.29-.03.09-.04.12-.05.14h1.45c.06,0,.11,0,.15-.03.01,0,.05-.04.12-.15.11-.18.2-.39.28-.61.04-.1.07-.21.1-.32.02-.11.04-.22.04-.33,0-.25,0-.49-.02-.72-.01-.23-.03-.43-.04-.57"/>
      <path d="M31.23,5.51c-.06,0-.11.02-.16.06-.04.04-.07.09-.07.16s.02.12.07.16c.09.09.23.09.31,0h0s.06-.1.06-.16-.02-.12-.06-.16c-.04-.04-.09-.06-.15-.06"/>
      <path d="M26.4,4.03c-.11.14-.31.2-.6.2-.19,0-.38-.07-.56-.21-.18-.15-.27-.34-.27-.58,0-.22.07-.41.21-.56.14-.16.33-.23.56-.23.17,0,.32.05.44.14.12.09.21.2.28.33.07.13.1.26.1.39,0,.21-.05.39-.16.52M26.7,2.26c-.16-.11-.35-.17-.58-.17-.16,0-.23.02-.25.03-.09.04-.12.05-.14.05-.08,0-.12-.06-.12-.11,0-.03,0-.05.06-.12.07-.11.16-.26.28-.43.11-.17.23-.35.36-.53.13-.18.25-.35.37-.5.02-.03.05-.07.07-.1.02-.03.02-.04.02-.04,0,0-.03,0-.06.02l-.13.04c-.09.03-.18.06-.29.11-.1.04-.19.08-.26.12-.06.03-.11.07-.15.11-.05.05-.09.1-.14.16-.13.17-.28.38-.47.65-.17.25-.34.52-.49.79-.11.2-.21.42-.32.66-.1.22-.15.44-.15.64,0,.27.07.49.2.68.13.19.3.33.5.43.42.2.85.19,1.21-.02.19-.11.36-.25.51-.42.14-.17.26-.35.34-.54.08-.19.12-.35.12-.5,0-.2-.04-.39-.12-.57-.08-.18-.21-.32-.36-.44"/>
      <path d="M9.26,2.28h-1.66c-.06,0-.11.03-.16.1-.06.09-.13.18-.2.28-.07.11-.13.2-.17.28-.06.11-.06.14-.06.14.02,0,.04.01.07.01h1.72s.06-.02.09-.05c.05-.04.1-.1.15-.17.04-.06.09-.14.13-.21.05-.08.09-.17.13-.26.02-.06.03-.09.03-.09,0-.02,0-.04-.09-.04"/>
      <path d="M3.37,3.37c-.1.27-.22.49-.38.67-.16.17-.33.31-.51.39-.18.09-.36.13-.53.13-.16,0-.31-.02-.45-.05h0c-.23-.05-.26-.21-.26-.29V.3s.04-.09.08-.09c.11,0,.22-.01.32-.01.6,0,1.07.2,1.39.58.32.38.48.93.48,1.63,0,.37-.05.69-.15.96M1.91,0c-.21,0-.44.01-.69.03-.23.02-.47.05-.72.08-.19.03-.36.06-.51.1l.02.14c.05,0,.11-.02.16-.03l.29-.04s.05,0,.07.02c.02.02.03.04.03.07v4c0,.13-.16.22-.54.31v.08h2.03c.24,0,.49-.04.74-.13.25-.09.49-.23.7-.42.21-.19.39-.45.52-.77.13-.32.2-.71.2-1.18,0-.71-.21-1.27-.61-1.67-.41-.4-.98-.6-1.71-.6"/>
      <path d="M14.68,3.62c-.05.18-.11.31-.19.4-.08.09-.17.15-.27.17-.08.02-.17.03-.24.03-.35,0-.63-.13-.83-.39-.19-.25-.29-.67-.29-1.27,0-.21,0-.37.01-.47.01-.1.02-.19.04-.28.03-.2.1-.37.2-.52.11-.16.28-.24.49-.24.31,0,.55.1.72.29.16.18.27.42.33.7.06.28.09.57.09.87s-.02.52-.07.7M15.01,1.11c-.12-.22-.28-.4-.48-.53-.2-.13-.45-.2-.74-.2-.23,0-.43.06-.61.19-.18.13-.34.3-.48.52-.13.22-.24.47-.31.74-.07.27-.11.55-.11.83,0,.52.07.95.2,1.28.13.33.31.57.53.73.22.16.46.23.73.23.2,0,.39-.05.55-.14.17-.09.31-.21.44-.36.13-.15.24-.31.32-.48.09-.17.15-.33.19-.48.03-.12.05-.25.07-.38.02-.14.03-.28.03-.42,0-.25-.03-.52-.08-.79-.05-.27-.14-.52-.26-.74"/>
      <path d="M20.68,3.62c-.05.18-.11.31-.19.4-.08.09-.17.15-.27.17-.08.02-.17.03-.25.03-.35,0-.63-.13-.83-.39-.19-.25-.29-.67-.29-1.27,0-.2,0-.36.01-.47.01-.1.02-.19.04-.28.03-.2.1-.37.2-.52.11-.16.28-.24.49-.24.31,0,.55.1.72.29.16.18.27.42.33.7.06.28.09.57.09.87s-.02.53-.07.7M21,1.11c-.12-.22-.28-.4-.48-.53-.2-.13-.44-.2-.74-.2-.23,0-.43.06-.61.19-.18.13-.34.3-.48.52-.13.22-.24.47-.31.74-.07.27-.11.55-.11.83,0,.52.07.95.2,1.28.13.33.31.57.53.73.22.16.47.23.73.23.2,0,.38-.04.55-.14.17-.09.31-.21.44-.36.13-.15.24-.31.32-.48.09-.17.15-.33.19-.47.03-.11.05-.23.07-.38.02-.15.03-.29.03-.42,0-.25-.03-.52-.08-.79-.05-.27-.14-.52-.26-.74"/>
    </g>
  </g>
</svg>