<?xml version="1.0" encoding="UTF-8"?>
<svg id="Layer_2" data-name="Layer 2" xmlns="http://www.w3.org/2000/svg" viewBox="0 0 32.35 6.9">
  <g id="Layer_1-2" data-name="Layer 1">
    <g>
      <path d="M19.91,2.92c0,.3-.02.53-.07.7-.05.18-.11.31-.19.4-.08.09-.17.15-.27.17-.08.02-.16.03-.25.03-.35,0-.63-.13-.82-.39h0c-.19-.26-.28-.67-.28-1.27,0-.22,0-.37.01-.47,0-.1.02-.19.03-.28.03-.19.1-.37.2-.52.11-.16.28-.24.49-.24.31,0,.55.09.72.29.16.18.27.42.33.7.06.27.09.57.09.87M18.95.37c-.23,0-.43.06-.61.19-.19.13-.35.3-.48.52-.14.22-.24.47-.31.74-.07.27-.11.55-.11.83,0,.52.07.95.2,1.29.13.33.31.57.53.73.22.16.46.23.73.23.2,0,.38-.04.55-.14.17-.09.31-.22.44-.36.13-.15.24-.31.32-.48.09-.17.15-.33.19-.48.03-.12.05-.25.07-.38.02-.14.03-.28.03-.42,0-.25-.03-.52-.08-.79-.05-.26-.14-.51-.26-.74-.12-.22-.28-.4-.48-.53-.2-.13-.44-.2-.73-.2"/>
      <path d="M1.23,2.44s.03-.08.07-.09c.08-.01.17-.03.25-.04.09-.01.2-.02.32-.02.31,0,.57.07.76.2.19.13.33.3.41.49.08.19.12.39.12.59,0,.31-.11.57-.33.76-.21.19-.52.28-.91.28-.1,0-.21,0-.31-.02-.11-.01-.21-.04-.3-.07-.02,0-.03-.02-.04-.03-.03-.04-.04-.07-.04-.1v-1.95ZM1.23.29s.04-.09.08-.09c.03,0,.06,0,.09,0h.08c.49,0,.81.08,1,.25.19.17.28.4.28.68,0,.16-.03.32-.1.46-.07.16-.21.29-.41.39-.19.09-.48.14-.84.14h-.09s-.09-.04-.09-.09V.29ZM.47.27s.05,0,.07.02c.02.02.03.04.03.07v4.02c0,.14-.16.23-.53.31v.08l.72.02.95.03c.15,0,.26,0,.35,0,.56,0,1.01-.12,1.33-.36.32-.24.48-.55.48-.96,0-.22-.05-.43-.15-.61-.1-.18-.24-.34-.42-.46-.18-.12-.38-.21-.61-.24-.04,0-.07-.04-.07-.08,0-.04.02-.08.06-.09.25-.08.44-.22.57-.4.13-.18.2-.4.2-.65,0-.29-.14-.51-.44-.68-.3-.18-.74-.27-1.28-.27-.2,0-.41.01-.63.04-.22.02-.44.05-.65.09-.17.03-.32.06-.45.09l.02.12c.15-.03.3-.05.45-.06"/>
      <path d="M30.83,6.83h0s.07-.09.07-.16-.02-.11-.06-.15c-.04-.04-.1-.06-.16-.06s-.11.02-.15.06c-.04.04-.06.09-.06.15s.02.12.06.16c.08.09.23.08.31,0"/>
      <path d="M6.97,2.38c-.06.09-.13.18-.2.28-.07.1-.12.2-.17.28-.05.1-.06.14-.06.14.02,0,.04.01.07.01h1.73s.05-.02.09-.05c.04-.04.09-.09.15-.17.04-.06.08-.13.13-.22.04-.08.09-.17.13-.26.02-.06.02-.09.02-.09,0-.02,0-.04-.08-.04h-1.66c-.06,0-.11.03-.16.1"/>
      <path d="M30.83,5.89h0s.07-.09.07-.16c0-.07-.02-.12-.06-.16-.04-.04-.1-.06-.16-.06s-.11.02-.16.06c-.04.04-.06.09-.06.16s.02.11.06.16c.08.09.23.08.31,0"/>
      <path d="M32.31,2.38c-.01-.19-.03-.34-.05-.47-.03-.25-.1-.47-.22-.65-.12-.17-.26-.31-.43-.41-.2-.11-.38-.21-.54-.28-.15-.06-.32-.13-.54-.21-.02,0-.04-.01-.06-.02h-.02s-.03,0-.08.03c-.15.14-.32.3-.51.51-.17.19-.31.39-.43.6-.11.2-.17.42-.17.62s.07.4.21.56c.14.16.31.28.48.35.04.02.07.02.08.02,0,0,.02-.01.05-.06l.16-.24c.05-.08.11-.17.16-.26.02-.03.03-.05.03-.06-.01,0-.02-.01-.04-.02-.15-.06-.28-.14-.39-.25-.12-.12-.18-.26-.18-.41,0-.11.03-.24.1-.36.08-.16.15-.22.22-.22.08,0,.18.02.31.07.11.04.23.1.36.16.13.07.24.13.33.19.11.07.18.12.23.16.07.06.13.14.19.25.05.09.09.19.12.3.04.14.06.3.08.51.02.19.03.38.04.54,0,.17,0,.28,0,.34,0,.1-.04.16-.08.19-.05.04-.11.06-.17.06h-2.03s-.04.02-.08.08c-.07.11-.14.22-.19.33-.06.12-.12.23-.19.35-.01.02-.02.04-.02.07,0,0,.01,0,.03,0h2.62c.07,0,.1,0,.11-.01,0,0,.01,0,.04-.04.08-.12.14-.25.21-.4.06-.14.11-.28.16-.41.03-.09.06-.18.08-.28.02-.1.03-.21.03-.32,0-.1,0-.24,0-.41,0-.17-.01-.34-.02-.52"/>
      <path d="M14.03,3.62c-.04.18-.11.31-.19.4-.08.09-.17.15-.26.17-.08.02-.16.03-.25.03-.35,0-.63-.13-.82-.39h0c-.19-.26-.29-.67-.29-1.27,0-.22,0-.37.01-.46,0-.1.02-.19.04-.28.03-.2.1-.37.2-.52.11-.16.28-.24.49-.24.31,0,.55.1.71.29.16.18.27.42.33.7.06.28.09.57.09.87s-.02.53-.07.7M13.88.57c-.19-.13-.44-.2-.73-.2-.23,0-.43.06-.61.19-.18.13-.35.3-.48.52-.14.22-.24.47-.31.74-.07.27-.11.55-.11.83,0,.52.07.95.2,1.28.13.33.31.57.53.73.22.16.46.23.73.23.2,0,.38-.05.55-.14.16-.09.31-.21.44-.36.13-.15.24-.31.32-.48.09-.17.15-.33.19-.47.03-.12.05-.25.07-.38.02-.14.03-.29.03-.42,0-.26-.03-.52-.08-.79-.05-.27-.14-.52-.26-.74-.12-.22-.28-.4-.48-.54"/>
      <path d="M25.17,3.69c0-.12,0-.37-.03-.74-.02-.39-.03-.87-.03-1.43,0-.06,0-.16,0-.3s-.01-.29-.02-.45c-.01-.15-.03-.28-.06-.38h-.02s-.1,0-.21.06c-.14.09-.3.19-.47.32-.17.13-.32.24-.44.33,0,0-.01.01-.02.01l.29.03c.26.03.41.25.46.65.02.21.04.47.05.76,0,.29.01.61.01.98,0,.09,0,.18-.02.27-.03.17-.15.27-.33.27h-.48s-.07.1-.11.18c-.05.09-.09.19-.13.28-.03.06-.05.11-.07.15h2.19s.04,0,.06-.02c0,0,.03-.02.07-.08.07-.11.11-.19.14-.26.03-.07.07-.15.12-.26h-.52c-.25,0-.41-.15-.41-.39"/>
    </g>
  </g>
</svg>