<?xml version="1.0" encoding="UTF-8"?>
<svg id="Layer_2" data-name="Layer 2" xmlns="http://www.w3.org/2000/svg" viewBox="0 0 32.35 6.9">
  <g id="Layer_1-2" data-name="Layer 1">
    <g>
      <path d="M31.59,3.94h-2.04s-.04.02-.08.08c-.07.1-.13.21-.19.33-.06.12-.12.23-.19.34-.02.02-.02.05-.02.07h0s.01,0,.03,0h2.62c.08,0,.1,0,.1,0,0,0,.02,0,.04-.04.08-.12.15-.25.21-.4.06-.15.11-.28.16-.4.03-.08.05-.18.08-.28.02-.1.03-.21.03-.32,0-.1,0-.24,0-.41,0-.17-.01-.34-.03-.52-.01-.17-.03-.33-.05-.47-.03-.26-.1-.47-.22-.64-.12-.18-.26-.31-.43-.41-.2-.11-.39-.21-.54-.27-.16-.07-.34-.14-.54-.21-.02,0-.04-.01-.06-.02-.01,0-.02,0-.02,0,0,0-.03,0-.07.04-.16.14-.33.32-.5.51-.17.19-.32.39-.43.6-.11.2-.17.42-.17.62s.07.4.21.56c.15.17.31.28.48.35.05.02.07.02.08.02,0,0,.02-.01.05-.06l.16-.25c.05-.08.11-.17.16-.26.02-.03.03-.05.03-.06-.01,0-.03-.01-.04-.02-.15-.06-.28-.14-.39-.25-.12-.12-.18-.26-.18-.41,0-.11.03-.23.1-.36.08-.15.15-.22.23-.22.08,0,.19.02.31.07.11.04.23.1.35.16.12.07.24.13.33.19.11.07.18.12.22.16.07.07.14.15.19.25.05.1.09.2.12.3.04.14.06.31.08.51.02.19.03.38.04.54,0,.17.01.28.01.34,0,.1-.04.16-.08.19-.05.04-.11.06-.17.06"/>
      <path d="M30.83,5.57s-.1-.06-.16-.06-.11.02-.16.06c-.04.04-.06.09-.06.16s.02.11.06.16c.08.08.23.08.32,0h0s.07-.09.07-.16-.02-.12-.06-.16"/>
      <path d="M30.67,6.46c-.06,0-.11.02-.16.06-.04.04-.06.09-.06.16s.02.11.06.16c.08.08.23.08.32,0,.05-.04.07-.09.07-.16s-.02-.11-.06-.16c-.04-.04-.1-.06-.16-.06"/>
      <path d="M24.72,2.65c.17,0,.31.05.44.14.12.09.22.2.28.33.07.13.1.26.1.39,0,.21-.05.39-.16.52-.11.14-.32.21-.6.21-.19,0-.38-.07-.56-.21-.18-.15-.27-.34-.27-.58,0-.22.07-.41.21-.56.14-.15.33-.23.56-.23M24.71.9c-.13.18-.29.39-.47.65-.17.24-.33.51-.49.79-.11.21-.22.43-.32.66-.1.22-.15.44-.15.64,0,.26.07.49.2.68.13.18.3.33.5.43.42.2.85.19,1.21-.02.19-.11.36-.25.51-.42s.26-.35.34-.54c.08-.18.12-.35.12-.5,0-.2-.04-.39-.12-.57-.08-.18-.2-.32-.36-.44-.16-.11-.35-.17-.58-.17-.16,0-.23.02-.25.03-.09.04-.12.05-.14.05-.07,0-.12-.05-.12-.12,0-.03,0-.04.05-.1.08-.13.17-.27.29-.44.11-.17.23-.35.36-.53.13-.18.25-.35.37-.5.03-.04.05-.07.07-.1.02-.03.02-.04.02-.04-.01,0-.03,0-.06.02-.04.01-.08.03-.13.04-.09.03-.19.07-.29.11-.1.04-.19.08-.26.12-.05.03-.1.07-.15.11-.04.04-.09.09-.13.15"/>
      <path d="M19.91,2.92c0,.29-.02.53-.07.7-.05.18-.11.31-.19.4-.08.09-.17.15-.27.17-.08.02-.16.03-.24.03-.35,0-.63-.13-.83-.39-.19-.26-.29-.67-.29-1.27,0-.21,0-.37.01-.47,0-.1.02-.19.04-.28.03-.19.1-.37.2-.52.11-.16.28-.24.49-.24.31,0,.55.09.72.29.16.18.27.42.33.7.06.27.09.57.09.87M18.95.37c-.23,0-.43.06-.61.19-.18.13-.34.3-.48.52-.14.22-.24.47-.31.74-.07.27-.11.55-.11.83,0,.52.07.95.2,1.29.13.33.31.57.53.73.22.16.46.23.73.23.2,0,.39-.05.55-.14.17-.09.32-.22.44-.36.13-.15.24-.31.32-.48s.15-.33.19-.48c.03-.11.05-.24.07-.38.02-.14.03-.28.03-.42,0-.26-.03-.52-.08-.79-.05-.26-.14-.51-.26-.74-.12-.22-.28-.4-.48-.53-.19-.13-.44-.2-.73-.2"/>
      <path d="M1.23,2.44s.03-.08.07-.09c.08-.01.16-.03.25-.04.1-.01.2-.02.32-.02.31,0,.57.07.76.2.19.13.33.3.41.49.08.19.12.39.12.59,0,.31-.11.57-.33.76-.21.19-.52.28-.91.28-.1,0-.21,0-.31-.02-.11-.01-.21-.04-.3-.07-.01,0-.03-.02-.04-.03-.03-.04-.04-.07-.04-.1v-1.95ZM1.23.29s.04-.09.08-.09c.03,0,.06,0,.09,0h.08c.48,0,.81.08,1,.25.19.17.28.4.28.68,0,.16-.03.32-.1.47-.07.16-.21.29-.41.39-.2.1-.47.14-.84.14h-.09s-.09-.04-.09-.09V.29ZM1.69,4.81c.15,0,.26,0,.35,0,.56,0,1.01-.12,1.34-.36.32-.24.48-.55.48-.96,0-.23-.05-.42-.15-.61-.1-.18-.24-.34-.42-.46-.18-.12-.38-.21-.61-.24-.04,0-.07-.04-.07-.08s.02-.08.06-.09c.25-.08.44-.22.57-.4.13-.18.2-.4.2-.65,0-.29-.14-.51-.44-.68-.3-.18-.74-.26-1.28-.26-.2,0-.41.01-.63.03-.22.02-.44.05-.65.09-.17.03-.32.06-.44.09l.02.12c.15-.03.3-.05.45-.06.03,0,.05,0,.07.02.02.02.03.04.03.07v4.02c0,.14-.16.23-.53.31v.08l.72.02.95.03Z"/>
      <path d="M14.03,3.61c-.05.18-.11.31-.19.4-.08.09-.17.15-.26.17-.08.02-.16.03-.25.03-.35,0-.63-.13-.83-.39h0c-.19-.26-.29-.67-.29-1.27,0-.21,0-.37.01-.46,0-.1.02-.19.04-.28.03-.2.1-.37.2-.52.11-.16.28-.24.49-.24.31,0,.55.1.71.29.16.18.27.42.33.7.06.27.09.57.09.87s-.02.53-.07.7M13.88.57c-.2-.13-.44-.2-.73-.2-.23,0-.43.06-.61.19-.19.13-.35.3-.48.52-.14.22-.24.47-.31.74-.07.27-.11.55-.11.83,0,.52.07.95.2,1.28.13.33.31.57.53.73.22.16.46.23.73.23.2,0,.39-.05.55-.14.16-.09.31-.21.44-.36.13-.15.24-.31.32-.48.09-.17.15-.33.19-.47.03-.11.05-.24.07-.38.02-.14.03-.28.03-.42,0-.26-.03-.53-.08-.79-.05-.26-.14-.51-.26-.74-.12-.22-.28-.4-.48-.54"/>
      <path d="M6.61,2.95c-.06.11-.06.14-.06.14.02,0,.05.01.07.01h1.72s.07-.03.09-.05c.05-.04.09-.1.15-.16.04-.06.09-.14.13-.22.04-.08.09-.17.13-.26.03-.07.03-.09.03-.09,0-.02,0-.04-.08-.04h-1.66c-.06,0-.11.03-.16.1-.06.09-.13.18-.2.28-.07.1-.12.19-.17.28"/>
    </g>
  </g>
</svg>