<?xml version="1.0" encoding="UTF-8"?>
<svg id="Layer_2" data-name="Layer 2" xmlns="http://www.w3.org/2000/svg" viewBox="0 0 3.28 6.55">
  <g id="Layer_1-2" data-name="Layer 1-2">
    <g>
      <path d="M1.79,6.49h0s.07-.09.07-.16-.02-.11-.06-.15c-.04-.04-.1-.06-.16-.06s-.11.02-.15.06c-.04.04-.06.09-.06.15s.02.12.06.16c.08.09.23.08.31,0"/>
      <path d="M1.79,5.55h0s.07-.09.07-.16-.02-.12-.06-.16c-.04-.04-.1-.06-.16-.06s-.11.02-.16.06c-.04.04-.06.09-.06.16s.02.11.06.16c.08.09.23.08.31,0"/>
      <path d="M3.27,2.04c0-.19-.03-.34-.05-.47-.03-.25-.1-.47-.22-.65-.12-.17-.26-.31-.43-.41-.2-.11-.38-.21-.54-.28-.15-.06-.32-.13-.54-.21-.02,0-.04,0-.06-.02h-.02s-.03,0-.08.03c-.15.14-.32.3-.51.51-.17.19-.31.39-.43.6-.11.2-.17.42-.17.62s.07.4.21.56c.14.16.31.28.48.35.04.02.07.02.08.02,0,0,.02,0,.05-.06l.16-.24c.05-.08.11-.17.16-.26.02-.03.03-.05.03-.06-.01,0-.02,0-.04-.02-.15-.06-.28-.14-.39-.25-.12-.12-.18-.26-.18-.41,0-.11.03-.24.1-.36.08-.16.15-.22.22-.22.08,0,.18.02.31.07.11.04.23.1.36.16.13.07.24.13.33.19.11.07.18.12.23.16.07.06.13.14.19.25.05.09.09.19.12.3.04.14.06.3.08.51.02.19.03.38.04.54v.34c0,.1-.04.16-.08.19-.05.04-.11.06-.17.06H.48s-.04.02-.08.08c-.07.11-.14.22-.19.33-.06.12-.12.23-.19.35-.01.02-.02.04-.02.07h2.65c.07,0,.1,0,.11-.01,0,0,.01,0,.04-.04.08-.12.14-.25.21-.4.06-.14.11-.28.16-.41.03-.09.06-.18.08-.28s.03-.21.03-.32v-.41c0-.17,0-.34-.02-.52"/>
    </g>
  </g>
</svg>