<?xml version="1.0" encoding="UTF-8"?>
<svg id="Layer_2" data-name="Layer 2" xmlns="http://www.w3.org/2000/svg" viewBox="0 0 32.37 5.9">
  <g id="Layer_1-2" data-name="Layer 1">
    <g>
      <path d="M1.23,2.44s.03-.08.08-.09c.08-.01.16-.02.25-.04.09-.01.2-.02.32-.02.32,0,.57.07.76.2.19.13.33.3.41.49.08.19.12.39.12.59,0,.31-.11.57-.33.76-.21.19-.52.28-.91.28-.1,0-.2,0-.31-.02,0,0,0,0,0,0-.12-.01-.21-.04-.3-.07-.02,0-.03-.02-.04-.03-.03-.04-.04-.07-.04-.11v-1.95ZM1.23.29s.03-.08.08-.09c.03,0,.06,0,.09,0h.08c.48,0,.81.08,1,.25.19.17.28.4.28.68,0,.16-.03.32-.1.47-.07.16-.21.29-.41.39-.19.09-.48.14-.84.14h-.09s-.09-.04-.09-.09V.29ZM.47.27s.05,0,.07.02c.02.02.03.04.03.07v4.02c0,.13-.16.22-.53.31v.08l.71.02c.15,0,.31.01.47.02h.07c.14,0,.28.01.41.01.15,0,.27,0,.35,0,.56,0,1.01-.12,1.34-.36.32-.24.48-.55.48-.96,0-.22-.05-.43-.15-.61-.1-.18-.24-.34-.42-.46-.18-.12-.38-.21-.61-.24-.04,0-.07-.04-.08-.08,0-.04.02-.08.06-.09.25-.08.44-.21.57-.4.13-.18.2-.4.2-.65,0-.29-.14-.51-.44-.68C2.59.03,1.96-.05,1.09.03c-.24.02-.45.05-.65.09-.16.03-.31.06-.45.09l.02.12c.14-.03.29-.04.45-.06"/>
      <path d="M7.25,2.89c.04-.06.09-.14.13-.21.04-.08.09-.17.14-.26.02-.06.03-.09.03-.09,0-.02,0-.04-.09-.04h-1.66c-.06,0-.11.03-.16.1-.07.09-.13.18-.2.28-.07.1-.12.2-.17.28-.06.11-.06.14-.06.14.02,0,.04.01.07.01h1.72s.05-.02.09-.05c.05-.04.09-.1.15-.17"/>
      <path d="M17.86,4.24c-.04.09-.09.19-.13.29-.04.11-.06.18-.06.22h0s.02,0,.04,0h2.19s.04,0,.11-.12c.06-.08.11-.18.18-.3.06-.12.11-.22.16-.3.02-.03.02-.05.03-.06h-1.54c-.11,0-.18-.07-.18-.18,0-.07.04-.17.14-.3.08-.13.18-.26.28-.39.1-.14.19-.25.26-.33.18-.21.34-.43.48-.64.14-.2.21-.4.21-.58,0-.29-.08-.52-.25-.69-.17-.17-.39-.3-.65-.38-.27-.08-.54-.12-.82-.12-.04,0-.09.04-.14.11-.03.04-.06.09-.1.15l-.08.11c-.07.11-.13.2-.18.28-.03.04-.05.07-.06.09.1,0,.25,0,.43.02.15,0,.31.04.48.09.16.05.3.13.42.24.12.12.18.29.18.49,0,.17-.06.36-.18.54-.11.17-.23.34-.35.49-.2.25-.38.48-.53.69-.14.2-.26.38-.35.56"/>
      <path d="M22.6,2.86c.03.13.07.27.11.42.04.15.07.29.11.42.03.13.06.24.08.32.03.11.07.22.11.34.04.11.1.21.16.3.06.08.14.14.25.18.11.04.22.06.34.06.35,0,.68-.07.98-.22.31-.15.58-.34.8-.56.17-.17.33-.39.46-.64.13-.26.24-.52.31-.78.07-.26.11-.49.11-.68,0-.25-.04-.5-.14-.73-.09-.23-.23-.42-.41-.57-.18-.14-.41-.22-.68-.22-.19,0-.37.03-.55.08-.18.06-.33.14-.46.24-.02.02-.04.04-.06.07-.02.03-.04.07-.07.13-.05.11-.1.23-.14.33-.04.11-.07.21-.1.31v.03c.14-.08.27-.15.39-.23.32-.19.75-.18,1.06,0,.16.09.29.21.38.36.11.19.17.43.17.71s-.04.52-.12.69c-.08.18-.22.33-.41.46-.09.06-.21.12-.37.17-.15.05-.32.1-.51.13-.19.04-.35.05-.51.05-.18,0-.32-.08-.41-.23-.08-.13-.14-.26-.17-.39-.03-.12-.07-.29-.11-.51l-.11-.67c-.04-.23-.07-.42-.11-.59-.05-.25-.12-.51-.19-.75-.07-.23-.15-.41-.24-.54-.01-.02-.02-.02-.03-.03,0,0,0,0,0,0l-.02.02s-.03.03-.04.05c-.07.08-.14.16-.22.27-.08.1-.17.23-.27.38-.03.05-.04.07-.04.07,0,0,0,.02.01.04.1.14.19.3.26.48.07.17.13.33.18.5.05.18.09.31.11.41.02.07.05.17.08.29"/>
      <path d="M28.61.43c-.07.09-.16.2-.26.34-.1.14-.18.24-.23.33-.01.02-.02.04-.04.07-.01.02-.01.03-.01.04,0,0,.01.03.07.09.05.06.11.13.16.21.05.08.11.16.15.24.08.15.15.29.2.44.05.15.07.3.07.45,0,.17-.03.36-.08.6-.05.22-.11.46-.19.71-.07.24-.14.45-.19.64-.05.15-.07.27-.08.34.02-.01.04-.03.08-.07.08-.09.15-.17.22-.26.07-.08.15-.18.24-.3.06-.07.1-.13.13-.18.02-.04.04-.08.06-.13.02-.05.04-.12.06-.22.08-.28.16-.56.25-.84.09-.28.2-.53.32-.74.12-.23.27-.41.43-.55.3-.25.74-.28,1.1-.08.16.08.3.22.42.41.1.16.18.36.24.59.05.22.09.44.11.66.02.21.03.39.03.53,0,.12-.05.16-.1.18-.04.02-.08.02-.13.02h-1.54s-.04,0-.05.01-.04.03-.09.09c-.04.07-.1.16-.17.28l-.22.37s-.03.06-.04.07c0,0,.01,0,.04,0h2.23s.1-.06.14-.1c.06-.09.13-.2.18-.33.06-.13.11-.27.16-.41.02-.07.05-.15.07-.24.02-.09.03-.19.03-.3,0-.2,0-.43-.03-.66-.02-.23-.05-.47-.09-.71-.04-.23-.09-.43-.17-.59-.11-.26-.27-.47-.46-.63-.18-.15-.41-.22-.67-.22-.23,0-.43.05-.6.16-.18.11-.33.26-.46.45-.14.19-.26.41-.38.66-.04.08-.21.1-.21-.05,0-.01,0-.07-.06-.27-.04-.14-.1-.31-.18-.52-.08-.19-.17-.38-.3-.57-.03-.04-.05-.07-.07-.09,0-.01-.03,0-.09.08"/>
      <path d="M11.21,3.62c-.05.18-.11.31-.19.4-.08.09-.17.15-.27.17-.08.02-.17.03-.24.03-.35,0-.63-.13-.83-.39-.19-.26-.28-.67-.28-1.27,0-.22,0-.37.01-.47s.02-.19.04-.28c.03-.2.1-.37.2-.52.11-.16.28-.24.49-.24.31,0,.55.1.72.29.16.18.27.42.33.7.06.28.09.56.09.87s-.02.53-.07.7M11.85,3.06c.02-.14.03-.28.03-.42,0-.25-.03-.52-.08-.79-.05-.27-.14-.52-.26-.74-.12-.22-.28-.4-.48-.53-.2-.13-.44-.2-.73-.2-.23,0-.43.06-.61.19-.18.13-.34.3-.48.52-.13.22-.24.47-.31.74-.07.27-.11.55-.11.83,0,.52.07.95.2,1.28.13.33.31.57.53.73.22.16.46.23.73.23.2,0,.38-.04.55-.14.17-.09.31-.22.44-.36.13-.15.24-.31.32-.48.09-.17.15-.33.19-.47.03-.12.05-.25.07-.38"/>
      <path d="M15.53,3.62c-.05.18-.11.31-.19.4-.08.09-.17.15-.27.17-.09.02-.17.03-.24.03-.35,0-.63-.13-.83-.39-.19-.25-.29-.67-.29-1.27,0-.22,0-.37.01-.47,0-.1.02-.19.03-.28.03-.2.1-.37.21-.52.11-.16.28-.24.49-.24.31,0,.55.1.71.29.16.18.27.42.33.7.06.28.09.57.09.87s-.02.53-.07.7M15.85,1.1c-.12-.22-.28-.4-.48-.53-.2-.13-.44-.2-.74-.2-.23,0-.43.06-.61.19-.18.13-.34.3-.48.52-.13.22-.24.47-.31.74-.07.27-.11.55-.11.83,0,.52.07.95.2,1.29.13.33.31.57.53.73.22.16.46.24.73.24.2,0,.39-.05.55-.14.17-.09.31-.22.44-.36.13-.15.23-.3.32-.48.09-.17.15-.33.19-.47.03-.12.06-.25.07-.38.02-.14.03-.28.03-.42,0-.25-.03-.52-.08-.79-.05-.26-.14-.51-.26-.74"/>
      <path d="M29.89,5.88c.1,0,.2.01.3.01.2,0,.32,0,.55,0,.11,0,.21,0,.31-.01.09,0,.16,0,.23,0h.04s.07,0,.1,0h.04s.02,0,.02,0c.01-.01.01-.02.01-.03v-.19s0-.04-.04-.04c-.07,0-.18,0-.3-.01-.06,0-.11,0-.17,0-.05,0-.11,0-.16,0-.06,0-.12,0-.18,0-.06,0-.12,0-.19,0s-.12,0-.19,0c-.07,0-.13,0-.19,0-.05,0-.11,0-.16,0-.06,0-.11,0-.17,0-.1,0-.19,0-.27.01-.04,0-.04.02-.04.04v.19s0,.03,0,.03c0,0,.07,0,.2,0,.08,0,.17,0,.27,0"/>
    </g>
  </g>
</svg>