<?xml version="1.0" encoding="UTF-8"?>
<svg id="Layer_2" data-name="Layer 2" xmlns="http://www.w3.org/2000/svg" viewBox="0 0 10.45 5.56">
  <g id="Layer_1-2" data-name="Layer 1-2">
    <g>
      <path d="M.66,2.53c.03.13.07.27.1.42.04.15.07.29.11.42.03.13.06.24.08.32.03.11.07.22.11.35.04.11.1.21.16.3.06.08.14.14.25.18s.22.06.34.06c.35,0,.68-.07.98-.22h0c.3-.15.57-.33.8-.56.17-.17.32-.38.46-.64.13-.25.23-.51.31-.78.07-.26.11-.49.11-.68,0-.26-.05-.5-.14-.73s-.23-.42-.41-.57c-.18-.14-.41-.22-.68-.22-.18,0-.37.03-.55.08-.18.06-.33.14-.46.24-.01.02-.04.04-.06.07-.02.03-.04.07-.07.13-.05.11-.1.23-.14.33-.04.11-.07.21-.09.31v.03c.14-.08.27-.15.39-.23.32-.19.75-.18,1.06,0,.16.09.29.21.38.36.11.19.17.43.17.71s-.04.52-.12.69c-.08.18-.22.33-.41.46-.08.06-.21.12-.36.17-.16.05-.32.1-.51.13-.18.03-.35.05-.51.05-.18,0-.32-.08-.41-.23-.08-.13-.13-.26-.17-.39-.03-.12-.07-.29-.11-.51-.04-.21-.08-.44-.11-.67-.04-.23-.07-.42-.11-.59-.05-.26-.12-.51-.19-.75-.07-.23-.15-.41-.24-.54-.01,0-.02-.02-.03-.03h0l-.03.03s-.03.03-.03.04c-.07.08-.14.16-.22.27-.08.1-.17.23-.27.38-.03.05-.04.07-.04.07,0,0,0,.02.01.04.1.14.19.3.26.48.07.17.13.34.18.5.05.16.09.3.11.41.02.07.05.17.08.3"/>
      <path d="M7.69,5.54c.08,0,.17,0,.27.01.1,0,.2.01.3.01h.54c.11,0,.21,0,.31-.01h.43s.01-.02.01-.03v-.2s0-.04-.05-.04c-.07,0-.17,0-.3-.01h-.51c-.06,0-.12-.01-.19-.01h-.38s-.11.01-.17.01h-.17c-.1,0-.19,0-.27.01-.04,0-.04.02-.04.04v.23h.2"/>
      <path d="M10.32,1.68c-.04-.23-.1-.43-.17-.59-.11-.26-.27-.47-.46-.63-.19-.15-.41-.22-.67-.22-.23,0-.43.05-.6.16-.18.11-.33.26-.46.45-.14.19-.26.41-.38.66-.03.08-.21.11-.21-.05,0-.02,0-.07-.06-.27-.04-.15-.1-.32-.18-.52-.08-.2-.18-.39-.3-.57-.02-.04-.05-.07-.07-.09C6.76,0,6.73,0,6.67.09c-.07.09-.16.2-.26.34s-.18.24-.23.32c-.01.02-.02.05-.04.07,0,.02-.01.03-.01.04,0,0,.02.03.07.08.06.06.11.13.17.21.05.08.11.16.15.24.08.15.15.29.2.44.05.15.07.3.07.45,0,.17-.03.36-.08.6-.05.23-.12.47-.19.71-.07.24-.13.45-.19.64-.04.16-.07.27-.08.34.02-.01.04-.03.08-.07.08-.09.15-.17.22-.26.07-.08.15-.18.24-.3.05-.07.1-.13.13-.18.02-.04.05-.08.06-.13.02-.05.04-.12.06-.21.08-.28.16-.57.25-.84s.2-.52.32-.75c.12-.23.26-.41.43-.54.17-.14.38-.21.6-.21.17,0,.34.04.5.13.16.08.3.22.42.4.11.17.18.37.24.6.05.22.09.44.11.66.02.21.03.39.03.53,0,.12-.05.16-.1.18-.04.02-.08.02-.13.02h-1.54s-.04,0-.06.02c-.01,0-.04.03-.09.09-.04.07-.1.16-.17.28l-.22.37s-.03.06-.03.07h2.27s.09-.04.14-.1c.06-.09.13-.2.18-.33.06-.14.11-.28.16-.41.03-.08.05-.16.07-.24.02-.09.03-.19.03-.3,0-.2,0-.43-.03-.66-.02-.23-.04-.47-.09-.71"/>
    </g>
  </g>
</svg>