<?xml version="1.0" encoding="UTF-8"?>
<svg id="Layer_2" data-name="Layer 2" xmlns="http://www.w3.org/2000/svg" viewBox="0 0 32.37 5.9">
  <g id="Layer_1-2" data-name="Layer 1">
    <g>
      <path d="M32.26,2.01c-.04-.23-.1-.42-.17-.59-.12-.27-.27-.47-.46-.63-.19-.15-.41-.22-.67-.22-.23,0-.43.05-.6.16-.18.11-.33.26-.47.45-.14.19-.26.41-.38.66-.04.08-.21.1-.21-.05,0-.02,0-.08-.06-.27-.04-.15-.1-.32-.18-.52-.08-.2-.18-.39-.3-.57-.02-.04-.05-.07-.07-.1,0,0-.03,0-.09.08-.07.09-.15.2-.26.34-.1.14-.18.24-.23.32-.01.02-.02.05-.04.07,0,.02-.01.03-.01.04h0s.02.03.07.09c.05.06.11.13.16.21.06.08.11.16.15.24.08.15.15.29.2.44.05.15.07.3.07.45,0,.17-.03.37-.08.6-.05.23-.12.47-.19.71-.07.24-.13.45-.19.64-.04.16-.07.27-.08.34.02-.01.04-.03.08-.07.08-.09.15-.17.22-.26.07-.08.15-.18.24-.3.05-.07.1-.13.13-.18.03-.04.05-.08.06-.13.02-.05.04-.12.06-.22.08-.28.16-.56.25-.84.09-.28.2-.53.32-.74.12-.23.26-.41.43-.55.17-.14.38-.21.6-.21.17,0,.34.04.5.13.16.08.3.22.42.4.1.17.18.37.24.6.05.22.09.44.11.66.02.22.03.39.03.53,0,.12-.06.17-.1.18-.04.02-.08.02-.13.02h-1.54s-.04,0-.06.02c-.01,0-.04.03-.09.09-.04.07-.1.16-.17.28l-.22.37s-.03.06-.03.07c0,0,.02,0,.04,0h2.23s.1-.06.13-.1c.06-.09.13-.2.18-.33.06-.14.12-.28.16-.41.02-.07.05-.15.07-.24.02-.09.03-.19.03-.3,0-.2,0-.42-.03-.66-.02-.23-.04-.47-.09-.71"/>
      <path d="M2.83,4.34c-.21.19-.52.28-.91.28-.1,0-.21,0-.31-.02-.11-.01-.21-.04-.3-.07-.02,0-.03-.02-.04-.03-.03-.04-.04-.07-.04-.1v-1.95s.03-.08.08-.09c.08-.01.16-.03.25-.04.09-.01.2-.02.32-.02.32,0,.57.06.76.2.19.13.33.3.41.49.08.19.12.39.12.59,0,.31-.11.57-.33.76M1.23.29s.04-.09.08-.09c.03,0,.06,0,.09,0h.08c.48,0,.81.08,1,.25.19.17.29.4.29.68,0,.16-.04.31-.1.47-.07.16-.21.29-.41.39-.2.1-.47.14-.84.14h-.09s-.09-.04-.09-.09V.29ZM3.71,2.88c-.1-.18-.24-.34-.42-.46-.18-.12-.38-.21-.61-.24-.04,0-.07-.04-.08-.08,0-.04.02-.08.06-.09.25-.08.44-.21.57-.4.13-.18.2-.4.2-.66,0-.29-.14-.51-.44-.68-.3-.18-.74-.27-1.28-.27-.2,0-.41.01-.63.03-.22.02-.44.05-.65.09-.16.03-.31.06-.44.09l.02.12c.14-.03.29-.05.45-.06.03,0,.05,0,.07.02.02.02.03.04.03.07v4.02c0,.14-.16.23-.53.31v.08l1.25.04c.14,0,.28,0,.4.01.15,0,.27,0,.36,0,.56,0,1.01-.12,1.33-.37.32-.24.48-.55.48-.96,0-.22-.05-.42-.15-.61"/>
      <path d="M7.24,2.89c.04-.06.09-.14.13-.22.04-.08.09-.17.13-.26.02-.06.03-.09.03-.09,0-.02,0-.04-.09-.04h-1.66c-.06,0-.11.03-.16.1-.07.09-.13.18-.2.28-.07.1-.12.2-.17.28-.06.11-.06.14-.06.14.02,0,.04.01.07.01h1.72s.05-.02.09-.05c.05-.04.1-.1.15-.17"/>
      <path d="M11.21,3.62c-.05.18-.11.31-.19.4-.08.09-.17.15-.27.17-.08.02-.17.03-.25.03-.35,0-.63-.13-.83-.39-.19-.26-.29-.67-.29-1.27,0-.22,0-.37.01-.47,0-.1.02-.19.03-.28.03-.2.1-.37.2-.52.11-.16.28-.24.49-.24.31,0,.55.1.71.28.16.18.27.42.33.7.06.28.09.57.09.87s-.02.53-.07.7M11.77,3.44c.03-.12.05-.24.07-.38.02-.14.03-.28.03-.42,0-.26-.03-.52-.08-.79-.05-.27-.14-.52-.26-.74-.12-.22-.28-.4-.48-.54-.2-.13-.44-.2-.73-.2-.23,0-.43.06-.61.19-.18.13-.34.3-.48.52-.13.22-.24.47-.31.74-.07.27-.11.55-.11.83,0,.52.07.95.2,1.28.13.33.31.57.53.73.22.16.46.23.73.23.2,0,.39-.05.55-.14.16-.09.31-.22.44-.36.13-.15.24-.31.32-.48.09-.17.15-.33.19-.48"/>
      <path d="M29.89,5.88c.1,0,.2.01.3.01.2,0,.32,0,.55,0,.11,0,.21,0,.31-.01.09,0,.17,0,.23,0h.04s.08,0,.1,0h.04s.02,0,.02,0c.01-.01.01-.02.01-.02v-.2s0-.04-.05-.04c-.07,0-.17,0-.29-.01-.06,0-.11,0-.17,0-.05,0-.11,0-.16,0-.06,0-.12,0-.18,0-.06,0-.12,0-.19,0s-.12,0-.19,0c-.07,0-.13,0-.19,0-.05,0-.11,0-.17,0-.05,0-.11,0-.17,0-.1,0-.19,0-.27.01-.04,0-.04.02-.04.04v.2s0,.03,0,.03c0,0,.07,0,.2,0,.08,0,.17,0,.27,0"/>
      <path d="M18.3,3.99s-.07-.02-.1-.04c-.02-.01-.04-.01-.05-.01-.02.02-.03.03-.04.04-.02.03-.05.08-.1.15-.05.08-.1.17-.14.26-.05.09-.09.17-.12.23-.01.03-.02.05-.02.07,0,0,.02.02.05.03.06.02.14.05.25.08.12.03.23.05.34.07.11.02.21.03.29.03.21,0,.44-.06.67-.18h0c.23-.12.44-.31.63-.56.07-.1.14-.22.21-.38.07-.15.1-.32.1-.49,0-.2-.04-.37-.11-.51-.08-.14-.18-.25-.29-.34-.12-.09-.24-.15-.36-.19-.12-.04-.23-.06-.31-.06h-.34s-.1-.02-.15-.06c-.07-.06-.09-.12-.09-.16,0-.07,0-.13,0-.18,0-.05,0-.1,0-.15,0-.12.08-.19.2-.19h.88c.08,0,.11,0,.12-.01.01,0,.03-.02.04-.03.03-.05.08-.13.14-.24.06-.1.11-.21.15-.31.05-.13.06-.18.06-.19,0,0-.01-.02-.06-.02h-1.43c-.1,0-.2-.01-.23-.09-.01-.03-.04-.09-.1-.21-.01-.01-.04,0-.09.06-.08.09-.15.21-.22.35-.09.17-.12.26-.13.31,0,.06-.02.11-.02.16,0,.05,0,.11,0,.19,0,.21,0,.42.01.64,0,.2.02.43.05.68,0,.06.03.13.18.13h.48c.34.02.57.09.71.21.14.12.21.28.21.47,0,.16-.05.29-.14.4-.14.15-.42.2-.82.11-.11-.03-.21-.05-.29-.08"/>
      <path d="M15.53,3.62c-.05.18-.11.31-.19.4-.08.09-.17.15-.27.17-.08.02-.16.03-.25.03-.35,0-.63-.13-.83-.39-.19-.26-.29-.67-.29-1.27,0-.21,0-.37.01-.46.01-.1.02-.19.04-.28.03-.2.1-.37.2-.52.11-.16.28-.24.49-.24.31,0,.55.1.71.29.16.18.27.42.33.7.06.27.09.57.09.87s-.02.53-.07.7M15.85,1.11c-.12-.22-.28-.4-.48-.54-.2-.13-.44-.2-.74-.2-.22,0-.43.06-.61.19-.18.13-.34.3-.48.52-.13.21-.24.46-.31.74-.07.27-.11.55-.11.83,0,.52.07.95.2,1.28.13.33.31.57.53.73s.46.23.73.23c.2,0,.38-.04.55-.14.17-.09.32-.22.44-.36.13-.15.24-.31.32-.48.09-.17.15-.33.19-.48.03-.11.05-.24.07-.38.02-.14.03-.28.03-.42,0-.26-.03-.52-.08-.79-.05-.27-.14-.51-.26-.74"/>
      <path d="M22.6,2.86c.03.13.07.27.1.42.03.12.06.23.08.33l.02.09c.03.13.06.24.08.32.03.11.07.22.11.34.04.11.1.21.16.3.06.08.14.14.25.18.11.04.22.07.34.07.35,0,.68-.07.98-.22.3-.15.57-.34.8-.56.17-.17.32-.39.45-.64.13-.25.23-.51.31-.78.07-.26.11-.49.11-.68,0-.26-.05-.5-.14-.73s-.23-.42-.41-.57c-.18-.14-.41-.22-.68-.22-.19,0-.37.03-.55.08-.18.06-.33.14-.46.24-.02.01-.04.04-.06.07-.02.03-.04.07-.07.13-.05.11-.1.23-.14.33-.04.11-.07.21-.09.31v.03c.14-.08.27-.15.39-.23.32-.19.75-.18,1.06,0,.16.09.29.21.38.36.11.19.17.43.17.71s-.04.52-.12.69c-.08.18-.22.33-.41.46-.08.06-.21.12-.36.17-.16.05-.33.1-.51.13-.18.03-.35.05-.51.05-.18,0-.32-.08-.41-.23-.08-.13-.14-.26-.17-.39-.04-.12-.07-.29-.11-.51-.04-.21-.08-.43-.11-.66-.04-.22-.07-.42-.11-.59-.05-.26-.12-.51-.19-.75-.07-.23-.15-.41-.24-.54-.01-.01-.02-.02-.03-.03,0,0,0,0,0,0l-.07.07c-.06.08-.13.16-.22.27-.08.1-.17.23-.28.38-.03.05-.03.07-.03.07,0,.01,0,.02.01.04.1.14.19.3.26.48.07.17.13.34.18.5.05.17.09.3.11.41.02.07.05.17.08.3"/>
    </g>
  </g>
</svg>