<?xml version="1.0" encoding="UTF-8"?>
<svg id="Layer_2" data-name="Layer 2" xmlns="http://www.w3.org/2000/svg" viewBox="0 0 32.37 5.9">
  <g id="Layer_1-2" data-name="Layer 1">
    <g>
      <path d="M7.24,2.89c.05-.07.09-.14.13-.21.05-.08.09-.17.14-.26.02-.06.03-.09.03-.09,0-.02,0-.04-.09-.04h-1.66c-.06,0-.11.03-.16.1-.07.09-.13.18-.2.28-.07.1-.12.2-.17.28-.06.11-.06.14-.06.14.02,0,.04.01.07.01h1.72s.05-.02.09-.05c.05-.04.1-.1.15-.17"/>
      <path d="M19.06,2.78h-.67c-.08,0-.14,0-.2-.02-.04-.01-.14-.05-.14-.22,0-.11.03-.24.09-.41.06-.15.13-.29.2-.42.08-.14.17-.24.26-.31.08-.06.17-.12.25-.17.05-.04.1-.05.15-.05.09,0,.13.05.14.1,0,.02,0,.05.01.08.02.11.03.25.04.41.01.16.02.31.03.46,0,.15,0,.27,0,.37,0,.12-.07.19-.18.19M19.77,2.62s0-.13,0-.31c0-.18,0-.39-.02-.63,0-.24-.02-.48-.03-.72-.01-.24-.03-.43-.05-.58,0-.06-.03-.06-.05-.06-.03,0-.09.01-.2.06-.1.04-.18.08-.23.11-.2.11-.39.24-.56.4-.17.15-.32.33-.45.55-.24.37-.43.72-.56,1.04-.13.31-.19.54-.19.69,0,.12.03.22.08.28.05.06.14.08.27.08h1.22c.1,0,.21.06.21.23,0,.04,0,.13,0,.27l.02.45c0,.16,0,.3,0,.4,0,.04,0,.06,0,.07,0-.01.04-.04.09-.1h0c.07-.09.14-.17.19-.23.05-.07.1-.14.15-.21.03-.05.05-.11.07-.15.01-.05.02-.11.02-.16v-.34c0-.21.13-.22.17-.22h.26s.07-.04.1-.11c.04-.07.08-.16.13-.27.04-.1.08-.19.11-.26v-.04s.03-.03.03-.05c0-.02,0-.03,0-.03h-.61c-.13,0-.18-.09-.18-.16"/>
      <path d="M15.53,3.62c-.05.18-.11.31-.19.4-.08.09-.17.15-.27.17-.08.02-.16.03-.25.03-.35,0-.63-.13-.83-.39-.19-.26-.29-.67-.29-1.27,0-.21,0-.37.01-.46.01-.1.02-.19.04-.28.03-.2.1-.37.2-.52.11-.16.28-.24.49-.24.31,0,.55.1.71.29.16.18.27.42.33.7.06.27.09.57.09.87s-.02.53-.07.7M15.85,1.11c-.12-.22-.28-.4-.48-.54-.2-.13-.44-.2-.74-.2-.23,0-.43.06-.61.19-.18.13-.34.3-.48.52-.13.22-.24.47-.31.74-.07.27-.11.55-.11.83,0,.52.07.95.2,1.28.13.33.31.57.53.73.22.16.46.23.73.23.2,0,.38-.04.55-.14.17-.09.31-.22.44-.36.13-.15.24-.31.32-.48.08-.17.15-.33.19-.47.03-.11.05-.24.07-.38.02-.14.03-.28.03-.42,0-.26-.03-.52-.08-.79-.05-.27-.14-.52-.26-.74"/>
      <path d="M2.83,4.34c-.21.19-.52.28-.91.28-.1,0-.2,0-.31-.02t0,0c-.12-.01-.21-.04-.3-.07-.02,0-.03-.02-.04-.03-.03-.04-.04-.07-.04-.1v-1.96s.03-.08.08-.09c.08-.01.16-.03.25-.04.09-.01.2-.02.32-.02.32,0,.57.06.76.2.19.13.33.3.41.49.08.19.12.39.12.59,0,.31-.11.57-.33.76M1.23.29s.04-.09.08-.09v.09s0-.09,0-.09c.03,0,.06,0,.09,0h.08c.48,0,.81.08,1,.25.19.17.29.4.29.68,0,.16-.04.31-.1.46-.07.16-.21.29-.41.39-.19.09-.48.14-.84.14h-.09s-.09-.04-.09-.09V.29ZM3.71,2.88c-.1-.18-.24-.34-.42-.46-.18-.12-.38-.21-.61-.24-.04,0-.07-.04-.08-.08,0-.04.02-.08.06-.09.25-.09.44-.22.57-.4.13-.18.2-.4.2-.65,0-.29-.14-.51-.43-.68-.31-.18-.74-.27-1.28-.27-.2,0-.41.01-.63.03-.24.02-.45.05-.65.09-.16.03-.31.06-.44.09l.02.12c.14-.03.29-.05.45-.06.03,0,.05,0,.07.02.02.02.03.04.03.07v4.02c0,.14-.16.23-.53.31v.08l1.25.04c.14,0,.28,0,.4.01.15,0,.27,0,.36,0,.56,0,1.01-.12,1.33-.37.32-.24.48-.55.48-.96,0-.22-.05-.43-.15-.61"/>
      <path d="M29.89,5.88c.1,0,.2.01.3.01.2,0,.33,0,.55,0,.11,0,.21,0,.31-.01.11,0,.19,0,.27,0,.04,0,.08,0,.1,0h.04s.02,0,.02,0c.01-.01.01-.02.01-.03v-.19s0-.04-.04-.04h-.3c-.06-.01-.11-.01-.17-.02-.05,0-.11,0-.16,0-.06,0-.12,0-.18,0-.06,0-.12,0-.19,0s-.12,0-.19,0c-.07,0-.13,0-.19,0-.05,0-.11,0-.17,0-.05,0-.11,0-.17,0-.1,0-.19,0-.27.01-.04,0-.04.02-.04.04v.19s0,.03,0,.03c0,0,.07,0,.2,0,.08,0,.17,0,.27.01"/>
      <path d="M32.26,2.01c-.04-.23-.1-.42-.17-.59-.11-.26-.27-.47-.46-.63-.19-.15-.41-.22-.67-.22-.24,0-.43.05-.6.16-.18.11-.33.26-.46.45-.14.19-.26.41-.38.66-.05.09-.21.1-.21-.05,0-.02,0-.07-.06-.27-.04-.15-.1-.32-.18-.52-.08-.2-.18-.39-.3-.57-.03-.04-.05-.07-.07-.1,0,0-.03,0-.09.08-.07.09-.16.2-.26.34-.1.14-.18.24-.23.33,0,.01-.02.03-.02.04v.03s-.02.03-.02.03c0,0,.02.03.07.09.05.06.11.12.16.21.05.08.11.16.15.24.08.15.15.29.2.44.05.15.07.3.07.45,0,.17-.03.37-.08.6-.05.23-.12.47-.19.71-.07.24-.14.45-.19.64-.04.16-.07.27-.08.34.02-.01.04-.03.08-.07.08-.09.15-.17.22-.26.07-.08.15-.18.24-.3.05-.07.1-.13.12-.18.03-.04.05-.08.06-.13.02-.05.04-.12.06-.22.08-.28.16-.56.25-.84.09-.28.2-.53.32-.74.12-.23.26-.41.43-.55.17-.14.37-.21.6-.21.17,0,.34.04.5.12.16.08.3.22.42.4.1.16.18.36.24.6.05.22.09.45.11.66.02.21.03.39.03.53,0,.12-.06.17-.1.18-.04.02-.08.02-.13.02h-1.54s-.04,0-.05.01c-.01,0-.04.03-.09.09-.04.07-.1.16-.17.28l-.22.37s-.03.06-.04.07c0,0,.02,0,.04,0h2.23s.1-.06.13-.1c.06-.09.13-.2.18-.33.06-.14.11-.28.16-.41.02-.07.05-.15.07-.24.02-.09.03-.19.03-.3,0-.2,0-.42-.03-.66-.02-.23-.05-.47-.09-.71"/>
      <path d="M11.21,3.62c-.05.18-.11.31-.19.4-.08.09-.17.15-.27.17-.08.02-.16.03-.25.03-.35,0-.63-.13-.83-.39-.19-.26-.29-.67-.29-1.27,0-.22,0-.37.01-.47,0-.09.02-.19.03-.28.03-.2.1-.37.2-.52.11-.16.28-.24.49-.24.31,0,.55.1.72.29.16.18.27.42.33.7.06.28.09.57.09.87s-.02.53-.07.7M11.77,3.44c.03-.11.05-.24.07-.38.02-.14.03-.28.03-.42,0-.26-.03-.52-.08-.79-.05-.27-.14-.52-.26-.74-.12-.22-.28-.4-.48-.54-.2-.13-.44-.2-.74-.2-.22,0-.43.06-.61.19-.18.13-.34.3-.48.52-.13.22-.24.47-.31.74-.07.27-.11.55-.11.83,0,.52.07.95.2,1.29.13.33.31.57.53.73.22.16.46.23.73.23.2,0,.39-.05.55-.14.17-.09.31-.21.44-.36.13-.15.24-.31.32-.48.09-.17.15-.33.19-.48"/>
      <path d="M22.4,2.16c.05.17.09.3.11.41.02.07.05.17.08.3.03.13.07.27.11.42.03.14.07.26.1.39v.04c.04.13.07.24.09.32.03.11.07.22.11.34.04.11.1.21.16.3.06.08.14.14.25.18.11.04.22.06.34.06.35,0,.68-.08.98-.22.3-.15.58-.34.8-.56.17-.17.32-.38.46-.64.13-.25.23-.51.31-.78.07-.26.11-.49.11-.68,0-.25-.05-.5-.14-.73-.09-.23-.23-.42-.41-.57-.18-.14-.4-.22-.68-.22-.19,0-.37.03-.55.08-.18.06-.33.14-.46.24-.01.01-.04.04-.06.07-.02.03-.04.07-.07.13-.05.11-.1.23-.14.33-.04.11-.07.21-.09.31,0,0,0,.02,0,.03.14-.08.27-.15.4-.23.32-.19.75-.18,1.06,0,.16.09.29.21.38.36.11.19.17.42.17.71s-.04.52-.12.69c-.08.18-.22.33-.41.46-.08.06-.21.12-.36.17-.15.05-.32.1-.51.13-.18.04-.35.05-.51.05-.18,0-.32-.08-.41-.23-.08-.13-.14-.26-.17-.39-.03-.12-.07-.29-.11-.51-.04-.21-.08-.43-.11-.66-.04-.22-.07-.42-.11-.59-.05-.25-.12-.5-.19-.75-.07-.23-.15-.41-.24-.54,0-.01-.02-.02-.02-.03,0,0,0,0,0,0-.03.03-.05.05-.07.07-.06.08-.14.16-.22.27-.08.1-.17.23-.28.38-.03.05-.04.07-.04.07,0,0,0,.02.01.04.1.14.19.3.26.48.07.18.13.35.18.5"/>
    </g>
  </g>
</svg>