<?xml version="1.0" encoding="UTF-8"?>
<svg id="Layer_2" data-name="Layer 2" xmlns="http://www.w3.org/2000/svg" viewBox="0 0 32.37 5.9">
  <g id="Layer_1-2" data-name="Layer 1">
    <g>
      <path d="M11.21,3.62c-.05.18-.11.31-.19.4-.08.09-.17.15-.27.17-.08.02-.16.03-.24.03-.35,0-.63-.13-.83-.39-.19-.25-.29-.67-.29-1.27,0-.22,0-.37.01-.47,0-.09.02-.19.03-.28.03-.2.1-.37.2-.52.11-.16.28-.24.49-.24.31,0,.55.1.71.29.16.18.27.42.33.7.06.28.09.57.09.87s-.02.53-.07.7M11.77,3.44c.03-.12.06-.25.07-.38.02-.14.03-.28.03-.42,0-.25-.03-.52-.08-.79-.05-.27-.14-.52-.26-.74-.12-.22-.28-.4-.48-.54-.19-.13-.44-.2-.73-.2-.23,0-.43.06-.61.19-.18.13-.35.3-.48.52-.14.22-.24.47-.31.74-.07.27-.11.55-.11.83,0,.52.07.95.2,1.28.13.33.31.57.53.73.22.16.46.23.73.23.2,0,.38-.05.55-.14.17-.09.31-.21.44-.36.13-.15.23-.31.32-.48.08-.17.15-.33.19-.48"/>
      <path d="M1.23,2.44s.03-.08.07-.09c.08-.01.17-.03.25-.04.09-.01.19-.02.32-.02.31,0,.57.07.76.2.19.13.33.3.41.49.08.19.12.39.12.59,0,.31-.11.57-.33.76-.21.19-.52.28-.91.28-.1,0-.21,0-.31-.02-.11-.01-.21-.04-.3-.07-.02,0-.03-.02-.04-.03-.03-.04-.04-.07-.04-.1v-1.95ZM1.23.29s.04-.09.08-.09c.03,0,.06,0,.09,0h.08c.48,0,.81.08,1,.25.19.17.28.4.28.68,0,.16-.03.32-.1.46-.07.16-.21.29-.41.39-.19.09-.48.14-.84.14h-.09s-.09-.04-.09-.09V.29ZM.47.27s.05,0,.07.02c.02.02.03.04.03.07v4.02c0,.14-.16.23-.53.31v.08l.71.02.63.02c.11,0,.21,0,.31,0,.15,0,.27,0,.35,0,.56,0,1.01-.12,1.33-.36.32-.24.48-.56.48-.96,0-.22-.05-.43-.15-.61-.1-.18-.24-.34-.42-.46-.18-.12-.38-.21-.61-.24-.04,0-.07-.04-.08-.08s.02-.08.06-.09c.25-.08.44-.22.57-.4.13-.18.2-.4.2-.65,0-.29-.14-.51-.44-.68-.3-.18-.74-.26-1.28-.26-.2,0-.41.01-.63.04-.22.02-.44.05-.65.09-.17.03-.32.06-.45.09l.02.12c.15-.03.3-.05.45-.06"/>
      <path d="M22.6,2.86c.03.13.07.27.1.42.04.15.07.29.11.42.03.13.06.24.08.32.03.11.07.22.11.35.04.11.1.21.16.3.06.08.14.14.25.18.11.04.22.06.34.06.35,0,.68-.07.98-.22h0c.3-.15.57-.33.8-.56.17-.17.32-.38.46-.64.13-.25.23-.51.31-.78.07-.26.11-.49.11-.68,0-.26-.05-.5-.14-.73-.09-.23-.23-.42-.41-.57-.18-.14-.41-.22-.68-.22-.18,0-.37.03-.55.08-.18.06-.33.14-.46.24-.01.02-.04.04-.06.07-.02.03-.04.07-.07.13-.05.11-.1.23-.14.33-.04.11-.07.21-.09.31v.03c.14-.08.27-.15.39-.23.32-.19.75-.18,1.06,0,.16.09.29.21.38.36.11.19.17.43.17.71s-.04.52-.12.69c-.08.18-.22.33-.41.46-.08.06-.21.12-.36.17-.16.05-.32.1-.51.13-.18.03-.35.05-.51.05-.18,0-.32-.08-.41-.23-.08-.13-.13-.26-.17-.39-.03-.12-.07-.29-.11-.51-.04-.21-.08-.44-.11-.67-.04-.23-.07-.42-.11-.59-.05-.26-.12-.51-.19-.75-.07-.23-.15-.41-.24-.54-.01-.01-.02-.02-.03-.03,0,0,0,0,0,0l-.03.03s-.03.03-.03.04c-.07.08-.14.16-.22.27-.08.1-.17.23-.27.38-.03.05-.04.07-.04.07,0,0,0,.02.01.04.1.14.19.3.26.48.07.17.13.34.18.5.05.16.09.3.11.41.02.07.05.17.08.3"/>
      <path d="M15.53,3.62c-.05.18-.11.31-.19.4-.08.09-.17.15-.27.17-.08.02-.16.03-.24.03-.35,0-.63-.13-.83-.39-.19-.25-.29-.67-.29-1.27,0-.21,0-.36.01-.46.01-.1.02-.19.04-.28.03-.2.1-.37.21-.52.11-.16.28-.24.49-.24.31,0,.55.1.71.29.16.18.27.41.33.7.06.28.09.57.09.87s-.02.52-.07.7M15.85,1.11c-.12-.22-.28-.4-.48-.54-.2-.13-.44-.2-.74-.2-.23,0-.43.06-.61.19-.19.13-.35.3-.48.52-.13.22-.24.47-.31.74-.07.27-.11.55-.11.83,0,.52.07.95.2,1.28.13.33.31.57.53.73.22.16.46.23.73.23.2,0,.39-.05.55-.14.17-.09.31-.22.44-.36.13-.15.24-.31.32-.48.08-.16.15-.33.19-.48.03-.11.05-.24.07-.38.02-.14.03-.28.03-.42,0-.25-.03-.52-.08-.79-.05-.27-.14-.51-.26-.74"/>
      <path d="M29.63,5.87c.08,0,.17,0,.27.01.1,0,.2.01.3.01.2,0,.32,0,.54,0,.11,0,.21,0,.31-.01.09,0,.16,0,.23,0h.04s.07,0,.1,0h.04s.02,0,.02,0c0,0,.01-.02.01-.03v-.2s0-.04-.05-.04c-.07,0-.17,0-.3-.01-.06,0-.11,0-.17,0-.05,0-.11,0-.16,0h-.18c-.06,0-.12-.01-.19-.01-.06,0-.12,0-.19,0h-.19c-.05.01-.11.01-.17.01-.05,0-.11,0-.17,0-.1,0-.19,0-.27.01-.04,0-.04.02-.04.04v.2s0,.03,0,.03c0,0,.06,0,.2,0"/>
      <path d="M32.26,2.01c-.04-.23-.1-.43-.17-.59-.11-.26-.27-.47-.46-.63-.19-.15-.41-.22-.67-.22-.23,0-.43.05-.6.16-.18.11-.33.26-.46.45-.14.19-.26.41-.38.66-.03.08-.21.11-.21-.05,0-.02,0-.07-.06-.27-.04-.15-.1-.32-.18-.52-.08-.2-.18-.39-.3-.57-.02-.04-.05-.07-.07-.09,0-.01-.03,0-.09.08-.07.09-.16.2-.26.34-.1.14-.18.24-.23.32-.01.02-.02.05-.04.07,0,.02-.01.03-.01.04,0,0,.02.03.07.08.06.06.11.13.17.21.05.08.11.16.15.24.08.15.15.29.2.44.05.15.07.3.07.45,0,.17-.03.36-.08.6-.05.23-.12.47-.19.71-.07.24-.13.45-.19.64-.04.16-.07.27-.08.34.02-.01.04-.03.08-.07.08-.09.15-.17.22-.26.07-.08.15-.18.24-.3.05-.07.1-.13.13-.18.02-.04.05-.08.06-.13.02-.05.04-.12.06-.21.08-.28.16-.57.25-.84.09-.27.2-.52.32-.75.12-.23.26-.41.43-.54.17-.14.38-.21.6-.21.17,0,.34.04.5.13.16.08.3.22.42.4.11.17.18.37.24.6.05.22.09.44.11.66.02.21.03.39.03.53,0,.12-.05.16-.1.18-.04.02-.08.02-.13.02h-1.54s-.04,0-.06.02c-.01,0-.04.03-.09.09-.04.07-.1.16-.17.28l-.22.37s-.03.06-.03.07c0,0,.02,0,.04,0h2.23s.09-.04.14-.1c.06-.09.13-.2.18-.33.06-.14.11-.28.16-.41.03-.08.05-.16.07-.24.02-.09.03-.19.03-.3,0-.2,0-.43-.03-.66-.02-.23-.04-.47-.09-.71"/>
      <path d="M7.38,2.68c.04-.08.09-.17.13-.26.02-.06.03-.09.03-.09,0-.02,0-.04-.09-.04h-1.66c-.06,0-.11.03-.16.1-.07.09-.13.18-.2.29-.07.1-.12.19-.17.28-.05.11-.06.14-.06.14.02,0,.04.01.07.01h1.72s.05-.02.09-.05c.05-.04.09-.09.15-.17.05-.07.09-.14.13-.22"/>
      <path d="M18.56,4.04h-.48s-.07.1-.11.18c-.05.09-.09.19-.13.28-.03.06-.05.11-.07.15h2.19s.04,0,.06-.02c0,0,.03-.02.07-.08.07-.11.11-.19.14-.26.03-.07.07-.15.12-.26h-.52c-.25,0-.41-.15-.41-.39,0-.12,0-.37-.03-.74-.02-.39-.03-.87-.03-1.43,0-.06,0-.16,0-.3s-.01-.29-.02-.45c-.01-.15-.04-.28-.06-.38h-.02s-.1,0-.21.06c-.14.09-.3.19-.47.32-.17.13-.32.24-.44.33,0,0-.01.01-.02.02l.29.03c.26.03.41.25.46.65.03.21.04.47.05.76,0,.29.01.61.01.98,0,.09,0,.18-.02.27-.03.17-.15.27-.33.27"/>
    </g>
  </g>
</svg>