<?xml version="1.0" encoding="UTF-8"?>
<svg id="Layer_2" data-name="Layer 2" xmlns="http://www.w3.org/2000/svg" viewBox="0 0 32.37 5.9">
  <g id="Layer_1-2" data-name="Layer 1">
    <g>
      <path d="M22.52,2.57c.02.07.05.17.08.3.03.1.05.21.08.32l.03.1c.03.14.07.27.1.39v.03c.04.13.07.24.09.32.03.11.07.22.11.35.04.11.1.21.16.3.06.08.14.14.25.18.11.04.22.07.34.07.35,0,.68-.07.98-.22.3-.15.57-.34.8-.56.17-.17.33-.39.46-.64.13-.25.23-.51.31-.78.07-.26.11-.49.11-.68,0-.25-.05-.5-.14-.73-.09-.23-.23-.42-.41-.57-.18-.14-.41-.22-.68-.22-.18,0-.37.03-.55.08-.18.06-.33.14-.46.24-.01.01-.04.04-.06.07-.02.02-.04.06-.07.13-.05.12-.1.23-.14.34-.04.1-.07.21-.09.31v.03c.14-.08.27-.15.39-.23.33-.19.75-.17,1.06,0,.16.09.29.21.38.36.11.19.17.42.17.71s-.04.52-.12.69c-.08.18-.22.33-.41.46-.08.06-.21.12-.36.17-.16.05-.32.1-.51.13-.18.04-.35.05-.51.05-.18,0-.32-.08-.41-.23-.08-.14-.14-.26-.17-.39-.03-.12-.07-.29-.11-.51-.04-.21-.08-.44-.11-.67-.04-.22-.07-.42-.11-.59-.06-.27-.12-.52-.19-.75-.07-.23-.15-.41-.24-.54-.01-.01-.02-.02-.03-.03,0,0,0,0,0,0l-.07.07c-.06.07-.13.16-.22.26-.08.1-.17.23-.28.38-.03.05-.03.07-.03.07,0,0,0,.02.01.03.1.14.19.3.26.48.07.17.13.34.18.5.05.16.09.3.11.41"/>
      <path d="M18.43,4.08c-.11-.03-.22-.07-.33-.11-.03-.01-.04-.02-.05-.02,0,0,0,.01-.02.03-.02.02-.06.07-.12.18-.06.09-.11.19-.16.28-.05.09-.09.17-.12.22-.01.03-.01.04-.01.04,0,0,.01.02.05.04.06.03.15.06.26.08.11.03.23.05.34.06.11.02.21.03.28.03.14,0,.32-.03.54-.09.2-.06.39-.16.54-.31.15-.15.28-.32.41-.53.12-.2.18-.42.18-.67,0-.17-.04-.31-.11-.42-.08-.12-.17-.22-.28-.29-.12-.08-.23-.15-.33-.2-.05-.02-.13-.06-.13-.13,0-.04.02-.07.05-.11.14-.11.26-.24.37-.39.1-.14.14-.29.14-.45,0-.18-.05-.32-.14-.44-.1-.12-.23-.22-.38-.3-.16-.07-.33-.13-.52-.16-.18-.03-.35-.05-.51-.05-.02,0-.02,0-.02,0-.02.02-.05.05-.08.1-.05.07-.1.16-.17.28-.07.11-.11.2-.15.27-.02.03-.02.05-.02.07.08,0,.17,0,.28,0,.11,0,.22.01.33.03.12.02.21.03.28.06.3.1.45.26.45.46,0,.16-.05.28-.14.37-.08.07-.17.13-.28.17-.08.03-.15.08-.21.13-.05.04-.09.11-.14.19-.05.08-.09.16-.12.24-.03.07-.04.11-.04.13.01,0,.04.01.1.02.07,0,.14,0,.23.02.09,0,.17.02.24.04.22.05.38.14.48.26.09.12.14.28.14.47,0,.17-.08.26-.14.3-.08.06-.18.1-.3.12-.21.04-.44.04-.66-.02"/>
      <path d="M11.21,3.62c-.05.18-.11.31-.19.4-.08.09-.17.15-.27.17-.08.02-.16.03-.24.03-.35,0-.63-.13-.83-.39-.19-.25-.29-.67-.29-1.27,0-.22,0-.37.01-.47,0-.1.02-.19.03-.28.03-.2.1-.37.21-.52.11-.16.28-.24.49-.24.31,0,.55.1.71.28.16.18.27.41.33.7.06.28.09.57.09.87s-.02.53-.07.7M11.77,3.44c.03-.11.05-.24.07-.38.02-.14.03-.28.03-.42,0-.25-.03-.52-.08-.79-.05-.27-.14-.52-.26-.74-.12-.22-.28-.4-.48-.54-.2-.13-.44-.2-.73-.2-.23,0-.43.06-.61.19-.18.13-.34.3-.48.52-.14.22-.24.47-.31.74-.07.27-.11.55-.11.83,0,.52.07.95.2,1.28.13.33.31.57.53.73.22.16.46.23.73.23.2,0,.39-.05.55-.14.16-.09.31-.22.44-.36.13-.15.24-.31.32-.48.09-.17.15-.33.19-.48"/>
      <path d="M2.83,4.34c-.21.19-.52.28-.91.28-.1,0-.21,0-.31-.02-.11-.01-.21-.04-.3-.07-.02,0-.03-.01-.04-.03-.03-.04-.04-.07-.04-.1v-1.95s.03-.08.08-.09c.08-.01.17-.03.25-.04.09-.01.2-.02.32-.02.31,0,.57.07.76.2.19.13.33.3.41.49.08.19.12.39.12.59,0,.31-.11.57-.33.76M1.23.29s.04-.09.08-.09c.03,0,.06,0,.09,0h.08c.49,0,.81.08,1,.25.19.17.28.4.28.68,0,.16-.04.31-.1.47-.07.16-.21.29-.41.39-.2.1-.47.14-.85.14h-.09s-.09-.04-.09-.09V.29ZM3.71,2.88c-.1-.18-.24-.34-.42-.46-.18-.12-.38-.21-.61-.24-.04,0-.07-.04-.08-.08,0-.04.02-.08.06-.09.25-.08.44-.21.57-.4.13-.18.2-.4.2-.66,0-.29-.14-.51-.43-.68-.31-.18-.74-.27-1.28-.27-.2,0-.41.01-.63.03-.22.02-.44.05-.65.09-.16.03-.31.06-.44.09l.02.12c.14-.03.3-.05.45-.06.02,0,.05,0,.07.02.02.02.03.04.03.07v4.02c0,.14-.16.23-.53.31v.08l.71.02.47.02c.17,0,.32.01.47.01.15,0,.27,0,.36,0,.56,0,1.01-.12,1.34-.37.32-.24.48-.55.48-.96,0-.22-.05-.42-.15-.61"/>
      <path d="M32.26,2.01c-.04-.23-.1-.42-.17-.59-.11-.26-.27-.47-.46-.63-.19-.15-.41-.22-.67-.22-.24,0-.43.05-.6.16-.18.11-.33.26-.47.45-.14.19-.26.41-.38.66-.04.09-.21.1-.21-.05,0-.02,0-.08-.06-.27-.04-.15-.1-.32-.18-.52-.08-.2-.18-.39-.3-.57-.03-.04-.05-.07-.07-.1,0,0-.03,0-.09.08-.07.09-.16.2-.26.34-.1.14-.18.24-.23.32,0,.02-.02.04-.03.06-.02.03-.02.04-.02.05,0,0,.02.03.07.09.06.06.11.13.16.21.05.08.11.16.15.24.08.15.15.29.2.44.05.15.07.3.07.45,0,.17-.03.36-.08.6-.06.24-.12.48-.19.71-.07.24-.14.45-.19.64-.05.18-.07.28-.08.34.02-.01.04-.03.08-.06.08-.09.15-.17.22-.26.07-.08.15-.18.24-.3.05-.07.1-.13.13-.18.03-.04.05-.08.06-.13.02-.05.04-.12.07-.22.08-.28.16-.56.25-.84.09-.27.2-.52.31-.75.12-.23.27-.41.43-.54.3-.25.74-.28,1.1-.09.16.08.3.22.42.4.1.17.18.37.24.6.05.23.09.45.11.66.02.21.03.39.03.53,0,.12-.05.16-.1.18-.04.02-.08.02-.13.02h-1.54s-.04,0-.06.02c0,0-.04.03-.09.09-.04.07-.1.16-.17.28-.06.11-.13.22-.2.34l-.02.03s-.04.06-.04.07c0,0,.02,0,.04,0h2.23s.1-.06.13-.1c.07-.09.13-.2.18-.33.06-.14.12-.28.16-.41.02-.07.05-.15.07-.24.02-.09.03-.19.03-.29,0-.19,0-.41-.03-.66-.02-.23-.04-.47-.09-.71"/>
      <path d="M29.89,5.88c.1,0,.2.01.3.01.2,0,.33,0,.55,0,.11,0,.21,0,.31-.01.09,0,.16,0,.23,0h.04s.07,0,.1,0h.04s.02,0,.02,0c.01-.01.01-.02.01-.03v-.2s0-.04-.05-.04c-.07,0-.17,0-.29-.01-.05,0-.11,0-.17,0-.05,0-.11,0-.16,0-.06,0-.12,0-.18,0-.07,0-.13,0-.19,0s-.12,0-.19,0c-.06,0-.13,0-.19,0-.05,0-.11,0-.17,0-.05,0-.11,0-.17,0-.1,0-.19,0-.27.01-.04,0-.04.02-.04.04v.2s0,.03,0,.03c0,0,.07,0,.2,0,.08,0,.17,0,.27,0"/>
      <path d="M7.38,2.68c.05-.08.09-.17.14-.26.02-.06.02-.09.02-.09,0-.02,0-.04-.09-.04h-1.65c-.06,0-.11.03-.16.1-.07.09-.13.18-.2.29-.07.1-.12.19-.17.28-.05.11-.06.14-.06.14.02,0,.04.01.07.01h1.73s.05-.02.09-.05c.05-.04.1-.1.15-.16.05-.07.09-.14.13-.22"/>
      <path d="M15.53,3.62c-.05.18-.11.31-.19.4-.08.09-.17.15-.27.17-.08.02-.16.03-.24.03-.35,0-.63-.13-.83-.39h0c-.19-.26-.28-.67-.28-1.27,0-.21,0-.37.01-.46,0-.1.02-.19.04-.28.03-.2.1-.37.21-.52.11-.16.28-.24.49-.24.31,0,.54.1.71.29.16.18.27.41.33.7.06.28.09.57.09.87s-.02.52-.07.7M15.85,1.11c-.12-.22-.28-.4-.48-.54-.2-.13-.44-.2-.74-.2-.23,0-.43.06-.61.19-.18.13-.34.3-.48.52-.13.22-.24.46-.31.74-.07.27-.11.55-.11.83,0,.52.07.95.2,1.28.13.33.31.57.53.73.22.16.47.23.73.23.2,0,.39-.05.55-.14.17-.09.31-.22.44-.36.13-.15.24-.31.32-.48.09-.17.15-.33.19-.48.03-.11.05-.24.07-.38.02-.14.03-.28.03-.42,0-.26-.03-.52-.08-.79-.05-.26-.14-.51-.26-.74"/>
    </g>
  </g>
</svg>