<?xml version="1.0" encoding="UTF-8"?>
<svg id="Layer_2" data-name="Layer 2" xmlns="http://www.w3.org/2000/svg" viewBox="0 0 32.37 5.9">
  <g id="Layer_1-2" data-name="Layer 1">
    <g>
      <path d="M18.09,4.05c-.04.11-.08.23-.1.37-.03.14-.04.31-.04.5,0,0,0,0,0,.01.02-.01.03-.02.04-.03.1-.08.22-.18.35-.3.15-.14.26-.26.35-.36.02-.03.04-.06.05-.09.01-.05.02-.09.02-.13,0-.06.02-.14.04-.23.03-.09.05-.18.08-.25.07-.18.17-.4.31-.63.14-.23.26-.44.38-.6.09-.12.19-.26.31-.43.13-.18.23-.34.32-.5.06-.12.12-.25.18-.38.06-.15.07-.22.07-.26,0-.02,0-.05-.02-.08,0,0-.03-.02-.09-.02h-1.85c-.12,0-.21-.02-.26-.07-.05-.05-.09-.12-.12-.22v-.02h-.01s-.04.01-.06.05c-.04.06-.09.14-.16.25-.07.1-.13.22-.2.34-.07.12-.12.22-.17.32-.01.03-.03.06-.04.09-.01.03-.02.04-.02.05,0,0,0,.03.08.03h1.7c.15,0,.21.09.21.17,0,.11-.06.25-.17.44-.11.17-.22.35-.34.54-.17.26-.33.52-.49.77-.16.24-.27.46-.35.66"/>
      <path d="M15.53,3.62c-.05.18-.11.31-.19.4-.08.09-.17.15-.26.17-.09.02-.17.03-.25.03-.35,0-.63-.13-.83-.39-.19-.26-.29-.67-.29-1.27,0-.21,0-.36.01-.47,0-.1.02-.19.04-.28.03-.2.1-.37.2-.52.11-.16.28-.24.49-.24.31,0,.55.1.71.29.16.18.27.42.33.7.06.27.09.57.09.87s-.02.53-.07.7M15.85,1.1c-.12-.22-.28-.4-.48-.53-.2-.13-.44-.2-.74-.2-.22,0-.43.06-.61.19-.18.13-.34.3-.48.52-.13.22-.24.47-.31.74-.07.27-.11.55-.11.83,0,.52.07.95.2,1.29.13.33.31.57.53.73.22.16.46.24.73.24.2,0,.38-.05.55-.14.17-.09.32-.22.44-.36.13-.15.24-.31.32-.48.09-.17.15-.33.19-.47.03-.11.05-.24.07-.38.02-.14.03-.28.03-.42,0-.26-.03-.52-.08-.79-.05-.26-.14-.51-.26-.74"/>
      <path d="M11.02,4.02c-.08.09-.17.14-.27.17-.08.02-.17.03-.25.03-.35,0-.63-.13-.82-.39-.19-.26-.29-.67-.29-1.27,0-.22,0-.37.01-.47,0-.1.02-.19.04-.28.03-.2.1-.37.2-.52.11-.16.28-.24.49-.24.31,0,.55.1.72.29.16.18.27.42.33.7.06.28.09.57.09.87s-.02.53-.07.7c-.05.18-.11.31-.19.4M11.58,3.92c.09-.17.15-.33.19-.47.03-.12.05-.25.07-.38.02-.14.03-.28.03-.42,0-.26-.03-.52-.08-.79-.05-.27-.14-.52-.26-.74-.12-.22-.28-.4-.48-.54-.2-.13-.44-.2-.74-.2-.22,0-.43.06-.61.19-.18.13-.34.3-.48.52-.13.22-.24.47-.31.74-.07.27-.11.55-.11.83,0,.52.07.95.2,1.29.13.33.31.57.53.73.22.16.46.23.73.23.2,0,.38-.05.55-.14.17-.1.32-.22.44-.37.13-.15.24-.31.32-.48"/>
      <path d="M29.46,5.87s.09,0,.17,0c.08,0,.17,0,.27.01.1,0,.2,0,.3.01.2,0,.32,0,.54,0,.11,0,.21,0,.31-.01.09,0,.17,0,.23,0h.04s.07,0,.1,0h.04s.02,0,.02,0c.01-.01.01-.02.01-.03v-.2s0-.04-.04-.04h-.29c-.06-.01-.11-.01-.17-.01-.06,0-.11,0-.16,0-.06,0-.12,0-.18,0-.06,0-.12,0-.19,0-.06,0-.12,0-.19,0-.07,0-.13,0-.19,0-.05,0-.11,0-.17,0-.05,0-.11,0-.17,0-.1,0-.19,0-.27.01-.04,0-.04.02-.04.04v.2s0,.03.03.03"/>
      <path d="M22.52,2.57c.02.07.05.17.08.3.03.13.07.27.1.42.03.14.07.26.1.39v.04c.04.13.07.24.09.32.03.11.07.22.11.34.04.11.1.21.16.3.06.08.14.14.25.18.11.04.22.06.34.06.35,0,.68-.08.98-.22.3-.15.57-.34.8-.56.17-.17.32-.39.45-.64.13-.25.23-.51.31-.78.07-.26.11-.49.11-.68,0-.25-.05-.5-.14-.73-.09-.23-.23-.42-.41-.57-.18-.14-.41-.22-.68-.22-.19,0-.37.03-.55.08-.18.06-.33.14-.46.24-.02.02-.04.04-.06.07-.02.03-.04.07-.07.13-.05.11-.1.23-.14.33-.04.1-.07.21-.09.31v.03c.14-.08.27-.15.39-.23.33-.19.75-.18,1.06,0,.16.09.29.21.38.36.11.19.17.43.17.71s-.04.52-.12.69c-.08.18-.22.33-.41.46-.09.06-.21.12-.36.17-.15.05-.32.1-.51.13-.19.04-.35.05-.51.05-.18,0-.32-.08-.41-.23-.08-.13-.14-.26-.17-.39-.04-.12-.07-.29-.11-.51-.04-.21-.08-.43-.11-.66-.04-.23-.07-.42-.11-.59-.05-.26-.12-.51-.19-.75-.07-.23-.15-.41-.24-.54-.01-.01-.02-.02-.03-.03,0,0,0,0,0,0-.02.03-.05.05-.07.07-.06.08-.13.16-.21.27-.08.1-.17.23-.28.38-.03.05-.04.07-.04.07,0,0,0,.02.01.03.1.14.19.3.26.48.07.17.13.34.18.5.05.18.09.31.11.41"/>
      <path d="M1.23,2.44s.03-.08.08-.09c.08-.01.17-.03.25-.04.09-.01.2-.02.32-.02.32,0,.57.06.76.2.19.13.33.3.41.49.08.19.12.39.12.59,0,.31-.11.57-.33.76-.21.19-.52.28-.91.28-.1,0-.2,0-.31-.02,0,0,0,0,0,0-.11-.01-.21-.04-.3-.07-.01,0-.03-.01-.04-.03-.03-.04-.04-.07-.04-.11v-1.96ZM1.23.29s.04-.09.08-.09c.03,0,.06,0,.09,0h.08c.48,0,.81.08,1,.25.19.17.28.4.28.68,0,.16-.03.31-.1.47-.07.16-.21.29-.41.39-.19.09-.48.14-.84.14h-.09s-.09-.04-.09-.09V.29ZM1.22,4.8h.07c.14,0,.28.01.41.01.15,0,.27,0,.35,0,.56,0,1.01-.12,1.34-.37.32-.24.48-.55.48-.96,0-.22-.05-.43-.15-.61-.1-.18-.24-.34-.42-.46-.18-.12-.39-.21-.61-.24-.04,0-.07-.04-.07-.08s.02-.08.06-.09c.25-.09.44-.22.57-.4.13-.18.2-.4.2-.65,0-.29-.14-.51-.44-.68C2.59.03,1.97-.05,1.09.03c-.24.02-.45.05-.65.09-.16.03-.31.06-.45.09l.02.12c.14-.03.29-.05.45-.06.03,0,.05,0,.07.02.02.02.03.04.03.07v4.02c0,.13-.16.22-.53.31v.08l.71.02c.15,0,.31.01.47.02"/>
      <path d="M32.26,2.01c-.04-.23-.1-.42-.17-.59-.11-.26-.27-.47-.46-.63-.19-.15-.41-.22-.67-.22-.24,0-.43.05-.6.16-.18.11-.33.26-.46.45-.14.19-.26.41-.38.66-.04.09-.21.1-.21-.05,0-.02,0-.07-.06-.27-.04-.15-.1-.32-.18-.52-.08-.2-.18-.38-.3-.57-.02-.04-.05-.07-.07-.1,0,0-.03,0-.09.08-.07.09-.16.2-.26.34-.1.14-.18.24-.23.32-.01.02-.02.05-.04.07,0,.02-.01.03-.01.04h0s.02.03.07.09c.05.06.11.12.16.21.05.08.11.16.15.24.08.15.15.29.2.44.05.15.07.3.07.45,0,.17-.03.37-.08.6-.05.23-.12.47-.19.71-.07.24-.13.45-.19.64-.05.18-.07.28-.08.34.02-.01.04-.03.08-.07.08-.09.15-.17.22-.26.07-.08.15-.18.24-.3.06-.07.1-.13.13-.18.03-.04.05-.09.06-.13.02-.05.04-.12.06-.22.08-.28.16-.56.25-.84.09-.28.2-.53.32-.74.12-.23.27-.41.43-.55.17-.14.37-.21.6-.21.17,0,.34.04.5.12.16.08.3.22.42.4.11.17.18.37.24.6.05.22.09.44.11.66.02.22.03.39.03.53,0,.12-.05.16-.1.18-.04.02-.08.02-.13.02h-1.54s-.04,0-.06.02c-.01,0-.04.03-.09.09-.04.07-.1.16-.17.28l-.22.37s-.03.06-.03.07c0,0,.02,0,.04,0h2.23s.1-.06.14-.1c.06-.09.13-.2.18-.33.06-.14.12-.28.16-.41.02-.07.05-.15.07-.24.02-.09.03-.19.03-.3,0-.2,0-.42-.03-.66-.02-.23-.04-.47-.09-.71"/>
      <path d="M7.1,3.06s.1-.1.15-.17c.04-.06.09-.14.13-.22.05-.08.09-.17.14-.26.02-.06.03-.09.03-.09,0-.02,0-.04-.09-.04h-1.66c-.06,0-.11.03-.16.1-.07.09-.13.18-.2.29-.07.1-.12.2-.17.28-.06.11-.06.14-.06.14.02,0,.04.01.07.01h1.72s.05-.02.09-.05"/>
      <path d="M17.96,4.96l.04.06-.04-.08s0,.01,0,.01"/>
    </g>
  </g>
</svg>