<?xml version="1.0" encoding="UTF-8"?>
<svg id="Layer_2" data-name="Layer 2" xmlns="http://www.w3.org/2000/svg" viewBox="0 0 32.3 5.44">
  <g id="Layer_1-2" data-name="Layer 1">
    <g>
      <path d="M18.53,4.71c-.35,0-.63-.13-.83-.39-.19-.25-.29-.67-.29-1.27,0-.21,0-.37.01-.47,0-.09.02-.19.03-.28.03-.2.1-.37.21-.52.11-.16.28-.24.49-.24.31,0,.55.1.71.29.16.18.27.42.33.7.06.28.09.57.09.87s-.02.53-.07.7c-.05.18-.11.31-.19.4-.08.09-.17.14-.26.17-.09.02-.17.03-.25.03M19.29,4.89c.13-.15.23-.31.32-.48.09-.17.15-.33.19-.47.03-.11.05-.24.07-.39.02-.14.03-.28.03-.42,0-.25-.03-.52-.08-.79-.06-.27-.14-.52-.26-.74-.12-.22-.28-.4-.48-.53-.2-.13-.44-.2-.73-.2-.23,0-.43.06-.61.19-.18.13-.34.3-.48.52-.14.22-.24.47-.31.74-.07.27-.11.55-.11.83,0,.52.07.95.2,1.29.13.32.31.57.52.73.22.16.47.23.73.23.2,0,.39-.05.55-.14.17-.09.31-.22.44-.36"/>
      <path d="M25.08,4.83c.06-.12.11-.22.16-.3.01-.02.02-.04.03-.05h-1.54c-.11,0-.18-.07-.18-.19,0-.05.02-.12.14-.3.08-.12.17-.25.28-.39.1-.14.19-.25.26-.33.17-.2.33-.42.48-.64.14-.2.2-.4.2-.58,0-.29-.08-.52-.25-.69-.17-.18-.39-.3-.65-.38-.26-.08-.54-.12-.82-.12-.04,0-.09.04-.14.11-.04.07-.1.16-.17.26-.07.11-.13.2-.18.28-.03.04-.05.07-.06.09.11,0,.25,0,.43.02.16.01.32.04.48.09.16.05.3.13.42.24.12.12.18.29.18.49,0,.17-.06.36-.18.54-.11.17-.23.34-.35.49-.21.26-.39.5-.53.7-.14.19-.26.38-.35.56-.04.08-.09.18-.13.29-.04.1-.06.17-.06.22h0s.02,0,.04,0h2.19s.04,0,.12-.12c.06-.09.12-.18.18-.3"/>
      <path d="M28.15,0c-.06,0-.11.02-.16.07-.04.04-.07.09-.07.16,0,.06.02.1.07.15.09.09.23.09.31,0,.04-.04.06-.09.06-.15,0-.06-.02-.12-.06-.16s-.09-.06-.15-.06"/>
      <path d="M30.38,2.05c.29,0,.53.07.72.2.18.13.32.29.41.49.09.19.15.37.17.55.03.22.06.48.09.76s.05.55.07.8c.02.25.03.45.04.58,0,0,0,0,0,0,0,0,.01-.02.02-.02,0,0,0,0,0,0,.06-.08.12-.18.18-.29l.17-.32s.04-.09.05-.14c0-.05.01-.1.01-.15,0-.28,0-.56-.02-.82-.02-.27-.04-.53-.07-.79-.03-.32-.12-.61-.25-.87-.14-.25-.32-.46-.55-.6-.23-.15-.51-.22-.84-.22h-1.2c-.09,0-.17-.02-.24-.04-.09-.04-.15-.12-.19-.26-.02-.08-.05-.08-.06-.08,0,0-.01,0-.02.01-.03.02-.04.04-.05.05-.14.18-.26.34-.34.46-.08.12-.16.24-.22.37-.02.03-.03.06-.03.1,0,.02,0,.04,0,.07l.02.11c.1.46.17.99.21,1.57.04.59.08,1.22.11,1.86.01,0,.02-.02.04-.04.08-.1.15-.22.22-.34.07-.13.12-.24.16-.32.01-.04.03-.09.04-.15.01-.05.02-.11.02-.16,0-.45-.01-.87-.03-1.26-.02-.4-.03-.69-.03-.88,0-.15.09-.24.23-.24h1.16Z"/>
      <path d="M13.03,4.71c-.35,0-.63-.13-.82-.39-.19-.25-.29-.67-.29-1.27,0-.22,0-.37.01-.47,0-.09.02-.19.03-.28.03-.2.1-.37.21-.52.11-.16.28-.24.49-.24.31,0,.55.1.71.29.16.18.27.42.33.7.06.28.09.57.09.87s-.02.53-.07.7c-.05.18-.11.31-.19.4-.08.09-.17.14-.27.17-.09.02-.17.03-.25.03M13.79,4.89c.12-.14.23-.31.32-.48.08-.17.15-.33.19-.47.03-.12.05-.25.07-.38.02-.14.03-.28.03-.42,0-.25-.03-.52-.08-.79-.05-.27-.14-.52-.26-.74-.12-.22-.28-.4-.48-.53-.2-.13-.44-.2-.73-.2-.23,0-.43.06-.61.19-.18.13-.34.3-.48.52-.14.22-.24.47-.31.74-.07.27-.11.55-.11.83,0,.52.07.95.2,1.29.13.33.31.57.53.73.22.16.46.23.73.23.2,0,.39-.05.55-.14.16-.09.31-.22.44-.36"/>
      <path d="M8.74,3.17c.04-.08.09-.17.13-.26.02-.06.03-.09.03-.09,0-.02,0-.04-.09-.04h-1.66c-.06,0-.11.03-.16.1-.06.09-.13.18-.2.29-.08.12-.13.21-.17.28-.05.11-.06.14-.06.14.02,0,.04.01.07.01h1.73s.06-.03.09-.05c.05-.05.1-.1.15-.17.04-.06.09-.14.13-.22"/>
      <path d="M3.37,3.87c-.1.27-.23.5-.38.67-.16.18-.33.31-.51.39-.18.09-.36.13-.53.13s-.31-.01-.45-.05h0c-.23-.05-.26-.21-.26-.29V.8s.04-.09.08-.09c.11,0,.22-.01.32-.01.6,0,1.07.2,1.39.58.32.38.48.93.48,1.63,0,.37-.05.69-.14.96M1.91.49c-.2,0-.42.01-.69.03-.25.02-.49.05-.72.08-.19.03-.36.06-.51.1l.02.14c.05,0,.1-.02.16-.03.07-.01.15-.02.23-.03h.06s.05,0,.07.01c.02.02.03.04.03.07v4c0,.14-.15.22-.54.31v.08h2.03c.24,0,.49-.04.74-.13.25-.09.49-.23.7-.42.21-.19.39-.45.52-.77.13-.32.2-.71.2-1.18,0-.71-.21-1.28-.61-1.67-.4-.4-.98-.6-1.71-.6"/>
    </g>
  </g>
</svg>