<?xml version="1.0" encoding="UTF-8"?>
<svg id="Layer_2" data-name="Layer 2" xmlns="http://www.w3.org/2000/svg" viewBox="0 0 32.3 5.44">
  <g id="Layer_1-2" data-name="Layer 1">
    <g>
      <path d="M3.37,3.87c-.1.27-.23.5-.38.67-.16.18-.33.31-.51.39-.18.09-.36.13-.53.13s-.31-.02-.45-.05h0c-.23-.05-.26-.21-.26-.29V.8s.04-.09.08-.09c.11,0,.22-.01.32-.01.6,0,1.07.2,1.39.58.32.38.48.93.48,1.63,0,.37-.05.69-.14.96M1.91.49c-.2,0-.42.01-.69.03-.25.02-.49.05-.72.08-.19.03-.36.06-.51.1l.02.14c.05,0,.11-.02.16-.03.07-.01.14-.02.21-.03h.07s.05,0,.07.01c.02.02.03.04.03.07v4c0,.14-.15.22-.54.31v.08h2.03c.24,0,.49-.04.74-.13.25-.09.49-.23.7-.42.21-.19.39-.45.52-.77.13-.32.2-.71.2-1.18,0-.71-.21-1.28-.61-1.67-.4-.4-.98-.6-1.71-.6"/>
      <path d="M32.21,2.92c-.03-.32-.12-.61-.25-.87-.13-.25-.32-.46-.55-.6-.23-.15-.51-.22-.84-.22h-1.21c-.09,0-.17-.02-.24-.04-.09-.04-.15-.12-.19-.26-.02-.08-.05-.08-.06-.08,0,0-.01,0-.02.01-.03.03-.04.04-.05.05-.14.18-.26.34-.34.46-.08.11-.15.23-.22.37-.02.03-.03.06-.03.1,0,.02,0,.04,0,.07,0,.03.01.07.02.1.1.46.17.99.21,1.57.04.59.08,1.22.11,1.86.01,0,.03-.02.04-.04.08-.1.15-.22.22-.34.07-.13.12-.24.16-.32.02-.04.03-.09.04-.15.01-.05.02-.11.02-.16,0-.45-.01-.87-.03-1.26-.02-.43-.03-.7-.03-.88,0-.15.09-.24.24-.24h1.16c.29,0,.53.07.72.2.18.13.32.29.41.49.09.19.15.37.17.55.03.22.06.48.09.76.02.28.05.55.07.8l.04.58s0,0,0,0c0,0,.01-.02.02-.02,0,0,0,0,0,0,.06-.09.12-.18.18-.29.06-.11.12-.22.17-.32.03-.05.04-.09.05-.14,0-.05.01-.1.01-.15,0-.28,0-.55-.02-.82-.02-.27-.04-.53-.06-.79"/>
      <path d="M28.3.37s.06-.09.06-.15c0-.06-.02-.12-.06-.16-.04-.04-.09-.06-.16-.06-.06,0-.11.02-.16.07-.04.04-.07.09-.07.16,0,.06.02.1.07.15.1.09.23.09.31,0"/>
      <path d="M8.74,3.17c.04-.08.09-.17.13-.26.02-.06.02-.09.02-.09,0-.02,0-.04-.08-.04h-1.66s-.09.01-.16.1c-.07.09-.13.18-.2.29-.07.11-.12.2-.16.28-.06.11-.06.14-.06.14.02,0,.04.01.07.01h1.73s.06-.03.09-.05c.05-.05.1-.1.15-.17.04-.06.09-.14.13-.22"/>
      <path d="M17.42,3.05c0-.2,0-.36.01-.47.01-.1.02-.19.03-.28.03-.2.1-.37.21-.52.11-.16.28-.24.49-.24.31,0,.55.1.71.29.16.18.27.42.33.7.06.28.09.57.09.87s-.02.53-.07.7c-.05.18-.11.31-.19.4-.08.09-.17.14-.26.17-.09.02-.17.03-.25.03-.35,0-.63-.13-.82-.39-.19-.25-.29-.67-.29-1.27M18.85,5.25c.17-.09.31-.22.44-.36.13-.15.24-.31.32-.48.09-.17.15-.33.19-.47.03-.11.05-.23.07-.39.02-.15.03-.29.03-.42,0-.25-.03-.52-.08-.79-.06-.27-.14-.52-.26-.74-.12-.22-.28-.4-.48-.53-.2-.13-.44-.2-.73-.2-.23,0-.43.06-.61.19-.18.13-.35.3-.48.52-.13.22-.24.47-.31.74-.07.27-.11.55-.11.83,0,.52.07.95.2,1.29.13.32.31.57.53.73.22.16.47.23.73.23.2,0,.39-.05.55-.14"/>
      <path d="M13.04,4.71c-.35,0-.63-.13-.82-.39-.19-.25-.29-.67-.29-1.27,0-.21,0-.37.01-.47,0-.1.02-.19.04-.28.03-.2.1-.37.21-.52.11-.16.28-.24.49-.24.31,0,.55.1.71.29.16.18.27.42.33.7.06.28.09.57.09.87s-.02.52-.07.7c-.05.18-.11.31-.19.4-.08.09-.17.14-.26.17-.09.02-.17.03-.25.03M13.79,4.89c.13-.14.23-.31.32-.48.08-.17.15-.33.19-.47.03-.12.05-.25.07-.38.02-.15.03-.29.03-.42,0-.25-.03-.52-.08-.79-.06-.27-.14-.52-.26-.74-.12-.22-.28-.4-.48-.53-.2-.13-.44-.2-.73-.2-.23,0-.43.06-.61.19-.18.13-.34.3-.48.52-.14.22-.24.47-.31.74-.07.27-.11.55-.11.83,0,.52.07.95.2,1.29.13.33.31.57.53.73.22.16.46.23.73.23.2,0,.39-.05.55-.14.17-.09.32-.22.44-.36"/>
      <path d="M23.37,4.64h-.48s-.07.1-.11.18c-.05.09-.09.19-.13.28-.03.06-.05.11-.07.15h2.19s.04,0,.06-.02c0,0,.03-.02.07-.08.07-.11.11-.19.14-.26.03-.07.07-.15.12-.26h-.52c-.25,0-.41-.15-.41-.39,0-.12,0-.37-.03-.74-.02-.39-.03-.87-.03-1.43,0-.06,0-.16,0-.3s-.01-.29-.02-.45c-.01-.15-.04-.28-.06-.38h-.02s-.1,0-.21.06c-.14.09-.3.19-.47.32-.17.13-.32.24-.44.33,0,0-.01.01-.02.02l.29.03c.26.03.41.25.46.65.03.21.04.47.05.76,0,.29.01.61.01.98,0,.09,0,.18-.02.27-.03.17-.15.27-.33.27"/>
    </g>
  </g>
</svg>