<?xml version="1.0" encoding="UTF-8"?>
<svg id="Layer_2" data-name="Layer 2" xmlns="http://www.w3.org/2000/svg" viewBox="0 0 32.3 5.44">
  <g id="Layer_1-2" data-name="Layer 1">
    <g>
      <path d="M19.04,4.51c-.08.09-.17.14-.26.17-.09.02-.17.03-.25.03-.35,0-.63-.13-.82-.39-.19-.25-.29-.67-.29-1.27,0-.2,0-.37.01-.47,0-.1.02-.19.04-.28.03-.2.1-.37.2-.52.11-.16.28-.24.49-.24.31,0,.55.1.71.29.16.18.27.42.33.7.06.28.09.57.09.87s-.02.53-.07.7c-.05.18-.11.31-.19.4M19.61,4.41c.09-.17.15-.33.19-.47.03-.11.05-.23.07-.38.02-.14.03-.29.03-.42,0-.26-.03-.52-.08-.79-.05-.27-.14-.52-.26-.74-.12-.22-.28-.4-.47-.53-.2-.13-.44-.2-.73-.2-.23,0-.43.06-.61.19-.18.13-.34.3-.48.52-.13.22-.24.47-.31.74-.07.27-.11.55-.11.83,0,.52.07.95.2,1.29.13.33.31.57.53.73.22.15.46.23.73.23.2,0,.39-.04.55-.14.17-.09.31-.22.44-.36.13-.15.24-.31.32-.48"/>
      <path d="M3.37,3.87c-.1.27-.23.49-.38.67-.16.17-.33.31-.51.39-.18.09-.36.13-.53.13s-.31-.01-.45-.05h0c-.23-.05-.26-.21-.26-.29V.8s.04-.09.08-.09c.11,0,.22-.01.32-.01.6,0,1.07.2,1.39.58.32.38.48.93.48,1.63,0,.37-.05.69-.15.96M1.91.49c-.2,0-.42.01-.69.03-.25.02-.49.05-.72.08-.19.03-.36.06-.51.1l.02.14c.05,0,.1-.02.16-.03.07-.01.14-.02.22-.03h.07s.05,0,.07.01c.02.02.03.04.03.07v4c0,.14-.15.22-.54.31v.08h2.03c.24,0,.49-.04.74-.13.25-.09.49-.23.7-.42.21-.19.39-.45.52-.77.13-.32.2-.71.2-1.18,0-.71-.21-1.28-.61-1.67-.4-.4-.98-.6-1.71-.6"/>
      <path d="M8.6,3.39c.04-.06.09-.14.13-.21.04-.08.09-.17.13-.26.02-.06.03-.09.03-.09,0-.02,0-.04-.09-.04h-1.66c-.06,0-.11.03-.16.1-.06.09-.13.18-.2.28-.07.11-.12.2-.16.28-.06.11-.06.14-.06.14.02,0,.04.01.07.01h1.72s.05-.02.09-.05c.05-.04.1-.1.15-.17"/>
      <path d="M30.38,2.05c.29,0,.53.07.71.2.18.13.32.3.41.49.09.19.15.37.17.55.03.21.06.46.09.76.03.28.05.55.07.8.02.25.03.45.04.58,0,0,0,0,0,0,0,0,.01-.02.02-.02,0,0,0,0,0,0,.06-.08.12-.18.18-.29l.17-.32s.04-.09.05-.14c0-.05.01-.1.01-.15,0-.28,0-.56-.02-.82-.02-.27-.04-.53-.06-.79-.03-.32-.12-.61-.25-.87-.13-.25-.32-.46-.55-.6-.23-.15-.51-.22-.84-.22h-1.2c-.09,0-.17-.01-.24-.04-.09-.04-.15-.12-.19-.26-.02-.08-.05-.08-.06-.08,0,0-.02.01-.02.01-.03.02-.04.04-.05.05-.14.19-.26.34-.34.46-.08.12-.16.24-.22.37-.02.03-.03.06-.03.1,0,.02,0,.04,0,.07l.02.11c.1.46.17.98.21,1.57.04.59.08,1.21.11,1.86.01,0,.03-.02.04-.04.07-.1.15-.22.22-.34.07-.12.12-.23.16-.32.02-.04.03-.09.04-.15.01-.05.02-.11.02-.16,0-.44-.01-.86-.03-1.26-.02-.4-.03-.69-.03-.88,0-.15.09-.24.23-.24h1.16Z"/>
      <path d="M25.14,3.78c0-.2-.04-.37-.12-.51-.08-.14-.17-.25-.29-.34-.12-.09-.24-.15-.36-.19-.12-.04-.22-.06-.31-.06h-.34s-.1-.02-.15-.06c-.06-.05-.09-.1-.09-.16,0-.07,0-.13,0-.18,0-.05,0-.1,0-.15,0-.12.08-.19.2-.19h.88c.08,0,.11,0,.11-.01.02,0,.03-.02.04-.03.03-.05.08-.13.14-.23.06-.11.11-.21.15-.31.05-.13.06-.18.06-.19,0,0-.01-.02-.06-.02h-1.43c-.11,0-.21-.01-.24-.1,0-.02-.04-.09-.1-.2-.01-.01-.04,0-.08.06-.08.09-.15.21-.23.35-.09.18-.12.26-.12.31-.01.06-.02.11-.02.16,0,.05,0,.11,0,.19,0,.21,0,.42.01.64,0,.22.02.45.05.68,0,.06.03.13.18.13h.48c.34.02.57.09.71.21.14.12.21.28.21.47,0,.16-.05.3-.14.4-.14.15-.44.2-.82.11-.14-.03-.22-.06-.29-.08-.04-.01-.07-.02-.1-.04-.02,0-.03-.01-.04-.01-.01.01-.03.03-.03.04-.02.03-.06.08-.1.16-.05.08-.09.16-.14.26-.05.09-.09.17-.12.23-.01.03-.02.05-.03.07,0,0,.02.02.05.03.06.02.15.05.25.08.11.03.22.05.34.07.11.02.21.03.29.03.21,0,.44-.06.67-.18.23-.12.44-.31.63-.57.07-.1.14-.22.21-.38.07-.15.1-.32.1-.49"/>
      <path d="M11.92,3.05c0-.22,0-.37.01-.47.01-.1.02-.19.03-.28.04-.2.1-.37.21-.52.11-.16.28-.24.49-.24.31,0,.55.1.71.29.16.18.27.42.33.7.06.28.09.57.09.87s-.02.53-.07.7c-.05.18-.11.31-.19.4-.08.09-.17.14-.26.17-.09.02-.17.03-.25.03-.35,0-.63-.13-.83-.39-.19-.25-.29-.67-.29-1.27M13.35,5.25c.17-.09.31-.22.44-.36.13-.15.24-.31.32-.48.09-.17.15-.33.19-.47.03-.11.05-.24.07-.38.02-.15.03-.29.03-.42,0-.26-.03-.52-.08-.79-.05-.27-.14-.52-.26-.74-.12-.22-.28-.4-.48-.53-.2-.13-.44-.2-.73-.2-.23,0-.43.06-.61.19-.18.13-.34.3-.48.52-.13.22-.24.47-.31.74-.07.27-.11.55-.11.83,0,.52.07.95.2,1.29.13.33.31.57.53.73.22.16.46.23.73.23.2,0,.39-.05.55-.14"/>
      <path d="M28.15,0c-.06,0-.11.02-.16.07-.04.04-.07.09-.07.16,0,.06.02.11.07.15.1.09.23.09.31,0,.04-.04.06-.09.06-.15,0-.06-.02-.12-.06-.16s-.09-.06-.16-.06"/>
    </g>
  </g>
</svg>