<?xml version="1.0" encoding="UTF-8"?>
<svg id="Layer_2" data-name="Layer 2" xmlns="http://www.w3.org/2000/svg" viewBox="0 0 4.39 5.44">
  <g id="Layer_1-2" data-name="Layer 1-2">
    <g>
      <path d="M4.3,2.92c-.03-.32-.12-.61-.25-.87-.13-.25-.32-.46-.55-.6-.23-.15-.51-.22-.84-.22h-1.21c-.09,0-.17-.02-.24-.04-.09-.04-.15-.12-.19-.26-.02-.08-.05-.08-.06-.08,0,0-.01,0-.02,0-.03.03-.04.04-.05.05-.14.18-.26.34-.34.46-.08.11-.15.23-.22.37-.02.03-.03.06-.03.1v.07s.01.07.02.1c.1.46.17.99.21,1.57.04.59.08,1.22.11,1.86.01,0,.03-.02.04-.04.08-.1.15-.22.22-.34.07-.13.12-.24.16-.32.02-.04.03-.09.04-.15.01-.05.02-.11.02-.16,0-.45-.01-.87-.03-1.26-.02-.43-.03-.7-.03-.88,0-.15.09-.24.24-.24h1.16c.29,0,.53.07.72.2.18.13.32.29.41.49.09.19.15.37.17.55.03.22.06.48.09.76.02.28.05.55.07.8l.04.58h0s.01-.02.02-.02h0c.06-.09.12-.18.18-.29.06-.11.12-.22.17-.32.03-.05.04-.09.05-.14,0-.05,0-.1,0-.15,0-.28,0-.55-.02-.82s-.04-.53-.06-.79"/>
      <path d="M.39.37s.06-.09.06-.15-.02-.12-.06-.16c-.04-.04-.09-.06-.16-.06-.06,0-.11.02-.16.07-.04.04-.07.09-.07.16,0,.06.02.1.07.15.1.09.23.09.31,0"/>
    </g>
  </g>
</svg>