<?xml version="1.0" encoding="UTF-8"?>
<svg id="Layer_2" data-name="Layer 2" xmlns="http://www.w3.org/2000/svg" viewBox="0 0 32.3 5.44">
  <g id="Layer_1-2" data-name="Layer 1">
    <g>
      <path d="M28.3.37s.06-.09.06-.15c0-.06-.02-.12-.06-.16-.04-.04-.09-.06-.16-.06-.06,0-.11.02-.15.06-.04.04-.07.09-.07.16,0,.06.02.1.07.15.1.09.23.09.31,0"/>
      <path d="M24.46,4.53c-.11.14-.31.2-.6.2-.19,0-.38-.07-.56-.21-.18-.15-.27-.34-.27-.58,0-.22.07-.41.21-.56.15-.16.33-.23.56-.23.17,0,.31.05.44.14.12.09.21.2.28.33.07.13.1.26.1.39,0,.21-.05.39-.16.52M25.25,3.77c0-.2-.04-.39-.13-.57-.08-.18-.2-.33-.36-.44-.16-.11-.35-.17-.58-.17-.16,0-.23.02-.25.03-.1.04-.12.05-.14.05-.07,0-.12-.05-.12-.11,0-.03,0-.04.06-.12.07-.11.16-.26.28-.43.11-.17.24-.35.36-.53.13-.18.25-.35.37-.49.02-.03.05-.07.07-.1.02-.03.02-.05.02-.05-.01,0-.03,0-.07.02l-.13.04c-.09.03-.18.07-.29.11-.1.04-.19.08-.26.12-.06.03-.11.07-.15.11-.04.04-.09.09-.14.16-.13.17-.28.38-.47.65-.18.26-.34.52-.49.79-.11.21-.22.42-.32.66-.1.22-.15.44-.15.64,0,.27.07.49.2.68.13.19.3.33.5.43.42.21.85.19,1.21-.02h0c.19-.11.36-.25.51-.42.14-.17.26-.35.34-.54.08-.19.12-.35.12-.5"/>
      <path d="M18.53,4.71c-.35,0-.63-.13-.83-.39-.19-.26-.29-.67-.29-1.27,0-.2,0-.36.01-.47.01-.1.02-.19.04-.28.03-.2.1-.37.2-.52.11-.16.28-.24.49-.24.31,0,.55.1.71.29.16.18.27.42.33.7.06.28.09.57.09.87s-.02.53-.07.7c-.05.18-.11.31-.19.4-.08.09-.17.14-.26.17-.09.02-.17.03-.25.03M19.29,4.89c.13-.15.24-.31.32-.48.09-.17.15-.33.19-.47.03-.11.05-.23.07-.39.02-.14.03-.28.03-.42,0-.26-.03-.52-.08-.79-.05-.27-.14-.52-.26-.74-.12-.22-.28-.4-.48-.53-.2-.13-.44-.2-.73-.2-.23,0-.43.06-.61.19-.18.13-.34.3-.48.52-.13.22-.24.47-.31.74-.07.27-.11.55-.11.83,0,.52.07.95.2,1.29.13.33.31.57.53.73.22.16.46.23.73.23.2,0,.38-.05.55-.14.17-.09.32-.22.44-.36"/>
      <path d="M13.04,4.71c-.35,0-.63-.13-.83-.39-.19-.25-.28-.67-.28-1.27,0-.21,0-.37.01-.47,0-.1.02-.19.04-.28.03-.2.1-.37.2-.52.11-.16.28-.24.49-.24.31,0,.55.1.71.29.16.18.27.42.33.7.06.28.09.57.09.87s-.02.53-.07.7c-.05.18-.11.31-.19.4-.08.09-.17.14-.26.17-.09.02-.17.03-.25.03M13.79,4.89c.13-.15.24-.31.32-.48.09-.17.15-.33.19-.47.03-.12.05-.25.07-.38.02-.14.03-.29.03-.42,0-.26-.03-.52-.08-.79-.05-.27-.14-.52-.26-.74-.12-.22-.28-.4-.48-.53-.2-.13-.44-.2-.73-.2-.23,0-.43.06-.61.19-.18.13-.34.3-.48.52-.13.22-.24.47-.31.74-.07.27-.11.55-.11.83,0,.52.07.95.2,1.29.13.33.31.57.53.73.22.16.46.23.73.23.2,0,.38-.05.55-.14.17-.09.32-.22.44-.36"/>
      <path d="M3.37,3.87c-.1.27-.23.49-.38.67-.16.17-.33.31-.51.39-.18.09-.36.13-.53.13s-.31-.02-.45-.05h0c-.23-.05-.26-.21-.26-.29V.8s.04-.09.08-.09c.11,0,.22-.01.32-.01.6,0,1.07.2,1.39.58.32.38.48.93.48,1.63,0,.37-.05.69-.14.96M1.91.49c-.2,0-.42.01-.69.03-.25.02-.49.05-.72.08-.19.03-.36.06-.51.1l.02.14c.05,0,.11-.02.16-.03.07-.01.14-.02.22-.03h.07s.05,0,.07.01c.02.02.03.04.03.07v4c0,.14-.15.22-.54.31v.08h2.03c.24,0,.49-.04.74-.13.25-.09.49-.23.7-.42.21-.19.39-.45.52-.77.13-.32.2-.71.2-1.18,0-.71-.21-1.28-.61-1.67-.41-.4-.98-.6-1.71-.6"/>
      <path d="M30.38,2.05c.29,0,.53.07.71.2.18.13.32.29.41.49.09.19.15.37.17.55.03.22.06.48.08.76.03.28.05.55.07.8l.04.58s0,0,0,0c0,0,.01-.02.02-.02,0,0,0,0,0,0,.06-.08.12-.18.18-.29l.17-.32s.04-.09.05-.14c0-.05.01-.1.01-.15,0-.28,0-.55-.02-.82-.02-.27-.04-.53-.06-.79-.03-.32-.12-.61-.25-.87-.13-.25-.32-.46-.55-.6-.23-.15-.51-.22-.84-.22h-1.2c-.09,0-.17-.02-.24-.04-.09-.04-.15-.12-.19-.26-.02-.08-.05-.08-.06-.08,0,0-.01,0-.02.01-.03.02-.04.04-.05.05-.14.18-.25.34-.34.46-.08.12-.16.24-.22.37-.02.03-.03.06-.03.1,0,.02,0,.04,0,.07l.02.11c.1.46.17.98.21,1.57.04.58.08,1.21.11,1.86.01,0,.03-.02.04-.04.08-.1.15-.22.22-.34.07-.12.12-.23.16-.32.02-.04.03-.09.04-.15.01-.05.02-.11.02-.16,0-.44-.01-.86-.03-1.26-.02-.41-.03-.69-.03-.88,0-.15.09-.24.23-.24h1.16Z"/>
      <path d="M8.74,3.17c.04-.08.09-.17.13-.26.02-.06.03-.09.03-.09,0-.02,0-.04-.08-.04h-1.66c-.06,0-.11.03-.16.1-.06.09-.13.18-.2.29-.07.11-.12.2-.16.28-.06.11-.06.14-.06.14.02,0,.04.01.07.01h1.72s.07-.03.09-.05c.05-.05.1-.1.15-.17.04-.06.09-.14.13-.22"/>
    </g>
  </g>
</svg>