<?xml version="1.0" encoding="UTF-8"?>
<svg id="Layer_2" data-name="Layer 2" xmlns="http://www.w3.org/2000/svg" viewBox="0 0 32.44 5.96">
  <g id="Layer_1-2" data-name="Layer 1">
    <g>
      <path d="M31.64,3.14c-.13.24-.3.43-.52.56-.14.09-.31.17-.49.24-.18.07-.37.1-.56.1-.09,0-.17-.02-.25-.07h0c-.08-.05-.15-.13-.2-.24-.06-.14-.11-.31-.17-.52-.06-.2-.11-.42-.16-.64-.05-.22-.09-.4-.12-.56-.05-.24-.05-.26-.05-.28,0-.08.05-.18.2-.18h1.87c.26,0,.43.06.51.2.08.12.11.31.11.6s-.06.55-.19.79M31.85.73h-2.69c-.07,0-.14-.01-.21-.04-.09-.04-.15-.13-.18-.3,0-.04-.01-.04-.04-.04,0,0-.04,0-.12.11-.09.12-.2.26-.31.43-.12.18-.23.35-.32.51-.01.02-.03.05-.04.08-.01.03-.01.04-.01.04,0,0,0,.03.08.03.04,0,.09,0,.14.01.07.01.12.03.17.07.06.04.11.11.16.19.04.08.08.18.12.32.07.23.14.49.21.77.07.28.14.54.21.79.07.27.14.49.2.67.05.15.13.28.23.37.1.09.2.13.31.13.28,0,.55-.06.8-.18.26-.12.51-.29.76-.49.12-.1.25-.24.38-.41.12-.17.22-.31.28-.42.17-.32.29-.64.36-.95.07-.31.11-.62.11-.95,0-.24-.05-.43-.15-.56-.09-.12-.24-.19-.44-.19"/>
      <path d="M1.23,2.44s.03-.08.08-.09c.08-.01.16-.02.25-.04.09-.01.2-.02.32-.02.32,0,.57.07.76.2.19.13.33.3.41.49.08.19.12.39.12.59,0,.31-.11.57-.33.76-.21.19-.52.28-.91.28-.1,0-.2,0-.31-.02h0c-.11-.01-.21-.04-.3-.07-.01,0-.03-.02-.04-.03-.03-.04-.04-.07-.04-.11v-1.95ZM1.23.29s.04-.09.08-.09v.09s0-.09,0-.09c.03,0,.06,0,.09,0h.08c.49,0,.81.08,1,.25.19.17.28.4.28.68,0,.16-.03.32-.1.47-.07.16-.21.29-.41.39-.19.1-.48.14-.84.14h-.09s-.09-.04-.09-.09V.29ZM.47.27s.05,0,.07.02c.02.02.03.04.03.07v4.02c0,.14-.15.23-.53.31v.08h.21l1.05.04c.14,0,.28,0,.4.01.15,0,.27,0,.35,0,.56,0,1.01-.12,1.33-.36.32-.24.48-.55.48-.96,0-.22-.05-.43-.15-.61-.1-.18-.24-.34-.42-.46-.18-.12-.38-.21-.61-.24-.04,0-.07-.04-.07-.08,0-.04.02-.08.06-.09.25-.09.44-.22.57-.4.13-.18.2-.4.2-.65,0-.29-.14-.51-.44-.68-.31-.18-.74-.27-1.28-.27-.19,0-.4.01-.63.04-.22.02-.44.05-.65.09-.16.03-.31.06-.44.09l.02.12c.14-.03.28-.04.45-.06"/>
      <path d="M11.75,2.09c0-.1.02-.19.04-.28.03-.2.1-.37.2-.52.11-.16.28-.24.49-.24.31,0,.55.1.71.29.16.18.27.42.33.7.06.28.09.57.09.87s-.02.53-.07.7c-.05.18-.11.31-.19.4-.08.09-.17.14-.26.17-.09.02-.17.03-.25.03-.35,0-.63-.13-.83-.39-.19-.25-.29-.67-.29-1.27,0-.2,0-.36.01-.46M11.88,4.66c.22.16.46.24.73.24.2,0,.39-.05.55-.14.17-.1.32-.22.44-.37.13-.15.24-.31.32-.48.09-.17.15-.33.19-.48.03-.11.05-.24.07-.38.02-.14.03-.28.03-.42,0-.26-.03-.53-.08-.79-.05-.27-.14-.52-.26-.74-.12-.22-.28-.4-.47-.53-.2-.13-.44-.2-.74-.2-.23,0-.43.06-.61.19-.19.13-.35.3-.48.52-.13.22-.24.47-.31.74-.07.27-.11.55-.11.83,0,.52.07.95.2,1.29.13.33.31.57.53.73"/>
      <path d="M22.84,4.8c.1.03.22.05.34.07.11.02.21.03.29.03.21,0,.44-.06.67-.18.23-.12.45-.31.63-.57.07-.1.14-.23.21-.38.07-.15.1-.32.1-.49,0-.2-.04-.37-.11-.51-.08-.14-.17-.25-.29-.34-.12-.09-.24-.15-.37-.19-.12-.04-.23-.06-.31-.06h-.34s-.1-.02-.15-.06c-.06-.05-.08-.1-.08-.16,0-.07,0-.13,0-.18,0-.05,0-.1,0-.15,0-.12.08-.19.2-.19h.88c.07,0,.11-.01.12-.01.01,0,.03-.02.04-.04.03-.05.08-.13.14-.23.06-.1.1-.2.15-.31.06-.12.06-.18.06-.19,0,0-.01-.02-.06-.02h-1.43c-.1,0-.2-.01-.23-.09,0-.02-.04-.09-.1-.2-.01,0-.04,0-.09.06-.08.1-.15.22-.23.35-.09.17-.12.26-.12.31-.01.06-.02.12-.02.16,0,.05,0,.11,0,.2,0,.21,0,.42.01.64,0,.22.02.44.05.68,0,.06.03.13.18.13h.48c.34.02.57.09.71.21.14.13.21.29.21.48,0,.16-.05.29-.14.39-.1.11-.26.16-.49.16-.1,0-.22-.01-.33-.04-.11-.03-.21-.05-.29-.08-.04-.01-.07-.02-.1-.04-.02,0-.04,0-.04,0-.02.02-.03.03-.04.04-.03.03-.08.12-.1.15-.05.08-.1.17-.15.26-.05.09-.09.17-.12.23-.01.03-.02.05-.03.07,0,0,.02.02.05.03.06.02.15.05.25.08"/>
      <path d="M17.31,2.09c0-.1.02-.19.04-.28.03-.2.1-.37.2-.52.11-.16.28-.24.49-.24.31,0,.55.1.71.29.16.18.27.42.33.7.06.28.09.57.09.87s-.02.53-.07.7c-.04.18-.11.31-.19.4-.08.09-.17.14-.27.17-.08.02-.17.03-.24.03-.35,0-.63-.13-.83-.39-.19-.25-.29-.67-.29-1.27,0-.22,0-.37.01-.47M17.44,4.66c.22.16.46.24.73.24.2,0,.39-.05.55-.14.16-.1.31-.22.44-.37.13-.15.24-.31.32-.48.09-.17.15-.33.19-.48.03-.11.05-.24.07-.38.02-.14.03-.28.03-.42,0-.26-.03-.53-.08-.79-.05-.27-.14-.52-.26-.74-.12-.22-.28-.4-.48-.53-.2-.13-.44-.2-.73-.2-.23,0-.43.06-.61.19-.18.13-.35.3-.48.52-.14.22-.24.47-.31.74-.07.27-.11.55-.11.83,0,.52.07.95.2,1.29.13.33.31.57.53.73"/>
      <path d="M8.12,3.1s.07-.02.09-.05c.05-.05.1-.1.15-.17.05-.06.09-.14.13-.22.05-.08.09-.17.14-.26.02-.06.03-.09.03-.09,0-.02,0-.04-.08-.04h-1.66c-.06,0-.11.03-.16.1-.06.09-.13.18-.2.28-.07.11-.12.2-.17.28-.06.11-.06.14-.06.14.02,0,.04.01.07.01h1.73Z"/>
      <path d="M30.36,5.52c-.06,0-.11.02-.16.07-.04.04-.07.09-.07.16s.02.11.07.16c.09.09.23.09.31,0,.04-.05.06-.1.06-.16s-.02-.12-.06-.16c-.04-.04-.09-.06-.15-.06"/>
    </g>
  </g>
</svg>