<?xml version="1.0" encoding="UTF-8"?>
<svg id="Layer_2" data-name="Layer 2" xmlns="http://www.w3.org/2000/svg" viewBox="0 0 32.44 5.96">
  <g id="Layer_1-2" data-name="Layer 1">
    <g>
      <path d="M8.12,3.1s.06-.02.09-.05c.05-.05.1-.1.15-.17.05-.06.09-.14.13-.22.05-.08.09-.17.14-.26.02-.06.03-.09.03-.09,0-.02,0-.04-.08-.04h-1.66c-.06,0-.11.03-.16.1-.06.09-.13.18-.2.28-.07.11-.12.2-.17.28-.06.11-.06.14-.06.14.02,0,.04.01.07.01h1.73Z"/>
      <path d="M17.31,2.09c0-.1.02-.19.04-.28.03-.2.1-.37.2-.52.11-.16.28-.24.49-.24.31,0,.55.1.71.29.16.18.27.42.33.7.06.28.09.57.09.87s-.02.53-.07.7c-.04.18-.11.31-.19.4-.08.09-.17.14-.27.17-.08.02-.17.03-.24.03-.35,0-.63-.13-.83-.39-.19-.26-.29-.67-.29-1.27,0-.22,0-.37.01-.47M17.44,4.66c.22.16.46.24.73.24.2,0,.39-.05.55-.14.16-.1.31-.22.44-.37.13-.15.24-.31.32-.48.09-.17.15-.33.19-.47.03-.11.05-.24.07-.38.02-.14.03-.28.03-.42,0-.26-.03-.53-.08-.79-.05-.27-.14-.52-.26-.74-.12-.22-.27-.4-.48-.54-.2-.13-.44-.2-.73-.2-.23,0-.43.06-.61.19-.18.13-.34.3-.48.52-.14.22-.24.47-.31.74-.07.27-.11.55-.11.83,0,.52.07.95.2,1.29.13.33.31.57.53.73"/>
      <path d="M22.95,2.14c.06-.15.12-.29.2-.42.08-.14.17-.24.26-.31.08-.06.17-.12.25-.17.05-.04.1-.05.15-.05.11,0,.14.08.14.1,0,.03,0,.05.01.08.02.11.03.25.04.41.01.16.02.31.03.46,0,.15,0,.27,0,.37,0,.12-.07.19-.17.19h-.67c-.07,0-.14,0-.2-.02h0s-.14-.05-.14-.22c0-.11.03-.25.09-.41M22.59,3.53h1.22c.13,0,.21.09.21.23,0,.04,0,.13,0,.27l.02.45c0,.16,0,.3,0,.4,0,.04,0,.06,0,.07,0-.01.04-.04.09-.1.07-.09.14-.17.19-.23.05-.07.1-.14.15-.21.03-.05.06-.11.07-.15.01-.05.02-.1.02-.16v-.34c0-.21.13-.22.17-.22h.26s.07-.04.11-.11c.04-.07.08-.16.13-.27.05-.1.08-.19.11-.26.01-.03.02-.06.03-.09,0-.02,0-.03,0-.03h-.61c-.13,0-.18-.09-.18-.16,0-.03,0-.13,0-.31,0-.18,0-.39-.02-.63,0-.24-.02-.48-.03-.72-.01-.25-.03-.44-.05-.58,0-.06-.03-.06-.05-.06-.03,0-.08.01-.2.06-.1.04-.18.08-.23.11-.2.11-.38.24-.56.39-.17.15-.32.33-.45.55-.24.38-.43.73-.56,1.04-.13.31-.19.54-.19.69,0,.12.03.22.08.28.05.05.14.08.27.08"/>
      <path d="M11.75,2.09c0-.1.02-.19.04-.28.03-.2.1-.37.2-.52.11-.16.28-.24.49-.24.31,0,.55.1.71.29.16.18.27.42.33.7.06.28.09.57.09.87s-.02.53-.07.7c-.05.18-.11.31-.19.4-.08.09-.17.14-.26.17-.09.02-.17.03-.25.03-.35,0-.63-.13-.83-.39-.19-.26-.29-.67-.29-1.27,0-.2,0-.36.01-.46M11.88,4.66c.22.16.46.24.73.24.2,0,.39-.05.55-.14.17-.1.32-.22.44-.37.13-.15.24-.31.32-.48.09-.17.15-.33.19-.47.03-.11.05-.23.07-.38.02-.14.03-.28.03-.42,0-.26-.03-.53-.08-.79-.05-.27-.14-.52-.26-.74-.12-.22-.28-.4-.48-.54-.2-.13-.44-.2-.73-.2-.23,0-.43.06-.61.19-.19.13-.35.3-.48.52-.13.22-.24.47-.31.74-.07.27-.11.55-.11.83,0,.52.07.95.2,1.29.13.33.31.57.53.73"/>
      <path d="M31.64,3.14c-.12.24-.3.42-.52.56-.14.09-.3.17-.49.24-.18.07-.37.1-.56.1-.09,0-.17-.02-.25-.07-.08-.05-.15-.13-.2-.24-.06-.14-.11-.31-.17-.52-.06-.2-.11-.42-.16-.64-.05-.22-.09-.4-.12-.56-.05-.24-.05-.26-.05-.28,0-.09.05-.18.2-.18h1.87c.26,0,.43.06.51.2.08.12.11.31.11.6s-.06.55-.19.79M31.85.73h-2.69c-.07,0-.14-.01-.21-.04-.09-.04-.15-.14-.18-.3,0-.04-.01-.04-.04-.04,0,0-.04,0-.12.11-.09.12-.2.26-.31.43-.12.18-.23.35-.32.51-.01.02-.03.05-.04.08-.01.03-.01.04-.01.04,0,0,0,.03.08.03.04,0,.09,0,.14.01.07.01.12.03.16.06.06.04.12.11.16.2.04.08.08.18.12.32.07.23.14.48.21.77.07.28.14.54.21.79.07.27.14.49.2.67.05.15.13.28.23.37.1.09.2.13.31.13.28,0,.55-.06.8-.18.26-.12.51-.29.76-.49.12-.1.25-.24.38-.41.12-.17.22-.31.28-.42.16-.32.29-.64.36-.95.07-.31.11-.62.11-.95,0-.24-.05-.43-.15-.56-.09-.12-.24-.19-.44-.19"/>
      <path d="M30.52,5.9s.06-.1.06-.16-.02-.12-.06-.16c-.04-.04-.09-.06-.16-.06s-.11.02-.16.06c-.04.04-.07.09-.07.16s.02.11.07.16c.09.09.23.09.31,0"/>
      <path d="M1.23,2.44s.03-.08.08-.09c.08-.01.16-.02.25-.04.09-.01.2-.02.32-.02.32,0,.57.07.76.2.19.13.33.3.41.49.08.19.12.39.12.59,0,.31-.11.57-.33.76-.21.19-.52.28-.91.28-.1,0-.2,0-.31-.02,0,0,0,0,0,0-.11-.01-.21-.04-.3-.07-.01,0-.03-.02-.04-.03-.03-.04-.04-.07-.04-.11v-1.95ZM1.23.29s.04-.09.08-.09v.09s.02-.09.02-.09c.02,0,.05,0,.07,0h.08c.49,0,.81.08,1,.25.19.17.28.4.28.68,0,.16-.03.32-.1.47-.07.16-.21.29-.41.39-.19.09-.48.14-.84.14h-.09s-.09-.04-.09-.09V.29ZM.47.27s.05,0,.07.02c.02.02.03.04.03.07v4.02c0,.14-.15.23-.53.31v.08l.71.02c.15,0,.31.01.47.02h.07c.14,0,.28.01.4.01.15,0,.27,0,.35,0,.56,0,1.01-.12,1.33-.36.32-.24.48-.55.48-.96,0-.22-.05-.43-.15-.61-.1-.18-.24-.34-.42-.46-.18-.12-.39-.21-.61-.24-.04,0-.07-.04-.07-.08,0-.04.02-.08.06-.09.25-.09.44-.22.57-.4.13-.18.2-.4.2-.65,0-.29-.14-.51-.43-.68-.31-.18-.74-.27-1.28-.27-.19,0-.4.01-.63.04-.24.02-.45.05-.65.09-.16.03-.31.06-.45.09l.02.12c.14-.03.28-.04.45-.06"/>
    </g>
  </g>
</svg>