<?xml version="1.0" encoding="UTF-8"?>
<svg id="Layer_2" data-name="Layer 2" xmlns="http://www.w3.org/2000/svg" viewBox="0 0 32.44 5.96">
  <g id="Layer_1-2" data-name="Layer 1">
    <g>
      <path d="M31.64,3.14c-.12.24-.3.43-.52.56-.14.09-.31.17-.49.24-.19.07-.37.1-.56.1-.09,0-.17-.02-.25-.07-.08-.05-.15-.13-.2-.24-.06-.14-.11-.3-.17-.52-.06-.2-.11-.42-.16-.64-.05-.22-.09-.4-.12-.56-.04-.22-.05-.26-.05-.28,0-.09.05-.18.2-.18h1.87c.26,0,.43.06.51.19.08.12.11.32.11.6s-.06.55-.19.79M31.85.73h-2.69c-.07,0-.14-.01-.21-.04-.09-.04-.15-.14-.18-.3,0-.04-.01-.04-.04-.04,0,0-.04,0-.12.11-.1.12-.2.26-.31.43-.12.18-.23.35-.32.51-.01.02-.02.05-.04.08-.01.03-.01.04-.01.04,0,0,0,.03.08.03.04,0,.09,0,.14.01.07,0,.12.03.17.06.06.04.12.11.16.2.04.07.08.18.12.32.07.24.14.5.21.77.07.27.14.54.21.79.07.27.14.49.2.67.05.15.13.28.23.37.1.09.2.13.31.13.28,0,.55-.06.8-.18.26-.12.51-.29.76-.49.13-.1.25-.24.38-.41.13-.18.22-.32.28-.42.17-.32.29-.64.36-.95.07-.31.11-.63.11-.95,0-.24-.05-.43-.15-.56-.09-.12-.24-.19-.44-.19"/>
      <path d="M17.31,2.09c0-.1.02-.19.04-.28.03-.2.1-.37.2-.52.11-.16.28-.24.49-.24.31,0,.55.1.71.29.16.18.27.42.33.7.06.28.09.57.09.87s-.02.53-.07.7c-.04.18-.11.31-.19.4-.08.09-.17.15-.27.17-.08.02-.16.03-.24.03-.35,0-.63-.13-.83-.39-.19-.26-.29-.67-.29-1.27,0-.21,0-.37.01-.47M17.44,4.66c.22.16.46.24.73.24.2,0,.39-.05.55-.14.16-.09.31-.22.44-.36.13-.15.24-.31.32-.48.09-.17.15-.33.19-.48.03-.11.05-.24.07-.38.02-.14.03-.28.03-.42,0-.26-.03-.53-.08-.79-.05-.27-.14-.52-.26-.74-.12-.22-.28-.4-.48-.54-.2-.13-.44-.2-.74-.2-.23,0-.43.06-.61.19-.18.13-.35.3-.48.52-.13.22-.24.47-.31.74-.07.27-.11.55-.11.83,0,.52.07.95.2,1.28.13.33.31.57.53.73"/>
      <path d="M22.34,1.47h1.7c.15,0,.21.09.21.18,0,.11-.06.25-.18.44-.08.13-.17.27-.26.41l-.08.13c-.16.26-.33.52-.49.77-.15.24-.27.46-.35.66-.04.1-.07.22-.1.37-.03.15-.04.32-.04.5h0s.03,0,.05-.02c.09-.07.21-.17.35-.3.13-.13.25-.25.35-.36.02-.02.04-.05.04-.09.01-.04.02-.09.02-.13,0-.06.02-.14.05-.23.02-.08.05-.17.08-.25.07-.19.17-.4.31-.64.14-.23.26-.43.38-.6.05-.07.11-.16.19-.27l.12-.17c.13-.18.23-.34.32-.49.06-.12.12-.24.18-.38.06-.15.07-.22.07-.26,0-.02,0-.05-.02-.07,0,0-.02-.02-.09-.02h-1.85c-.12,0-.21-.02-.26-.07-.05-.05-.09-.12-.12-.22v-.02h-.01s-.04.01-.06.05c-.04.06-.09.14-.16.25-.07.1-.13.22-.2.34-.07.12-.12.22-.17.32-.01.03-.03.06-.04.09,0,.03-.01.04-.02.05,0,0,0,.03.08.03"/>
      <path d="M22.77,4.96l.04.06-.04-.07s0,0,0,0"/>
      <path d="M11.75,2.09c0-.1.02-.19.04-.28.03-.2.1-.37.2-.52.11-.16.28-.24.49-.24.31,0,.55.1.71.29.16.18.27.42.33.7.06.28.09.57.09.87s-.02.53-.07.7c-.05.18-.11.31-.19.4-.08.09-.17.14-.27.17-.08.02-.16.03-.24.03-.35,0-.63-.13-.83-.39-.19-.26-.29-.67-.29-1.27,0-.2,0-.36.01-.46M11.88,4.66c.22.16.46.24.73.24.21,0,.38-.05.55-.14.17-.09.32-.22.44-.36.13-.15.24-.31.32-.48.09-.17.15-.33.19-.47.03-.11.05-.23.07-.38.02-.14.03-.28.03-.42,0-.26-.03-.53-.08-.79-.05-.27-.14-.52-.26-.74-.12-.22-.28-.4-.48-.54-.2-.13-.44-.2-.73-.2-.23,0-.43.06-.61.19-.19.13-.35.3-.48.52-.13.22-.24.47-.31.74-.07.27-.11.55-.11.83,0,.52.07.95.2,1.28.13.33.31.57.53.73"/>
      <path d="M30.52,5.9s.06-.1.06-.16-.02-.12-.06-.16c-.04-.04-.09-.06-.15-.06s-.11.02-.16.07c-.04.04-.07.09-.07.16s.02.11.07.16c.09.09.23.09.31,0"/>
      <path d="M1.23,2.44s.03-.08.08-.09c.08-.01.16-.03.25-.04.09-.01.2-.02.32-.02.31,0,.57.07.76.2.19.13.33.3.41.49.08.19.12.39.12.59,0,.31-.11.57-.33.76-.21.19-.52.28-.91.28-.1,0-.21,0-.31-.02-.11-.01-.21-.04-.3-.07-.02,0-.03-.02-.04-.03-.03-.04-.04-.07-.04-.1v-1.95ZM1.23.29s.04-.09.08-.09c.03,0,.06,0,.09,0h.08c.48,0,.81.08,1,.25.19.17.28.4.28.68,0,.16-.03.31-.1.47-.07.16-.21.29-.41.39-.2.1-.47.14-.84.14h-.09s-.09-.04-.09-.09V.29ZM1.22,4.8c.17,0,.32.01.47.01.15,0,.27,0,.35,0,.56,0,1.01-.12,1.34-.37.32-.24.48-.55.48-.96,0-.22-.05-.42-.15-.61-.1-.18-.24-.34-.42-.46-.18-.12-.38-.21-.61-.24-.04,0-.07-.04-.07-.08,0-.04.02-.08.06-.09.25-.08.44-.21.57-.4.13-.18.2-.4.2-.65,0-.29-.14-.51-.44-.68-.3-.18-.74-.27-1.28-.27-.2,0-.41.01-.63.03-.22.02-.44.05-.65.09-.16.03-.31.06-.45.09l.02.12c.14-.03.29-.05.45-.06.03,0,.05,0,.07.02.02.02.03.04.03.07v4.02c0,.14-.16.23-.53.31v.08l.71.02h.47Z"/>
      <path d="M8.12,3.1s.05-.02.09-.05c.05-.05.1-.1.15-.16.05-.06.09-.14.13-.22.05-.08.09-.17.14-.26.02-.05.03-.08.03-.09,0-.02,0-.04-.08-.04h-1.66c-.06,0-.11.03-.16.1-.06.09-.13.18-.2.28-.07.1-.12.2-.16.28-.06.11-.06.14-.06.14.02,0,.04.01.07.01h1.73Z"/>
    </g>
  </g>
</svg>