<?xml version="1.0" encoding="UTF-8"?>
<svg id="Layer_2" data-name="Layer 2" xmlns="http://www.w3.org/2000/svg" viewBox="0 0 32.44 5.96">
  <g id="Layer_1-2" data-name="Layer 1">
    <g>
      <path d="M30.36,5.51c-.06,0-.11.02-.16.07-.04.04-.07.09-.07.16s.02.11.07.16c.09.09.23.08.31,0,.04-.05.06-.1.06-.16s-.02-.12-.06-.16c-.04-.04-.09-.06-.15-.06"/>
      <path d="M31.64,3.14c-.12.24-.3.42-.52.56-.15.09-.31.17-.49.24-.18.07-.37.1-.56.1-.09,0-.17-.02-.25-.07-.08-.05-.15-.13-.2-.24-.06-.14-.12-.31-.17-.52-.06-.22-.11-.44-.16-.64-.05-.22-.09-.4-.12-.56-.04-.2-.05-.25-.05-.28,0-.08.05-.18.2-.18h1.87c.26,0,.43.06.51.2.08.12.11.31.11.6s-.06.55-.19.79M31.85.73h-2.69c-.07,0-.14-.01-.21-.04-.09-.03-.15-.13-.18-.3,0-.04-.02-.04-.04-.04,0,0-.04,0-.12.11-.09.11-.2.26-.31.43-.12.19-.23.35-.32.51-.01.02-.03.05-.04.08-.01.03-.01.04-.01.04,0,0,0,.03.08.03.04,0,.09,0,.14.02.07,0,.12.03.16.06.06.04.12.11.16.2.04.07.07.17.12.32.07.22.14.47.21.77.07.28.14.54.21.8.08.28.14.49.2.66.05.15.13.28.23.37.1.09.2.13.31.13.28,0,.55-.06.8-.18.26-.12.51-.29.76-.49.13-.1.25-.24.38-.41.13-.18.22-.32.28-.42.17-.32.29-.64.36-.95.08-.31.11-.63.11-.95,0-.24-.05-.43-.15-.56-.09-.13-.24-.19-.44-.19"/>
      <path d="M8.12,3.1s.06-.02.09-.05c.05-.04.1-.1.15-.17.05-.06.09-.14.14-.22.04-.08.09-.17.13-.26.02-.06.03-.09.03-.09,0-.02,0-.04-.08-.04h-1.66c-.06,0-.11.03-.16.1-.06.09-.13.18-.2.28-.07.11-.12.2-.16.28-.06.11-.06.14-.06.14.02,0,.04.01.07.01h1.73Z"/>
      <path d="M22.53,4.76h2.19s.04,0,.12-.12c.06-.09.12-.19.18-.3.06-.12.11-.22.16-.3.02-.03.02-.05.03-.06h-1.54c-.11,0-.18-.07-.18-.18,0-.07.04-.16.14-.3.07-.11.16-.24.27-.39.11-.14.19-.25.26-.33.17-.21.33-.42.48-.64.13-.2.2-.4.2-.57,0-.29-.08-.52-.25-.69-.17-.17-.39-.3-.65-.38-.27-.08-.54-.12-.82-.12-.02,0-.07.01-.14.11l-.17.26c-.07.11-.13.2-.18.28-.03.04-.05.07-.06.09.02,0,.04,0,.06,0,.1,0,.22,0,.38.02.16.01.32.04.48.09.16.05.31.13.42.24.12.12.18.28.18.49,0,.17-.06.36-.18.54-.11.17-.23.33-.35.49-.21.26-.39.5-.53.69-.15.2-.26.39-.35.56-.04.09-.09.19-.13.29-.05.12-.06.18-.06.22h0s.02,0,.04,0"/>
      <path d="M11.75,2.09c0-.1.02-.19.04-.28.03-.2.1-.38.21-.52.11-.16.28-.24.49-.24.31,0,.54.1.71.29.16.18.27.42.33.7.06.28.09.57.09.87s-.02.53-.07.7c-.05.18-.11.31-.19.4-.08.09-.17.15-.26.17-.08.02-.16.03-.25.03-.35,0-.63-.13-.83-.39-.19-.26-.29-.67-.29-1.27,0-.2,0-.36.01-.46M11.88,4.66c.22.16.46.24.73.24.2,0,.39-.05.55-.14.17-.1.32-.22.44-.37.13-.15.24-.31.32-.48.09-.17.15-.33.19-.48.03-.11.05-.23.07-.38.02-.14.03-.28.03-.42,0-.26-.03-.53-.08-.79-.05-.27-.14-.52-.26-.74-.12-.22-.28-.4-.48-.53-.2-.13-.44-.2-.74-.2-.23,0-.43.06-.61.19-.19.13-.35.3-.48.52-.13.22-.24.47-.31.74-.07.27-.11.55-.11.83,0,.52.07.95.2,1.29.13.33.31.57.53.73"/>
      <path d="M1.23,2.44s.03-.08.08-.09c.08-.01.17-.02.25-.04.09-.01.19-.02.32-.02.31,0,.57.07.76.2.19.13.33.3.41.49.08.19.12.39.12.59,0,.31-.11.57-.33.76-.21.19-.52.28-.91.28-.1,0-.2,0-.31-.02-.11-.01-.21-.04-.3-.07-.02,0-.03-.02-.04-.03-.03-.04-.04-.07-.04-.11v-1.95ZM1.23.29s.04-.09.08-.09c.03,0,.06,0,.09,0h.08c.48,0,.81.08,1,.25.19.17.28.4.28.68,0,.16-.03.32-.1.47-.07.16-.21.29-.41.39-.19.09-.48.14-.84.14h-.09s-.09-.04-.09-.09V.29ZM.47.27s.05,0,.07.02c.02.02.03.04.03.07v4.02c0,.14-.16.23-.53.31v.08l.71.02.54.02c.14,0,.28,0,.41.01.15,0,.27,0,.35,0,.56,0,1.01-.12,1.34-.37.32-.24.48-.55.48-.96,0-.23-.05-.42-.15-.61-.1-.18-.24-.34-.42-.46-.18-.12-.38-.21-.61-.24-.04,0-.07-.04-.08-.08s.02-.08.06-.09c.25-.08.44-.21.57-.4.13-.18.2-.4.2-.65,0-.29-.14-.51-.44-.68C2.58.03,1.92-.05,1.09.03c-.23.02-.44.05-.65.09-.16.03-.31.05-.44.09l.02.12c.14-.03.29-.04.45-.06"/>
      <path d="M17.31,2.09c0-.1.02-.19.03-.28.03-.2.1-.37.21-.52.11-.16.28-.24.49-.24.31,0,.55.1.71.29.16.18.27.42.33.7.06.28.09.57.09.87s-.02.53-.07.7c-.04.18-.11.31-.19.4-.09.09-.17.15-.27.17-.08.02-.16.03-.24.03-.35,0-.63-.13-.83-.39-.19-.25-.29-.67-.29-1.27,0-.22,0-.37.01-.47M17.44,4.66c.22.16.46.24.73.24.2,0,.39-.05.55-.14.17-.1.31-.21.44-.37.13-.15.24-.31.32-.48.09-.17.15-.33.19-.48.03-.12.06-.24.07-.38.02-.14.03-.28.03-.42,0-.26-.03-.53-.08-.79-.05-.27-.14-.52-.26-.74-.12-.22-.28-.4-.48-.53-.2-.13-.44-.2-.73-.2-.22,0-.43.06-.61.19-.18.13-.34.3-.48.52-.13.22-.24.47-.31.74-.07.28-.11.55-.11.83,0,.52.07.95.2,1.29.13.33.31.57.53.73"/>
    </g>
  </g>
</svg>