<?xml version="1.0" encoding="UTF-8"?>
<svg id="Layer_2" data-name="Layer 2" xmlns="http://www.w3.org/2000/svg" viewBox="0 0 4.51 5.62">
  <g id="Layer_1-2" data-name="Layer 1-2">
    <g>
      <path d="M2.6,5.55s.06-.1.06-.16-.02-.11-.06-.16c-.04-.04-.09-.06-.16-.06s-.11.02-.16.07c-.04.04-.06.09-.06.16s.02.11.07.16c.09.09.23.08.31,0"/>
      <path d="M3.72,2.79c-.12.24-.3.43-.52.56-.14.09-.31.17-.49.24-.18.07-.37.1-.56.1-.09,0-.17-.02-.25-.07s-.15-.13-.2-.24c-.06-.14-.12-.31-.17-.52-.06-.2-.11-.42-.16-.64-.05-.22-.09-.4-.12-.56-.04-.22-.05-.26-.05-.28,0-.08.05-.18.2-.18h1.87c.26,0,.43.06.51.2.08.12.11.31.11.6s-.06.56-.19.79M3.93.38H1.24c-.07,0-.14,0-.21-.04-.09-.04-.15-.13-.18-.3,0-.04-.01-.04-.04-.04,0,0-.04,0-.12.11-.09.11-.2.26-.31.43-.12.17-.22.35-.32.51-.01.02-.03.05-.04.08-.01.03-.02.05-.02.05,0,0,0,.03.08.03.04,0,.09,0,.14.02.07,0,.12.03.16.06.06.04.12.11.16.2.04.07.07.17.12.32.07.22.14.47.21.77.07.28.14.54.21.8.07.27.14.48.2.66.05.15.13.28.23.37.1.09.2.13.31.13.28,0,.55-.06.8-.18.26-.12.51-.29.76-.49.13-.1.25-.24.38-.41s.22-.31.28-.42c.17-.32.29-.64.36-.95.07-.3.11-.62.11-.95,0-.24-.05-.43-.15-.56-.09-.13-.24-.19-.44-.19"/>
    </g>
  </g>
</svg>