<?xml version="1.0" encoding="UTF-8"?>
<svg id="Layer_2" data-name="Layer 2" xmlns="http://www.w3.org/2000/svg" viewBox="0 0 32.41 6.78">
  <g id="Layer_1-2" data-name="Layer 1">
    <g>
      <path d="M30.97,6.72s.06-.09.06-.16-.02-.11-.06-.15c-.04-.04-.1-.06-.16-.06s-.11.02-.15.06c-.04.04-.06.09-.06.16s.02.12.06.16c.08.08.23.08.31,0"/>
      <path d="M30.97,5.77s.06-.09.06-.16-.02-.12-.06-.15c-.04-.04-.1-.06-.16-.06s-.12.02-.15.06c-.04.04-.06.09-.06.16s.02.12.06.16c.08.08.23.08.32,0"/>
      <path d="M25.49,5.4c-.06,0-.11.02-.16.06-.05.04-.07.09-.07.16s.02.11.07.16c.09.09.23.09.31,0h0s.06-.1.06-.16-.02-.12-.06-.16c-.04-.04-.09-.06-.15-.06"/>
      <path d="M15.83,3.5c-.05.18-.11.31-.19.4-.08.09-.17.15-.27.17-.08.02-.17.03-.24.03-.35,0-.63-.13-.83-.39-.19-.25-.29-.67-.29-1.27,0-.21,0-.37.01-.47,0-.1.02-.19.04-.28.03-.2.1-.37.2-.52.11-.16.28-.24.49-.24.31,0,.55.1.72.29.16.18.27.42.33.7.06.27.09.57.09.87,0,.29-.02.52-.07.7M16.16.99c-.12-.22-.28-.4-.48-.53-.2-.13-.44-.2-.74-.2-.23,0-.43.06-.61.19-.18.13-.34.3-.48.52-.13.22-.24.47-.31.74-.07.27-.11.55-.11.83,0,.52.07.95.2,1.28.13.33.31.57.53.73.22.16.46.23.73.23.2,0,.39-.05.55-.14h0c.17-.09.31-.21.44-.36.13-.15.24-.31.32-.48.09-.17.15-.33.19-.48.03-.12.05-.25.07-.38.02-.14.03-.28.03-.42,0-.25-.03-.52-.08-.79-.06-.27-.14-.52-.26-.74"/>
      <path d="M32.18.72c-.08-.07-.19-.11-.34-.11h-2.65c-.12,0-.18-.06-.22-.1-.04-.05-.07-.11-.08-.18,0-.04-.02-.07-.04-.1,0,0,0,0,0,0-.02,0-.06.02-.14.11-.08.1-.17.23-.29.39-.11.16-.22.32-.33.5-.03.05-.06.09-.08.13-.01.02-.02.04-.02.06,0,.01,0,.02.03.02.08,0,.17.02.26.04.12.02.18.09.21.15.03.06.04.14.05.26.03.44.06.92.07,1.44l.04,1.55c.01.51.03.99.06,1.45,0,.04,0,.06.01.07,0-.01.03-.03.07-.08.06-.1.13-.2.19-.3.06-.09.11-.2.16-.31.04-.08.06-.18.06-.29,0-.12,0-.22,0-.3,0-.72,0-1.37,0-1.96,0-.6,0-1.07,0-1.44,0-.07.02-.13.05-.18.04-.06.11-.1.19-.1h1.81c.18,0,.3.06.38.18.07.11.1.24.1.41,0,.12,0,.26-.02.4-.02.14-.05.29-.09.44-.05.16-.11.28-.18.38-.07.09-.17.18-.31.25-.14.08-.3.15-.46.22-.16.07-.3.12-.42.16-.04.01-.06.03-.08.04,0,0-.03.03-.05.08-.03.07-.07.15-.11.27-.05.12-.09.23-.12.34-.04.14-.05.18-.05.18.02,0,.04,0,.06,0h.03s.04-.02.07-.03c.12-.04.26-.1.41-.17.17-.08.31-.16.43-.23.13-.08.22-.13.26-.16.25-.19.47-.45.66-.78.08-.14.15-.3.23-.47.06-.14.13-.29.2-.47.07-.19.13-.38.17-.57.04-.18.06-.36.06-.52,0-.14-.02-.27-.06-.39-.03-.12-.09-.21-.18-.29"/>
      <path d="M11.21,3.5c-.05.18-.11.31-.19.4-.08.09-.17.15-.26.17-.08.02-.17.03-.25.03-.35,0-.63-.13-.82-.39-.19-.26-.29-.67-.29-1.27,0-.2,0-.36.01-.47,0-.1.02-.19.03-.28.03-.2.1-.37.21-.52.11-.16.28-.24.49-.24.31,0,.55.1.71.29.16.18.27.42.33.7.06.28.09.57.09.87s-.02.53-.07.7M11.85,2.94c.02-.15.03-.29.03-.42,0-.25-.03-.52-.08-.79-.05-.27-.14-.52-.26-.74-.12-.22-.28-.4-.48-.54-.2-.13-.44-.2-.74-.2-.23,0-.43.06-.61.19-.18.13-.35.3-.48.52-.13.22-.24.47-.31.74-.07.27-.11.55-.11.83,0,.52.07.95.2,1.28.13.33.31.57.53.73.22.16.46.23.73.23.2,0,.39-.05.55-.14h0c.17-.09.31-.22.44-.36.13-.15.24-.31.32-.48.09-.17.15-.33.19-.47.03-.11.05-.24.07-.38"/>
      <path d="M3.4,3.68c-.06.17-.13.3-.19.4-.08.12-.18.21-.29.26-.11.05-.25.07-.42.07h-.42c-.23,0-.4,0-.52-.03-.14-.03-.22-.06-.27-.11-.05-.05-.08-.12-.08-.19v-1.77s.04-.09.09-.09h.54c.22,0,.39.02.51.05.09.03.18.07.25.13.03-.03.07-.08.12-.14.05-.07.09-.14.13-.19l-.04-.05h-1.49c-.05,0-.09-.04-.09-.09V.33c0-.05.04-.09.09-.09h1.33c.32,0,.38.45.4.69h.1c.01-.06.03-.13.04-.21.02-.12.04-.25.06-.38.01-.11.02-.2.03-.28l-.08-.07H0v.08c.16.03.28.07.36.12.08.04.18.1.18.19v3.88c0,.13-.16.22-.54.31v.08h3.36c.01-.07.03-.18.06-.36.03-.18.05-.37.07-.58l-.09-.03Z"/>
      <path d="M19.66,2.67h-.67c-.08,0-.14,0-.2-.02-.04-.01-.14-.05-.14-.22,0-.11.03-.24.09-.41.06-.16.13-.3.2-.42.08-.14.17-.24.26-.31.08-.07.17-.12.25-.17.06-.04.11-.05.15-.05.09,0,.13.05.14.1,0,.03,0,.05.01.08.02.12.03.25.04.41.01.16.02.31.03.46,0,.15,0,.27,0,.37,0,.14-.09.19-.17.19M20.38,2.5v-.31c0-.18-.01-.39-.02-.63,0-.24-.02-.48-.03-.72-.01-.22-.03-.42-.05-.58,0-.06-.03-.06-.05-.06-.02,0-.08,0-.2.06-.1.04-.18.08-.24.11-.2.11-.39.24-.56.39-.17.16-.32.34-.45.55-.24.38-.42.73-.56,1.04-.13.31-.19.54-.19.69,0,.13.03.22.08.27.05.06.14.09.27.09h1.22c.13,0,.21.09.21.23,0,.04,0,.13,0,.26,0,.14.01.29.02.46,0,.16,0,.3,0,.4,0,.04,0,.06,0,.07,0-.01.04-.04.09-.1.07-.09.14-.17.19-.24.05-.07.1-.14.15-.21.03-.05.06-.1.07-.15.01-.05.02-.1.02-.16v-.34c0-.21.13-.22.17-.22h.26s.07-.04.1-.11c.04-.07.08-.16.13-.26.05-.1.08-.19.11-.27l.03-.08s0-.03,0-.03h-.61c-.13,0-.18-.09-.18-.16"/>
      <path d="M25.27,2.53c.04.31.07.67.09,1.08.03.41.05.79.06,1.15,0,.06.02.08.02.08h0s.04-.05.07-.08c.04-.07.1-.17.17-.29.07-.12.12-.21.14-.28.03-.08.06-.16.07-.23.01-.07.02-.15.02-.23,0-.33,0-.66-.03-.96-.02-.3-.04-.6-.08-.94-.02-.21-.08-.41-.19-.6-.1-.18-.24-.33-.4-.45-.16-.11-.34-.17-.54-.17h-.93c-.13,0-.2-.07-.24-.13-.04-.07-.06-.14-.08-.21,0-.06-.02-.06-.03-.06,0,0,0,0-.04.02-.02.01-.05.04-.09.11l-.19.31c-.07.12-.13.23-.19.34-.06.11-.11.2-.15.27-.05.11-.06.15-.06.16,0,0,.02.01.08.01h1.38c.35,0,.62.1.81.3.18.19.29.46.32.8"/>
      <path d="M7.08,2.56c.04-.08.09-.17.14-.26.02-.06.02-.09.02-.09,0-.02,0-.04-.08-.04h-1.66c-.06,0-.11.03-.16.1-.07.09-.13.18-.2.29s-.12.19-.17.28c-.06.11-.06.14-.06.14.02,0,.04.01.07.01h1.72s.06-.02.09-.05c.05-.05.1-.1.15-.16.04-.06.09-.14.13-.22"/>
    </g>
  </g>
</svg>