<?xml version="1.0" encoding="UTF-8"?>
<svg id="Layer_2" data-name="Layer 2" xmlns="http://www.w3.org/2000/svg" viewBox="0 0 9.73 6.58">
  <g id="Layer_1-2" data-name="Layer 1-2">
    <g>
      <path d="M8.29,5.56s.06-.09.06-.16-.02-.12-.06-.15c-.04-.04-.1-.06-.16-.06s-.11.02-.16.06c-.04.04-.06.09-.06.16s.02.12.06.16c.08.08.23.08.32,0"/>
      <path d="M2.82,5.19c-.06,0-.11.02-.16.06s-.07.09-.07.16.02.11.07.16c.09.09.23.09.31,0h0s.06-.1.06-.16-.02-.12-.06-.16c-.04-.04-.09-.06-.15-.06"/>
      <path d="M8.29,6.51s.06-.09.06-.16-.02-.11-.06-.15c-.04-.04-.1-.06-.16-.06s-.11.02-.15.06c-.04.04-.06.09-.06.16s.02.12.06.16c.08.08.23.08.32,0"/>
      <path d="M3.13,1.62c-.02-.21-.08-.41-.19-.6-.1-.18-.24-.33-.4-.45-.16-.11-.34-.17-.54-.17h-.93c-.13,0-.2-.07-.24-.13-.04-.07-.06-.14-.08-.21,0-.06-.02-.06-.03-.06l-.04.03s-.05.04-.09.11l-.19.31c-.07.11-.13.23-.19.34-.06.11-.11.2-.15.27-.05.11-.06.15-.06.16,0,0,.02,0,.08,0h1.38c.35,0,.62.1.81.3.18.19.29.46.32.8.04.3.07.67.09,1.08.03.41.05.79.06,1.15,0,.06.02.08.02.08h0s.04-.04.06-.07c.05-.08.11-.17.17-.29.07-.12.12-.21.14-.28.03-.08.06-.15.07-.23,0-.07.01-.15.01-.23,0-.34-.01-.66-.03-.96s-.04-.6-.08-.94"/>
      <path d="M9.16.4h-2.65c-.1,0-.17-.03-.22-.1-.04-.05-.07-.11-.08-.18,0-.04-.02-.07-.04-.1h-.01s-.06.02-.14.11c-.08.1-.17.23-.29.39-.11.16-.22.33-.33.5-.03.05-.06.09-.08.13-.01.02-.02.04-.02.06,0,0,0,.02.03.02.08,0,.18.02.27.04.13.02.18.1.21.15.03.06.04.15.05.26.03.44.06.93.07,1.44.02.51.03,1.03.04,1.55.01.48.03.97.06,1.45,0,.04,0,.06.01.07,0-.01.03-.03.07-.08.06-.1.13-.2.19-.3.06-.1.11-.2.16-.31.04-.08.06-.18.06-.29V1.51c0-.07.02-.13.05-.18.04-.06.11-.1.19-.1h1.81c.22,0,.33.1.38.18.07.1.1.24.1.41,0,.12,0,.26-.02.39-.02.14-.05.29-.09.45-.05.16-.11.28-.18.38-.07.09-.18.18-.31.25-.14.08-.3.15-.46.22s-.3.12-.42.16c-.04,0-.06.02-.08.04,0,0-.02.03-.05.08-.03.06-.07.15-.11.27-.05.12-.09.23-.12.34-.04.14-.05.17-.05.18h.09s.05-.02.07-.03c.12-.04.26-.09.41-.17.17-.08.31-.16.43-.23.16-.09.23-.14.26-.16.25-.19.47-.45.66-.78.08-.15.16-.3.23-.47.07-.15.13-.31.19-.47.07-.18.13-.37.17-.57.04-.19.06-.36.06-.52,0-.14-.02-.27-.06-.39s-.09-.21-.18-.29c-.08-.07-.19-.11-.34-.11"/>
    </g>
  </g>
</svg>