<?xml version="1.0" encoding="UTF-8"?>
<svg id="Layer_2" data-name="Layer 2" xmlns="http://www.w3.org/2000/svg" viewBox="0 0 32.41 6.78">
  <g id="Layer_1-2" data-name="Layer 1">
    <g>
      <path d="M30.97,6.72s.06-.09.06-.16-.02-.11-.06-.15c-.04-.04-.1-.06-.16-.06s-.11.02-.15.06c-.04.04-.06.09-.06.16s.02.12.06.16c.08.08.23.08.32,0"/>
      <path d="M30.97,5.77s.06-.09.06-.16-.02-.12-.06-.15c-.04-.04-.1-.06-.16-.06s-.11.02-.15.06c-.04.04-.06.09-.06.16s.02.12.06.16c.08.08.23.08.32,0"/>
      <path d="M25.49,5.4c-.06,0-.11.02-.16.06-.05.04-.07.09-.07.16s.02.11.07.16c.09.09.23.09.31,0h0s.06-.1.06-.16-.02-.12-.06-.16c-.04-.04-.09-.06-.15-.06"/>
      <path d="M11.21,3.5c-.05.18-.11.31-.19.4-.08.09-.17.15-.26.17-.08.02-.17.03-.25.03-.35,0-.63-.13-.82-.39-.19-.26-.29-.67-.29-1.27,0-.2,0-.36.01-.47.01-.1.02-.19.04-.28.03-.2.1-.37.2-.52.11-.16.28-.24.49-.24.31,0,.55.1.71.29.16.18.27.42.33.7.06.28.09.57.09.87s-.02.53-.07.7M11.85,2.94c.02-.15.03-.29.03-.42,0-.25-.03-.52-.08-.79-.05-.27-.14-.52-.26-.74-.12-.22-.28-.4-.48-.54-.2-.13-.44-.2-.73-.2-.23,0-.43.06-.61.19-.18.13-.35.3-.48.52-.13.22-.24.47-.31.74-.07.27-.11.55-.11.83,0,.52.07.95.2,1.28.13.33.31.57.53.73.22.16.46.23.73.23.2,0,.39-.05.55-.14h0c.17-.09.31-.22.44-.36.13-.15.24-.31.32-.48.09-.17.15-.33.19-.47.03-.11.05-.24.07-.38"/>
      <path d="M15.83,3.5c-.05.18-.11.31-.19.4-.08.09-.17.15-.27.17-.08.02-.17.03-.25.03-.35,0-.63-.13-.83-.39-.19-.25-.29-.67-.29-1.27,0-.21,0-.37.01-.47.01-.1.02-.19.04-.28.03-.2.1-.37.21-.52.11-.16.28-.24.49-.24.31,0,.55.1.71.29.16.18.27.42.33.7.06.27.09.57.09.87s-.02.53-.07.7M16.42,1.73c-.05-.27-.14-.52-.26-.74-.12-.22-.28-.4-.48-.53-.2-.13-.44-.2-.74-.2-.23,0-.43.06-.61.19-.18.13-.34.3-.48.52-.13.22-.24.47-.31.74-.07.27-.11.55-.11.83,0,.52.07.95.2,1.28.13.33.31.57.53.73.22.16.46.23.73.23.2,0,.39-.05.55-.14.17-.09.31-.22.44-.36s.23-.31.32-.48c.09-.17.15-.33.19-.47.03-.12.05-.25.07-.38.02-.14.03-.28.03-.42,0-.25-.03-.52-.08-.79"/>
      <path d="M19.27,3.68s.02-.12.13-.3c.08-.12.17-.25.28-.39.1-.14.19-.25.26-.33.17-.2.33-.42.48-.64.14-.2.21-.4.21-.57,0-.29-.08-.52-.25-.69-.17-.17-.39-.3-.65-.38-.27-.08-.54-.12-.82-.12-.04,0-.09.04-.14.11l-.02.03c-.04.06-.1.14-.16.23-.07.1-.12.19-.17.26-.03.06-.05.09-.07.11.11,0,.25,0,.43.02.17.01.32.04.48.09.16.05.3.13.42.24.12.12.18.28.18.49,0,.17-.06.36-.18.54-.11.18-.23.34-.35.49-.21.26-.39.49-.53.69-.14.2-.26.39-.35.56-.04.09-.09.18-.13.29-.05.12-.06.19-.06.22h0s.02,0,.04,0h2.19s.05-.02.12-.12c.06-.09.12-.19.18-.3.06-.12.11-.22.16-.3,0,0,.02-.03.03-.05h-1.54c-.11,0-.18-.07-.18-.19"/>
      <path d="M3.4,3.68c-.06.17-.13.3-.19.4-.08.12-.18.21-.29.26-.11.05-.25.07-.42.07h-.42c-.23,0-.4,0-.52-.03-.14-.03-.22-.06-.27-.11s-.08-.12-.08-.19v-1.77s.04-.09.09-.09h.54c.22,0,.39.02.51.05.09.03.18.07.25.13.03-.03.07-.08.12-.14.05-.07.09-.14.13-.19l-.04-.05h-1.49s-.09-.04-.09-.09V.33c0-.05.04-.09.09-.09h1.33c.32,0,.38.45.4.69h.1c.02-.06.03-.13.05-.21.02-.12.04-.25.06-.38.02-.11.02-.2.03-.28l-.08-.07H0v.08c.16.03.28.07.36.12.08.04.18.1.18.19v3.88c0,.13-.16.22-.54.31v.08h3.36c.01-.07.03-.18.06-.36.03-.18.05-.37.07-.58l-.09-.03Z"/>
      <path d="M32.18.72c-.08-.07-.19-.11-.34-.11h-2.65c-.12,0-.18-.06-.22-.1-.04-.05-.07-.11-.08-.18,0-.03-.02-.07-.04-.09,0,0,0,0,0,0-.02,0-.06.02-.14.11-.08.1-.17.23-.29.39-.11.16-.22.32-.33.5-.03.05-.06.09-.08.13-.01.02-.02.04-.02.06,0,.01,0,.02.03.02.08,0,.17.02.27.04.12.02.18.09.21.15.03.06.04.14.05.26.03.44.06.92.07,1.44l.04,1.55c.01.48.03.96.06,1.45,0,.04,0,.06.01.07,0-.01.03-.03.07-.08.06-.1.13-.2.19-.3.06-.09.11-.2.16-.31.04-.08.06-.18.06-.29,0-.12,0-.22,0-.3,0-.72,0-1.37,0-1.96,0-.6,0-1.07,0-1.44,0-.07.02-.13.05-.18.04-.06.11-.1.19-.1h1.81c.18,0,.3.06.38.18.07.11.1.24.1.41,0,.12,0,.26-.02.4-.02.14-.05.29-.09.44-.05.16-.11.28-.18.38-.07.09-.17.18-.31.25-.14.08-.3.15-.46.22-.16.07-.3.12-.42.16-.04.01-.06.03-.08.04,0,0-.03.03-.05.08-.03.07-.07.15-.11.27-.05.12-.09.23-.12.34-.04.14-.05.18-.05.18.02,0,.03,0,.06,0h.03s.04-.02.07-.03c.12-.04.26-.1.41-.17.17-.08.31-.16.43-.23.13-.08.22-.13.26-.16.25-.19.47-.45.66-.78.08-.14.15-.3.23-.47.07-.15.13-.31.19-.47.07-.19.13-.38.17-.57.04-.18.06-.36.06-.52,0-.14-.02-.27-.05-.39-.04-.12-.09-.21-.18-.29"/>
      <path d="M25.81,1.83c-.02-.21-.08-.41-.19-.6-.1-.18-.24-.33-.4-.45-.16-.11-.34-.17-.54-.17h-.93c-.13,0-.2-.07-.24-.13-.04-.07-.06-.14-.08-.21,0-.06-.02-.06-.03-.06,0,0,0,0-.04.03-.02.01-.05.04-.09.11l-.18.31c-.07.12-.13.23-.19.34-.06.11-.11.2-.15.27-.05.11-.06.15-.06.16,0,0,.02.01.08.01h1.38c.35,0,.62.1.81.3.18.19.29.46.32.8.04.31.07.67.09,1.08.02.41.05.79.06,1.15,0,.06.02.08.02.08h0s.04-.05.07-.07c.05-.07.1-.17.17-.29.07-.12.12-.21.14-.28.03-.08.06-.15.07-.23.01-.07.02-.15.02-.23,0-.33-.01-.65-.03-.96-.02-.31-.05-.62-.08-.94"/>
      <path d="M6.71,2.99s.05-.02.09-.05c.05-.05.1-.1.15-.16.04-.06.09-.14.13-.22.05-.08.09-.17.14-.26.02-.06.02-.09.02-.09,0-.02,0-.04-.08-.04h-1.66c-.06,0-.11.03-.16.1-.07.09-.13.18-.2.29-.07.1-.12.19-.17.28-.05.1-.06.14-.06.14.02,0,.04.01.07.01h1.72Z"/>
    </g>
  </g>
</svg>