<?xml version="1.0" encoding="UTF-8"?>
<svg id="Layer_2" data-name="Layer 2" xmlns="http://www.w3.org/2000/svg" viewBox="0 0 4.46 5.53">
  <g id="Layer_1-2" data-name="Layer 1-2">
    <g>
      <path d="M3.38,5.24h-1.7c-.1,0-.2,0-.27.01-.04,0-.04.02-.04.04v.22h.2c.08,0,.17,0,.27.01.1,0,.2.01.3.01h.55c.11,0,.21,0,.31-.01h.4l.03-.03v-.19s0-.04-.05-.04"/>
      <path d="M.45,1.08c.15.13.29.25.42.36.04.03.08.08.08.15,0,.03-.01.07-.04.12-.2.27-.35.52-.43.75-.09.23-.14.44-.16.63s-.03.36-.03.5v.34c0,.06-.02.14-.05.22-.03.07-.06.14-.08.21-.01.03-.02.05-.03.06h.96s.08-.02.1-.05c.04-.06.09-.14.14-.26.06-.12.11-.23.16-.34.06-.14.06-.17.06-.18h-.33c-.13,0-.23-.05-.3-.17-.06-.1-.08-.23-.08-.39,0-.1.01-.22.04-.36.02-.14.06-.27.1-.4.04-.14.08-.24.12-.32.02-.03.07-.13.17-.13.04,0,.08.02.14.07.28.23.6.52.97.89.28.27.52.51.71.7.19.2.37.39.52.56s.31.35.48.55h0c.09-.17.21-.41.35-.69,0-.03.02-.04.02-.06h0v-.02c-.05-.05-.11-.12-.19-.22l-.28-.32c-.1-.11-.19-.22-.28-.31-.1-.11-.17-.18-.22-.23-.04-.04-.06-.09-.06-.13,0-.03.01-.06.03-.09,0,0,.02-.03.03-.05.1-.18.2-.35.3-.51.09-.15.17-.32.23-.49.06-.17.09-.36.09-.57,0-.13-.02-.29-.07-.46-.04-.17-.1-.29-.15-.38-.02-.03-.03-.04-.04-.05,0,0-.02.02-.03.04-.05.06-.11.14-.19.23l-.24.28c-.05.06-.1.11-.12.15-.02.02-.03.05-.04.07v.03s.03.07.05.11c.05.11.08.22.11.33.03.12.04.24.04.36,0,.21-.04.41-.12.61-.03.11-.11.12-.14.12-.04,0-.08-.03-.14-.08-.06-.06-.16-.15-.29-.29-.14-.14-.32-.31-.53-.51-.29-.27-.58-.52-.88-.76C1.04.46.76.23.49.02c0,0-.01,0-.03-.02,0,0-.01,0-.03.03-.04.06-.09.14-.15.23-.06.09-.11.17-.16.25s-.08.13-.1.16c-.01.02-.01.03-.02.04.02.02.04.04.07.07.09.08.22.19.37.31"/>
    </g>
  </g>
</svg>