<?xml version="1.0" encoding="UTF-8"?>
<svg id="Layer_2" data-name="Layer 2" xmlns="http://www.w3.org/2000/svg" viewBox="0 0 32.51 5.9">
  <g id="Layer_1-2" data-name="Layer 1">
    <g>
      <path d="M31.42,5.87s.03-.03.03-.03v-.19s0-.04-.05-.04c-.05,0-.12,0-.2,0h-.09s0,0,0,0c-.05,0-.11,0-.16,0-.06,0-.11,0-.16,0-.06,0-.12,0-.18,0-.06,0-.12,0-.19,0h0c-.06,0-.12,0-.18,0-.06,0-.13,0-.19,0-.05,0-.11,0-.16,0-.06,0-.11,0-.17,0-.1,0-.19,0-.27.01-.04,0-.04.02-.04.04v.19s0,.03,0,.03c0,0,0,0,.03,0h.17c.08,0,.17,0,.27.01.1,0,.2,0,.3.01.2,0,.32,0,.54,0h0c.11,0,.21,0,.31-.01.05,0,.1,0,.14,0,.04,0,.09,0,.12,0,.05,0,.08,0,.1,0h.04Z"/>
      <path d="M11.93,2.09c0-.1.02-.19.04-.28.03-.2.1-.37.2-.52.11-.16.28-.24.49-.24.31,0,.55.09.72.29.16.18.27.42.33.7.06.28.09.57.09.87s-.02.53-.07.7c-.05.18-.11.31-.19.4-.08.09-.17.14-.26.17-.09.02-.17.03-.25.03-.35,0-.63-.13-.82-.39-.19-.25-.29-.67-.29-1.27,0-.22,0-.37.01-.47M12.07,4.66c.22.16.46.23.73.23.2,0,.39-.05.55-.14.17-.09.31-.22.44-.36.13-.15.23-.31.32-.48.08-.17.15-.33.19-.47.03-.12.06-.25.07-.38.02-.14.03-.28.03-.42,0-.25-.03-.52-.08-.79-.05-.27-.14-.52-.26-.74-.12-.22-.28-.4-.48-.54-.2-.13-.44-.2-.74-.2-.23,0-.43.06-.61.19-.18.13-.34.3-.48.52-.13.22-.24.47-.31.74-.07.27-.11.55-.11.83,0,.52.07.95.2,1.29.13.33.31.57.53.73"/>
      <path d="M8.37,3.1s.05-.02.09-.05c.05-.04.1-.1.15-.16.05-.07.09-.14.13-.21.05-.08.09-.17.13-.26.02-.06.03-.09.03-.09,0-.02,0-.04-.09-.04h-1.66s-.1.01-.16.1c-.06.09-.13.18-.2.28-.07.11-.12.2-.16.28-.06.11-.06.14-.06.14.02,0,.04.01.07.01h1.72Z"/>
      <path d="M1.23.3s.04-.09.08-.09c.11,0,.22-.01.32-.01.6,0,1.07.2,1.39.58.32.38.48.93.48,1.63,0,.37-.05.69-.15.96-.1.27-.23.5-.38.67-.16.18-.33.31-.51.39-.18.09-.36.13-.53.13-.16,0-.31-.02-.45-.05h0c-.23-.05-.26-.21-.26-.29V.3ZM0,.21l.02.14c.05,0,.1-.02.16-.03l.29-.04s.05,0,.07.02c.02.02.03.04.03.07v4c0,.13-.16.23-.54.31v.08h2.03c.24,0,.49-.04.74-.13.25-.09.49-.23.7-.42.21-.19.39-.45.52-.77.13-.32.2-.71.2-1.18,0-.71-.2-1.28-.61-1.67-.4-.4-.98-.6-1.71-.6-.21,0-.44.01-.69.03-.25.02-.49.05-.72.08-.19.03-.36.06-.51.1"/>
      <path d="M17.43,2.09c0-.1.02-.19.04-.28.03-.2.1-.37.2-.52.11-.16.28-.24.49-.24.31,0,.55.09.72.29.16.18.27.42.33.7.06.28.09.57.09.87s-.02.53-.07.7c-.05.18-.11.31-.19.4-.08.09-.17.14-.27.17-.09.02-.17.03-.25.03-.35,0-.63-.13-.82-.39-.19-.25-.29-.67-.29-1.27,0-.22,0-.37.01-.47M17.56,4.66c.22.16.46.23.73.23.2,0,.39-.05.55-.14.17-.09.31-.22.44-.36.13-.15.23-.31.32-.48.09-.17.15-.33.19-.47.03-.11.05-.24.07-.38.02-.14.03-.28.03-.42,0-.25-.03-.52-.08-.79-.05-.27-.14-.52-.26-.74-.12-.22-.28-.4-.48-.53-.2-.13-.44-.2-.74-.2-.23,0-.43.06-.61.19-.18.13-.34.3-.48.52-.13.22-.24.47-.31.74-.07.27-.11.55-.11.83,0,.52.07.95.2,1.29.13.33.31.57.53.73"/>
      <path d="M22.9,4.8c.11.03.22.05.34.07.11.02.21.03.29.03.22,0,.44-.06.67-.18.23-.12.44-.31.63-.57.07-.09.13-.22.21-.38.07-.15.1-.31.1-.49,0-.2-.04-.37-.11-.51-.08-.14-.18-.25-.29-.34-.12-.09-.25-.15-.36-.19-.12-.04-.22-.06-.31-.06h-.34s-.1-.02-.15-.06c-.07-.06-.09-.12-.09-.16,0-.07,0-.13,0-.18,0-.05,0-.1,0-.15,0-.12.08-.19.21-.19h.88c.07,0,.1,0,.12-.01.02,0,.03-.02.04-.04.03-.05.08-.13.14-.24.06-.1.11-.2.15-.31.06-.13.06-.18.06-.2,0,0-.01-.02-.06-.02h-1.43c-.1,0-.2-.01-.23-.09,0-.02-.04-.08-.09-.17v-.03s-.05,0-.1.06c-.08.09-.15.21-.23.35-.09.17-.12.26-.12.31-.01.06-.02.11-.02.16,0,.05,0,.11,0,.19,0,.21,0,.42.01.64,0,.22.02.44.05.68,0,.06.03.13.18.13h.48c.34.02.57.09.71.21.14.12.21.28.21.47,0,.16-.05.3-.14.4-.14.15-.41.2-.82.11-.13-.03-.22-.06-.29-.08-.03,0-.06-.02-.09-.03-.04-.01-.05-.02-.06-.02-.02.02-.03.03-.04.04-.02.02-.05.07-.1.15-.05.08-.1.17-.15.26-.05.09-.09.17-.12.23,0,.03-.02.05-.02.07,0,0,.02.02.04.03.06.02.14.05.26.08"/>
      <path d="M32.49,4.16c-.04-.05-.1-.12-.18-.22l-.28-.32c-.1-.11-.2-.22-.29-.32-.09-.1-.16-.17-.21-.22-.04-.04-.06-.09-.06-.13,0-.03.01-.06.03-.09,0,0,.01-.02.03-.05.1-.18.2-.35.3-.51.1-.15.17-.32.23-.49.06-.17.09-.36.09-.57,0-.13-.02-.29-.07-.45-.04-.17-.1-.29-.15-.38-.02-.03-.03-.04-.04-.05,0,0-.02.02-.03.04-.05.06-.11.14-.19.22l-.22.26c-.07.08-.12.14-.15.18-.02.02-.03.05-.04.07,0,0,0,.02,0,.03.02.04.03.07.05.11.05.11.09.22.11.33.03.12.04.24.04.36,0,.21-.04.41-.12.61-.03.11-.12.12-.14.12-.05,0-.09-.03-.14-.08-.06-.06-.16-.15-.29-.29-.13-.14-.31-.31-.53-.51-.29-.26-.58-.52-.88-.76-.29-.24-.57-.47-.84-.68,0,0-.01,0-.03-.02,0,0-.01,0-.03.03-.04.06-.09.14-.15.23-.06.09-.11.17-.16.25-.05.08-.08.13-.1.17,0,.01-.01.03-.02.03.02.02.04.04.07.07.09.08.22.19.37.31.16.13.29.25.42.36.04.03.08.08.08.15,0,.03-.01.07-.04.12-.2.27-.35.53-.43.75-.09.23-.14.44-.16.63-.02.2-.03.36-.03.5,0,.09,0,.16,0,.21,0,.05,0,.09,0,.13,0,.07-.02.14-.05.22-.03.07-.06.14-.08.21-.01.03-.02.05-.03.06h.96s.07-.02.1-.05c.04-.06.09-.14.14-.26.06-.12.11-.23.16-.34.06-.14.06-.17.06-.17h-.33c-.13,0-.23-.06-.3-.17-.06-.1-.08-.23-.08-.39,0-.1.01-.22.04-.36.02-.14.06-.27.1-.4.04-.14.08-.24.12-.32.04-.09.1-.13.17-.13.04,0,.09.02.15.07.29.23.6.52.97.89.28.27.52.51.71.7.19.2.37.39.52.56.15.17.31.35.47.55,0,0,0,0,0-.01.09-.16.21-.39.35-.68.01-.02.02-.04.02-.06h0s0,0-.01-.02"/>
    </g>
  </g>
</svg>