<?xml version="1.0" encoding="UTF-8"?>
<svg id="Layer_2" data-name="Layer 2" xmlns="http://www.w3.org/2000/svg" viewBox="0 0 32.51 5.9">
  <g id="Layer_1-2" data-name="Layer 1">
    <g>
      <path d="M1.24.3s.04-.09.08-.09c.11,0,.22-.01.33-.01.6,0,1.07.2,1.39.58.32.38.48.93.48,1.63,0,.37-.05.69-.15.96-.1.27-.23.49-.38.67-.16.17-.33.31-.51.39-.18.09-.36.13-.53.13-.16,0-.31-.02-.45-.05h0c-.23-.05-.26-.21-.26-.29V.3ZM0,.21l.02.14c.05,0,.11-.02.16-.03l.28-.04s.05,0,.07.02c.02.02.03.04.03.07v4c0,.13-.16.23-.54.31v.08h2.03c.24,0,.49-.04.74-.13.25-.09.49-.23.7-.42.22-.19.39-.45.52-.77.13-.32.2-.71.2-1.18,0-.71-.21-1.28-.61-1.67-.41-.4-.98-.6-1.71-.6-.21,0-.44.01-.69.03-.25.02-.49.05-.72.08-.19.03-.36.06-.51.1"/>
      <path d="M23.24,2.88c.14-.15.33-.23.56-.23.17,0,.32.05.44.14.12.09.21.2.28.33.07.13.11.26.11.4,0,.21-.06.39-.16.52-.11.14-.31.2-.6.2-.19,0-.38-.07-.56-.21h0c-.18-.14-.27-.34-.27-.58,0-.22.07-.41.21-.56M23.06,4.75c.42.2.86.19,1.21-.02.19-.11.36-.25.51-.42.14-.17.26-.35.34-.54.08-.18.12-.35.12-.5,0-.2-.04-.39-.13-.57-.08-.18-.21-.32-.36-.44-.16-.11-.35-.17-.58-.17-.16,0-.22.02-.25.03-.09.04-.12.05-.14.05-.08,0-.12-.06-.12-.11,0-.03,0-.05.06-.12.07-.11.16-.26.28-.43.11-.17.24-.35.36-.53.13-.18.25-.35.37-.5.03-.03.05-.07.07-.1.02-.03.02-.04.02-.04,0,0-.03,0-.06.02l-.13.04c-.09.03-.19.07-.29.11-.1.04-.19.08-.26.12-.06.03-.11.07-.15.11-.05.04-.09.1-.13.16-.12.16-.27.37-.47.65-.17.25-.34.52-.49.79-.11.21-.22.43-.32.66-.1.22-.15.44-.15.64,0,.26.07.49.2.68.13.19.3.33.5.43"/>
      <path d="M31.45,5.83v-.19s0-.04-.05-.04c-.05,0-.12,0-.2,0h-.09s0,0,0,0c-.05,0-.11,0-.17,0-.06,0-.11,0-.16,0-.06,0-.12,0-.18,0-.06,0-.12,0-.19,0h0c-.06,0-.12,0-.19,0-.06,0-.13,0-.19,0-.05,0-.11,0-.16,0-.06,0-.11,0-.17,0-.1,0-.19,0-.27.01-.04,0-.04.02-.04.04v.19s0,.03,0,.03c0,0,0,0,.03,0h.17c.08,0,.17,0,.27.01.1,0,.2.01.3.01.2,0,.33,0,.54,0h0c.11,0,.21,0,.31-.01.05,0,.1,0,.14,0,.04,0,.08,0,.12,0,.04,0,.08,0,.1,0h.04s.03-.03.03-.03"/>
      <path d="M11.94,2.09c0-.1.02-.19.04-.28.03-.2.1-.37.2-.52.11-.16.28-.24.49-.24.31,0,.55.09.72.29.16.18.27.42.33.7.06.28.09.57.09.87s-.02.53-.07.7c-.05.18-.11.31-.19.4-.08.09-.17.14-.27.17-.09.02-.17.03-.25.03-.35,0-.63-.13-.82-.39-.19-.25-.29-.67-.29-1.27,0-.22,0-.37.01-.47M12.07,4.66c.22.16.46.23.73.23.2,0,.39-.05.55-.14.17-.09.31-.22.44-.36.13-.15.23-.31.32-.48.08-.17.15-.33.19-.47.03-.11.05-.24.07-.38.02-.14.03-.28.03-.42,0-.25-.03-.52-.08-.79-.05-.27-.14-.52-.26-.74-.12-.22-.28-.4-.48-.54-.2-.13-.44-.2-.74-.2-.23,0-.43.06-.61.19-.18.13-.34.3-.48.52-.13.22-.24.47-.31.74-.07.27-.11.55-.11.83,0,.52.07.95.2,1.29.13.33.31.57.53.73"/>
      <path d="M17.43,2.09c0-.1.02-.19.04-.28.03-.2.1-.37.2-.52.11-.16.28-.24.49-.24.31,0,.55.09.72.29.16.18.27.42.33.7.06.28.09.57.09.87s-.02.53-.07.7c-.05.18-.11.31-.19.4s-.17.14-.27.17c-.08.02-.17.03-.25.03-.35,0-.63-.13-.83-.39-.19-.25-.29-.67-.29-1.27,0-.22,0-.37.01-.47M17.56,4.66c.22.16.46.23.73.23.2,0,.39-.05.55-.14h0c.17-.09.31-.22.44-.36.13-.15.24-.31.32-.48.09-.17.15-.33.19-.47.03-.11.05-.24.07-.38.02-.14.03-.28.03-.42,0-.26-.03-.52-.08-.79-.05-.27-.14-.52-.26-.74-.12-.22-.28-.4-.48-.53-.2-.13-.44-.2-.74-.2-.23,0-.43.06-.61.19-.18.13-.34.3-.48.52-.13.22-.24.47-.31.74-.07.27-.11.55-.11.83,0,.52.07.95.2,1.29.13.33.31.57.53.73"/>
      <path d="M32.49,4.16c-.04-.05-.1-.12-.18-.22l-.28-.32c-.1-.11-.19-.21-.28-.31-.1-.11-.17-.18-.22-.23-.04-.04-.06-.09-.06-.13,0-.03.01-.06.03-.09,0,0,.01-.02.03-.05.1-.18.2-.35.3-.51.1-.16.18-.32.23-.49.06-.17.09-.36.09-.57,0-.13-.02-.29-.07-.45-.04-.17-.1-.29-.15-.38-.02-.03-.03-.04-.04-.05,0,0-.02.02-.03.04-.05.06-.11.14-.19.22l-.22.26c-.07.08-.12.14-.15.18-.02.02-.03.05-.04.07,0,0,0,.02,0,.03.02.04.03.07.05.11.05.11.08.22.11.33.03.12.04.24.04.36,0,.21-.04.41-.12.61-.03.11-.11.12-.14.12-.04,0-.08-.02-.14-.08-.06-.06-.16-.15-.29-.29-.13-.14-.31-.31-.53-.51-.29-.26-.58-.52-.88-.76-.29-.24-.57-.47-.84-.68,0,0-.01,0-.03-.02,0,0-.01,0-.03.03-.04.06-.09.14-.15.23-.06.09-.11.17-.16.25-.05.08-.08.13-.1.17-.02.03-.02.04-.02.04.02,0,.05.04.07.06.09.08.22.19.37.31.16.13.3.25.42.36.04.03.08.08.08.15,0,.03-.01.07-.04.12-.2.27-.35.52-.43.75-.08.23-.14.44-.16.63-.02.19-.03.36-.03.5,0,.09,0,.16,0,.21,0,.05,0,.09,0,.13,0,.07-.02.14-.05.22-.03.07-.06.14-.08.21-.01.03-.02.05-.03.06h.96s.08-.02.1-.05c.04-.06.09-.14.14-.26.06-.12.11-.23.16-.34.06-.14.06-.17.06-.17h-.33c-.13,0-.23-.06-.3-.17-.06-.1-.08-.23-.08-.39,0-.1.01-.22.04-.36.03-.14.06-.27.1-.4.04-.14.08-.24.12-.32.04-.09.1-.13.17-.13.04,0,.09.02.15.07.29.23.6.52.97.89.28.28.52.51.71.7.19.2.37.39.52.56.15.17.31.35.47.55,0,0,0,0,0-.01.09-.16.21-.39.35-.68.01-.02.02-.04.02-.06h0s0,0-.01-.02"/>
      <path d="M8.37,3.1s.05-.02.09-.05c.05-.05.1-.1.15-.16.05-.06.09-.14.13-.22.04-.08.09-.17.14-.26.02-.06.03-.09.03-.09,0-.02,0-.04-.09-.04h-1.66s-.1.01-.16.1c-.06.09-.13.18-.2.28-.07.1-.12.2-.17.28-.06.11-.06.14-.06.14.02,0,.04.01.07.01h1.72Z"/>
    </g>
  </g>
</svg>