<?xml version="1.0" encoding="UTF-8"?>
<svg id="Layer_2" data-name="Layer 2" xmlns="http://www.w3.org/2000/svg" viewBox="0 0 32.38 5.37">
  <g id="Layer_1-2" data-name="Layer 1">
    <g>
      <path d="M2.91,4.92c-.11.05-.25.07-.42.07h-.42c-.23,0-.4-.01-.52-.03-.13-.02-.22-.06-.27-.11-.05-.05-.08-.12-.08-.19v-1.77s.04-.09.09-.09h.54c.23,0,.39.02.51.05.09.03.18.07.25.13.03-.03.07-.08.11-.14.05-.07.09-.14.12-.19l-.04-.05h-1.5s-.09-.04-.09-.09V.92c0-.05.04-.09.09-.09h1.33c.32,0,.38.45.4.69h.1c.01-.06.03-.13.04-.21.02-.12.04-.25.06-.38.01-.11.02-.2.03-.28l-.08-.07H0v.08c.16.03.28.07.36.11.08.04.18.11.18.2v3.88c0,.13-.16.22-.54.31v.08h3.36c.01-.07.04-.18.06-.36.03-.19.05-.38.07-.58l-.09-.03c-.07.17-.13.3-.19.4-.08.12-.18.21-.29.26"/>
      <path d="M17.05,2.57c0-.1.02-.19.04-.28.03-.2.1-.37.2-.52.11-.16.28-.24.49-.24.31,0,.55.1.71.29.16.18.27.42.33.7.06.28.09.56.09.87s-.02.53-.07.7c-.05.18-.11.31-.19.4-.08.09-.17.14-.26.17-.09.02-.17.03-.25.03-.35,0-.63-.13-.83-.39-.19-.25-.29-.67-.29-1.27,0-.2,0-.36.01-.47M17.18,5.13c.22.16.46.23.73.23.2,0,.38-.04.55-.14.17-.09.32-.22.44-.36.13-.15.24-.31.32-.48.09-.17.15-.33.19-.48.03-.11.05-.23.07-.38.02-.15.03-.29.03-.42,0-.25-.03-.52-.08-.79-.05-.27-.14-.52-.26-.74-.12-.22-.28-.4-.48-.53-.2-.13-.44-.2-.74-.2-.23,0-.43.06-.61.19-.19.13-.35.3-.48.52-.13.22-.24.47-.31.74-.07.27-.11.55-.11.83,0,.52.07.95.2,1.29.13.33.31.57.53.73"/>
      <path d="M28.01,1.72c.09.19.18.4.27.63.09.23.17.47.26.74.08.25.16.5.23.75.07.24.12.45.16.63.06.27.15.49.25.67.14.22.39.27.71.2.1-.02.2-.05.3-.08.18-.06.34-.12.5-.2.16-.08.3-.16.41-.24.26-.19.47-.42.64-.68.06-.1.14-.26.25-.48.1-.21.19-.45.27-.73.08-.28.12-.58.12-.91,0-.09-.01-.21-.03-.34-.02-.14-.05-.27-.08-.41-.03-.14-.06-.25-.09-.34-.03-.08-.05-.1-.05-.1,0,0-.03.01-.08.07-.1.09-.18.19-.27.29-.08.1-.16.2-.23.29-.05.07-.05.1-.05.11,0,.01,0,.03,0,.05,0,.02.01.05.03.09.04.09.08.22.11.37.03.15.07.31.09.49.03.17.04.33.04.49,0,.24-.04.44-.12.59-.08.16-.2.3-.35.42-.23.19-.47.31-.71.38-.24.06-.45.09-.65.09-.25,0-.37-.11-.41-.21-.06-.12-.11-.28-.15-.51-.02-.08-.02-.1-.02-.11,0-.05.03-.1.09-.15.09-.07.19-.14.3-.23.1-.08.2-.17.29-.26.16-.17.3-.38.43-.62.12-.23.19-.47.19-.71,0-.14-.02-.3-.07-.47-.05-.18-.09-.31-.12-.4-.02-.05-.03-.06-.04-.07,0,0,0,0-.02,0,0,0-.02.01-.06.06-.07.08-.14.17-.24.28-.09.1-.18.22-.25.36-.03.05-.04.08-.04.09.01.02.02.05.03.08.04.1.07.2.1.3.03.1.04.23.04.39s-.04.31-.12.44c-.07.12-.16.22-.25.29-.17.12-.32.14-.37.03l-.02-.04s0-.01,0-.02l-.1-.41c-.03-.12-.06-.25-.1-.38-.09-.34-.17-.63-.26-.87-.08-.23-.15-.42-.21-.53-.03-.05-.05-.06-.05-.07,0,0-.02.01-.06.06-.05.07-.12.16-.19.26-.07.1-.14.19-.19.27l-.03.05s-.05.07-.05.08c-.02.03-.02.04-.02.05,0,0,0,.01.02.04.02.03.03.06.05.1"/>
      <path d="M7.65,3.58s.05-.02.09-.05c.05-.04.1-.1.14-.16.04-.06.09-.13.13-.22.04-.08.09-.17.13-.26.02-.06.02-.09.02-.09,0-.02,0-.04-.08-.04h-1.66c-.06,0-.11.03-.16.1-.07.09-.13.18-.2.28-.07.1-.12.2-.17.28-.05.11-.06.14-.06.14.02,0,.04.01.07.01h1.72Z"/>
      <path d="M11.39,2.56c0-.1.02-.19.04-.28.03-.2.1-.37.2-.52.11-.16.28-.24.49-.24.31,0,.55.09.72.29.16.18.27.42.33.7.06.28.09.56.09.87,0,.29-.02.52-.07.7-.05.18-.11.31-.19.4-.08.09-.17.14-.27.17-.09.02-.17.03-.25.03-.35,0-.63-.13-.82-.39-.19-.25-.29-.67-.29-1.27,0-.22,0-.37.01-.47M11.52,5.13c.22.16.46.23.73.23.2,0,.39-.05.55-.14.17-.09.31-.22.44-.36.13-.15.23-.31.32-.48.09-.17.15-.33.19-.48.03-.11.05-.24.07-.38.02-.14.03-.28.03-.42,0-.25-.03-.52-.08-.79-.05-.27-.14-.52-.26-.74-.12-.22-.28-.4-.48-.53-.2-.14-.44-.2-.74-.2-.23,0-.43.06-.61.19-.18.13-.35.3-.48.52-.13.22-.24.47-.31.74-.07.27-.11.55-.11.83,0,.52.07.95.2,1.29.13.33.31.57.53.73"/>
      <path d="M31.54,0c-.06,0-.12.02-.16.06-.04.04-.07.09-.07.16,0,.06.02.11.07.15.08.08.22.09.32,0,.04-.04.07-.09.07-.15,0-.06-.02-.11-.07-.16-.05-.04-.1-.06-.15-.06"/>
      <path d="M22.92,5.34c.12.02.21.02.28.02.15,0,.33-.03.54-.09.21-.06.39-.16.54-.31.14-.14.28-.31.41-.52.12-.2.18-.43.18-.67,0-.17-.04-.31-.11-.42-.08-.12-.17-.22-.28-.29-.12-.08-.23-.15-.33-.2-.06-.03-.13-.06-.13-.13,0-.04.03-.08.05-.11.15-.11.27-.24.37-.39.1-.14.15-.29.15-.45,0-.18-.05-.32-.14-.44-.1-.12-.23-.22-.38-.29-.17-.08-.34-.13-.51-.16-.18-.03-.36-.05-.51-.05-.02,0-.02,0-.02,0-.02.02-.04.05-.08.1-.05.07-.1.16-.17.27-.07.12-.12.21-.14.27-.01.03-.02.05-.02.07.08,0,.17,0,.28,0s.22.01.33.03c.11.01.21.03.28.06.3.1.45.26.45.46,0,.16-.05.28-.14.37-.08.07-.17.13-.28.17-.08.03-.15.08-.21.13-.05.05-.1.11-.14.19-.05.09-.09.17-.12.24-.03.07-.04.11-.04.13.01,0,.04.01.1.02.07,0,.15,0,.23.02.1.01.17.03.23.04.23.05.39.14.48.26.09.12.14.28.14.47,0,.16-.08.26-.14.3-.08.06-.18.1-.3.12-.21.03-.44.04-.66-.02-.1-.03-.21-.07-.33-.11-.02-.01-.04-.02-.05-.02,0,0,0,.01-.03.03-.03.03-.07.09-.12.18-.06.09-.11.18-.16.28-.05.09-.09.17-.12.22,0,.03-.01.04-.01.04h0s.01.02.05.04c.05.02.14.05.26.08.11.03.22.05.34.06"/>
    </g>
  </g>
</svg>