<?xml version="1.0" encoding="UTF-8"?>
<svg id="Layer_2" data-name="Layer 2" xmlns="http://www.w3.org/2000/svg" viewBox="0 0 32.38 5.43">
  <g id="Layer_1-2" data-name="Layer 1">
    <g>
      <path d="M7.65,3.58s.06-.02.09-.05c.05-.04.09-.1.15-.17.05-.06.09-.14.14-.22.04-.08.09-.17.13-.26.02-.06.03-.09.03-.09,0-.02,0-.04-.09-.04h-1.66c-.06,0-.11.03-.16.1-.07.09-.13.18-.2.28-.07.1-.12.2-.17.28-.06.11-.06.14-.06.14.02,0,.04.01.07.01h1.72Z"/>
      <path d="M2.91,4.92c-.11.05-.25.07-.42.07h-.42c-.23,0-.4-.01-.52-.03-.13-.02-.22-.06-.27-.11-.05-.05-.08-.12-.08-.19v-1.77s.04-.09.09-.09h.54c.23,0,.39.02.51.05.09.03.18.07.25.13.03-.03.07-.08.12-.14.05-.07.09-.14.13-.19l-.05-.05h-1.49s-.09-.04-.09-.09V.92c0-.05.04-.09.09-.09h1.33c.32,0,.38.45.4.69h.1c.02-.06.03-.13.05-.21.02-.12.04-.25.06-.38.01-.11.02-.2.03-.28l-.08-.07H0v.08c.16.03.28.07.36.12.08.04.18.1.18.19v3.88c0,.13-.16.22-.54.31v.08h3.36c.02-.08.04-.21.06-.36.03-.18.05-.38.07-.58l-.09-.03c-.06.17-.13.3-.19.4-.08.12-.18.21-.29.26"/>
      <path d="M17.05,2.57c0-.1.02-.19.03-.28.03-.2.1-.37.21-.52.11-.16.28-.24.49-.24.31,0,.55.1.72.29.16.18.27.42.33.7.06.28.09.57.09.87s-.02.53-.07.7c-.05.18-.11.31-.19.4-.08.09-.17.14-.26.17-.09.02-.17.03-.25.03-.35,0-.63-.13-.82-.39-.19-.25-.29-.67-.29-1.27,0-.2,0-.36.01-.47M17.18,5.13c.22.16.46.23.73.23.2,0,.39-.05.55-.14.17-.09.31-.22.44-.36.13-.15.24-.31.32-.48.09-.17.15-.33.19-.48.03-.11.05-.23.07-.38.02-.14.03-.28.03-.42,0-.26-.03-.52-.08-.79-.05-.27-.14-.52-.26-.74-.12-.22-.28-.4-.48-.53-.2-.13-.44-.2-.74-.2-.23,0-.43.06-.61.19-.18.13-.35.3-.48.52-.13.22-.24.47-.31.74-.07.27-.11.55-.11.83,0,.52.07.95.2,1.29.13.33.31.57.53.73"/>
      <path d="M31.54,0c-.06,0-.12.02-.16.06-.04.04-.06.09-.06.16,0,.06.02.11.06.15.08.08.22.09.32,0,.05-.04.07-.09.07-.15,0-.06-.02-.11-.07-.16-.05-.04-.1-.06-.15-.06"/>
      <path d="M28.02,1.73c.09.17.17.38.26.62.09.23.17.47.26.74.08.24.15.48.23.75.07.24.12.45.16.63.06.27.15.49.26.67.13.22.39.27.71.2.1-.02.2-.05.3-.08.18-.05.34-.12.5-.2.16-.08.3-.16.41-.24.26-.19.48-.42.64-.68.06-.1.15-.26.25-.48.1-.21.19-.45.27-.73.08-.27.11-.58.11-.91,0-.09-.01-.21-.03-.34-.02-.13-.05-.27-.08-.42-.03-.14-.06-.25-.09-.34-.03-.08-.05-.1-.05-.1,0,0-.03.01-.08.07-.1.1-.19.19-.27.29-.08.1-.16.2-.23.29-.04.06-.05.1-.05.11,0,.01,0,.03,0,.05,0,.02.01.05.03.09.04.09.08.22.11.37.03.14.07.3.09.49.03.17.04.33.04.49,0,.24-.04.44-.12.6-.08.15-.19.29-.34.42-.23.19-.47.31-.71.38-.24.06-.45.09-.65.09s-.34-.07-.41-.21c-.06-.12-.11-.29-.15-.51,0-.03-.02-.08-.02-.11,0-.05.03-.1.09-.15.09-.07.19-.15.3-.23.11-.08.2-.17.29-.26.16-.17.3-.38.43-.62.12-.23.19-.47.19-.7,0-.14-.02-.3-.07-.47-.05-.18-.09-.31-.12-.4-.02-.05-.03-.06-.04-.07,0,0,0,0-.02,0,0,0-.02.01-.06.06-.06.08-.14.17-.24.28-.09.1-.18.22-.25.36-.03.06-.03.08-.03.09.01.03.02.06.03.08.04.1.07.2.1.3.03.1.04.23.04.39s-.04.31-.11.44c-.07.12-.16.22-.25.28-.17.12-.31.14-.37.03v-.02s-.02-.02-.02-.02c0,0,0-.01,0-.02l-.1-.41c-.03-.12-.06-.25-.1-.38-.09-.34-.18-.63-.26-.87-.08-.24-.15-.42-.21-.53-.03-.05-.05-.06-.06-.07,0,0-.02.01-.06.06-.05.07-.11.16-.19.26-.07.1-.14.19-.19.27-.05.08-.08.12-.09.13-.01.03-.02.04-.02.05,0,0,0,.01.02.04.02.03.04.07.06.11"/>
      <path d="M22.75,4.53c-.04.11-.08.23-.1.37-.03.15-.04.32-.04.51,0,.02,0,.03,0,.03v-.02s.03-.02.04-.03c.11-.08.22-.18.35-.31.12-.12.24-.24.35-.36.02-.02.04-.05.05-.09.01-.04.02-.09.02-.13,0-.07.02-.14.05-.23.03-.1.05-.18.08-.25.07-.18.17-.39.31-.63.14-.23.26-.44.38-.6.08-.11.18-.25.31-.43.13-.17.23-.34.32-.5.07-.12.12-.25.18-.38.05-.12.07-.21.07-.26,0-.02,0-.05-.03-.07,0,0-.02-.02-.09-.02h-1.85c-.13,0-.21-.02-.26-.08-.05-.04-.08-.11-.12-.22l-.02-.02s-.03.01-.05.05c-.04.06-.09.14-.16.25-.07.1-.13.22-.2.34-.07.12-.12.22-.17.32-.01.03-.03.06-.04.09,0,.03-.01.04-.02.05,0,0,0,.03.08.03h1.7c.15,0,.21.09.21.18,0,.11-.06.26-.17.44l-.04.07c-.1.15-.19.31-.3.47-.16.26-.33.52-.49.77-.16.24-.27.46-.35.66"/>
      <path d="M11.39,2.56c0-.1.02-.19.03-.28.03-.2.1-.37.2-.52.11-.16.28-.24.49-.24.31,0,.55.09.72.29.16.18.27.42.33.7.06.28.09.57.09.87,0,.29-.02.52-.07.7-.05.18-.11.31-.19.4-.08.09-.17.14-.27.17-.09.02-.17.03-.25.03-.35,0-.63-.13-.83-.39-.19-.25-.29-.67-.29-1.27,0-.22,0-.37.01-.47M11.52,5.13c.22.16.46.23.73.23.2,0,.39-.05.55-.14.16-.09.31-.22.44-.36.12-.15.23-.31.32-.48.09-.17.15-.33.19-.48.03-.11.05-.24.07-.38.02-.14.03-.28.03-.42,0-.26-.03-.52-.08-.79-.05-.27-.14-.52-.26-.74-.12-.22-.28-.4-.48-.53-.2-.13-.44-.2-.74-.2-.23,0-.43.06-.61.19-.18.13-.34.3-.48.52-.14.22-.24.47-.31.74-.07.27-.11.55-.11.83,0,.52.07.95.2,1.29.13.33.31.57.53.73"/>
    </g>
  </g>
</svg>