<?xml version="1.0" encoding="UTF-8"?>
<svg id="Layer_2" data-name="Layer 2" xmlns="http://www.w3.org/2000/svg" viewBox="0 0 4.41 5.37">
  <g id="Layer_1-2" data-name="Layer 1-2">
    <g>
      <path d="M3.56,0c-.06,0-.12.02-.16.06-.04.04-.07.09-.07.16,0,.06.02.11.07.15.08.08.22.09.32,0,.04-.04.07-.09.07-.15s-.02-.11-.07-.16C3.67.02,3.62,0,3.57,0"/>
      <path d="M.95,4.47c.06.27.15.49.25.67.1.16.24.23.45.23.08,0,.17,0,.27-.03.1-.02.2-.05.3-.08.18-.06.34-.12.5-.2s.3-.16.41-.24c.26-.19.48-.42.64-.68.06-.1.14-.26.25-.48.1-.21.19-.46.27-.73s.12-.58.12-.91c0-.09,0-.21-.03-.34-.02-.14-.05-.28-.08-.41-.03-.14-.06-.25-.09-.34-.03-.08-.05-.1-.05-.1,0,0-.03,0-.08.07-.1.09-.18.19-.27.29-.08.1-.16.2-.23.29-.05.07-.05.1-.05.11v.05s.01.05.03.09c.04.09.08.22.11.37.03.14.07.3.09.49.03.17.04.33.04.49,0,.24-.04.44-.12.59-.08.16-.2.3-.35.42-.23.19-.47.31-.71.38-.24.06-.45.09-.65.09s-.34-.07-.41-.21c-.06-.12-.11-.28-.15-.51-.02-.08-.02-.1-.02-.11,0-.05.03-.1.09-.15.09-.07.19-.14.3-.23.11-.08.2-.17.29-.26.16-.17.3-.38.43-.62.12-.23.19-.47.19-.71,0-.14-.02-.3-.07-.47-.05-.18-.09-.31-.12-.4-.02-.05-.03-.06-.04-.07h-.02s-.02,0-.06.06c-.06.08-.14.17-.24.28-.09.1-.18.22-.25.36-.03.05-.04.08-.04.09.01.03.02.05.03.08.04.1.07.21.1.3.02.1.04.23.04.39s-.04.31-.11.44c-.08.12-.16.22-.25.29-.17.12-.32.14-.37.03v-.02l-.02-.02v-.02l-.1-.41c-.03-.12-.06-.25-.1-.38-.09-.34-.17-.63-.26-.87-.08-.23-.15-.42-.21-.53-.03-.05-.05-.06-.05-.07,0,0-.02,0-.06.06-.05.07-.11.15-.19.26-.07.1-.14.19-.19.27l-.04.05s-.05.07-.05.08c-.02.03-.02.04-.02.05,0,0,0,0,.02.03.02.03.04.07.05.11.09.17.17.38.26.62.09.23.17.47.26.74.08.24.15.49.23.75.07.24.12.45.16.63"/>
    </g>
  </g>
</svg>